<?xml version="1.0" encoding="utf-8"?>
<!-- Generator: Adobe Illustrator 22.1.0, SVG Export Plug-In . SVG Version: 6.00 Build 0)  -->
<svg version="1.1" id="Layer_1" xmlns="http://www.w3.org/2000/svg" xmlns:xlink="http://www.w3.org/1999/xlink" x="0px" y="0px"
	 viewBox="0 0 382 268" style="enable-background:new 0 0 382 268;" xml:space="preserve">
<style type="text/css">
	.st0{fill:#BDD4E7;stroke:#637074;stroke-width:10;stroke-miterlimit:10;}
	.st1{enable-background:new    ;}
	.st2{fill:#021227;}
</style>
<title>aboutus</title>
<g id="Layer_2_1_">
	<g id="Layer_2-2">
		<path class="st0" d="M53.3,5h275.3C355.3,5,377,26.6,377,53.3v161.3c0,26.7-21.6,48.4-48.4,48.4H53.3C26.6,263,5,241.3,5,214.6
			V53.3C5,26.6,26.6,5,53.3,5z"/>
		<g class="st1">
			<path class="st2" d="M152.1,44h-6.7l-1.8,4.6h-2.3l7.6-18.1h0.1l7.6,18.1h-2.7L152.1,44z M151.3,42l-2.5-6.3l-2.6,6.3H151.3z"/>
			<path class="st2" d="M168.1,38.9c0.7,0.4,1.3,1,1.8,1.8c0.4,0.8,0.6,1.7,0.6,2.7c0,1.1-0.2,2-0.7,2.9c-0.5,0.8-1.1,1.4-1.9,1.9
				c-0.8,0.4-1.7,0.6-2.6,0.6c-0.8,0-1.6-0.2-2.2-0.5c-0.7-0.3-1.2-0.8-1.6-1.3v1.5h-2.2V30h2.2v10c0.4-0.5,1-0.9,1.7-1.3
				c0.7-0.3,1.5-0.5,2.4-0.5S167.3,38.5,168.1,38.9z M167.3,45.9c0.6-0.7,0.9-1.5,0.9-2.5c0-0.6-0.1-1.2-0.4-1.7
				c-0.3-0.5-0.7-0.9-1.2-1.2s-1.1-0.5-1.7-0.5c-0.8,0-1.5,0.2-2.1,0.7c-0.6,0.4-1,1-1.2,1.7v2c0.2,0.7,0.6,1.3,1.2,1.8
				c0.6,0.5,1.3,0.7,2.2,0.7C165.8,46.9,166.6,46.6,167.3,45.9z"/>
			<path class="st2" d="M173.3,40.8c0.5-0.8,1.1-1.4,2-1.9c0.8-0.5,1.8-0.7,2.8-0.7c1.1,0,2,0.2,2.8,0.7s1.5,1.1,1.9,1.9
				s0.7,1.7,0.7,2.7s-0.2,1.9-0.7,2.7s-1.1,1.4-1.9,1.9c-0.8,0.5-1.8,0.7-2.9,0.7c-1,0-2-0.2-2.8-0.7c-0.8-0.4-1.5-1.1-2-1.9
				c-0.5-0.8-0.7-1.7-0.7-2.8C172.6,42.5,172.9,41.6,173.3,40.8z M175.3,45.3c0.3,0.5,0.7,0.9,1.2,1.2s1,0.5,1.6,0.5
				c0.9,0,1.7-0.3,2.3-1s0.9-1.5,0.9-2.4c0-1-0.3-1.8-0.9-2.5c-0.6-0.7-1.4-1-2.3-1c-0.6,0-1.2,0.2-1.6,0.5
				c-0.5,0.3-0.9,0.7-1.1,1.3c-0.3,0.5-0.4,1.1-0.4,1.7S175,44.7,175.3,45.3z"/>
			<path class="st2" d="M195.8,38.6v9.9h-2l-0.1-1.9c-0.3,0.7-0.9,1.2-1.6,1.6c-0.7,0.4-1.5,0.6-2.4,0.6s-1.7-0.3-2.2-0.8
				c-0.6-0.6-0.9-1.3-0.9-2.1v-7.3h2.2v6.6c0,0.6,0.2,1,0.5,1.3s0.7,0.5,1.3,0.5c0.5,0,1-0.2,1.5-0.5c0.4-0.3,0.8-0.8,1.1-1.4
				c0.3-0.6,0.4-1.2,0.4-1.9v-4.6C193.6,38.6,195.8,38.6,195.8,38.6z"/>
			<path class="st2" d="M202.9,34.3v4.4h2.7v1.8h-2.7v8.1h-2.3v-8.1h-1.8v-1.8h1.8v-4.4H202.9z"/>
			<path class="st2" d="M219.1,44.5c0.4,0.6,0.9,1.1,1.5,1.5s1.3,0.5,2.1,0.5s1.5-0.2,2.2-0.5c0.6-0.4,1.2-0.8,1.5-1.5
				s0.6-1.3,0.6-2.1V31.2h2.3v11.3c0,1.2-0.3,2.3-0.9,3.3c-0.6,1-1.4,1.7-2.4,2.2s-2.1,0.8-3.3,0.8s-2.3-0.3-3.3-0.8
				s-1.8-1.3-2.3-2.2c-0.6-1-0.9-2-0.9-3.3V31.2h2.3v11.2C218.6,43.2,218.8,43.9,219.1,44.5z"/>
			<path class="st2" d="M234.2,48.4c-0.7-0.3-1.2-0.6-1.6-1.1l1-1.3c0.4,0.4,0.8,0.7,1.3,0.9c0.4,0.2,0.9,0.3,1.3,0.3
				c0.5,0,1-0.1,1.3-0.3s0.5-0.5,0.5-1c0-0.3-0.1-0.6-0.3-0.8s-0.4-0.4-0.7-0.5s-0.7-0.2-1.3-0.4c-1.7-0.5-2.5-1.5-2.5-2.9
				c0-0.8,0.3-1.5,0.9-2.1c0.6-0.6,1.5-0.9,2.6-0.9c0.7,0,1.3,0.1,1.9,0.3c0.5,0.2,1,0.5,1.5,0.8l-0.9,1.4c-0.3-0.3-0.6-0.5-1-0.6
				c-0.4-0.2-0.8-0.2-1.1-0.3c-0.4,0-0.8,0.1-1.2,0.3s-0.5,0.5-0.5,0.9c0,0.3,0.1,0.6,0.3,0.8s0.4,0.3,0.6,0.4
				c0.2,0.1,0.7,0.2,1.3,0.4c0.8,0.3,1.5,0.6,1.9,1.1c0.5,0.4,0.7,1,0.7,1.8c0,1-0.3,1.8-1,2.4s-1.6,0.9-2.9,0.9
				C235.6,48.8,234.9,48.7,234.2,48.4z"/>
		</g>
	</g>
</g>
</svg>
