<?xml version="1.0" encoding="utf-8"?>
<!-- Generator: Adobe Illustrator 22.1.0, SVG Export Plug-In . SVG Version: 6.00 Build 0)  -->
<svg version="1.1" id="Layer_1" xmlns="http://www.w3.org/2000/svg" xmlns:xlink="http://www.w3.org/1999/xlink" x="0px" y="0px"
	 viewBox="0 0 382 268" style="enable-background:new 0 0 382 268;" xml:space="preserve">
<style type="text/css">
	.st0{fill:#BDD4E7;stroke:#637074;stroke-width:10;stroke-miterlimit:10;}
	.st1{enable-background:new    ;}
	.st2{fill:#021227;}
</style>
<title>aboutapp</title>
<g id="Layer_2_1_">
	<g id="Layer_2-2">
		<path class="st0" d="M53.3,5h275.3C355.3,5,377,26.6,377,53.3v161.3c0,26.7-21.6,48.4-48.4,48.4H53.3C26.6,263,5,241.3,5,214.6
			V53.3C5,26.6,26.6,5,53.3,5z"/>
		<g class="st1">
			<path class="st2" d="M117.6,45.4h-6.7l-1.8,4.6h-2.3l7.6-18.1h0.1l7.6,18.1h-2.7L117.6,45.4z M116.8,43.4l-2.5-6.3l-2.6,6.3
				H116.8z"/>
			<path class="st2" d="M133.6,40.3c0.7,0.4,1.3,1,1.8,1.8c0.4,0.8,0.6,1.7,0.6,2.7c0,1.1-0.2,2-0.7,2.9c-0.5,0.8-1.1,1.4-1.9,1.9
				c-0.8,0.4-1.7,0.6-2.6,0.6c-0.8,0-1.6-0.2-2.2-0.5c-0.7-0.3-1.2-0.8-1.6-1.3V50h-2.2V31.4h2.2v10c0.4-0.5,1-0.9,1.7-1.3
				c0.7-0.3,1.5-0.5,2.4-0.5C132,39.6,132.8,39.9,133.6,40.3z M132.8,47.3c0.6-0.7,0.9-1.5,0.9-2.5c0-0.6-0.1-1.2-0.4-1.7
				c-0.3-0.5-0.7-0.9-1.2-1.2c-0.5-0.3-1.1-0.5-1.7-0.5c-0.8,0-1.5,0.2-2.1,0.7c-0.6,0.4-1,1-1.2,1.7v2c0.2,0.7,0.6,1.3,1.2,1.8
				c0.6,0.5,1.3,0.7,2.2,0.7C131.3,48.3,132.1,48,132.8,47.3z"/>
			<path class="st2" d="M138.8,42.2c0.5-0.8,1.1-1.4,2-1.9c0.8-0.5,1.8-0.7,2.8-0.7c1.1,0,2,0.2,2.8,0.7c0.8,0.5,1.5,1.1,1.9,1.9
				s0.7,1.7,0.7,2.7c0,1-0.2,1.9-0.7,2.7c-0.5,0.8-1.1,1.4-1.9,1.9c-0.8,0.5-1.8,0.7-2.9,0.7c-1,0-2-0.2-2.8-0.7
				c-0.8-0.4-1.5-1.1-2-1.9c-0.5-0.8-0.7-1.7-0.7-2.8C138.1,43.9,138.4,43,138.8,42.2z M140.8,46.7c0.3,0.5,0.7,0.9,1.2,1.2
				c0.5,0.3,1,0.5,1.6,0.5c0.9,0,1.7-0.3,2.3-1c0.6-0.7,0.9-1.5,0.9-2.4c0-1-0.3-1.8-0.9-2.5c-0.6-0.7-1.4-1-2.3-1
				c-0.6,0-1.2,0.2-1.6,0.5c-0.5,0.3-0.9,0.7-1.1,1.3c-0.3,0.5-0.4,1.1-0.4,1.7S140.5,46.1,140.8,46.7z"/>
			<path class="st2" d="M161.3,40V50h-2l-0.1-1.9c-0.3,0.7-0.9,1.2-1.6,1.6s-1.5,0.6-2.4,0.6c-0.9,0-1.7-0.3-2.2-0.8
				c-0.6-0.6-0.9-1.3-0.9-2.1V40h2.2v6.6c0,0.6,0.2,1,0.5,1.3c0.3,0.3,0.7,0.5,1.3,0.5c0.5,0,1-0.2,1.5-0.5c0.4-0.3,0.8-0.8,1.1-1.4
				c0.3-0.6,0.4-1.2,0.4-1.9V40H161.3z"/>
			<path class="st2" d="M168.4,35.7v4.4h2.7v1.8h-2.7V50h-2.3v-8.1h-1.8v-1.8h1.8v-4.4H168.4z"/>
			<path class="st2" d="M184.6,35.7v4.4h2.7v1.8h-2.7V50h-2.3v-8.1h-1.8v-1.8h1.8v-4.4H184.6z"/>
			<path class="st2" d="M198.5,40.5c0.6,0.6,0.9,1.3,0.9,2.1V50h-2.3v-6.6c0-0.6-0.2-1-0.5-1.3c-0.3-0.3-0.8-0.5-1.4-0.5
				c-0.6,0-1.1,0.2-1.6,0.5s-0.8,0.8-1.1,1.3s-0.4,1.2-0.4,1.9V50h-2.2V31.4h2.2v10.5c0.4-0.7,0.9-1.2,1.6-1.6
				c0.7-0.4,1.5-0.6,2.4-0.6C197.1,39.7,197.9,39.9,198.5,40.5z"/>
			<path class="st2" d="M210.4,47.4l1,1.7c-0.5,0.4-1.1,0.6-1.7,0.8c-0.6,0.2-1.2,0.3-1.8,0.3c-1.1,0-2.1-0.2-2.9-0.7
				c-0.8-0.5-1.5-1.1-1.9-1.9c-0.4-0.8-0.7-1.7-0.7-2.7c0-1,0.2-1.9,0.7-2.7s1.2-1.4,2-1.9c0.8-0.5,1.8-0.7,2.8-0.7
				c1.3,0,2.4,0.4,3.3,1.1s1.5,1.8,1.8,3.2l-7.9,2.8c0.3,0.5,0.7,0.9,1.2,1.2c0.5,0.3,1,0.4,1.7,0.4C208.8,48.3,209.6,48,210.4,47.4
				z M205.6,42.4c-0.6,0.6-0.9,1.5-0.9,2.4c0,0.2,0,0.4,0,0.6l5.8-2.1c-0.2-0.5-0.6-1-1-1.3c-0.4-0.3-1-0.5-1.6-0.5
				C206.9,41.4,206.1,41.7,205.6,42.4z"/>
			<path class="st2" d="M233,45.4h-6.7l-1.8,4.6h-2.3l7.6-18.1h0.1l7.6,18.1h-2.7L233,45.4z M232.2,43.4l-2.5-6.3l-2.6,6.3H232.2z"
				/>
			<path class="st2" d="M249,40.3c0.8,0.4,1.3,1.1,1.8,1.9c0.4,0.8,0.6,1.7,0.6,2.8c0,1-0.2,2-0.7,2.7c-0.5,0.8-1.1,1.4-1.9,1.8
				c-0.8,0.4-1.7,0.6-2.7,0.6c-0.7,0-1.4-0.2-2.1-0.5c-0.7-0.3-1.2-0.7-1.6-1.3v6.3h-2.2V39.9h1.9l0.2,1.7c0.5-0.6,1.1-1,1.8-1.4
				c0.7-0.4,1.5-0.5,2.3-0.5C247.4,39.6,248.3,39.9,249,40.3z M247.4,48c0.5-0.3,1-0.7,1.3-1.2c0.3-0.5,0.5-1.1,0.5-1.7
				c0-0.7-0.1-1.2-0.4-1.8s-0.7-0.9-1.2-1.2c-0.5-0.3-1.1-0.5-1.7-0.5c-0.8,0-1.6,0.2-2.2,0.7c-0.6,0.5-1,1.1-1.2,1.9v1.7
				c0.1,0.8,0.5,1.4,1.1,1.9c0.6,0.5,1.3,0.7,2.1,0.7C246.3,48.4,246.9,48.3,247.4,48z"/>
			<path class="st2" d="M263.2,40.3c0.8,0.4,1.3,1.1,1.8,1.9c0.4,0.8,0.6,1.7,0.6,2.8c0,1-0.2,2-0.7,2.7s-1.1,1.4-1.9,1.8
				c-0.8,0.4-1.7,0.6-2.7,0.6c-0.7,0-1.4-0.2-2.1-0.5c-0.7-0.3-1.2-0.7-1.6-1.3v6.3h-2.2V39.9h1.9l0.2,1.7c0.5-0.6,1.1-1,1.8-1.4
				c0.7-0.4,1.5-0.5,2.3-0.5C261.7,39.6,262.5,39.9,263.2,40.3z M261.6,48c0.5-0.3,1-0.7,1.3-1.2c0.3-0.5,0.5-1.1,0.5-1.7
				c0-0.7-0.1-1.2-0.4-1.8c-0.3-0.5-0.7-0.9-1.2-1.2c-0.5-0.3-1.1-0.5-1.7-0.5c-0.8,0-1.6,0.2-2.2,0.7c-0.6,0.5-1,1.1-1.2,1.9v1.7
				c0.1,0.8,0.5,1.4,1.1,1.9c0.6,0.5,1.3,0.7,2.1,0.7C260.5,48.4,261.1,48.3,261.6,48z"/>
		</g>
	</g>
</g>
</svg>
