<svg xmlns="http://www.w3.org/2000/svg" viewBox="0 0 114.19 114.19"><defs><style>.cls-1{fill:#ac757c;}.cls-2{fill:#272e43;}.cls-3{fill:#bcd5e6;}</style></defs><title>Asset 11</title><g id="Layer_2" data-name="Layer 2"><g id="Layer_1-2" data-name="Layer 1"><circle class="cls-1" cx="57.1" cy="57.1" r="57.1"/><g id="Outdoors"><polygon class="cls-2" points="17.51 82.47 29.98 60.68 37.87 60.68 41.02 66.01 31.88 82.47 17.51 82.47"/><polygon class="cls-2" points="30.93 58.68 36.73 58.68 33.83 53.73 30.93 58.68"/><path class="cls-2" d="M53.67,47.93,33.83,82.47h57.9L79.62,61.54C69,63.91,64.8,54.87,73.15,49.93l-3.68-7.07H60.62S61.19,48.12,53.67,47.93Z"/><path class="cls-2" d="M60.52,40.79h7.33l-5.07-9-3.4,5.81S61.57,39.36,60.52,40.79Z"/><path class="cls-3" d="M32.55,46.6H55.76c6.54-1.09,3.46-9.41-1-8.74,1.08-1.49-3.34-6.79-7.54-3.28-.11-7.42-15.75-8.39-14.37,3.47C30.06,37.78,26.57,44.57,32.55,46.6Z"/><path class="cls-3" d="M98.73,60.41H74.2c-6.9-1.1-3.65-9.41,1.1-8.75-1.14-1.48,3.53-6.79,8-3.27C83.39,41,99.91,40,98.46,51.86,101.36,51.59,105.05,58.38,98.73,60.41Z"/></g></g></g></svg>