<?xml version="1.0" encoding="utf-8"?>
<!-- Generator: Adobe Illustrator 22.1.0, SVG Export Plug-In . SVG Version: 6.00 Build 0)  -->
<svg version="1.1" id="Layer_1" xmlns="http://www.w3.org/2000/svg" xmlns:xlink="http://www.w3.org/1999/xlink" x="0px" y="0px"
	 viewBox="0 0 79.1 30.5" style="enable-background:new 0 0 79.1 30.5;" xml:space="preserve">
<style type="text/css">
	.st0{fill:none;stroke:#637074;stroke-width:4;stroke-linecap:round;stroke-miterlimit:10;}
	.st1{enable-background:new    ;}
</style>
<title>back</title>
<g id="Layer_2_1_">
	<g id="Layer_4">
		<g id="back">
			<polyline class="st0" points="25.9,28.5 3.9,16 25.9,2 			"/>
			<g class="st1">
				<path d="M46.4,15.4c0.5,0.6,0.7,1.3,0.7,2.1c0,0.9-0.2,1.7-0.7,2.3c-0.4,0.6-1,1.1-1.8,1.3c-0.7,0.3-1.5,0.4-2.4,0.4H38V7h3.7
					c1.5,0,2.6,0.3,3.4,0.9c0.8,0.6,1.2,1.5,1.2,2.7c0,0.8-0.2,1.4-0.5,2c-0.3,0.6-0.8,1-1.5,1.3C45.2,14.3,45.9,14.8,46.4,15.4z
					 M39.9,13.3h2.2c0.7,0,1.3-0.2,1.7-0.6s0.6-1,0.6-1.6c0-0.7-0.2-1.3-0.7-1.6c-0.5-0.4-1.1-0.5-1.9-0.5h-1.9V13.3z M44.3,19.1
					c0.5-0.4,0.8-0.9,0.8-1.7c0-0.8-0.3-1.3-0.9-1.7c-0.6-0.4-1.3-0.5-2.2-0.5h-2.1v4.5h2.3C43,19.7,43.7,19.5,44.3,19.1z"/>
				<path d="M58.4,13.2v8.3h-1.9v-1.4c-0.3,0.4-0.7,0.7-1.3,1.1c-0.6,0.3-1.2,0.5-1.9,0.5c-0.8,0-1.5-0.2-2.1-0.5
					c-0.6-0.3-1.1-0.8-1.5-1.5c-0.4-0.7-0.5-1.4-0.5-2.3s0.2-1.7,0.6-2.4c0.4-0.7,0.9-1.2,1.5-1.6c0.6-0.4,1.4-0.5,2.2-0.5
					c0.7,0,1.3,0.2,1.8,0.5c0.5,0.3,0.9,0.7,1.3,1.2l0.1-1.3H58.4z M55.6,19.6c0.5-0.4,0.8-0.9,0.9-1.6v-1.6c-0.2-0.6-0.5-1.1-1-1.4
					c-0.5-0.4-1.1-0.5-1.7-0.5c-0.5,0-1,0.1-1.4,0.4c-0.4,0.2-0.8,0.6-1,1c-0.2,0.4-0.4,0.9-0.4,1.5c0,0.5,0.1,1,0.4,1.5
					c0.3,0.4,0.6,0.8,1,1.1c0.4,0.3,0.9,0.4,1.4,0.4C54.5,20.1,55.1,19.9,55.6,19.6z"/>
				<path d="M67,21.4c-0.5,0.2-1,0.3-1.6,0.3c-0.9,0-1.7-0.2-2.4-0.5c-0.7-0.4-1.2-0.9-1.6-1.5s-0.6-1.4-0.6-2.3
					c0-0.9,0.2-1.6,0.6-2.3c0.4-0.7,0.9-1.2,1.6-1.5s1.4-0.5,2.2-0.5c1.3,0,2.3,0.3,3.1,1l-0.9,1.2c-0.3-0.2-0.6-0.4-0.9-0.5
					s-0.7-0.2-1.1-0.2c-0.5,0-0.9,0.1-1.4,0.4c-0.4,0.2-0.7,0.6-1,1c-0.2,0.4-0.3,0.9-0.3,1.4s0.1,1,0.4,1.4c0.2,0.4,0.6,0.8,1,1
					c0.4,0.3,0.9,0.4,1.5,0.4c0.7,0,1.3-0.2,1.8-0.6l1,1.2C68,21,67.5,21.2,67,21.4z"/>
				<path d="M73.7,17.5l-1.1,0.9v3.1h-1.9V6h1.9v10.5l4.3-3.4l1.1,1L75,16.5l3.5,5h-2.2L73.7,17.5z"/>
			</g>
		</g>
	</g>
</g>
</svg>
