<?xml version="1.0" encoding="utf-8"?>
<!-- Generator: Adobe Illustrator 22.1.0, SVG Export Plug-In . SVG Version: 6.00 Build 0)  -->
<svg version="1.1" id="Layer_1" xmlns="http://www.w3.org/2000/svg" xmlns:xlink="http://www.w3.org/1999/xlink" x="0px" y="0px"
	 viewBox="0 0 750 1334" style="enable-background:new 0 0 750 1334;" xml:space="preserve">
<style type="text/css">
	.st0{fill:#E7DDDF;}
	.st1{fill:#EFD1B4;}
	.st2{fill:#E2C6AF;}
	.st3{fill:#896037;}
	.st4{fill:#936B47;}
	.st5{fill:#577072;}
	.st6{fill:#6F8384;}
</style>
<g>
	<g id="Layer_2_1_">
		<g id="bg1">
			<g id="Girl_Body">
				<rect class="st0" width="750" height="1334"/>
				<g>
					<path class="st1" d="M513.8,658c0.2-12-1-70.3-1-70.3s-0.5-26.3-9.7-46.3c0,0-6.8-20-5.3-29.5s-5.2-90.3-5.2-90.3
						s-3.8-34.6-39.6-36.5c0,0-35.7-9.4-39-18c-3.7-10.2-6.7-20.6-8.8-31.2c12.6-10.6,15.7-29.2,15.7-29.2s6.1,4.5,8.6-12.5
						s-6-13-6-13c1.5-44-19-46-38.5-46c-41.9,0-34.5,48-34.5,48s-9.8-2.8-5.8,12.2s8.9,11.4,8.9,11.4s2.2,16.9,14.3,28
						c0,0,2.2,26.5-14.3,38s-57,10-66,31.5s-13,104-11.5,120.5c1.5,16.5-13,24-13.5,45s-4,98-4,98s-7.5,57.8,29.5,73.8
						c0,0,6.5-3.2-4.2-12.5s-3.2-25.5-3.2-25.5s2.8,6.8,5.5,10.5c0,0,0,11.5,8.8,13.5c0,0,0.8-9-2.2-14.8c0,0,1.8-25.5-9.8-33.2
						c0,0-8.2-13.5-1.2-33.8s17.8-72.8,17.8-72.8s2.5-24.5,1-36.2c0,0,15.9-35.1,15.5-49.5c-0.9-36.3,19.5,31,17.5,61
						S308,612,306,629.5s-9.5,80.5,10,145.2s15.2,100.5,15.2,100.5s-3.5,38.8-2,55.8s26.8,116.2,27,129.2s-8.5,18.8-3.2,38.2
						c0.5,2.8-0.2,5.7-2,8c-3,3.5-9.8,7-9.8,11.2s17.5,10.8,44.2,3c0.5-1.9,0.8-3.8,1-5.7c0.1,3.5,0.2,6.1,0.2,6.1s46.3,9.5,46-4.7
						c0,0,1.5-3.2-11-14.7c0,0-2-6,0-17.5s-3.9-11.2-3.7-18.4s8-58,17.8-85.7s9.5-82.2,9.5-82.2s-5.8-39.2,0-61.3s20.8-102,20.8-102
						s8.8-67,1.7-104.8s-25-56.2-26.2-71s3.8-80.8,17-84.2c0,0-3.9,17.5,12,50.3c0,0,2.9,7.7,2.9,13.3s-0.2,37.2,2,44.7
						s18,67.9,18,67.9s5.8,18.1-5.5,31.9s-8.2,44-8.2,44s6,1.3,6.3-11.2c0,0,0.5-4.2,2.7-4.8s4.8-8,4.8-8s7,14.2-5.3,28s3.5,7,3.5,7
						s18-13.5,20.7-31.5C515.2,688.5,513.6,670,513.8,658z M394.5,1010.2c0,0,2.2,42.8-4.8,55.5c0,0-5.3,6,0.8,16
						c0,0,0.7,14-2.2,16.7c-1.1,1-1.6,4.4-1.8,8.3c-0.2-1.9-0.5-3.8-1.1-5.6c-2.8-9,0.7-25,0.5-28.5s-6.5-23-6.5-29.5s4.5-84,4.5-84
						s3.8-32.8-4-56.2c0,0-4.5-31,0.2-53.2c0,0,2.3-54.3,1.7-64.3s0.7-83.3,0.7-83.3s5.7,1.3,8.7,0.3l2.2,146c0,0,5.5,25.8-1.7,65.3
						S394.5,1010.2,394.5,1010.2z"/>
					<ellipse class="st2" cx="388" cy="557.8" rx="2" ry="4.8"/>
					<path class="st2" d="M367.8,334.5c0,0,15.5,17.7,37.4,1.3l1.1,5c0,0-29.9,5.2-30.6,9.6s2.3,20.6-3.3,25.3s-18-2.5-24.6,0
						C347.7,375.7,370.2,371,367.8,334.5z"/>
					<path class="st2" d="M316.5,477.4c0,0,0.9-7.7,4.2-6.1s27,50,25.3,81.7s-26.7,53-29.5,64.3s-13.2,44.3-13.2,44.3s0.7-32.7,5-44
						s24.2-51.7,24.4-64.7C332.9,534.7,340.3,535.7,316.5,477.4z"/>
					<path class="st2" d="M458.6,474.9c0,0,4.6,21.9,9.6,28.9s13.8,38.1,10.5,58.8s2.3,41.1,2.3,41.1s-8.8-27.4-7.3-41.1
						c0.9-8.6,0.7-17.2-0.7-25.8c0,0-1.1-6.9-10.5-31.7C462.5,505.1,455.2,478.2,458.6,474.9z"/>
					<path class="st2" d="M391.1,702.4l2,135c0,0-0.6,14.6,1.6,22.3s-1.8,41.3-1.8,41.3s-7.7,63.3-2,82.3s4.5,58.7,4.5,58.7
						s-3.7,19.1-4.8,21.4s-5.9,10.3-0.2,18.3c0,0,0.8,11.2-1,14.5c-2.1,3.6-3,7.8-2.8,12c0.3,4.7,0,13,0,13l15.7,2.4
						c0,0-7-14.4-6.3-18.7s4.2-24.5,1.8-31.2s4.5-42.8,4.5-42.8L401.4,690L391.1,702.4z"/>
					<path class="st3" d="M358.6,225.6c0,0-13.1-13.2-1.9-25.9s18-9.3,24.9-7s23.3-3.4,27,4.9s3.5,20.6-2.3,26.9
						S364.5,231.7,358.6,225.6z"/>
					<path class="st3" d="M429,244.4c-8.1-29-78.9-34.2-88.9,1.1s14.1,84.2,18.9,89.9c0,0-19-51.7-3.1-84.9c0,0-8.6,19.3-3.8,30.3
						l3.8-7.2l0.5,7.4l1.1-0.1c0,0,1.5-3,1.5-4.1c0.1,1.3-0.1,2.5-0.6,3.7c0,0,1.7,1.3,3.5-1.7c1-1.5,1.6-3.1,1.8-4.9l-1.4,6.2
						l4-0.2c-0.3-1.7-0.1-3.5,0.5-5.1c0,0-1.3,3.8,0.2,4.9l1.4,0.3c0.4-1.5,0.8-3,1-4.6l-0.1,4.5c0,0,8.7,2.2,13.2,1.2
						c0,0,2.1-0.3,2.9,0.7l4.6,0.2c0,0,4.5-6.9,4.7-9.7l0.2,10.3l2-3.8c0.4-2.1,0.6-4.3,0.5-6.5l0.5,8.4c2.6,1.2,5.6,0.6,7.5-1.4
						l4.1-0.5c0,0,0.8-9.4-0.4-12.2c1.8,3.8,2.6,8,2.2,12.2h3c0,0,0.1-9.1-0.8-11.2c0,0,2.7,7.7,2.7,11.2c1.1,1.5,2.9,2.2,4.7,1.8
						c0,0,0-10.3-1.2-13.7c0,0,2.8,10.1,0.8,18.7c0,0,2.8,24.6-0.7,33.7s-5.5,14-5.5,14s13.2-11.6,14.3-23.8S434.3,263.2,429,244.4z
						"/>
					<path class="st4" d="M365.6,241.3c0,0-11.2,16.8-8,27.8c0,0,5.1-5.7,7.4-5.2s-1.5,3.1-0.6,3.9s11.7-3,13-1.4s8.6,11.9,21.7-1.7
						c0,0,1.9-2.2,5.4,0s5.9,4.8,6.6-3c0,0,1-1.9,5,0.1s5.1-0.5,5.1-0.5l-6.9-12.4c-1.3,1.3-3.2,1.9-5,1.7c-3-0.4-6-1.4-12.1,1.7
						c-5.6-5.8-9.5-1.9-11.8,0.3s-3.1-3.8-4.9-4.3s-8.5,0.9-9.7-0.4S365.6,241.3,365.6,241.3z"/>
					<path class="st4" d="M356.7,242.1c-2.1-0.7-4.2-1.8-5.9-3.2c-2.8-2.2-6.7,0.8-6.7,0.8s-5.4,12.1-3.8,25.1c0,0,2.6-6.2,4.3-4.9
						s-1.1,5.1-0.1,6s5.8-5.2,5.8-5.2S350.9,246.5,356.7,242.1z"/>
					<path class="st4" d="M418.9,247.4c0,0,5.8,8.9,5.1,19.8c0,0,1.8-3.4,4-2.4s1.3,3.6,2.4,3.6s1.4-19-4.1-24.3
						C426.2,244.1,423.5,242,418.9,247.4z"/>
					<path class="st4" d="M373.5,192.3c0,0,12.5,6.8,24.2,2.2c0,0,11,2.2,9.8,10.8s-4.2-3.2-6.2-3.2s-2,4.2-2,4.2s-2.8-2-7.9-1.2
						s-7.8-1.8-7.8-1.8l-1.9-5.5c0,0-0.3,4.5-3.3,4.8s-2-6.2-3.2-5.2s1,6.2-1.5,6s-2.8-6-2.8-6s-7,2-7,5.5s-7.5,0.8-4.5-2.4
						S368,192.7,373.5,192.3z"/>
					<path class="st4" d="M355.5,218c0,0,14,13,43.2,6.2c0,0-34.8,3.2-43.2-11.8V218z"/>
					<path class="st5" d="M316.5,477.4c0,0,6.2-35.7,29.6-35.2s41.9,45,41.9,45s13.5-46,35.5-45s35.9,16,34.8,29.8
						c-0.6,1.4-1.2,2.9-2,4.2c-3.7,7.6-5.7,2.8-10.7,31.5c0,0-71.9,22.2-117.3,0.8C328.2,508.5,326.5,499.9,316.5,477.4z"/>
					<path class="st5" d="M308.2,616.1c0,0,51,34.5,79.8,33.1s76.8-33.1,76.8-33.1s3.3,10,2.7,14c0,0-68.7,54.3-76.7,72.3
						c0,0-5.7,1.7-9,0c0,0-16.8-30.3-76.4-71.3L308.2,616.1z"/>
					<path class="st6" d="M326.7,452.8c0,0,34.5-27.2,60.7,44.9c0,0,2.6,2.5,3.9,0s14.6-56.3,47.9-52c0,0-35.1-22.3-51.3,41.5
						c0,0-20.5-47.2-41.9-45C346.1,442.3,336,441.1,326.7,452.8z"/>
					<path class="st6" d="M306.2,625.3c0,0,82.9,56.9,84.5,77.2c0,0-5.8,2.5-9,0c0,0-10.7-24.5-76.4-71.3L306.2,625.3z"/>
					<path class="st6" d="M357.9,516.7c0,0,37,3.8,56-1.9C413.9,514.8,383.5,505,357.9,516.7z"/>
					<path class="st2" d="M370.6,264.5c0,0,5.5,15.7,3.9,16.7s-5.4,0.8-5.4,0.8c2.2,1.2,4.9,1.2,7.1,0
						C376.2,282,378,278.8,370.6,264.5z"/>
				</g>
			</g>
		</g>
	</g>
</g>
</svg>
