<?xml version="1.0" encoding="utf-8"?>
<!-- Generator: Adobe Illustrator 22.1.0, SVG Export Plug-In . SVG Version: 6.00 Build 0)  -->
<svg version="1.1" id="Layer_1" xmlns="http://www.w3.org/2000/svg" xmlns:xlink="http://www.w3.org/1999/xlink" x="0px" y="0px"
	 viewBox="0 0 750 1334" style="enable-background:new 0 0 750 1334;" xml:space="preserve">
<style type="text/css">
	.st0{fill:#B3D7E7;}
	.st1{fill:#EFD1B4;}
	.st2{fill:#E2C6AF;}
	.st3{fill:#577072;}
	.st4{fill:#6F8384;}
	.st5{fill:#4F3224;}
	.st6{fill:#674431;}
	.st7{fill:#795441;}
	.st8{fill:#785340;}
</style>
<g>
	<g id="Layer_2_1_">
		<g id="bg2">
			<g id="Boy_Body">
				<rect class="st0" width="750" height="1334"/>
				<g id="Boy">
					<g id="Boy-2">
						<g id="boy_body-2">
							<path class="st1" d="M543,681.2c-2.9-21.3-3.4-121.4-9.5-134.2s-13.8-25.4-14.8-32.5c-1-7.1-1.5-49-11.9-70.8
								c0,0,7.5-57.5-24.5-68.9s-66.1-20.9-67.8-25.4s-6.7-27.7-3.5-37.3l0,0c3.7-6.5,6.3-13.5,7.9-20.8c7-4.3,9.2-13.8,8.7-22
								c-0.5-8.2-8.7-6.6-8.7-6.6c-3.2-34.4-26.6-38.7-44.5-36.7c-39.4,4.5-33.1,38.9-33.1,38.9c-8.7-6.7-10,5.5-10,5.5
								c1.1,17.4,8.2,18.3,8.2,18.3c2.2,8.5,5.9,16.6,10.7,24c0.1,0.5,4.9,29.2-7.1,37.4s-73.1,22.5-80.9,36.7
								c-7.7,14.2-9.2,56.8-9.2,56.8s-17,39.4-8.7,65.5c0,0-11.8,26.9-14,29.8c-5.8,7.3-14.5,126.4-11.6,171.8
								c0,0,14.5,32.1,32,36.2c0,0,5.8,1.1-0.7-10.5c-6.5-11.7-12.1-17-5.8-29.5c0,0,8.4,2.3,6.8,15.3s10.1,13.3,10.1,13.3
								s-2.4-16-1.5-23.1c1-7.1,2.9-15.9-10.7-40.3c0,0-8.2-11.3,4.6-41.3s29.8-55.7,23.2-90.7c0,0-0.7-5,7.9-28.4
								c5.1-13.7,8.5-27.9,10.3-42.4c0,0,6.5,33.2,16.2,50.4c0,0-1.2,59.3,1.9,74.9c0,0-21.3,47.2-18.6,68c0,0-11.4,109.5,4.8,149.1
								c0,0,9.7,34.1,10.9,43.1s-2.7,31.2-1,43.8s-4.9,30-5.3,35s-1,64.4,14.8,112.9c0,0,1.5,15.8,0,25.2s1.9,17,1.2,21.3
								c-0.7,4.3-15,24-14.3,28.2s11.1,18.6,55.5,4.4c0,0,7.8-0.2-8.5-36.4c0,0-1-9.2,1.2-16.3c2.2-7.1-4.8-19-4.8-19
								s15.5-80.2,15.7-88.2s2.9-35.3-8.2-61.8c0,0-1.7-21.3,4.9-42.4c6.5-21.1,13.6-148.4,13.6-148.4l11.1,0.2
								c0,0,2.4,100.8,13.7,148c11.3,47.2-2.5,56.3-3,71.7c-0.5,15.3-4.1,27,12.8,109.3c0,0,2.2,14.7-1.2,21.1
								c-3.4,6.4,0,14.9-0.2,18.6s-14,34-10.9,40.5s40,13.7,57.3,1.4c0,0,4.7-4.1-12.8-25.7c0,0-3.1-9.6,0.5-14s-2.2-23.4-1.2-30.9
								c1-7.6,16.7-95.3,16.5-106.5s-7.3-54-7.5-58.6s2.4-50.2,9.7-66.2c7.3-16,15.5-79,6.3-158.5c0,0-6-38.7-16.7-69.4
								c0,0,1-55-1-70.8c0,0,18.4-42.4,17.2-53.4c0,0,6.3,39.2,18.4,60.9c0,0-5.6,58.9,18.9,91.4c24.5,32.5,6.1,55.2,1.9,66
								s-6.3,45.1-4.8,46s10.9-0.7,10.9-21.3c0,0,1.9-7.8,5.6-6.7s2.2,17.4,2.2,17.4s-13.3,18.8-11.9,21.8s6.3,6.2,21.5-11.9
								S546,702.5,543,681.2z"/>
							<path class="st2" d="M350.4,312.6c0,0,15.1,20.4,30.8,18.2s22.8-10.1,22.8-10.1s-13.4,16.3-33.5,16.8s-2.6,18.3-13.9,25.7
								s-32.4-5.2-32.4-5.2s14.4-3.4,21.8-10.6C353.8,340,353.4,323.5,350.4,312.6z"/>
							<path class="st2" d="M295.1,469.1c0,0,17.3-13.8,29.1-8.2s35.6,25.7,47.9,20.9c0,0-15.6,11-47.9-5.5
								c-32.2-16.5,0,56.8,0,56.8s-9,3-7,21.4c2,18.3,12.8,26.3,16.4,39.1s-15.2,26.7-15.2,26.7l-13-6.6c0,0,3.3-16.6,7.8-19.3
								s-10.4-29.8-1.9-74.9L295.1,469.1z"/>
							<ellipse class="st2" cx="375.1" cy="577.5" rx="3" ry="2.9"/>
							<path class="st2" d="M399.8,479.9c6.3,1.9,12.8,2.7,19.4,2.4c10.3-0.6,33.6-13.4,42.6-12.8s22.2,61,22.2,61
								s-21.5-45.1-22.8-56.7c0,0,8.1,11.5-12.8,49.1c0,0,13.6-37.8,5.6-43.6c-8-5.8-20,14.4-32.9,11.5
								C413.2,489,405.9,485.2,399.8,479.9z"/>
							<path class="st2" d="M386.1,713l8.5-7.1c0,0,3.9,149.7,12.9,163.1s-3.2,53.8-2.6,59.2s5.3,120.9,5.3,120.9
								s-24.1-102-9.9-132.5c0,0-5.5-38.1-0.6-47.6C399.8,869,382.2,750.7,386.1,713z"/>
							<path class="st2" d="M410.9,1060.2c0,0,5.7,11.6,3.1,19.6s-11.4,28.1-3.1,37.3c5.2,5.7,11.6,10.2,18.6,13.3
								c0,0-27.6,1.3-32.2-8.1s10.9-40.5,10.9-40.5S404.5,1065.7,410.9,1060.2z"/>
							<path class="st2" d="M484,530.5c0,0,3.6,41.7,12,57.5s27.8,55,25.8,62.3s-9.3,20.1-9.3,20.1s6-17,1.5-28
								s-20.8-34.6-23.8-46.2S484,530.5,484,530.5z"/>
						</g>
						<path class="st3" d="M305.4,613.7c0,0,35.5,20.8,72.7,20.4s78.3-20.4,78.3-20.4l12.2,59.4c0,0-53.3,11.1-83.1,50.9l0.6-11
							l-11.1-0.2l-0.7,11.2c0,0-52.8-44.9-81.1-45.5C293.2,678.5,288.5,645.6,305.4,613.7z"/>
						<path class="st4" d="M333.6,658.9c0,0,28.8,4.4,28.9,16.4s4.6,30.6,12.7,34.1c0,0-20.9-2.5-20.8-32.2
							C354.3,677.2,347.4,659.5,333.6,658.9z"/>
						<path class="st4" d="M294.6,662.4c0,0,11-25.4,15.7-28.4s54.1,16.9,82.2,0c0,0-38.5,5.2-87.1-20.4
							C305.4,613.7,291.8,646,294.6,662.4z"/>
					</g>
					<path class="st5" d="M339.2,232.9c0,0-9.7,7.7-8.7,15l4.3-2.6l-4.4,9.9l4.4-2.9l5.5,29.1l0.7,3.5l2.9,3.3l3.2-49.4
						c0,0,20.9,9.5,32.1,9.9v-3.4c0,0,10.5,13.2,35.7-4.4c0,0,5,29.3,3.6,44.3l2.2-2.9v7.7l7.7-33.8l0.6-2.8l2.2,3.7l-1.8-11.4
						l3.6,3.3c0,0-2.6-15.7-9.4-16.1c5-3.3,1.8-7.3-1.1-6.2c0,0,4.3-9.2-6.9-11.4c0,0,1.4-6.6-7.2-5.9c0,0-4-12.8-9.7-4.4
						c0,0-3.6-7.6-10.1-2.9c0,0,2.2-6.3-10.5-4.1s-36,16.1-36,16.1l1.4-8.8C343.6,205.5,331.9,218.6,339.2,232.9z"/>
					<path class="st6" d="M343.2,207.7c0,0-8.8,13.6-4,19.8s27.4-14.1,39.3-16.1c0,0-23.6,15.1-27.8,25.6c0,0,14.1,1.8,24-6
						c-9.2,11.7-5.2,18.7,6.1,2.9c-0.9,3.3-0.7,11.9,7.4,2.8c4.9-5.5,8.9-11.8,11.9-18.5c0,0-3.5,15.9-5.8,21.2s2.9,9.5,8.7,2.6
						c5.8-6.9,5.2-18.5,5.2-18.5s2.5,8.2,2.3,10.8s10.3,6.2,8.8-4.2s3.1-3.3,2.2,1.6l2.6-5l-1.7,0.1c0,0,4-9-6.8-11.4
						c0,0,0.7-7.1-7.2-5.9c-0.7-4.6-5.2-11.2-9.7-4.4c0,0-2.9-7.9-10.1-2.9c0,0,4.1-16.7-46.5,12
						C342.1,214.2,341.8,211.9,343.2,207.7z"/>
					<path class="st7" d="M339.1,235.2l2.2,2.2c-0.9,2.8-1.3,4.2,2,0c0,0-1.8,17.2-1.1,18.9c0,0-2.9-3.8-3.1-7.5v4.2l-1.5-8.4
						l-1.3,1.2l-1.3-1.6C335.1,244.2,335.6,236.7,339.1,235.2z"/>
					<path class="st8" d="M378.9,200c0,0-16.6,4.2-24.7,12.3l5.4-1.1c0,0-4.7,2.9-6.3,5.9c0,0,6.7-4.2,8.5-4.2s-2.9,4.2-2.9,4.2
						s15.9-9.3,20-9.9c-1.7-1.4-3.9-2.1-6.1-1.8C380.7,203.1,383.6,200.2,378.9,200z"/>
					<path class="st8" d="M388,206.2c0,0-19,13.7-19,18.8c0,0,5.3-2.2,7.2,1c0,0,6-9.6,7.7-9s-2.2,7-2.2,7s6.3,0.7,7.5-1.5
						s1.2,8,1.2,8s10.8-14.9,8.7-20.2c-2.2-5.4-4.3,1.5-5.5,1s2.2-3.4,0.5-5.1s-6,4.4-6,4.4v-4.4H388z"/>
					<path class="st8" d="M403.9,211.1l-3.1,13.7l3.1-5.4v3.2l2.2-2.9v1.8c0,0,0.7-4.9,2.9-4.5c2.2,0.4,2.2,10.7,2.2,10.7
						s4.6-9,2.6-12.4c-1.9-3.4-0.5,0.2-1.7,0.2s-1-3.2-1.9-3.2s-2.7,1.9-2.7,1.9L403.9,211.1z"/>
					<path class="st8" d="M416.8,253.8l3.9-12.3l3.5,15.9v-9.5h2.1l-1-10.5l4.1,8.3l1.8,11.4l-2.2-3.7l-8.3,36.6v-7.7
						C420.7,282.3,420.9,256.4,416.8,253.8z"/>
					<polygon class="st8" points="335.6,256.2 339.2,266.7 340.2,261.5 344.2,284.5 343.9,288.2 341,284.9 					"/>
				</g>
			</g>
		</g>
	</g>
</g>
</svg>
