<svg xmlns="http://www.w3.org/2000/svg" viewBox="0 0 114.19 114.19"><defs><style>.cls-1{fill:#bcd5e6;}.cls-2{fill:#ac757c;}.cls-3{fill:#272e43;}</style></defs><title>Asset 9</title><g id="Layer_2" data-name="Layer 2"><g id="Layer_1-2" data-name="Layer 1"><circle class="cls-1" cx="57.1" cy="57.1" r="57.1"/><g id="Business"><polygon class="cls-2" points="38.33 21.9 35.65 28.09 46.39 49.69 58.52 35.79 70.36 49.69 81.45 27.61 78.74 21.9 58.52 35.05 38.33 21.9"/><polygon class="cls-3" points="38.33 21.9 78.74 21.9 69.33 28.02 47.73 28.02 38.33 21.9"/><polygon class="cls-3" points="58.52 35.79 54.04 40.93 55.48 44.38 61.15 44.38 62.93 40.96 58.52 35.79"/><polygon class="cls-3" points="55.48 44.38 49.46 86.52 58.48 97.25 67.52 86.25 61.15 44.38 55.48 44.38"/><polygon class="cls-2" points="62.06 50.4 71.18 74.24 68.94 80.73 66.41 78.94 62.06 50.4"/></g></g></g></svg>