<?xml version="1.0" encoding="utf-8"?>
<!-- Generator: Adobe Illustrator 22.1.0, SVG Export Plug-In . SVG Version: 6.00 Build 0)  -->
<svg version="1.1" id="Layer_1" xmlns="http://www.w3.org/2000/svg" xmlns:xlink="http://www.w3.org/1999/xlink" x="0px" y="0px"
	 viewBox="0 0 100.4 31" style="enable-background:new 0 0 100.4 31;" xml:space="preserve">
<style type="text/css">
	.st0{fill:#BDD4E7;stroke:#637074;stroke-width:1.74;stroke-miterlimit:10;}
	.st1{enable-background:new    ;}
</style>
<title>BusinessHover</title>
<g id="Layer_2_1_">
	<g id="Layer_5">
		<g id="BusinessHover">
			<path class="st0" d="M15.5,0.9h69.4c8.1,0,14.6,6.6,14.6,14.6v0c0,8.1-6.6,14.6-14.6,14.6H15.5c-8.1,0-14.6-6.6-14.6-14.6v0
				C0.9,7.4,7.4,0.9,15.5,0.9z"/>
			<g class="st1">
				<path d="M27.5,15.6c0.4,0.5,0.6,1.1,0.6,1.8c0,0.8-0.2,1.4-0.6,1.9c-0.4,0.5-0.9,0.9-1.5,1.1c-0.6,0.2-1.3,0.4-2,0.4h-3.7V8.5
					h3.2c1.3,0,2.2,0.3,2.9,0.8c0.7,0.5,1,1.3,1,2.3c0,0.6-0.1,1.2-0.4,1.7c-0.3,0.5-0.7,0.9-1.2,1.1C26.6,14.7,27.1,15.1,27.5,15.6
					z M22,13.9h1.9c0.6,0,1.1-0.2,1.4-0.5c0.3-0.4,0.5-0.8,0.5-1.4c0-0.6-0.2-1.1-0.6-1.4s-0.9-0.5-1.6-0.5H22V13.9z M25.7,18.8
					c0.5-0.3,0.7-0.8,0.7-1.4c0-0.6-0.3-1.1-0.8-1.4c-0.5-0.3-1.1-0.5-1.8-0.5H22v3.8H24C24.7,19.3,25.3,19.1,25.7,18.8z"/>
				<path d="M37.1,13.8v7h-1.4l-0.1-1.3c-0.2,0.5-0.6,0.9-1.1,1.2c-0.5,0.3-1.1,0.5-1.7,0.5c-0.6,0-1.2-0.2-1.6-0.6
					c-0.4-0.4-0.6-0.9-0.7-1.5v-5.2h1.6v4.6c0,0.4,0.1,0.7,0.3,0.9c0.2,0.2,0.5,0.4,0.9,0.4c0.4,0,0.7-0.1,1.1-0.3
					c0.3-0.2,0.6-0.6,0.8-1c0.2-0.4,0.3-0.9,0.3-1.4v-3.3H37.1z"/>
				<path d="M40.3,20.7c-0.5-0.2-0.9-0.4-1.1-0.8l0.7-0.9c0.3,0.3,0.6,0.5,0.9,0.6c0.3,0.1,0.6,0.2,0.9,0.2c0.4,0,0.7-0.1,0.9-0.2
					c0.2-0.1,0.4-0.4,0.4-0.7c0-0.2-0.1-0.4-0.2-0.6c-0.1-0.1-0.3-0.3-0.5-0.3s-0.5-0.2-0.9-0.3c-1.2-0.4-1.8-1.1-1.8-2.1
					c0-0.6,0.2-1.1,0.7-1.5c0.4-0.4,1-0.6,1.8-0.6c0.5,0,0.9,0.1,1.3,0.2c0.4,0.1,0.7,0.3,1.1,0.6l-0.6,1c-0.2-0.2-0.4-0.3-0.7-0.5
					c-0.3-0.1-0.5-0.2-0.8-0.2c-0.3,0-0.6,0.1-0.8,0.2c-0.2,0.2-0.3,0.4-0.3,0.6c0,0.2,0.1,0.4,0.2,0.5c0.1,0.1,0.3,0.2,0.5,0.3
					s0.5,0.2,0.9,0.3c0.6,0.2,1,0.4,1.4,0.7c0.3,0.3,0.5,0.7,0.5,1.2c0,0.7-0.2,1.2-0.7,1.7c-0.5,0.4-1.2,0.7-2,0.7
					C41.3,21,40.8,20.9,40.3,20.7z"/>
				<path d="M46.9,10.6c0.2-0.2,0.4-0.3,0.7-0.3c0.2,0,0.5,0.1,0.7,0.3c0.2,0.2,0.3,0.4,0.3,0.6c0,0.2-0.1,0.5-0.3,0.6
					c-0.2,0.2-0.4,0.3-0.7,0.3c-0.2,0-0.5-0.1-0.7-0.3s-0.3-0.4-0.3-0.6C46.6,11,46.7,10.8,46.9,10.6z M48.3,13.8v7h-1.6v-7H48.3z"
					/>
				<path d="M57.1,14.1c0.4,0.4,0.7,0.9,0.7,1.5v5.2h-1.6v-4.7c0-0.4-0.1-0.7-0.4-0.9c-0.2-0.2-0.5-0.3-1-0.4
					c-0.6,0-1.1,0.2-1.5,0.7c-0.4,0.5-0.6,1.1-0.6,1.9v3.3h-1.6v-7h1.4l0.1,1.4c0.2-0.5,0.6-0.9,1.1-1.2c0.5-0.3,1.1-0.4,1.7-0.4
					C56.1,13.5,56.7,13.7,57.1,14.1z"/>
				<path d="M65.5,19l0.7,1.2c-0.4,0.2-0.8,0.4-1.2,0.6c-0.4,0.1-0.9,0.2-1.3,0.2c-0.8,0-1.5-0.2-2-0.5c-0.6-0.3-1-0.8-1.4-1.3
					c-0.3-0.6-0.5-1.2-0.5-1.9c0-0.7,0.2-1.3,0.5-1.9s0.8-1,1.4-1.4c0.6-0.3,1.3-0.5,2-0.5c0.9,0,1.7,0.3,2.3,0.8
					c0.6,0.5,1,1.3,1.3,2.3l-5.6,2c0.2,0.4,0.5,0.6,0.8,0.8s0.7,0.3,1.2,0.3C64.4,19.6,64.9,19.4,65.5,19z M62.1,15.4
					c-0.4,0.5-0.6,1-0.6,1.7c0,0.2,0,0.3,0,0.4l4.1-1.5c-0.2-0.4-0.4-0.7-0.7-0.9c-0.3-0.2-0.7-0.4-1.2-0.4
					C63,14.7,62.5,15,62.1,15.4z"/>
				<path d="M69.8,20.7c-0.5-0.2-0.9-0.4-1.1-0.8l0.7-0.9c0.3,0.3,0.6,0.5,0.9,0.6c0.3,0.1,0.6,0.2,0.9,0.2c0.4,0,0.7-0.1,0.9-0.2
					c0.2-0.1,0.4-0.4,0.4-0.7c0-0.2-0.1-0.4-0.2-0.6c-0.1-0.1-0.3-0.3-0.5-0.3c-0.2-0.1-0.5-0.2-0.9-0.3c-1.2-0.4-1.8-1.1-1.8-2.1
					c0-0.6,0.2-1.1,0.7-1.5c0.4-0.4,1-0.6,1.8-0.6c0.5,0,0.9,0.1,1.3,0.2c0.4,0.1,0.7,0.3,1.1,0.6l-0.6,1c-0.2-0.2-0.4-0.3-0.7-0.5
					c-0.3-0.1-0.5-0.2-0.8-0.2c-0.3,0-0.6,0.1-0.8,0.2c-0.2,0.2-0.3,0.4-0.3,0.6c0,0.2,0.1,0.4,0.2,0.5c0.1,0.1,0.3,0.2,0.5,0.3
					c0.2,0.1,0.5,0.2,0.9,0.3c0.6,0.2,1,0.4,1.4,0.7c0.3,0.3,0.5,0.7,0.5,1.2c0,0.7-0.2,1.2-0.7,1.7c-0.5,0.4-1.2,0.7-2,0.7
					C70.8,21,70.3,20.9,69.8,20.7z"/>
				<path d="M76.8,20.7c-0.5-0.2-0.9-0.4-1.1-0.8l0.7-0.9c0.3,0.3,0.6,0.5,0.9,0.6s0.6,0.2,0.9,0.2c0.4,0,0.7-0.1,0.9-0.2
					s0.4-0.4,0.4-0.7c0-0.2-0.1-0.4-0.2-0.6s-0.3-0.3-0.5-0.3c-0.2-0.1-0.5-0.2-0.9-0.3c-1.2-0.4-1.8-1.1-1.8-2.1
					c0-0.6,0.2-1.1,0.7-1.5c0.4-0.4,1-0.6,1.8-0.6c0.5,0,0.9,0.1,1.3,0.2c0.4,0.1,0.7,0.3,1.1,0.6l-0.6,1c-0.2-0.2-0.4-0.3-0.7-0.5
					s-0.5-0.2-0.8-0.2c-0.3,0-0.6,0.1-0.8,0.2c-0.2,0.2-0.3,0.4-0.3,0.6c0,0.2,0.1,0.4,0.2,0.5s0.3,0.2,0.5,0.3
					c0.2,0.1,0.5,0.2,0.9,0.3c0.6,0.2,1,0.4,1.4,0.7c0.3,0.3,0.5,0.7,0.5,1.2c0,0.7-0.2,1.2-0.7,1.7c-0.5,0.4-1.2,0.7-2,0.7
					C77.7,21,77.2,20.9,76.8,20.7z"/>
			</g>
		</g>
	</g>
</g>
</svg>
