<?xml version="1.0" encoding="utf-8"?>
<!-- Generator: Adobe Illustrator 22.1.0, SVG Export Plug-In . SVG Version: 6.00 Build 0)  -->
<svg version="1.1" id="Layer_1" xmlns="http://www.w3.org/2000/svg" xmlns:xlink="http://www.w3.org/1999/xlink" x="0px" y="0px"
	 viewBox="0 0 100.4 31" style="enable-background:new 0 0 100.4 31;" xml:space="preserve">
<style type="text/css">
	.st0{fill:#BDD4E7;stroke:#637074;stroke-width:1.74;stroke-miterlimit:10;}
	.st1{enable-background:new    ;}
</style>
<title>CasualHover</title>
<g id="Layer_2_1_">
	<g id="Layer_5">
		<g id="CasualHover">
			<path class="st0" d="M15.5,0.9h69.4c8.1,0,14.6,6.6,14.6,14.6v0c0,8.1-6.6,14.6-14.6,14.6H15.5c-8.1,0-14.6-6.6-14.6-14.6v0
				C0.9,7.4,7.4,0.9,15.5,0.9z"/>
			<g class="st1">
				<path d="M33.4,20.6c-0.6,0.2-1.3,0.3-2,0.3c-1.3,0-2.4-0.3-3.3-0.8c-1-0.6-1.7-1.3-2.2-2.2c-0.5-0.9-0.8-2-0.8-3.1
					c0-1.2,0.3-2.3,0.8-3.3c0.5-1,1.2-1.7,2.2-2.3c0.9-0.5,2-0.8,3.1-0.8c0.7,0,1.3,0.1,1.9,0.3c0.6,0.2,1.1,0.4,1.6,0.7L34,10.9
					c-0.9-0.6-1.9-1-2.8-1c-0.8,0-1.5,0.2-2.2,0.6s-1.2,1-1.6,1.7c-0.4,0.7-0.6,1.5-0.6,2.4c0,0.9,0.2,1.7,0.6,2.4s0.9,1.3,1.6,1.7
					c0.7,0.4,1.5,0.6,2.4,0.6c1.1,0,2.1-0.3,2.9-0.9l0.7,1.5C34.5,20.1,34,20.4,33.4,20.6z"/>
				<path d="M44.5,13.8v7h-1.6v-1.2c-0.2,0.3-0.6,0.6-1.1,0.9c-0.5,0.3-1,0.4-1.6,0.4c-0.7,0-1.3-0.1-1.8-0.4
					c-0.5-0.3-1-0.7-1.3-1.3c-0.3-0.6-0.5-1.2-0.5-2c0-0.8,0.2-1.4,0.5-2c0.3-0.6,0.8-1,1.3-1.3c0.5-0.3,1.2-0.5,1.8-0.5
					c0.6,0,1.1,0.1,1.6,0.4c0.4,0.3,0.8,0.6,1.1,1l0.1-1.1H44.5z M42.1,19.2c0.4-0.3,0.7-0.8,0.8-1.3v-1.4c-0.1-0.5-0.4-0.9-0.9-1.2
					c-0.4-0.3-0.9-0.5-1.5-0.5c-0.4,0-0.8,0.1-1.2,0.3s-0.6,0.5-0.8,0.9c-0.2,0.4-0.3,0.8-0.3,1.2c0,0.5,0.1,0.9,0.3,1.2
					s0.5,0.7,0.9,0.9c0.4,0.2,0.8,0.3,1.2,0.3C41.2,19.7,41.7,19.5,42.1,19.2z"/>
				<path d="M47.7,20.7c-0.5-0.2-0.9-0.4-1.1-0.8l0.7-0.9c0.3,0.3,0.6,0.5,0.9,0.6c0.3,0.1,0.6,0.2,0.9,0.2c0.4,0,0.7-0.1,0.9-0.2
					c0.2-0.1,0.4-0.4,0.4-0.7c0-0.2-0.1-0.4-0.2-0.6c-0.1-0.1-0.3-0.3-0.5-0.3s-0.5-0.2-0.9-0.3c-1.2-0.4-1.8-1.1-1.8-2.1
					c0-0.6,0.2-1.1,0.7-1.5c0.4-0.4,1-0.6,1.8-0.6c0.5,0,0.9,0.1,1.3,0.2c0.4,0.1,0.7,0.3,1.1,0.6l-0.6,1c-0.2-0.2-0.4-0.3-0.7-0.5
					c-0.3-0.1-0.5-0.2-0.8-0.2c-0.3,0-0.6,0.1-0.8,0.2c-0.2,0.2-0.3,0.4-0.3,0.6c0,0.2,0.1,0.4,0.2,0.5c0.1,0.1,0.3,0.2,0.5,0.3
					s0.5,0.2,0.9,0.3c0.6,0.2,1,0.4,1.4,0.7c0.3,0.3,0.5,0.7,0.5,1.2c0,0.7-0.2,1.2-0.7,1.7c-0.5,0.4-1.2,0.7-2,0.7
					C48.7,21,48.2,20.9,47.7,20.7z"/>
				<path d="M60.7,13.8v7h-1.4l-0.1-1.3c-0.2,0.5-0.6,0.9-1.1,1.2c-0.5,0.3-1.1,0.5-1.7,0.5c-0.6,0-1.2-0.2-1.6-0.6
					s-0.6-0.9-0.7-1.5v-5.2h1.6v4.6c0,0.4,0.1,0.7,0.3,0.9c0.2,0.2,0.5,0.4,0.9,0.4c0.4,0,0.7-0.1,1.1-0.3s0.6-0.6,0.8-1
					c0.2-0.4,0.3-0.9,0.3-1.4v-3.3H60.7z"/>
				<path d="M70.7,13.8v7h-1.6v-1.2c-0.2,0.3-0.6,0.6-1.1,0.9c-0.5,0.3-1,0.4-1.6,0.4c-0.7,0-1.3-0.1-1.8-0.4
					c-0.5-0.3-1-0.7-1.3-1.3c-0.3-0.6-0.5-1.2-0.5-2c0-0.8,0.2-1.4,0.5-2s0.8-1,1.3-1.3c0.5-0.3,1.2-0.5,1.8-0.5
					c0.6,0,1.1,0.1,1.6,0.4c0.4,0.3,0.8,0.6,1.1,1l0.1-1.1H70.7z M68.3,19.2c0.4-0.3,0.7-0.8,0.8-1.3v-1.4c-0.1-0.5-0.4-0.9-0.8-1.2
					c-0.4-0.3-0.9-0.5-1.5-0.5c-0.4,0-0.8,0.1-1.2,0.3c-0.4,0.2-0.6,0.5-0.8,0.9c-0.2,0.4-0.3,0.8-0.3,1.2c0,0.5,0.1,0.9,0.3,1.2
					c0.2,0.4,0.5,0.7,0.9,0.9c0.4,0.2,0.8,0.3,1.2,0.3C67.4,19.7,67.9,19.5,68.3,19.2z"/>
				<path d="M75,7.6v13.2h-1.6V7.6H75z"/>
			</g>
		</g>
	</g>
</g>
</svg>
