<svg xmlns="http://www.w3.org/2000/svg" viewBox="0 0 114.19 114.19"><defs><style>.cls-1{fill:#617073;}.cls-2{fill:#e3dcde;}.cls-3{fill:#272e43;}</style></defs><title>Asset 10</title><g id="Layer_2" data-name="Layer 2"><g id="Layer_1-2" data-name="Layer 1"><circle class="cls-1" cx="57.1" cy="57.1" r="57.1"/><g id="Casua_" data-name="Casua;"><path class="cls-2" d="M45,41.11S32.85,21.36,56.72,16c0,0,23.36,1,12.6,25.11l11,2.3s3.76-1.1,9.16,21.58c0,0-1,20.68-5.06,20.28v4.2H77v3.89H37.66V89.57H30.08v-4.4s-1.74,2.1-3.79-11.09L25.09,65s5.19-19.88,7.14-20.68S45,41.11,45,41.11Z"/><path class="cls-3" d="M67.67,30.77c0,5.6-4.08,13.34-9.82,13.34s-11-7.74-11-13.34a10.4,10.4,0,0,1,20.8,0Z"/><rect class="cls-3" x="49.14" y="47.2" width="2.56" height="11.09" rx="1.14" ry="1.14"/><rect class="cls-3" x="62.87" y="47.2" width="2.56" height="11.09" rx="1.14" ry="1.14"/><path class="cls-3" d="M42.42,77.42s6.87,2,8.87-6.49H65s.35,6.8,8.55,6.7c0,0,2-1.8-1.33-2.2S67,71.73,67,69.13H49.18s-.82,6.6-5.63,6.4C43.55,75.53,41.09,75.13,42.42,77.42Z"/><path class="cls-3" d="M36.75,84.38v0L35.11,54.1c-.87-1.27-2.11-.38-2.47-.09a.29.29,0,0,0-.09.21l2.53,30a.25.25,0,0,1-.25.28l-3.77.08a.26.26,0,0,0-.26.26v3.79a.26.26,0,0,0,.26.26h6.86a.26.26,0,0,0,.26-.26V87.4a.25.25,0,0,0-.12-.2C37.06,86.53,36.76,84.49,36.75,84.38Zm-4.67,3V85.89a.26.26,0,0,1,.26-.25h2.73a.29.29,0,0,1,.22.1l1.07,1.5a.25.25,0,0,1-.22.39h-3.8A.26.26,0,0,1,32.08,87.38Z"/><path class="cls-3" d="M76.82,87.2a.25.25,0,0,0-.12.2v1.21a.26.26,0,0,0,.26.26h6.86a.26.26,0,0,0,.26-.26V84.82a.26.26,0,0,0-.25-.26l-3.78-.08a.26.26,0,0,1-.25-.28l2.53-30a.29.29,0,0,0-.09-.21c-.35-.29-1.59-1.18-2.46.09L78.14,84.36v0C78.12,84.49,77.82,86.53,76.82,87.2Zm5.72.43h-3.8a.25.25,0,0,1-.21-.39l1.07-1.5a.27.27,0,0,1,.21-.1h2.73a.26.26,0,0,1,.26.25v1.49A.26.26,0,0,1,82.54,87.63Z"/><rect class="cls-3" x="40.33" y="87.63" width="34.22" height="1.23" rx="0.56" ry="0.56"/></g></g></g></svg>