<?xml version="1.0" encoding="utf-8"?>
<!-- Generator: Adobe Illustrator 22.1.0, SVG Export Plug-In . SVG Version: 6.00 Build 0)  -->
<svg version="1.1" id="Layer_1" xmlns="http://www.w3.org/2000/svg" xmlns:xlink="http://www.w3.org/1999/xlink" x="0px" y="0px"
	 viewBox="0 0 114 114" style="enable-background:new 0 0 114 114;" xml:space="preserve">
<style type="text/css">
	.st0{fill:#617073;}
	.st1{fill:#272E43;}
	.st2{fill:#E3DCDE;}
</style>
<g>
	<g id="Closet_1_">
		<circle class="st0" cx="57.6" cy="58" r="57"/>
		<g id="h19Ndj.tif_2_">
			<g>
				<path class="st1" d="M31.1,27.6c17.5,0,35.1,0,52.6,0c0.5,0.3,1.1,0.6,1.4,1c0.7,0.9,0.7,4.5,0,5.3c-0.5,0.5-1.1,0.8-1.7,1.2
					c-0.1,0-0.1-0.1-0.2-0.1c0,0.3,0,0.6,0,0.9c0,17.5,0,35,0,52.5c0,0.3,0,0.7,0,1c-0.1,1.3-1,2.2-2.3,2.3c-0.8,0-1.6,0-2.3,0
					c-1.4-0.1-2.3-0.9-2.3-2.4c0-0.8,0-1.5,0-2.3c0-1.7-1-2.7-2.6-2.7c-10.8,0-21.6,0-32.5,0c-1.6,0-2.6,1-2.6,2.7
					c0,0.7,0,1.4,0,2.1c0,1.7-0.9,2.6-2.5,2.6c-0.6,0-1.1,0-1.7,0c-1.9,0-2.8-0.9-2.8-3c0-2.5,0-5,0-7.6c0-15.1,0-30.3,0-45.4
					c0-0.2,0-0.5,0-0.7c-1.2-0.4-1.6-0.6-2-1.3c-0.5-0.8-0.5-4.1,0-4.9C29.9,28.2,30.5,27.9,31.1,27.6z M36.3,79.4
					c0.2,0,0.4,0,0.6,0c5.9,0,11.8,0,17.6,0c0.6,0,0.6-0.2,0.6-0.7c0-14.3,0-28.7,0-43c0-0.2,0-0.4,0-0.7c-6.3,0-12.5,0-18.8,0
					C36.3,49.9,36.3,64.6,36.3,79.4z M78.6,79.4c0-14.8,0-29.6,0-44.4c-6.3,0-12.5,0-18.8,0c0,14.8,0,29.6,0,44.4
					C66.1,79.4,72.3,79.4,78.6,79.4z"/>
				<path class="st1" d="M52.7,59.7c0,0.9,0.1,1.8,0,2.7c-0.1,1.2-1.1,2.1-2.2,2.1c-1.2,0-2.3-0.8-2.3-2c-0.1-1.9-0.1-3.8,0-5.7
					c0.1-1.2,1.1-2,2.3-2c1.2,0,2.1,0.9,2.2,2.2C52.7,57.9,52.7,58.8,52.7,59.7C52.7,59.7,52.7,59.7,52.7,59.7z"/>
				<path class="st1" d="M66.9,59.7c0,0.8,0,1.6,0,2.4c-0.1,1.3-0.9,2.3-2,2.4c-1.2,0.2-2.2-0.5-2.6-1.6c-0.1-0.2-0.1-0.3-0.1-0.5
					c0-1.9-0.1-3.8,0-5.6c0.1-1.7,2-2.6,3.4-1.8c0.8,0.5,1.2,1.3,1.2,2.3C66.9,58.2,66.9,59,66.9,59.7
					C66.9,59.7,66.9,59.7,66.9,59.7z"/>
			</g>
		</g>
	</g>
	<g id="h19Ndj.tif_1_">
		<g>
			<path class="st2" d="M33.3,27.6c17.5,0,35.1,0,52.6,0c0.5,0.3,1.1,0.6,1.4,1c0.7,0.9,0.7,4.5,0,5.3c-0.5,0.5-1.1,0.8-1.7,1.2
				c-0.1,0-0.1-0.1-0.2-0.1c0,0.3,0,0.6,0,0.9c0,17.5,0,35,0,52.5c0,0.3,0,0.7,0,1c-0.1,1.3-1,2.2-2.3,2.3c-0.8,0-1.6,0-2.3,0
				c-1.4-0.1-2.3-0.9-2.3-2.4c0-0.8,0-1.5,0-2.3c0-1.7-1-2.7-2.6-2.7c-10.8,0-21.6,0-32.5,0c-1.6,0-2.6,1-2.6,2.7c0,0.7,0,1.4,0,2.1
				c0,1.7-0.9,2.6-2.5,2.6c-0.6,0-1.1,0-1.7,0c-1.9,0-2.8-0.9-2.8-3c0-2.5,0-5,0-7.6c0-15.1,0-30.3,0-45.4c0-0.2,0-0.5,0-0.7
				c-1.2-0.4-1.6-0.6-2-1.3c-0.5-0.8-0.5-4.1,0-4.9C32.1,28.2,32.7,27.9,33.3,27.6z M38.4,79.4c0.2,0,0.4,0,0.6,0
				c5.9,0,11.8,0,17.6,0c0.6,0,0.6-0.2,0.6-0.7c0-14.3,0-28.7,0-43c0-0.2,0-0.4,0-0.7c-6.3,0-12.5,0-18.8,0
				C38.4,49.9,38.4,64.6,38.4,79.4z M80.7,79.4c0-14.8,0-29.6,0-44.4c-6.3,0-12.5,0-18.8,0c0,14.8,0,29.6,0,44.4
				C68.3,79.4,74.5,79.4,80.7,79.4z"/>
			<path class="st2" d="M54.8,59.7c0,0.9,0.1,1.8,0,2.7c-0.1,1.2-1.1,2.1-2.2,2.1c-1.2,0-2.3-0.8-2.3-2c-0.1-1.9-0.1-3.8,0-5.7
				c0.1-1.2,1.1-2,2.3-2c1.2,0,2.1,0.9,2.2,2.2C54.9,57.9,54.8,58.8,54.8,59.7C54.8,59.7,54.8,59.7,54.8,59.7z"/>
			<path class="st2" d="M69,59.7c0,0.8,0,1.6,0,2.4c-0.1,1.3-0.9,2.3-2,2.4c-1.2,0.2-2.2-0.5-2.6-1.6c-0.1-0.2-0.1-0.3-0.1-0.5
				c0-1.9-0.1-3.8,0-5.6c0.1-1.7,2-2.6,3.4-1.8c0.8,0.5,1.2,1.3,1.2,2.3C69,58.2,69,59,69,59.7C69,59.7,69,59.7,69,59.7z"/>
		</g>
	</g>
</g>
</svg>
