<svg xmlns="http://www.w3.org/2000/svg" viewBox="0 0 170.2 98.06"><defs><style>.cls-1{fill:#bdd4e7;stroke:#637074;stroke-miterlimit:10;stroke-width:3.5px;}</style></defs><title>closetnotifs</title><g id="Layer_2" data-name="Layer 2"><g id="Layer_9" data-name="Layer 9"><g id="closetnotifs"><g id="Layer_2-2" data-name="Layer 2"><g id="Layer_4" data-name="Layer 4"><g id="FillForn"><path class="cls-1" d="M153.75,1.75H16.35a14.55,14.55,0,0,0-14.6,14.6v41.2a14.62,14.62,0,0,0,14.6,14.6h55.8l12.9,22.4L98,72.15h55.8a14.64,14.64,0,0,0,14.7-14.6h0V16.35A14.58,14.58,0,0,0,153.75,1.75Z"/></g></g></g><path d="M28,18.73,24,26v3.62H22.49V26l-4-7.23h1.8l3,5.58,3-5.58Z"/><path d="M27.94,24.74a3.2,3.2,0,0,1,1.23-1.19A3.64,3.64,0,0,1,31,23.11a3.51,3.51,0,0,1,1.76.44,3,3,0,0,1,1.2,1.18,3.28,3.28,0,0,1,.43,1.68,3.35,3.35,0,0,1-.43,1.69,3.05,3.05,0,0,1-1.2,1.19,3.86,3.86,0,0,1-3.54,0,3.05,3.05,0,0,1-1.23-1.16,3.41,3.41,0,0,1-.44-1.74A3.28,3.28,0,0,1,27.94,24.74Zm1.23,2.77a2.08,2.08,0,0,0,.72.78,1.91,1.91,0,0,0,1,.28A1.87,1.87,0,0,0,32.35,28a2.16,2.16,0,0,0,.57-1.53,2.19,2.19,0,0,0-.57-1.54,1.85,1.85,0,0,0-1.44-.62,1.79,1.79,0,0,0-1,.29,2.11,2.11,0,0,0-.72.79,2.37,2.37,0,0,0,0,2.16Z"/><path d="M42,23.37v6.21H40.73l-.09-1.19a2.52,2.52,0,0,1-1,1,2.84,2.84,0,0,1-1.47.4,2,2,0,0,1-1.41-.52A1.88,1.88,0,0,1,36.22,28V23.37h1.39v4.09a1.27,1.27,0,0,0,.31.83,1.08,1.08,0,0,0,.83.33,1.57,1.57,0,0,0,.93-.31,2.21,2.21,0,0,0,.67-.85,2.93,2.93,0,0,0,.25-1.2V23.37Z"/><path d="M55.64,18V29.58H54.23v-1a3.23,3.23,0,0,1-1.1.83,3.39,3.39,0,0,1-1.43.3,3,3,0,0,1-1.58-.42A2.91,2.91,0,0,1,49,28.13a3.67,3.67,0,0,1-.4-1.75A3.51,3.51,0,0,1,49,24.63,2.87,2.87,0,0,1,50.2,23.5a3.48,3.48,0,0,1,1.66-.39,3.39,3.39,0,0,1,1.36.29,2.63,2.63,0,0,1,1,.81V18ZM53.5,28.09a2,2,0,0,0,.73-1.17V25.75a1.93,1.93,0,0,0-.76-1.1,2.19,2.19,0,0,0-1.34-.43,2,2,0,0,0-1.05.28,2.05,2.05,0,0,0-.76.76A2.19,2.19,0,0,0,50,26.37a2.14,2.14,0,0,0,.29,1.09,2.11,2.11,0,0,0,.76.78,2,2,0,0,0,1.05.29A2.16,2.16,0,0,0,53.5,28.09Z"/><path d="M58,24.74a3.06,3.06,0,0,1,1.23-1.19A3.61,3.61,0,0,1,61,23.11a3.54,3.54,0,0,1,1.76.44,3.16,3.16,0,0,1,1.2,1.18,3.39,3.39,0,0,1,.43,1.68,3.45,3.45,0,0,1-.43,1.69,3.15,3.15,0,0,1-1.21,1.19,3.59,3.59,0,0,1-1.78.44,3.66,3.66,0,0,1-1.76-.42A3,3,0,0,1,58,28.15a3.31,3.31,0,0,1-.44-1.74A3.18,3.18,0,0,1,58,24.74Zm1.23,2.77a1.94,1.94,0,0,0,.72.78,1.85,1.85,0,0,0,1,.28A1.87,1.87,0,0,0,62.36,28a2.16,2.16,0,0,0,.57-1.53,2.19,2.19,0,0,0-.57-1.54,1.85,1.85,0,0,0-1.44-.62,1.79,1.79,0,0,0-1,.29,2,2,0,0,0-.71.79,2.37,2.37,0,0,0,0,2.16Z"/><path d="M71.53,23.64A1.8,1.8,0,0,1,72.11,25v4.59H70.7V25.47a1.27,1.27,0,0,0-.31-.83,1.18,1.18,0,0,0-.86-.31,1.68,1.68,0,0,0-1.36.66,2.57,2.57,0,0,0-.54,1.68v2.91h-1.4V23.37h1.26l.09,1.2a2.41,2.41,0,0,1,1-1.06,2.93,2.93,0,0,1,1.52-.38A2.08,2.08,0,0,1,71.53,23.64Z"/><path d="M73.84,20.76a2.15,2.15,0,0,0,.44-.69,2.21,2.21,0,0,0,.17-.84,3.23,3.23,0,0,0,0-.35l1.13-.1a2.48,2.48,0,0,1,0,.33,2.43,2.43,0,0,1-.3,1.14,2.38,2.38,0,0,1-.74.87Z"/><path d="M79.31,20.64v2.74H81v1.11h-1.7v5.09H77.9V24.49H76.76V23.38H77.9V20.64Z"/><path d="M97.47,23.64A1.8,1.8,0,0,1,98.06,25v4.59H96.65V25.47a1.28,1.28,0,0,0-.32-.83,1.16,1.16,0,0,0-.85-.31,1.69,1.69,0,0,0-1,.3,2,2,0,0,0-.68.84,2.93,2.93,0,0,0-.25,1.2v2.91H92.18V18h1.36v6.54a2.64,2.64,0,0,1,1-1A2.94,2.94,0,0,1,96,23.13,2.08,2.08,0,0,1,97.47,23.64Z"/><path d="M106.85,23.37v6.21h-1.4v-1a3.29,3.29,0,0,1-1,.8,2.81,2.81,0,0,1-1.42.37,3.3,3.3,0,0,1-1.6-.39,2.72,2.72,0,0,1-1.12-1.11,3.5,3.5,0,0,1-.42-1.76,3.63,3.63,0,0,1,.43-1.78,3.1,3.1,0,0,1,1.16-1.17,3.24,3.24,0,0,1,1.61-.41,2.67,2.67,0,0,1,1.38.35,2.79,2.79,0,0,1,.94.9l.11-1Zm-2.09,4.77a1.9,1.9,0,0,0,.69-1.16V25.75a1.89,1.89,0,0,0-.75-1.07,2.12,2.12,0,0,0-1.3-.41,2,2,0,0,0-1.78,1,2.29,2.29,0,0,0-.28,1.11,2.14,2.14,0,0,0,.29,1.09,2.21,2.21,0,0,0,.76.79,2,2,0,0,0,1,.29A2.07,2.07,0,0,0,104.76,28.14Z"/><path d="M115.19,23.37l-3.32,6.39h-.07l-3.45-6.39H110l1.88,4,1.74-4Z"/><path d="M121,28l.65,1a4.61,4.61,0,0,1-1.07.52,3.81,3.81,0,0,1-1.12.19,3.75,3.75,0,0,1-1.81-.43,3.07,3.07,0,0,1-1.19-1.18,3.39,3.39,0,0,1-.42-1.69,3.17,3.17,0,0,1,.46-1.68,3.35,3.35,0,0,1,1.25-1.2,3.57,3.57,0,0,1,1.74-.44,3,3,0,0,1,2,.71,3.66,3.66,0,0,1,1.12,2l-4.92,1.73a1.87,1.87,0,0,0,.73.72,2,2,0,0,0,1,.27A2.52,2.52,0,0,0,121,28Zm-3-3.17a2.16,2.16,0,0,0-.55,1.53,3.33,3.33,0,0,0,0,.35L121,25.36a2,2,0,0,0-.64-.82,1.64,1.64,0,0,0-1-.32A1.84,1.84,0,0,0,117.93,24.82Z"/><path d="M135.45,23.37v6.21h-1.39v-1a3.29,3.29,0,0,1-1,.8,2.85,2.85,0,0,1-1.43.37,3.23,3.23,0,0,1-1.59-.39A2.74,2.74,0,0,1,129,28.23a3.6,3.6,0,0,1-.41-1.76,3.53,3.53,0,0,1,.43-1.78,3.08,3.08,0,0,1,1.15-1.17,3.27,3.27,0,0,1,1.61-.41,2.67,2.67,0,0,1,1.38.35,2.83,2.83,0,0,1,.95.9l.1-1Zm-2.09,4.77a1.86,1.86,0,0,0,.7-1.16V25.75a1.89,1.89,0,0,0-.75-1.07,2.15,2.15,0,0,0-1.31-.41,2,2,0,0,0-1,.27,1.93,1.93,0,0,0-.75.75A2.18,2.18,0,0,0,130,26.4a2.13,2.13,0,0,0,.28,1.09,2.24,2.24,0,0,0,.77.79,2.14,2.14,0,0,0,2.36-.14Z"/><path d="M143.18,23.64a1.8,1.8,0,0,1,.58,1.35v4.59h-1.41V25.47a1.27,1.27,0,0,0-.31-.83,1.18,1.18,0,0,0-.86-.31,1.68,1.68,0,0,0-1.36.66,2.57,2.57,0,0,0-.54,1.68v2.91h-1.4V23.37h1.26l.09,1.2a2.41,2.41,0,0,1,1-1.06,2.93,2.93,0,0,1,1.52-.38A2.08,2.08,0,0,1,143.18,23.64Z"/><path d="M151.86,23.37l-4,9.19h-1.38l1.42-3.19-2.88-6h1.58l2,4.42,2-4.42Z"/><path d="M20.26,42.53a3.6,3.6,0,0,1-1.17.2,3.77,3.77,0,0,1-1.78-.41,2.83,2.83,0,0,1-1.2-1.15,3.29,3.29,0,0,1-.43-1.71,3.26,3.26,0,0,1,.45-1.71,3.13,3.13,0,0,1,1.2-1.14A3.36,3.36,0,0,1,19,36.2a3.55,3.55,0,0,1,2.36.78l-.71.92a3.26,3.26,0,0,0-.69-.39,2.32,2.32,0,0,0-.84-.15,1.92,1.92,0,0,0-1.73,1,2.15,2.15,0,0,0-.26,1.07,2.12,2.12,0,0,0,.27,1.06,2.16,2.16,0,0,0,.76.77,2.12,2.12,0,0,0,1.1.28,2.08,2.08,0,0,0,1.33-.45l.72.87A3.09,3.09,0,0,1,20.26,42.53Z"/><path d="M24.46,31V42.58h-1.4V31Z"/><path d="M26.79,37.74A3.06,3.06,0,0,1,28,36.55a3.61,3.61,0,0,1,1.78-.44,3.54,3.54,0,0,1,1.76.44,3.16,3.16,0,0,1,1.2,1.18,3.39,3.39,0,0,1,.43,1.68,3.45,3.45,0,0,1-.43,1.69,3.15,3.15,0,0,1-1.21,1.19,3.59,3.59,0,0,1-1.78.44A3.66,3.66,0,0,1,28,42.31a3,3,0,0,1-1.22-1.16,3.31,3.31,0,0,1-.44-1.74A3.18,3.18,0,0,1,26.79,37.74ZM28,40.51a1.94,1.94,0,0,0,.72.78,1.85,1.85,0,0,0,1,.28A1.87,1.87,0,0,0,31.19,41a2.16,2.16,0,0,0,.57-1.53,2.19,2.19,0,0,0-.57-1.54,1.85,1.85,0,0,0-1.44-.62,1.79,1.79,0,0,0-1,.29,2,2,0,0,0-.71.79,2.37,2.37,0,0,0,0,2.16Z"/><path d="M37.07,33.64v2.74h1.7v1.11h-1.7v5.09H35.66V37.49H34.52V36.38h1.14V33.64Z"/><path d="M45.76,36.64A1.8,1.8,0,0,1,46.34,38v4.59H44.93V38.47a1.27,1.27,0,0,0-.31-.83,1.18,1.18,0,0,0-.86-.31,1.66,1.66,0,0,0-1,.3,2.06,2.06,0,0,0-.69.84,2.92,2.92,0,0,0-.24,1.2v2.91h-1.4V31h1.37v6.54a2.61,2.61,0,0,1,1-1,3,3,0,0,1,1.5-.37A2.08,2.08,0,0,1,45.76,36.64Z"/><path d="M53.18,41l.65,1a4.49,4.49,0,0,1-1.08.52,3.74,3.74,0,0,1-2.92-.24,3,3,0,0,1-1.19-1.18,3.39,3.39,0,0,1-.42-1.69,3.25,3.25,0,0,1,.45-1.68,3.46,3.46,0,0,1,1.26-1.2,3.57,3.57,0,0,1,1.74-.44,3,3,0,0,1,2,.71,3.72,3.72,0,0,1,1.12,2L49.9,40.54a1.91,1.91,0,0,0,.72.72,2.05,2.05,0,0,0,1.05.27A2.52,2.52,0,0,0,53.18,41Zm-3-3.17a2.16,2.16,0,0,0-.55,1.53,3.33,3.33,0,0,0,0,.35l3.62-1.34a2.1,2.1,0,0,0-.64-.82,1.66,1.66,0,0,0-1-.32A1.84,1.84,0,0,0,50.15,37.82Z"/><path d="M57,42.47a2.33,2.33,0,0,1-1-.7l.6-.81a2.85,2.85,0,0,0,.78.55,1.94,1.94,0,0,0,.82.2,1.52,1.52,0,0,0,.81-.2.66.66,0,0,0,.32-.6.69.69,0,0,0-.2-.51,1.22,1.22,0,0,0-.44-.28l-.83-.27c-1.07-.34-1.59-1-1.59-1.82a1.79,1.79,0,0,1,.57-1.33,2.26,2.26,0,0,1,1.62-.56,3.79,3.79,0,0,1,1.17.17,2.91,2.91,0,0,1,.94.52l-.55.86a1.77,1.77,0,0,0-.61-.41,2.13,2.13,0,0,0-.7-.16,1.22,1.22,0,0,0-.72.2.63.63,0,0,0-.3.55.6.6,0,0,0,.2.47,1.41,1.41,0,0,0,.4.27l.83.28a3.2,3.2,0,0,1,1.19.66,1.44,1.44,0,0,1,.42,1.09,2,2,0,0,1-.62,1.49,2.54,2.54,0,0,1-1.79.58A3.58,3.58,0,0,1,57,42.47Z"/><path d="M67.56,33.58a.88.88,0,0,1,.59-.23.85.85,0,0,1,.58.23.72.72,0,0,1,.24.55.74.74,0,0,1-.24.56.84.84,0,0,1-.58.22.87.87,0,0,1-.59-.22.72.72,0,0,1-.25-.56A.7.7,0,0,1,67.56,33.58Zm1.25,2.79v6.21h-1.4V36.37Z"/><path d="M76.53,36.64A1.8,1.8,0,0,1,77.12,38v4.59H75.71V38.47a1.28,1.28,0,0,0-.32-.83,1.16,1.16,0,0,0-.85-.31,1.7,1.7,0,0,0-1.37.66,2.57,2.57,0,0,0-.54,1.68v2.91H71.24V36.37H72.5l.09,1.2a2.41,2.41,0,0,1,1-1.06,2.9,2.9,0,0,1,1.51-.38A2.08,2.08,0,0,1,76.53,36.64Z"/><path d="M90.18,36.37l-4,9.19H84.8l1.42-3.19-2.88-6h1.58l2,4.42,2-4.42Z"/><path d="M91.39,37.74a3.2,3.2,0,0,1,1.23-1.19,3.64,3.64,0,0,1,1.78-.44,3.51,3.51,0,0,1,1.76.44,3,3,0,0,1,1.2,1.18,3.28,3.28,0,0,1,.43,1.68,3.35,3.35,0,0,1-.43,1.69,3.08,3.08,0,0,1-1.21,1.19,3.59,3.59,0,0,1-1.78.44,3.66,3.66,0,0,1-1.76-.42,3,3,0,0,1-1.22-1.16A3.41,3.41,0,0,1,91,39.41,3.28,3.28,0,0,1,91.39,37.74Zm1.23,2.77a2.08,2.08,0,0,0,.72.78A2,2,0,0,0,95.79,41a2.16,2.16,0,0,0,.57-1.53,2.19,2.19,0,0,0-.57-1.54,1.85,1.85,0,0,0-1.44-.62,1.79,1.79,0,0,0-1,.29,2.09,2.09,0,0,0-.71.79,2.37,2.37,0,0,0,0,2.16Z"/><path d="M105.44,36.37v6.21h-1.26l-.09-1.19a2.54,2.54,0,0,1-1,1,2.84,2.84,0,0,1-1.47.4,2,2,0,0,1-1.4-.52A1.89,1.89,0,0,1,99.66,41V36.37h1.4v4.09a1.27,1.27,0,0,0,.31.83,1.08,1.08,0,0,0,.83.33,1.57,1.57,0,0,0,.93-.31,2.21,2.21,0,0,0,.67-.85,2.92,2.92,0,0,0,.24-1.2V36.37Z"/><path d="M109.9,36.94a3.55,3.55,0,0,1,.94-.6,2.56,2.56,0,0,1,.87-.23l-.06,1.4a2.26,2.26,0,0,0-1.22.27,2.15,2.15,0,0,0-.86.83,2.26,2.26,0,0,0-.31,1.13v2.84h-1.39V36.37h1.24l.11,1.47A2.82,2.82,0,0,1,109.9,36.94Z"/><path d="M122.29,42.53a3.66,3.66,0,0,1-1.18.2,3.73,3.73,0,0,1-1.77-.41,2.83,2.83,0,0,1-1.2-1.15,3.29,3.29,0,0,1-.43-1.71,3.26,3.26,0,0,1,.45-1.71,3.13,3.13,0,0,1,1.2-1.14A3.36,3.36,0,0,1,121,36.2a3.53,3.53,0,0,1,2.35.78l-.7.92a3.26,3.26,0,0,0-.69-.39,2.32,2.32,0,0,0-.84-.15,1.92,1.92,0,0,0-1.73,1,2.15,2.15,0,0,0-.27,1.07,2.12,2.12,0,0,0,.28,1.06,2.16,2.16,0,0,0,.76.77,2.08,2.08,0,0,0,1.09.28,2.11,2.11,0,0,0,1.34-.45l.72.87A3.09,3.09,0,0,1,122.29,42.53Z"/><path d="M126.48,31V42.58h-1.39V31Z"/><path d="M128.82,37.74a3.06,3.06,0,0,1,1.23-1.19,3.78,3.78,0,0,1,3.54,0,3.07,3.07,0,0,1,1.19,1.18,3.28,3.28,0,0,1,.43,1.68,3.35,3.35,0,0,1-.43,1.69,3.05,3.05,0,0,1-1.2,1.19,3.86,3.86,0,0,1-3.54,0,3,3,0,0,1-1.22-1.16,3.32,3.32,0,0,1-.45-1.74A3.19,3.19,0,0,1,128.82,37.74Zm1.23,2.77a2,2,0,0,0,.71.78,1.91,1.91,0,0,0,1,.28,1.87,1.87,0,0,0,1.44-.61,2.16,2.16,0,0,0,.57-1.53,2.19,2.19,0,0,0-.57-1.54,1.85,1.85,0,0,0-1.44-.62,1.79,1.79,0,0,0-1,.29,2,2,0,0,0-.71.79,2.29,2.29,0,0,0,0,2.16Z"/><path d="M137.53,42.47a2.39,2.39,0,0,1-1-.7l.6-.81a2.89,2.89,0,0,0,.79.55,1.86,1.86,0,0,0,.81.2,1.52,1.52,0,0,0,.81-.2.66.66,0,0,0,.32-.6.69.69,0,0,0-.2-.51,1.22,1.22,0,0,0-.44-.28l-.83-.27c-1.06-.34-1.59-1-1.59-1.82a1.76,1.76,0,0,1,.58-1.33,2.22,2.22,0,0,1,1.61-.56,3.79,3.79,0,0,1,1.17.17,2.81,2.81,0,0,1,.94.52l-.55.86a1.77,1.77,0,0,0-.61-.41,2.13,2.13,0,0,0-.7-.16,1.22,1.22,0,0,0-.72.2.63.63,0,0,0-.3.55.63.63,0,0,0,.2.47,1.41,1.41,0,0,0,.4.27l.83.28a3.2,3.2,0,0,1,1.19.66,1.41,1.41,0,0,1,.43,1.09,2,2,0,0,1-.63,1.49,2.54,2.54,0,0,1-1.79.58A3.58,3.58,0,0,1,137.53,42.47Z"/><path d="M147.63,41l.65,1a4.49,4.49,0,0,1-1.08.52,3.74,3.74,0,0,1-2.92-.24,3,3,0,0,1-1.19-1.18,3.39,3.39,0,0,1-.42-1.69,3.25,3.25,0,0,1,.45-1.68,3.46,3.46,0,0,1,1.26-1.2,3.57,3.57,0,0,1,1.74-.44,3,3,0,0,1,2,.71,3.72,3.72,0,0,1,1.12,2l-4.92,1.73a1.91,1.91,0,0,0,.72.72,2.05,2.05,0,0,0,1.05.27A2.52,2.52,0,0,0,147.63,41Zm-3-3.17a2.16,2.16,0,0,0-.55,1.53,3.33,3.33,0,0,0,0,.35l3.62-1.34a2.1,2.1,0,0,0-.64-.82,1.66,1.66,0,0,0-1-.32A1.84,1.84,0,0,0,144.6,37.82Z"/><path d="M153,33.64v2.74h1.69v1.11H153v5.09h-1.41V37.49h-1.14V36.38h1.14V33.64Z"/><path d="M80.48,49.37l-4,9.19H75.1l1.42-3.19-2.88-6h1.58l2,4.42,2-4.42Z"/><path d="M86.26,54l.64,1a4.61,4.61,0,0,1-1.07.52,3.81,3.81,0,0,1-1.12.19,3.75,3.75,0,0,1-1.81-.43,3.07,3.07,0,0,1-1.19-1.18,3.39,3.39,0,0,1-.42-1.69,3.17,3.17,0,0,1,.46-1.68A3.35,3.35,0,0,1,83,49.55a3.57,3.57,0,0,1,1.74-.44,3,3,0,0,1,2,.71,3.66,3.66,0,0,1,1.12,2L83,53.54a1.87,1.87,0,0,0,.73.72,2,2,0,0,0,1,.27A2.57,2.57,0,0,0,86.26,54Zm-3-3.17a2.16,2.16,0,0,0-.55,1.53c0,.15,0,.27,0,.35l3.62-1.34a2,2,0,0,0-.64-.82,1.63,1.63,0,0,0-1-.32A1.87,1.87,0,0,0,83.22,50.82Z"/><path d="M91.64,46.64v2.74h1.69v1.11H91.64v5.09H90.23V50.49H89.09V49.38h1.14V46.64Z"/><path d="M94.7,55.29a.74.74,0,0,1-.26-.58.73.73,0,0,1,.27-.58,1,1,0,0,1,1.26,0,.77.77,0,0,1,.24.58.75.75,0,0,1-.24.58.89.89,0,0,1-.63.23A.93.93,0,0,1,94.7,55.29Zm1.23-11.11v8.59H94.67V44.18Z"/></g></g></g></svg>