<?xml version="1.0" encoding="utf-8"?>
<!-- Generator: Adobe Illustrator 22.1.0, SVG Export Plug-In . SVG Version: 6.00 Build 0)  -->
<svg version="1.1" id="Layer_1" xmlns="http://www.w3.org/2000/svg" xmlns:xlink="http://www.w3.org/1999/xlink" x="0px" y="0px"
	 viewBox="0 0 170.2 98.1" style="enable-background:new 0 0 170.2 98.1;" xml:space="preserve">
<style type="text/css">
	.st0{fill:#BDD4E7;stroke:#637074;stroke-width:3.5;stroke-miterlimit:10;}
	.st1{enable-background:new    ;}
</style>
<title>closetnotifs</title>
<g id="Layer_9">
	<g id="closetnotifs">
		<g id="Layer_2-2">
			<g id="Layer_4">
				<g id="FillForn">
					<path class="st0" d="M153.8,1.8H16.4c-8,0-14.6,6.5-14.6,14.5v0.1v41.2c0,8.1,6.5,14.6,14.6,14.6h55.8l12.9,22.4L98,72.2h55.8
						c8.1,0,14.7-6.5,14.7-14.6l0,0l0,0V16.4C168.5,8.3,162,1.8,153.8,1.8C153.9,1.7,153.8,1.7,153.8,1.8z"/>
				</g>
			</g>
		</g>
	</g>
	<g class="st1">
		<path d="M33.8,18.7l-3.9,7v3.5h-1.4v-3.5l-3.9-7h1.7l2.9,5.4l2.9-5.4H33.8z"/>
		<path d="M33.7,24.5c0.3-0.5,0.7-0.9,1.2-1.1c0.5-0.3,1.1-0.4,1.7-0.4s1.2,0.1,1.7,0.4s0.9,0.7,1.2,1.1s0.4,1,0.4,1.6
			s-0.1,1.1-0.4,1.6s-0.7,0.9-1.2,1.1c-0.5,0.3-1.1,0.4-1.7,0.4c-0.6,0-1.2-0.1-1.7-0.4c-0.5-0.3-0.9-0.6-1.2-1.1
			c-0.3-0.5-0.4-1-0.4-1.7C33.3,25.6,33.4,25,33.7,24.5z M34.9,27.2c0.2,0.3,0.4,0.6,0.7,0.8c0.3,0.2,0.6,0.3,1,0.3
			c0.6,0,1-0.2,1.4-0.6c0.4-0.4,0.5-0.9,0.5-1.5s-0.2-1.1-0.5-1.5s-0.8-0.6-1.4-0.6c-0.4,0-0.7,0.1-1,0.3c-0.3,0.2-0.5,0.4-0.7,0.8
			c-0.2,0.3-0.3,0.7-0.3,1C34.6,26.5,34.7,26.9,34.9,27.2z"/>
		<path d="M47.2,23.2v6H46L45.9,28c-0.2,0.4-0.5,0.7-0.9,1c-0.4,0.3-0.9,0.4-1.4,0.4c-0.5,0-1-0.2-1.4-0.5c-0.4-0.3-0.5-0.8-0.6-1.3
			v-4.4H43v3.9c0,0.3,0.1,0.6,0.3,0.8s0.4,0.3,0.8,0.3c0.3,0,0.6-0.1,0.9-0.3s0.5-0.5,0.6-0.8c0.2-0.3,0.2-0.7,0.2-1.2v-2.8H47.2z"
			/>
		<path d="M60.4,18v11.2H59v-0.9c-0.3,0.3-0.6,0.6-1.1,0.8c-0.4,0.2-0.9,0.3-1.4,0.3c-0.6,0-1.1-0.1-1.5-0.4
			c-0.5-0.3-0.8-0.6-1.1-1.1c-0.3-0.5-0.4-1-0.4-1.7c0-0.6,0.1-1.2,0.4-1.7c0.3-0.5,0.6-0.8,1.1-1.1c0.5-0.2,1-0.4,1.6-0.4
			c0.5,0,0.9,0.1,1.3,0.3c0.4,0.2,0.7,0.4,1,0.8v-6H60.4z M58.3,27.8c0.4-0.3,0.6-0.7,0.7-1.1v-1.1c-0.1-0.4-0.4-0.8-0.7-1.1
			C57.9,24.2,57.5,24,57,24c-0.4,0-0.7,0.1-1,0.3c-0.3,0.2-0.6,0.4-0.7,0.7c-0.2,0.3-0.3,0.7-0.3,1.1c0,0.4,0.1,0.7,0.3,1.1
			c0.2,0.3,0.4,0.6,0.7,0.8c0.3,0.2,0.6,0.3,1,0.3C57.5,28.2,58,28,58.3,27.8z"/>
		<path d="M62.6,24.5c0.3-0.5,0.7-0.9,1.2-1.1c0.5-0.3,1.1-0.4,1.7-0.4s1.2,0.1,1.7,0.4s0.9,0.7,1.2,1.1s0.4,1,0.4,1.6
			s-0.1,1.1-0.4,1.6s-0.7,0.9-1.2,1.1c-0.5,0.3-1.1,0.4-1.7,0.4c-0.6,0-1.2-0.1-1.7-0.4c-0.5-0.3-0.9-0.6-1.2-1.1
			c-0.3-0.5-0.4-1-0.4-1.7C62.2,25.6,62.3,25,62.6,24.5z M63.8,27.2c0.2,0.3,0.4,0.6,0.7,0.8c0.3,0.2,0.6,0.3,1,0.3
			c0.6,0,1-0.2,1.4-0.6c0.4-0.4,0.5-0.9,0.5-1.5s-0.2-1.1-0.5-1.5s-0.8-0.6-1.4-0.6c-0.4,0-0.7,0.1-1,0.3c-0.3,0.2-0.5,0.4-0.7,0.8
			c-0.2,0.3-0.3,0.7-0.3,1C63.5,26.5,63.6,26.9,63.8,27.2z"/>
		<path d="M75.7,23.5c0.4,0.3,0.6,0.8,0.6,1.3v4.4h-1.4v-4c0-0.3-0.1-0.6-0.3-0.8s-0.5-0.3-0.8-0.3c-0.5,0-1,0.2-1.3,0.6
			c-0.3,0.4-0.5,1-0.5,1.6v2.8h-1.3v-6h1.2l0.1,1.2c0.2-0.4,0.5-0.8,1-1c0.4-0.2,0.9-0.4,1.5-0.4C74.9,23,75.3,23.1,75.7,23.5z"/>
		<path d="M77.9,20.7c0.2-0.2,0.3-0.4,0.4-0.7c0.1-0.3,0.2-0.5,0.2-0.8c0-0.1,0-0.2,0-0.3l1.1-0.1c0,0.1,0,0.2,0,0.3
			c0,0.4-0.1,0.7-0.3,1.1c-0.2,0.4-0.4,0.6-0.7,0.8L77.9,20.7z"/>
		<path d="M83.2,20.6v2.6h1.6v1.1h-1.6v4.9h-1.4v-4.9h-1.1v-1.1h1.1v-2.6H83.2z"/>
		<path d="M96.1,23.5c0.4,0.3,0.6,0.8,0.6,1.3v4.4h-1.4v-4c0-0.3-0.1-0.6-0.3-0.8s-0.5-0.3-0.8-0.3c-0.3,0-0.7,0.1-0.9,0.3
			c-0.3,0.2-0.5,0.5-0.7,0.8s-0.2,0.7-0.2,1.2v2.8H91V18h1.3v6.3c0.2-0.4,0.5-0.7,1-1c0.4-0.2,0.9-0.4,1.4-0.4
			C95.3,23,95.7,23.1,96.1,23.5z"/>
		<path d="M105.1,23.2v6h-1.3v-1c-0.2,0.3-0.5,0.5-0.9,0.8c-0.4,0.2-0.9,0.4-1.4,0.4c-0.6,0-1.1-0.1-1.5-0.4
			c-0.5-0.2-0.8-0.6-1.1-1.1c-0.3-0.5-0.4-1-0.4-1.7s0.1-1.2,0.4-1.7s0.6-0.9,1.1-1.1c0.5-0.3,1-0.4,1.6-0.4c0.5,0,1,0.1,1.3,0.3
			c0.4,0.2,0.7,0.5,0.9,0.9l0.1-1H105.1z M103.1,27.8c0.4-0.3,0.6-0.6,0.7-1.1v-1.2c-0.1-0.4-0.4-0.8-0.7-1
			c-0.4-0.3-0.8-0.4-1.3-0.4c-0.4,0-0.7,0.1-1,0.3c-0.3,0.2-0.5,0.4-0.7,0.7c-0.2,0.3-0.3,0.7-0.3,1.1c0,0.4,0.1,0.7,0.3,1.1
			c0.2,0.3,0.4,0.6,0.7,0.8c0.3,0.2,0.6,0.3,1,0.3C102.4,28.2,102.8,28.1,103.1,27.8z"/>
		<path d="M113.2,23.2l-3.2,6.2h-0.1l-3.3-6.2h1.6L110,27l1.7-3.8H113.2z"/>
		<path d="M118.7,27.7l0.6,1c-0.3,0.2-0.7,0.4-1,0.5c-0.4,0.1-0.7,0.2-1.1,0.2c-0.7,0-1.2-0.1-1.7-0.4s-0.9-0.7-1.1-1.1
			s-0.4-1-0.4-1.6c0-0.6,0.1-1.1,0.4-1.6c0.3-0.5,0.7-0.9,1.2-1.2s1.1-0.4,1.7-0.4c0.8,0,1.4,0.2,2,0.7c0.5,0.5,0.9,1.1,1.1,1.9
			l-4.7,1.7c0.2,0.3,0.4,0.5,0.7,0.7c0.3,0.2,0.6,0.3,1,0.3C117.8,28.2,118.3,28,118.7,27.7z M115.8,24.6c-0.4,0.4-0.5,0.9-0.5,1.5
			c0,0.1,0,0.3,0,0.3l3.5-1.3c-0.1-0.3-0.3-0.6-0.6-0.8c-0.3-0.2-0.6-0.3-1-0.3C116.6,24,116.2,24.2,115.8,24.6z"/>
		<path d="M132.7,23.2v6h-1.3v-1c-0.2,0.3-0.5,0.5-0.9,0.8c-0.4,0.2-0.9,0.4-1.4,0.4c-0.6,0-1.1-0.1-1.5-0.4
			c-0.5-0.2-0.8-0.6-1.1-1.1c-0.3-0.5-0.4-1-0.4-1.7s0.1-1.2,0.4-1.7s0.6-0.9,1.1-1.1c0.5-0.3,1-0.4,1.6-0.4c0.5,0,1,0.1,1.3,0.3
			c0.4,0.2,0.7,0.5,0.9,0.9l0.1-1H132.7z M130.7,27.8c0.4-0.3,0.6-0.6,0.7-1.1v-1.2c-0.1-0.4-0.4-0.8-0.7-1
			c-0.4-0.3-0.8-0.4-1.3-0.4c-0.4,0-0.7,0.1-1,0.3c-0.3,0.2-0.5,0.4-0.7,0.7c-0.2,0.3-0.3,0.7-0.3,1.1c0,0.4,0.1,0.7,0.3,1.1
			c0.2,0.3,0.4,0.6,0.7,0.8s0.6,0.3,1,0.3C129.9,28.2,130.3,28.1,130.7,27.8z"/>
		<path d="M140.1,23.5c0.4,0.3,0.6,0.8,0.6,1.3v4.4h-1.4v-4c0-0.3-0.1-0.6-0.3-0.8s-0.5-0.3-0.8-0.3c-0.5,0-1,0.2-1.3,0.6
			c-0.3,0.4-0.5,1-0.5,1.6v2.8H135v-6h1.2l0.1,1.2c0.2-0.4,0.5-0.8,1-1c0.4-0.2,0.9-0.4,1.5-0.4C139.3,23,139.8,23.1,140.1,23.5z"/>
		<path d="M148.5,23.2l-3.9,8.9h-1.3l1.4-3.1l-2.8-5.8h1.5l1.9,4.3l1.9-4.3H148.5z"/>
		<path d="M46.2,34.5c0.2-0.1,0.4-0.2,0.6-0.2s0.4,0.1,0.6,0.2c0.2,0.1,0.2,0.3,0.2,0.5c0,0.2-0.1,0.4-0.2,0.5
			c-0.2,0.1-0.3,0.2-0.6,0.2s-0.4-0.1-0.6-0.2c-0.2-0.1-0.2-0.3-0.2-0.5C45.9,34.8,46,34.7,46.2,34.5z M47.4,37.2v6H46v-6H47.4z"/>
		<path d="M51.7,34.6v2.6h1.6v1.1h-1.6v4.9h-1.4v-4.9h-1.1v-1.1h1.1v-2.6H51.7z"/>
		<path d="M59.2,41.7l0.6,1c-0.3,0.2-0.7,0.4-1,0.5c-0.4,0.1-0.7,0.2-1.1,0.2c-0.7,0-1.2-0.1-1.7-0.4s-0.9-0.7-1.1-1.1
			s-0.4-1-0.4-1.6c0-0.6,0.1-1.1,0.4-1.6s0.7-0.9,1.2-1.2s1.1-0.4,1.7-0.4c0.8,0,1.4,0.2,2,0.7c0.5,0.5,0.9,1.1,1.1,1.9L56,41.2
			c0.2,0.3,0.4,0.5,0.7,0.7c0.3,0.2,0.6,0.3,1,0.3C58.2,42.2,58.7,42,59.2,41.7z M56.3,38.6c-0.4,0.4-0.5,0.9-0.5,1.5
			c0,0.1,0,0.3,0,0.3l3.5-1.3c-0.1-0.3-0.3-0.6-0.6-0.8S58,38,57.6,38C57.1,38,56.6,38.2,56.3,38.6z"/>
		<path d="M71.5,37.5c0.3,0.3,0.5,0.8,0.5,1.3v4.4h-1.3v-3.9c0-0.7-0.3-1.1-1-1.1c-0.3,0-0.7,0.1-0.9,0.3c-0.3,0.2-0.5,0.5-0.6,0.8
			c-0.2,0.3-0.2,0.7-0.2,1.1v2.8h-1.4v-3.9c0-0.7-0.4-1.1-1-1.1c-0.3,0-0.6,0.1-0.9,0.3c-0.3,0.2-0.5,0.5-0.6,0.8
			c-0.2,0.3-0.2,0.7-0.2,1.1v2.8h-1.3v-6h1.2l0.1,1.1c0.2-0.4,0.5-0.8,0.9-1c0.4-0.2,0.9-0.4,1.4-0.4c0.5,0,0.9,0.1,1.2,0.3
			c0.3,0.2,0.5,0.5,0.6,0.9c0.3-0.4,0.6-0.7,1-0.9c0.4-0.2,0.8-0.3,1.2-0.3C70.7,37,71.2,37.1,71.5,37.5z"/>
		<path d="M74.8,43.1c-0.4-0.2-0.7-0.4-1-0.7l0.6-0.8c0.2,0.2,0.5,0.4,0.8,0.5c0.3,0.1,0.5,0.2,0.8,0.2c0.3,0,0.6-0.1,0.8-0.2
			c0.2-0.1,0.3-0.3,0.3-0.6c0-0.2-0.1-0.4-0.2-0.5c-0.1-0.1-0.3-0.2-0.4-0.3c-0.2-0.1-0.4-0.1-0.8-0.3c-1-0.3-1.5-0.9-1.5-1.7
			c0-0.5,0.2-0.9,0.6-1.3c0.4-0.4,0.9-0.5,1.6-0.5c0.4,0,0.8,0.1,1.1,0.2c0.3,0.1,0.6,0.3,0.9,0.5l-0.5,0.8
			c-0.2-0.2-0.3-0.3-0.6-0.4c-0.2-0.1-0.5-0.1-0.7-0.2c-0.3,0-0.5,0.1-0.7,0.2c-0.2,0.1-0.3,0.3-0.3,0.5c0,0.2,0.1,0.3,0.2,0.5
			s0.3,0.2,0.4,0.3c0.1,0.1,0.4,0.1,0.8,0.3c0.5,0.2,0.9,0.4,1.1,0.6c0.3,0.3,0.4,0.6,0.4,1.1c0,0.6-0.2,1.1-0.6,1.4s-1,0.6-1.7,0.6
			C75.6,43.3,75.2,43.2,74.8,43.1z"/>
		<path d="M85,34.5c0.2-0.1,0.4-0.2,0.6-0.2s0.4,0.1,0.6,0.2c0.2,0.1,0.2,0.3,0.2,0.5c0,0.2-0.1,0.4-0.2,0.5
			c-0.2,0.1-0.3,0.2-0.6,0.2s-0.4-0.1-0.6-0.2c-0.2-0.1-0.2-0.3-0.2-0.5C84.7,34.8,84.8,34.7,85,34.5z M86.2,37.2v6h-1.3v-6H86.2z"
			/>
		<path d="M93.6,37.5c0.4,0.3,0.6,0.8,0.6,1.3v4.4h-1.4v-4c0-0.3-0.1-0.6-0.3-0.8s-0.5-0.3-0.8-0.3c-0.5,0-1,0.2-1.3,0.6
			c-0.3,0.4-0.5,1-0.5,1.6v2.8h-1.3v-6h1.2l0.1,1.2c0.2-0.4,0.5-0.8,1-1c0.4-0.2,0.9-0.4,1.5-0.4C92.8,37,93.3,37.1,93.6,37.5z"/>
		<path d="M106.8,37.2l-3.9,8.9h-1.3L103,43l-2.8-5.8h1.5l1.9,4.3l1.9-4.3H106.8z"/>
		<path d="M107.9,38.5c0.3-0.5,0.7-0.9,1.2-1.1s1.1-0.4,1.7-0.4c0.6,0,1.2,0.1,1.7,0.4s0.9,0.7,1.2,1.1s0.4,1,0.4,1.6
			s-0.1,1.1-0.4,1.6s-0.7,0.9-1.2,1.1s-1.1,0.4-1.7,0.4c-0.6,0-1.2-0.1-1.7-0.4s-0.9-0.6-1.2-1.1c-0.3-0.5-0.4-1-0.4-1.7
			C107.5,39.6,107.6,39,107.9,38.5z M109.1,41.2c0.2,0.3,0.4,0.6,0.7,0.8c0.3,0.2,0.6,0.3,1,0.3c0.6,0,1-0.2,1.4-0.6
			c0.4-0.4,0.5-0.9,0.5-1.5s-0.2-1.1-0.5-1.5c-0.4-0.4-0.8-0.6-1.4-0.6c-0.4,0-0.7,0.1-1,0.3c-0.3,0.2-0.5,0.4-0.7,0.8
			c-0.2,0.3-0.3,0.7-0.3,1C108.9,40.5,108.9,40.9,109.1,41.2z"/>
		<path d="M121.5,37.2v6h-1.2l-0.1-1.1c-0.2,0.4-0.5,0.7-0.9,1c-0.4,0.3-0.9,0.4-1.4,0.4c-0.5,0-1-0.2-1.4-0.5
			c-0.4-0.3-0.5-0.8-0.6-1.3v-4.4h1.3v3.9c0,0.3,0.1,0.6,0.3,0.8s0.4,0.3,0.8,0.3c0.3,0,0.6-0.1,0.9-0.3s0.5-0.5,0.6-0.8
			c0.2-0.3,0.2-0.7,0.2-1.2v-2.8H121.5z"/>
		<path d="M125.8,37.8c0.3-0.2,0.6-0.4,0.9-0.6s0.6-0.2,0.8-0.2l-0.1,1.3c-0.4,0-0.8,0.1-1.2,0.3s-0.6,0.5-0.8,0.8
			c-0.2,0.3-0.3,0.7-0.3,1.1v2.7h-1.3v-6h1.2l0.1,1.4C125.3,38.3,125.5,38,125.8,37.8z"/>
		<path d="M59.6,57.1c-0.4,0.1-0.7,0.2-1.1,0.2c-0.6,0-1.2-0.1-1.7-0.4c-0.5-0.3-0.9-0.6-1.2-1.1c-0.3-0.5-0.4-1-0.4-1.7
			c0-0.6,0.1-1.2,0.4-1.6c0.3-0.5,0.7-0.8,1.2-1.1c0.5-0.3,1-0.4,1.6-0.4c0.9,0,1.7,0.3,2.3,0.8l-0.7,0.9c-0.2-0.1-0.4-0.3-0.7-0.4
			c-0.3-0.1-0.5-0.2-0.8-0.2c-0.4,0-0.7,0.1-1,0.3c-0.3,0.2-0.5,0.4-0.7,0.7c-0.2,0.3-0.3,0.7-0.3,1c0,0.4,0.1,0.7,0.3,1
			s0.4,0.6,0.7,0.7c0.3,0.2,0.7,0.3,1.1,0.3c0.5,0,0.9-0.1,1.3-0.4l0.7,0.8C60.3,56.8,59.9,57,59.6,57.1z"/>
		<path d="M63.6,46v11.2h-1.3V46H63.6z"/>
		<path d="M65.8,52.5c0.3-0.5,0.7-0.9,1.2-1.1c0.5-0.3,1.1-0.4,1.7-0.4s1.2,0.1,1.7,0.4s0.9,0.7,1.2,1.1s0.4,1,0.4,1.6
			s-0.1,1.1-0.4,1.6s-0.7,0.9-1.2,1.1c-0.5,0.3-1.1,0.4-1.7,0.4c-0.6,0-1.2-0.1-1.7-0.4c-0.5-0.3-0.9-0.6-1.2-1.1
			c-0.3-0.5-0.4-1-0.4-1.7C65.4,53.6,65.6,53,65.8,52.5z M67,55.2c0.2,0.3,0.4,0.6,0.7,0.8c0.3,0.2,0.6,0.3,1,0.3
			c0.6,0,1-0.2,1.4-0.6c0.4-0.4,0.5-0.9,0.5-1.5s-0.2-1.1-0.5-1.5s-0.8-0.6-1.4-0.6c-0.4,0-0.7,0.1-1,0.3c-0.3,0.2-0.5,0.4-0.7,0.8
			c-0.2,0.3-0.3,0.7-0.3,1C66.8,54.5,66.9,54.9,67,55.2z"/>
		<path d="M74.2,57.1c-0.4-0.2-0.7-0.4-1-0.7l0.6-0.8c0.2,0.2,0.5,0.4,0.8,0.5c0.3,0.1,0.5,0.2,0.8,0.2c0.3,0,0.6-0.1,0.8-0.2
			c0.2-0.1,0.3-0.3,0.3-0.6c0-0.2-0.1-0.4-0.2-0.5c-0.1-0.1-0.3-0.2-0.4-0.3c-0.2-0.1-0.4-0.1-0.8-0.3c-1-0.3-1.5-0.9-1.5-1.7
			c0-0.5,0.2-0.9,0.6-1.3c0.4-0.4,0.9-0.5,1.6-0.5c0.4,0,0.8,0.1,1.1,0.2c0.3,0.1,0.6,0.3,0.9,0.5l-0.5,0.8
			c-0.2-0.2-0.3-0.3-0.6-0.4c-0.2-0.1-0.5-0.1-0.7-0.2c-0.3,0-0.5,0.1-0.7,0.2c-0.2,0.1-0.3,0.3-0.3,0.5c0,0.2,0.1,0.3,0.2,0.5
			s0.3,0.2,0.4,0.3c0.1,0.1,0.4,0.1,0.8,0.3c0.5,0.2,0.9,0.4,1.1,0.6c0.3,0.3,0.4,0.6,0.4,1.1c0,0.6-0.2,1.1-0.6,1.4s-1,0.6-1.7,0.6
			C75.1,57.3,74.6,57.2,74.2,57.1z"/>
		<path d="M84,55.7l0.6,1c-0.3,0.2-0.7,0.4-1,0.5c-0.4,0.1-0.7,0.2-1.1,0.2c-0.7,0-1.2-0.1-1.7-0.4s-0.9-0.7-1.1-1.1s-0.4-1-0.4-1.6
			c0-0.6,0.1-1.1,0.4-1.6s0.7-0.9,1.2-1.2s1.1-0.4,1.7-0.4c0.8,0,1.4,0.2,2,0.7c0.5,0.5,0.9,1.1,1.1,1.9l-4.7,1.7
			c0.2,0.3,0.4,0.5,0.7,0.7c0.3,0.2,0.6,0.3,1,0.3C83,56.2,83.5,56,84,55.7z M81.1,52.6c-0.4,0.4-0.5,0.9-0.5,1.5c0,0.1,0,0.3,0,0.3
			l3.5-1.3c-0.1-0.3-0.3-0.6-0.6-0.8s-0.6-0.3-1-0.3C81.9,52,81.4,52.2,81.1,52.6z"/>
		<path d="M89.2,48.6v2.6h1.6v1.1h-1.6v4.9h-1.4v-4.9h-1.1v-1.1h1.1v-2.6H89.2z"/>
		<path d="M102.7,51.2l-3.9,8.9h-1.3l1.4-3.1l-2.8-5.8h1.5l1.9,4.3l1.9-4.3H102.7z"/>
		<path d="M108.2,55.7l0.6,1c-0.3,0.2-0.7,0.4-1,0.5c-0.4,0.1-0.7,0.2-1.1,0.2c-0.7,0-1.2-0.1-1.7-0.4s-0.9-0.7-1.1-1.1
			s-0.4-1-0.4-1.6c0-0.6,0.1-1.1,0.4-1.6s0.7-0.9,1.2-1.2c0.5-0.3,1.1-0.4,1.7-0.4c0.8,0,1.4,0.2,2,0.7c0.5,0.5,0.9,1.1,1.1,1.9
			l-4.7,1.7c0.2,0.3,0.4,0.5,0.7,0.7c0.3,0.2,0.6,0.3,1,0.3C107.3,56.2,107.8,56,108.2,55.7z M105.3,52.6c-0.4,0.4-0.5,0.9-0.5,1.5
			c0,0.1,0,0.3,0,0.3l3.5-1.3c-0.1-0.3-0.3-0.6-0.6-0.8s-0.6-0.3-1-0.3C106.1,52,105.7,52.2,105.3,52.6z"/>
		<path d="M113.4,48.6v2.6h1.6v1.1h-1.6v4.9h-1.4v-4.9H111v-1.1h1.1v-2.6H113.4z"/>
		<path d="M116.4,56.9c-0.2-0.1-0.2-0.3-0.2-0.6c0-0.2,0.1-0.4,0.3-0.6c0.2-0.1,0.4-0.2,0.6-0.2c0.2,0,0.4,0.1,0.6,0.2
			c0.2,0.1,0.2,0.3,0.2,0.6c0,0.2-0.1,0.4-0.2,0.6c-0.2,0.1-0.4,0.2-0.6,0.2C116.8,57.1,116.5,57.1,116.4,56.9z M117.6,46.2v8.3
			h-1.2v-8.3H117.6z"/>
	</g>
</g>
</svg>
