<?xml version="1.0" encoding="utf-8"?>
<!-- Generator: Adobe Illustrator 22.1.0, SVG Export Plug-In . SVG Version: 6.00 Build 0)  -->
<svg version="1.1" id="Layer_1" xmlns="http://www.w3.org/2000/svg" xmlns:xlink="http://www.w3.org/1999/xlink" x="0px" y="0px"
	 viewBox="0 0 100.4 31" style="enable-background:new 0 0 100.4 31;" xml:space="preserve">
<style type="text/css">
	.st0{fill:#BDD4E7;stroke:#637074;stroke-width:1.74;stroke-miterlimit:10;}
	.st1{enable-background:new    ;}
</style>
<title>Closethover</title>
<g id="Layer_2_1_">
	<g id="Layer_3">
		<g id="Closet">
			<path class="st0" d="M15.5,0.9h69.4c8.1,0,14.6,6.6,14.6,14.6v0c0,8.1-6.6,14.6-14.6,14.6H15.5c-8.1,0-14.6-6.6-14.6-14.6v0
				C0.9,7.4,7.4,0.9,15.5,0.9z"/>
			<g class="st1">
				<path d="M35.9,20.6c-0.6,0.2-1.3,0.3-2,0.3c-1.3,0-2.4-0.3-3.3-0.8c-1-0.6-1.7-1.3-2.2-2.2c-0.5-0.9-0.8-2-0.8-3.1
					c0-1.2,0.3-2.3,0.8-3.3c0.5-1,1.2-1.7,2.2-2.3c0.9-0.5,2-0.8,3.1-0.8c0.7,0,1.3,0.1,1.9,0.3c0.6,0.2,1.1,0.4,1.6,0.7l-0.7,1.5
					c-0.9-0.6-1.9-1-2.8-1c-0.8,0-1.5,0.2-2.2,0.6s-1.2,1-1.6,1.7c-0.4,0.7-0.6,1.5-0.6,2.4c0,0.9,0.2,1.7,0.6,2.4s0.9,1.3,1.6,1.7
					c0.7,0.4,1.5,0.6,2.4,0.6c1.1,0,2.1-0.3,2.9-0.9l0.7,1.5C37,20.1,36.5,20.4,35.9,20.6z"/>
				<path d="M41.3,7.6v13.2h-1.6V7.6H41.3z"/>
				<path d="M44,15.3c0.3-0.6,0.8-1,1.4-1.4c0.6-0.3,1.3-0.5,2-0.5s1.4,0.2,2,0.5c0.6,0.3,1,0.8,1.4,1.3c0.3,0.6,0.5,1.2,0.5,1.9
					s-0.2,1.3-0.5,1.9s-0.8,1-1.4,1.4c-0.6,0.3-1.3,0.5-2,0.5c-0.7,0-1.4-0.2-2-0.5s-1.1-0.8-1.4-1.3c-0.3-0.6-0.5-1.2-0.5-2
					C43.5,16.5,43.6,15.9,44,15.3z M45.4,18.5c0.2,0.4,0.5,0.7,0.8,0.9c0.3,0.2,0.7,0.3,1.1,0.3c0.7,0,1.2-0.2,1.6-0.7
					s0.6-1,0.6-1.7c0-0.7-0.2-1.3-0.6-1.7c-0.4-0.5-1-0.7-1.6-0.7c-0.4,0-0.8,0.1-1.2,0.3c-0.3,0.2-0.6,0.5-0.8,0.9
					c-0.2,0.4-0.3,0.8-0.3,1.2C45.1,17.7,45.2,18.1,45.4,18.5z"/>
				<path d="M53.8,20.7c-0.5-0.2-0.9-0.4-1.1-0.8l0.7-0.9c0.3,0.3,0.6,0.5,0.9,0.6c0.3,0.1,0.6,0.2,0.9,0.2c0.4,0,0.7-0.1,0.9-0.2
					c0.2-0.1,0.4-0.4,0.4-0.7c0-0.2-0.1-0.4-0.2-0.6c-0.1-0.1-0.3-0.3-0.5-0.3c-0.2-0.1-0.5-0.2-0.9-0.3c-1.2-0.4-1.8-1.1-1.8-2.1
					c0-0.6,0.2-1.1,0.7-1.5c0.4-0.4,1-0.6,1.8-0.6c0.5,0,0.9,0.1,1.3,0.2c0.4,0.1,0.7,0.3,1.1,0.6l-0.6,1c-0.2-0.2-0.4-0.3-0.7-0.5
					c-0.3-0.1-0.5-0.2-0.8-0.2c-0.3,0-0.6,0.1-0.8,0.2c-0.2,0.2-0.3,0.4-0.3,0.6c0,0.2,0.1,0.4,0.2,0.5c0.1,0.1,0.3,0.2,0.5,0.3
					c0.2,0.1,0.5,0.2,0.9,0.3c0.6,0.2,1,0.4,1.4,0.7c0.3,0.3,0.5,0.7,0.5,1.2c0,0.7-0.2,1.2-0.7,1.7c-0.5,0.4-1.2,0.7-2,0.7
					C54.8,21,54.3,20.9,53.8,20.7z"/>
				<path d="M65.3,19l0.7,1.2c-0.4,0.2-0.8,0.4-1.2,0.6C64.4,20.9,64,21,63.5,21c-0.8,0-1.5-0.2-2-0.5s-1-0.8-1.4-1.3
					c-0.3-0.6-0.5-1.2-0.5-1.9c0-0.7,0.2-1.3,0.5-1.9c0.3-0.6,0.8-1,1.4-1.4s1.3-0.5,2-0.5c0.9,0,1.7,0.3,2.3,0.8
					c0.6,0.5,1,1.3,1.3,2.3l-5.6,2c0.2,0.4,0.5,0.6,0.8,0.8c0.3,0.2,0.7,0.3,1.2,0.3C64.2,19.6,64.7,19.4,65.3,19z M61.9,15.4
					c-0.4,0.5-0.6,1-0.6,1.7c0,0.2,0,0.3,0,0.4l4.1-1.5c-0.2-0.4-0.4-0.7-0.7-0.9s-0.7-0.4-1.2-0.4C62.8,14.7,62.3,15,61.9,15.4z"/>
				<path d="M71.4,10.7v3.1h1.9V15h-1.9v5.8h-1.6V15h-1.3v-1.3h1.3v-3.1H71.4z"/>
			</g>
		</g>
	</g>
</g>
</svg>
