<svg xmlns="http://www.w3.org/2000/svg" viewBox="0 0 39.33 39.33"><defs><style>.cls-1{fill:#7d4f54;}.cls-2{fill:#fff;}</style></defs><title>closeBut</title><g id="Layer_2" data-name="Layer 2"><g id="Layer_8" data-name="Layer 8"><circle class="cls-1" cx="19.67" cy="19.67" r="19.67"/><path class="cls-2" d="M24.6,29.82l-5.19-8-4.74,8a1.51,1.51,0,0,1-1.29.73h0a1.5,1.5,0,0,1-1.27-2.31l5.67-8.9-5.29-8.13a1.55,1.55,0,0,1,1.3-2.39h0a1.53,1.53,0,0,1,1.29.7l5,7.6,4.5-7.58A1.45,1.45,0,0,1,25.8,8.8h0A1.47,1.47,0,0,1,27,11.06L21.6,19.53l5.61,8.59a1.56,1.56,0,0,1-1.31,2.41h0A1.53,1.53,0,0,1,24.6,29.82Z"/></g></g></svg>