<svg xmlns="http://www.w3.org/2000/svg" viewBox="0 0 67.16 67.16"><defs><style>.cls-1{fill:#ac757c;}.cls-2{fill:#e3dcde;}.cls-3{fill:#272e43;}</style></defs><title>closebutton</title><g id="Layer_2" data-name="Layer 2"><g id="X_button" data-name="X button"><circle class="cls-1" cx="33.58" cy="33.58" r="33.58"/><path class="cls-2" d="M13.9,49.43,27.35,34.17a1.6,1.6,0,0,0,0-2.12L14.53,17.9a1.59,1.59,0,0,1,1.18-2.65h7.55a1.58,1.58,0,0,1,1.24.6l7.57,9.39a1.58,1.58,0,0,0,2.45,0l7.89-9.44a1.59,1.59,0,0,1,1.22-.57h7.1a1.59,1.59,0,0,1,1.17,2.66L39.38,31.64a1.58,1.58,0,0,0,0,2.12L53.15,49.43A1.58,1.58,0,0,1,52,52.06H44.27A1.57,1.57,0,0,1,43,51.47L34.51,40.83a1.58,1.58,0,0,0-2.47,0L23.46,51.47a1.57,1.57,0,0,1-1.24.59H15.09A1.58,1.58,0,0,1,13.9,49.43Z"/><path class="cls-3" d="M14.7,49.27,28.15,34a1.59,1.59,0,0,0,0-2.11L15.33,17.75a1.59,1.59,0,0,1,1.18-2.65h7.55a1.6,1.6,0,0,1,1.24.59l7.57,9.4a1.59,1.59,0,0,0,2.45,0l7.89-9.44a1.59,1.59,0,0,1,1.22-.57h7.1a1.58,1.58,0,0,1,1.17,2.65L40.18,31.48a1.58,1.58,0,0,0,0,2.12L54,49.27a1.59,1.59,0,0,1-1.19,2.64H45.07a1.58,1.58,0,0,1-1.24-.6L35.31,40.67a1.58,1.58,0,0,0-2.47,0L24.26,51.32a1.6,1.6,0,0,1-1.24.59H15.89A1.59,1.59,0,0,1,14.7,49.27Z"/></g></g></svg>