<?xml version="1.0" encoding="utf-8"?>
<!-- Generator: Adobe Illustrator 22.1.0, SVG Export Plug-In . SVG Version: 6.00 Build 0)  -->
<svg version="1.1" id="Layer_1" xmlns="http://www.w3.org/2000/svg" xmlns:xlink="http://www.w3.org/1999/xlink" x="0px" y="0px"
	 viewBox="0 0 100.4 31" style="enable-background:new 0 0 100.4 31;" xml:space="preserve">
<style type="text/css">
	.st0{fill:#BDD4E7;stroke:#637074;stroke-width:1.74;stroke-miterlimit:10;}
	.st1{enable-background:new    ;}
</style>
<title>CLoudyHover</title>
<g id="Layer_2_1_">
	<g id="Layer_5">
		<g id="CLoudyHover">
			<path class="st0" d="M15.5,0.9h69.4c8.1,0,14.6,6.6,14.6,14.6v0c0,8.1-6.6,14.6-14.6,14.6H15.5c-8.1,0-14.6-6.6-14.6-14.6v0
				C0.9,7.4,7.4,0.9,15.5,0.9z"/>
			<g class="st1">
				<path d="M32.9,20.6c-0.6,0.2-1.3,0.3-2,0.3c-1.3,0-2.4-0.3-3.3-0.8c-1-0.6-1.7-1.3-2.2-2.2c-0.5-0.9-0.8-2-0.8-3.1
					c0-1.2,0.3-2.3,0.8-3.3c0.5-1,1.2-1.7,2.2-2.3c0.9-0.5,2-0.8,3.1-0.8c0.7,0,1.3,0.1,1.9,0.3c0.6,0.2,1.1,0.4,1.6,0.7l-0.7,1.5
					c-0.9-0.6-1.9-1-2.8-1c-0.8,0-1.5,0.2-2.2,0.6s-1.2,1-1.6,1.7c-0.4,0.7-0.6,1.5-0.6,2.4c0,0.9,0.2,1.7,0.6,2.4s0.9,1.3,1.6,1.7
					c0.7,0.4,1.5,0.6,2.4,0.6c1.1,0,2.1-0.3,2.9-0.9l0.7,1.5C34,20.1,33.5,20.4,32.9,20.6z"/>
				<path d="M38.4,7.6v13.2h-1.6V7.6H38.4z"/>
				<path d="M41,15.3c0.3-0.6,0.8-1,1.4-1.4c0.6-0.3,1.3-0.5,2-0.5s1.4,0.2,2,0.5c0.6,0.3,1,0.8,1.4,1.3c0.3,0.6,0.5,1.2,0.5,1.9
					s-0.2,1.3-0.5,1.9c-0.3,0.6-0.8,1-1.4,1.4c-0.6,0.3-1.3,0.5-2,0.5c-0.7,0-1.4-0.2-2-0.5s-1.1-0.8-1.4-1.3
					c-0.3-0.6-0.5-1.2-0.5-2C40.5,16.5,40.7,15.9,41,15.3z M42.4,18.5c0.2,0.4,0.5,0.7,0.8,0.9c0.3,0.2,0.7,0.3,1.1,0.3
					c0.7,0,1.2-0.2,1.6-0.7s0.6-1,0.6-1.7c0-0.7-0.2-1.3-0.6-1.7c-0.4-0.5-1-0.7-1.6-0.7c-0.4,0-0.8,0.1-1.2,0.3
					c-0.3,0.2-0.6,0.5-0.8,0.9c-0.2,0.4-0.3,0.8-0.3,1.2C42.1,17.7,42.2,18.1,42.4,18.5z"/>
				<path d="M56.9,13.8v7h-1.4l-0.1-1.3c-0.2,0.5-0.6,0.9-1.1,1.2c-0.5,0.3-1.1,0.5-1.7,0.5c-0.6,0-1.2-0.2-1.6-0.6
					c-0.4-0.4-0.6-0.9-0.7-1.5v-5.2H52v4.6c0,0.4,0.1,0.7,0.3,0.9s0.5,0.4,0.9,0.4c0.4,0,0.7-0.1,1.1-0.3c0.3-0.2,0.6-0.6,0.8-1
					c0.2-0.4,0.3-0.9,0.3-1.4v-3.3H56.9z"/>
				<path d="M67,7.6v13.2h-1.6v-1.1c-0.3,0.4-0.8,0.7-1.2,0.9s-1,0.3-1.6,0.3c-0.7,0-1.3-0.2-1.8-0.5c-0.5-0.3-0.9-0.8-1.2-1.3
					c-0.3-0.6-0.5-1.2-0.5-2c0-0.8,0.2-1.4,0.5-2c0.3-0.6,0.8-1,1.3-1.3c0.6-0.3,1.2-0.4,1.9-0.4c0.5,0,1,0.1,1.5,0.3
					c0.5,0.2,0.9,0.5,1.2,0.9V7.6H67z M64.6,19.1c0.4-0.3,0.7-0.8,0.8-1.3v-1.3c-0.1-0.5-0.4-0.9-0.9-1.2c-0.4-0.3-0.9-0.5-1.5-0.5
					c-0.4,0-0.8,0.1-1.2,0.3c-0.4,0.2-0.7,0.5-0.9,0.9c-0.2,0.4-0.3,0.8-0.3,1.2c0,0.5,0.1,0.9,0.3,1.2c0.2,0.4,0.5,0.7,0.9,0.9
					c0.4,0.2,0.8,0.3,1.2,0.3C63.7,19.6,64.2,19.4,64.6,19.1z"/>
				<path d="M76.5,13.8l-4.5,10.4h-1.6l1.6-3.6l-3.3-6.8h1.8l2.3,5l2.2-5H76.5z"/>
			</g>
		</g>
	</g>
</g>
</svg>
