<svg xmlns="http://www.w3.org/2000/svg" viewBox="0 0 112.92 112.92"><defs><style>.cls-1{fill:#617073;}.cls-2{fill:#e3dcde;}.cls-3{fill:#272e43;}</style></defs><title>Cloudy</title><g id="Layer_2" data-name="Layer 2"><g id="Layer_1-2" data-name="Layer 1"><g id="Cloudy"><circle class="cls-1" cx="56.46" cy="56.46" r="56.46"/><path class="cls-2" d="M42.81,79.46H88.5c10.41.36,7.81-18.87-2.14-17.3,0,0-.6-18-16.63-11.11C66.92,41.51,45.88,39.94,44.81,58,37.67,56.82,24.51,71.7,42.81,79.46Z"/><path class="cls-3" d="M35.25,76.09s-9.9-13.53,8.39-19.52c-1.2-12.5,18.89-20.51,26.84-7,0,0,4.35-1.9,8.09-.9C76.64,29.4,50.22,26.7,45.28,40.73c0,0-17.7-10.11-19.24,13.6C13.76,51.91,13.55,74.76,24.44,76Z"/></g></g></g></svg>