<svg xmlns="http://www.w3.org/2000/svg" viewBox="0 0 114.19 114.19"><defs><style>.cls-1{fill:#e3dcde;}.cls-2{fill:#617073;}.cls-3{fill:#272e43;}</style></defs><title>Fancy</title><g id="Layer_2" data-name="Layer 2"><g id="Layer_1-2" data-name="Layer 1"><g id="Fancy"><circle class="cls-1" cx="57.1" cy="57.1" r="57.1"/><path class="cls-2" d="M46.93,51.07s10.17,5.67,20.33,0c0,0,15.17,15.67,17.67,29.83,0,0-25.17,22.5-55.33,0C29.6,80.9,33.76,59.07,46.93,51.07Z"/><path class="cls-3" d="M29.6,82.07l-1.84,4s29,26.67,58.67.83l-.83-4.83S60.93,104.4,29.6,82.07Z"/><path class="cls-2" d="M46.76,49.57s10.17,6.5,20.67,0l4-17.67s-2-8.83-14.17,1.67c0,0-9.16-11-14.33-1.5Z"/><path class="cls-3" d="M41.93,28.21l1,2.36s5.5-7.83,14.17,2c0,0,10.66-9.62,14.33-2.48l.83-1.88S68.63,17.62,57.53,30C57.53,30,48.6,18.17,41.93,28.21Z"/></g></g></g></svg>