<?xml version="1.0" encoding="utf-8"?>
<!-- Generator: Adobe Illustrator 22.1.0, SVG Export Plug-In . SVG Version: 6.00 Build 0)  -->
<svg version="1.1" id="Layer_1" xmlns="http://www.w3.org/2000/svg" xmlns:xlink="http://www.w3.org/1999/xlink" x="0px" y="0px"
	 viewBox="0 0 170.2 98.1" style="enable-background:new 0 0 170.2 98.1;" xml:space="preserve">
<style type="text/css">
	.st0{fill:#BDD4E7;stroke:#637074;stroke-width:3.5;stroke-miterlimit:10;}
	.st1{enable-background:new    ;}
</style>
<title>FillForn</title>
<g id="Layer_2_1_">
	<g id="Layer_4">
		<g id="FillForn">
			<path class="st0" d="M153.8,1.8H16.4C8.3,1.8,1.8,8.3,1.8,16.4v41.2c0,8.1,6.6,14.6,14.6,14.6c0,0,0,0,0,0h55.8l12.9,22.4
				L98,72.2h55.8c8.1,0,14.7-6.5,14.7-14.6c0,0,0,0,0,0V16.4C168.5,8.3,161.9,1.7,153.8,1.8z"/>
			<g class="st1">
				<path d="M27.9,28.8v1.5h-5.3V34h4.7v1.5h-4.7v4.9h-1.6V28.8H27.9z"/>
			</g>
			<g class="st1">
				<path d="M30,30.8c0.2-0.2,0.4-0.2,0.6-0.2c0.2,0,0.4,0.1,0.6,0.2c0.2,0.2,0.3,0.4,0.3,0.6s-0.1,0.4-0.3,0.6
					c-0.2,0.2-0.4,0.2-0.6,0.2c-0.2,0-0.4-0.1-0.6-0.2c-0.2-0.2-0.3-0.4-0.3-0.6S29.8,31,30,30.8z M31.3,33.8v6.6h-1.5v-6.6H31.3z"
					/>
				<path d="M35.4,28v12.4h-1.5V28H35.4z"/>
				<path d="M39.5,28v12.4H38V28H39.5z"/>
				<path d="M47.3,30.8c0.2-0.2,0.4-0.2,0.6-0.2c0.2,0,0.4,0.1,0.6,0.2c0.2,0.2,0.3,0.4,0.3,0.6s-0.1,0.4-0.3,0.6
					c-0.2,0.2-0.4,0.2-0.6,0.2c-0.2,0-0.4-0.1-0.6-0.2c-0.2-0.2-0.3-0.4-0.3-0.6S47.1,31,47.3,30.8z M48.6,33.8v6.6h-1.5v-6.6H48.6z
					"/>
				<path d="M56.9,34.1c0.4,0.4,0.6,0.8,0.6,1.4v4.9H56V36c0-0.4-0.1-0.7-0.3-0.9c-0.2-0.2-0.5-0.3-0.9-0.3c-0.6,0-1.1,0.2-1.5,0.7
					c-0.4,0.5-0.6,1.1-0.6,1.8v3.1h-1.5v-6.6h1.3l0.1,1.3c0.2-0.5,0.6-0.9,1.1-1.1c0.5-0.3,1-0.4,1.6-0.4
					C56,33.5,56.5,33.7,56.9,34.1z"/>
				<path d="M67.3,30.9v2.9h1.8V35h-1.8v5.4h-1.5V35h-1.2v-1.2h1.2v-2.9H67.3z"/>
				<path d="M76.5,34.1c0.4,0.4,0.6,0.8,0.6,1.4v4.9h-1.5V36c0-0.4-0.1-0.7-0.3-0.9c-0.2-0.2-0.5-0.3-0.9-0.3c-0.4,0-0.7,0.1-1,0.3
					c-0.3,0.2-0.6,0.5-0.7,0.9c-0.2,0.4-0.3,0.8-0.3,1.3v3.1h-1.5V28h1.5v7c0.2-0.4,0.6-0.8,1.1-1.1c0.5-0.3,1-0.4,1.6-0.4
					C75.6,33.5,76.1,33.7,76.5,34.1z"/>
				<path d="M84.5,38.7l0.7,1.1c-0.4,0.2-0.7,0.4-1.1,0.6s-0.8,0.2-1.2,0.2c-0.7,0-1.4-0.2-1.9-0.5s-1-0.7-1.3-1.3
					c-0.3-0.5-0.4-1.1-0.4-1.8c0-0.7,0.2-1.2,0.5-1.8c0.3-0.5,0.8-1,1.3-1.3s1.2-0.5,1.9-0.5c0.9,0,1.6,0.3,2.2,0.8s1,1.2,1.2,2.1
					L81,38.2c0.2,0.3,0.5,0.6,0.8,0.8c0.3,0.2,0.7,0.3,1.1,0.3C83.4,39.3,83.9,39.1,84.5,38.7z M81.2,35.3c-0.4,0.4-0.6,1-0.6,1.6
					c0,0.2,0,0.3,0,0.4l3.9-1.4c-0.2-0.4-0.4-0.7-0.7-0.9s-0.7-0.3-1.1-0.3C82.1,34.7,81.6,34.9,81.2,35.3z"/>
			</g>
			<g class="st1">
				<path d="M93.7,35.1h-1.1v-1.3h1.1V31c0-1,0.2-1.7,0.7-2.2c0.4-0.5,1.1-0.8,1.9-0.8c0.2,0,0.5,0,0.8,0.1s0.5,0.2,0.7,0.3
					l-0.6,1.1c-0.2-0.2-0.4-0.3-0.7-0.3c-0.4,0-0.7,0.1-0.9,0.4s-0.3,0.7-0.3,1.3v2.8h2.1v1.3h-2.1v5.3h-1.5V35.1z"/>
			</g>
			<g class="st1">
				<path d="M98.7,35.2c0.3-0.5,0.8-1,1.3-1.3c0.6-0.3,1.2-0.5,1.9-0.5s1.3,0.2,1.9,0.5c0.5,0.3,1,0.7,1.3,1.3s0.5,1.1,0.5,1.8
					s-0.2,1.3-0.5,1.8c-0.3,0.5-0.7,1-1.3,1.3c-0.6,0.3-1.2,0.5-1.9,0.5c-0.7,0-1.3-0.1-1.9-0.4c-0.6-0.3-1-0.7-1.3-1.2
					c-0.3-0.5-0.5-1.2-0.5-1.9C98.2,36.4,98.4,35.8,98.7,35.2z M100,38.2c0.2,0.4,0.4,0.6,0.8,0.8c0.3,0.2,0.7,0.3,1.1,0.3
					c0.6,0,1.1-0.2,1.5-0.7s0.6-1,0.6-1.6c0-0.7-0.2-1.2-0.6-1.6s-0.9-0.7-1.5-0.7c-0.4,0-0.8,0.1-1.1,0.3s-0.6,0.5-0.8,0.8
					c-0.2,0.4-0.3,0.7-0.3,1.2S99.8,37.9,100,38.2z"/>
				<path d="M109.7,34.4c0.3-0.3,0.6-0.5,1-0.6c0.4-0.1,0.7-0.2,0.9-0.2l-0.1,1.5c-0.5,0-0.9,0.1-1.3,0.3c-0.4,0.2-0.7,0.5-0.9,0.9
					c-0.2,0.4-0.3,0.8-0.3,1.2v3h-1.5v-6.6h1.3l0.1,1.6C109.2,35,109.4,34.7,109.7,34.4z"/>
				<path d="M123.6,34.1c0.4,0.4,0.6,0.8,0.6,1.4v4.9h-1.5V36c0-0.8-0.4-1.2-1.1-1.2c-0.4,0-0.7,0.1-1,0.3c-0.3,0.2-0.5,0.5-0.7,0.9
					c-0.2,0.4-0.3,0.8-0.3,1.2v3.2h-1.5V36c0-0.8-0.4-1.2-1.1-1.2c-0.4,0-0.7,0.1-1,0.3c-0.3,0.2-0.5,0.5-0.7,0.9s-0.3,0.8-0.3,1.2
					v3.1h-1.5v-6.6h1.3L115,35c0.3-0.5,0.6-0.9,1-1.1c0.4-0.3,0.9-0.4,1.5-0.4c0.5,0,1,0.1,1.3,0.4c0.4,0.2,0.6,0.6,0.7,1
					c0.3-0.4,0.6-0.8,1.1-1c0.4-0.3,0.9-0.4,1.4-0.4C122.7,33.5,123.2,33.7,123.6,34.1z"/>
				<path d="M132.4,35.1h-1.1v-1.3h1.1V31c0-1,0.2-1.7,0.7-2.2s1.1-0.8,1.9-0.8c0.2,0,0.5,0,0.8,0.1s0.5,0.2,0.7,0.3l-0.6,1.1
					c-0.2-0.2-0.4-0.3-0.7-0.3c-0.4,0-0.7,0.1-0.9,0.4s-0.3,0.7-0.3,1.3v2.8h1.9v1.3h-1.9v5.3h-1.5V35.1z M137.2,30.8
					c0.2-0.2,0.4-0.2,0.6-0.2s0.4,0.1,0.6,0.2c0.2,0.2,0.3,0.4,0.3,0.6s-0.1,0.4-0.3,0.6s-0.4,0.2-0.6,0.2s-0.4-0.1-0.6-0.2
					c-0.2-0.2-0.3-0.4-0.3-0.6S137,31,137.2,30.8z M138.5,33.8v6.6H137v-6.6H138.5z"/>
				<path d="M143.3,34.4c0.3-0.3,0.6-0.5,1-0.6c0.4-0.1,0.7-0.2,0.9-0.2l-0.1,1.5c-0.5,0-0.9,0.1-1.3,0.3c-0.4,0.2-0.7,0.5-0.9,0.9
					c-0.2,0.4-0.3,0.8-0.3,1.2v3h-1.5v-6.6h1.3l0.1,1.6C142.7,35,143,34.7,143.3,34.4z"/>
				<path d="M147.6,40.3c-0.4-0.2-0.8-0.4-1.1-0.8l0.6-0.9c0.3,0.3,0.5,0.5,0.8,0.6c0.3,0.1,0.6,0.2,0.9,0.2c0.4,0,0.6-0.1,0.9-0.2
					c0.2-0.1,0.3-0.4,0.3-0.6c0-0.2-0.1-0.4-0.2-0.5c-0.1-0.1-0.3-0.2-0.5-0.3s-0.5-0.2-0.9-0.3c-1.1-0.4-1.7-1-1.7-1.9
					c0-0.6,0.2-1,0.6-1.4c0.4-0.4,1-0.6,1.7-0.6c0.5,0,0.9,0.1,1.2,0.2c0.4,0.1,0.7,0.3,1,0.6l-0.6,0.9c-0.2-0.2-0.4-0.3-0.6-0.4
					c-0.3-0.1-0.5-0.2-0.7-0.2c-0.3,0-0.6,0.1-0.8,0.2c-0.2,0.1-0.3,0.3-0.3,0.6c0,0.2,0.1,0.4,0.2,0.5c0.1,0.1,0.3,0.2,0.4,0.3
					c0.1,0.1,0.4,0.2,0.9,0.3c0.5,0.2,1,0.4,1.3,0.7c0.3,0.3,0.5,0.7,0.5,1.2c0,0.6-0.2,1.2-0.7,1.6c-0.4,0.4-1.1,0.6-1.9,0.6
					C148.5,40.6,148,40.5,147.6,40.3z"/>
				<path d="M155.8,30.9v2.9h1.8V35h-1.8v5.4h-1.5V35h-1.2v-1.2h1.2v-2.9H155.8z"/>
			</g>
		</g>
	</g>
</g>
</svg>
