<svg xmlns="http://www.w3.org/2000/svg" viewBox="0 0 67.16 67.16"><defs><style>.cls-1{fill:#272e43;}.cls-2{fill:#ac757c;}.cls-3{fill:#e3dcde;}</style></defs><title>helfinfo</title><g id="Layer_2" data-name="Layer 2"><g id="Facts_Button" data-name="Facts Button"><circle class="cls-1" cx="33.58" cy="33.58" r="33.58"/><path class="cls-2" d="M28.58,12.68V11.55a4.07,4.07,0,0,1,4.06-4.07h1.88a4.06,4.06,0,0,1,4.06,4.07v1.13a4.06,4.06,0,0,1-4.06,4.06H32.64A4.06,4.06,0,0,1,28.58,12.68Zm0,42.94V25.93a4.06,4.06,0,0,1,4.06-4.06h1.88a4.06,4.06,0,0,1,4.06,4.06V55.62a4.06,4.06,0,0,1-4.06,4.06H32.64A4.06,4.06,0,0,1,28.58,55.62Z"/><path class="cls-3" d="M29.26,12.68V11.55a4.07,4.07,0,0,1,4.07-4.07h1.88a4.07,4.07,0,0,1,4.06,4.07v1.13a4.06,4.06,0,0,1-4.06,4.06H33.33A4.07,4.07,0,0,1,29.26,12.68Zm0,42.94V25.93a4.07,4.07,0,0,1,4.07-4.06h1.88a4.06,4.06,0,0,1,4.06,4.06V55.62a4.06,4.06,0,0,1-4.06,4.06H33.33A4.07,4.07,0,0,1,29.26,55.62Z"/></g></g></svg>