<?xml version="1.0" encoding="utf-8"?>
<!-- Generator: Adobe Illustrator 22.0.1, SVG Export Plug-In . SVG Version: 6.00 Build 0)  -->
<svg version="1.1" id="Layer_1" xmlns="http://www.w3.org/2000/svg" xmlns:xlink="http://www.w3.org/1999/xlink" x="0px" y="0px"
	 viewBox="0 0 39.8 39.8" style="enable-background:new 0 0 39.8 39.8;" xml:space="preserve">
<style type="text/css">
	.st0{fill:#BCD5E6;}
	.st1{fill:#FFFFFF;}
</style>
<title>help</title>
<g id="Layer_2_1_">
	<g id="Layer_7">
		<g id="help">
			<circle class="st0" cx="19.9" cy="19.9" r="19.9"/>
			<path class="st1" d="M16.5,24.6c-0.1-1.5,0.2-2.9,0.9-4.3c0.7-1.2,1.5-2.3,2.5-3.2c0.8-0.7,1.5-1.4,2.1-2.3
				c0.5-0.7,0.7-1.5,0.7-2.4c0-0.8-0.3-1.5-0.9-2c-0.5-0.5-1.2-0.8-1.9-0.8c-0.9,0-1.9,0.3-2.5,1c-0.7,0.8-1.2,1.7-1.6,2.7l-4.7-2.2
				c0.3-1,0.8-2,1.5-2.9c0.8-1.1,1.8-2.1,3-2.7c1.5-0.8,3.1-1.2,4.8-1.2c2.2-0.1,4.3,0.6,6,1.9c1.5,1.2,2.3,3.1,2.3,5.6
				c0.1,1.4-0.2,2.8-0.8,4.1c-0.5,0.9-1.1,1.7-1.8,2.5l-1.3,1.2c-0.8,0.8-1.5,1.7-2,2.6c-0.5,1.1-0.7,2.3-0.7,3.5v0.9h-5.6V24.6z
				 M16.9,34.5c-0.6-0.5-1-1.3-0.9-2.1c0-0.8,0.4-1.6,1-2.1c0.7-0.6,1.5-0.9,2.4-0.9c0.9,0,1.7,0.3,2.3,0.9c0.6,0.5,0.9,1.3,0.9,2.1
				c0,0.8-0.3,1.6-0.9,2.1c-0.7,0.6-1.5,0.8-2.4,0.8C18.5,35.4,17.6,35.1,16.9,34.5z"/>
		</g>
	</g>
</g>
</svg>
