<svg xmlns="http://www.w3.org/2000/svg" viewBox="0 0 97.95 97.95"><defs><style>.cls-1{fill:#ac757c;}.cls-2{fill:#272e43;}.cls-3{fill:#e3dcde;}</style></defs><title>homeBut</title><g id="Layer_2" data-name="Layer 2"><g id="home_button" data-name="home button"><circle class="cls-1" cx="48.98" cy="48.98" r="48.98"/><path class="cls-2" d="M69.14,37.14V24.6a1.82,1.82,0,0,0-1.82-1.81H64.46a1.82,1.82,0,0,0-1.82,1.81v4.68a.38.38,0,0,1-.66.25c-6.46-6.91-12.44-13-13.46-13-2.17,0-29.65,27.45-34.2,32a.37.37,0,0,0,.27.64h8.22a.35.35,0,0,0,.27-.11c1.75-1.8,24.2-24.87,25.58-24.55s21,22.67,22.62,24.54a.36.36,0,0,0,.28.12H79a.38.38,0,0,0,.29-.62C77.89,47,73.9,42.51,69.24,37.4A.4.4,0,0,1,69.14,37.14Z"/><path class="cls-2" d="M69.56,49.92c-2.3-2.61-16.12-18.27-19.94-22.23a1.32,1.32,0,0,0-1.87,0L25.2,50a1.33,1.33,0,0,0-.39.94v29s-.5,2.33,1.58,2.33H38.3a4.89,4.89,0,0,1-.07-.68V57.38a4.61,4.61,0,0,1,4.6-4.59h9a4.61,4.61,0,0,1,4.6,4.59V81.52a3.73,3.73,0,0,1-.07.68h11s2.58.42,2.58-1.83V50.78A1.25,1.25,0,0,0,69.56,49.92Z"/><path class="cls-3" d="M71.47,36.32V23.79A1.83,1.83,0,0,0,69.65,22H66.79A1.83,1.83,0,0,0,65,23.79v4.67a.37.37,0,0,1-.65.25c-6.47-6.91-12.44-13-13.47-13-2.17,0-29.64,27.45-34.2,32a.38.38,0,0,0,.27.64h8.22a.35.35,0,0,0,.27-.11C27.16,46.47,49.61,23.4,51,23.72S72,46.39,73.61,48.26a.36.36,0,0,0,.28.12h7.47a.37.37,0,0,0,.29-.62c-1.42-1.6-5.42-6.07-10.08-11.18A.4.4,0,0,1,71.47,36.32Z"/><path class="cls-3" d="M71.9,49.1c-2.3-2.61-16.13-18.27-20-22.23a1.3,1.3,0,0,0-1.86,0L27.53,49.17a1.29,1.29,0,0,0-.39.93V79.05s-.5,2.33,1.58,2.33H40.63a4.89,4.89,0,0,1-.07-.68V56.57a4.61,4.61,0,0,1,4.6-4.6h9a4.61,4.61,0,0,1,4.6,4.6V80.7a4.89,4.89,0,0,1-.07.68h11s2.58.42,2.58-1.83V50A1.29,1.29,0,0,0,71.9,49.1Z"/></g></g></svg>