<?xml version="1.0" encoding="utf-8"?>
<!-- Generator: Adobe Illustrator 22.1.0, SVG Export Plug-In . SVG Version: 6.00 Build 0)  -->
<svg version="1.1" id="Layer_1" xmlns="http://www.w3.org/2000/svg" xmlns:xlink="http://www.w3.org/1999/xlink" x="0px" y="0px"
	 viewBox="0 0 497.9 281.5" style="enable-background:new 0 0 497.9 281.5;" xml:space="preserve">
<style type="text/css">
	.st0{fill:#AD777C;}
	.st1{fill:#E4DDDF;}
	.st2{enable-background:new    ;}
	.st3{fill:#231F20;}
</style>
<title>logotext</title>
<g id="Layer_2_1_">
	<g id="Layer_1-2">
		<g id="logotext">
			<circle class="st0" cx="140.8" cy="140.8" r="140.8"/>
			<path class="st1" d="M238.8,158.5c0,0-78.1-34.9-83.6-37.1c-4.5-1.8-7.2,5.8-4.2,7.7l83.7,36.3c7.9,3,8.4,10.7,0.9,12.1
				c0,0-183.2,0.9-189.5,0s-7-8.3-1.2-10.3l94.7-39.2c1.4-0.5,2.5-1.6,3-3v-17v-2.1c0,0,0.4-5-1.9-5l-0.6-0.1c-0.3,0-0.9,0-1,0
				c-7.2-0.5-12.9-5.2-12.9-12.7c0-7.8,6.1-14.6,12.5-14.2c7.6,0.4,13.9,6.3,13.9,14.2c0,2.5,7.6,3.9,8.1-1.6
				c0.9-10.7-9.5-21.3-21.9-21.3c-10.2,0-21.6,10.3-21.1,22.8c0.4,9.6,7.6,18.1,16.8,19.3l0.2,13c0,0-81.4,34-94.9,40.1
				s-9,27.5,6.8,25.9h190.9C249.9,184.8,256.8,167.9,238.8,158.5z"/>
			<g class="st2">
				<path class="st3" d="M310.3,157.5c-2.1-0.8-3.9-2.1-5.2-3.8c-1.3-1.7-2-3.8-2-6.2c0-3,0.9-5.2,2.8-6.6c1.9-1.3,4.1-2,6.6-2
					c-1.3,1.4-2.3,2.8-3,4.2c-0.7,1.5-1,2.9-1,4.3c0,2.2,0.9,4.1,2.6,5.7s4.1,2.3,7.1,2.3c1.9,0,3.8-0.3,5.5-1
					c1.7-0.6,3.2-1.6,4.2-2.9c1.1-1.3,1.6-2.8,1.6-4.5c0-1.5-0.4-2.9-1.3-4.1c-0.9-1.2-1.9-2.2-3.2-3.1c-1.3-0.9-2.9-1.9-5.1-3
					c-2.3-1.2-4.1-2.3-5.5-3.3c-1.4-0.9-2.6-2.1-3.5-3.5c-0.9-1.4-1.4-3-1.4-4.8c0-2.3,0.8-4.8,2.3-7.4c1.5-2.6,3.7-4.7,6.4-6.5
					c2.7-1.7,5.8-2.6,9.2-2.6c5.1,0,7.7,2.2,7.7,6.5c0,2.1-0.5,4.4-1.5,7s-2.1,4.8-3.4,6.8c-1.8-0.4-2.7-1.4-2.7-3.1
					c0-0.8,0.2-1.7,0.5-2.7c0.3-1,0.7-2.2,1.3-3.6c0.6-1.6,1-2.8,1.3-3.7c0.3-0.9,0.4-1.7,0.4-2.5c0-0.8-0.2-1.4-0.7-1.8
					c-0.5-0.4-1.3-0.6-2.6-0.6c-2.5,0-4.7,0.7-6.8,2.1c-2.1,1.4-3.7,3.1-4.9,5.1c-1.2,2-1.8,3.8-1.8,5.5c0,1.2,0.4,2.3,1.1,3.3
					c0.7,1,1.7,1.8,2.8,2.6c1.1,0.7,2.7,1.6,4.6,2.6c2.4,1.3,4.4,2.5,5.8,3.4c1.5,1,2.7,2.3,3.8,3.8c1,1.6,1.6,3.4,1.6,5.6
					c0,2.7-0.8,5.1-2.4,7.1c-1.6,2-3.7,3.5-6.3,4.6c-2.6,1.1-5.3,1.6-8.1,1.6C314.7,158.8,312.4,158.4,310.3,157.5z"/>
				<path class="st3" d="M339,154.6c-1.1-1.1-1.6-2.7-1.6-4.8c0-1.6,0.3-3.6,0.9-6.1c0.6-2.5,1.4-5.1,2.5-7.9
					c-1.1-0.2-1.8-0.4-2.2-0.6v-1.9c1,0.1,2,0.2,3,0.3c1.8-4.6,3.8-8.6,5.9-11.9c2.1-3.3,3.8-5,5.1-5c0.5,0,0.9,0.2,1.2,0.5
					c0.3,0.3,0.5,0.8,0.5,1.3c0,0.7-0.3,1.5-0.9,2.6c-0.6,1.1-1.5,2.8-2.8,5c-1.8,3-3.2,5.6-4.2,7.6c4.7,0,8.5-0.1,11.3-0.4v2
					c-4.8,0.5-9,0.7-12.4,0.7c-2.1,5-3.2,9.2-3.2,12.4c0,1.7,0.3,2.9,0.8,3.6c0.5,0.7,1.4,1,2.5,1c2.1,0,4.2-0.9,6.3-2.8
					c2.2-1.9,4-4.4,5.6-7.6l0.9,0.6c-1.7,3.8-3.9,6.9-6.5,9.3c-2.7,2.4-5.4,3.6-8.3,3.6C341.5,156.3,340,155.7,339,154.6z"/>
				<path class="st3" d="M355.5,169.6c-0.8-0.7-1.2-1.7-1.2-3c0-1.6,0.6-3.1,1.8-4.4c1.2-1.3,2.6-2.4,4.2-3.3
					c1.6-0.9,3.7-1.9,6.2-3.1c0.7-1.8,1.7-5,3-9.6c-1.5,2.1-2.9,3.7-4.3,4.9c-1.4,1.2-2.9,1.8-4.5,1.8c-1.4,0-2.6-0.4-3.6-1.2
					c-1.1-0.8-1.6-2.1-1.6-3.9c0-1.4,0.3-3.2,1-5.3c0.7-2.2,1.4-4,2.3-5.7c0.9-1.6,1.7-2.4,2.3-2.4c0.4,0,1,0.2,1.8,0.6
					c0.8,0.4,1.3,0.9,1.5,1.4c-0.8,1.1-1.6,2.9-2.6,5.4c-0.9,2.5-1.4,4.5-1.4,5.9c0,1.5,0.6,2.3,1.8,2.3c1.2,0,2.6-0.7,4-2.2
					c1.4-1.4,2.8-3.2,4.1-5.3c0.1-0.3,0.2-1,0.4-2c0.2-1.1,0.5-2,1.1-2.8c0.6-0.8,1.4-1.2,2.5-1.2c0.2,0,0.8,0.1,2,0.2
					c0,1-0.5,3.3-1.4,6.7c-0.9,3.4-2,6.8-3.2,10.1c2-0.8,3.9-2.1,5.7-3.8c1.8-1.7,3.2-3.9,4.2-6.6l1,0.9c-0.9,2.8-2.3,5.2-4.5,7.1
					c-2.1,1.9-4.5,3.5-7.3,4.7c-1.9,4.6-3.9,8.2-5.9,10.8c-2,2.6-4.1,4-6.4,4C357.3,170.7,356.3,170.3,355.5,169.6z M361.2,165.8
					c1.4-1.7,2.8-4.2,4.1-7.2c-2.4,1.2-4.4,2.5-6.1,3.9c-1.7,1.4-2.6,2.8-2.6,4.2c0,0.5,0.1,0.9,0.3,1.2c0.2,0.3,0.5,0.5,0.9,0.5
					C358.7,168.4,359.8,167.5,361.2,165.8z"/>
				<path class="st3" d="M381.5,153.5c-0.8-1.2-1.2-2.8-1.2-4.7c0-3.8,1.3-8.8,3.8-15.1c2.6-6.3,5.4-12,8.6-17
					c3.2-5,5.6-7.5,7.1-7.5c0.7,0,1.3,0.5,1.8,1.6s0.8,2.2,0.8,3.3c0,1.9-0.8,4.6-2.3,8.3c-1.5,3.6-3.6,7.3-6.1,11
					c-2.6,3.7-5.3,6.8-8.2,9c-0.5,2.5-0.7,4.5-0.7,5.8c0,1.4,0.2,2.5,0.7,3.2c0.5,0.7,1.1,1,1.9,1c1.4,0,3-1,4.6-2.9
					c1.6-1.9,3.1-4.2,4.3-6.9l1.5,0.8c-1.8,3.7-3.8,6.6-6,8.7c-2.2,2.1-4.4,3.1-6.8,3.1C383.6,155.3,382.3,154.7,381.5,153.5z
					 M393.2,130.2c1.9-3.2,3.5-6.2,4.7-9.1c1.2-2.9,1.8-5,1.8-6.4c-0.5,0-1.6,1.3-3.2,3.8s-3.3,5.6-5.1,9.3
					c-1.8,3.7-3.2,7.3-4.3,10.8C389.1,136.2,391.2,133.4,393.2,130.2z"/>
				<path class="st3" d="M396.3,154c-1.4-1.4-2.2-3.2-2.2-5.4c0-2.4,0.8-5,2.4-7.7s3.7-5.1,6.2-7c2.5-1.9,5-2.8,7.4-2.8
					c1.3,0,2.3,0.3,3.2,1c0.9,0.6,1.3,1.7,1.3,3.2c0,2-0.8,3.8-2.3,5.6c-1.5,1.7-3.5,3.2-5.9,4.3c-2.4,1.1-4.9,1.8-7.4,2.1
					c-0.1,0.4-0.1,0.9-0.1,1.4c0,1.1,0.3,2.1,0.9,3.2c0.6,1.1,1.9,1.6,3.8,1.6c2.5,0,5.1-1,7.7-3c2.6-2,4.7-4.6,6.3-7.6l1.2,1
					c-1.6,3.7-4,6.7-7,8.9c-3.1,2.3-6.2,3.4-9.5,3.4C399.8,156.1,397.8,155.4,396.3,154z M404.7,143.2c1.8-1,3.4-2.3,4.6-3.8
					c1.3-1.5,1.9-3,1.9-4.4c0-0.5-0.1-0.8-0.2-0.9c-0.2-0.2-0.4-0.2-0.8-0.2c-1.2,0-2.5,0.6-3.9,1.7c-1.4,1.1-2.7,2.6-3.9,4.3
					s-2.1,3.4-2.6,5.2C401.2,144.8,402.9,144.2,404.7,143.2z"/>
			</g>
			<g class="st2">
				<path class="st3" d="M432,143.1c6.3-13.6,10.5-22.8,12.6-27.5c0.4-0.8,0.6-1.5,0.6-2c0-0.9-0.6-1.4-1.8-1.4
					c-1.6,0-3,0.5-4.1,1.5c-1.1,1-1.9,2.3-2.5,3.8c-0.6,1.5-0.8,3.1-0.8,4.6c0,0.9,0.1,1.8,0.2,3c-1.4,0-2.4-0.6-3.2-1.8
					c-0.8-1.2-1.2-2.5-1.2-3.8c0-1.7,0.6-3.3,1.9-5c1.3-1.6,2.9-2.9,4.9-3.9c2-1,3.9-1.5,5.9-1.5c1.6,0,2.9,0.4,4,1.3
					c1,0.9,1.8,2.4,2.4,4.6s0.8,5.3,0.8,9.3c0,2.9-0.2,7.3-0.7,13.4c-0.3,4.4-0.5,7.3-0.5,8.5c1.2-3.7,3-7.8,5.2-12.4
					c2.3-4.6,4.5-8.8,6.7-12.6c2.2-3.9,4-6.8,5.3-8.6c0.7-1,1.2-1.7,1.7-2.1c0.5-0.4,1-0.6,1.7-0.6c0.6,0,1.5,0.2,2.7,0.7
					c-0.8,1.8-1.9,5.4-3.2,10.8c-1.3,5.4-2.5,11.1-3.4,17.1c-1,6-1.4,10.8-1.4,14.4c0,1.3,0.1,2.2,0.2,2.8s0.3,1.2,0.5,1.8
					c0.2,0.6,0.4,1,0.5,1.3c-1.8,0-3.1-0.3-4-0.8c-0.9-0.5-1.5-1.3-1.8-2.5c-0.3-1.1-0.5-2.7-0.5-4.8c0-4.1,0.4-8.5,1.3-13
					c0.9-4.6,2.2-10.2,3.9-16.9c-2.6,3.7-5.4,8.9-8.5,15.7c-3.1,6.8-5.4,12.3-6.8,16.7l-0.4,0.1c-0.3,0.1-0.6,0.2-0.9,0.2
					c-1.4,0-2.2-0.8-2.7-2.3c-0.4-1.6-0.6-4-0.6-7.4c0-2.1,0.1-5.6,0.2-10.5c0.2-5.2,0.2-8.9,0.2-11.3l-0.1-3.6l-6.3,14.9
					c-3,7.2-5.3,12.5-6.8,15.7c-1.5,3.3-2.9,5.7-4.2,7.4c-1.3,1.7-2.7,2.5-4.2,2.5C425.4,157.3,427.8,152.1,432,143.1z"/>
			</g>
			<g class="st2">
				<path class="st3" d="M474.3,153.7c-0.9-1-1.4-2.3-1.4-3.9c0-1.6,0.5-3.9,1.4-6.7c0.9-2.8,2.1-5.3,3.5-7.4
					c1.4-2.1,2.8-3.2,4.3-3.2c0.5,0,1,0.2,1.3,0.5c0.3,0.3,0.5,0.8,0.5,1.3c0,0.4-0.2,0.9-0.5,1.5c-0.3,0.6-0.9,1.5-1.6,2.7
					c-1.3,2.2-2.3,4.1-3.1,5.8c-0.8,1.7-1.1,3.2-1.1,4.7c0,1.3,0.2,2.1,0.7,2.6c0.5,0.5,1.1,0.7,2.1,0.7c3.2,0,6.5-3.1,9.7-9.4
					l0.9,1c-1.4,3.6-3.3,6.4-5.5,8.4c-2.2,2-4.6,3-7.1,3C476.6,155.3,475.2,154.8,474.3,153.7z M483.4,126.9c-0.6-0.4-0.9-1-0.9-1.8
					c0-0.9,0.5-1.8,1.6-2.5c1-0.7,2.2-1.1,3.4-1.1c1.8,0,2.6,0.8,2.6,2.3c0,0.9-0.5,1.7-1.4,2.5c-0.9,0.8-2,1.2-3.1,1.2
					C484.7,127.5,483.9,127.3,483.4,126.9z"/>
			</g>
			<g class="st2">
				<path class="st3" d="M313.4,182.9h-4.6l-1.4,3.5h-0.7l4.4-11h0.1l4.4,11h-0.8L313.4,182.9z M313.1,182.2l-2-5.2l-2.1,5.2H313.1z
					"/>
				<path class="st3" d="M322.1,180.9c0.3,0.3,0.5,0.7,0.5,1.2v4.2h-0.7v-4c0-0.4-0.1-0.7-0.4-0.9s-0.6-0.4-1-0.4
					c-0.4,0-0.8,0.1-1.1,0.3c-0.3,0.2-0.6,0.5-0.8,0.8c-0.2,0.3-0.3,0.7-0.3,1.2v3.1h-0.7v-5.8h0.6l0.1,1.3c0.2-0.4,0.5-0.8,1-1.1
					c0.4-0.3,0.9-0.4,1.5-0.4C321.3,180.4,321.7,180.6,322.1,180.9z"/>
				<path class="st3" d="M336.6,175.8v0.7h-5.8v4.2h5.2v0.7h-5.2v4.2h6v0.7h-6.7v-10.5H336.6z"/>
			</g>
			<g class="st2">
				<path class="st3" d="M344.2,180.6l-2.9,6h-0.1l-2.9-6h0.8l2.2,4.8l2.1-4.8H344.2z"/>
			</g>
			<g class="st2">
				<path class="st3" d="M350.1,185.2l0.4,0.5c-0.3,0.2-0.6,0.4-1,0.5c-0.4,0.1-0.7,0.2-1.1,0.2c-0.6,0-1.1-0.1-1.6-0.4
					c-0.5-0.3-0.8-0.6-1.1-1.1c-0.3-0.5-0.4-1-0.4-1.5c0-0.6,0.1-1.1,0.4-1.5c0.3-0.5,0.7-0.8,1.1-1.1c0.5-0.3,1-0.4,1.6-0.4
					c0.7,0,1.2,0.2,1.7,0.6c0.5,0.4,0.8,0.9,1,1.6l-4.9,1.9c0.2,0.4,0.5,0.7,0.9,1c0.4,0.3,0.8,0.4,1.3,0.4
					C349,185.9,349.6,185.6,350.1,185.2z M347.1,181.3c-0.4,0.2-0.7,0.5-0.9,0.9c-0.2,0.4-0.3,0.8-0.3,1.2c0,0.2,0,0.4,0.1,0.5
					l4.3-1.7c-0.2-0.4-0.4-0.7-0.8-1c-0.3-0.2-0.7-0.4-1.2-0.4C347.9,181,347.5,181.1,347.1,181.3z"/>
				<path class="st3" d="M357.5,180.9c0.3,0.3,0.5,0.7,0.5,1.2v4.2h-0.7v-4c0-0.4-0.1-0.7-0.4-0.9s-0.6-0.4-1-0.4
					c-0.4,0-0.8,0.1-1.1,0.3c-0.3,0.2-0.6,0.5-0.8,0.8c-0.2,0.3-0.3,0.7-0.3,1.2v3.1H353v-5.8h0.6l0.1,1.3c0.2-0.4,0.5-0.8,1-1.1
					c0.4-0.3,0.9-0.4,1.5-0.4C356.7,180.4,357.1,180.6,357.5,180.9z"/>
				<path class="st3" d="M361.9,178v2.6h1.8v0.6h-1.8v5.1h-0.7v-5.1H360v-0.6h1.2V178H361.9z"/>
				<path class="st3" d="M375.8,182c0.4,0.4,0.6,1,0.6,1.6c0,0.6-0.2,1.1-0.5,1.5s-0.7,0.7-1.2,0.9s-1,0.3-1.6,0.3h-2.7v-10.5h2.3
					c2.1,0,3.2,0.9,3.2,2.7c0,0.6-0.1,1.1-0.4,1.5c-0.3,0.4-0.7,0.8-1.2,1C374.9,181.2,375.4,181.5,375.8,182z M371,180.8h1.9
					c0.7,0,1.2-0.2,1.6-0.6c0.4-0.4,0.5-0.9,0.5-1.5c0-0.7-0.2-1.2-0.6-1.6c-0.4-0.3-1-0.5-1.8-0.5H371V180.8z M374.9,185.1
					c0.5-0.4,0.7-0.9,0.7-1.6c0-0.7-0.3-1.2-0.8-1.6c-0.5-0.4-1.1-0.5-1.9-0.5H371v4.2h2C373.8,185.7,374.4,185.5,374.9,185.1z"/>
				<path class="st3" d="M384.3,180.6v5.8h-0.7v-1.2c-0.2,0.4-0.6,0.7-1,1c-0.5,0.3-1,0.4-1.5,0.4c-0.6,0-1.1-0.1-1.5-0.4
					c-0.4-0.3-0.8-0.6-1.1-1.1c-0.3-0.5-0.4-1-0.4-1.6c0-0.6,0.1-1.2,0.4-1.6c0.3-0.5,0.6-0.8,1.1-1.1c0.5-0.2,1-0.4,1.6-0.4
					c0.5,0,0.9,0.1,1.4,0.4c0.4,0.3,0.8,0.6,1,1l0.1-1.3H384.3z M382.9,185.3c0.5-0.4,0.7-0.9,0.7-1.6v-0.8c-0.1-0.5-0.4-1-0.9-1.4
					c-0.5-0.4-1-0.5-1.6-0.5c-0.4,0-0.8,0.1-1.2,0.3c-0.4,0.2-0.7,0.5-0.9,0.9c-0.2,0.4-0.3,0.8-0.3,1.3c0,0.4,0.1,0.9,0.3,1.2
					c0.2,0.4,0.5,0.7,0.9,0.9c0.4,0.2,0.8,0.3,1.2,0.3C381.9,185.9,382.4,185.7,382.9,185.3z"/>
				<path class="st3" d="M387.2,186.3c-0.3-0.1-0.6-0.3-0.9-0.6l0.3-0.5c0.2,0.2,0.4,0.4,0.7,0.5c0.3,0.1,0.6,0.2,0.9,0.2
					c0.4,0,0.7-0.1,0.9-0.3c0.3-0.2,0.4-0.4,0.4-0.8c0-0.3-0.1-0.5-0.2-0.6c-0.1-0.2-0.3-0.3-0.5-0.3c-0.2-0.1-0.5-0.2-0.9-0.3
					c-0.5-0.2-0.8-0.4-1.1-0.6c-0.3-0.2-0.4-0.6-0.4-1c0-0.5,0.2-0.9,0.5-1.1s0.8-0.4,1.3-0.4c0.7,0,1.3,0.2,1.7,0.7l-0.3,0.5
					c-0.1-0.2-0.3-0.3-0.6-0.4c-0.2-0.1-0.5-0.1-0.7-0.1c-0.3,0-0.6,0.1-0.8,0.2c-0.2,0.2-0.4,0.4-0.4,0.7c0,0.3,0.1,0.5,0.3,0.7
					s0.5,0.3,1,0.5c0.5,0.2,1,0.4,1.2,0.6c0.3,0.2,0.4,0.6,0.4,1c0,0.5-0.2,1-0.5,1.3c-0.3,0.3-0.8,0.5-1.5,0.5
					C387.9,186.5,387.6,186.4,387.2,186.3z"/>
				<path class="st3" d="M396.6,185.2l0.4,0.5c-0.3,0.2-0.6,0.4-1,0.5c-0.4,0.1-0.7,0.2-1.1,0.2c-0.6,0-1.1-0.1-1.6-0.4
					c-0.5-0.3-0.8-0.6-1.1-1.1c-0.3-0.5-0.4-1-0.4-1.5c0-0.6,0.1-1.1,0.4-1.5c0.3-0.5,0.7-0.8,1.1-1.1c0.5-0.3,1-0.4,1.6-0.4
					c0.7,0,1.2,0.2,1.7,0.6c0.5,0.4,0.8,0.9,1,1.6l-4.9,1.9c0.2,0.4,0.5,0.7,0.9,1c0.4,0.3,0.8,0.4,1.3,0.4
					C395.6,185.9,396.1,185.6,396.6,185.2z M393.7,181.3c-0.4,0.2-0.7,0.5-0.9,0.9c-0.2,0.4-0.3,0.8-0.3,1.2c0,0.2,0,0.4,0.1,0.5
					l4.3-1.7c-0.2-0.4-0.4-0.7-0.8-1c-0.3-0.2-0.7-0.4-1.2-0.4C394.5,181,394.1,181.1,393.7,181.3z"/>
				<path class="st3" d="M405.3,175.1v11.2h-0.7v-1.2c-0.3,0.4-0.6,0.7-1.1,1c-0.5,0.2-1,0.4-1.5,0.4c-0.5,0-1-0.1-1.5-0.4
					c-0.4-0.3-0.8-0.6-1.1-1.1c-0.3-0.5-0.4-1-0.4-1.6c0-0.6,0.1-1.1,0.4-1.6c0.3-0.5,0.6-0.8,1.1-1.1c0.5-0.2,1-0.4,1.5-0.4
					c0.5,0,1,0.1,1.5,0.4c0.5,0.2,0.8,0.6,1.1,1v-6.6H405.3z M403.8,185.2c0.5-0.4,0.7-0.9,0.8-1.6v-0.7c-0.1-0.6-0.4-1-0.9-1.4
					c-0.5-0.4-1-0.6-1.6-0.6c-0.4,0-0.8,0.1-1.2,0.3c-0.4,0.2-0.7,0.5-0.9,0.9c-0.2,0.4-0.3,0.8-0.3,1.3c0,0.4,0.1,0.9,0.3,1.2
					c0.2,0.4,0.5,0.7,0.9,0.9c0.4,0.2,0.8,0.3,1.2,0.3C402.8,185.9,403.4,185.7,403.8,185.2z"/>
				<path class="st3" d="M417.6,176.6c0.6,0.5,0.9,1.2,0.9,2.2c0,0.6-0.1,1.1-0.4,1.5c-0.2,0.5-0.6,0.9-1.1,1.1s-1.1,0.4-1.9,0.4
					h-1.6v4.4h-0.7v-10.5h2.4C416.2,175.8,417,176.1,417.6,176.6z M416.7,180.9c0.4-0.3,0.7-0.6,0.8-0.9c0.2-0.4,0.2-0.7,0.2-1.1
					c0-0.7-0.2-1.2-0.7-1.6c-0.4-0.4-1-0.6-1.8-0.6h-1.8v4.7h1.6C415.8,181.2,416.3,181.1,416.7,180.9z"/>
				<path class="st3" d="M421.3,175.1v11.2h-0.7v-11.2H421.3z"/>
				<path class="st3" d="M429.6,180.6v5.8h-0.7v-1.2c-0.2,0.4-0.6,0.7-1,1c-0.5,0.3-1,0.4-1.5,0.4c-0.6,0-1.1-0.1-1.5-0.4
					c-0.4-0.3-0.8-0.6-1.1-1.1c-0.3-0.5-0.4-1-0.4-1.6c0-0.6,0.1-1.2,0.4-1.6c0.3-0.5,0.6-0.8,1.1-1.1c0.5-0.2,1-0.4,1.6-0.4
					c0.5,0,0.9,0.1,1.4,0.4c0.4,0.3,0.8,0.6,1,1l0.1-1.3H429.6z M428.2,185.3c0.5-0.4,0.7-0.9,0.7-1.6v-0.8c-0.1-0.5-0.4-1-0.9-1.4
					c-0.5-0.4-1-0.5-1.6-0.5c-0.4,0-0.8,0.1-1.2,0.3c-0.4,0.2-0.7,0.5-0.9,0.9c-0.2,0.4-0.3,0.8-0.3,1.3c0,0.4,0.1,0.9,0.3,1.2
					c0.2,0.4,0.5,0.7,0.9,0.9c0.4,0.2,0.8,0.3,1.2,0.3C427.2,185.9,427.7,185.7,428.2,185.3z"/>
				<path class="st3" d="M436.7,180.9c0.3,0.3,0.5,0.7,0.5,1.2v4.2h-0.7v-4c0-0.4-0.1-0.7-0.4-0.9s-0.6-0.4-1-0.4
					c-0.4,0-0.8,0.1-1.1,0.3c-0.3,0.2-0.6,0.5-0.8,0.8c-0.2,0.3-0.3,0.7-0.3,1.2v3.1h-0.7v-5.8h0.6l0.1,1.3c0.2-0.4,0.5-0.8,1-1.1
					c0.4-0.3,0.9-0.4,1.5-0.4C435.9,180.4,436.3,180.6,436.7,180.9z"/>
				<path class="st3" d="M444.2,180.9c0.3,0.3,0.5,0.7,0.5,1.2v4.2h-0.7v-4c0-0.4-0.1-0.7-0.4-0.9s-0.6-0.4-1-0.4
					c-0.4,0-0.8,0.1-1.1,0.3c-0.3,0.2-0.6,0.5-0.8,0.8c-0.2,0.3-0.3,0.7-0.3,1.2v3.1h-0.7v-5.8h0.6l0.1,1.3c0.2-0.4,0.5-0.8,1-1.1
					c0.4-0.3,0.9-0.4,1.5-0.4C443.5,180.4,443.9,180.6,444.2,180.9z"/>
				<path class="st3" d="M447.4,178.1c0.1-0.1,0.2-0.1,0.4-0.1c0.1,0,0.3,0,0.4,0.1s0.1,0.2,0.1,0.3c0,0.1,0,0.3-0.1,0.4
					c-0.1,0.1-0.2,0.1-0.4,0.1c-0.1,0-0.3,0-0.4-0.1s-0.2-0.2-0.2-0.4C447.2,178.3,447.3,178.2,447.4,178.1z M448.1,180.6v5.8h-0.7
					v-5.8H448.1z"/>
				<path class="st3" d="M455.1,180.9c0.3,0.3,0.5,0.7,0.5,1.2v4.2H455v-4c0-0.4-0.1-0.7-0.4-0.9c-0.2-0.2-0.6-0.4-1-0.4
					c-0.4,0-0.8,0.1-1.1,0.3c-0.3,0.2-0.6,0.5-0.8,0.8c-0.2,0.3-0.3,0.7-0.3,1.2v3.1h-0.7v-5.8h0.6l0.1,1.3c0.2-0.4,0.5-0.8,1-1.1
					c0.4-0.3,0.9-0.4,1.5-0.4C454.4,180.4,454.8,180.6,455.1,180.9z"/>
				<path class="st3" d="M464,180.6v5.9c0,0.8-0.3,1.4-0.8,2s-1.3,0.8-2.4,0.8c-0.5,0-1-0.1-1.4-0.3c-0.4-0.2-0.9-0.5-1.3-0.9
					l0.4-0.5c0.4,0.4,0.8,0.7,1.1,0.8c0.4,0.2,0.7,0.2,1.1,0.2c0.8,0,1.5-0.2,1.8-0.6s0.6-0.9,0.6-1.6l0-1.4c-0.3,0.4-0.6,0.8-1.1,1
					c-0.5,0.3-1,0.4-1.5,0.4c-0.5,0-1-0.1-1.5-0.4c-0.4-0.3-0.8-0.6-1.1-1.1c-0.3-0.5-0.4-1-0.4-1.5c0-0.6,0.1-1.1,0.4-1.6
					c0.3-0.5,0.7-0.8,1.1-1.1c0.5-0.3,1-0.4,1.6-0.4c0.5,0,1,0.1,1.4,0.4c0.5,0.3,0.8,0.6,1,1l0.1-1.2H464z M462,185.6
					c0.4-0.2,0.7-0.5,0.9-0.8c0.2-0.3,0.4-0.7,0.4-1v-0.9c-0.1-0.6-0.4-1-0.9-1.4c-0.5-0.4-1-0.5-1.6-0.5c-0.5,0-0.9,0.1-1.2,0.3
					s-0.7,0.5-0.9,0.9c-0.2,0.4-0.3,0.8-0.3,1.3c0,0.4,0.1,0.9,0.3,1.2c0.2,0.4,0.5,0.7,0.9,0.9c0.4,0.2,0.8,0.3,1.2,0.3
					C461.3,185.9,461.7,185.8,462,185.6z"/>
				<path class="st3" d="M477.4,182.9h-4.6l-1.4,3.5h-0.7l4.4-11h0.1l4.4,11h-0.8L477.4,182.9z M477.1,182.2l-2-5.2l-2.1,5.2H477.1z
					"/>
				<path class="st3" d="M486.4,180.8c0.4,0.3,0.8,0.6,1.1,1.1c0.3,0.5,0.4,1,0.4,1.6c0,0.6-0.1,1.1-0.4,1.6
					c-0.3,0.5-0.6,0.8-1.1,1.1c-0.5,0.3-1,0.4-1.5,0.4c-0.5,0-1-0.1-1.4-0.4c-0.4-0.2-0.8-0.6-1.1-1v4h-0.7v-8.6h0.6l0,1.3
					c0.3-0.4,0.6-0.8,1.1-1c0.5-0.3,1-0.4,1.5-0.4C485.5,180.4,486,180.5,486.4,180.8z M485.9,185.6c0.4-0.2,0.7-0.5,0.9-0.9
					c0.2-0.4,0.3-0.8,0.3-1.2c0-0.5-0.1-0.9-0.3-1.2c-0.2-0.4-0.5-0.7-0.9-0.9c-0.4-0.2-0.8-0.3-1.2-0.3c-0.4,0-0.8,0.1-1.2,0.3
					c-0.4,0.2-0.7,0.5-0.9,0.8c-0.2,0.3-0.3,0.7-0.4,1.1v0.5c0,0.4,0.2,0.8,0.4,1.1s0.5,0.6,0.9,0.8c0.3,0.2,0.7,0.3,1.1,0.3
					C485.1,185.9,485.5,185.8,485.9,185.6z"/>
				<path class="st3" d="M494.7,180.8c0.4,0.3,0.8,0.6,1.1,1.1c0.3,0.5,0.4,1,0.4,1.6c0,0.6-0.1,1.1-0.4,1.6s-0.6,0.8-1.1,1.1
					c-0.5,0.3-1,0.4-1.5,0.4c-0.5,0-1-0.1-1.4-0.4c-0.4-0.2-0.8-0.6-1.1-1v4h-0.7v-8.6h0.6l0,1.3c0.3-0.4,0.6-0.8,1.1-1
					c0.5-0.3,1-0.4,1.5-0.4S494.3,180.5,494.7,180.8z M494.2,185.6c0.4-0.2,0.7-0.5,0.9-0.9c0.2-0.4,0.3-0.8,0.3-1.2
					c0-0.5-0.1-0.9-0.3-1.2c-0.2-0.4-0.5-0.7-0.9-0.9c-0.4-0.2-0.8-0.3-1.2-0.3c-0.4,0-0.8,0.1-1.2,0.3c-0.4,0.2-0.7,0.5-0.9,0.8
					c-0.2,0.3-0.3,0.7-0.4,1.1v0.5c0,0.4,0.2,0.8,0.4,1.1c0.2,0.3,0.5,0.6,0.9,0.8s0.7,0.3,1.1,0.3
					C493.4,185.9,493.9,185.8,494.2,185.6z"/>
			</g>
		</g>
	</g>
</g>
</svg>
