<svg xmlns="http://www.w3.org/2000/svg" viewBox="0 0 497.89 281.5"><defs><style>.cls-1{fill:#ad777c;}.cls-2{fill:#e4dddf;}.cls-3{font-size:61.55px;font-family:DancingScript-Bold, Dancing Script;font-weight:700;}.cls-3,.cls-5{fill:#231f20;}.cls-4{letter-spacing:-0.02em;}.cls-5{font-size:14.79px;font-family:JosefinSans-Light, Josefin Sans;}.cls-6{letter-spacing:0em;}</style></defs><title>logo</title><g id="Layer_2" data-name="Layer 2"><g id="Layer_1-2" data-name="Layer 1"><g id="logo"><circle class="cls-1" cx="140.75" cy="140.75" r="140.75"/><path class="cls-2" d="M238.77,158.5s-78.12-34.89-83.62-37.08c-4.52-1.8-7.17,5.84-4.19,7.66l83.73,36.32c7.93,3,8.42,10.66.94,12.06,0,0-183.18.86-189.5,0s-7-8.33-1.21-10.26L139.67,128a4.71,4.71,0,0,0,3-3l0-17v-2.07s.41-5-1.92-5l-.64-.09c-.31,0-.94,0-1,0-7.22-.5-12.88-5.2-12.88-12.69,0-7.81,6.12-14.61,12.51-14.25,7.65.44,13.93,6.34,13.88,14.15,0,2.47,7.61,3.86,8.05-1.56.86-10.65-9.48-21.27-21.93-21.27-10.2,0-21.59,10.31-21.12,22.83.36,9.64,7.59,18.14,16.75,19.26l.21,13s-81.41,34-94.87,40.07-9,27.46,6.8,25.94H237.42C249.94,184.77,256.78,167.87,238.77,158.5Z"/><text class="cls-3" transform="translate(302.89 153.42)">Style <tspan class="cls-4" x="129.32" y="0">M</tspan><tspan x="177.46" y="0">i</tspan></text><text class="cls-5" transform="translate(305.89 186.35)">An E<tspan class="cls-6" x="32" y="0">v</tspan><tspan x="38.64" y="0">ent Based Planning App</tspan></text></g></g></g></svg>