<?xml version="1.0" encoding="utf-8"?>
<!-- Generator: Adobe Illustrator 22.0.1, SVG Export Plug-In . SVG Version: 6.00 Build 0)  -->
<svg version="1.1" id="Layer_1" xmlns="http://www.w3.org/2000/svg" xmlns:xlink="http://www.w3.org/1999/xlink" x="0px" y="0px"
	 viewBox="0 0 281.5 281.5" style="enable-background:new 0 0 281.5 281.5;" xml:space="preserve">
<style type="text/css">
	.st0{fill:#AD777C;}
	.st1{fill:#E4DDDF;}
</style>
<title>logo</title>
<g id="Layer_2_1_">
	<g id="Layer_1-2">
		<g id="logo">
			<circle class="st0" cx="140.8" cy="140.8" r="140.8"/>
			<path class="st1" d="M238.8,158.5c0,0-78.1-34.9-83.6-37.1c-4.5-1.8-7.2,5.8-4.2,7.7l83.7,36.3c7.9,3,8.4,10.7,0.9,12.1
				c0,0-183.2,0.9-189.5,0s-7-8.3-1.2-10.3l94.7-39.2c1.4-0.5,2.5-1.6,3-3v-17v-2.1c0,0,0.4-5-1.9-5l-0.6-0.1c-0.3,0-0.9,0-1,0
				c-7.2-0.5-12.9-5.2-12.9-12.7c0-7.8,6.1-14.6,12.5-14.2c7.6,0.4,13.9,6.3,13.9,14.2c0,2.5,7.6,3.9,8.1-1.6
				c0.9-10.7-9.5-21.3-21.9-21.3c-10.2,0-21.6,10.3-21.1,22.8c0.4,9.6,7.6,18.1,16.8,19.3l0.2,13c0,0-81.4,34-94.9,40.1
				s-9,27.5,6.8,25.9h190.9C249.9,184.8,256.8,167.9,238.8,158.5z"/>
		</g>
	</g>
</g>
</svg>
