<?xml version="1.0" encoding="utf-8"?>
<!-- Generator: Adobe Illustrator 22.1.0, SVG Export Plug-In . SVG Version: 6.00 Build 0)  -->
<svg version="1.1" id="Layer_1" xmlns="http://www.w3.org/2000/svg" xmlns:xlink="http://www.w3.org/1999/xlink" x="0px" y="0px"
	 viewBox="0 0 82.4 30.5" style="enable-background:new 0 0 82.4 30.5;" xml:space="preserve">
<style type="text/css">
	.st0{fill:none;stroke:#637074;stroke-width:4;stroke-linecap:round;stroke-miterlimit:10;}
	.st1{enable-background:new    ;}
</style>
<title>next</title>
<g id="Layer_2_1_">
	<g id="Layer_4">
		<g id="next">
			<polyline class="st0" points="56.5,28.5 78.5,16 56.5,2 			"/>
			<g class="st1">
				<path d="M14.7,7V22h-0.1L4,11.2l0,10.3h-2V6.6h0.1l10.6,10.9l0-10.5H14.7z"/>
			</g>
			<g class="st1">
				<path d="M24.3,19.4l0.9,1.4c-0.4,0.3-0.9,0.5-1.4,0.7c-0.5,0.2-1,0.2-1.5,0.2c-0.9,0-1.7-0.2-2.4-0.6c-0.7-0.4-1.2-0.9-1.6-1.6
					c-0.4-0.7-0.6-1.4-0.6-2.3c0-0.8,0.2-1.6,0.6-2.2c0.4-0.7,1-1.2,1.7-1.6c0.7-0.4,1.5-0.6,2.3-0.6c1.1,0,2,0.3,2.7,1
					c0.7,0.6,1.2,1.5,1.5,2.7l-6.6,2.3c0.2,0.4,0.6,0.7,1,1c0.4,0.2,0.9,0.3,1.4,0.3C23,20.1,23.6,19.8,24.3,19.4z M20.2,15.1
					c-0.5,0.5-0.7,1.2-0.7,2c0,0.2,0,0.4,0,0.5l4.8-1.8c-0.2-0.5-0.5-0.8-0.8-1.1c-0.4-0.3-0.8-0.4-1.4-0.4
					C21.4,14.3,20.7,14.6,20.2,15.1z"/>
			</g>
			<g class="st1">
				<path d="M33.6,21.5l-2.2-2.9l-2.1,2.9h-1.9l3-4.2l-3.1-4.1h2.3l2.2,2.9l1.9-2.9h1.9l-2.9,4l3.2,4.3H33.6z"/>
				<path d="M40.5,9.6v3.7h2.3v1.5h-2.3v6.8h-1.9v-6.8h-1.5v-1.5h1.5V9.6H40.5z"/>
			</g>
		</g>
	</g>
</g>
</svg>
