<?xml version="1.0" encoding="utf-8"?>
<!-- Generator: Adobe Illustrator 22.1.0, SVG Export Plug-In . SVG Version: 6.00 Build 0)  -->
<svg version="1.1" id="Layer_1" xmlns="http://www.w3.org/2000/svg" xmlns:xlink="http://www.w3.org/1999/xlink" x="0px" y="0px"
	 viewBox="0 0 100.4 31" style="enable-background:new 0 0 100.4 31;" xml:space="preserve">
<style type="text/css">
	.st0{fill:#BDD4E7;stroke:#637074;stroke-width:1.74;stroke-miterlimit:10;}
	.st1{enable-background:new    ;}
</style>
<title>RainyHover</title>
<g id="Layer_2_1_">
	<g id="Layer_5">
		<g id="RainyHover">
			<path class="st0" d="M15.5,0.9h69.4c8.1,0,14.6,6.6,14.6,14.6v0c0,8.1-6.6,14.6-14.6,14.6H15.5c-8.1,0-14.6-6.6-14.6-14.6v0
				C0.9,7.4,7.4,0.9,15.5,0.9z"/>
			<g class="st1">
				<path d="M37.2,20.8l-2.9-4.5c-0.1,0-0.2,0-0.4,0h-1.8v4.5h-1.6V8.5h3.3c0.8,0,1.6,0.1,2.2,0.4s1.2,0.7,1.5,1.3s0.6,1.3,0.6,2.1
					c0,0.8-0.2,1.5-0.5,2.1s-0.8,1.1-1.5,1.4l3.1,4.9H37.2z M35.8,14c0.4-0.5,0.6-1,0.6-1.6c0-0.4-0.1-0.7-0.2-1.1
					c-0.2-0.4-0.4-0.6-0.8-0.9s-0.8-0.3-1.4-0.3h-1.9v4.6h1.8C34.8,14.7,35.4,14.4,35.8,14z"/>
				<path d="M48.5,13.8v7h-1.6v-1.2c-0.2,0.3-0.6,0.6-1.1,0.9c-0.5,0.3-1,0.4-1.6,0.4c-0.7,0-1.3-0.1-1.8-0.4
					c-0.5-0.3-1-0.7-1.3-1.3c-0.3-0.6-0.5-1.2-0.5-2c0-0.8,0.2-1.4,0.5-2c0.3-0.6,0.8-1,1.3-1.3c0.5-0.3,1.2-0.5,1.8-0.5
					c0.6,0,1.1,0.1,1.6,0.4c0.4,0.3,0.8,0.6,1.1,1l0.1-1.1H48.5z M46.1,19.2c0.4-0.3,0.7-0.8,0.8-1.3v-1.4c-0.1-0.5-0.4-0.9-0.9-1.2
					c-0.4-0.3-0.9-0.5-1.5-0.5c-0.4,0-0.8,0.1-1.2,0.3s-0.6,0.5-0.8,0.9c-0.2,0.4-0.3,0.8-0.3,1.2c0,0.5,0.1,0.9,0.3,1.2
					s0.5,0.7,0.9,0.9c0.4,0.2,0.8,0.3,1.2,0.3C45.2,19.7,45.7,19.5,46.1,19.2z"/>
				<path d="M51.4,10.6c0.2-0.2,0.4-0.3,0.7-0.3c0.2,0,0.5,0.1,0.7,0.3S53,11,53,11.2c0,0.2-0.1,0.5-0.3,0.6s-0.4,0.3-0.7,0.3
					c-0.2,0-0.5-0.1-0.7-0.3c-0.2-0.2-0.3-0.4-0.3-0.6C51.1,11,51.2,10.8,51.4,10.6z M52.8,13.8v7h-1.6v-7H52.8z"/>
			</g>
			<g class="st1">
				<path d="M61.6,14.1c0.4,0.4,0.7,0.9,0.7,1.5v5.2h-1.6v-4.7c0-0.4-0.1-0.7-0.4-0.9c-0.2-0.2-0.5-0.3-1-0.4
					c-0.6,0-1.1,0.2-1.5,0.7c-0.4,0.5-0.6,1.1-0.6,1.9v3.3h-1.6v-7H57l0.1,1.4c0.2-0.5,0.6-0.9,1.1-1.2c0.5-0.3,1.1-0.4,1.7-0.4
					C60.6,13.5,61.2,13.7,61.6,14.1z"/>
			</g>
			<g class="st1">
				<path d="M71.4,13.8l-4.5,10.4h-1.6l1.6-3.6l-3.3-6.8h1.8l2.3,5l2.2-5H71.4z"/>
			</g>
		</g>
	</g>
</g>
</svg>
