<svg xmlns="http://www.w3.org/2000/svg" viewBox="0 0 112.92 112.92"><defs><style>.cls-1{fill:#bcd5e6;}.cls-2{fill:#617073;}.cls-3{fill:#272e43;}</style></defs><title>Rainy</title><g id="Layer_2" data-name="Layer 2"><g id="Layer_1-2" data-name="Layer 1"><g id="Rainy"><circle class="cls-1" cx="56.46" cy="56.46" r="56.46"/><path class="cls-2" d="M24.85,71.42H89.2c18.12-2.88,9.57-24.81-2.89-23.06,3-3.91-9.26-17.92-20.9-8.65-.31-19.56-43.65-22.14-39.84,9.16C18,48.15,8.27,66.07,24.85,71.42Z"/><rect class="cls-3" x="34.71" y="74.21" width="5.44" height="10.75" rx="1.94" ry="1.94"/><rect class="cls-3" x="44.91" y="79.2" width="5.49" height="10.79" rx="1.96" ry="1.96"/><rect class="cls-3" x="55.34" y="74.19" width="5.49" height="10.79" rx="1.96" ry="1.96"/><rect class="cls-3" x="65.58" y="79.2" width="5.49" height="10.79" rx="1.96" ry="1.96"/><rect class="cls-3" x="76.01" y="74.19" width="5.49" height="10.79" rx="1.96" ry="1.96"/></g></g></g></svg>