<?xml version="1.0" encoding="utf-8"?>
<!-- Generator: Adobe Illustrator 22.1.0, SVG Export Plug-In . SVG Version: 6.00 Build 0)  -->
<svg version="1.1" id="Layer_1" xmlns="http://www.w3.org/2000/svg" xmlns:xlink="http://www.w3.org/1999/xlink" x="0px" y="0px"
	 viewBox="0 0 170.2 98.1" style="enable-background:new 0 0 170.2 98.1;" xml:space="preserve">
<style type="text/css">
	.st0{fill:#BDD4E7;stroke:#637074;stroke-width:3.5;stroke-miterlimit:10;}
</style>
<title>showfactsbut</title>
<g id="Layer_2_1_">
	<g id="Layer_9">
		<g id="Layer_2-2">
			<g id="Layer_4">
				<g id="FillForn">
					<path class="st0" d="M153.8,1.8H16.4c-8,0-14.6,6.5-14.6,14.5c0,0,0,0.1,0,0.1v41.2c0,8.1,6.5,14.6,14.6,14.6h55.8l12.9,22.4
						L98,72.2h55.8c8.1,0,14.7-6.5,14.7-14.6c0,0,0,0,0,0l0,0V16.4c0-8.1-6.5-14.6-14.6-14.6C153.9,1.7,153.8,1.7,153.8,1.8z"/>
				</g>
			</g>
		</g>
	</g>
</g>
<g>
	<path d="M13.8,34.5c-0.6,0.2-1.2,0.3-1.9,0.3c-1.2,0-2.2-0.3-3.1-0.8c-0.9-0.5-1.6-1.2-2.1-2.1C6.2,31,6,30,6,29
		c0-1.1,0.2-2.2,0.7-3.1c0.5-0.9,1.2-1.6,2-2.1c0.9-0.5,1.9-0.8,3-0.8c0.7,0,1.3,0.1,1.8,0.3c0.6,0.2,1.1,0.4,1.5,0.7l-0.6,1.5
		c-0.9-0.6-1.8-0.9-2.7-0.9c-0.7,0-1.4,0.2-2.1,0.6C9,25.4,8.5,26,8.1,26.7c-0.4,0.7-0.6,1.4-0.6,2.2c0,0.8,0.2,1.6,0.5,2.3
		c0.3,0.7,0.8,1.2,1.5,1.6s1.4,0.6,2.2,0.6c1,0,1.9-0.3,2.7-0.9l0.7,1.4C14.8,34,14.3,34.3,13.8,34.5z"/>
	<path d="M18.9,22.3v12.4h-1.5V22.3H18.9z"/>
	<path d="M21.7,25.1c0.2-0.2,0.4-0.2,0.6-0.2c0.2,0,0.4,0.1,0.6,0.2c0.2,0.2,0.3,0.4,0.3,0.6c0,0.2-0.1,0.4-0.3,0.6
		c-0.2,0.2-0.4,0.2-0.6,0.2c-0.2,0-0.4-0.1-0.6-0.2c-0.2-0.2-0.3-0.4-0.3-0.6C21.4,25.4,21.5,25.2,21.7,25.1z M23,28v6.6h-1.5V28H23
		z"/>
	<path d="M29.9,34.6c-0.4,0.1-0.8,0.2-1.3,0.2c-0.7,0-1.3-0.1-1.9-0.4s-1-0.7-1.3-1.2C25.2,32.6,25,32,25,31.3
		c0-0.7,0.2-1.3,0.5-1.8c0.3-0.5,0.7-0.9,1.3-1.2c0.5-0.3,1.1-0.4,1.7-0.4c1,0,1.9,0.3,2.5,0.8l-0.8,1c-0.2-0.2-0.5-0.3-0.7-0.4
		c-0.3-0.1-0.6-0.2-0.9-0.2c-0.4,0-0.8,0.1-1.1,0.3s-0.6,0.5-0.8,0.8s-0.3,0.7-0.3,1.1s0.1,0.8,0.3,1.1s0.5,0.6,0.8,0.8
		s0.7,0.3,1.2,0.3c0.5,0,1-0.2,1.4-0.5L31,34C30.7,34.3,30.3,34.5,29.9,34.6z"/>
	<path d="M35.2,31.5l-0.9,0.7v2.5h-1.5V22.3h1.5v8.4l3.4-2.8l0.9,0.8l-2.4,2l2.8,4h-1.7L35.2,31.5z"/>
	<path d="M48.1,25.1v2.9h1.8v1.2h-1.8v5.4h-1.5v-5.4h-1.2v-1.2h1.2v-2.9H48.1z"/>
	<path d="M57.3,28.3c0.4,0.4,0.6,0.8,0.6,1.4v4.9h-1.5v-4.4c0-0.4-0.1-0.7-0.3-0.9c-0.2-0.2-0.5-0.3-0.9-0.3c-0.4,0-0.7,0.1-1,0.3
		s-0.6,0.5-0.7,0.9c-0.2,0.4-0.3,0.8-0.3,1.3v3.1h-1.5V22.3h1.5v7c0.2-0.4,0.6-0.8,1.1-1.1s1-0.4,1.6-0.4
		C56.4,27.8,56.9,28,57.3,28.3z"/>
	<path d="M65.2,33l0.7,1.1c-0.4,0.2-0.7,0.4-1.1,0.6s-0.8,0.2-1.2,0.2c-0.7,0-1.4-0.2-1.9-0.5c-0.5-0.3-1-0.7-1.3-1.3
		c-0.3-0.5-0.4-1.1-0.4-1.8c0-0.7,0.2-1.2,0.5-1.8c0.3-0.5,0.8-1,1.3-1.3s1.2-0.5,1.9-0.5c0.9,0,1.6,0.3,2.2,0.8
		c0.6,0.5,1,1.2,1.2,2.1l-5.2,1.8c0.2,0.3,0.5,0.6,0.8,0.8c0.3,0.2,0.7,0.3,1.1,0.3C64.2,33.5,64.7,33.4,65.2,33z M62,29.6
		c-0.4,0.4-0.6,1-0.6,1.6c0,0.2,0,0.3,0,0.4l3.9-1.4c-0.2-0.4-0.4-0.7-0.7-0.9S63.9,29,63.5,29C62.9,29,62.4,29.2,62,29.6z"/>
	<path d="M79.8,28.2c0.5,0.3,0.9,0.7,1.2,1.2c0.3,0.5,0.4,1.1,0.4,1.8c0,0.7-0.2,1.4-0.5,1.9c-0.3,0.5-0.7,1-1.3,1.2
		s-1.1,0.4-1.7,0.4c-0.5,0-1-0.1-1.5-0.3c-0.4-0.2-0.8-0.5-1.1-0.9v1h-1.5V22.3h1.5v6.7c0.3-0.4,0.7-0.6,1.1-0.8
		c0.5-0.2,1-0.3,1.6-0.3C78.7,27.8,79.3,27.9,79.8,28.2z M79.2,32.9c0.4-0.4,0.6-1,0.6-1.6c0-0.4-0.1-0.8-0.3-1.2s-0.5-0.6-0.8-0.8
		C78.4,29.1,78,29,77.6,29c-0.5,0-1,0.1-1.4,0.4s-0.7,0.7-0.8,1.2v1.3c0.1,0.5,0.4,0.9,0.8,1.2c0.4,0.3,0.9,0.5,1.4,0.5
		C78.3,33.5,78.8,33.3,79.2,32.9z"/>
	<path d="M89.5,28v6.6h-1.3l-0.1-1.3c-0.2,0.4-0.6,0.8-1,1.1c-0.5,0.3-1,0.4-1.6,0.4c-0.6,0-1.1-0.2-1.5-0.6
		c-0.4-0.4-0.6-0.8-0.6-1.4V28h1.5v4.4c0,0.4,0.1,0.7,0.3,0.9c0.2,0.2,0.5,0.3,0.9,0.3c0.4,0,0.7-0.1,1-0.3c0.3-0.2,0.5-0.5,0.7-0.9
		c0.2-0.4,0.3-0.8,0.3-1.3V28H89.5z"/>
	<path d="M94.3,25.1v2.9h1.8v1.2h-1.8v5.4h-1.5v-5.4h-1.2v-1.2h1.2v-2.9H94.3z"/>
	<path d="M100,25.1v2.9h1.8v1.2H100v5.4h-1.5v-5.4h-1.2v-1.2h1.2v-2.9H100z"/>
	<path d="M103.5,29.5c0.3-0.5,0.8-1,1.3-1.3c0.6-0.3,1.2-0.5,1.9-0.5s1.3,0.2,1.9,0.5c0.5,0.3,1,0.7,1.3,1.3
		c0.3,0.5,0.5,1.1,0.5,1.8c0,0.7-0.2,1.3-0.5,1.8c-0.3,0.5-0.7,1-1.3,1.3c-0.6,0.3-1.2,0.5-1.9,0.5c-0.7,0-1.3-0.1-1.9-0.4
		c-0.6-0.3-1-0.7-1.3-1.2c-0.3-0.5-0.5-1.2-0.5-1.9C103.1,30.6,103.2,30,103.5,29.5z M104.9,32.5c0.2,0.4,0.4,0.6,0.8,0.8
		c0.3,0.2,0.7,0.3,1.1,0.3c0.6,0,1.1-0.2,1.5-0.7c0.4-0.4,0.6-1,0.6-1.6c0-0.7-0.2-1.2-0.6-1.6c-0.4-0.4-0.9-0.7-1.5-0.7
		c-0.4,0-0.8,0.1-1.1,0.3c-0.3,0.2-0.6,0.5-0.8,0.8c-0.2,0.4-0.3,0.7-0.3,1.2S104.7,32.1,104.9,32.5z"/>
	<path d="M118,28.3c0.4,0.4,0.6,0.8,0.6,1.4v4.9h-1.5v-4.4c0-0.4-0.1-0.7-0.3-0.9c-0.2-0.2-0.5-0.3-0.9-0.3c-0.6,0-1.1,0.2-1.5,0.7
		c-0.4,0.5-0.6,1.1-0.6,1.8v3.1h-1.5V28h1.3l0.1,1.3c0.2-0.5,0.6-0.9,1.1-1.1s1-0.4,1.6-0.4C117.1,27.8,117.6,28,118,28.3z"/>
	<path d="M132.2,28.2c0.5,0.3,0.9,0.7,1.2,1.2c0.3,0.5,0.4,1.1,0.4,1.8c0,0.7-0.2,1.4-0.5,1.9s-0.7,1-1.3,1.2
		c-0.5,0.3-1.1,0.4-1.7,0.4c-0.5,0-1-0.1-1.5-0.3c-0.4-0.2-0.8-0.5-1.1-0.9v1h-1.5V22.3h1.5v6.7c0.3-0.4,0.7-0.6,1.1-0.8
		c0.5-0.2,1-0.3,1.6-0.3C131.1,27.8,131.7,27.9,132.2,28.2z M131.6,32.9c0.4-0.4,0.6-1,0.6-1.6c0-0.4-0.1-0.8-0.3-1.2
		s-0.5-0.6-0.8-0.8c-0.3-0.2-0.7-0.3-1.1-0.3c-0.5,0-1,0.1-1.4,0.4c-0.4,0.3-0.7,0.7-0.8,1.2v1.3c0.1,0.5,0.4,0.9,0.8,1.2
		c0.4,0.3,0.9,0.5,1.4,0.5C130.7,33.5,131.2,33.3,131.6,32.9z"/>
	<path d="M140.5,33l0.7,1.1c-0.4,0.2-0.7,0.4-1.1,0.6c-0.4,0.1-0.8,0.2-1.2,0.2c-0.7,0-1.4-0.2-1.9-0.5c-0.5-0.3-1-0.7-1.3-1.3
		c-0.3-0.5-0.4-1.1-0.4-1.8c0-0.7,0.2-1.2,0.5-1.8s0.8-1,1.3-1.3s1.2-0.5,1.9-0.5c0.9,0,1.6,0.3,2.2,0.8c0.6,0.5,1,1.2,1.2,2.1
		l-5.2,1.8c0.2,0.3,0.5,0.6,0.8,0.8s0.7,0.3,1.1,0.3C139.4,33.5,140,33.4,140.5,33z M137.3,29.6c-0.4,0.4-0.6,1-0.6,1.6
		c0,0.2,0,0.3,0,0.4l3.9-1.4c-0.2-0.4-0.4-0.7-0.7-0.9c-0.3-0.2-0.7-0.3-1.1-0.3C138.1,29,137.6,29.2,137.3,29.6z"/>
	<path d="M145.6,22.3v12.4h-1.5V22.3H145.6z"/>
	<path d="M148.1,29.5c0.3-0.5,0.8-1,1.3-1.3c0.6-0.3,1.2-0.5,1.9-0.5s1.3,0.2,1.9,0.5c0.5,0.3,1,0.7,1.3,1.3
		c0.3,0.5,0.5,1.1,0.5,1.8c0,0.7-0.2,1.3-0.5,1.8c-0.3,0.5-0.7,1-1.3,1.3c-0.6,0.3-1.2,0.5-1.9,0.5c-0.7,0-1.3-0.1-1.9-0.4
		c-0.6-0.3-1-0.7-1.3-1.2c-0.3-0.5-0.5-1.2-0.5-1.9C147.6,30.6,147.7,30,148.1,29.5z M149.4,32.5c0.2,0.4,0.4,0.6,0.8,0.8
		c0.3,0.2,0.7,0.3,1.1,0.3c0.6,0,1.1-0.2,1.5-0.7c0.4-0.4,0.6-1,0.6-1.6c0-0.7-0.2-1.2-0.6-1.6c-0.4-0.4-0.9-0.7-1.5-0.7
		c-0.4,0-0.8,0.1-1.1,0.3c-0.3,0.2-0.6,0.5-0.8,0.8c-0.2,0.4-0.3,0.7-0.3,1.2S149.2,32.1,149.4,32.5z"/>
	<path d="M165.9,28l-3.1,7l-2.1-4.5l-1.9,4.5l-3.1-7h1.5l1.8,4l1.2-2.9l-0.5-1.1h1.3l1.8,4.1l1.7-4.1H165.9z"/>
	<path d="M44.6,44.3v2.9h1.8v1.2h-1.8v5.4h-1.5v-5.4h-1.2v-1.2h1.2v-2.9H44.6z"/>
	<path d="M48.1,48.7c0.3-0.5,0.8-1,1.3-1.3c0.6-0.3,1.2-0.5,1.9-0.5s1.3,0.2,1.9,0.5c0.5,0.3,1,0.7,1.3,1.3c0.3,0.5,0.5,1.1,0.5,1.8
		c0,0.7-0.2,1.3-0.5,1.8c-0.3,0.5-0.7,1-1.3,1.3C52.7,53.9,52,54,51.3,54c-0.7,0-1.3-0.1-1.9-0.4c-0.6-0.3-1-0.7-1.3-1.2
		c-0.3-0.5-0.5-1.2-0.5-1.9C47.7,49.8,47.8,49.2,48.1,48.7z M49.4,51.7c0.2,0.4,0.4,0.6,0.8,0.8c0.3,0.2,0.7,0.3,1.1,0.3
		c0.6,0,1.1-0.2,1.5-0.7c0.4-0.4,0.6-1,0.6-1.6c0-0.7-0.2-1.2-0.6-1.6c-0.4-0.4-0.9-0.7-1.5-0.7c-0.4,0-0.8,0.1-1.1,0.3
		c-0.3,0.2-0.6,0.5-0.8,0.8c-0.2,0.4-0.3,0.7-0.3,1.2S49.3,51.3,49.4,51.7z"/>
	<path d="M62.5,53.8c-0.4-0.2-0.8-0.4-1.1-0.8l0.6-0.9c0.3,0.3,0.5,0.5,0.8,0.6s0.6,0.2,0.9,0.2c0.4,0,0.6-0.1,0.9-0.2
		c0.2-0.1,0.3-0.4,0.3-0.6c0-0.2-0.1-0.4-0.2-0.5c-0.1-0.1-0.3-0.2-0.5-0.3c-0.2-0.1-0.5-0.2-0.9-0.3c-1.1-0.4-1.7-1-1.7-1.9
		c0-0.6,0.2-1,0.6-1.4s1-0.6,1.7-0.6c0.5,0,0.9,0.1,1.2,0.2c0.4,0.1,0.7,0.3,1,0.6l-0.6,0.9c-0.2-0.2-0.4-0.3-0.6-0.4
		c-0.3-0.1-0.5-0.2-0.7-0.2c-0.3,0-0.6,0.1-0.8,0.2s-0.3,0.3-0.3,0.6c0,0.2,0.1,0.4,0.2,0.5c0.1,0.1,0.3,0.2,0.4,0.3
		c0.1,0.1,0.4,0.2,0.9,0.3c0.5,0.2,1,0.4,1.3,0.7c0.3,0.3,0.5,0.7,0.5,1.2c0,0.6-0.2,1.2-0.7,1.6c-0.4,0.4-1.1,0.6-1.9,0.6
		C63.4,54,62.9,53.9,62.5,53.8z"/>
	<path d="M74.2,47.5c0.4,0.4,0.6,0.8,0.6,1.4v4.9h-1.5v-4.4c0-0.4-0.1-0.7-0.3-0.9c-0.2-0.2-0.5-0.3-0.9-0.3c-0.4,0-0.7,0.1-1,0.3
		s-0.6,0.5-0.7,0.9c-0.2,0.4-0.3,0.8-0.3,1.3v3.1h-1.5V41.5H70v7c0.2-0.4,0.6-0.8,1.1-1.1s1-0.4,1.6-0.4
		C73.3,47,73.8,47.2,74.2,47.5z"/>
	<path d="M77.3,48.7c0.3-0.5,0.8-1,1.3-1.3c0.6-0.3,1.2-0.5,1.9-0.5s1.3,0.2,1.9,0.5c0.5,0.3,1,0.7,1.3,1.3c0.3,0.5,0.5,1.1,0.5,1.8
		c0,0.7-0.2,1.3-0.5,1.8c-0.3,0.5-0.7,1-1.3,1.3c-0.6,0.3-1.2,0.5-1.9,0.5c-0.7,0-1.3-0.1-1.9-0.4c-0.6-0.3-1-0.7-1.3-1.2
		c-0.3-0.5-0.5-1.2-0.5-1.9C76.8,49.8,77,49.2,77.3,48.7z M78.6,51.7c0.2,0.4,0.4,0.6,0.8,0.8c0.3,0.2,0.7,0.3,1.1,0.3
		c0.6,0,1.1-0.2,1.5-0.7c0.4-0.4,0.6-1,0.6-1.6c0-0.7-0.2-1.2-0.6-1.6c-0.4-0.4-0.9-0.7-1.5-0.7c-0.4,0-0.8,0.1-1.1,0.3
		c-0.3,0.2-0.6,0.5-0.8,0.8c-0.2,0.4-0.3,0.7-0.3,1.2S78.4,51.3,78.6,51.7z"/>
	<path d="M95.1,47.2l-3.1,7l-2.1-4.5L88,54.3l-3.1-7h1.5l1.8,4l1.2-2.9l-0.5-1.1h1.3l1.8,4.1l1.7-4.1H95.1z"/>
	<path d="M102.3,48.6h-1.1v-1.3h1.1v-2.8c0-1,0.2-1.7,0.7-2.2c0.4-0.5,1.1-0.8,1.9-0.8c0.2,0,0.5,0,0.8,0.1s0.5,0.2,0.7,0.3
		l-0.6,1.1c-0.2-0.2-0.4-0.3-0.7-0.3c-0.4,0-0.7,0.1-0.9,0.4s-0.3,0.7-0.3,1.3v2.8h2.1v1.3h-2.1v5.3h-1.5V48.6z"/>
	<path d="M114.2,47.2v6.6h-1.5v-1.1c-0.2,0.3-0.6,0.6-1,0.9s-1,0.4-1.5,0.4c-0.6,0-1.2-0.1-1.7-0.4c-0.5-0.3-0.9-0.7-1.2-1.2
		c-0.3-0.5-0.4-1.1-0.4-1.9c0-0.7,0.2-1.4,0.5-1.9s0.7-1,1.2-1.2c0.5-0.3,1.1-0.4,1.7-0.4c0.6,0,1.1,0.1,1.5,0.4
		c0.4,0.2,0.8,0.6,1,1l0.1-1.1H114.2z M112,52.3c0.4-0.3,0.6-0.7,0.7-1.2v-1.3c-0.1-0.5-0.4-0.9-0.8-1.1c-0.4-0.3-0.9-0.4-1.4-0.4
		c-0.4,0-0.8,0.1-1.1,0.3s-0.6,0.5-0.8,0.8s-0.3,0.7-0.3,1.2c0,0.4,0.1,0.8,0.3,1.2c0.2,0.4,0.5,0.6,0.8,0.8
		c0.3,0.2,0.7,0.3,1.1,0.3C111.1,52.8,111.6,52.6,112,52.3z"/>
	<path d="M121.1,53.8c-0.4,0.1-0.8,0.2-1.3,0.2c-0.7,0-1.3-0.1-1.9-0.4c-0.5-0.3-1-0.7-1.3-1.2c-0.3-0.5-0.5-1.1-0.5-1.8
		c0-0.7,0.2-1.3,0.5-1.8s0.7-0.9,1.3-1.2c0.5-0.3,1.1-0.4,1.7-0.4c1,0,1.9,0.3,2.5,0.8l-0.8,1c-0.2-0.2-0.5-0.3-0.7-0.4
		c-0.3-0.1-0.6-0.2-0.9-0.2c-0.4,0-0.8,0.1-1.1,0.3s-0.6,0.5-0.8,0.8s-0.3,0.7-0.3,1.1s0.1,0.8,0.3,1.1s0.5,0.6,0.8,0.8
		c0.3,0.2,0.7,0.3,1.2,0.3c0.5,0,1-0.2,1.4-0.5l0.8,0.9C121.9,53.5,121.5,53.7,121.1,53.8z"/>
	<path d="M126.2,44.3v2.9h1.8v1.2h-1.8v5.4h-1.5v-5.4h-1.2v-1.2h1.2v-2.9H126.2z"/>
	<path d="M130.3,53.8c-0.4-0.2-0.8-0.4-1.1-0.8l0.6-0.9c0.3,0.3,0.5,0.5,0.8,0.6c0.3,0.1,0.6,0.2,0.9,0.2c0.4,0,0.6-0.1,0.9-0.2
		s0.3-0.4,0.3-0.6c0-0.2-0.1-0.4-0.2-0.5s-0.3-0.2-0.5-0.3c-0.2-0.1-0.5-0.2-0.9-0.3c-1.1-0.4-1.7-1-1.7-1.9c0-0.6,0.2-1,0.6-1.4
		c0.4-0.4,1-0.6,1.7-0.6c0.5,0,0.9,0.1,1.2,0.2c0.4,0.1,0.7,0.3,1,0.6l-0.6,0.9c-0.2-0.2-0.4-0.3-0.6-0.4c-0.3-0.1-0.5-0.2-0.7-0.2
		c-0.3,0-0.6,0.1-0.8,0.2c-0.2,0.1-0.3,0.3-0.3,0.6c0,0.2,0.1,0.4,0.2,0.5s0.3,0.2,0.4,0.3c0.1,0.1,0.4,0.2,0.9,0.3
		c0.5,0.2,1,0.4,1.3,0.7s0.5,0.7,0.5,1.2c0,0.6-0.2,1.2-0.7,1.6s-1.1,0.6-1.9,0.6C131.2,54,130.8,53.9,130.3,53.8z"/>
</g>
</svg>
