<svg xmlns="http://www.w3.org/2000/svg" viewBox="0 0 112.92 112.92"><defs><style>.cls-1{fill:#ac757c;}.cls-2{fill:#bcd5e6;}.cls-3{fill:#272e43;}</style></defs><title>Snowy</title><g id="Layer_2" data-name="Layer 2"><g id="Layer_1-2" data-name="Layer 1"><g id="Snowy"><circle class="cls-1" cx="56.46" cy="56.46" r="56.46"/><path class="cls-2" d="M26.38,69h61c17.17-2.88,9.07-24.71-2.73-23,2.83-3.9-8.79-17.84-19.81-8.61-.3-19.48-41.38-22-37.77,9.12C19.84,45.83,10.67,63.66,26.38,69Z"/><path class="cls-3" d="M42.68,65.51a2,2,0,0,0-2.51-1.15l-2.31.85-.8-2.15a1.95,1.95,0,1,0-3.65,1.35l.79,2.15-2,.74A1.95,1.95,0,0,0,33.56,71l2-.73.79,2.15A2,2,0,0,0,40,71l-.8-2.16L41.53,68A2,2,0,0,0,42.68,65.51Z"/><path class="cls-3" d="M54.91,71.57a2,2,0,0,0-2.52,1.11l-.9,2.3-2.14-.83a1.94,1.94,0,0,0-1.42,3.62l2.14.84-.77,2A1.95,1.95,0,1,0,52.93,82l.77-2,2.14.84a1.95,1.95,0,0,0,1.42-3.63l-2.14-.83L56,74.09A2,2,0,0,0,54.91,71.57Z"/><path class="cls-3" d="M41.08,80.33a1.94,1.94,0,0,0-2.75.08l-1.7,1.79L35,80.62a1.95,1.95,0,0,0-2.68,2.83L34,85l-1.46,1.54a1.95,1.95,0,1,0,2.83,2.68l1.46-1.54,1.67,1.57a1.95,1.95,0,0,0,2.68-2.82l-1.67-1.58,1.69-1.8A1.94,1.94,0,0,0,41.08,80.33Z"/></g></g></g></svg>