<?xml version="1.0" encoding="utf-8"?>
<!-- Generator: Adobe Illustrator 22.1.0, SVG Export Plug-In . SVG Version: 6.00 Build 0)  -->
<svg version="1.1" id="Layer_1" xmlns="http://www.w3.org/2000/svg" xmlns:xlink="http://www.w3.org/1999/xlink" x="0px" y="0px"
	 viewBox="0 0 100.4 31" style="enable-background:new 0 0 100.4 31;" xml:space="preserve">
<style type="text/css">
	.st0{fill:#BDD4E7;stroke:#637074;stroke-width:1.74;stroke-miterlimit:10;}
	.st1{enable-background:new    ;}
</style>
<title>SnowyHover</title>
<g id="Layer_2_1_">
	<g id="Layer_5">
		<g id="SnowyHover">
			<path class="st0" d="M15.5,0.9h69.4c8.1,0,14.6,6.6,14.6,14.6v0c0,8.1-6.6,14.6-14.6,14.6H15.5c-8.1,0-14.6-6.6-14.6-14.6v0
				C0.9,7.4,7.4,0.9,15.5,0.9z"/>
			<g class="st1">
				<path d="M32.8,10.1c-0.5-0.1-1-0.2-1.4-0.2c-0.7,0-1.2,0.2-1.6,0.5c-0.4,0.3-0.6,0.7-0.6,1.2c0,0.5,0.2,0.9,0.7,1.2
					c0.5,0.3,1.1,0.6,2,1c0.6,0.2,1.2,0.5,1.6,0.7c0.4,0.3,0.8,0.6,1.1,1.1c0.3,0.5,0.4,1.1,0.4,1.8c0,0.7-0.2,1.3-0.5,1.8
					c-0.3,0.5-0.8,1-1.4,1.3c-0.6,0.3-1.3,0.5-2.1,0.5c-0.8,0-1.5-0.1-2.2-0.4s-1.3-0.6-1.9-0.9l0.7-1.3c0.4,0.3,0.9,0.6,1.5,0.8
					c0.6,0.2,1.1,0.3,1.6,0.3c0.7,0,1.2-0.2,1.7-0.5c0.5-0.3,0.7-0.8,0.7-1.5c0-0.6-0.2-1-0.6-1.4s-1-0.6-1.7-0.9
					c-0.7-0.3-1.3-0.5-1.7-0.8c-0.5-0.2-0.9-0.6-1.2-1s-0.5-1-0.5-1.6c0-1,0.3-1.7,1-2.3c0.7-0.6,1.5-0.9,2.6-0.9
					c1.3,0,2.6,0.3,3.7,1l-0.6,1.3C33.8,10.5,33.3,10.3,32.8,10.1z"/>
				<path d="M43.4,14.1c0.4,0.4,0.7,0.9,0.7,1.5v5.2h-1.6v-4.7c0-0.4-0.1-0.7-0.4-0.9s-0.5-0.3-1-0.4c-0.6,0-1.1,0.2-1.5,0.7
					c-0.4,0.5-0.6,1.1-0.6,1.9v3.3h-1.6v-7h1.4l0.1,1.4c0.2-0.5,0.6-0.9,1.1-1.2c0.5-0.3,1.1-0.4,1.7-0.4
					C42.4,13.5,43,13.7,43.4,14.1z"/>
			</g>
			<g class="st1">
				<path d="M46.7,15.3c0.3-0.6,0.8-1,1.4-1.4c0.6-0.3,1.3-0.5,2-0.5s1.4,0.2,2,0.5c0.6,0.3,1,0.8,1.4,1.3c0.3,0.6,0.5,1.2,0.5,1.9
					s-0.2,1.3-0.5,1.9s-0.8,1-1.4,1.4c-0.6,0.3-1.3,0.5-2,0.5c-0.7,0-1.4-0.2-2-0.5s-1.1-0.8-1.4-1.3c-0.3-0.6-0.5-1.2-0.5-2
					C46.2,16.5,46.3,15.9,46.7,15.3z M48.1,18.5c0.2,0.4,0.5,0.7,0.8,0.9c0.3,0.2,0.7,0.3,1.1,0.3c0.7,0,1.2-0.2,1.6-0.7
					s0.6-1,0.6-1.7c0-0.7-0.2-1.3-0.6-1.7c-0.4-0.5-1-0.7-1.6-0.7c-0.4,0-0.8,0.1-1.2,0.3c-0.3,0.2-0.6,0.5-0.8,0.9
					c-0.2,0.4-0.3,0.8-0.3,1.2C47.8,17.7,47.9,18.1,48.1,18.5z"/>
			</g>
			<g class="st1">
				<path d="M65.6,13.8l-3.2,7.5l-2.3-4.8L58,21.2l-3.3-7.5h1.6l1.9,4.3l1.3-3.1L59,13.8h1.4l1.9,4.4l1.8-4.4H65.6z"/>
				<path d="M74,13.8l-4.5,10.4h-1.6l1.6-3.6l-3.3-6.8H68l2.3,5l2.2-5H74z"/>
			</g>
		</g>
	</g>
</g>
</svg>
