<?xml version="1.0" encoding="utf-8"?>
<!-- Generator: Adobe Illustrator 22.1.0, SVG Export Plug-In . SVG Version: 6.00 Build 0)  -->
<svg version="1.1" id="Layer_1" xmlns="http://www.w3.org/2000/svg" xmlns:xlink="http://www.w3.org/1999/xlink" x="0px" y="0px"
	 viewBox="0 0 100.4 31" style="enable-background:new 0 0 100.4 31;" xml:space="preserve">
<style type="text/css">
	.st0{fill:#BDD4E7;stroke:#637074;stroke-width:1.74;stroke-miterlimit:10;}
	.st1{enable-background:new    ;}
</style>
<title>Stylehover</title>
<g id="Layer_2_1_">
	<g id="Layer_3">
		<g id="Style">
			<path class="st0" d="M15.5,0.9h69.4c8.1,0,14.6,6.6,14.6,14.6v0c0,8.1-6.6,14.6-14.6,14.6H15.5c-8.1,0-14.6-6.6-14.6-14.6v0
				C0.9,7.4,7.4,0.9,15.5,0.9z"/>
			<g class="st1">
				<path d="M38.1,10.1c-0.5-0.1-1-0.2-1.4-0.2c-0.7,0-1.2,0.2-1.6,0.5c-0.4,0.3-0.6,0.7-0.6,1.2c0,0.5,0.2,0.9,0.7,1.2
					c0.5,0.3,1.1,0.6,2,1c0.6,0.2,1.2,0.5,1.6,0.7c0.4,0.3,0.8,0.6,1.1,1.1c0.3,0.5,0.4,1.1,0.4,1.8c0,0.7-0.2,1.3-0.5,1.8
					c-0.3,0.5-0.8,1-1.4,1.3c-0.6,0.3-1.3,0.5-2.1,0.5c-0.8,0-1.5-0.1-2.2-0.4s-1.3-0.6-1.9-0.9l0.7-1.3c0.4,0.3,0.9,0.6,1.5,0.8
					c0.6,0.2,1.1,0.3,1.6,0.3c0.7,0,1.2-0.2,1.7-0.5c0.5-0.3,0.7-0.8,0.7-1.5c0-0.6-0.2-1-0.6-1.4s-1-0.6-1.7-0.9
					c-0.7-0.3-1.3-0.5-1.7-0.8c-0.5-0.2-0.9-0.6-1.2-1s-0.5-1-0.5-1.6c0-1,0.3-1.7,1-2.3c0.7-0.6,1.5-0.9,2.6-0.9
					c1.3,0,2.6,0.3,3.7,1l-0.6,1.3C39.1,10.5,38.6,10.3,38.1,10.1z"/>
				<path d="M45,10.7v3.1h1.9V15H45v5.8h-1.6V15h-1.3v-1.3h1.3v-3.1H45z"/>
				<path d="M55.5,13.8L51,24.2h-1.6l1.6-3.6l-3.3-6.8h1.8l2.3,5l2.2-5H55.5z"/>
				<path d="M58.8,7.6v13.2h-1.6V7.6H58.8z"/>
				<path d="M66.6,19l0.7,1.2c-0.4,0.2-0.8,0.4-1.2,0.6c-0.4,0.1-0.9,0.2-1.3,0.2c-0.8,0-1.5-0.2-2-0.5s-1-0.8-1.4-1.3
					c-0.3-0.6-0.5-1.2-0.5-1.9c0-0.7,0.2-1.3,0.5-1.9c0.3-0.6,0.8-1,1.4-1.4s1.3-0.5,2-0.5c0.9,0,1.7,0.3,2.3,0.8
					c0.6,0.5,1,1.3,1.3,2.3l-5.6,2c0.2,0.4,0.5,0.6,0.8,0.8c0.3,0.2,0.7,0.3,1.2,0.3C65.4,19.6,66,19.4,66.6,19z M63.1,15.4
					c-0.4,0.5-0.6,1-0.6,1.7c0,0.2,0,0.3,0,0.4l4.1-1.5c-0.2-0.4-0.4-0.7-0.7-0.9s-0.7-0.4-1.2-0.4C64.1,14.7,63.6,15,63.1,15.4z"/>
			</g>
		</g>
	</g>
</g>
</svg>
