<?xml version="1.0" encoding="utf-8"?>
<!-- Generator: Adobe Illustrator 22.1.0, SVG Export Plug-In . SVG Version: 6.00 Build 0)  -->
<svg version="1.1" id="Layer_1" xmlns="http://www.w3.org/2000/svg" xmlns:xlink="http://www.w3.org/1999/xlink" x="0px" y="0px"
	 viewBox="0 0 100.4 31" style="enable-background:new 0 0 100.4 31;" xml:space="preserve">
<style type="text/css">
	.st0{fill:#BDD4E7;stroke:#637074;stroke-width:1.74;stroke-miterlimit:10;}
</style>
<title>Stylehover</title>
<g id="Layer_2_1_">
	<g id="Layer_3">
		<g id="Style">
			<path class="st0" d="M15.5,0.9h69.4c8.1,0,14.6,6.6,14.6,14.6l0,0c0,8.1-6.6,14.6-14.6,14.6H15.5c-8.1,0-14.6-6.6-14.6-14.6l0,0
				C0.9,7.4,7.4,0.9,15.5,0.9z"/>
		</g>
	</g>
</g>
<g>
	<path d="M15.7,20.5c-0.5,0.2-1,0.3-1.6,0.3c-1,0-1.9-0.2-2.7-0.7c-0.8-0.5-1.4-1.1-1.8-1.8c-0.4-0.8-0.6-1.6-0.6-2.6
		c0-1,0.2-1.9,0.6-2.7c0.4-0.8,1-1.4,1.8-1.9c0.8-0.5,1.6-0.7,2.6-0.7c0.6,0,1.1,0.1,1.6,0.2c0.5,0.1,0.9,0.3,1.3,0.6l-0.5,1.3
		c-0.8-0.5-1.6-0.8-2.3-0.8c-0.7,0-1.3,0.2-1.8,0.5c-0.6,0.3-1,0.8-1.3,1.4c-0.3,0.6-0.5,1.2-0.5,2c0,0.7,0.2,1.4,0.5,2
		s0.7,1,1.3,1.4c0.6,0.3,1.2,0.5,2,0.5c0.9,0,1.7-0.3,2.4-0.8l0.6,1.2C16.6,20.1,16.2,20.3,15.7,20.5z"/>
	<path d="M23.8,15.1c0.4,0.3,0.5,0.7,0.5,1.3v4.3H23v-3.8c0-0.3-0.1-0.6-0.3-0.8c-0.2-0.2-0.4-0.3-0.8-0.3c-0.3,0-0.6,0.1-0.9,0.3
		c-0.3,0.2-0.5,0.4-0.6,0.8s-0.2,0.7-0.2,1.1v2.7h-1.3V9.8h1.3v6.1c0.2-0.4,0.5-0.7,0.9-0.9c0.4-0.2,0.9-0.4,1.4-0.4
		C23,14.6,23.4,14.8,23.8,15.1z"/>
	<path d="M32.5,14.9v5.8h-1.3v-1c-0.2,0.3-0.5,0.5-0.9,0.7c-0.4,0.2-0.8,0.3-1.3,0.3c-0.6,0-1-0.1-1.5-0.4c-0.4-0.2-0.8-0.6-1-1
		c-0.3-0.5-0.4-1-0.4-1.6s0.1-1.2,0.4-1.7c0.3-0.5,0.6-0.8,1.1-1.1s1-0.4,1.5-0.4c0.5,0,0.9,0.1,1.3,0.3c0.4,0.2,0.7,0.5,0.9,0.8
		l0.1-0.9H32.5z M30.6,19.3c0.3-0.3,0.6-0.6,0.7-1.1v-1.1c-0.1-0.4-0.3-0.7-0.7-1c-0.4-0.3-0.8-0.4-1.2-0.4c-0.3,0-0.7,0.1-1,0.3
		c-0.3,0.2-0.5,0.4-0.7,0.7c-0.2,0.3-0.3,0.6-0.3,1c0,0.4,0.1,0.7,0.3,1s0.4,0.6,0.7,0.7c0.3,0.2,0.6,0.3,1,0.3
		C29.8,19.7,30.2,19.6,30.6,19.3z"/>
	<path d="M39.8,15.1c0.4,0.3,0.5,0.7,0.5,1.3v4.3H39v-3.8c0-0.3-0.1-0.6-0.3-0.8c-0.2-0.2-0.4-0.3-0.8-0.3c-0.5,0-0.9,0.2-1.3,0.6
		c-0.3,0.4-0.5,0.9-0.5,1.6v2.7h-1.3v-5.8H36l0.1,1.1c0.2-0.4,0.5-0.7,0.9-1c0.4-0.2,0.9-0.4,1.4-0.4C38.9,14.6,39.4,14.8,39.8,15.1
		z"/>
	<path d="M48.7,14.9v5.8c0,0.5-0.1,1-0.4,1.4c-0.3,0.4-0.7,0.8-1.2,1s-1.1,0.4-1.8,0.4c-0.6,0-1.1-0.1-1.5-0.3
		c-0.4-0.2-0.9-0.5-1.3-0.9l0.8-0.9c0.3,0.3,0.6,0.5,1,0.7s0.7,0.2,1,0.2c0.6,0,1.1-0.2,1.5-0.5c0.4-0.3,0.5-0.7,0.5-1.2l0-1.1
		c-0.2,0.4-0.5,0.7-0.9,0.9c-0.4,0.2-0.9,0.3-1.4,0.3c-0.5,0-1-0.1-1.5-0.4c-0.4-0.3-0.8-0.6-1.1-1.1c-0.3-0.5-0.4-1-0.4-1.6
		c0-0.6,0.1-1.1,0.4-1.6c0.3-0.5,0.6-0.8,1.1-1.1s1-0.4,1.5-0.4c0.5,0,1,0.1,1.4,0.3c0.4,0.2,0.7,0.4,0.9,0.8l0.1-0.8H48.7z
		 M46.7,19.3c0.4-0.3,0.6-0.6,0.7-1.1v-1.1c-0.1-0.4-0.4-0.8-0.7-1c-0.4-0.3-0.8-0.4-1.3-0.4c-0.6,0-1,0.2-1.4,0.6
		c-0.4,0.4-0.6,0.8-0.6,1.4c0,0.4,0.1,0.7,0.3,1s0.4,0.6,0.7,0.7c0.3,0.2,0.6,0.3,1,0.3C45.9,19.7,46.3,19.6,46.7,19.3z"/>
	<path d="M55.1,19.2l0.6,1c-0.3,0.2-0.6,0.4-1,0.5c-0.4,0.1-0.7,0.2-1,0.2c-0.6,0-1.2-0.1-1.7-0.4c-0.5-0.3-0.9-0.6-1.1-1.1
		s-0.4-1-0.4-1.6c0-0.6,0.1-1.1,0.4-1.6c0.3-0.5,0.7-0.8,1.2-1.1c0.5-0.3,1-0.4,1.6-0.4c0.8,0,1.4,0.2,1.9,0.7
		c0.5,0.4,0.9,1.1,1,1.9L52,18.8c0.2,0.3,0.4,0.5,0.7,0.7c0.3,0.2,0.6,0.2,1,0.2C54.1,19.7,54.6,19.5,55.1,19.2z M52.2,16.2
		c-0.3,0.4-0.5,0.8-0.5,1.4c0,0.1,0,0.2,0,0.3l3.4-1.2c-0.1-0.3-0.3-0.6-0.6-0.8c-0.3-0.2-0.6-0.3-1-0.3
		C53,15.7,52.6,15.9,52.2,16.2z"/>
	<path d="M64.3,10.5v8.8h5.2v1.3H63V10.5H64.3z"/>
	<path d="M71.3,16.2c0.3-0.5,0.7-0.8,1.1-1.1s1-0.4,1.7-0.4s1.2,0.1,1.6,0.4c0.5,0.3,0.9,0.6,1.1,1.1c0.3,0.5,0.4,1,0.4,1.6
		s-0.1,1.1-0.4,1.6c-0.3,0.5-0.6,0.8-1.1,1.1s-1,0.4-1.7,0.4c-0.6,0-1.2-0.1-1.6-0.4s-0.9-0.6-1.1-1.1s-0.4-1-0.4-1.6
		C70.8,17.1,71,16.6,71.3,16.2z M72.4,18.7c0.2,0.3,0.4,0.6,0.7,0.7s0.6,0.3,0.9,0.3c0.5,0,1-0.2,1.3-0.6c0.4-0.4,0.5-0.9,0.5-1.4
		s-0.2-1-0.5-1.4c-0.4-0.4-0.8-0.6-1.3-0.6c-0.4,0-0.7,0.1-1,0.3s-0.5,0.4-0.7,0.7s-0.2,0.6-0.2,1S72.2,18.4,72.4,18.7z"/>
	<path d="M78.9,16.2c0.3-0.5,0.7-0.8,1.1-1.1c0.5-0.3,1-0.4,1.7-0.4c0.6,0,1.2,0.1,1.6,0.4s0.9,0.6,1.1,1.1c0.3,0.5,0.4,1,0.4,1.6
		s-0.1,1.1-0.4,1.6c-0.3,0.5-0.6,0.8-1.1,1.1s-1,0.4-1.7,0.4c-0.6,0-1.2-0.1-1.6-0.4c-0.5-0.3-0.9-0.6-1.1-1.1s-0.4-1-0.4-1.6
		C78.5,17.1,78.6,16.6,78.9,16.2z M80,18.7c0.2,0.3,0.4,0.6,0.7,0.7s0.6,0.3,0.9,0.3c0.5,0,1-0.2,1.3-0.6c0.4-0.4,0.5-0.9,0.5-1.4
		s-0.2-1-0.5-1.4c-0.4-0.4-0.8-0.6-1.3-0.6c-0.4,0-0.7,0.1-1,0.3c-0.3,0.2-0.5,0.4-0.7,0.7s-0.2,0.6-0.2,1S79.9,18.4,80,18.7z"/>
	<path d="M88.7,17.9l-0.8,0.6v2.2h-1.3V9.8h1.3v7.3l3-2.4l0.8,0.7l-2.1,1.7l2.4,3.5h-1.5L88.7,17.9z"/>
</g>
</svg>
