<?xml version="1.0" encoding="utf-8"?>
<!-- Generator: Adobe Illustrator 22.1.0, SVG Export Plug-In . SVG Version: 6.00 Build 0)  -->
<svg version="1.1" id="Layer_1" xmlns="http://www.w3.org/2000/svg" xmlns:xlink="http://www.w3.org/1999/xlink" x="0px" y="0px"
	 viewBox="0 0 114 114" style="enable-background:new 0 0 114 114;" xml:space="preserve">
<style type="text/css">
	.st0{fill:#617073;}
	.st1{fill:#272E43;}
	.st2{fill:#BCD5E6;}
</style>
<g>
	<g id="Style_1_">
		<circle class="st0" cx="57.6" cy="58" r="57"/>
		<g id="EfMOrY.tif_2_">
			<g>
				<path class="st1" d="M76.2,91.7c-12.5,0-24.9,0-37.4,0c-0.3-0.9-0.8-1.8-0.8-2.7c-0.1-6.7,0-13.3,0-20c0-0.6-0.1-1.2-0.1-1.7
					c-0.1,0.2-0.2,0.4-0.2,0.6c-1,0-2.3,0.4-3-0.1c-3.8-2.9-7.5-6-11.2-9.1c-0.5-0.4-0.8-1.7-0.5-2.1c4.5-6.4,9-12.9,15.4-17.7
					c1.2-0.9,3-1.5,4.5-1.4c3.6,0.3,6.7-0.7,9.5-2.8c0.7-0.5,1.4-1,2.2-1.3c1.7-0.7,2.3-1.9,2-3.7c-0.3-1.8,0.2-3.1,2.4-3.4
					c1.8-0.3,2.7-1.8,2.5-3.6c-0.2-1.9-1.4-3-3.2-3.1c-1.9-0.1-3.1,0.9-3.6,2.6c-0.1,0.4,0,0.9-0.2,1.2c-0.4,0.4-1,1.1-1.4,1
					c-0.5-0.1-1.1-0.8-1.3-1.3c-0.2-0.5,0-1.3,0.2-1.9c0.8-2.8,3.4-4.7,6.3-4.7c2.8,0.1,5.4,2,6.1,4.7c0.8,2.9-0.5,5.9-3.2,7.4
					c-2.2,1.3-2.3,3-0.1,4.4c1.3,0.8,2.6,1.6,4,2.5c1.7,1,3.2,2.3,5.4,1.9c3.8-0.6,6.9,0.9,9.2,3.7c4.2,4.9,8.1,10,12.2,15
					c0.9,1.1,0.7,2-0.4,2.9c-3.4,2.7-6.8,5.5-10.2,8.3c-1.2,1-2.3,1.7-3.9-0.1c0,1.3,0,2,0,2.8c0,6.3,0,12.6,0,18.9
					C77.2,89.9,76.6,90.8,76.2,91.7z M58.2,45.4c1,0,2,0.1,3,0c2.5-0.2,4.2-1.5,5.3-3.7c0.5-1,0.4-1.6-0.7-2.2
					c-2.3-1.3-4.4-2.8-6.7-4.1c-0.6-0.3-1.6-0.4-2.2,0c-2.1,1.1-4.2,2.4-6.1,3.8c-0.5,0.4-1,1.6-0.8,2.2c0.8,2.4,2.7,3.8,5.2,4
					C56.3,45.5,57.3,45.4,58.2,45.4z"/>
			</g>
		</g>
	</g>
	<g id="EfMOrY.tif_1_">
		<g>
			<path class="st2" d="M78.6,91.8c-12.5,0-25,0-37.5,0c-0.3-0.9-0.8-1.8-0.8-2.7c-0.1-6.7,0-13.3,0-20c0-0.6-0.1-1.2-0.1-1.7
				c-0.1,0.2-0.2,0.4-0.2,0.6c-1,0-2.3,0.4-3-0.1c-3.8-2.9-7.6-6-11.2-9.1c-0.5-0.4-0.8-1.7-0.5-2.1c4.6-6.4,9.1-12.9,15.5-17.7
				c1.2-0.9,3-1.5,4.5-1.4c3.6,0.3,6.7-0.7,9.5-2.8c0.7-0.5,1.4-1,2.2-1.3c1.7-0.7,2.3-1.9,2-3.7c-0.3-1.8,0.2-3.1,2.4-3.4
				c1.8-0.3,2.7-1.8,2.5-3.6c-0.2-1.9-1.4-3-3.2-3.1c-1.9-0.1-3.1,0.9-3.6,2.6c-0.1,0.4,0,0.9-0.2,1.2c-0.4,0.4-1,1.1-1.4,1
				c-0.5-0.1-1.1-0.8-1.3-1.3c-0.2-0.5,0-1.3,0.2-1.9c0.8-2.8,3.4-4.7,6.4-4.7c2.8,0.1,5.4,2,6.1,4.7c0.8,2.9-0.5,5.9-3.2,7.4
				c-2.2,1.3-2.3,3-0.1,4.4c1.3,0.8,2.7,1.6,4,2.5c1.7,1,3.2,2.3,5.4,1.9c3.8-0.6,6.9,0.9,9.2,3.7c4.2,4.9,8.2,10,12.2,15
				c0.9,1.1,0.7,2-0.4,2.9c-3.4,2.7-6.9,5.5-10.2,8.3c-1.2,1-2.3,1.7-3.9-0.1c0,1.3,0,2,0,2.8c0,6.3,0,12.6,0,18.9
				C79.7,89.9,79,90.8,78.6,91.8z M60.6,45.4c1,0,2,0.1,3,0c2.5-0.2,4.2-1.5,5.3-3.7c0.5-1,0.4-1.6-0.7-2.2
				c-2.3-1.3-4.4-2.8-6.7-4.1c-0.6-0.3-1.6-0.4-2.2,0c-2.1,1.1-4.2,2.4-6.1,3.8c-0.5,0.4-1,1.6-0.8,2.2c0.8,2.4,2.7,3.8,5.2,4
				C58.6,45.5,59.6,45.4,60.6,45.4z"/>
		</g>
	</g>
</g>
</svg>
