<?xml version="1.0" encoding="utf-8"?>
<!-- Generator: Adobe Illustrator 22.1.0, SVG Export Plug-In . SVG Version: 6.00 Build 0)  -->
<svg version="1.1" id="Layer_1" xmlns="http://www.w3.org/2000/svg" xmlns:xlink="http://www.w3.org/1999/xlink" x="0px" y="0px"
	 viewBox="0 0 100.4 31" style="enable-background:new 0 0 100.4 31;" xml:space="preserve">
<style type="text/css">
	.st0{fill:#BDD4E7;stroke:#637074;stroke-width:1.74;stroke-miterlimit:10;}
	.st1{enable-background:new    ;}
</style>
<title>SunnyHover</title>
<g id="Layer_2_1_">
	<g id="Layer_5">
		<g id="SunnyHover">
			<path class="st0" d="M15.5,0.9h69.4c8.1,0,14.6,6.6,14.6,14.6v0c0,8.1-6.6,14.6-14.6,14.6H15.5c-8.1,0-14.6-6.6-14.6-14.6v0
				C0.9,7.4,7.4,0.9,15.5,0.9z"/>
			<g class="st1">
				<path d="M33.9,10.1c-0.5-0.1-1-0.2-1.4-0.2c-0.7,0-1.2,0.2-1.6,0.5c-0.4,0.3-0.6,0.7-0.6,1.2c0,0.5,0.2,0.9,0.7,1.2
					c0.5,0.3,1.1,0.6,2,1c0.6,0.2,1.2,0.5,1.6,0.7c0.4,0.3,0.8,0.6,1.1,1.1c0.3,0.5,0.4,1.1,0.4,1.8c0,0.7-0.2,1.3-0.5,1.8
					c-0.3,0.5-0.8,1-1.4,1.3c-0.6,0.3-1.3,0.5-2.1,0.5c-0.8,0-1.5-0.1-2.2-0.4S28.5,20,28,19.6l0.7-1.3c0.4,0.3,0.9,0.6,1.5,0.8
					c0.6,0.2,1.1,0.3,1.6,0.3c0.7,0,1.2-0.2,1.7-0.5c0.5-0.3,0.7-0.8,0.7-1.5c0-0.6-0.2-1-0.6-1.4s-1-0.6-1.7-0.9
					c-0.7-0.3-1.3-0.5-1.7-0.8c-0.5-0.2-0.9-0.6-1.2-1s-0.5-1-0.5-1.6c0-1,0.3-1.7,1-2.3c0.7-0.6,1.5-0.9,2.6-0.9
					c1.3,0,2.6,0.3,3.7,1l-0.6,1.3C34.8,10.5,34.4,10.3,33.9,10.1z"/>
				<path d="M45,13.8v7h-1.4l-0.1-1.3c-0.2,0.5-0.6,0.9-1.1,1.2c-0.5,0.3-1.1,0.5-1.7,0.5c-0.6,0-1.2-0.2-1.6-0.6
					c-0.4-0.4-0.6-0.9-0.7-1.5v-5.2H40v4.6c0,0.4,0.1,0.7,0.3,0.9c0.2,0.2,0.5,0.4,0.9,0.4c0.4,0,0.7-0.1,1.1-0.3
					c0.3-0.2,0.6-0.6,0.8-1c0.2-0.4,0.3-0.9,0.3-1.4v-3.3H45z"/>
				<path d="M53.7,14.1c0.4,0.4,0.7,0.9,0.7,1.5v5.2h-1.6v-4.7c0-0.4-0.1-0.7-0.4-0.9c-0.2-0.2-0.5-0.3-1-0.4
					c-0.6,0-1.1,0.2-1.5,0.7c-0.4,0.5-0.6,1.1-0.6,1.9v3.3h-1.6v-7h1.4l0.1,1.4c0.2-0.5,0.6-0.9,1.1-1.2c0.5-0.3,1.1-0.4,1.7-0.4
					C52.7,13.5,53.3,13.7,53.7,14.1z"/>
			</g>
			<g class="st1">
				<path d="M63.1,14.1c0.4,0.4,0.7,0.9,0.7,1.5v5.2h-1.6v-4.7c0-0.4-0.1-0.7-0.4-0.9c-0.2-0.2-0.5-0.3-1-0.4
					c-0.6,0-1.1,0.2-1.5,0.7c-0.4,0.5-0.6,1.1-0.6,1.9v3.3h-1.6v-7h1.4l0.1,1.4c0.2-0.5,0.6-0.9,1.1-1.2c0.5-0.3,1.1-0.4,1.7-0.4
					C62.1,13.5,62.7,13.7,63.1,14.1z"/>
			</g>
			<g class="st1">
				<path d="M73,13.8l-4.5,10.4h-1.6l1.6-3.6l-3.3-6.8H67l2.3,5l2.2-5H73z"/>
			</g>
		</g>
	</g>
</g>
</svg>
