<svg xmlns="http://www.w3.org/2000/svg" viewBox="0 0 112.92 112.92"><defs><style>.cls-1{fill:#e3dcde;}.cls-2{fill:#272e43;}.cls-3{fill:#617073;}</style></defs><title>Sunny</title><g id="Layer_2" data-name="Layer 2"><g id="Layer_1-2" data-name="Layer 1"><g id="Sunny"><circle class="cls-1" cx="56.46" cy="56.46" r="56.46"/><circle class="cls-2" cx="56.5" cy="57.56" r="16.19"/><polygon class="cls-2" points="52.71 39.81 56.29 19.82 60.29 39.73 52.71 39.81"/><polygon class="cls-2" points="42.18 46.4 32.07 28.78 47.94 41.47 42.18 46.4"/><polygon class="cls-2" points="38.36 58.21 19.29 51.22 39.59 50.73 38.36 58.21"/><polygon class="cls-2" points="43.02 69.72 23.91 76.62 39.16 63.2 43.02 69.72"/><polygon class="cls-2" points="53.99 75.54 43.78 93.11 46.84 73.02 53.99 75.54"/><polygon class="cls-2" points="66.13 72.95 69.61 92.96 59.04 75.61 66.13 72.95"/><polygon class="cls-2" points="73.77 63.16 89.29 76.25 70.05 69.76 73.77 63.16"/><polygon class="cls-2" points="73.32 50.75 93.63 50.8 74.72 58.2 73.32 50.75"/><polygon class="cls-2" points="65.01 41.53 80.6 28.51 70.86 46.34 65.01 41.53"/><path class="cls-3" d="M56.5,41.37a16.2,16.2,0,1,0,0,32.39Z"/></g></g></g></svg>