<?xml version="1.0" encoding="utf-8"?>
<!-- Generator: Adobe Illustrator 22.1.0, SVG Export Plug-In . SVG Version: 6.00 Build 0)  -->
<svg version="1.1" id="Layer_1" xmlns="http://www.w3.org/2000/svg" xmlns:xlink="http://www.w3.org/1999/xlink" x="0px" y="0px"
	 viewBox="0 0 100.4 31" style="enable-background:new 0 0 100.4 31;" xml:space="preserve">
<style type="text/css">
	.st0{fill:#BDD4E7;stroke:#637074;stroke-width:1.74;stroke-miterlimit:10;}
	.st1{enable-background:new    ;}
</style>
<title>weatherhover</title>
<g id="Layer_2_1_">
	<g id="Layer_3">
		<g id="weather">
			<path class="st0" d="M15.5,0.9h69.4c8.1,0,14.6,6.6,14.6,14.6v0c0,8.1-6.6,14.6-14.6,14.6H15.5c-8.1,0-14.6-6.6-14.6-14.6v0
				C0.9,7.4,7.4,0.9,15.5,0.9z"/>
			<g class="st1">
				<path d="M29.3,21.3L26.4,14l-3.1,7.4L18.4,8.6h1.9l3.2,8.9l2.1-5.6l-1.3-3.4h1.6l3.4,8.8l3-8.8h1.8L29.3,21.3z"/>
			</g>
			<g class="st1">
				<path d="M39.6,19l0.7,1.2c-0.4,0.2-0.8,0.4-1.2,0.6c-0.4,0.1-0.9,0.2-1.3,0.2c-0.8,0-1.5-0.2-2-0.5c-0.6-0.3-1-0.8-1.4-1.3
					c-0.3-0.6-0.5-1.2-0.5-1.9c0-0.7,0.2-1.3,0.5-1.9c0.3-0.6,0.8-1,1.4-1.4c0.6-0.3,1.3-0.5,2-0.5c0.9,0,1.7,0.3,2.3,0.8
					s1,1.3,1.3,2.3l-5.6,2c0.2,0.4,0.5,0.6,0.8,0.8c0.3,0.2,0.7,0.3,1.2,0.3C38.5,19.6,39,19.4,39.6,19z M36.2,15.4
					c-0.4,0.5-0.6,1-0.6,1.7c0,0.2,0,0.3,0,0.4l4.1-1.5c-0.2-0.4-0.4-0.7-0.7-0.9c-0.3-0.2-0.7-0.4-1.2-0.4
					C37.1,14.7,36.6,15,36.2,15.4z"/>
				<path d="M50.7,13.8v7h-1.6v-1.2c-0.2,0.3-0.6,0.6-1.1,0.9c-0.5,0.3-1,0.4-1.6,0.4c-0.7,0-1.3-0.1-1.8-0.4
					c-0.5-0.3-1-0.7-1.3-1.3c-0.3-0.6-0.5-1.2-0.5-2c0-0.8,0.2-1.4,0.5-2c0.3-0.6,0.8-1,1.3-1.3c0.5-0.3,1.2-0.5,1.8-0.5
					c0.6,0,1.1,0.1,1.6,0.4c0.4,0.3,0.8,0.6,1.1,1l0.1-1.1H50.7z M48.3,19.2c0.4-0.3,0.7-0.8,0.8-1.3v-1.4c-0.1-0.5-0.4-0.9-0.9-1.2
					c-0.4-0.3-0.9-0.5-1.5-0.5c-0.4,0-0.8,0.1-1.2,0.3s-0.6,0.5-0.8,0.9c-0.2,0.4-0.3,0.8-0.3,1.2c0,0.5,0.1,0.9,0.3,1.2
					s0.5,0.7,0.9,0.9c0.4,0.2,0.8,0.3,1.2,0.3C47.4,19.7,47.9,19.5,48.3,19.2z"/>
				<path d="M55.7,10.7v3.1h1.9V15h-1.9v5.8h-1.6V15h-1.3v-1.3h1.3v-3.1H55.7z"/>
				<path d="M65.5,14.1c0.4,0.4,0.7,0.9,0.7,1.5v5.2h-1.6v-4.7c0-0.4-0.1-0.7-0.4-0.9c-0.2-0.2-0.5-0.3-1-0.4
					c-0.4,0-0.8,0.1-1.1,0.3c-0.3,0.2-0.6,0.5-0.8,1c-0.2,0.4-0.3,0.9-0.3,1.4v3.3h-1.6V7.6h1.5V15c0.3-0.5,0.6-0.8,1.1-1.1
					s1.1-0.4,1.7-0.4C64.6,13.5,65.1,13.7,65.5,14.1z"/>
				<path d="M73.9,19l0.7,1.2c-0.4,0.2-0.8,0.4-1.2,0.6C73,20.9,72.6,21,72.2,21c-0.8,0-1.5-0.2-2-0.5c-0.6-0.3-1-0.8-1.4-1.3
					c-0.3-0.6-0.5-1.2-0.5-1.9c0-0.7,0.2-1.3,0.5-1.9s0.8-1,1.4-1.4c0.6-0.3,1.3-0.5,2-0.5c0.9,0,1.7,0.3,2.3,0.8
					c0.6,0.5,1,1.3,1.3,2.3l-5.6,2c0.2,0.4,0.5,0.6,0.8,0.8s0.7,0.3,1.2,0.3C72.8,19.6,73.4,19.4,73.9,19z M70.5,15.4
					c-0.4,0.5-0.6,1-0.6,1.7c0,0.2,0,0.3,0,0.4L74,16c-0.2-0.4-0.4-0.7-0.7-0.9c-0.3-0.2-0.7-0.4-1.2-0.4
					C71.5,14.7,70.9,15,70.5,15.4z"/>
				<path d="M80.1,14.4c0.3-0.3,0.7-0.5,1.1-0.7c0.4-0.2,0.7-0.2,1-0.3l-0.1,1.6c-0.5,0-1,0.1-1.4,0.3c-0.4,0.2-0.7,0.5-1,0.9
					c-0.2,0.4-0.3,0.8-0.3,1.3v3.2h-1.6v-7h1.4l0.1,1.7C79.5,15,79.7,14.7,80.1,14.4z"/>
			</g>
		</g>
	</g>
</g>
</svg>
