<svg xmlns="http://www.w3.org/2000/svg" viewBox="0 0 151.92 34.65"><defs><style>.cls-1{fill:#4d4d4d;}.cls-2{fill:#666;}</style></defs><title>bs1</title><g id="Layer_2" data-name="Layer 2"><g id="Boy_Shoes" data-name="Boy Shoes"><g id="SunShoes"><path class="cls-1" d="M5.37,10.81S-13.91,29.87,20.59,33.87s43-8.56,43-11.53S54.51,3.87,54.51,3.87s16,25.49-23.92,25.1C-10.25,28.57,5.37,10.81,5.37,10.81Z"/><path class="cls-1" d="M96.42,8.88s-20.5,20.4,14,24.4,41.5-8.74,41.5-11.71-8.46-15.69-8.46-15.69,16.92,22.89-23,22.49C79.58,28,96.42,8.88,96.42,8.88Z"/><path class="cls-1" d="M2.47,18.61l54.18,1s4.57-3.93,0-12S11-.95,7.48,7.17c0,0-6.52,7.74-5,11.44"/><path class="cls-2" d="M24.46,2.87s14.5-1.25,19.88,1c0,0-1.63.75-1.63,1.63s3.38,2.25,3.38,2.25S43.59,7.87,44,9.5s-1.62,5.75-3.25,7.12S32.21,15,28,16.62s-3.5-1.12-3.5-1.12l2.25-2S23.21,11.29,23,9.83s2-3.08,2-4.33A9.08,9.08,0,0,0,24.46,2.87Z"/><path class="cls-1" d="M91.46,17.88l59.65.9s.34-3.77-6.27-12.9c-5.45-7.55-47.14-8.12-50.69,0,0,0-2.69,9.2-1.18,12.9"/><path class="cls-2" d="M113,2s14.5-1.25,19.88,1c0,0-1.63.75-1.63,1.63s3.38,2.25,3.38,2.25-2.5.12-2.13,1.75-1.62,5.75-3.25,7.12-8.5-1.62-12.75,0-3.5-1.12-3.5-1.12l2.25-2s-3.5-2.21-3.75-3.67,2-3.08,2-4.33A9.08,9.08,0,0,0,113,2Z"/><path class="cls-2" d="M2.24,22.62s26.35,18.63,54.85,0C57.09,22.62,32.9,44.12,2.24,22.62Z"/><path class="cls-2" d="M95.92,24.63s30.17,13.91,50.67-1.92C146.59,22.71,124.42,42,95.92,24.63Z"/></g></g></g></svg>