<svg xmlns="http://www.w3.org/2000/svg" viewBox="0 0 157.79 62.5"><defs><style>.cls-1{fill:#565556;}.cls-2{fill:#4f4c4f;}.cls-3{fill:#cccacc;}.cls-4{fill:#999;}.cls-5{fill:#fcfcfc;}</style></defs><title>bs2</title><g id="Layer_2" data-name="Layer 2"><g id="Boy_Shoes" data-name="Boy Shoes"><g id="Cloud_RainShoes" data-name="Cloud/RainShoes"><path class="cls-1" d="M18.79,15.91l3.46,2.44h0l.5-6.33c8-8.87,21.5,0,21.5,0l1.69,5.69,6.7,2L51.48,12C71.07,41.89,60,48.44,60,48.44,27.16,76,7.18,52.11,3.84,46.73-.92,39.06,11.91,15,11.91,15Z"/><path class="cls-1" d="M103.43.29s-9.1,29.19-8.25,37.07.06,25,33.06,20.25,29.59-12.84,23.17-22.84-9.78-11.4-9.77-18.29,4.14-9.08,4.11-12.93S139.66,10,139.66,10l-4.41,2.11.5-8.54s-13-7.34-19.5,0l-2.5,4.53H106l-3.22-4.53"/><path class="cls-2" d="M22.75,12,19.59,37.85h24l2.38-20.14L44.25,12S30.91,3.48,22.75,12Z"/><path class="cls-2" d="M113.75,8.08s-2.34,5.55,3.33,29.77l26.44,2.51s-8.7-26.5-8.27-28.27a75.39,75.39,0,0,0,.5-8.54s-16.5-10.46-22,4.53"/><path class="cls-3" d="M6.93,48.19s22.83-30.61,54.83-1.07C61.76,47.12,31.11,77.05,6.93,48.19Z"/><path class="cls-3" d="M99,47.4s24.54-27.8,56.54,1.74C155.55,49.14,115,70.89,99,47.4Z"/><path class="cls-4" d="M7.94,24.07S-21.25,58.31,32.31,62.5c0,0,50.41-3.36,24.56-41.49h0s20.85,37.41-24.56,36.6C-9.95,56.85,7.94,24.07,7.94,24.07"/><path class="cls-4" d="M97.27,22.8s-17,43.63,31,37.11,23.07-23.39,23.07-23.39,13.44,16.87-21.06,18.87S99,50.6,97.27,22.8Z"/><polygon class="cls-3" points="141.66 33.99 128.91 28.06 138.19 24.09 138.19 21.85 128.91 25.86 115.41 22.78 115.52 24.99 127.48 27.92 116.64 33.99 117.03 35.62 128.53 30.71 141.66 35.41 141.66 33.99"/><polygon class="cls-3" points="139.14 20.22 126.39 14.29 135.67 10.32 135.67 8.08 126.39 12.09 112.9 9.01 113.01 11.22 124.97 14.15 114.13 20.22 114.52 21.85 126.02 16.94 139.14 21.63 139.14 20.22"/><polygon class="cls-3" points="20.72 25.5 32.27 19.81 23.11 18.23 22.9 16.68 32.07 18.29 44.59 14.48 44.69 16.02 33.61 19.54 44.44 22.38 44.22 23.55 32.87 21.6 20.85 26.48 20.72 25.5"/><polygon class="cls-3" points="19.59 35.34 31.14 29.65 21.98 28.06 21.77 26.51 30.94 28.12 43.46 24.31 43.56 25.85 32.48 29.37 43.31 32.21 43.09 33.38 31.74 31.43 19.72 36.31 19.59 35.34"/><path class="cls-5" d="M12.75,46.93s3.79,11.44,25.5,6.47C38.25,53.4,15.75,54,12.75,46.93Z"/><path class="cls-5" d="M128.24,50.79s17.92,2.58,18.7-8.4C146.94,42.39,135.74,53.69,128.24,50.79Z"/></g></g></g></svg>