<svg xmlns="http://www.w3.org/2000/svg" viewBox="0 0 161.28 115.45"><defs><style>.cls-1{fill:#333;}.cls-2{fill:#565656;}.cls-3{fill:#474747;}.cls-4{fill:#262626;}.cls-5{fill:#020202;}</style></defs><title>bs3</title><g id="Layer_2" data-name="Layer 2"><g id="Boy_Shoes" data-name="Boy Shoes"><g id="SnowShoes"><path class="cls-1" d="M13.49,10s2.51,16,2,24.5,1.34,17.66,2.5,25c0,0-18,32-15,35s10.43,14.5,26.21,15S65,100.45,66.5,96,60,61.45,57,57.45,59.34,41,58.92,37A143.52,143.52,0,0,1,60,10Z"/><path class="cls-2" d="M14.43,66S-25.5,106.2,27.5,112,68,84.2,68,84.2L58.92,63s9.83,25.75,4.83,33.5-31.75,8-36.25,8S4.87,96.91,4.25,93,14.43,66,14.43,66"/><path class="cls-3" d="M19.55,66S36.66,47.7,54.33,66C54.33,66,39.07,39.35,19.55,66Z"/><path class="cls-3" d="M0,91.29v9.16l5.5,9,1-2.35,2,1.17V111L19,113.79v-2.34l5.5,1.17v2.17l12.83.66v-1.66l6.67-.17v1.83l8.5-1.5v-1.33L58.92,111v2.5l6.91-5.66v-2.5l1.67-1.92v2.42l1.78-11.34S35.67,131.12,0,91.29Z"/><path class="cls-4" d="M29.21,53.2s1.79-23-3.46-42.5h0s10.75-8,26,0h0S45.5,41.2,47,53.2C47,53.2,34.43,49.7,29.21,53.2Z"/><polygon class="cls-5" points="26.6 14.17 36.94 20.62 52.33 12.95 52.33 15.79 37.83 23.29 51.21 27.62 50.66 30.94 36.94 25.29 25.83 29.79 24.83 26.79 35.49 22.95 25.83 15.95 26.6 14.17"/><polygon class="cls-5" points="26.6 29.84 36.94 36.29 52.33 28.62 52.33 31.45 37.83 38.95 51.21 43.29 50.66 46.61 36.94 40.95 25.83 45.45 24.83 42.45 35.49 38.62 25.83 31.62 26.6 29.84"/><polygon class="cls-5" points="24.96 44.34 35.3 50.79 50.69 43.12 50.69 45.95 36.19 53.45 49.57 57.79 49.02 61.11 35.3 55.45 24.19 59.95 23.19 56.95 33.85 53.12 24.19 46.12 24.96 44.34"/><polygon class="cls-5" points="24.96 61.17 35.3 67.62 50.69 59.95 50.69 62.79 36.19 70.29 49.57 74.62 49.02 77.94 35.3 72.29 24.19 76.79 23.19 73.79 33.85 69.95 24.19 62.95 24.96 61.17"/><path class="cls-3" d="M13.5,84s1.88,13,23.44,12C36.94,96,16.84,92.38,13.5,84Z"/><path class="cls-1" d="M147.79,7.91s-2.51,16-2,24.51-1.34,17.66-2.5,25c0,0,18,32,15,35s-10.43,14.5-26.21,15-35.79-9-37.29-13.5,6.47-34.5,9.5-38.5-2.35-16.5-1.92-20.5a143.65,143.65,0,0,0-1.08-27Z"/><path class="cls-2" d="M146.85,64s39.93,40.21-13.07,46-40.5-27.75-40.5-27.75l9.08-21.25s-9.83,25.75-4.83,33.5,31.75,8,36.25,8,22.63-7.54,23.25-11.5-10.18-27-10.18-27"/><path class="cls-3" d="M141.73,64S124.62,45.66,107,64C107,64,122.21,37.31,141.73,64Z"/><path class="cls-3" d="M161.28,89.25v9.17l-5.5,9-1-2.36-2,1.17v2.67l-10.5,2.83v-2.33l-5.5,1.16v2.17l-12.83.67v-1.67l-6.67-.17v1.84l-8.5-1.5v-1.34l-6.42-1.66v2.5l-6.91-5.67v-2.5l-1.67-1.92v2.42L92,92.42S125.61,129.08,161.28,89.25Z"/><path class="cls-4" d="M132.07,51.17s-1.79-23,3.46-42.5h0s-10.75-8-26,0h0s6.25,30.5,4.75,42.5C114.28,51.17,126.85,47.67,132.07,51.17Z"/><polygon class="cls-5" points="134.68 12.14 124.34 18.58 108.95 10.92 108.95 13.75 123.45 21.25 110.07 25.58 110.62 28.9 124.34 23.25 135.45 27.75 136.45 24.75 125.78 20.92 135.45 13.92 134.68 12.14"/><polygon class="cls-5" points="134.68 27.8 124.34 34.25 108.95 26.58 108.95 29.42 123.45 36.92 110.07 41.25 110.62 44.57 124.34 38.92 135.45 43.42 136.45 40.42 125.78 36.58 135.45 29.58 134.68 27.8"/><polygon class="cls-5" points="136.32 42.3 125.98 48.75 110.59 41.08 110.59 43.92 125.09 51.42 111.71 55.75 112.26 59.07 125.98 53.42 137.09 57.92 138.09 54.92 127.42 51.08 137.09 44.08 136.32 42.3"/><polygon class="cls-5" points="136.32 59.14 125.98 65.58 110.59 57.92 110.59 60.75 125.09 68.25 111.71 72.58 112.26 75.9 125.98 70.25 137.09 74.75 138.09 71.75 127.42 67.92 137.09 60.92 136.32 59.14"/><path class="cls-3" d="M147.78,81.92s-1.88,13-23.44,12C124.34,93.92,144.44,90.35,147.78,81.92Z"/></g></g></g></svg>