<svg xmlns="http://www.w3.org/2000/svg" viewBox="0 0 95.73 39.22"><defs><style>.cls-1{fill:#444;}</style></defs><title>gs1</title><g id="Layer_2" data-name="Layer 2"><g id="Girl_Shoes" data-name="Girl Shoes"><g id="SunShoes"><path class="cls-1" d="M47,23.34s-.92,10-18.75,11.45v-4.1L45.17,6.79,44.62,1,27.37,26.5,12.08,4.63l.62,6.07L26.37,30.13V34.9a70.66,70.66,0,0,1-10-.33S1.28,33.68,4.66,23.34c0,0-16.29,15.33,12,15.66S47.3,36.34,47,23.34Z"/><path class="cls-1" d="M90.35,22.13,90.21,22Z"/><path class="cls-1" d="M89.09,20.81l-.61-.64C88.68,20.38,88.88,20.6,89.09,20.81Z"/><path class="cls-1" d="M90.21,22l-1.12-1.17Z"/><path class="cls-1" d="M90.63,22.42l-.28-.29Z"/><path class="cls-1" d="M88.48,20.17l-.49-.5Z"/><path class="cls-1" d="M90.9,22.69l-.23-.23Z"/><path class="cls-1" d="M90.67,22.46l0,0Z"/><path class="cls-1" d="M86.68,18.31l-.22-.23Z"/><path class="cls-1" d="M86.46,18.08Z"/><path class="cls-1" d="M90.9,22.69s8.95,13.39-17.78,12.6l-.72,0,.3-10.77L81,7.17,81.2,0,70.54,21.33,50.58,1l-.94,6.17L70.37,24.67l-.15,10.51c-22-1.06-23.41-6.12-23.41-6.12l0,3.14S56.12,40.57,75.62,39,100.92,33.14,90.9,22.69Z"/><path class="cls-1" d="M86.75,18.38l-.07-.07Z"/><path class="cls-1" d="M88,19.67l-.11-.12Z"/><path class="cls-1" d="M87.37,19l-.62-.64Z"/><path class="cls-1" d="M87.88,19.55,87.37,19Z"/></g></g></g></svg>