<svg xmlns="http://www.w3.org/2000/svg" viewBox="0 0 92.84 66.24"><defs><style>.cls-1{fill:#999;}.cls-2{fill:#565556;}.cls-3{fill:#4f4c4f;}.cls-4{fill:#cccacc;}.cls-5{fill:#020202;}.cls-6{fill:#fff;}</style></defs><title>gs2</title><g id="Layer_2" data-name="Layer 2"><g id="Girl_Shoes" data-name="Girl Shoes"><g id="Cloudy_RainShoes" data-name="Cloudy/RainShoes"><path class="cls-1" d="M8.93,32.51S-6.94,51.72,3.64,62.27s39.69-2.64,40.42-7.91,0-20.72,0-20.72.75,15.82-4.38,19.21S21.82,67.54,4,56.62C4,56.62-1.32,50.59,8.93,32.51Z"/><path class="cls-2" d="M35.42,15.13s1.81-4,6,1.14L43,6.9s2.48,34.18.2,42.19c-1.11,3.88-9.83-4.15-9.83-4.15Z"/><path class="cls-2" d="M20,15.14S17.76,10.9,14,12.88c0,0-2.95-5.37-1.47-8.48,0,0-5.49,6.25-2.74,14.16,0,0,.91,10-.9,14,0,0-6.19,10.59-6.94,14.69l9.63-4.71S18.83,29.4,20,15.14Z"/><path class="cls-3" d="M9.59,43.79S21.14,24.22,19.12,9.34c0,0,7.69-5.5,15.88,0,0,0,2.06,27.15-1.26,36.67Z"/><path class="cls-4" d="M3.26,46s16.45-14.58,39.13,2.78c0,0,4.39,9.86-22.4,13.48C-4.1,65.52,3.26,46,3.26,46Z"/><polygon class="cls-4" points="11.62 36.81 23.24 31.76 14.78 28.37 14.78 26.45 23.24 29.87 35.54 27.25 35.44 29.13 24.54 31.63 34.42 36.81 34.06 38.21 23.58 34.02 11.62 38.02 11.62 36.81"/><polygon class="cls-4" points="13.91 25.06 25.53 20 17.07 16.61 17.07 14.7 25.53 18.12 37.83 15.5 37.73 17.38 26.83 19.88 36.71 25.06 36.35 26.45 25.87 22.26 13.91 26.27 13.91 25.06"/><path class="cls-5" d="M16.85,13.77S14,16,17.35,17.63C17.35,17.63,15.53,15.65,16.85,13.77Z"/><path class="cls-5" d="M14.17,23.65s-2.9,2.26.49,3.86C14.66,27.51,12.84,25.53,14.17,23.65Z"/><path class="cls-5" d="M11.32,35.63s-2.89,2.26.5,3.86C11.82,39.49,10,37.52,11.32,35.63Z"/><path class="cls-5" d="M34.8,35.63s3.17,2.26-.54,3.86C34.26,39.49,36.25,37.52,34.8,35.63Z"/><path class="cls-5" d="M36.6,23.65s3.17,2.26-.54,3.86C36.06,27.51,38.05,25.53,36.6,23.65Z"/><path class="cls-5" d="M38,14.7s3.17,2.26-.54,3.86C37.41,18.56,39.4,16.58,38,14.7Z"/><path class="cls-6" d="M4.37,50.15S2.73,61.86,23.13,58.69C23.13,58.69,2.81,63.56,4.37,50.15Z"/><path class="cls-2" d="M59.84,11.44s-5.09-2.59-6.83,1c0,0-6.74-5.13-7.9-12.48a129,129,0,0,1-1,36.91s.1,10.59,2.46,12.4S59.21,39,59.21,39Z"/><path class="cls-2" d="M75.62,12.94s2.59-2,5-.63c0,0-1.62-7.95-4.1-10.35S85.9,3.77,83,34l7.38,11.39L79,39.49S74.56,15.61,75.62,12.94Z"/><path class="cls-3" d="M57.94,42S60.13,12.74,59.1,8.78c0,0,8.11-4.8,16.36,0,0,0,1.06,24.48,5.68,30.46Z"/><path class="cls-1" d="M83.16,34.85s17.28,16.54,5.67,26.08S44.71,59.79,43.91,55s.59-20,.59-20-.82,14.31,4.8,17.37S68.88,65.7,88.47,55.82C88.47,55.82,94.4,51.2,83.16,34.85Z"/><path class="cls-4" d="M46.94,50.6S66,24.42,88.45,44.22c0,0,9,16.69-11.5,16.54S53.67,57.19,46.94,50.6Z"/><polygon class="cls-4" points="81.13 35.98 70.25 30.93 78.17 27.54 78.17 25.62 70.25 29.04 58.73 26.42 58.82 28.3 69.03 30.8 59.77 35.98 60.11 37.37 69.93 33.19 81.13 37.19 81.13 35.98"/><polygon class="cls-4" points="78.98 24.23 68.1 19.17 76.02 15.78 76.02 13.86 68.1 17.29 56.58 14.66 56.67 16.55 66.88 19.05 57.63 24.23 57.96 25.62 67.78 21.43 78.98 25.44 78.98 24.23"/><path class="cls-5" d="M76.23,12.94s2.71,2.26-.47,3.86C75.76,16.8,77.47,14.82,76.23,12.94Z"/><path class="cls-5" d="M78.74,22.82s2.71,2.26-.46,3.86C78.28,26.68,80,24.7,78.74,22.82Z"/><path class="cls-5" d="M81.41,34.8s2.71,2.26-.46,3.86C81,38.66,82.65,36.69,81.41,34.8Z"/><path class="cls-5" d="M59.42,34.8s-3,2.26.51,3.86C59.93,38.66,58.06,36.69,59.42,34.8Z"/><path class="cls-5" d="M57.73,22.82s-3,2.26.51,3.86C58.24,26.68,56.37,24.7,57.73,22.82Z"/><path class="cls-5" d="M56.47,13.86s-3,2.26.51,3.87C57,17.73,55.11,15.75,56.47,13.86Z"/><path class="cls-6" d="M69.18,56.9s19,3.3,18.43-9.7C87.61,47.2,90.84,61.23,69.18,56.9Z"/></g></g></g></svg>