<svg xmlns="http://www.w3.org/2000/svg" viewBox="0 0 223.2 190.72"><defs><style>.cls-1{fill:#bcd5e6;}.cls-2{font-size:13px;fill:#212227;font-family:JosefinSans-Light, Josefin Sans;}.cls-3{letter-spacing:-0.11em;}.cls-4{letter-spacing:-0.02em;}.cls-5{letter-spacing:-0.01em;}.cls-6{letter-spacing:-0.01em;}.cls-7{letter-spacing:0em;}.cls-8{letter-spacing:-0.02em;}.cls-9{letter-spacing:-0.02em;}.cls-10{letter-spacing:-0.01em;}.cls-11{letter-spacing:-0.01em;}</style></defs><title>ccD</title><g id="Layer_2" data-name="Layer 2"><g id="CcD"><path class="cls-1" d="M37.77,36.08a12,12,0,0,0-12,12V178.72a12,12,0,0,0,12,12H211.2a12,12,0,0,0,12-12V48.08a12,12,0,0,0-12-12H70.1S45.88,5.15,0,0C0,0,35.86,20.62,37.77,36.08Z"/><text class="cls-2" transform="translate(51.2 65.95)"><tspan class="cls-3">T</tspan><tspan x="6.02" y="0">encel is a functional </tspan><tspan class="cls-4" x="118.69" y="0">f</tspan><tspan x="122.6" y="0">abric </tspan><tspan x="0" y="15.6">with ma</tspan><tspan class="cls-5" x="43.94" y="15.6">n</tspan><tspan x="50.48" y="15.6">y ad</tspan><tspan class="cls-6" x="74.94" y="15.6">v</tspan><tspan x="80.68" y="15.6">antages. It is </tspan><tspan x="11.3" y="31.2">cool to </tspan><tspan class="cls-7" x="52.3" y="31.2">w</tspan><tspan x="60.88" y="31.2">ear and softer </tspan><tspan x="-5.48" y="46.8">against the skin. </tspan><tspan class="cls-3" x="86.53" y="46.8">T</tspan><tspan x="92.55" y="46.8">encel t</tspan><tspan class="cls-7" x="128.64" y="46.8">r</tspan><tspan x="133.02" y="46.8">ans</tspan><tspan x="151.73" y="46.8">-</tspan><tspan x="7.1" y="62.4">ports moistu</tspan><tspan class="cls-8" x="74.13" y="62.4">r</tspan><tspan x="78.36" y="62.4">e effecti</tspan><tspan class="cls-7" x="122.08" y="62.4">v</tspan><tspan x="127.92" y="62.4">ely </tspan><tspan x="8.4" y="78">which ma</tspan><tspan class="cls-9" x="60.4" y="78">k</tspan><tspan x="65.99" y="78">es it a per</tspan><tspan class="cls-10" x="121.57" y="78">f</tspan><tspan x="125.59" y="78">ect </tspan><tspan x="-5.47" y="93.6">choice on a </tspan><tspan class="cls-11" x="61.09" y="93.6">w</tspan><tspan x="69.65" y="93.6">arm spring day.</tspan></text></g></g></svg>