<svg xmlns="http://www.w3.org/2000/svg" viewBox="0 0 223.2 190.72"><defs><style>.cls-1{fill:#bcd5e6;}.cls-2{font-size:13px;fill:#212227;font-family:JosefinSans-Light, Josefin Sans;}.cls-3{letter-spacing:-0.01em;}.cls-4{letter-spacing:-0.02em;}.cls-5{letter-spacing:0em;}.cls-6{letter-spacing:-0.02em;}.cls-7{letter-spacing:-0.02em;}.cls-8{letter-spacing:-0.01em;}.cls-9{letter-spacing:0em;}.cls-10{letter-spacing:-0.01em;}.cls-11{letter-spacing:-0.02em;}.cls-12{letter-spacing:-0.02em;}.cls-13{letter-spacing:-0.02em;}.cls-14{letter-spacing:-0.02em;}.cls-15{letter-spacing:-0.01em;}</style></defs><title>ccU</title><g id="Layer_2" data-name="Layer 2"><g id="CcU"><path class="cls-1" d="M185.42,154.64a12,12,0,0,0,12-12V12a12,12,0,0,0-12-12H12A12,12,0,0,0,0,12V142.64a12,12,0,0,0,12,12H153.09s24.23,30.93,70.11,36.08C223.2,190.72,187.34,170.1,185.42,154.64Z"/><text class="cls-2" transform="translate(18.43 25.83)">In <tspan class="cls-3" x="14.22" y="0">w</tspan><tspan x="22.78" y="0">armer seasons li</tspan><tspan class="cls-4" x="110.68" y="0">k</tspan><tspan x="116.27" y="0">e spring </tspan><tspan class="cls-5" x="4.86" y="15.6">w</tspan><tspan x="13.44" y="15.6">e tend to s</tspan><tspan class="cls-5" x="72.02" y="15.6">w</tspan><tspan x="80.6" y="15.6">eat mo</tspan><tspan class="cls-6" x="119.39" y="15.6">r</tspan><tspan x="123.63" y="15.6">e and </tspan><tspan x="10.56" y="31.2">cotton </tspan><tspan class="cls-7" x="48.78" y="31.2">f</tspan><tspan x="52.69" y="31.2">abric absorbs this </tspan><tspan x="2.11" y="46.8">s</tspan><tspan class="cls-5" x="6.9" y="46.8">w</tspan><tspan x="15.48" y="46.8">eat and helps the body to </tspan><tspan x="11.97" y="62.4">cool d</tspan><tspan class="cls-8" x="45.31" y="62.4">o</tspan><tspan class="cls-9" x="51.92" y="62.4">wn. Cotton all</tspan><tspan class="cls-10" x="128.04" y="62.4">o</tspan><tspan x="134.65" y="62.4">ws </tspan><tspan x="0.3" y="78">better air ci</tspan><tspan class="cls-11" x="64.34" y="78">r</tspan><tspan x="68.57" y="78">culation and is a </tspan><tspan x="12.53" y="93.6">popular </tspan><tspan class="cls-7" x="59.14" y="93.6">f</tspan><tspan x="63.05" y="93.6">abric </tspan><tspan class="cls-3" x="94.61" y="93.6">kn</tspan><tspan class="cls-12" x="106.95" y="93.6">o</tspan><tspan class="cls-3" x="113.46" y="93.6">wn </tspan><tspan class="cls-13" x="132.48" y="93.6">f</tspan><tspan class="cls-3" x="136.41" y="93.6">or </tspan><tspan class="cls-3" x="18.08" y="109.2">com</tspan><tspan class="cls-14" x="40.42" y="109.2">f</tspan><tspan class="cls-15" x="44.34" y="109.2">ort, and simplici</tspan><tspan x="129.69" y="109.2">ty.</tspan></text></g></g></svg>