<?xml version="1.0" encoding="utf-8"?>
<!-- Generator: Adobe Illustrator 22.1.0, SVG Export Plug-In . SVG Version: 6.00 Build 0)  -->
<svg version="1.1" id="Layer_1" xmlns="http://www.w3.org/2000/svg" xmlns:xlink="http://www.w3.org/1999/xlink" x="0px" y="0px"
	 viewBox="0 0 183 415" style="enable-background:new 0 0 183 415;" xml:space="preserve">
<style type="text/css">
	.st0{fill:none;}
	.st1{fill:#473319;}
	.st2{fill:#684B1E;}
	.st3{fill:#5B5F72;}
	.st4{fill:#454B60;}
	.st5{fill:#42302D;}
	.st6{fill:#543D3A;}
	.st7{fill:#776843;}
	.st8{fill:#212121;}
	.st9{fill:#8C8357;}
	.st10{fill:#A39662;}
	.st11{fill:#5B4C29;}
</style>
<title>cbb</title>
<g id="Layer_2_1_">
	<g id="cbb">
		<g id="cbb-2">
			<rect class="st0" width="183" height="415"/>
			<g id="dressshoes">
				<g id="sbbshoes">
					<path class="st1" d="M53.4,377c0,0-7.5,17,9.6,18.5c0,0,15.3,0,18.3-7.2c1.5-3.6-3.9-14.6-3.9-14.6s3.8,11.3,3,12.5
						s-7.7,7.4-16.3,6.1S51.8,389.4,53.4,377"/>
					<path class="st2" d="M58.3,363.2c0,0-5.6,11.7-6.3,22c0,0,0.6,7.3,10.9,8.1s17.8-5,17.8-7.1s-5.4-22.9-5.4-22.9l-4.5,3
						c-0.5-2.2-9.4-2.7-9.6,0L58.3,363.2z"/>
					<path class="st1" d="M54,386.8c0,0,2.7-1.6,4-1.7v0.2c-1.4,0.3-2.8,0.9-4,1.7V386.8z"/>
					<path class="st1" d="M59.9,384.5c0,0,3-0.9,4.3-0.7l-0.1,0.2c-1.5,0-2.9,0.2-4.3,0.7L59.9,384.5z"/>
					<path class="st1" d="M65.4,383.5c0,0,3.1-0.7,4.3-0.4l-0.1,0.2c-1.4-0.1-2.9,0-4.3,0.4L65.4,383.5z"/>
					<path class="st1" d="M71.8,382.9c0,0,3.2-0.3,4.3,0.1l-0.1,0.2c-1.4-0.3-2.9-0.3-4.3-0.1L71.8,382.9z"/>
					<path class="st1" d="M77.5,383.3c0,0,3,1.1,3.8,2l-0.2,0.1c-1.2-0.9-2.5-1.6-3.8-2L77.5,383.3z"/>
					<path class="st1" d="M61.2,366.2l1.8,14.7C63,380.9,60.7,367.1,61.2,366.2z"/>
					<path class="st1" d="M70.7,381c0,0,0.7-13.8,0.3-14.8L70.7,381"/>
					<polyline class="st1" points="61.4,367.4 65.8,369.5 71.1,366.8 71.1,367.6 65.8,370.2 70.9,371.2 70.9,372 65.8,370.8 
						61.8,373 61.7,372.4 65.4,370.2 61.2,367.8 61.4,367.4 					"/>
					<polyline class="st1" points="61.6,372.6 66,374.8 71.3,372.1 71.4,372.9 66,375.5 71.2,376.5 71.2,377.3 66,376.1 62,378.3 
						61.9,377.7 65.6,375.5 61.4,373.1 61.6,372.6 					"/>
					<polyline class="st1" points="61.6,377.6 66,379.8 71.3,377 71.4,377.9 66,380.5 71.2,381.5 71.2,382.2 66,381.1 62,383.2 
						61.9,382.7 65.6,380.5 61.4,378 61.6,377.6 					"/>
				</g>
				<g id="sbbshoes-2">
					<path class="st1" d="M124.6,376.9c0,0,7.5,17-9.6,18.5c0,0-15.3,0-18.3-7.2c-1.5-3.6,4-14.6,4-14.6s-3.8,11.3-3,12.5
						s7.7,7.3,16.3,6.1S126.2,389.3,124.6,376.9"/>
					<path class="st2" d="M119.7,363.1c0,0,5.6,11.7,6.3,22c0,0-0.6,7.3-10.9,8s-17.8-5-17.8-7.1s5.4-22.9,5.4-22.9l4.5,3
						c0.5-2.2,9.4-2.7,9.6,0L119.7,363.1z"/>
					<path class="st1" d="M124,386.7c0,0-2.7-1.7-4-1.7v0.2c1.4,0.3,2.8,0.9,4,1.7V386.7z"/>
					<path class="st1" d="M118.1,384.4c0,0-3-0.9-4.3-0.6v0.2c1.5,0,2.9,0.2,4.3,0.6L118.1,384.4z"/>
					<path class="st1" d="M112.6,383.4c0,0-3.1-0.7-4.3-0.4l0.1,0.2c1.4-0.1,2.9,0,4.3,0.4L112.6,383.4z"/>
					<path class="st1" d="M106.2,382.8c0,0-3.2-0.3-4.3,0.1l0.1,0.2c1.4-0.3,2.9-0.3,4.3-0.1L106.2,382.8z"/>
					<path class="st1" d="M100.5,383.2c0,0-3,1-3.8,2l0.2,0.1c1.2-0.9,2.5-1.6,3.8-2L100.5,383.2z"/>
					<path class="st1" d="M116.8,366.1l-1.8,14.7C115,380.8,117.3,367.1,116.8,366.1z"/>
					<path class="st1" d="M107.3,381c0,0-0.7-13.8-0.3-14.8L107.3,381"/>
					<polyline class="st1" points="116.6,367.3 112.2,369.4 106.9,366.7 106.8,367.5 112.2,370.2 107.1,371.2 107.1,371.9 
						112.2,370.7 116.2,372.9 116.3,372.3 112.6,370.2 116.8,367.7 116.6,367.3 					"/>
					<polyline class="st1" points="116.4,372.5 112,374.7 106.7,372 106.6,372.8 112,375.5 106.8,376.5 106.8,377.2 112,376 
						116,378.2 116.1,377.6 112.4,375.5 116.6,373 116.4,372.5 					"/>
					<polyline class="st1" points="116.4,377.5 112,379.7 106.7,376.9 106.6,377.8 112,380.4 106.8,381.4 106.8,382.1 112,381 
						116,383.1 116.1,382.6 112.4,380.4 116.6,377.9 116.4,377.5 					"/>
				</g>
			</g>
			<g id="ccbshirt">
				<path class="st3" d="M69.9,5.3c0,0-35,12.7-38.3,16.6s-7.2,19.5-6.4,29.4c0,0-16.1,55-15.5,69.6l-0.9,30.7l-1.6-1.2l1.7,14.4
					c0,0,10.1,1.7,14-2.1l2.6-10.9l-1.1-0.2c0,0,14-26.9,14.2-30.7S48.2,73,48.2,73s3,17.9,2.8,21.8s1.8,32.8,1.8,32.8l-1.4,10.6
					c0,0,31.4,22.5,75-0.7l-2.6-10.3c0,0,1-26.8,0.2-34.4l6.3-16.4c0,0,8.1,48.8,14.8,62.1l8.2,12.6h-1.5l3.7,7.5
					c0,0,8.1,2.8,12.8-0.8l1.4-9.6h-1c0,0-1-38.6-2.6-43.5S155.9,57.1,153,52.1c0,0,2.3-26.1-10.4-33.4c0,0-28.7-8-35.7-12.5
					c0,0-3.3,22.5-17.6,24.1S69.9,5.3,69.9,5.3z"/>
				<g id="sbbshirt2">
					<path class="st4" d="M52.1,11.1c0,0,14.5,12.9,27.4,23c0,0,1.3,0.7,1.1,1.8c0,0,0.7-3.4,6.9-6.3C87.5,29.6,63.6,5.3,52.1,11.1z
						"/>
					<path class="st3" d="M72.2,4c-6.9,6.7,14.6,24.7,14.6,24.7l-6.4,4.6c0-4-26.9-21.3-26.7-23.3S72.2,4,72.2,4"/>
					<path class="st4" d="M125.3,12.1c-7.1,7.6-14.7,14.6-22.9,21.1c0,0-1.3,0.7-1.1,1.8c0,0-3.3-4-10.7-4
						C90.6,30.9,113.8,6.2,125.3,12.1z"/>
					<path class="st3" d="M105.1,3.5c0,0,17,5.2,19.1,8.1c0,0-20,18.7-23,21.2c-2.8-2.7-7-3.4-10.6-1.9
						C90.6,30.9,110.2,10.2,105.1,3.5z"/>
					<path class="st4" d="M86.8,28.7l1.6,119.2c0,0,2.3-0.1,2.9-0.1L90.7,33.3L86.8,28.7z"/>
					<path class="st3" d="M89.5,32.4c0,0-1.6-1.2-1.6,1.8c0,7,0.7,113.7,0.7,113.7h0.7C89.3,147.9,89.2,34.3,89.5,32.4z"/>
					<ellipse class="st5" cx="88.6" cy="36" rx="1.6" ry="1.6"/>
					<path class="st6" d="M89,34.8c0,0-1.4-0.1-1.7,0.9c-0.2,0.8,0.3,1.5,1.1,1.7c0.1,0,0.1,0,0.2,0C88.6,37.3,86.1,35.6,89,34.8z"
						/>
					<circle class="st6" cx="88.6" cy="36.1" r="0.4"/>
					<ellipse class="st5" cx="88.8" cy="49.3" rx="1.6" ry="1.6"/>
					<path class="st6" d="M89.2,48.1c0,0-1.5-0.1-1.7,0.9c-0.2,0.8,0.3,1.5,1.1,1.7c0.1,0,0.1,0,0.2,0C88.8,50.7,86.3,49,89.2,48.1z
						"/>
					<circle class="st6" cx="88.8" cy="49.4" r="0.4"/>
					<ellipse class="st5" cx="89" cy="65" rx="1.6" ry="1.6"/>
					<path class="st6" d="M89.5,63.8c0,0-1.4-0.1-1.7,0.9c-0.2,0.8,0.3,1.5,1.1,1.7c0,0,0.1,0,0.1,0C89,66.4,86.6,64.7,89.5,63.8z"
						/>
					<circle class="st6" cx="89" cy="65.1" r="0.4"/>
					<ellipse class="st5" cx="89.2" cy="78.4" rx="1.6" ry="1.6"/>
					<path class="st6" d="M89.6,77.2c0,0-1.4-0.2-1.6,0.8c-0.2,0.8,0.3,1.5,1.1,1.7c0.1,0,0.1,0,0.2,0C89.2,79.7,86.7,78,89.6,77.2z
						"/>
					<circle class="st6" cx="89.2" cy="78.5" r="0.4"/>
					<ellipse class="st5" cx="89.2" cy="91.7" rx="1.6" ry="1.6"/>
					<path class="st6" d="M89.6,90.5c0,0-1.4-0.1-1.7,0.9c-0.2,0.8,0.3,1.5,1.1,1.7c0.1,0,0.1,0,0.2,0
						C89.2,93.1,86.7,91.4,89.6,90.5z"/>
					<circle class="st6" cx="89.2" cy="91.8" r="0.4"/>
					<ellipse class="st5" cx="89.3" cy="105.1" rx="1.6" ry="1.6"/>
					<path class="st6" d="M89.8,103.8c0,0-1.4-0.1-1.7,0.9c-0.2,0.8,0.3,1.5,1.1,1.7c0.1,0,0.1,0,0.2,0
						C89.3,106.4,86.9,104.7,89.8,103.8z"/>
					<circle class="st6" cx="89.3" cy="105.2" r="0.4"/>
					<ellipse class="st5" cx="89.5" cy="115.7" rx="1.6" ry="1.6"/>
					<path class="st6" d="M90,114.5c0,0-1.4-0.1-1.7,0.9c-0.2,0.8,0.3,1.5,1.1,1.7c0.1,0,0.1,0,0.2,0C89.6,117.1,87,115.3,90,114.5z
						"/>
					<circle class="st6" cx="89.5" cy="115.8" r="0.4"/>
					<ellipse class="st5" cx="89.7" cy="129" rx="1.6" ry="1.6"/>
					<path class="st6" d="M90.1,127.8c0,0-1.4-0.1-1.7,0.9c-0.2,0.8,0.3,1.5,1.1,1.7c0.1,0,0.1,0,0.2,0
						C89.7,130.4,87.2,128.7,90.1,127.8z"/>
					<circle class="st6" cx="89.7" cy="129.1" r="0.4"/>
					<ellipse class="st5" cx="89.7" cy="143.4" rx="1.6" ry="1.6"/>
					<ellipse class="st5" cx="22.5" cy="153.6" rx="1.1" ry="1.1"/>
					<ellipse class="st5" cx="155.8" cy="153.3" rx="1.1" ry="1.1"/>
					<path class="st6" d="M90.1,142.2c0,0-1.4-0.1-1.7,0.9c-0.2,0.8,0.3,1.5,1.1,1.7c0.1,0,0.1,0,0.2,0
						C89.7,144.7,87.2,143,90.1,142.2z"/>
					<circle class="st6" cx="89.7" cy="143.5" r="0.4"/>
					<path class="st4" d="M53,51.5c0,0,11.6,5.8,20.3,2.6v17.4c0,0-10.2,7.5-11.5,7.5s-8.7-7.9-8.7-7.9L53,51.5z"/>
					<path class="st3" d="M53.5,52.9c0,0,10.5,5.2,18.3,2.4V71c0,0-9.2,6.8-10.4,6.8s-7.9-7.1-7.9-7.1L53.5,52.9z"/>
					<path class="st4" d="M124.6,51.1c0,0-11.6,5.8-20.2,2.6v17.4c0,0,10.2,7.5,11.5,7.5s8.7-7.9,8.7-7.9V51.1z"/>
					<path class="st3" d="M124.2,52.4c0,0-10.5,5.2-18.3,2.4v15.7c0,0,9.2,6.8,10.4,6.8s7.9-7.1,7.9-7.1V52.4z"/>
					<path class="st4" d="M52.9,90.1c0,0,9,16.5,20.4,22.4c0,0-15.7-7.5-20.7-20.3L52.9,90.1"/>
					<path class="st4" d="M47.6,70.6c0,0-7.1-5.2-7.5-9.2L47.6,70.6"/>
					<path class="st4" d="M127.9,69.8c0,0,6.9-4.8,6.9-7.6C134.8,62.2,134.6,68.2,127.9,69.8z"/>
					<path class="st4" d="M53.5,56c0,0,7.4,4.1,15,3.3c0,0-8.6,1.5-15-2.3V56z"/>
					<path class="st4" d="M124.2,55.5c0,0-3.9,4-13.1,3.7c0,0,7.4,2.2,13.1-2.7V55.5z"/>
					<path class="st4" d="M93,127.8c0,0-1.7,22.3,4.7,19.3C97.7,147.1,93.5,152,93,127.8z"/>
					<path class="st4" d="M33.5,20.2c0,0,14.9,7.8,15.1,19c0,0,2.5-9.5-14.3-19.5L33.5,20.2z"/>
					<path class="st4" d="M141.7,18.6c0,0-7.4,0.1-10.3,19.8c0,0,4.4-18.7,11.4-18.8L141.7,18.6z"/>
				</g>
				<path class="st4" d="M8.8,151.6c0,0,8.5,3,13.6,0C22.4,151.6,15.3,157.2,8.8,151.6z"/>
				<path class="st4" d="M156.9,150.4c0,0,10.1,1.1,11.8-3.8C168.7,146.6,169.7,152.5,156.9,150.4z"/>
			</g>
			<g id="ccbpants">
				<g id="sbbpants2">
					<g id="sbbpants">
						<path class="st7" d="M51.6,131.4c0,0,30,22.6,74.9,0c0,0,10.5,31.4,7.3,72.6s-6.9,51.6-6.9,54.6s3.4,42.9,3.4,45.9
							s-5.7,53.9-5.7,53.9s-7.8,3.3-13.2,3.8s-12.7-5.9-12.7-5.9s-7.6-56.8-6.5-66.2s3-28,2.6-35.5s-3.6-68.7-3.6-68.7l-3.8-0.5
							c0,0-2.2,59.1-4.7,68.5s0.7,22.6,1,38.7c0.1,7.4-4.4,66.5-4.4,66.5s-10.4,5-13.6,5s-12.1-7.7-12.1-7.7s-5.9-64-4.9-66.8
							s3-30.3,3-34.8s-8.4-26.3-8.9-55.1S46.8,136.1,51.6,131.4z"/>
						<path class="st8" d="M49.5,134.6c0,0-2.5,3-2,6.4c0,0,25.6,9.3,41.2,9.3c16.2,0.1,40.8-8.9,40.8-8.9s-0.3-6.1-2.4-6.8
							C127.1,134.6,96.8,153.6,49.5,134.6z"/>
						<path class="st9" d="M85.9,141.9h6.2c1.6,0,2.9,1.3,2.9,2.9v2.8c0,1.6-1.3,2.9-2.9,2.9h-6.2c-1.6,0-2.9-1.3-2.9-2.9v-2.8
							C83,143.2,84.3,141.9,85.9,141.9z"/>
						<path class="st8" d="M87.2,143.9h3.6c0.9,0,1.6,0.7,1.6,1.6v1.4c0,0.9-0.7,1.6-1.6,1.6h-3.6c-0.9,0-1.6-0.7-1.6-1.6v-1.4
							C85.6,144.6,86.3,143.9,87.2,143.9z"/>
					</g>
					<path class="st10" d="M83.8,147c0,0-1.9-5.1,4.2-4.5l0,0C88,142.5,83.3,142.9,83.8,147z"/>
					<path class="st7" d="M74.4,140.7L74.4,140.7c0.7,0,1.2,0.5,1.2,1.2v6.5c0,0.7-0.5,1.2-1.2,1.2h0c-0.7,0-1.2-0.5-1.2-1.2v-6.5
						C73.2,141.2,73.8,140.7,74.4,140.7z"/>
					<path class="st7" d="M103,141.7L103,141.7c0.7,0,1.2,0.5,1.2,1.2v6.5c0,0.7-0.5,1.2-1.2,1.2h0c-0.7,0-1.2-0.5-1.2-1.2V143
						C101.7,142.3,102.3,141.7,103,141.7z"/>
					<path class="st7" d="M126,134.5L126,134.5c0.7,0,1.2,0.5,1.2,1.2v6.5c0,0.7-0.5,1.2-1.2,1.2h0c-0.7,0-1.2-0.5-1.2-1.2v-6.5
						C124.8,135,125.4,134.5,126,134.5z"/>
					<path class="st7" d="M51.2,134.2L51.2,134.2c0.7,0,1.2,0.5,1.2,1.2v6.5c0,0.7-0.5,1.2-1.2,1.2l0,0c-0.7,0-1.2-0.5-1.2-1.2v-6.5
						C50,134.8,50.5,134.2,51.2,134.2z"/>
					<path class="st11" d="M107.3,155.2c0,0,6.7,11.8,22.6,9.3C129.9,164.5,114.2,169.9,107.3,155.2z"/>
					<path class="st11" d="M71.1,156c0,0-6.4,11.8-21.6,9.3C49.5,165.3,64.5,170.7,71.1,156z"/>
					<path class="st11" d="M85.9,158c0,0-3.2,24.5,2.9,24.2C88.8,182.2,83.9,180.9,85.9,158z"/>
				</g>
				<path class="st7" d="M52.9,349.9c0,0-3.5,3.8-0.8,6.7s9.3,6.5,12.7,7.1s12.2-3.4,14.4-4.6s4.5-7.1,0.8-8.5
					C80,350.6,63.9,358.4,52.9,349.9z"/>
				<path class="st7" d="M98.2,350.5c0,0-3.5,3.8-0.8,6.7s9.3,5.5,12.7,6.1s12.2-2.4,14.4-3.6s4.6-7.1,0.8-8.5
					C125.4,351.2,109.3,358.9,98.2,350.5z"/>
				<path class="st11" d="M53.5,350.4c0,0,3.1,6.2,14.1,4.8C67.6,355.1,57.6,355.3,53.5,350.4z"/>
				<path class="st11" d="M109.5,353.9c0,0,8.9,2.2,14.5-2.6C124,351.3,119.8,358,109.5,353.9z"/>
			</g>
		</g>
	</g>
</g>
</svg>
