<?xml version="1.0" encoding="utf-8"?>
<!-- Generator: Adobe Illustrator 22.1.0, SVG Export Plug-In . SVG Version: 6.00 Build 0)  -->
<svg version="1.1" id="Layer_1" xmlns="http://www.w3.org/2000/svg" xmlns:xlink="http://www.w3.org/1999/xlink" x="0px" y="0px"
	 viewBox="0 0 183 415" style="enable-background:new 0 0 183 415;" xml:space="preserve">
<style type="text/css">
	.st0{fill:#473319;}
	.st1{fill:#684B1E;}
	.st2{fill:#4C424F;}
	.st3{fill:#3A303D;}
	.st4{fill:#42302D;}
	.st5{fill:#543D3A;}
	.st6{fill:#212933;}
	.st7{fill:#212121;}
	.st8{fill:#8C8357;}
	.st9{fill:#A39662;}
	.st10{fill:#161B21;}
</style>
<title>cbb2</title>
<g id="Layer_2_1_">
	<g id="ccb2">
		<g id="ccb2-2">
			<g id="dressshoes">
				<g id="sbbshoes">
					<path class="st0" d="M54,378.1c0,0-7.5,16.9,9.6,18.4c0,0,15.4,0,18.3-7.2c1.5-3.6-4-14.6-4-14.6s3.8,11.2,3,12.4
						c-0.8,1.2-7.7,7.3-16.4,6.1S52.4,390.5,54,378.1"/>
					<path class="st1" d="M58.9,364.5c0,0-5.6,11.6-6.3,21.8c0,0,0.6,7.3,11,8s17.8-5,17.8-7s-5.4-22.8-5.4-22.8l-4.5,3
						c-0.5-2.2-9.4-2.7-9.7,0L58.9,364.5z"/>
					<path class="st0" d="M54.6,387.9c0,0,2.7-1.6,4-1.7v0.2c0,0-2.6,0.6-4,1.7V387.9z"/>
					<path class="st0" d="M60.5,385.6c0,0,3.1-0.9,4.3-0.7l-0.1,0.2c0,0-2.6-0.1-4.3,0.7L60.5,385.6z"/>
					<path class="st0" d="M66.1,384.6c0,0,3.1-0.7,4.3-0.4l-0.1,0.2c0,0-2.6-0.2-4.3,0.4L66.1,384.6z"/>
					<path class="st0" d="M72.4,384c0,0,3.2-0.3,4.3,0.1l-0.1,0.2c0,0-2.6-0.5-4.3-0.1L72.4,384z"/>
					<path class="st0" d="M78.2,384.4c0,0,3,1,3.9,1.9l-0.2,0.1c0,0-2.1-1.6-3.9-1.9L78.2,384.4z"/>
					<path class="st0" d="M61.9,367.4l1.7,14.6C63.6,382.1,61.3,368.4,61.9,367.4z"/>
					<path class="st0" d="M71.4,382.2c0,0,0.7-13.7,0.3-14.7L71.4,382.2"/>
					<polyline class="st0" points="62,368.6 66.4,370.7 71.8,368 71.8,368.8 66.4,371.5 71.6,372.4 71.6,373.2 66.4,372 62.4,374.2 
						62.3,373.6 66,371.5 61.8,369 62,368.6 					"/>
					<polyline class="st0" points="62.3,373.8 66.6,376 72,373.3 72,374.1 66.6,376.7 71.8,377.7 71.8,378.4 66.6,377.3 62.6,379.4 
						62.6,378.9 66.3,376.7 62,374.2 62.3,373.8 					"/>
					<polyline class="st0" points="62.3,378.8 66.6,380.9 72,378.2 72,379 66.6,381.6 71.8,382.6 71.8,383.4 66.6,382.2 62.6,384.4 
						62.6,383.8 66.3,381.6 62,379.2 62.3,378.8 					"/>
				</g>
				<g id="sbbshoes-2">
					<path class="st0" d="M125.4,377c0,0,7.5,16.9-9.6,18.4c0,0-15.4,0-18.3-7.2c-1.5-3.6,4-14.6,4-14.6s-3.8,11.2-3,12.4
						c0.8,1.2,7.7,7.3,16.4,6.1C123.5,391,127.1,389.5,125.4,377"/>
					<path class="st1" d="M120.5,363.4c0,0,5.6,11.6,6.3,21.8c0,0-0.6,7.3-11,8S98,388.3,98,386.2s5.4-22.8,5.4-22.8l4.5,3
						c0.5-2.2,9.4-2.7,9.7,0L120.5,363.4z"/>
					<path class="st0" d="M124.8,386.8c0,0-2.7-1.6-4-1.7v0.2c0,0,2.6,0.6,4,1.7V386.8z"/>
					<path class="st0" d="M118.9,384.5c0,0-3.1-0.9-4.3-0.6l0.1,0.2c0,0,2.6-0.1,4.3,0.6L118.9,384.5z"/>
					<path class="st0" d="M113.3,383.5c0,0-3.1-0.7-4.3-0.4l0.1,0.2c0,0,2.6-0.2,4.3,0.4L113.3,383.5z"/>
					<path class="st0" d="M107,383c0,0-3.2-0.3-4.3,0.1l0.1,0.2c0,0,2.6-0.5,4.3-0.1L107,383z"/>
					<path class="st0" d="M101.3,383.3c0,0-3,1.1-3.9,2l0.2,0.1c0,0,2.1-1.6,3.9-1.9L101.3,383.3z"/>
					<path class="st0" d="M117.6,366.4l-1.7,14.6C115.8,381,118.1,367.3,117.6,366.4z"/>
					<path class="st0" d="M108.1,381.1c0,0-0.7-13.7-0.3-14.7L108.1,381.1"/>
					<polyline class="st0" points="117.4,367.5 113,369.6 107.7,366.9 107.6,367.8 113,370.4 107.8,371.4 107.8,372.1 113,371 
						117,373.1 117.1,372.5 113.4,370.4 117.7,367.9 117.4,367.5 					"/>
					<polyline class="st0" points="117.2,372.8 112.8,374.9 107.4,372.2 107.4,373 112.8,375.6 107.6,376.6 107.6,377.4 
						112.8,376.2 116.8,378.3 116.9,377.8 113.2,375.6 117.4,373.2 117.2,372.8 					"/>
					<polyline class="st0" points="117.2,377.7 112.8,379.8 107.4,377.1 107.4,377.9 112.8,380.6 107.6,381.6 107.6,382.3 
						112.8,381.1 116.8,383.3 116.9,382.7 113.2,380.6 117.4,378.1 117.2,377.7 					"/>
				</g>
			</g>
			<g id="ccbshirt2">
				<path class="st2" d="M70.6,5.7c0,0-35.1,12.7-38.4,16.5c-3.3,3.8-7.3,19.4-6.4,29.3c0,0-16.2,54.7-15.5,69.2l-0.9,30.5L7.7,150
					l1.7,14.3c0,0,10.1,1.7,14-2.1l2.6-10.9l-1.2-0.2c0,0,14-26.8,14.2-30.5c0.2-3.7,9.7-47.6,9.7-47.6s3,17.8,2.8,21.7
					s1.8,32.6,1.8,32.6l-1.4,10.5c0,0,31.5,22.3,75.2-0.7l-2.7-10.3c0,0,1-26.6,0.2-34.2l6.3-16.3c0,0,8.1,48.5,14.9,61.7l8.3,12.5
					h-1.5l3.7,7.4c0,0,8.2,2.8,12.9-0.8l1.4-9.5h-1c0,0-1-38.3-2.6-43.2c-1.7-4.9-10.2-47-13.2-51.9c0,0,2.3-26-10.4-33.2
					c0,0-28.7-8-35.9-12.5c0,0-3.3,22.3-17.7,24C75.6,32.2,70.6,5.7,70.6,5.7z"/>
				<g id="sbbshirt2">
					<path class="st3" d="M52.7,11.5c0,0,14.5,12.8,27.5,22.9c0,0,1.3,0.7,1.1,1.7c0,0,0.7-3.4,6.9-6.2
						C88.2,29.9,64.2,5.7,52.7,11.5z"/>
					<path class="st2" d="M72.9,4.4C65.9,11.2,87.5,29,87.5,29L81,33.6c0-4-27-21.1-26.8-23.1S72.9,4.4,72.9,4.4"/>
					<path class="st3" d="M126.1,12.5c-7.1,7.5-14.8,14.6-23,21c0,0-1.3,0.7-1.1,1.7c0,0-3.3-3.9-10.7-3.9
						C91.4,31.3,114.6,6.7,126.1,12.5z"/>
					<path class="st2" d="M105.9,4c0,0,17,5.1,19.2,8c0,0-20,18.6-23.1,21.1c0,0-4.5-4.5-10.6-1.9C91.4,31.3,111,10.6,105.9,4z"/>
					<path class="st3" d="M87.5,29l1.6,118.4c0,0,2.3-0.1,2.9-0.1L91.4,33.6L87.5,29z"/>
					<path class="st2" d="M90.2,32.7c0,0-1.6-1.2-1.6,1.8c0,6.9,0.7,113,0.7,113H90C90,147.5,89.9,34.6,90.2,32.7z"/>
					<ellipse class="st4" cx="89.3" cy="36.3" rx="1.6" ry="1.6"/>
					<path class="st5" d="M89.7,35c0,0-1.5-0.1-1.7,0.9c-0.2,0.8,0.3,1.5,1.1,1.7c0.1,0,0.1,0,0.2,0C89.3,37.6,86.8,35.9,89.7,35z"
						/>
					<circle class="st5" cx="89.3" cy="36.4" r="0.4"/>
					<ellipse class="st4" cx="89.5" cy="49.5" rx="1.6" ry="1.6"/>
					<path class="st5" d="M89.9,48.3c0,0-1.5-0.1-1.7,0.9c-0.2,0.8,0.3,1.5,1.1,1.7c0.1,0,0.1,0,0.2,0C89.5,50.9,87,49.2,89.9,48.3z
						"/>
					<circle class="st5" cx="89.5" cy="49.6" r="0.4"/>
					<ellipse class="st4" cx="89.8" cy="65.1" rx="1.6" ry="1.6"/>
					<path class="st5" d="M90.2,63.9c0,0-1.5-0.1-1.7,0.9c-0.2,0.8,0.3,1.5,1.1,1.7c0.1,0,0.1,0,0.2,0
						C89.8,66.5,87.3,64.8,90.2,63.9z"/>
					<circle class="st5" cx="89.8" cy="65.2" r="0.4"/>
					<ellipse class="st4" cx="89.9" cy="78.4" rx="1.6" ry="1.6"/>
					<path class="st5" d="M90.4,77.2c0,0-1.4-0.1-1.7,0.9c-0.2,0.8,0.3,1.5,1.1,1.7c0.1,0,0.1,0,0.2,0C89.9,79.7,87.5,78,90.4,77.2z
						"/>
					<circle class="st5" cx="89.9" cy="78.5" r="0.4"/>
					<ellipse class="st4" cx="89.9" cy="91.7" rx="1.6" ry="1.6"/>
					<path class="st5" d="M90.3,90.4c0,0-1.5-0.1-1.7,0.9c-0.2,0.8,0.3,1.5,1.1,1.7c0.1,0,0.1,0,0.2,0C89.9,93,87.4,91.3,90.3,90.4z
						"/>
					<circle class="st5" cx="89.9" cy="91.8" r="0.4"/>
					<ellipse class="st4" cx="90.1" cy="104.9" rx="1.6" ry="1.6"/>
					<path class="st5" d="M90.5,103.7c0,0-1.5-0.1-1.7,0.9c-0.2,0.8,0.3,1.5,1.1,1.7c0.1,0,0.1,0,0.2,0
						C90.1,106.3,87.6,104.6,90.5,103.7z"/>
					<circle class="st5" cx="90.1" cy="105" r="0.4"/>
					<ellipse class="st4" cx="90.2" cy="115.5" rx="1.6" ry="1.6"/>
					<path class="st5" d="M90.7,114.3c0,0-1.5-0.1-1.7,0.9c-0.2,0.8,0.3,1.5,1.1,1.7c0.1,0,0.1,0,0.2,0
						C90.2,116.8,87.8,115.1,90.7,114.3z"/>
					<circle class="st5" cx="90.2" cy="115.6" r="0.4"/>
					<ellipse class="st4" cx="90.4" cy="128.8" rx="1.6" ry="1.6"/>
					<path class="st5" d="M90.8,127.5c0,0-1.5-0.1-1.7,0.9c-0.2,0.8,0.3,1.5,1.1,1.7c0.1,0,0.1,0,0.2,0
						C90.4,130.1,87.9,128.4,90.8,127.5z"/>
					<circle class="st5" cx="90.4" cy="128.9" r="0.4"/>
					<ellipse class="st4" cx="90.4" cy="143" rx="1.6" ry="1.6"/>
					<ellipse class="st4" cx="23" cy="153.1" rx="1.1" ry="1.1"/>
					<ellipse class="st4" cx="156.8" cy="152.9" rx="1.1" ry="1.1"/>
					<path class="st5" d="M90.9,141.8c0,0-1.5-0.1-1.7,0.9c-0.2,0.8,0.3,1.5,1.1,1.7c0.1,0,0.1,0,0.2,0
						C90.4,144.3,88,142.7,90.9,141.8z"/>
					<circle class="st5" cx="90.4" cy="143.1" r="0.4"/>
					<path class="st3" d="M53.7,51.7c0,0,11.6,5.7,20.3,2.6v17.3c0,0-10.3,7.4-11.6,7.4s-8.8-7.8-8.8-7.8V51.7z"/>
					<path class="st2" d="M54.1,53c0,0,10.5,5.2,18.4,2.4v15.6c0,0-9.3,6.7-10.5,6.7s-7.9-7.1-7.9-7.1L54.1,53z"/>
					<path class="st3" d="M125.5,51.3c0,0-11.6,5.7-20.3,2.6v17.3c0,0,10.2,7.4,11.6,7.4s8.8-7.8,8.8-7.8V51.3z"/>
					<path class="st2" d="M125,52.6c0,0-10.5,5.2-18.4,2.4v15.6c0,0,9.3,6.7,10.5,6.7c1.2,0,7.9-7.1,7.9-7.1L125,52.6z"/>
					<path class="st3" d="M53.5,90c0,0,9,16.4,20.5,22.3c0,0-15.8-7.5-20.8-20.2L53.5,90"/>
					<path class="st3" d="M48.2,70.7c0,0-7.1-5.2-7.5-9.2L48.2,70.7"/>
					<path class="st3" d="M128.7,69.9c0,0,6.9-4.8,6.9-7.6C135.7,62.3,135.5,68.3,128.7,69.9z"/>
					<path class="st3" d="M54.1,56.1c0,0,7.4,4.1,15,3.3c0,0-8.6,1.5-15-2.3V56.1z"/>
					<path class="st3" d="M125,55.7c0,0-3.9,3.9-13.2,3.7c0,0,7.4,2.2,13.2-2.6V55.7z"/>
					<path class="st3" d="M93.7,127.5c0,0-1.7,22.1,4.7,19.2C98.4,146.7,94.2,151.6,93.7,127.5z"/>
					<path class="st3" d="M34,20.5c0,0,14.9,7.8,15.2,18.9c0,0,2.5-9.4-14.4-19.4L34,20.5z"/>
					<path class="st3" d="M142.6,19c0,0-7.4,0.1-10.4,19.6c0,0,4.4-18.6,11.5-18.7L142.6,19z"/>
				</g>
				<path class="st3" d="M9.3,151.1c0,0,8.5,3,13.6,0C22.9,151.1,15.8,156.7,9.3,151.1z"/>
				<path class="st3" d="M157.8,150c0,0,10.1,1.1,11.8-3.8C169.7,146.2,170.7,152,157.8,150z"/>
			</g>
			<g id="ccbpants2">
				<g id="sbbpants2">
					<g id="sbbpants">
						<path class="st6" d="M52,131c0,0,30.1,22.7,75.1,0c0,0,10.5,31.5,7.3,72.8s-6.9,51.7-6.9,54.7c0,3,3.5,43,3.5,46
							c0,3-5.7,53.9-5.7,53.9s-7.8,3.3-13.3,3.8c-5.5,0.5-12.7-5.9-12.7-5.9s-7.6-56.9-6.6-66.3c1.1-9.4,3.1-28.1,2.6-35.6
							c-0.5-7.5-3.6-68.9-3.6-68.9l-3.8-0.5c0,0-2.2,59.2-4.7,68.6s0.7,22.6,1,38.8c0.1,7.4-4.5,66.6-4.5,66.6s-10.4,5-13.6,5
							s-12.1-7.7-12.1-7.7s-5.9-64.1-5-66.9s3-30.3,3-34.8s-8.4-26.4-8.9-55.2C42.4,170.7,47.2,135.7,52,131z"/>
						<path class="st7" d="M49.8,134.3c0,0-2.5,3-2,6.4c0,0,25.7,9.3,41.3,9.4c16.3,0.1,40.9-8.9,40.9-8.9s-0.3-6.2-2.4-6.9
							C127.7,134.3,97.3,153.3,49.8,134.3z"/>
						<path class="st8" d="M84.9,141.6h9.2c0.8,0,1.4,0.6,1.4,1.4v5.8c0,0.8-0.6,1.4-1.4,1.4h-9.2c-0.8,0-1.4-0.6-1.4-1.4V143
							C83.5,142.2,84.1,141.6,84.9,141.6z"/>
						<path class="st7" d="M86.9,143.6h5.3c0.4,0,0.8,0.4,0.8,0.8v3c0,0.4-0.4,0.8-0.8,0.8h-5.3c-0.4,0-0.8-0.4-0.8-0.8v-3
							C86.1,143.9,86.5,143.6,86.9,143.6z"/>
					</g>
					<path class="st9" d="M84.3,146.7c0,0-1.9-5.2,4.2-4.5l0,0C88.5,142.2,83.8,142.5,84.3,146.7z"/>
					<path class="st6" d="M74.4,140.3h1c0.4,0,0.7,0.3,0.7,0.7v7.5c0,0.4-0.3,0.7-0.7,0.7h-1c-0.4,0-0.7-0.3-0.7-0.7V141
						C73.7,140.6,74,140.3,74.4,140.3z"/>
					<path class="st6" d="M103,141.4h1c0.4,0,0.7,0.3,0.7,0.7v7.5c0,0.4-0.3,0.7-0.7,0.7h-1c-0.4,0-0.7-0.3-0.7-0.7v-7.5
						C102.3,141.7,102.6,141.4,103,141.4z"/>
					<path class="st6" d="M126.2,134.1h1c0.4,0,0.7,0.3,0.7,0.7v7.5c0,0.4-0.3,0.7-0.7,0.7h-1c-0.4,0-0.7-0.3-0.7-0.7v-7.5
						C125.4,134.5,125.8,134.1,126.2,134.1z"/>
					<path class="st6" d="M51.1,133.9h1c0.4,0,0.7,0.3,0.7,0.7v7.5c0,0.4-0.3,0.7-0.7,0.7h-1c-0.4,0-0.7-0.3-0.7-0.7v-7.5
						C50.3,134.2,50.7,133.9,51.1,133.9z"/>
					<path class="st10" d="M107.9,154.9c0,0,6.7,11.8,22.7,9.3C130.5,164.2,114.8,169.6,107.9,154.9z"/>
					<path class="st10" d="M71.5,155.7c0,0-6.4,11.8-21.6,9.3C49.9,165,64.9,170.4,71.5,155.7z"/>
					<path class="st10" d="M86.4,157.6c0,0-3.2,24.5,2.9,24.3C89.3,181.9,84.4,180.6,86.4,157.6z"/>
				</g>
				<path class="st6" d="M53.3,349.9c0,0-3.5,3.8-0.8,6.7s9.4,6.5,12.7,7.1c3.3,0.6,12.3-3.4,14.5-4.6s4.6-7.1,0.9-8.5
					C80.5,350.7,64.3,358.4,53.3,349.9z"/>
				<path class="st6" d="M98.8,350.5c0,0-3.5,3.8-0.8,6.7c2.7,2.9,9.4,5.5,12.7,6.1c3.3,0.6,12.3-2.4,14.5-3.6s4.6-7.1,0.9-8.5
					C126,351.2,109.8,359,98.8,350.5z"/>
				<path class="st10" d="M53.9,350.4c0,0,3.1,6.3,14.1,4.8C68,355.2,58,355.3,53.9,350.4z"/>
				<path class="st10" d="M110.1,353.9c0,0,9,2.2,14.5-2.6C124.6,351.3,120.4,358,110.1,353.9z"/>
			</g>
		</g>
	</g>
</g>
</svg>
