<svg xmlns="http://www.w3.org/2000/svg" viewBox="0 0 264.02 790.55"><defs><style>.cls-1{fill:#ce706e;}.cls-2{fill:#c15d5d;}.cls-3{fill:#616b7a;}.cls-4{fill:#474f59;}.cls-5{fill:#737e8c;}.cls-6{fill:#565556;}.cls-7{fill:#4f4c4f;}.cls-8{fill:#cccacc;}.cls-9{fill:#999;}.cls-10{fill:#fcfcfc;}</style></defs><title>ccb</title><g id="Layer_2" data-name="Layer 2"><g id="ccb"><g id="ccb-2" data-name="ccb"><g id="ccbshirt"><path class="cls-1" d="M96.3.69s38,26.65,71.43-.69c0,0,18.33,10.63,59.89,22.65S263.48,74.37,264,96l-46,41.51-1.72-3.74s-16.54,105.63-6.81,130.6c0,0-39.86,25.67-77.43,24.37S56,268,56,268s8.8-84.49-7.48-140.29L49,134,0,101S3,51.34,15.42,37.34,93.61,3.16,96.3.69Z"/><path class="cls-2" d="M94,3.63l-6.11,6L94,4.66l1,1.11L91.49,11l4.28-4.94V8.4l1-1.75,1.46.68L96.35,11l2.9-3.34L101.87,9l-1.31,1.51,2.32-1.35-1.88,3,2.76-2.71.72.08-2,4.86,3-4.62,2.32.95-1.15,3.67,2.17-3.43v2l1-1.83,2.33.71L109.72,16l3.47-4-1,3.1,2.32-2.7,2.18.47-1,2.23,2-2.07,4.21.87S102.77,10.15,94,3.63Z"/><path class="cls-2" d="M168.05,3l6.79,5.56L168.11,4l-1,1.18,4.06,5-4.81-4.66.14,2.31-1.17-1.69-1.49.77,2.21,3.57-3.25-3.15-2.68,1.44,1.47,1.43L159.08,9l2.17,2.9-3.06-2.52-.76.12,2.43,4.72-3.49-4.41L154,10.89l1.44,3.58-2.5-3.28.12,2-1.18-1.77-2.4.87,2.85,4-3.9-3.75,1.26,3-2.61-2.55-2.26.62,1.2,2.15-2.26-1.93L139.37,15S159.27,10,168.05,3Z"/><path class="cls-2" d="M98.51,12.26s36.66,19.26,68.66,0C167.17,12.26,139.17,35.85,98.51,12.26Z"/><path class="cls-2" d="M52,133.5S84.14,148,98.33,147L83.16,268s1.67-95.5-8-105.5S52,133.5,52,133.5Z"/><path class="cls-2" d="M89.85,276.39s2.76-35.06,6.54-36.06,6.38,39.61,6.38,39.61Z"/><path class="cls-2" d="M205.17,112l12.67,20s17.43-13.46,19.14-16.34c3.19-5.39-18.47,13.67-18.47,13.67Z"/><path class="cls-2" d="M68,75.5l-12,39S71.51,87,68,75.5Z"/></g><g id="ccbpants"><path class="cls-3" d="M56,268s72.84,40.59,153.68-3.63c0,0,36.76,100.11,5.79,207.13,0,0-10.06,88.5-1.38,110.5s-16.69,121.8-12.69,128.9-.24,25.78-.24,25.78-9.6-11.13-21.79-8.68c0,0-22.16-.16-25.44,7.68s2-35.81,0-49S143.62,588.07,149.62,557c6.39-33-13.74-94.94-12.24-133s-3.57-58-3.57-58-13.37,145.53-11.76,162.26,5.41,140.74,0,166.74-8.41,37.78-8.41,37.78-13.73-2.48-21.39.87-20.17,13.11-29.94,9.73c0,0-9.6-12.7,0-29.53S59.54,689,52,651s4.51-103.47,4-122.74-26.37-121-18.53-153.58S31,294.5,56,268Z"/><path class="cls-4" d="M89.85,297S80.51,328.22,52,334.86C52,334.86,90.69,343.5,89.85,297Z"/><path class="cls-4" d="M180,297s9.34,31.22,37.84,37.86C217.86,334.86,179.18,343.5,180,297Z"/><path class="cls-5" d="M56,268s73.15,39.37,153.68-3.63l6,20.1s-76.48,32.25-170.1.64A29,29,0,0,1,56,268Z"/><path class="cls-4" d="M139,294.45s-2-7-7-.5c0,0-32,21.5-27.5,30.5s27-14.75,27-25.38a6.43,6.43,0,0,0,1.53,1.25c-1.05,8.64-4.58,33.38-11.15,40.36v5.5s12-16.19,13.49-45.31h0c.08,1.49,2.67,48.48,13.5,58.81h6s-11-.7-16.5-58.85l-1.21-.85a5.77,5.77,0,0,0,.83-.91s9.5,28.87,19.5,27.37C157.47,326.44,164,308.45,139,294.45ZM108,321.7c-1.75-2.5,19.5-21,19.5-21C127.47,310.2,109.72,324.2,108,321.7Zm46.5.29c-3.76.78-13.75-21.29-13.75-21.29C148.72,303.2,158.22,321.21,154.47,322Z"/><path class="cls-4" d="M122.76,288.79s-5.32,2.52,0,5.21C122.76,294,114.76,291.58,122.76,288.79Z"/><path class="cls-4" d="M146,288.58s5,2.52,0,5.2C146,293.78,153.45,291.37,146,288.58Z"/><path class="cls-3" d="M97.87,282.83s-18.77-.94-32.19-7.06a84.81,84.81,0,0,1-10.32-5.49l-5.68,10.65,6.53-9.23-4.8,10,6.44-9L54,281.79l5.24-8.25-1.67,9.27,3.56-8.19-1,7,3.44-5.92-.55,8.05,2.24-7.19-.93,13L68,277.75l1.51,2.63,2.51-1,1.34,2.69.87-2L77,282.17l.67-1.52Z"/><path class="cls-3" d="M159.15,283.56s20.9-2.84,35.85-10.45a107.76,107.76,0,0,0,11.52-6.66l6.27,10.33L205.56,268l5.29,9.72-7.12-8.56,4.24,8.94-5.79-7.91L204,279.5l-3.92-8,1,7.06-3.8-5.71.57,8.18-2.45-7.13,1,13.25-4-11.76-1.7,2.84-2.78-.79-1.5,2.88-1-1.95-3.08,2.45-.73-1.5Z"/><path class="cls-4" d="M60.92,716.53s6.39,9.74,18.25,1c23.79-17.6,24.67-3.67,27-1s-1-8.5-9.66-10.84-12.34,11-21.34,8-9.49-9.6-9.49-9.6S63.73,716.38,60.92,716.53Z"/><path class="cls-4" d="M122.05,695s-13.29-6.75-20.54-3.25,18,.67,19.27,10.08h0l1.27-6.83"/><path class="cls-4" d="M154,731.16s4.2-15.83,23.54-11.5,16.33-3.33,16.33-3.33-5.67,3.33-16.67,0-21.88,7.41-21.88,7.41L154,731.16"/><path class="cls-4" d="M211.63,639s-9.79,51-31.46,43c0,0,23.58,16.7,31.46-43"/></g><g id="ccbshoes"><path class="cls-6" d="M74.09,744l3.46,2.44h0l.5-6.33c8-8.88,21.5,0,21.5,0l1.7,5.68,6.69,2-1.16-7.7c19.59,29.87,8.48,36.42,8.48,36.42-32.79,27.54-52.78,3.67-56.12-1.71C54.38,767.11,67.22,743,67.22,743Z"/><path class="cls-6" d="M158.73,728.33s-9.1,29.2-8.25,37.07.06,25,33.06,20.26,29.59-12.84,23.18-22.84-9.79-11.4-9.78-18.29,4.14-9.09,4.11-12.93S195,738,195,738l-4.41,2.11.5-8.54s-13-7.34-19.5,0l-2.5,4.52h-7.78l-3.22-4.52"/><path class="cls-7" d="M78.05,740.07l-3.16,25.82h24l2.39-20.14-1.7-5.68S86.22,731.53,78.05,740.07Z"/><path class="cls-7" d="M169.05,736.12s-2.33,5.56,3.33,29.77l26.44,2.52s-8.69-26.51-8.27-28.27a75.39,75.39,0,0,0,.5-8.54s-16.5-10.46-22,4.52"/><path class="cls-8" d="M62.23,776.23s22.83-30.61,54.83-1.06C117.06,775.17,86.42,805.1,62.23,776.23Z"/><path class="cls-8" d="M154.31,775.45s24.54-27.8,56.54,1.74C210.85,777.19,170.3,798.94,154.31,775.45Z"/><path class="cls-9" d="M63.24,752.12s-29.19,34.24,24.37,38.43c0,0,50.41-3.37,24.56-41.49h0s20.85,37.4-24.56,36.6c-42.26-.76-24.37-33.54-24.37-33.54"/><path class="cls-9" d="M152.57,750.84s-17,43.64,31,37.12,23.07-23.39,23.07-23.39,13.44,16.87-21.06,18.87S154.31,778.65,152.57,750.84Z"/><polygon class="cls-8" points="196.96 762.04 184.21 756.11 193.49 752.14 193.49 749.9 184.21 753.91 170.71 750.83 170.82 753.04 182.78 755.97 171.94 762.04 172.33 763.67 183.84 758.76 196.96 763.45 196.96 762.04"/><polygon class="cls-8" points="194.44 748.27 181.69 742.34 190.97 738.37 190.97 736.12 181.69 740.13 168.2 737.06 168.31 739.27 180.27 742.2 169.43 748.27 169.82 749.9 181.32 744.99 194.44 749.68 194.44 748.27"/><polygon class="cls-8" points="76.02 753.55 87.57 747.86 78.41 746.28 78.2 744.73 87.37 746.34 99.89 742.53 99.99 744.07 88.91 747.58 99.75 750.42 99.52 751.6 88.17 749.64 76.15 754.53 76.02 753.55"/><polygon class="cls-8" points="74.89 763.38 86.44 757.7 77.28 756.11 77.08 754.56 86.24 756.17 98.76 752.36 98.86 753.9 87.78 757.42 98.61 760.26 98.39 761.43 87.04 759.48 75.02 764.36 74.89 763.38"/><path class="cls-10" d="M68.05,775s3.79,11.43,25.5,6.47C93.55,781.45,71.05,782,68.05,775Z"/><path class="cls-10" d="M183.54,778.84s17.92,2.58,18.7-8.4C202.24,770.44,191,781.74,183.54,778.84Z"/></g></g></g></g></svg>