<svg xmlns="http://www.w3.org/2000/svg" viewBox="0 0 183 415"><defs><style>.cls-1{fill:none;}.cls-2{fill:#616b7a;}.cls-3{fill:#474f59;}.cls-4{fill:#737e8c;}.cls-5{fill:#ce706e;}.cls-6{fill:#c15d5d;}.cls-7{fill:#565556;}.cls-8{fill:#4f4c4f;}.cls-9{fill:#cccacc;}.cls-10{fill:#999;}.cls-11{fill:#fcfcfc;}</style></defs><title>ccb</title><g id="Layer_2" data-name="Layer 2"><g id="ccb"><g id="ccb-2" data-name="ccb"><rect class="cls-1" width="183" height="415"/><g id="ccbpants"><path class="cls-2" d="M51,135.33s36,20.14,75.91-1.81c0,0,18.15,49.7,2.85,102.82,0,0-5,43.92-.68,54.84s-8.24,60.46-6.26,64-.12,12.79-.12,12.79-4.74-5.52-10.77-4.31c0,0-10.94-.08-12.56,3.82s1-17.78,0-24.33-5.12-48.94-2.15-64.37c3.15-16.38-6.79-47.12-6-66S89.39,184,89.39,184s-6.6,72.23-5.81,80.54,2.67,69.86,0,82.76S79.43,366,79.43,366s-6.78-1.23-10.57.43-10,6.51-14.79,4.83c0,0-4.74-6.31,0-14.66s-1.36-12.34-5.07-31.2,2.22-51.36,2-60.92-13-60.06-9.16-76.23S38.61,148.48,51,135.33Z"/><path class="cls-3" d="M67.68,149.72s-4.62,15.5-18.7,18.79C49,168.51,68.09,172.8,67.68,149.72Z"/><path class="cls-3" d="M112.22,149.72s4.61,15.5,18.69,18.79C130.91,168.51,111.8,172.8,112.22,149.72Z"/><path class="cls-4" d="M51,135.33s36.13,19.54,75.91-1.81l3,10s-37.78,16-84,.32A14.43,14.43,0,0,1,51,135.33Z"/><path class="cls-3" d="M91.94,148.45s-1-3.47-3.46-.25c0,0-15.81,10.68-13.58,15.14S88.23,156,88.23,150.75a3.31,3.31,0,0,0,.76.62c-.52,4.29-2.26,16.57-5.51,20v2.73s5.92-8,6.67-22.49h0c0,.74,1.32,24.07,6.67,29.19h3s-5.43-.35-8.15-29.21L91,151.2a2.6,2.6,0,0,0,.4-.45s4.7,14.33,9.64,13.58C101.08,164.33,104.29,155.4,91.94,148.45ZM76.63,162c-.87-1.24,9.63-10.42,9.63-10.42C86.26,156.27,77.49,163.22,76.63,162Zm23,.14c-1.85.39-6.79-10.56-6.79-10.56C96.75,152.8,101.45,161.74,99.59,162.12Z"/><path class="cls-3" d="M83.93,145.65s-2.63,1.25,0,2.58C83.93,148.23,80,147,83.93,145.65Z"/><path class="cls-3" d="M95.4,145.54s2.46,1.25,0,2.58C95.4,148.12,99.09,146.93,95.4,145.54Z"/><path class="cls-2" d="M71.64,142.69s-9.28-.47-15.9-3.51a40.46,40.46,0,0,1-5.1-2.72l-2.81,5.28,3.23-4.58-2.37,5,3.18-4.46L50,142.17l2.59-4.09-.83,4.6,1.76-4.07L53,142.08l1.7-2.93-.27,4,1.11-3.56-.46,6.47,1.8-5.88.75,1.3,1.24-.5.66,1.33.43-1,1.36,1.05.33-.75Z"/><path class="cls-2" d="M101.91,143.05s10.32-1.41,17.71-5.19a53.24,53.24,0,0,0,5.68-3.3l3.1,5.12-3.57-4.36,2.61,4.83-3.51-4.25,2.09,4.44-2.86-3.93.9,4.62-1.94-4,.51,3.51-1.87-2.84.28,4.06-1.21-3.53.48,6.57-2-5.84-.83,1.41-1.38-.39-.74,1.43-.47-1-1.52,1.21-.36-.74Z"/><path class="cls-3" d="M53.39,358s3.15,4.84,9,.48c11.75-8.73,12.19-1.82,13.34-.5s-.49-4.22-4.78-5.37-6.09,5.45-10.53,4-4.69-4.77-4.69-4.77S54.77,357.88,53.39,358Z"/><path class="cls-3" d="M83.58,347.27s-6.56-3.35-10.15-1.61,8.92.33,9.52,5h0l.63-3.4"/><path class="cls-3" d="M99.35,365.22s2.07-7.86,11.62-5.7,8.07-1.66,8.07-1.66-2.8,1.66-8.23,0S100,361.54,100,361.54l-.65,3.68"/><path class="cls-3" d="M127.83,319.49s-4.84,25.3-15.54,21.33c0,0,11.65,8.29,15.54-21.33"/></g><g id="ccbshirt"><path class="cls-5" d="M70.86,2.64s18.76,13.23,35.28-.34c0,0,9.06,5.28,29.59,11.24s17.71,25.68,18,36.41L131,70.56l-.85-1.86s-8.17,52.43-3.36,64.82c0,0-19.69,12.75-38.25,12.1S51,135.33,51,135.33s4.35-41.94-3.69-69.64l.23,3.13L23.29,52.44s1.49-24.65,7.62-31.61S69.54,3.87,70.86,2.64Z"/><path class="cls-6" d="M69.75,4.1l-3,3,3-2.46.49.56L68.49,7.78,70.6,5.32V6.47l.5-.87.72.34-.93,1.83,1.43-1.66,1.29.63L73,7.49l1.14-.67-.93,1.5L74.55,7l.35,0-1,2.41,1.51-2.29,1.14.47L76,9.43l1.08-1.7v1l.5-.9,1.15.35-1.22,2.09,1.72-2-.5,1.54,1.14-1.35,1.08.24-.5,1.11,1-1,2.08.43S74.06,7.34,69.75,4.1Z"/><path class="cls-6" d="M106.3,3.76l3.36,2.76-3.32-2.25-.49.59,2,2.49L105.48,5l.07,1.14L105,5.35l-.73.38,1.09,1.77-1.61-1.56-1.32.71.72.71-1.25-.6L103,8.2,101.43,7l-.37.06,1.2,2.34-1.72-2.19-1.18.55.71,1.77L98.84,7.86l.06,1L98.31,8l-1.18.42,1.41,2L96.61,8.55l.62,1.5L95.94,8.78l-1.12.31.6,1.07-1.12-1-2.16.57S102,7.28,106.3,3.76Z"/><path class="cls-6" d="M72,8.39s18.11,9.56,33.92,0C105.87,8.39,92,20.1,72,8.39Z"/><path class="cls-6" d="M49,68.56s15.88,7.2,22.88,6.71l-7.49,60.06s.82-47.41-4-52.37S49,68.56,49,68.56Z"/><path class="cls-6" d="M67.68,139.49s1.36-17.4,3.23-17.9,3.15,19.66,3.15,19.66Z"/><path class="cls-6" d="M124.64,57.89l6.26,9.93s8.61-6.68,9.45-8.11c1.58-2.67-9.12,6.79-9.12,6.79Z"/><path class="cls-6" d="M56.89,39.78,51,59.13S58.62,45.48,56.89,39.78Z"/></g><g id="ccbshoes"><path class="cls-7" d="M59.89,371.58l1.71,1.2h0l.25-3.14c3.95-4.4,10.62,0,10.62,0l.83,2.83,3.31,1L76,369.64c9.68,14.83,4.19,18.08,4.19,18.08-16.2,13.67-26.07,1.82-27.72-.85-2.35-3.81,4-15.77,4-15.77Z"/><path class="cls-7" d="M101.7,363.82s-4.5,14.49-4.07,18.4,0,12.39,16.33,10,14.61-6.37,11.44-11.33-4.83-5.66-4.82-9.08,2-4.51,2-6.42-3,3.19-3,3.19l-2.17,1.05.24-4.24s-6.42-3.65-9.63,0l-1.23,2.25H103l-1.6-2.25"/><path class="cls-8" d="M61.85,369.64l-1.56,12.82H72.13l1.17-10-.83-2.83S65.88,365.4,61.85,369.64Z"/><path class="cls-8" d="M106.8,367.69s-1.16,2.75,1.64,14.77l13.06,1.25s-4.29-13.16-4.08-14a36.69,36.69,0,0,0,.24-4.24s-8.15-5.19-10.86,2.25"/><path class="cls-9" d="M54,387.6s11.27-15.2,27.07-.54C81.11,387.06,66,401.92,54,387.6Z"/><path class="cls-9" d="M99.52,387.21s12.12-13.8,27.92.86C127.44,388.07,107.41,398.87,99.52,387.21Z"/><path class="cls-10" d="M54.53,375.63s-14.42,17,12,19.07c0,0,24.9-1.67,12.13-20.59h0S89,392.67,66.57,392.27c-20.88-.37-12-16.64-12-16.64"/><path class="cls-10" d="M98.66,375s-8.42,21.66,15.3,18.42,11.39-11.6,11.39-11.6,6.64,8.37-10.4,9.36S99.52,388.8,98.66,375Z"/><polygon class="cls-9" points="120.58 380.55 114.28 377.61 118.87 375.64 118.87 374.52 114.28 376.51 107.62 374.99 107.67 376.08 113.58 377.54 108.22 380.55 108.42 381.36 114.1 378.92 120.58 381.25 120.58 380.55"/><polygon class="cls-9" points="119.34 373.71 113.04 370.77 117.63 368.8 117.63 367.69 113.04 369.68 106.38 368.15 106.43 369.25 112.34 370.7 106.98 373.71 107.18 374.52 112.86 372.08 119.34 374.42 119.34 373.71"/><polygon class="cls-9" points="60.84 376.34 66.55 373.51 62.02 372.73 61.92 371.95 66.45 372.75 72.64 370.86 72.68 371.63 67.21 373.37 72.56 374.78 72.45 375.37 66.84 374.4 60.91 376.82 60.84 376.34"/><polygon class="cls-9" points="60.29 381.22 65.99 378.39 61.47 377.61 61.37 376.84 65.89 377.64 72.08 375.74 72.13 376.51 66.65 378.25 72 379.67 71.9 380.25 66.29 379.28 60.35 381.7 60.29 381.22"/><path class="cls-11" d="M56.91,387s1.87,5.68,12.59,3.21C69.5,390.18,58.39,390.46,56.91,387Z"/><path class="cls-11" d="M114,388.89s8.85,1.28,9.23-4.17C123.19,384.72,117.66,390.33,114,388.89Z"/></g></g></g></g></svg>