<svg xmlns="http://www.w3.org/2000/svg" viewBox="0 0 183 414.88"><defs><style>.cls-1{fill:none;}.cls-2{fill:#473319;}.cls-3{fill:#684b1e;}.cls-4{fill:#4c424f;}.cls-5{fill:#3a303d;}.cls-6{fill:#42302d;}.cls-7{fill:#543d3a;}.cls-8{fill:#212933;}.cls-9{fill:#212121;}.cls-10{fill:#8c8357;}.cls-11{fill:#a39662;}.cls-12{fill:#161b21;}</style></defs><title>ccb2</title><g id="Layer_2" data-name="Layer 2"><g id="ccb2"><g id="ccb2-2" data-name="ccb2"><rect class="cls-1" width="183" height="414.88"/><g id="dressshoes"><g id="sbbshoes"><path class="cls-2" d="M53.41,378.8s-7.48,17,9.56,18.53c0,0,15.31,0,18.27-7.2,1.48-3.59-3.95-14.64-3.95-14.64s3.8,11.31,3,12.51S72.6,395.35,64,394.1s-12.21-2.81-10.55-15.3"/><path class="cls-3" d="M58.31,365.07S52.7,376.76,52,387c0,0,.57,7.31,10.94,8s17.77-5,17.78-7.09-5.37-22.93-5.37-22.93l-4.51,3c-.49-2.23-9.38-2.73-9.63,0Z"/><path class="cls-2" d="M54,388.64s2.72-1.65,4-1.73v.21a12.38,12.38,0,0,0-4,1.74Z"/><path class="cls-2" d="M59.89,386.35s3-.89,4.26-.65l-.05.21a12.27,12.27,0,0,0-4.27.65Z"/><path class="cls-2" d="M65.44,385.31s3.1-.7,4.3-.38l-.07.2a12.45,12.45,0,0,0-4.29.39Z"/><path class="cls-2" d="M71.76,384.75s3.16-.33,4.31.13l-.09.19a12.61,12.61,0,0,0-4.32-.13Z"/><path class="cls-2" d="M77.46,385.11s3,1.06,3.85,2l-.16.14a12.53,12.53,0,0,0-3.85-2Z"/><path class="cls-2" d="M61.24,368.05,63,382.77S60.68,369,61.24,368.05Z"/><path class="cls-2" d="M70.7,382.9s.74-13.8.31-14.82L70.7,382.9"/><polyline class="cls-2" points="61.37 369.2 65.75 371.36 71.1 368.63 71.14 369.45 65.75 372.1 70.92 373.1 70.92 373.84 65.75 372.68 61.76 374.83 61.69 374.27 65.38 372.1 61.15 369.62 61.37 369.2"/><polyline class="cls-2" points="61.62 374.49 66 376.65 71.34 373.92 71.38 374.74 66 377.39 71.17 378.38 71.17 379.13 66 377.97 62.01 380.12 61.93 379.56 65.62 377.39 61.4 374.91 61.62 374.49"/><polyline class="cls-2" points="61.62 379.45 66 381.61 71.34 378.88 71.38 379.7 66 382.35 71.17 383.34 71.17 384.09 66 382.93 62.01 385.07 61.93 384.52 65.62 382.35 61.4 379.87 61.62 379.45"/></g><g id="sbbshoes-2" data-name="sbbshoes"><path class="cls-2" d="M124.58,377.72s7.48,17-9.56,18.52c0,0-15.31,0-18.27-7.19-1.48-3.59,4-14.64,4-14.64s-3.8,11.31-3,12.51,7.65,7.34,16.29,6.1,12.2-2.82,10.55-15.3"/><path class="cls-3" d="M119.68,364s5.61,11.69,6.28,22c0,0-.57,7.31-10.94,8.05s-17.77-5-17.78-7.09S102.61,364,102.61,364l4.51,3c.49-2.24,9.38-2.73,9.63,0Z"/><path class="cls-2" d="M124,387.56s-2.72-1.65-4-1.74V386a12.38,12.38,0,0,1,4,1.74Z"/><path class="cls-2" d="M118.1,385.26s-3-.89-4.26-.65l0,.21a12.54,12.54,0,0,1,4.27.65Z"/><path class="cls-2" d="M112.55,384.23s-3.1-.7-4.3-.38l.07.2a12.34,12.34,0,0,1,4.29.38Z"/><path class="cls-2" d="M106.23,383.66s-3.16-.32-4.31.14l.09.19a12.34,12.34,0,0,1,4.32-.13Z"/><path class="cls-2" d="M100.52,384s-3,1.05-3.84,2l.16.14a12.3,12.3,0,0,1,3.85-2Z"/><path class="cls-2" d="M116.75,367,115,381.69S117.31,367.92,116.75,367Z"/><path class="cls-2" d="M107.29,381.82S106.55,368,107,367l.31,14.82"/><polyline class="cls-2" points="116.62 368.12 112.24 370.27 106.89 367.55 106.85 368.37 112.24 371.02 107.07 372.01 107.07 372.76 112.24 371.6 116.23 373.74 116.3 373.19 112.61 371.02 116.84 368.54 116.62 368.12"/><polyline class="cls-2" points="116.37 373.41 111.99 375.56 106.65 372.84 106.61 373.66 111.99 376.31 106.82 377.3 106.82 378.05 111.99 376.89 115.98 379.03 116.06 378.48 112.37 376.31 116.59 373.83 116.37 373.41"/><polyline class="cls-2" points="116.37 378.37 111.99 380.52 106.65 377.79 106.61 378.62 111.99 381.27 106.82 382.26 106.82 383 111.99 381.85 115.98 383.99 116.06 383.44 112.37 381.27 116.59 378.79 116.37 378.37"/></g></g><g id="ccbshirt2"><path class="cls-4" d="M69.91,6.23S34.89,19,31.6,22.78,24.36,42.3,25.18,52.23c0,0-16.14,55-15.48,69.58l-.9,30.65L7.23,151.3l1.7,14.37s10.05,1.71,14-2.11l2.6-10.93-1.15-.17s14-26.91,14.16-30.65,9.71-47.92,9.71-47.92,3,17.87,2.8,21.84,1.81,32.75,1.81,32.75L51.48,139s31.35,22.47,75-.74L123.81,128s1-26.79.16-34.4l6.26-16.38s8.07,48.8,14.82,62l8.23,12.57H151.8l3.73,7.46s8.14,2.82,12.82-.83l1.42-9.61h-1s-1-38.54-2.64-43.5S155.91,58,153,53.05c0,0,2.3-26.13-10.37-33.41,0,0-28.67-8-35.74-12.53,0,0-3.3,22.45-17.63,24.11S69.91,6.23,69.91,6.23Z"/><g id="sbbshirt2"><path class="cls-5" d="M52.07,12S66.55,24.91,79.48,35c0,0,1.28.69,1.11,1.76,0,0,.72-3.38,6.89-6.28C87.48,30.51,63.6,6.22,52.07,12Z"/><path class="cls-4" d="M72.19,4.9c-6.94,6.8,14.56,24.75,14.56,24.75L80.3,34.29c0-4-26.87-21.26-26.74-23.26S72.19,4.9,72.19,4.9"/><path class="cls-5" d="M125.29,13A206.94,206.94,0,0,1,102.41,34.1s-1.28.69-1.11,1.76c0,0-3.3-4-10.66-4C90.64,31.89,113.76,7.21,125.29,13Z"/><path class="cls-4" d="M105.09,4.48s17,5.15,19.13,8.09c0,0-20,18.74-23,21.22a9.79,9.79,0,0,0-10.58-1.9S110.23,11.13,105.09,4.48Z"/><path class="cls-5" d="M86.75,29.65,88.37,148.8s2.34-.11,2.9-.12L90.71,34.29Z"/><path class="cls-4" d="M89.52,33.31s-1.64-1.17-1.64,1.81c0,6.94.71,113.67.71,113.67h.73S89.19,35.25,89.52,33.31Z"/><ellipse class="cls-6" cx="88.59" cy="36.94" rx="1.59" ry="1.6"/><path class="cls-7" d="M89,35.71s-1.45-.14-1.67.86a1.41,1.41,0,0,0,1.24,1.71S86.12,36.57,89,35.71Z"/><circle class="cls-7" cx="88.59" cy="37.04" r="0.37"/><ellipse class="cls-6" cx="88.76" cy="50.27" rx="1.59" ry="1.6"/><path class="cls-7" d="M89.19,49s-1.45-.13-1.67.87a1.41,1.41,0,0,0,1.24,1.71S86.29,49.91,89.19,49Z"/><circle class="cls-7" cx="88.76" cy="50.38" r="0.37"/><ellipse class="cls-6" cx="89.04" cy="65.98" rx="1.59" ry="1.6"/><path class="cls-7" d="M89.47,64.75s-1.44-.14-1.66.87A1.4,1.4,0,0,0,89,67.32S86.57,65.62,89.47,64.75Z"/><circle class="cls-7" cx="89.04" cy="66.08" r="0.37"/><ellipse class="cls-6" cx="89.21" cy="79.31" rx="1.59" ry="1.6"/><path class="cls-7" d="M89.64,78.08S88.2,78,88,79a1.41,1.41,0,0,0,1.24,1.71S86.74,79,89.64,78.08Z"/><circle class="cls-7" cx="89.21" cy="79.42" r="0.37"/><ellipse class="cls-6" cx="89.17" cy="92.65" rx="1.59" ry="1.6"/><path class="cls-7" d="M89.6,91.42s-1.45-.13-1.67.87A1.4,1.4,0,0,0,89.17,94S86.7,92.29,89.6,91.42Z"/><circle class="cls-7" cx="89.17" cy="92.75" r="0.37"/><ellipse class="cls-6" cx="89.34" cy="105.99" rx="1.59" ry="1.6"/><path class="cls-7" d="M89.77,104.76s-1.45-.14-1.67.87a1.4,1.4,0,0,0,1.24,1.7S86.86,105.63,89.77,104.76Z"/><circle class="cls-7" cx="89.34" cy="106.09" r="0.37"/><ellipse class="cls-6" cx="89.51" cy="116.63" rx="1.59" ry="1.6"/><path class="cls-7" d="M90,115.4s-1.45-.14-1.67.87a1.4,1.4,0,0,0,1.23,1.7S87,116.27,90,115.4Z"/><circle class="cls-7" cx="89.51" cy="116.73" r="0.37"/><ellipse class="cls-6" cx="89.68" cy="129.96" rx="1.59" ry="1.6"/><path class="cls-7" d="M90.11,128.73s-1.44-.13-1.67.87a1.41,1.41,0,0,0,1.24,1.71S87.21,129.6,90.11,128.73Z"/><circle class="cls-7" cx="89.68" cy="130.07" r="0.37"/><ellipse class="cls-6" cx="89.71" cy="144.31" rx="1.59" ry="1.6"/><ellipse class="cls-6" cx="22.51" cy="154.46" rx="1.09" ry="1.1"/><ellipse class="cls-6" cx="155.83" cy="154.25" rx="1.09" ry="1.1"/><path class="cls-7" d="M90.14,143.08s-1.45-.14-1.67.87a1.41,1.41,0,0,0,1.24,1.7S87.23,144,90.14,143.08Z"/><circle class="cls-7" cx="89.71" cy="144.41" r="0.37"/><path class="cls-5" d="M53.05,52.49s11.61,5.78,20.25,2.64V72.54S63.09,80,61.77,80s-8.72-7.87-8.72-7.87Z"/><path class="cls-4" d="M53.53,53.81S64,59,71.84,56.2V71.94s-9.24,6.77-10.43,6.77-7.88-7.11-7.88-7.11Z"/><path class="cls-5" d="M124.62,52.05s-11.6,5.77-20.25,2.64v17.4s10.22,7.5,11.53,7.5,8.72-7.87,8.72-7.87Z"/><path class="cls-4" d="M124.15,53.37s-10.5,5.22-18.31,2.38V71.49s9.24,6.78,10.42,6.78,7.89-7.11,7.89-7.11Z"/><path class="cls-5" d="M52.87,91s9,16.48,20.43,22.44c0,0-15.71-7.54-20.73-20.31l.3-2.13"/><path class="cls-5" d="M47.58,71.54s-7.12-5.24-7.45-9.21l7.45,9.21"/><path class="cls-5" d="M127.89,70.76s6.91-4.79,6.91-7.61C134.8,63.15,134.64,69.11,127.89,70.76Z"/><path class="cls-5" d="M53.53,56.89s7.37,4.09,15,3.29c0,0-8.58,1.55-15-2.36Z"/><path class="cls-5" d="M124.15,56.45s-3.86,4-13.12,3.73c0,0,7.4,2.23,13.12-2.67Z"/><path class="cls-5" d="M93,128.73S91.32,151,97.67,148C97.67,148,93.48,153,93,128.73Z"/><path class="cls-5" d="M33.47,21.12s14.89,7.79,15.14,19c0,0,2.48-9.49-14.31-19.52Z"/><path class="cls-5" d="M141.68,19.6s-7.37,0-10.33,19.73c0,0,4.42-18.69,11.43-18.77Z"/></g><path class="cls-5" d="M8.8,152.46s8.48,3,13.58,0C22.38,152.46,15.32,158.09,8.8,152.46Z"/><path class="cls-5" d="M156.92,151.3s10.12,1.08,11.8-3.8C168.72,147.5,169.7,153.37,156.92,151.3Z"/></g><g id="ccbpants2"><g id="sbbpants2"><g id="sbbpants"><path class="cls-8" d="M51.35,134.23s30,22.63,74.87,0c0,0,10.49,31.43,7.28,72.62s-6.92,51.61-6.92,54.59,3.46,42.92,3.46,45.9-5.68,53.83-5.68,53.83-7.76,3.33-13.24,3.82-12.67-5.86-12.67-5.86S90.84,302.37,91.92,293s3-28,2.56-35.48-3.63-68.73-3.63-68.73l-3.78-.5s-2.22,59-4.69,68.48.73,22.56,1,38.71c.12,7.4-4.44,66.49-4.44,66.49s-10.38,5-13.59,5-12.1-7.69-12.1-7.69-5.93-64-4.94-66.74,3-30.27,3-34.74-8.4-26.3-8.89-55.08S46.58,139,51.35,134.23Z"/><path class="cls-9" d="M49.23,137.49s-2.46,2.95-2,6.34c0,0,25.58,9.26,41.21,9.34,16.24.09,40.81-8.84,40.81-8.84s-.25-6.15-2.36-6.84C126.9,137.49,96.54,156.44,49.23,137.49Z"/><rect class="cls-10" x="82.77" y="144.76" width="12.04" height="8.64" rx="2.9" ry="2.9"/><rect class="cls-9" x="85.38" y="146.78" width="6.81" height="4.6" rx="1.59" ry="1.59"/></g><path class="cls-11" d="M83.61,149.86s-1.91-5.15,4.2-4.47h0S83.05,145.7,83.61,149.86Z"/><rect class="cls-8" x="72.98" y="143.53" width="2.43" height="8.97" rx="1.22" ry="1.22"/><rect class="cls-8" x="101.51" y="144.6" width="2.43" height="8.97" rx="1.22" ry="1.22"/><rect class="cls-8" x="124.6" y="137.36" width="2.43" height="8.97" rx="1.22" ry="1.22"/><rect class="cls-8" x="49.75" y="137.1" width="2.43" height="8.97" rx="1.22" ry="1.22"/><path class="cls-12" d="M107.07,158.05s6.67,11.75,22.6,9.27C129.67,167.32,114,172.77,107.07,158.05Z"/><path class="cls-12" d="M70.83,158.86s-6.37,11.74-21.58,9.26C49.25,168.12,64.23,173.57,70.83,158.86Z"/><path class="cls-12" d="M85.67,160.8S82.43,185.26,88.58,185C88.58,185,83.66,183.74,85.67,160.8Z"/></g><path class="cls-8" d="M52.64,352.73s-3.51,3.83-.84,6.69,9.33,6.45,12.67,7.07,12.23-3.43,14.45-4.57,4.54-7.12.85-8.47C79.77,353.45,63.67,361.17,52.64,352.73Z"/><path class="cls-8" d="M98,353.28s-3.52,3.84-.85,6.69,9.34,5.46,12.67,6.08,12.23-2.44,14.45-3.58,4.55-7.12.85-8.47C125.13,354,109,361.72,98,353.28Z"/><path class="cls-12" d="M53.26,353.17s3.1,6.25,14.07,4.76C67.33,357.93,57.36,358.1,53.26,353.17Z"/><path class="cls-12" d="M109.3,356.7s8.93,2.23,14.46-2.61C123.76,354.09,119.55,360.8,109.3,356.7Z"/></g></g></g></g></svg>