<svg xmlns="http://www.w3.org/2000/svg" viewBox="0 0 183 417.48"><defs><style>.cls-1{fill:none;}.cls-2{fill:#473319;}.cls-3{fill:#684b1e;}.cls-4{fill:#4c424f;}.cls-5{fill:#3a303d;}.cls-6{fill:#42302d;}.cls-7{fill:#543d3a;}.cls-8{fill:#212933;}.cls-9{fill:#212121;}.cls-10{fill:#8c8357;}.cls-11{fill:#a39662;}.cls-12{fill:#161b21;}</style></defs><title>ccb2</title><g id="Layer_2" data-name="Layer 2"><g id="ccb2"><g id="ccb2-2" data-name="ccb2"><rect class="cls-1" y="2.48" width="183" height="415"/><g id="dressshoes"><g id="sbbshoes"><path class="cls-2" d="M53.41,378.43S45.93,395.47,63,397c0,0,15.31,0,18.27-7.2,1.48-3.59-3.95-14.64-3.95-14.64s3.8,11.31,3,12.51S72.6,395,64,393.73s-12.21-2.81-10.55-15.3"/><path class="cls-3" d="M58.31,364.69s-5.61,11.7-6.28,22c0,0,.57,7.31,10.94,8.05s17.77-5,17.78-7.09-5.37-22.94-5.37-22.94l-4.51,3c-.49-2.23-9.38-2.73-9.63,0Z"/><path class="cls-2" d="M54,388.27s2.72-1.65,4-1.73v.21a12.38,12.38,0,0,0-4,1.74Z"/><path class="cls-2" d="M59.89,386s3-.9,4.26-.66l-.05.21a12.38,12.38,0,0,0-4.27.66Z"/><path class="cls-2" d="M65.44,384.94s3.1-.7,4.3-.38l-.07.2a12.45,12.45,0,0,0-4.29.39Z"/><path class="cls-2" d="M71.76,384.37s3.16-.32,4.31.14l-.09.19a12.34,12.34,0,0,0-4.32-.13Z"/><path class="cls-2" d="M77.46,384.74s3,1.06,3.85,2l-.16.14a12.3,12.3,0,0,0-3.85-2Z"/><path class="cls-2" d="M61.24,367.67,63,382.4S60.68,368.63,61.24,367.67Z"/><path class="cls-2" d="M70.7,382.53s.74-13.8.31-14.82l-.31,14.82"/><polyline class="cls-2" points="61.37 368.82 65.75 370.98 71.1 368.25 71.14 369.08 65.75 371.73 70.92 372.72 70.92 373.46 65.75 372.31 61.76 374.45 61.69 373.9 65.38 371.73 61.15 369.25 61.37 368.82"/><polyline class="cls-2" points="61.62 374.12 66 376.27 71.34 373.54 71.38 374.37 66 377.02 71.17 378.01 71.17 378.75 66 377.6 62.01 379.74 61.93 379.19 65.62 377.02 61.4 374.54 61.62 374.12"/><polyline class="cls-2" points="61.62 379.07 66 381.23 71.34 378.5 71.38 379.33 66 381.98 71.17 382.97 71.17 383.71 66 382.56 62.01 384.7 61.93 384.15 65.62 381.98 61.4 379.5 61.62 379.07"/></g><g id="sbbshoes-2" data-name="sbbshoes"><path class="cls-2" d="M124.58,377.34s7.48,17.05-9.56,18.53c0,0-15.31,0-18.27-7.19-1.48-3.59,4-14.65,4-14.65s-3.8,11.31-3,12.52,7.65,7.34,16.29,6.1,12.2-2.82,10.55-15.31"/><path class="cls-3" d="M119.68,363.61s5.61,11.69,6.28,22c0,0-.57,7.31-10.94,8.05s-17.77-5-17.78-7.09,5.37-22.94,5.37-22.94l4.51,3c.49-2.23,9.38-2.73,9.63,0Z"/><path class="cls-2" d="M124,387.19s-2.72-1.66-4-1.74v.22a12.38,12.38,0,0,1,4,1.74Z"/><path class="cls-2" d="M118.1,384.89s-3-.89-4.26-.65l0,.21a12.54,12.54,0,0,1,4.27.65Z"/><path class="cls-2" d="M112.55,383.86s-3.1-.7-4.3-.39l.07.21a12.34,12.34,0,0,1,4.29.38Z"/><path class="cls-2" d="M106.23,383.29s-3.16-.32-4.31.13l.09.2a12.34,12.34,0,0,1,4.32-.13Z"/><path class="cls-2" d="M100.52,383.66s-3,1-3.84,2l.16.14a12.3,12.3,0,0,1,3.85-2Z"/><path class="cls-2" d="M116.75,366.59,115,381.31S117.31,367.54,116.75,366.59Z"/><path class="cls-2" d="M107.29,381.45s-.74-13.81-.31-14.83l.31,14.83"/><polyline class="cls-2" points="116.62 367.74 112.24 369.9 106.89 367.17 106.85 368 112.24 370.64 107.07 371.64 107.07 372.38 112.24 371.22 116.23 373.37 116.3 372.81 112.61 370.64 116.84 368.16 116.62 367.74"/><polyline class="cls-2" points="116.37 373.03 111.99 375.19 106.65 372.46 106.61 373.29 111.99 375.93 106.82 376.93 106.82 377.67 111.99 376.51 115.98 378.66 116.06 378.1 112.37 375.93 116.59 373.45 116.37 373.03"/><polyline class="cls-2" points="116.37 377.99 111.99 380.15 106.65 377.42 106.61 378.25 111.99 380.89 106.82 381.89 106.82 382.63 111.99 381.47 115.98 383.62 116.06 383.06 112.37 380.89 116.59 378.41 116.37 377.99"/></g></g><g id="ccbshirt2"><path class="cls-4" d="M68.91,1.75S33.89,14.5,30.6,18.31s-7.24,19.52-6.42,29.45c0,0-16.14,55-15.48,69.6L7.8,148l-1.57-1.16,1.7,14.36s10.05,1.72,14-2.1l2.6-10.94L23.36,148s14-26.92,14.16-30.67,9.71-47.93,9.71-47.93,3,17.87,2.8,21.84S51.84,124,51.84,124L50.48,134.6s31.35,22.48,75-.75l-2.64-10.31s1-26.81.16-34.42l6.26-16.38s8.07,48.81,14.82,62.05l8.23,12.57H150.8l3.73,7.46s8.14,2.82,12.82-.83l1.42-9.6h-1s-1-38.56-2.64-43.52S154.91,53.55,152,48.59c0,0,2.3-26.14-10.37-33.42,0,0-28.67-8-35.74-12.54,0,0-3.3,22.46-17.63,24.12S68.91,1.75,68.91,1.75Z"/><g id="sbbshirt2"><path class="cls-5" d="M51.07,7.55s14.48,12.89,27.41,23c0,0,1.28.69,1.11,1.76,0,0,.72-3.38,6.89-6.28C86.48,26,62.6,1.74,51.07,7.55Z"/><path class="cls-4" d="M71.19.42c-6.94,6.8,14.56,24.76,14.56,24.76L79.3,29.82c0-4-26.87-21.26-26.74-23.26S71.19.42,71.19.42"/><path class="cls-5" d="M124.29,8.54a207.56,207.56,0,0,1-22.88,21.09s-1.28.69-1.11,1.76c0,0-3.3-4-10.66-4C89.64,27.42,112.76,2.73,124.29,8.54Z"/><path class="cls-4" d="M104.09,0s17,5.15,19.13,8.09c0,0-20,18.75-23,21.23a9.79,9.79,0,0,0-10.58-1.9S109.23,6.65,104.09,0Z"/><path class="cls-5" d="M85.75,25.18l1.62,119.18s2.34-.11,2.9-.12L89.71,29.82Z"/><path class="cls-4" d="M88.52,28.83s-1.64-1.16-1.64,1.82c0,7,.71,113.7.71,113.7h.73S88.19,30.78,88.52,28.83Z"/><ellipse class="cls-6" cx="87.59" cy="32.47" rx="1.59" ry="1.6"/><path class="cls-7" d="M88,31.24s-1.45-.14-1.67.86a1.41,1.41,0,0,0,1.24,1.71S85.12,32.1,88,31.24Z"/><circle class="cls-7" cx="87.59" cy="32.57" r="0.37"/><ellipse class="cls-6" cx="87.76" cy="45.81" rx="1.59" ry="1.6"/><path class="cls-7" d="M88.19,44.58s-1.45-.14-1.67.87a1.41,1.41,0,0,0,1.24,1.7S85.29,45.45,88.19,44.58Z"/><circle class="cls-7" cx="87.76" cy="45.91" r="0.37"/><ellipse class="cls-6" cx="88.04" cy="61.52" rx="1.59" ry="1.6"/><path class="cls-7" d="M88.47,60.29s-1.44-.14-1.66.86A1.4,1.4,0,0,0,88,62.86S85.57,61.15,88.47,60.29Z"/><circle class="cls-7" cx="88.04" cy="61.62" r="0.37"/><ellipse class="cls-6" cx="88.21" cy="74.86" rx="1.59" ry="1.6"/><path class="cls-7" d="M88.64,73.63s-1.44-.14-1.67.86a1.41,1.41,0,0,0,1.24,1.71S85.74,74.49,88.64,73.63Z"/><circle class="cls-7" cx="88.21" cy="74.96" r="0.37"/><ellipse class="cls-6" cx="88.17" cy="88.2" rx="1.59" ry="1.6"/><path class="cls-7" d="M88.6,87s-1.45-.14-1.67.86a1.41,1.41,0,0,0,1.24,1.71S85.7,87.83,88.6,87Z"/><circle class="cls-7" cx="88.17" cy="88.3" r="0.37"/><ellipse class="cls-6" cx="88.34" cy="101.54" rx="1.59" ry="1.6"/><path class="cls-7" d="M88.77,100.31s-1.45-.14-1.67.86a1.4,1.4,0,0,0,1.24,1.71S85.86,101.17,88.77,100.31Z"/><circle class="cls-7" cx="88.34" cy="101.64" r="0.37"/><ellipse class="cls-6" cx="88.51" cy="112.18" rx="1.59" ry="1.6"/><path class="cls-7" d="M89,111s-1.45-.13-1.67.87a1.39,1.39,0,0,0,1.23,1.7S86,111.82,89,111Z"/><circle class="cls-7" cx="88.51" cy="112.28" r="0.37"/><ellipse class="cls-6" cx="88.68" cy="125.52" rx="1.59" ry="1.6"/><path class="cls-7" d="M89.11,124.29s-1.44-.13-1.67.87a1.4,1.4,0,0,0,1.24,1.7S86.21,125.16,89.11,124.29Z"/><circle class="cls-7" cx="88.68" cy="125.62" r="0.37"/><ellipse class="cls-6" cx="88.71" cy="139.87" rx="1.59" ry="1.6"/><ellipse class="cls-6" cx="21.51" cy="150.02" rx="1.09" ry="1.1"/><ellipse class="cls-6" cx="154.83" cy="149.82" rx="1.09" ry="1.1"/><path class="cls-7" d="M89.14,138.64s-1.45-.14-1.67.87a1.41,1.41,0,0,0,1.24,1.7S86.23,139.51,89.14,138.64Z"/><circle class="cls-7" cx="88.71" cy="139.97" r="0.37"/><path class="cls-5" d="M52.05,48S63.66,53.8,72.3,50.67V68.08s-10.21,7.49-11.53,7.49-8.72-7.87-8.72-7.87Z"/><path class="cls-4" d="M52.53,49.35S63,54.57,70.84,51.73V67.48s-9.24,6.77-10.43,6.77-7.88-7.11-7.88-7.11Z"/><path class="cls-5" d="M123.62,47.58s-11.6,5.78-20.25,2.64V67.63s10.22,7.5,11.53,7.5,8.72-7.87,8.72-7.87Z"/><path class="cls-4" d="M123.15,48.9s-10.5,5.23-18.31,2.39V67s9.24,6.78,10.42,6.78,7.89-7.11,7.89-7.11Z"/><path class="cls-5" d="M51.87,86.55S60.88,103,72.3,109c0,0-15.71-7.54-20.73-20.32l.3-2.12"/><path class="cls-5" d="M46.58,67.08s-7.12-5.24-7.45-9.22l7.45,9.22"/><path class="cls-5" d="M126.89,66.3s6.91-4.8,6.91-7.61C133.8,58.69,133.64,64.65,126.89,66.3Z"/><path class="cls-5" d="M52.53,52.42s7.37,4.1,15,3.29c0,0-8.58,1.55-15-2.35Z"/><path class="cls-5" d="M123.15,52s-3.86,4-13.12,3.72c0,0,7.4,2.24,13.12-2.66Z"/><path class="cls-5" d="M92,124.28s-1.66,22.27,4.69,19.29C96.67,143.57,92.48,148.51,92,124.28Z"/><path class="cls-5" d="M32.47,16.65s14.89,7.79,15.14,19c0,0,2.48-9.49-14.31-19.53Z"/><path class="cls-5" d="M140.68,15.12s-7.37.06-10.33,19.75c0,0,4.42-18.71,11.43-18.79Z"/></g><path class="cls-5" d="M7.8,148s8.48,3,13.58,0C21.38,148,14.32,153.65,7.8,148Z"/><path class="cls-5" d="M155.92,146.87s10.12,1.07,11.8-3.81C167.72,143.06,168.7,148.94,155.92,146.87Z"/></g><g id="ccbpants2"><g id="sbbpants2"><g id="sbbpants"><path class="cls-8" d="M51.35,133.79s30,22.63,74.87,0c0,0,10.49,31.44,7.28,72.64s-6.92,51.62-6.92,54.6S130,304,130,306.94s-5.68,53.85-5.68,53.85-7.76,3.33-13.24,3.82-12.67-5.86-12.67-5.86-7.61-56.77-6.53-66.2,3-28.05,2.56-35.49-3.63-68.75-3.63-68.75l-3.78-.49s-2.22,59.06-4.69,68.49.73,22.57,1,38.72c.12,7.4-4.44,66.51-4.44,66.51s-10.38,5-13.59,5-12.1-7.7-12.1-7.7-5.93-64-4.94-66.76,3-30.28,3-34.74-8.4-26.31-8.89-55.1S46.58,138.51,51.35,133.79Z"/><path class="cls-9" d="M49.23,137.05s-2.46,2.95-2,6.34c0,0,25.58,9.26,41.21,9.35,16.24.09,40.81-8.85,40.81-8.85s-.25-6.15-2.36-6.84C126.9,137.05,96.54,156,49.23,137.05Z"/><rect class="cls-10" x="82.77" y="144.32" width="12.04" height="8.64" rx="2.9" ry="2.9"/><rect class="cls-9" x="85.38" y="146.34" width="6.81" height="4.61" rx="1.59" ry="1.59"/></g><path class="cls-11" d="M83.61,149.42s-1.91-5.15,4.2-4.46h0S83.05,145.27,83.61,149.42Z"/><rect class="cls-8" x="72.98" y="143.09" width="2.43" height="8.97" rx="1.22" ry="1.22"/><rect class="cls-8" x="101.51" y="144.16" width="2.43" height="8.97" rx="1.22" ry="1.22"/><rect class="cls-8" x="124.6" y="136.91" width="2.43" height="8.97" rx="1.22" ry="1.22"/><rect class="cls-8" x="49.75" y="136.66" width="2.43" height="8.97" rx="1.22" ry="1.22"/><path class="cls-12" d="M107.07,157.62s6.67,11.75,22.6,9.27C129.67,166.89,114,172.34,107.07,157.62Z"/><path class="cls-12" d="M70.83,158.42s-6.37,11.75-21.58,9.27C49.25,167.69,64.23,173.14,70.83,158.42Z"/><path class="cls-12" d="M85.67,160.37s-3.24,24.47,2.91,24.22C88.58,184.59,83.66,183.31,85.67,160.37Z"/></g><path class="cls-8" d="M52.64,352.35s-3.51,3.83-.84,6.69,9.33,6.45,12.67,7.07,12.23-3.43,14.45-4.57,4.54-7.12.85-8.47C79.77,353.07,63.67,360.79,52.64,352.35Z"/><path class="cls-8" d="M98,352.9s-3.52,3.84-.85,6.69,9.34,5.46,12.67,6.08,12.23-2.44,14.45-3.58,4.55-7.12.85-8.47C125.13,353.62,109,361.34,98,352.9Z"/><path class="cls-12" d="M53.26,352.79s3.1,6.25,14.07,4.76C67.33,357.55,57.36,357.72,53.26,352.79Z"/><path class="cls-12" d="M109.3,356.32s8.93,2.23,14.46-2.61C123.76,353.71,119.55,360.42,109.3,356.32Z"/></g></g></g></g></svg>