<svg xmlns="http://www.w3.org/2000/svg" viewBox="0 0 183 415"><defs><style>.cls-1{fill:none;}.cls-2{fill:#e5dcdc;}.cls-3{fill:#efefef;}.cls-4{fill:#333;}.cls-5{fill:#2d2d2d;}.cls-6{fill:#5b5b5b;}.cls-7{fill:#111;}.cls-8{fill:#565556;}.cls-9{fill:#4f4c4f;}.cls-10{fill:#cccacc;}.cls-11{fill:#999;}.cls-12{fill:#fcfcfc;}</style></defs><title>ccb2</title><g id="Layer_2" data-name="Layer 2"><g id="ccb2"><g id="ccb2-2" data-name="ccb2"><rect class="cls-1" width="183" height="415"/><g id="ccbshirt2"><path class="cls-2" d="M70.86,2.64s18.76,13.23,35.28-.34c0,0,9.06,5.28,29.59,11.24s17.71,25.68,18,36.41L131,70.56l-.85-1.86s-8.17,52.43-3.36,64.82c0,0-19.69,12.75-38.25,12.1S51,135.33,51,135.33s4.35-41.94-3.69-69.64l.23,3.13L23.29,52.44s1.49-24.65,7.62-31.61S69.54,3.87,70.86,2.64Z"/><path class="cls-3" d="M69.75,4.1l-3,3,3-2.46.49.56L68.49,7.78,70.6,5.32V6.47l.5-.87.72.34-.93,1.83,1.43-1.66,1.29.63L73,7.49l1.14-.67-.93,1.5L74.55,7l.35,0-1,2.41,1.51-2.29,1.14.47L76,9.43l1.08-1.7v1l.5-.9,1.15.35-1.22,2.09,1.72-2-.5,1.54,1.14-1.35,1.08.24-.5,1.11,1-1,2.08.43S74.06,7.34,69.75,4.1Z"/><path class="cls-3" d="M106.3,3.76l3.36,2.76-3.32-2.25-.49.59,2,2.49L105.48,5l.07,1.14L105,5.35l-.73.38,1.09,1.77-1.61-1.56-1.32.71.72.71-1.25-.6L103,8.2,101.43,7l-.37.06,1.2,2.34-1.72-2.19-1.18.55.71,1.77L98.84,7.86l.06,1L98.31,8l-1.18.42,1.41,2L96.61,8.55l.62,1.5L95.94,8.78l-1.12.31.6,1.07-1.12-1-2.16.57S102,7.28,106.3,3.76Z"/><path class="cls-3" d="M72,8.39s18.11,9.56,33.92,0C105.87,8.39,92,20.1,72,8.39Z"/><path class="cls-3" d="M49,68.56s15.88,7.2,22.88,6.71l-7.49,60.06s.82-47.41-4-52.37S49,68.56,49,68.56Z"/><path class="cls-3" d="M67.68,139.49s1.36-17.4,3.23-17.9,3.15,19.66,3.15,19.66Z"/><path class="cls-3" d="M124.64,57.89l6.26,9.93s8.61-6.68,9.45-8.11c1.58-2.67-9.12,6.79-9.12,6.79Z"/><path class="cls-3" d="M56.89,39.78,51,59.13S58.62,45.48,56.89,39.78Z"/></g><g id="ccbpants2"><path class="cls-4" d="M51,135.4s36,20.15,75.91-1.8c0,0,18.16,49.69,2.86,102.81,0,0-5,43.93-.68,54.85s-8.25,60.46-6.27,64-.12,12.8-.12,12.8-4.74-5.53-10.76-4.31c0,0-11-.08-12.57,3.81s1-17.77,0-24.33-5.11-48.94-2.14-64.36c3.15-16.38-6.79-47.12-6-66S89.41,184,89.41,184s-6.61,72.24-5.81,80.55,2.67,69.85,0,82.76-4.16,18.75-4.16,18.75-6.78-1.23-10.56.43-10,6.51-14.79,4.83c0,0-4.74-6.3,0-14.66S52.72,344.37,49,325.51s2.23-51.36,2-60.92-13-60.07-9.15-76.23S38.62,148.55,51,135.4Z"/><path class="cls-5" d="M67.69,149.8S63.08,165.29,49,168.59C49,168.59,68.11,172.88,67.69,149.8Z"/><path class="cls-5" d="M112.23,149.8s4.62,15.49,18.69,18.79C130.92,168.59,111.82,172.88,112.23,149.8Z"/><path class="cls-5" d="M51,135.4S87.12,155,126.9,133.6l3,10s-37.77,16-84,.31A14.41,14.41,0,0,1,51,135.4Z"/><path class="cls-6" d="M92,148.53s-1-3.48-3.45-.25c0,0-15.81,10.67-13.59,15.14s13.34-7.32,13.34-12.59a3.31,3.31,0,0,0,.76.62c-.52,4.28-2.27,16.57-5.51,20v2.73s5.92-8,6.66-22.49h0c0,.74,1.32,24.06,6.66,29.19h3s-5.44-.35-8.15-29.21l-.6-.42a3,3,0,0,0,.41-.45s4.69,14.32,9.63,13.58C101.09,164.41,104.3,155.48,92,148.53ZM76.64,162.05c-.86-1.24,9.63-10.42,9.63-10.42C86.27,156.35,77.51,163.3,76.64,162.05Zm23,.15c-1.86.39-6.79-10.57-6.79-10.57C96.77,152.87,101.47,161.81,99.61,162.2Z"/><path class="cls-7" d="M84,145.72s-2.63,1.25,0,2.59C84,148.31,80,147.11,84,145.72Z"/><path class="cls-7" d="M95.42,145.62s2.45,1.25,0,2.58C95.42,148.2,99.11,147,95.42,145.62Z"/><path class="cls-6" d="M71.65,142.76s-9.27-.46-15.9-3.5a42.55,42.55,0,0,1-5.1-2.73l-2.8,5.29,3.23-4.58-2.37,4.95,3.18-4.47L50,142.25l2.59-4.1-.82,4.61,1.76-4.07L53,142.16l1.7-2.94-.27,4,1.1-3.57-.45,6.48,1.8-5.89.75,1.31,1.23-.51.67,1.33.43-1,1.36,1.05.32-.76Z"/><path class="cls-6" d="M101.92,143.12s10.32-1.4,17.71-5.18a51.78,51.78,0,0,0,5.69-3.31l3.1,5.13-3.57-4.36,2.61,4.82L123.94,136l2.1,4.43-2.86-3.92.89,4.62-1.93-4,.51,3.5-1.88-2.83.28,4.06-1.21-3.54.48,6.58-2-5.84-.84,1.41-1.37-.39-.74,1.43-.48-1-1.52,1.21L113,141Z"/><path class="cls-5" d="M53.4,358s3.16,4.84,9,.49c11.75-8.74,12.18-1.82,13.34-.5s-.5-4.22-4.78-5.38-6.09,5.46-10.54,4-4.68-4.76-4.68-4.76S54.79,358,53.4,358Z"/><path class="cls-5" d="M83.6,347.35S77,344,73.45,345.73s8.91.34,9.52,5h0l.63-3.39"/><path class="cls-5" d="M99.36,365.3s2.08-7.86,11.63-5.71,8.07-1.65,8.07-1.65-2.8,1.65-8.23,0S100,361.62,100,361.62l-.66,3.68"/><path class="cls-5" d="M127.85,319.56S123,344.87,112.31,340.9c0,0,11.64,8.29,15.54-21.34"/></g><g id="ccbshoes"><path class="cls-8" d="M59.07,371.58l1.71,1.2h0l.24-3.14c3.95-4.4,10.62,0,10.62,0l.84,2.83,3.31,1-.57-3.83c9.67,14.83,4.18,18.08,4.18,18.08-16.2,13.67-26.07,1.82-27.72-.85-2.35-3.81,4-15.77,4-15.77Z"/><path class="cls-8" d="M100.87,363.82s-4.49,14.49-4.07,18.4,0,12.39,16.33,10,14.62-6.37,11.45-11.33-4.84-5.66-4.83-9.08,2-4.51,2-6.42-3,3.19-3,3.19l-2.18,1.05.25-4.24s-6.42-3.65-9.63,0L106,367.69h-3.84l-1.59-2.25"/><path class="cls-9" d="M61,369.64l-1.56,12.82H71.3l1.18-10-.84-2.83S65.06,365.4,61,369.64Z"/><path class="cls-9" d="M106,367.69s-1.15,2.75,1.65,14.77l13.06,1.25s-4.3-13.16-4.09-14a37.19,37.19,0,0,0,.25-4.24s-8.15-5.19-10.87,2.25"/><path class="cls-10" d="M53.21,387.6s11.28-15.2,27.08-.54C80.29,387.06,65.16,401.92,53.21,387.6Z"/><path class="cls-10" d="M98.69,387.21s12.13-13.8,27.93.86C126.62,388.07,106.59,398.87,98.69,387.21Z"/><path class="cls-11" d="M53.71,375.63s-14.42,17,12,19.07c0,0,24.89-1.67,12.13-20.59h0s10.29,18.56-12.13,18.16c-20.88-.37-12-16.64-12-16.64"/><path class="cls-11" d="M97.83,375s-8.41,21.66,15.3,18.42,11.4-11.6,11.4-11.6,6.63,8.37-10.41,9.36S98.69,388.8,97.83,375Z"/><polygon class="cls-10" points="119.76 380.55 113.46 377.61 118.04 375.64 118.04 374.52 113.46 376.51 106.79 374.99 106.85 376.08 112.76 377.54 107.4 380.55 107.59 381.36 113.28 378.92 119.76 381.25 119.76 380.55"/><polygon class="cls-10" points="118.52 373.71 112.22 370.77 116.8 368.8 116.8 367.69 112.22 369.68 105.55 368.15 105.61 369.25 111.51 370.7 106.16 373.71 106.35 374.52 112.03 372.08 118.52 374.42 118.52 373.71"/><polygon class="cls-10" points="60.02 376.34 65.73 373.51 61.2 372.73 61.1 371.95 65.63 372.75 71.81 370.86 71.86 371.63 66.39 373.37 71.74 374.78 71.63 375.37 66.02 374.4 60.08 376.82 60.02 376.34"/><polygon class="cls-10" points="59.46 381.22 65.17 378.39 60.64 377.61 60.54 376.84 65.07 377.64 71.25 375.74 71.3 376.51 65.83 378.25 71.18 379.67 71.07 380.25 65.46 379.28 59.53 381.7 59.46 381.22"/><path class="cls-12" d="M56.08,387s1.88,5.68,12.6,3.21C68.68,390.18,57.57,390.46,56.08,387Z"/><path class="cls-12" d="M113.13,388.89s8.85,1.28,9.24-4.17C122.37,384.72,116.83,390.33,113.13,388.89Z"/></g></g></g></g></svg>