<svg xmlns="http://www.w3.org/2000/svg" viewBox="0 0 329.05 797.72"><defs><style>.cls-1{fill:#473319;}.cls-2{fill:#684b1e;}.cls-3{fill:#4c424f;}.cls-4{fill:#3a303d;}.cls-5{fill:#42302d;}.cls-6{fill:#543d3a;}.cls-7{fill:#212933;}.cls-8{fill:#212121;}.cls-9{fill:#8c8357;}.cls-10{fill:#a39662;}.cls-11{fill:#161b21;}</style></defs><title>ccb2</title><g id="Layer_2" data-name="Layer 2"><g id="ccb2"><g id="ccb2-2" data-name="ccb2"><g id="dressshoes"><g id="sbbshoes"><path class="cls-1" d="M93.48,760.38s-15.14,34.34,19.36,37.34c0,0,31,0,37-14.5,3-7.23-8-29.5-8-29.5s7.69,22.78,6,25.21-15.5,14.8-33,12.29-24.71-5.67-21.36-30.84"/><path class="cls-2" d="M103.4,732.72S92,756.28,90.69,777c0,0,1.15,14.72,22.15,16.22s36-10.05,36-14.29S138,732.72,138,732.72l-9.13,6c-1-4.5-19-5.5-19.5,0Z"/><path class="cls-1" d="M94.67,780.22s5.5-3.33,8-3.5v.44s-5.17,1.25-8,3.5Z"/><path class="cls-1" d="M106.6,775.6s6.17-1.8,8.63-1.32l-.11.42s-5.32-.12-8.64,1.32Z"/><path class="cls-1" d="M117.85,773.51s6.27-1.41,8.69-.78l-.13.42s-5.3-.46-8.7.77Z"/><path class="cls-1" d="M130.63,772.37s6.4-.66,8.73.26l-.19.4s-5.21-1.09-8.73-.27Z"/><path class="cls-1" d="M142.18,773.11s6.07,2.12,7.79,3.95l-.34.27s-4.25-3.19-7.78-3.94Z"/><path class="cls-1" d="M109.33,738.72l3.51,29.67S108.2,740.64,109.33,738.72Z"/><path class="cls-1" d="M128.49,768.65s1.49-27.81.63-29.86l-.63,29.86"/><polyline class="cls-1" points="109.61 741.04 118.47 745.39 129.29 739.89 129.37 741.55 118.47 746.89 128.94 748.89 128.94 750.39 118.47 748.05 110.39 752.38 110.24 751.26 117.71 746.89 109.15 741.89 109.61 741.04"/><polyline class="cls-1" points="110.1 751.7 118.96 756.04 129.79 750.55 129.86 752.21 118.96 757.54 129.43 759.54 129.43 761.04 118.96 758.71 110.89 763.04 110.74 761.92 118.2 757.54 109.65 752.54 110.1 751.7"/><polyline class="cls-1" points="110.1 761.69 118.96 766.04 129.79 760.54 129.86 762.2 118.96 767.54 129.43 769.54 129.43 771.04 118.96 768.7 110.89 773.03 110.74 771.91 118.2 767.54 109.65 762.54 110.1 761.69"/></g><g id="sbbshoes-2" data-name="sbbshoes"><path class="cls-1" d="M237.57,758.2s15.14,34.34-19.36,37.34c0,0-31,0-37-14.5-3-7.23,8-29.5,8-29.5s-7.69,22.78-6,25.2,15.5,14.8,33,12.3,24.71-5.67,21.36-30.84"/><path class="cls-2" d="M227.65,730.54s11.36,23.55,12.72,44.28c0,0-1.16,14.72-22.16,16.22s-36-10-36-14.3,10.87-46.2,10.87-46.2l9.13,6c1-4.5,19-5.5,19.5,0Z"/><path class="cls-1" d="M236.38,778s-5.5-3.34-8-3.5V775s5.17,1.25,8,3.5Z"/><path class="cls-1" d="M224.45,773.41s-6.17-1.8-8.63-1.31l.11.42s5.32-.13,8.64,1.31Z"/><path class="cls-1" d="M213.2,771.32s-6.27-1.41-8.69-.77l.14.42s5.29-.46,8.69.77Z"/><path class="cls-1" d="M200.42,770.18s-6.39-.65-8.73.27l.19.4s5.21-1.09,8.73-.27Z"/><path class="cls-1" d="M188.87,770.92s-6.07,2.13-7.79,4l.34.28s4.25-3.19,7.79-3.95Z"/><path class="cls-1" d="M221.72,736.54l-3.51,29.66S222.85,738.45,221.72,736.54Z"/><path class="cls-1" d="M202.56,766.47s-1.49-27.81-.63-29.87l.63,29.87"/><polyline class="cls-1" points="221.44 738.86 212.58 743.2 201.76 737.71 201.68 739.37 212.58 744.7 202.11 746.7 202.11 748.2 212.58 745.87 220.66 750.2 220.81 749.08 213.34 744.7 221.9 739.7 221.44 738.86"/><polyline class="cls-1" points="220.95 749.52 212.09 753.86 201.26 748.37 201.19 750.03 212.09 755.36 201.62 757.36 201.62 758.86 212.09 756.53 220.16 760.85 220.31 759.74 212.85 755.36 221.4 750.36 220.95 749.52"/><polyline class="cls-1" points="220.95 759.51 212.09 763.85 201.26 758.36 201.19 760.02 212.09 765.35 201.62 767.35 201.62 768.85 212.09 766.52 220.16 770.85 220.31 769.73 212.85 765.35 221.4 760.35 220.95 759.51"/></g></g><g id="ccbshirt2"><path class="cls-3" d="M126.89,3.52S56,29.22,49.33,36.89s-14.66,39.33-13,59.33C36.33,96.22,3.67,207,5,236.44L3.18,298.22,0,295.89l3.44,28.94s20.35,3.46,28.29-4.24l5.27-22-2.33-.33S63,244,63.33,236.44,83,139.89,83,139.89s6,36,5.67,44,3.66,66,3.66,66l-2.75,21.29s63.47,45.28,151.78-1.51L236,248.89s2-54,.33-69.34l12.67-33s16.33,98.34,30,125l16.67,25.34h-3l7.55,15s16.48,5.68,26-1.68l2.87-19.35H327s-2-77.67-5.33-87.67S301,107.89,295,97.89c0,0,4.67-52.67-21-67.34,0,0-58-16.16-72.35-25.24,0,0-6.69,45.24-35.69,48.58S126.89,3.52,126.89,3.52Z"/><g id="sbbshirt2"><path class="cls-4" d="M90.78,15.21s29.31,26,55.49,46.37c0,0,2.58,1.37,2.25,3.54,0,0,1.45-6.82,13.94-12.66C162.46,52.46,114.12,3.51,90.78,15.21Z"/><path class="cls-3" d="M131.5.86C117.46,14.55,161,50.73,161,50.73l-13,9.35c0-8.09-54.41-42.84-54.15-46.87S131.5.86,131.5.86"/><path class="cls-4" d="M239,17.21A419.76,419.76,0,0,1,192.68,59.7s-2.58,1.38-2.25,3.54c0,0-6.67-8-21.58-8C168.85,55.24,215.66,5.51,239,17.21Z"/><path class="cls-3" d="M198.12,0s34.31,10.37,38.73,16.31c0,0-40.42,37.77-46.58,42.77,0,0-9.12-9.21-21.42-3.84C168.85,55.24,208.52,13.4,198.12,0Z"/><path class="cls-4" d="M161,50.73l3.29,240.1s4.73-.22,5.87-.23L169,60.08Z"/><path class="cls-3" d="M166.59,58.09s-3.31-2.35-3.31,3.65c0,14,1.43,229.07,1.43,229.07l1.47,0S165.92,62,166.59,58.09Z"/><circle class="cls-5" cx="164.71" cy="65.41" r="3.22"/><path class="cls-6" d="M165.58,62.93s-2.93-.27-3.38,1.75a2.85,2.85,0,0,0,2.51,3.44S159.7,64.68,165.58,62.93Z"/><circle class="cls-6" cx="164.71" cy="65.62" r="0.75"/><circle class="cls-5" cx="165.05" cy="92.28" r="3.22"/><path class="cls-6" d="M165.92,89.81s-2.93-.27-3.38,1.75A2.83,2.83,0,0,0,165.05,95S160,91.56,165.92,89.81Z"/><circle class="cls-6" cx="165.05" cy="92.49" r="0.75"/><circle class="cls-5" cx="165.63" cy="123.93" r="3.22"/><path class="cls-6" d="M166.5,121.46s-2.93-.28-3.38,1.75a2.84,2.84,0,0,0,2.51,3.43S160.62,123.21,166.5,121.46Z"/><circle class="cls-6" cx="165.63" cy="124.14" r="0.75"/><circle class="cls-5" cx="165.96" cy="150.81" r="3.22"/><path class="cls-6" d="M166.83,148.33s-2.92-.27-3.37,1.75a2.84,2.84,0,0,0,2.5,3.44S161,150.08,166.83,148.33Z"/><circle class="cls-6" cx="165.96" cy="151.02" r="0.75"/><circle class="cls-5" cx="165.88" cy="177.69" r="3.22"/><path class="cls-6" d="M166.75,175.21s-2.93-.27-3.38,1.75a2.83,2.83,0,0,0,2.51,3.43S160.87,177,166.75,175.21Z"/><circle class="cls-6" cx="165.88" cy="177.89" r="0.75"/><circle class="cls-5" cx="166.21" cy="204.56" r="3.22"/><path class="cls-6" d="M167.09,202.08s-2.93-.27-3.38,1.75a2.84,2.84,0,0,0,2.5,3.44S161.21,203.83,167.09,202.08Z"/><circle class="cls-6" cx="166.21" cy="204.77" r="0.75"/><circle class="cls-5" cx="166.58" cy="226" r="3.22"/><path class="cls-6" d="M167.45,223.53s-2.93-.27-3.38,1.75a2.84,2.84,0,0,0,2.51,3.43S161.57,225.28,167.45,223.53Z"/><circle class="cls-6" cx="166.58" cy="226.21" r="0.75"/><circle class="cls-5" cx="166.92" cy="252.88" r="3.22"/><path class="cls-6" d="M167.79,250.4s-2.93-.27-3.38,1.75a2.85,2.85,0,0,0,2.51,3.44S161.91,252.15,167.79,250.4Z"/><circle class="cls-6" cx="166.92" cy="253.09" r="0.75"/><circle class="cls-5" cx="166.96" cy="281.78" r="3.22"/><circle class="cls-5" cx="30.93" cy="302.25" r="2.21"/><circle class="cls-5" cx="300.83" cy="301.83" r="2.21"/><path class="cls-6" d="M167.84,279.31s-2.93-.27-3.38,1.75a2.83,2.83,0,0,0,2.5,3.43S162,281.06,167.84,279.31Z"/><circle class="cls-6" cx="166.96" cy="281.99" r="0.75"/><path class="cls-4" d="M92.76,96.75s23.5,11.65,41,5.32v35.08s-20.69,15.1-23.34,15.1S92.76,136.4,92.76,136.4Z"/><path class="cls-3" d="M93.72,99.41s21.25,10.53,37.07,4.82v31.71s-18.7,13.65-21.1,13.65-16-14.33-16-14.33Z"/><path class="cls-4" d="M237.66,95.86s-23.5,11.64-41,5.32v35.08s20.68,15.1,23.34,15.1,17.66-15.85,17.66-15.85Z"/><path class="cls-3" d="M236.69,98.52s-21.25,10.53-37.07,4.81v31.72s18.7,13.65,21.11,13.65,16-14.33,16-14.33Z"/><path class="cls-4" d="M92.39,174.37s18.25,33.2,41.37,45.21c0,0-31.81-15.2-42-40.94l.61-4.27"/><path class="cls-4" d="M81.69,135.14S67.27,124.58,66.6,116.58l15.09,18.56"/><path class="cls-4" d="M244.27,133.58s14-9.67,14-15.34C258.27,118.24,257.93,130.24,244.27,133.58Z"/><path class="cls-4" d="M93.72,105.62s14.92,8.25,30.3,6.62c0,0-17.38,3.13-30.3-4.75Z"/><path class="cls-4" d="M236.69,104.74s-7.8,8-26.55,7.5c0,0,15,4.5,26.55-5.37Z"/><path class="cls-4" d="M173.6,250.39s-3.37,44.85,9.48,38.85C183.08,289.24,174.6,299.2,173.6,250.39Z"/><path class="cls-4" d="M53.11,33.53S83.27,49.24,83.77,71.74c0,0,5-19.11-29-39.34Z"/><path class="cls-4" d="M272.19,30.47s-14.92.11-20.92,39.77c0,0,8.94-37.67,23.14-37.84Z"/></g><path class="cls-4" d="M3.18,298.22s17.15,6,27.49,0C30.67,298.22,16.36,309.55,3.18,298.22Z"/><path class="cls-4" d="M303,295.89s20.48,2.16,23.89-7.67C326.93,288.22,328.91,300.05,303,295.89Z"/></g><g id="ccbpants2"><g id="sbbpants2"><g id="sbbpants"><path class="cls-7" d="M89.31,259.47s60.79,45.59,151.58,0c0,0,21.23,63.34,14.73,146.34s-14,104-14,110,7,86.5,7,92.5-11.5,108.49-11.5,108.49-15.71,6.7-26.8,7.7-25.65-11.82-25.65-11.82-15.41-114.37-13.23-133.37,6.18-56.5,5.18-71.5-7.33-138.5-7.33-138.5l-7.67-1s-4.5,119-9.5,138,1.5,45.46,2,78c.24,14.92-9,134-9,134s-21,10-27.5,10-24.5-15.5-24.5-15.5-12-129-10-134.5,6-61,6-70-17-53-18-111S79.65,269,89.31,259.47Z"/><path class="cls-8" d="M85,266s-5,5.94-4,12.78c0,0,51.79,18.66,83.42,18.83,32.88.18,82.63-17.83,82.63-17.83s-.51-12.39-4.8-13.78C242.25,266,180.8,304.23,85,266Z"/><rect class="cls-9" x="152.92" y="280.69" width="24.37" height="17.41" rx="2.9" ry="2.9"/><rect class="cls-8" x="158.22" y="284.75" width="13.78" height="9.28" rx="1.59" ry="1.59"/></g><path class="cls-10" d="M154.62,291s-3.87-10.37,8.5-9h0S153.5,282.59,154.62,291Z"/><rect class="cls-7" x="133.11" y="278.2" width="4.93" height="18.08" rx="1.47" ry="1.47"/><rect class="cls-7" x="190.86" y="280.35" width="4.93" height="18.08" rx="1.47" ry="1.47"/><rect class="cls-7" x="237.61" y="265.76" width="4.93" height="18.08" rx="1.47" ry="1.47"/><rect class="cls-7" x="86.07" y="265.25" width="4.93" height="18.08" rx="1.47" ry="1.47"/><path class="cls-11" d="M202.12,307.47s13.5,23.67,45.75,18.67C247.87,326.14,216.12,337.12,202.12,307.47Z"/><path class="cls-11" d="M128.75,309.09s-12.89,23.68-43.68,18.68C85.07,327.77,115.38,338.75,128.75,309.09Z"/><path class="cls-11" d="M158.79,313s-6.55,49.29,5.89,48.79C164.68,361.81,154.74,359.24,158.79,313Z"/></g><path class="cls-7" d="M91.93,699.78s-7.11,7.74-1.71,13.49,18.9,13,25.65,14.25,24.76-6.91,29.25-9.21,9.2-14.35,1.72-17.07C146.84,701.24,114.25,716.8,91.93,699.78Z"/><path class="cls-7" d="M183.77,700.89s-7.11,7.74-1.71,13.49,18.9,11,25.65,12.24,24.76-4.9,29.25-7.2,9.2-14.35,1.72-17.07C238.68,702.35,206.09,717.91,183.77,700.89Z"/><path class="cls-11" d="M93.17,700.68s6.28,12.59,28.49,9.59C121.66,710.27,101.48,710.6,93.17,700.68Z"/><path class="cls-11" d="M206.63,707.78s18.09,4.5,29.29-5.26C235.92,702.52,227.39,716.05,206.63,707.78Z"/></g></g></g></g></svg>