<?xml version="1.0" encoding="utf-8"?>
<!-- Generator: Adobe Illustrator 22.1.0, SVG Export Plug-In . SVG Version: 6.00 Build 0)  -->
<svg version="1.1" id="Layer_1" xmlns="http://www.w3.org/2000/svg" xmlns:xlink="http://www.w3.org/1999/xlink" x="0px" y="0px"
	 viewBox="0 0 183 415" style="enable-background:new 0 0 183 415;" xml:space="preserve">
<style type="text/css">
	.st0{fill:none;}
	.st1{fill:#473319;}
	.st2{fill:#684B1E;}
	.st3{fill:#634745;}
	.st4{fill:#4F3635;}
	.st5{fill:#212121;}
	.st6{fill:#878589;}
	.st7{fill:#99B3C1;}
	.st8{fill:#829CA8;}
	.st9{fill:#666565;}
	.st10{fill:#543D3A;}
	.st11{fill:#42302D;}
	.st12{fill:#CE8D8D;}
	.st13{fill:#3A3A3A;}
	.st14{fill:#4C4C4C;}
	.st15{fill:#6D6D6D;}
	.st16{fill:#7A7A7A;}
	.st17{fill:#5B5B5B;}
	.st18{fill:#75A5CC;}
	.st19{fill:#679CBF;}
</style>
<title>cfb</title>
<g id="Layer_2_1_">
	<g id="cfb">
		<g id="cfb-2">
			<rect class="st0" width="183" height="415"/>
			<g id="dressshoes">
				<g id="sbbshoes">
					<path class="st1" d="M53.1,379.5c0,0-7.5,17,9.6,18.5c0,0,15.3,0,18.3-7.2c1.5-3.6-4-14.6-4-14.6s3.8,11.3,3,12.5
						s-7.7,7.3-16.3,6.1S51.5,392,53.1,379.5"/>
					<path class="st2" d="M58,365.8c0,0-5.6,11.7-6.3,22c0,0,0.6,7.3,10.9,8s17.8-5,17.8-7.1s-5.4-22.9-5.4-22.9l-4.5,3
						c-0.5-2.2-9.4-2.7-9.6,0L58,365.8z"/>
					<path class="st1" d="M53.7,389.4c0,0,2.7-1.7,4-1.7v0.2c-1.4,0.3-2.8,0.9-4,1.7V389.4z"/>
					<path class="st1" d="M59.6,387.1c0,0,3-0.9,4.3-0.6v0.2c-1.5,0-2.9,0.2-4.3,0.6L59.6,387.1z"/>
					<path class="st1" d="M65.2,386.1c0,0,3.1-0.7,4.3-0.4l-0.1,0.2c-1.4-0.1-2.9,0-4.3,0.4L65.2,386.1z"/>
					<path class="st1" d="M71.5,385.5c0,0,3.2-0.3,4.3,0.1l-0.1,0.2c-1.4-0.3-2.9-0.3-4.3-0.1L71.5,385.5z"/>
					<path class="st1" d="M77.2,385.9c0,0,3,1,3.8,2l-0.2,0.1c-1.2-0.9-2.5-1.6-3.9-2L77.2,385.9z"/>
					<path class="st1" d="M61,368.8l1.7,14.7C62.7,383.5,60.4,369.7,61,368.8z"/>
					<path class="st1" d="M70.4,383.6c0,0,0.7-13.8,0.3-14.8L70.4,383.6"/>
					<polyline class="st1" points="61.1,369.9 65.5,372.1 70.8,369.4 70.9,370.2 65.5,372.8 70.6,373.8 70.6,374.6 65.5,373.4 
						61.5,375.6 61.4,375 65.1,372.8 60.9,370.4 61.1,369.9 					"/>
					<polyline class="st1" points="61.3,375.2 65.7,377.4 71.1,374.7 71.1,375.5 65.7,378.1 70.9,379.1 70.9,379.9 65.7,378.7 
						61.7,380.9 61.7,380.3 65.3,378.1 61.1,375.6 61.3,375.2 					"/>
					<polyline class="st1" points="61.3,380.2 65.7,382.4 71.1,379.6 71.1,380.4 65.7,383.1 70.9,384.1 70.9,384.8 65.7,383.7 
						61.7,385.8 61.7,385.3 65.3,383.1 61.1,380.6 61.3,380.2 					"/>
				</g>
				<g id="sbbshoes-2">
					<path class="st1" d="M124.3,378.5c0,0,7.5,17-9.6,18.5c0,0-15.3,0-18.3-7.2c-1.5-3.6,4-14.6,4-14.6s-3.8,11.3-3,12.5
						s7.7,7.4,16.3,6.1S126,390.9,124.3,378.5"/>
					<path class="st2" d="M119.4,364.7c0,0,5.6,11.7,6.3,22c0,0-0.6,7.3-10.9,8.1s-17.8-5-17.8-7.1s5.4-22.9,5.4-22.9l4.5,3
						c0.5-2.2,9.4-2.7,9.6,0L119.4,364.7z"/>
					<path class="st1" d="M123.7,388.3c0,0-2.7-1.6-4-1.7v0.2c1.4,0.3,2.8,0.9,4,1.7V388.3z"/>
					<path class="st1" d="M117.8,386c0,0-3-0.9-4.3-0.6l0.1,0.2c1.5,0,2.9,0.2,4.3,0.6L117.8,386z"/>
					<path class="st1" d="M112.3,385c0,0-3.1-0.7-4.3-0.4l0.1,0.2c1.4-0.1,2.9,0,4.3,0.4L112.3,385z"/>
					<path class="st1" d="M106,384.4c0,0-3.2-0.3-4.3,0.1l0.1,0.2c1.4-0.3,2.9-0.3,4.3-0.1L106,384.4z"/>
					<path class="st1" d="M100.2,384.8c0,0-3,1.1-3.8,2l0.2,0.1c1.2-0.9,2.5-1.6,3.8-2L100.2,384.8z"/>
					<path class="st1" d="M116.5,367.7l-1.7,14.7C114.7,382.4,117,368.7,116.5,367.7z"/>
					<path class="st1" d="M107,382.6c0,0-0.7-13.8-0.3-14.8L107,382.6"/>
					<polyline class="st1" points="116.3,368.9 112,371 106.6,368.3 106.6,369.1 112,371.8 106.8,372.8 106.8,373.5 112,372.3 
						116,374.5 116,373.9 112.3,371.8 116.6,369.3 116.3,368.9 					"/>
					<polyline class="st1" points="116.1,374.1 111.7,376.3 106.4,373.6 106.3,374.4 111.7,377 106.5,378 106.5,378.8 111.7,377.6 
						115.7,379.8 115.8,379.2 112.1,377 116.3,374.6 116.1,374.1 					"/>
					<polyline class="st1" points="116.1,379.1 111.7,381.3 106.4,378.5 106.3,379.4 111.7,382 106.5,383 106.5,383.8 111.7,382.6 
						115.7,384.7 115.8,384.2 112.1,382 116.3,379.5 116.1,379.1 					"/>
				</g>
			</g>
			<g id="cfbpants">
				<g id="sbbpants">
					<path class="st3" d="M51.4,131c0,0,28.5,22.6,73.3,0c7.3,24.6,10.1,50.2,8.3,75.8c-3.3,41.2-7,51.6-7,54.6s3.5,42.9,3.5,45.9
						s-5.7,53.9-5.7,53.9s-6.3,5.2-11.8,5.7s-14.4-4.7-14.4-4.7s-7.3-59.8-6.3-69.2s3-28,2.6-35.5s-3.6-68.8-3.6-68.8l-3.8-0.5
						c0,0-2.2,59.1-4.7,68.5s-0.7,31.5,1,38.7s-4.4,66.5-4.4,66.5s-10.4,5-13.6,5s-12.1-7.7-12.1-7.7s-5.9-64-4.9-66.8
						s3-30.3,3-34.8s-8.4-26.3-8.9-55.1S46.6,135.8,51.4,131z"/>
					<path class="st4" d="M112.8,202.8c0,0,3.3,69.5,2.3,73.1s-3.4,90.4-3.4,90.4l-2-0.3c0,0,2.8-87.1,2.8-90.4
						S112.8,202.8,112.8,202.8z"/>
					<path class="st4" d="M61.5,201.3c0,0-3.3,69.5-2.3,73.1s3.4,90.4,3.4,90.4l2-0.3c0,0-2.8-87.1-2.8-90.4S61.5,201.3,61.5,201.3z
						"/>
					<path class="st5" d="M49.7,134.1c0,0-2.7,4.1-2.2,7.5c0,0,23.7,8.1,39.3,8.2c16.2,0.1,40.8-8.1,40.8-8.1s0.2-6.9-2-7.5
						C125.6,134.1,97,153.1,49.7,134.1z"/>
					<path class="st6" d="M84.4,142.1h6.2c1.6,0,2.9,1.3,2.9,2.9v2.8c0,1.6-1.3,2.9-2.9,2.9h-6.2c-1.6,0-2.9-1.3-2.9-2.9V145
						C81.5,143.4,82.8,142.1,84.4,142.1z"/>
					<path class="st5" d="M85.7,144.2h3.6c0.9,0,1.6,0.7,1.6,1.6v1.4c0,0.9-0.7,1.6-1.6,1.6h-3.6c-0.9,0-1.6-0.7-1.6-1.6v-1.4
						C84.1,144.9,84.8,144.2,85.7,144.2z"/>
				</g>
				<path class="st3" d="M73.1,140.8L73.1,140.8c0.7,0,1.2,0.5,1.2,1.2v6.5c0,0.7-0.5,1.2-1.2,1.2h0c-0.7,0-1.2-0.5-1.2-1.2V142
					C71.9,141.4,72.4,140.8,73.1,140.8z"/>
				<path class="st3" d="M101.6,140.8L101.6,140.8c0.7,0,1.2,0.5,1.2,1.2v6.5c0,0.7-0.5,1.2-1.2,1.2h0c-0.7,0-1.2-0.5-1.2-1.2V142
					C100.4,141.4,100.9,140.8,101.6,140.8z"/>
				<path class="st3" d="M120.4,135.7L120.4,135.7c0.7,0,1.2,0.5,1.2,1.2v6.5c0,0.7-0.5,1.2-1.2,1.2h0c-0.7,0-1.2-0.5-1.2-1.2v-6.5
					C119.2,136.2,119.7,135.7,120.4,135.7z"/>
				<path class="st3" d="M52.3,134.4L52.3,134.4c0.7,0,1.2,0.5,1.2,1.2v6.5c0,0.7-0.5,1.2-1.2,1.2l0,0c-0.7,0-1.2-0.5-1.2-1.2v-6.5
					C51.1,134.9,51.7,134.4,52.3,134.4z"/>
				<path class="st4" d="M106.5,158c0,0,6.7,11.8,22.6,9.3C129.1,167.2,113.4,172.7,106.5,158z"/>
				<path class="st4" d="M70.3,158.8c0,0-6.4,11.8-21.6,9.2C48.7,168,63.7,173.5,70.3,158.8z"/>
				<path class="st4" d="M85.1,160.7c0,0-3.2,24.5,2.9,24.2C88,184.9,83.1,183.6,85.1,160.7z"/>
			</g>
			<g id="cfbshirt">
				<g id="shirt">
					<path class="st7" d="M69.2,7.4c0,0-35,12.8-38.3,16.5s-7.2,19.5-6.4,29.5c0,0-16.1,55-15.5,69.6l-0.9,30.7l-1.6-1.1l1.7,14.4
						c0,0,10.1,1.7,14-2.1l2.6-10.9l-1.1-0.2c0,0,14-26.9,14.2-30.7s9.7-47.9,9.7-47.9S50.5,93,50.3,97s1.8,32.8,1.8,32.8l-3.4,2.2
						c0,0,27.8,19.8,76.1,4.6l-1.7-7.4c0,0,1-26.8,0.2-34.4l6.3-16.4c0,0,8.1,48.8,14.8,62l8.2,12.6h-1.5l3.7,7.5
						c0,0,8.1,2.8,12.8-0.8l1.4-9.6h-1c0,0-1-38.6-2.6-43.5s-10.2-47.3-13.2-52.3c0,0,2.3-26.1-10.4-33.4c0,0-28.7-8-35.7-12.5
						c0,0-3.4,4.7-17.7,6.3S69.2,7.4,69.2,7.4z"/>
					<g id="sbbshirt2">
						<path class="st8" d="M85.3,16.1l2.4,126.3c0,0,2.3-0.1,2.9-0.1l0.8-126.4L85.3,16.1z"/>
						<path class="st7" d="M88.8,16.8c0,0-0.9-1-0.9,2v123.6h0.7C88.6,142.4,88.5,18.8,88.8,16.8z"/>
						<ellipse class="st9" cx="87.8" cy="38.2" rx="1.6" ry="1.6"/>
						<path class="st10" d="M88.3,36.9c0,0-1.4-0.1-1.7,0.9c-0.2,0.8,0.3,1.5,1,1.7c0.1,0,0.1,0,0.2,0
							C87.8,39.5,85.4,37.8,88.3,36.9z"/>
						<circle class="st10" cx="87.8" cy="38.3" r="0.4"/>
						<ellipse class="st9" cx="88.2" cy="26.4" rx="1.6" ry="1.6"/>
						<path class="st10" d="M88.6,25.2c0,0-1.4-0.1-1.7,0.9c-0.2,0.8,0.3,1.5,1.1,1.7c0.1,0,0.1,0,0.2,0
							C88.2,27.8,85.7,26.1,88.6,25.2z"/>
						<circle class="st10" cx="88.2" cy="26.5" r="0.4"/>
						<ellipse class="st9" cx="88" cy="51.5" rx="1.6" ry="1.6"/>
						<path class="st10" d="M88.4,50.3c0,0-1.4-0.1-1.7,0.9c-0.2,0.8,0.3,1.5,1.1,1.7c0.1,0,0.1,0,0.2,0
							C88,52.8,85.5,51.1,88.4,50.3z"/>
						<circle class="st10" cx="88" cy="51.6" r="0.4"/>
						<ellipse class="st9" cx="88.3" cy="67.2" rx="1.6" ry="1.6"/>
						<path class="st10" d="M88.7,66c0,0-1.4-0.1-1.7,0.9c-0.2,0.8,0.3,1.5,1.1,1.7c0.1,0,0.1,0,0.2,0C88.3,68.6,85.8,66.8,88.7,66z
							"/>
						<circle class="st10" cx="88.3" cy="67.3" r="0.4"/>
						<ellipse class="st9" cx="88.5" cy="80.6" rx="1.6" ry="1.6"/>
						<path class="st10" d="M88.9,79.3c0,0-1.4-0.1-1.7,0.9c-0.2,0.8,0.3,1.5,1,1.7c0.1,0,0.1,0,0.2,0C88.5,81.9,86,80.2,88.9,79.3z
							"/>
						<circle class="st10" cx="88.5" cy="80.7" r="0.4"/>
						<ellipse class="st9" cx="88.4" cy="93.9" rx="1.6" ry="1.6"/>
						<path class="st10" d="M88.9,92.7c0,0-1.4-0.1-1.7,0.9c-0.2,0.8,0.3,1.5,1.1,1.7c0.1,0,0.1,0,0.2,0
							C88.4,95.2,86,93.5,88.9,92.7z"/>
						<circle class="st10" cx="88.4" cy="94" r="0.4"/>
						<ellipse class="st9" cx="88.6" cy="107.2" rx="1.6" ry="1.6"/>
						<path class="st10" d="M89,106c0,0-1.4-0.1-1.7,0.9c-0.2,0.8,0.3,1.5,1.1,1.7c0.1,0,0.1,0,0.2,0C88.6,108.6,86.1,106.9,89,106z
							"/>
						<circle class="st10" cx="88.6" cy="107.3" r="0.4"/>
						<ellipse class="st9" cx="88.8" cy="117.9" rx="1.6" ry="1.6"/>
						<path class="st10" d="M89.2,116.7c0,0-1.4-0.1-1.7,0.9c-0.2,0.8,0.3,1.5,1.1,1.7c0.1,0,0.1,0,0.2,0
							C88.8,119.2,86.3,117.5,89.2,116.7z"/>
						<circle class="st10" cx="88.8" cy="118" r="0.4"/>
						<ellipse class="st9" cx="88.9" cy="131.2" rx="1.6" ry="1.6"/>
						<path class="st10" d="M89.4,130c0,0-1.4-0.1-1.7,0.9c-0.2,0.7,0.3,1.5,1,1.7c0.1,0,0.1,0,0.2,0
							C88.9,132.6,86.5,130.9,89.4,130z"/>
						<circle class="st10" cx="88.9" cy="131.3" r="0.4"/>
						<ellipse class="st11" cx="21.8" cy="155.7" rx="1.1" ry="1.1"/>
						<ellipse class="st11" cx="155.1" cy="155.5" rx="1.1" ry="1.1"/>
						<path class="st12" d="M123.4,57.7c0,0-3.8,4-13.1,3.7c0,0,7.4,2.2,13.1-2.7V57.7z"/>
						<path class="st8" d="M91.7,122c0,0-1.7,22.3,4.7,19.3C96.4,141.3,92.2,146.2,91.7,122z"/>
					</g>
				</g>
				<path class="st7" d="M72.4,2.4c0,0-4.1,9-12.2,11.4c0,0,13.9,9.3,19.1,11.4L86,11.9C81.8,8.4,77.2,5.2,72.4,2.4z"/>
				<path class="st12" d="M59.9,10.6c3.9,6.1,9.1,11.2,15.2,15.1v-3.3C75.1,22.4,63.4,14.7,59.9,10.6z"/>
				<path class="st8" d="M83.6,11c0,0-7.2,7.2-6.5,14.1l0.9-0.6C78,24.5,79.3,14.1,83.6,11z"/>
				<path class="st7" d="M104.5,2.8c0,0,3.2,9.9,7.8,11.9c0,0-11.2,9.6-16.4,11.6l-5.2-13.8C94.6,8.4,99.3,5.1,104.5,2.8z"/>
				<path class="st12" d="M115.5,11.7c-3.9,6.1-9.2,11.3-15.3,15.1v-3.3C100.2,23.6,112,15.8,115.5,11.7z"/>
				<path class="st8" d="M91.6,12.2c0,0,7.2,7.2,6.5,14.2l-0.8-0.7C97.3,25.6,95.9,15.2,91.6,12.2z"/>
				<path class="st13" d="M88,11.9L88,11.9c1.8,0,3.3,1.5,3.3,3.3v0c0,1.8-1.5,3.3-3.3,3.3l0,0c-1.8,0-3.3-1.5-3.3-3.3v0
					C84.6,13.4,86.1,11.9,88,11.9z"/>
				<path class="st5" d="M90.7,12.6c0,0,9.6-8.6,11.5-6.9S90.7,12.6,90.7,12.6z"/>
				<path class="st13" d="M102.2,5.6c0.5,2.1,0.6,4.2,0.2,6.3c-0.7,3,1.4,5.4,0.3,7.7s-11.9-2.4-11.9-2.4c0.7-1.5,0.7-3.2,0-4.7"/>
				<path class="st5" d="M91.3,14l6.6-3.1L92.6,14h3.5l-3.8,0.6v1.1l3.9,1.6l-4.8-0.8C91.9,15.8,91.9,14.7,91.3,14z"/>
				<path class="st14" d="M100.6,7.4c0,0,0.7,4,0,5.6s0.8,5.7,0.8,5.7s-0.5-3.9,0-5.2S100.6,7.4,100.6,7.4z"/>
				<path class="st5" d="M85.6,13.2c0,0-9.6-8.6-11.4-6.9S85.6,13.2,85.6,13.2z"/>
				<path class="st13" d="M74.2,6.3c-0.5,2.1-0.5,4.2-0.2,6.3c0.7,3-1.4,5.4-0.3,7.7s11.9-2.4,11.9-2.4c-0.7-1.5-0.7-3.2,0-4.7"/>
				<path class="st5" d="M85,14.6l-6.6-3.1l5.3,3.1h-3.4l3.8,0.6v1.1l-3.9,1.6l4.8-0.7C84.4,16.4,84.4,15.3,85,14.6z"/>
				<path class="st14" d="M75.7,8c0,0-0.7,4,0,5.6S75,19.2,75,19.2s0.5-3.9,0-5.2S75.7,8,75.7,8z"/>
				<path class="st5" d="M85.6,12.6c0,0,0.8,1,0,5.3C85.6,17.9,87.6,14.6,85.6,12.6z"/>
				<path class="st14" d="M86.9,14.1c0,0,2.7-1.2,3.8,0C90.7,14.1,87.7,10.5,86.9,14.1z"/>
				<path class="st15" d="M59.9,10.6c0,0-27.2,8.5-30.3,13S22.5,50.9,23,53.7c0,0-14.6,54.3-14.9,66c-0.4,11.7-3.2,32.8-3.2,32.8
					s8.2,6.1,22.7,2.1c0,0,9.7-26.6,10.9-30.4s8.4-46.3,8.4-46.3s1.7,42.7,0,49.2S39,164.9,39,164.9s26.4,9,38.8,9.2L77.1,25.2
					C77.1,25.2,59,15.8,59.9,10.6z"/>
				<path class="st16" d="M64,5.2c0,0-11.2,2.8-14.9,8.8l16.1,32.5l-7.3,2.2c0,0-1,0.8-0.7,1.7s20.3,49.8,20.3,49.8
					s-0.7-75.5-2.2-79.7S67.7,3.7,64,5.2z"/>
				<path class="st15" d="M116,6.5c0,0,28.3,12.9,31.4,17.4s7.1,27.3,6.6,30.1c0,0,14.6,54.3,14.9,66s3.2,32.8,3.2,32.8
					s-8.2,6.1-22.7,2.1c0,0-10.7-26.6-11.9-30.4s-7.7-44.2-7.7-44.2s-1.4,40.6,0.3,47s7.9,37.9,7.9,37.9s-26.4,8.8-38.8,8.9V25.2
					C99.2,25.2,116.8,11.6,116,6.5z"/>
				<path class="st16" d="M112.4,6.4c0,0,11.1,2.8,14.7,8.9l-15.8,32.5l7.2,2.2c0,0,1,0.8,0.7,1.7s-20.4,49.6-20.4,49.6
					s-1.4-71.9,0-76.1S108.8,4.9,112.4,6.4z"/>
				<path class="st16" d="M54.8,9.4c0,0,15.2-7.8,18.6-7.4c0,0-2.4,6.2-7.5,6.7C65.9,8.6,64.1,6.2,54.8,9.4z"/>
				<path class="st16" d="M122.2,9.8c0,0-15.2-7.9-18.7-7.4c0,0,1.5,6.6,6.4,7.4C110,9.8,112.9,6.6,122.2,9.8z"/>
				<polygon class="st17" points="114,64.4 125.9,64.4 125.9,67.2 112.8,67.2 				"/>
				<path class="st18" d="M116.1,59.3c0.8,0.6,1.4,1.5,1.6,2.4c0,0,3.4-7.1,4.8-7.1s3.5,9.8,3.5,9.8H114L116.1,59.3z"/>
				<path class="st19" d="M118.3,61.9c0,0,3.4-7.3,4.4-6.1C122.7,55.8,122.4,55.1,118.3,61.9z"/>
				<path class="st19" d="M116,61.7c0,0,1,2.1,2.3,2.1s1.4-0.8,1.4-0.8c-0.4,0.3-0.9,0.4-1.4,0.5C117.4,63.2,116.5,62.5,116,61.7z"
					/>
				<polygon class="st15" points="113.4,65.5 125.9,65.5 125.9,66.4 113,66.4 				"/>
			</g>
		</g>
	</g>
</g>
</svg>
