<svg xmlns="http://www.w3.org/2000/svg" viewBox="0 0 338.48 800.12"><defs><style>.cls-1{fill:#473319;}.cls-2{fill:#684b1e;}.cls-3{fill:#634745;}.cls-4{fill:#4f3635;}.cls-5{fill:#212121;}.cls-6{fill:#878589;}.cls-7{fill:#99b3c1;}.cls-8{fill:#829ca8;}.cls-9{fill:#666565;}.cls-10{fill:#543d3a;}.cls-11{fill:#42302d;}.cls-12{fill:#ce8d8d;}.cls-13{fill:#3a3a3a;}.cls-14{fill:#4c4c4c;}.cls-15{fill:#6d6d6d;}.cls-16{fill:#7a7a7a;}.cls-17{fill:#5b5b5b;}.cls-18{fill:#75a5cc;}.cls-19{fill:#679cbf;}</style></defs><title>cfb</title><g id="Layer_2" data-name="Layer 2"><g id="cfb"><g id="cfb-2" data-name="cfb"><g id="dressshoes"><g id="sbbshoes"><path class="cls-1" d="M97.65,762.78S82.51,797.12,117,800.12c0,0,31,0,37-14.5,3-7.24-8-29.5-8-29.5s7.69,22.78,6,25.2-15.5,14.8-33,12.29S94.3,788,97.65,762.78"/><path class="cls-2" d="M107.57,735.12S96.21,758.67,94.86,779.4c0,0,1.15,14.72,22.15,16.22s36-10,36-14.3-10.86-46.2-10.86-46.2l-9.14,6c-1-4.5-19-5.5-19.5,0Z"/><path class="cls-1" d="M98.84,782.62s5.5-3.34,8-3.5v.43s-5.17,1.25-8,3.5Z"/><path class="cls-1" d="M110.77,778s6.17-1.8,8.63-1.31l-.11.42s-5.32-.13-8.63,1.31Z"/><path class="cls-1" d="M122,775.9s6.27-1.41,8.7-.77l-.14.42s-5.3-.46-8.7.77Z"/><path class="cls-1" d="M134.8,774.76s6.4-.65,8.73.27l-.19.4s-5.2-1.09-8.73-.27Z"/><path class="cls-1" d="M146.35,775.5s6.07,2.13,7.79,4l-.34.28s-4.25-3.19-7.78-4Z"/><path class="cls-1" d="M113.5,741.12,117,770.78S112.37,743,113.5,741.12Z"/><path class="cls-1" d="M132.66,771.05s1.49-27.81.63-29.87l-.63,29.87"/><polyline class="cls-1" points="113.78 743.44 122.64 747.78 133.47 742.29 133.54 743.95 122.64 749.28 133.11 751.28 133.11 752.78 122.64 750.45 114.57 754.77 114.41 753.66 121.88 749.28 113.33 744.28 113.78 743.44"/><polyline class="cls-1" points="114.27 754.1 123.13 758.44 133.96 752.94 134.03 754.61 123.13 759.94 133.6 761.94 133.6 763.44 123.13 761.11 115.06 765.43 114.91 764.32 122.37 759.94 113.82 754.94 114.27 754.1"/><polyline class="cls-1" points="114.27 764.09 123.13 768.43 133.96 762.94 134.03 764.6 123.13 769.93 133.6 771.93 133.6 773.43 123.13 771.1 115.06 775.42 114.91 774.31 122.37 769.93 113.82 764.93 114.27 764.09"/></g><g id="sbbshoes-2" data-name="sbbshoes"><path class="cls-1" d="M241.74,760.6s15.14,34.33-19.35,37.33c0,0-31,0-37-14.5-3-7.23,8-29.5,8-29.5s-7.69,22.79-6,25.21,15.51,14.8,33,12.29,24.71-5.67,21.36-30.83"/><path class="cls-2" d="M231.82,732.93s11.36,23.56,12.72,44.28c0,0-1.16,14.72-22.15,16.22s-36-10-36-14.29,10.87-46.21,10.87-46.21l9.13,6c1-4.5,19-5.5,19.5,0Z"/><path class="cls-1" d="M240.56,780.43s-5.5-3.33-8-3.5v.44s5.16,1.25,8,3.5Z"/><path class="cls-1" d="M228.62,775.81s-6.17-1.8-8.63-1.32l.11.43s5.32-.13,8.64,1.31Z"/><path class="cls-1" d="M217.37,773.72s-6.27-1.41-8.69-.77l.14.41s5.29-.46,8.69.78Z"/><path class="cls-1" d="M204.59,772.58s-6.39-.65-8.72.27l.18.39s5.21-1.08,8.73-.27Z"/><path class="cls-1" d="M193,773.32s-6.07,2.12-7.79,3.95l.34.28s4.25-3.2,7.79-3.95Z"/><path class="cls-1" d="M225.89,738.93l-3.5,29.67S227,740.85,225.89,738.93Z"/><path class="cls-1" d="M206.73,768.87s-1.49-27.81-.63-29.87l.63,29.87"/><polyline class="cls-1" points="225.61 741.25 216.75 745.6 205.93 740.1 205.85 741.77 216.75 747.1 206.28 749.1 206.28 750.6 216.75 748.27 224.83 752.59 224.98 751.47 217.51 747.1 226.07 742.1 225.61 741.25"/><polyline class="cls-1" points="225.12 751.91 216.26 756.26 205.43 750.76 205.36 752.42 216.26 757.76 205.79 759.76 205.79 761.26 216.26 758.92 224.33 763.25 224.48 762.13 217.02 757.76 225.57 752.76 225.12 751.91"/><polyline class="cls-1" points="225.12 761.9 216.26 766.25 205.43 760.75 205.36 762.42 216.26 767.75 205.79 769.75 205.79 771.25 216.26 768.92 224.33 773.24 224.48 772.12 217.02 767.75 225.57 762.75 225.12 761.9"/></g></g><g id="cfbpants"><g id="sbbpants"><path class="cls-3" d="M94.1,262.12s57.62,45.59,148.41,0c0,0,23.22,69.58,16.72,152.58s-14,104-14,110,7,86.5,7,92.5-11.5,108.49-11.5,108.49-12.83,10.5-23.91,11.5-29.09-9.49-29.09-9.49-14.87-120.5-12.68-139.5,6.18-56.5,5.18-71.5-7.34-138.5-7.34-138.5l-7.66-1s-4.5,119-9.5,138-1.5,63.5,2,78-9,134-9,134-21,10-27.5,10-24.5-15.5-24.5-15.5-12-129-10-134.5,6-61,6-70-17-53-18-111S84.45,271.64,94.1,262.12Z"/><path class="cls-4" d="M218.41,406.7s6.67,140,4.67,147.33-6.84,182.17-6.84,182.17l-4.05-.68s5.7-175.49,5.63-182.16S218.41,406.7,218.41,406.7Z"/><path class="cls-4" d="M114.64,403.7S108,543.7,110,551s6.84,182.17,6.84,182.17l4-.68s-5.7-175.49-5.63-182.15S114.64,403.7,114.64,403.7Z"/><path class="cls-5" d="M90.6,268.31s-5.41,8.29-4.44,15.13c0,0,47.9,16.3,79.53,16.48,32.88.17,82.66-16.44,82.66-16.44s.33-13.78-4-15.17C244.39,268.31,186.38,306.51,90.6,268.31Z"/><rect class="cls-6" x="155.07" y="284.51" width="24.37" height="17.41" rx="2.9" ry="2.9"/><rect class="cls-5" x="160.38" y="288.65" width="13.78" height="9.28" rx="1.59" ry="1.59"/></g><rect class="cls-3" x="135.56" y="281.84" width="4.93" height="18.08" rx="1.47" ry="1.47"/><rect class="cls-3" x="193.31" y="281.84" width="4.93" height="18.08" rx="1.47" ry="1.47"/><rect class="cls-3" x="231.39" y="271.45" width="4.93" height="18.08" rx="1.47" ry="1.47"/><rect class="cls-3" x="93.59" y="268.85" width="4.93" height="18.08" rx="1.47" ry="1.47"/><path class="cls-4" d="M205.73,316.36S219.23,340,251.48,335C251.48,335,219.73,346,205.73,316.36Z"/><path class="cls-4" d="M132.35,318s-12.88,23.67-43.67,18.67C88.68,336.65,119,347.64,132.35,318Z"/><path class="cls-4" d="M162.4,321.91s-6.56,49.29,5.89,48.79C168.29,370.7,158.34,368.13,162.4,321.91Z"/></g><g id="cfbshirt"><g id="shirt"><path class="cls-7" d="M130.12,11.13S59.23,36.82,52.56,44.49s-14.67,39.33-13,59.33c0,0-32.67,110.75-31.33,140.22L6.41,305.82l-3.18-2.33,3.44,28.94S27,335.89,35,328.19l5.28-22-2.34-.34S66.23,251.6,66.56,244s19.67-96.55,19.67-96.55,6,36,5.66,44,3.67,66,3.67,66l-6.88,4.63s56.32,39.8,154,9.33l-3.47-15s2-54,.33-69.33l12.67-33s16.33,98.33,30,125l16.66,25.33h-3l7.55,15s16.48,5.68,26-1.68l2.86-19.35h-2s-2-77.67-5.34-87.67-20.66-95.33-26.66-105.33c0,0,4.66-52.67-21-67.33,0,0-58-16.16-72.36-25.25,0,0-6.85,9.46-35.85,12.79S130.12,11.13,130.12,11.13Z"/><g id="sbbshirt2"><path class="cls-8" d="M162.68,28.59,167.52,283s4.73-.23,5.87-.23L175,28.24Z"/><path class="cls-7" d="M169.83,30s-1.9-1.95-1.9,4.05V282.9l1.47,0S169.16,33.89,169.83,30Z"/><circle class="cls-9" cx="167.93" cy="73.01" r="3.22"/><path class="cls-10" d="M168.8,70.53s-2.93-.27-3.37,1.75a2.83,2.83,0,0,0,2.5,3.44S162.93,72.28,168.8,70.53Z"/><circle class="cls-10" cx="167.93" cy="73.22" r="0.75"/><circle class="cls-9" cx="168.57" cy="49.37" r="3.22"/><path class="cls-10" d="M169.44,46.89s-2.93-.27-3.37,1.75a2.83,2.83,0,0,0,2.5,3.44S163.57,48.64,169.44,46.89Z"/><circle class="cls-10" cx="168.57" cy="49.58" r="0.75"/><circle class="cls-9" cx="168.27" cy="99.89" r="3.22"/><path class="cls-10" d="M169.14,97.41s-2.93-.27-3.37,1.75a2.83,2.83,0,0,0,2.5,3.44S163.27,99.16,169.14,97.41Z"/><circle class="cls-10" cx="168.27" cy="100.1" r="0.75"/><circle class="cls-9" cx="168.85" cy="131.54" r="3.22"/><path class="cls-10" d="M169.72,129.06s-2.93-.27-3.37,1.75a2.83,2.83,0,0,0,2.5,3.44S163.85,130.81,169.72,129.06Z"/><circle class="cls-10" cx="168.85" cy="131.74" r="0.75"/><circle class="cls-9" cx="169.19" cy="158.41" r="3.22"/><path class="cls-10" d="M170.06,155.93s-2.93-.27-3.37,1.75a2.83,2.83,0,0,0,2.5,3.44S164.19,157.68,170.06,155.93Z"/><circle class="cls-10" cx="169.19" cy="158.62" r="0.75"/><circle class="cls-9" cx="169.1" cy="185.29" r="3.22"/><path class="cls-10" d="M170,182.81s-2.93-.27-3.37,1.75a2.83,2.83,0,0,0,2.5,3.44S164.1,184.56,170,182.81Z"/><circle class="cls-10" cx="169.1" cy="185.5" r="0.75"/><circle class="cls-9" cx="169.44" cy="212.16" r="3.22"/><path class="cls-10" d="M170.31,209.69s-2.93-.27-3.37,1.75a2.82,2.82,0,0,0,2.5,3.43S164.44,211.44,170.31,209.69Z"/><circle class="cls-10" cx="169.44" cy="212.37" r="0.75"/><circle class="cls-9" cx="169.8" cy="233.61" r="3.22"/><path class="cls-10" d="M170.67,231.13s-2.92-.27-3.37,1.75a2.84,2.84,0,0,0,2.5,3.44S164.8,232.88,170.67,231.13Z"/><circle class="cls-10" cx="169.8" cy="233.82" r="0.75"/><circle class="cls-9" cx="170.14" cy="260.48" r="3.22"/><path class="cls-10" d="M171,258s-2.93-.27-3.37,1.75a2.83,2.83,0,0,0,2.5,3.44S165.14,259.75,171,258Z"/><circle class="cls-10" cx="170.14" cy="260.69" r="0.75"/><circle class="cls-11" cx="34.15" cy="309.85" r="2.21"/><circle class="cls-11" cx="304.05" cy="309.43" r="2.21"/><path class="cls-12" d="M239.92,112.35s-7.8,8-26.55,7.5c0,0,15,4.5,26.55-5.38Z"/><path class="cls-8" d="M175.82,241.87s-3.37,44.85,9.48,38.85C185.3,280.72,176.82,290.68,175.82,241.87Z"/></g></g><path class="cls-7" d="M136.68,1S128.44,19.2,112.09,24c0,0,28.13,18.75,38.63,22.92L164.28,20.1S155.56,12.26,136.68,1Z"/><path class="cls-12" d="M111.31,17.51s9.53,16.87,30.74,30.36V41.31S118.42,25.73,111.31,17.51Z"/><path class="cls-8" d="M159.3,18.36s-14.62,14.49-13.12,28.52l1.71-1.4S150.68,24.44,159.3,18.36Z"/><path class="cls-7" d="M201.56,1.78s6.45,20,15.85,24c0,0-22.7,19.25-33.2,23.41L173.74,21.41A86.13,86.13,0,0,1,201.56,1.78Z"/><path class="cls-12" d="M223.92,19.66s-9.84,17-31,30.51V43.62S216.81,27.88,223.92,19.66Z"/><path class="cls-8" d="M175.62,20.67s14.63,14.48,13.13,28.51L187,47.79S184.25,26.74,175.62,20.67Z"/><rect class="cls-13" x="161.43" y="20.1" width="13.47" height="13.47" rx="4.2" ry="4.2"/><path class="cls-5" d="M173.74,21.41s19.36-17.31,23.19-14S173.74,21.41,173.74,21.41Z"/><path class="cls-13" d="M196.93,7.43s1.75,6.67.38,12.67,2.75,10.83.52,15.5-24.09-4.75-24.09-4.75,2.31-3.63,0-9.44"/><path class="cls-5" d="M174.91,24.3l13.36-6.2-10.69,6.2h7l-7.75,1.16.08,2.14,7.84,3.25-9.86-1.48A3.75,3.75,0,0,0,174.91,24.3Z"/><path class="cls-14" d="M193.7,11s1.44,8.1,0,11.2,1.57,11.41,1.57,11.41-1-7.81,0-10.47S193.7,11,193.7,11Z"/><path class="cls-5" d="M163.4,22.7S144,5.39,140.21,8.72,163.4,22.7,163.4,22.7Z"/><path class="cls-13" d="M140.21,8.72s-1.75,6.67-.37,12.67-2.76,10.83-.53,15.5,24.09-4.75,24.09-4.75-2.31-3.63,0-9.44"/><path class="cls-5" d="M162.24,25.59l-13.36-6.2,10.68,6.2h-7l7.76,1.16-.09,2.14-7.83,3.25,9.86-1.48A3.74,3.74,0,0,1,162.24,25.59Z"/><path class="cls-14" d="M143.44,12.26s-1.44,8.09,0,11.2-1.56,11.4-1.56,11.4,1-7.8,0-10.47S143.44,12.26,143.44,12.26Z"/><path class="cls-5" d="M163.4,21.41s1.63,1.95,0,10.73C163.4,32.14,167.37,25.55,163.4,21.41Z"/><path class="cls-14" d="M166.07,24.47s5.49-2.43,7.67,0C173.74,24.47,167.54,17.18,166.07,24.47Z"/><path class="cls-15" d="M111.31,17.51S56.33,34.66,50,43.66,35.6,98.6,36.67,104.36c0,0-29.52,109.33-30.26,133s-6.41,66-6.41,66,16.67,12.28,46,4.31c0,0,19.67-53.64,22-61.31S85,153,85,153s3.37,86,0,99-16,76.31-16,76.31,53.52,18.17,78.5,18.53l-1.32-300S109.62,27.85,111.31,17.51Z"/><path class="cls-16" d="M119.67,6.53S96.89,12.11,89.5,24.34l32.62,65.5-14.86,4.45s-2,1.65-1.45,3.49,41,100.38,41,100.38S145.36,46,142.45,37.56,127.22,3.59,119.67,6.53Z"/><path class="cls-15" d="M224.92,9.2s57.23,26,63.56,35,14.4,54.93,13.34,60.69c0,0,29.52,109.34,30.26,133s6.4,66,6.4,66-16.66,12.28-46,4.3c0,0-21.67-53.64-24-61.3s-15.62-89-15.62-89-2.79,81.69.58,94.69,16,76.31,16,76.31-53.5,17.64-78.48,18v-300S226.61,19.54,224.92,9.2Z"/><path class="cls-16" d="M217.7,9s22.39,5.59,29.66,17.82L215.29,92.34l14.61,4.45s2,1.65,1.43,3.49S190,200.16,190,200.16s-2.85-144.8,0-153.28S210.28,6,217.7,9Z"/><path class="cls-16" d="M100.93,15S131.86-.84,138.68,0c0,0-4.9,12.4-15.16,13.51C123.52,13.55,119.86,8.54,100.93,15Z"/><path class="cls-16" d="M237.56,15.78S206.63,0,199.81.84c0,0,3,13.37,12.88,14.94C212.69,15.78,218.63,9.34,237.56,15.78Z"/><polygon class="cls-17" points="220.83 125.85 245 125.85 245 131.54 218.47 131.54 220.83 125.85"/><path class="cls-18" d="M225.1,115.51s2.9,2.15,3.27,4.9c0,0,6.88-14.33,9.63-14.29s7,19.73,7,19.73H220.83Z"/><path class="cls-19" d="M229.67,120.87s6.91-14.71,8.83-12.37C238.5,108.5,237.83,107.16,229.67,120.87Z"/><path class="cls-19" d="M224.92,120.33s2,4.25,4.75,4.25,2.83-1.67,2.83-1.67a5.94,5.94,0,0,1-2.83.92A7.44,7.44,0,0,1,224.92,120.33Z"/><polygon class="cls-15" points="219.74 128.07 245 128.07 245 129.83 218.88 129.83 219.74 128.07"/></g></g></g></g></svg>