<?xml version="1.0" encoding="utf-8"?>
<!-- Generator: Adobe Illustrator 22.1.0, SVG Export Plug-In . SVG Version: 6.00 Build 0)  -->
<svg version="1.1" id="Layer_1" xmlns="http://www.w3.org/2000/svg" xmlns:xlink="http://www.w3.org/1999/xlink" x="0px" y="0px"
	 viewBox="0 0 183 415" style="enable-background:new 0 0 183 415;" xml:space="preserve">
<style type="text/css">
	.st0{fill:none;}
	.st1{fill:#473319;}
	.st2{fill:#684B1E;}
	.st3{fill:#1E1E1E;}
	.st4{fill:#2B2B2B;}
	.st5{fill:#473B35;}
	.st6{fill:#878589;}
	.st7{fill:#D4D6D6;}
	.st8{fill:#C6C6C6;}
	.st9{fill:#666565;}
	.st10{fill:#543D3A;}
	.st11{fill:#42302D;}
	.st12{fill:#CE8D8D;}
	.st13{fill:#3A3A3A;}
	.st14{fill:#212121;}
	.st15{fill:#4C4C4C;}
	.st16{fill:#344B5B;}
	.st17{fill:#3B5360;}
	.st18{fill:#455B68;}
	.st19{fill:#EACCE4;}
	.st20{fill:#DDBFD7;}
</style>
<title>cfb2</title>
<g id="Layer_2_1_">
	<g id="cfb2">
		<g id="cfb2-2">
			<rect class="st0" width="183" height="415"/>
			<g id="dressshoes">
				<g id="sbbshoes">
					<path class="st1" d="M51.6,379.6c0,0-7.5,17,9.6,18.5c0,0,15.3,0,18.3-7.2c1.5-3.6-4-14.6-4-14.6s3.8,11.3,3,12.5
						s-7.7,7.3-16.3,6.1S50,392.1,51.6,379.6"/>
					<path class="st2" d="M56.5,365.9c0,0-5.6,11.7-6.3,22c0,0,0.6,7.3,10.9,8s17.8-5,17.8-7.1s-5.4-22.9-5.4-22.9l-4.5,3
						c-0.5-2.2-9.4-2.7-9.6,0L56.5,365.9z"/>
					<path class="st1" d="M52.2,389.4c0,0,2.7-1.7,4-1.7v0.2c-1.4,0.3-2.8,0.9-4,1.7V389.4z"/>
					<path class="st1" d="M58.1,387.1c0,0,3-0.9,4.3-0.6l-0.1,0.2c-1.4,0-2.9,0.2-4.3,0.6L58.1,387.1z"/>
					<path class="st1" d="M63.7,386.1c0,0,3.1-0.7,4.3-0.4l-0.1,0.2c-1.4-0.1-2.9,0-4.3,0.4L63.7,386.1z"/>
					<path class="st1" d="M70,385.5c0,0,3.2-0.3,4.3,0.1l-0.1,0.2c-1.4-0.3-2.9-0.3-4.3-0.1L70,385.5z"/>
					<path class="st1" d="M75.7,385.9c0,0,3,1,3.8,2l-0.2,0.1c-1.2-0.9-2.5-1.6-3.8-2L75.7,385.9z"/>
					<path class="st1" d="M59.5,368.8l1.7,14.7C61.2,383.6,58.9,369.8,59.5,368.8z"/>
					<path class="st1" d="M68.9,383.7c0,0,0.7-13.8,0.3-14.8L68.9,383.7"/>
					<polyline class="st1" points="59.6,370 64,372.1 69.3,369.4 69.4,370.2 64,372.9 69.1,373.9 69.1,374.6 64,373.5 60,375.6 
						59.9,375 63.6,372.9 59.4,370.4 59.6,370 					"/>
					<polyline class="st1" points="59.8,375.3 64.2,377.4 69.6,374.7 69.6,375.5 64.2,378.2 69.4,379.2 69.4,379.9 64.2,378.8 
						60.2,380.9 60.2,380.4 63.8,378.2 59.6,375.7 59.8,375.3 					"/>
					<polyline class="st1" points="59.8,380.2 64.2,382.4 69.6,379.7 69.6,380.5 64.2,383.1 69.4,384.1 69.4,384.9 64.2,383.7 
						60.2,385.9 60.2,385.3 63.8,383.1 59.6,380.6 59.8,380.2 					"/>
				</g>
				<g id="sbbshoes-2">
					<path class="st1" d="M122.8,378.5c0,0,7.5,17-9.6,18.5c0,0-15.3,0-18.3-7.2c-1.5-3.6,4-14.6,4-14.6s-3.8,11.3-3,12.5
						s7.7,7.4,16.3,6.1S124.5,391,122.8,378.5"/>
					<path class="st2" d="M117.9,364.8c0,0,5.6,11.7,6.3,22c0,0-0.6,7.3-10.9,8s-17.8-5-17.8-7.1s5.4-22.9,5.4-22.9l4.5,3
						c0.5-2.2,9.4-2.7,9.6,0L117.9,364.8z"/>
					<path class="st1" d="M122.2,388.4c0,0-2.7-1.7-4-1.7v0.2c1.4,0.3,2.8,0.9,4,1.7V388.4z"/>
					<path class="st1" d="M116.3,386c0,0-3-0.9-4.3-0.6l0.1,0.2c1.4,0,2.9,0.2,4.3,0.6L116.3,386z"/>
					<path class="st1" d="M110.8,385c0,0-3.1-0.7-4.3-0.4l0.1,0.2c1.4-0.1,2.9,0,4.3,0.4L110.8,385z"/>
					<path class="st1" d="M104.5,384.5c0,0-3.2-0.3-4.3,0.1l0.1,0.2c1.4-0.3,2.9-0.3,4.3-0.1L104.5,384.5z"/>
					<path class="st1" d="M98.7,384.8c0,0-3,1.1-3.8,2l0.2,0.1c1.2-0.9,2.5-1.6,3.8-2L98.7,384.8z"/>
					<path class="st1" d="M115,367.8l-1.7,14.7C113.3,382.5,115.5,368.7,115,367.8z"/>
					<path class="st1" d="M105.5,382.6c0,0-0.7-13.8-0.3-14.8L105.5,382.6"/>
					<polyline class="st1" points="114.8,368.9 110.5,371.1 105.1,368.3 105.1,369.1 110.5,371.8 105.3,372.8 105.3,373.5 
						110.5,372.4 114.4,374.5 114.5,374 110.8,371.8 115.1,369.3 114.8,368.9 					"/>
					<polyline class="st1" points="114.6,374.2 110.2,376.4 104.9,373.6 104.8,374.4 110.2,377.1 105,378.1 105,378.8 110.2,377.7 
						114.2,379.8 114.3,379.3 110.6,377.1 114.8,374.6 114.6,374.2 					"/>
					<polyline class="st1" points="114.6,379.1 110.2,381.3 104.9,378.6 104.8,379.4 110.2,382 105,383 105,383.8 110.2,382.6 
						114.2,384.8 114.3,384.2 110.6,382 114.8,379.6 114.6,379.1 					"/>
				</g>
			</g>
			<g id="cfbpants2">
				<g id="sbbpants">
					<path class="st3" d="M50.1,131.9c0,0,28.5,22.6,73.3,0c7.3,24.5,10.1,50.2,8.3,75.7c-3.2,41.2-6.9,51.6-6.9,54.6
						s3.5,42.9,3.5,45.9s-5.7,53.9-5.7,53.9s-6.3,5.2-11.8,5.7S96.4,363,96.4,363s-7.3-59.8-6.3-69.2s3.1-28,2.6-35.5
						s-3.6-68.8-3.6-68.8l-3.8-0.5c0,0-2.2,59.1-4.7,68.5s-0.7,31.5,1,38.7s-4.4,66.5-4.4,66.5s-10.4,5-13.6,5S51.4,360,51.4,360
						s-5.9-64-4.9-66.8s3-30.3,3-34.7s-8.4-26.3-8.9-55.1S45.4,136.6,50.1,131.9z"/>
					<path class="st4" d="M111.5,203.6c0,0,3.3,69.5,2.3,73.1s-3.4,90.4-3.4,90.4l-2-0.3c0,0,2.8-87.1,2.8-90.4
						S111.5,203.6,111.5,203.6z"/>
					<path class="st4" d="M60.3,202.1c0,0-3.3,69.5-2.3,73.1s3.4,90.4,3.4,90.4l2-0.3c0,0-2.8-87.1-2.8-90.4S60.3,202.1,60.3,202.1z
						"/>
					<path class="st5" d="M48.4,135c0,0-2.7,4.1-2.2,7.5c0,0,23.7,8.1,39.3,8.2c16.2,0.1,40.8-8.2,40.8-8.2s0.2-6.8-2-7.5
						C124.4,135,95.7,153.9,48.4,135z"/>
					<path class="st6" d="M81.8,143h9c0.8,0,1.5,0.7,1.5,1.5v5.6c0,0.8-0.7,1.5-1.5,1.5h-9c-0.8,0-1.5-0.7-1.5-1.5v-5.6
						C80.3,143.7,80.9,143,81.8,143z"/>
					<path class="st5" d="M83.7,145h5.2c0.4,0,0.8,0.4,0.8,0.8v3c0,0.4-0.4,0.8-0.8,0.8h-5.2c-0.4,0-0.8-0.4-0.8-0.8v-3
						C82.9,145.4,83.2,145,83.7,145z"/>
				</g>
				<path class="st3" d="M71.8,141.7L71.8,141.7c0.7,0,1.2,0.5,1.2,1.2v6.5c0,0.7-0.5,1.2-1.2,1.2h0c-0.7,0-1.2-0.5-1.2-1.2v-6.5
					C70.6,142.2,71.2,141.7,71.8,141.7z"/>
				<path class="st3" d="M100.4,141.7L100.4,141.7c0.7,0,1.2,0.5,1.2,1.2v6.5c0,0.7-0.5,1.2-1.2,1.2h0c-0.7,0-1.2-0.5-1.2-1.2v-6.5
					C99.1,142.2,99.7,141.7,100.4,141.7z"/>
				<path class="st3" d="M119.2,136.5L119.2,136.5c0.7,0,1.2,0.5,1.2,1.2v6.5c0,0.7-0.5,1.2-1.2,1.2h0c-0.7,0-1.2-0.5-1.2-1.2v-6.5
					C118,137.1,118.5,136.5,119.2,136.5z"/>
				<path class="st3" d="M51.1,135.2L51.1,135.2c0.7,0,1.2,0.5,1.2,1.2v6.5c0,0.7-0.5,1.2-1.2,1.2l0,0c-0.7,0-1.2-0.5-1.2-1.2v-6.5
					C49.9,135.8,50.4,135.2,51.1,135.2z"/>
				<path class="st4" d="M105.3,158.8c0,0,6.7,11.8,22.6,9.3C127.9,168.1,112.2,173.5,105.3,158.8z"/>
				<path class="st4" d="M69,159.6c0,0-6.4,11.8-21.6,9.3C47.5,168.9,62.4,174.3,69,159.6z"/>
				<path class="st4" d="M83.9,161.6c0,0-3.2,24.4,2.9,24.2C86.8,185.8,81.9,184.5,83.9,161.6z"/>
			</g>
			<g id="cfbshirt2">
				<g id="shirt">
					<path class="st7" d="M68.2,7.5c0,0-35,12.8-38.3,16.6s-7.2,19.5-6.4,29.5c0,0-16.1,55-15.5,69.6l-0.9,30.7l-1.6-1.2L7.2,167
						c0,0,10.1,1.7,14-2.1l2.6-10.9l-1.1-0.2c0,0,14-26.9,14.2-30.7s9.7-47.9,9.7-47.9s3,17.9,2.8,21.8s1.8,32.8,1.8,32.8l-3.4,2.3
						c0,0,27.8,19.8,76.1,4.6l-1.7-7.4c0,0,1-26.8,0.2-34.4l6.3-16.4c0,0,8.1,48.8,14.8,62l8.2,12.6h-1.5l3.7,7.5
						c0,0,8.1,2.8,12.8-0.8l1.4-9.6h-1c0,0-1-38.6-2.6-43.5s-10.2-47.3-13.2-52.3c0,0,2.3-26.1-10.4-33.4c0,0-28.7-8-35.7-12.5
						c0,0-3.4,4.7-17.7,6.3S68.2,7.5,68.2,7.5z"/>
					<g id="sbbshirt2">
						<path class="st8" d="M84.3,16.2l2.4,126.3c0,0,2.3-0.1,2.9-0.1L90.3,16L84.3,16.2z"/>
						<path class="st7" d="M87.8,16.9c0,0-0.9-1-0.9,2v123.5h0.7C87.6,142.4,87.5,18.8,87.8,16.9z"/>
						<ellipse class="st9" cx="86.8" cy="38.2" rx="1.6" ry="1.6"/>
						<path class="st10" d="M87.3,37c0,0-1.4-0.1-1.7,0.9c-0.2,0.8,0.3,1.5,1.1,1.7c0.1,0,0.1,0,0.2,0C86.8,39.6,84.4,37.9,87.3,37z
							"/>
						<circle class="st10" cx="86.8" cy="38.3" r="0.4"/>
						<ellipse class="st9" cx="87.2" cy="26.5" rx="1.6" ry="1.6"/>
						<path class="st10" d="M87.6,25.3c0,0-1.4-0.1-1.7,0.9c-0.2,0.8,0.3,1.5,1.1,1.7c0.1,0,0.1,0,0.2,0
							C87.2,27.8,84.7,26.1,87.6,25.3z"/>
						<circle class="st10" cx="87.2" cy="26.6" r="0.4"/>
						<ellipse class="st9" cx="87" cy="51.6" rx="1.6" ry="1.6"/>
						<path class="st10" d="M87.4,50.3c0,0-1.4-0.1-1.7,0.9c-0.2,0.8,0.3,1.5,1.1,1.7c0.1,0,0.1,0,0.2,0
							C87,52.9,84.5,51.2,87.4,50.3z"/>
						<circle class="st10" cx="87" cy="51.7" r="0.4"/>
						<ellipse class="st9" cx="87.3" cy="67.3" rx="1.6" ry="1.6"/>
						<path class="st10" d="M87.7,66c0,0-1.4-0.1-1.7,0.9c-0.2,0.8,0.3,1.5,1.1,1.7c0.1,0,0.1,0,0.2,0C87.3,68.6,84.8,66.9,87.7,66z
							"/>
						<circle class="st10" cx="87.3" cy="67.4" r="0.4"/>
						<ellipse class="st9" cx="87.5" cy="80.6" rx="1.6" ry="1.6"/>
						<path class="st10" d="M87.9,79.4c0,0-1.4-0.1-1.7,0.9c-0.2,0.7,0.2,1.5,1,1.7c0.1,0,0.2,0,0.3,0C87.5,82,85,80.3,87.9,79.4z"
							/>
						<circle class="st10" cx="87.5" cy="80.7" r="0.4"/>
						<ellipse class="st9" cx="87.4" cy="94" rx="1.6" ry="1.6"/>
						<path class="st10" d="M87.9,92.7c0,0-1.4-0.1-1.7,0.9c-0.2,0.8,0.3,1.5,1.1,1.7c0.1,0,0.1,0,0.2,0
							C87.4,95.3,85,93.6,87.9,92.7z"/>
						<circle class="st10" cx="87.4" cy="94.1" r="0.4"/>
						<ellipse class="st9" cx="87.6" cy="107.3" rx="1.6" ry="1.6"/>
						<path class="st10" d="M88,106.1c0,0-1.4-0.1-1.7,0.9c-0.2,0.8,0.3,1.5,1.1,1.7c0.1,0,0.1,0,0.2,0
							C87.6,108.6,85.1,106.9,88,106.1z"/>
						<circle class="st10" cx="87.6" cy="107.4" r="0.4"/>
						<ellipse class="st9" cx="87.8" cy="117.9" rx="1.6" ry="1.6"/>
						<path class="st10" d="M88.2,116.7c0,0-1.4-0.1-1.7,0.9c-0.2,0.8,0.3,1.5,1.1,1.7c0.1,0,0.1,0,0.2,0
							C87.8,119.3,85.3,117.6,88.2,116.7z"/>
						<circle class="st10" cx="87.8" cy="118" r="0.4"/>
						<ellipse class="st9" cx="87.9" cy="131.3" rx="1.6" ry="1.6"/>
						<path class="st10" d="M88.4,130c0,0-1.4-0.1-1.7,0.9c-0.2,0.8,0.3,1.5,1,1.7c0.1,0,0.1,0,0.2,0
							C87.9,132.6,85.5,130.9,88.4,130z"/>
						<circle class="st10" cx="87.9" cy="131.4" r="0.4"/>
						<ellipse class="st11" cx="20.8" cy="155.8" rx="1.1" ry="1.1"/>
						<ellipse class="st11" cx="154.1" cy="155.6" rx="1.1" ry="1.1"/>
						<path class="st12" d="M122.4,57.7c0,0-3.8,4-13.1,3.7c0,0,7.4,2.2,13.1-2.7V57.7z"/>
						<path class="st8" d="M90.7,122c0,0-1.7,22.3,4.7,19.3C95.4,141.3,91.2,146.3,90.7,122z"/>
					</g>
				</g>
				<path class="st7" d="M71.4,2.5c0,0-4.1,9-12.2,11.4c0,0,13.9,9.3,19.1,11.4L85,12C85,12,80.7,8.1,71.4,2.5z"/>
				<path class="st12" d="M58.9,10.7c3.9,6.1,9.1,11.2,15.2,15.1v-3.2C74.1,22.5,62.4,14.8,58.9,10.7z"/>
				<path class="st8" d="M82.6,11.1c0,0-7.2,7.2-6.5,14.2l0.8-0.7C76.9,24.6,78.3,14.1,82.6,11.1z"/>
				<path class="st7" d="M103.5,2.9c0,0,5,9,9.6,11c0,0-13,10.4-18.2,12.5l-5.2-13.8C93.6,8.5,98.3,5.2,103.5,2.9z"/>
				<path class="st12" d="M114.5,11.7c-3.9,6.1-9.2,11.3-15.3,15.1v-3.3C99.2,23.6,111,15.8,114.5,11.7z"/>
				<path class="st8" d="M90.6,12.2c0,0,7.2,7.2,6.5,14.1l-0.8-0.7C96.3,25.7,94.9,15.3,90.6,12.2z"/>
				<path class="st13" d="M84.8,12h4.3c0.6,0,1.2,0.5,1.2,1.2v4.3c0,0.6-0.5,1.2-1.2,1.2h-4.3c-0.6,0-1.2-0.5-1.2-1.2v-4.3
					C83.6,12.5,84.2,12,84.8,12z"/>
				<path class="st14" d="M89.7,12.6c0,0,9.6-8.6,11.5-6.9S89.7,12.6,89.7,12.6z"/>
				<path class="st13" d="M101.2,5.7c0.5,2.1,0.6,4.2,0.2,6.3c-0.7,3,1.4,5.4,0.3,7.7s-11.9-2.4-11.9-2.4c0.7-1.5,0.7-3.2,0-4.7"/>
				<path class="st14" d="M90.3,14l6.6-3l-5.3,3h3.5l-3.8,0.6v1.1l3.9,1.6l-4.9-0.7C90.9,15.8,90.9,14.7,90.3,14z"/>
				<path class="st15" d="M99.6,7.4c0,0,0.7,4,0,5.6s0.8,5.7,0.8,5.7s-0.5-3.9,0-5.2S99.6,7.4,99.6,7.4z"/>
				<path class="st14" d="M84.6,13.3c0,0-9.6-8.6-11.4-6.9S84.6,13.3,84.6,13.3z"/>
				<path class="st13" d="M73.2,6.3c-0.5,2.1-0.5,4.2-0.2,6.3c0.7,3-1.4,5.4-0.3,7.7s11.9-2.4,11.9-2.4c-0.7-1.5-0.7-3.2,0-4.7"/>
				<path class="st14" d="M84,14.7l-6.6-3.1l5.3,3.1h-3.4l3.8,0.6v1.1l-3.9,1.6l4.8-0.7C83.3,16.5,83.3,15.4,84,14.7z"/>
				<path class="st15" d="M74.7,8.1c0,0-0.7,4,0,5.6S74,19.3,74,19.3s0.5-3.9,0-5.2S74.7,8.1,74.7,8.1z"/>
				<path class="st14" d="M84.6,12.6c0,0,0.8,1,0,5.3C84.6,17.9,86.6,14.7,84.6,12.6z"/>
				<path class="st15" d="M85.9,14.1c0,0,2.7-1.2,3.8,0C89.7,14.1,86.7,10.5,85.9,14.1z"/>
				<path class="st16" d="M58.9,10.7c0,0-27.2,8.5-30.3,13S21.5,50.9,22,53.8c0,0-14.6,54.3-14.9,66s-3.2,32.8-3.2,32.8
					s8.2,6.1,22.7,2.1c0,0,9.7-26.6,10.9-30.4s8.4-46.3,8.4-46.3s1.7,42.7,0,49.2c-1.7,6.5-7.9,37.9-7.9,37.9s26.4,9,38.8,9.2
					L76.1,25.3C76.1,25.3,58,15.8,58.9,10.7z"/>
				<path class="st17" d="M63,5.2c0,0-11.2,2.8-14.9,8.8l16.1,32.5l-7.3,2.2c0,0-1,0.8-0.7,1.7s20.3,49.8,20.3,49.8s1-72.7-0.4-76.9
					S66.7,3.8,63,5.2z"/>
				<path class="st16" d="M115,6.6c0,0,28.3,12.9,31.4,17.4s7.1,27.3,6.6,30.1c0,0,14.6,54.3,14.9,66s3.2,32.8,3.2,32.8
					s-8.2,6.1-22.7,2.1c0,0-10.7-26.6-11.9-30.4s-7.7-44.2-7.7-44.2s-1.4,40.6,0.3,47c1.7,6.5,7.9,37.9,7.9,37.9s-26.4,8.8-38.8,8.9
					V25.3C98.2,25.3,115.8,11.7,115,6.6z"/>
				<path class="st17" d="M111.4,6.4c0,0,11.1,2.8,14.7,8.8l-15.8,32.5l7.2,2.2c0,0,1,0.8,0.7,1.7s-20.4,49.6-20.4,49.6
					s-1.4-71.9,0-76.1S107.8,5,111.4,6.4z"/>
				<path class="st16" d="M53.8,9.4c0,0,15.2-7.8,18.6-7.4c0,0-2.4,6.2-7.5,6.7C64.9,8.7,63.1,6.2,53.8,9.4z"/>
				<path class="st16" d="M121.2,9.3c0,0-15.2-7.8-18.7-7.4c0,0,1.5,6.6,6.4,7.4C109,9.3,111.9,6.1,121.2,9.3z"/>
				<polygon class="st18" points="113,64.5 124.9,64.5 124.9,67.3 111.8,67.3 				"/>
				<path class="st19" d="M115.1,59.3c0.8,0.6,1.4,1.5,1.6,2.4c0,0,3.4-7.1,4.8-7.1s3.5,9.8,3.5,9.8H113L115.1,59.3z"/>
				<path class="st20" d="M117.3,62c0,0,3.4-7.3,4.4-6.1C121.7,55.8,121.4,55.2,117.3,62z"/>
				<path class="st20" d="M115,61.7c0,0,1,2.1,2.3,2.1s1.4-0.8,1.4-0.8c-0.4,0.3-0.9,0.4-1.4,0.5C116.4,63.2,115.5,62.6,115,61.7z"
					/>
				<polygon class="st16" points="112.4,65.6 124.9,65.6 124.9,66.4 112,66.4 				"/>
			</g>
		</g>
	</g>
</g>
</svg>
