<svg xmlns="http://www.w3.org/2000/svg" viewBox="0 0 338.48 804.31"><defs><style>.cls-1{fill:#473319;}.cls-2{fill:#684b1e;}.cls-3{fill:#1e1e1e;}.cls-4{fill:#2b2b2b;}.cls-5{fill:#473b35;}.cls-6{fill:#878589;}.cls-7{fill:#d4d6d6;}.cls-8{fill:#c6c6c6;}.cls-9{fill:#666565;}.cls-10{fill:#543d3a;}.cls-11{fill:#42302d;}.cls-12{fill:#ce8d8d;}.cls-13{fill:#3a3a3a;}.cls-14{fill:#212121;}.cls-15{fill:#4c4c4c;}.cls-16{fill:#344b5b;}.cls-17{fill:#3b5360;}.cls-18{fill:#455b68;}.cls-19{fill:#eacce4;}.cls-20{fill:#ddbfd7;}</style></defs><title>cfb2</title><g id="Layer_2" data-name="Layer 2"><g id="cfb2"><g id="cfb2-2" data-name="cfb2"><g id="dressshoes"><g id="sbbshoes"><path class="cls-1" d="M98.66,767S83.51,801.31,118,804.31c0,0,31,0,37-14.5,3-7.23-8-29.5-8-29.5s7.68,22.79,6,25.21-15.5,14.8-33,12.29S95.31,792.14,98.66,767"/><path class="cls-2" d="M108.57,739.31s-11.36,23.56-12.71,44.28c0,0,1.15,14.72,22.15,16.22s36-10,36-14.29-10.86-46.21-10.86-46.21l-9.13,6c-1-4.5-19-5.5-19.5,0Z"/><path class="cls-1" d="M99.84,786.81s5.5-3.33,8-3.5v.44s-5.17,1.25-8,3.5Z"/><path class="cls-1" d="M111.77,782.19s6.17-1.8,8.63-1.32l-.11.42s-5.32-.12-8.63,1.32Z"/><path class="cls-1" d="M123,780.1s6.27-1.41,8.7-.77l-.14.41s-5.3-.46-8.7.77Z"/><path class="cls-1" d="M135.8,779s6.4-.66,8.73.26l-.19.4s-5.2-1.09-8.73-.27Z"/><path class="cls-1" d="M147.35,779.7s6.07,2.12,7.79,3.95l-.33.27s-4.25-3.19-7.79-3.94Z"/><path class="cls-1" d="M114.51,745.31,118,775S113.37,747.23,114.51,745.31Z"/><path class="cls-1" d="M133.66,775.24s1.49-27.81.63-29.86l-.63,29.86"/><polyline class="cls-1" points="114.78 747.63 123.64 751.98 134.47 746.48 134.54 748.14 123.64 753.48 134.11 755.48 134.11 756.98 123.64 754.64 115.57 758.97 115.42 757.85 122.88 753.48 114.33 748.48 114.78 747.63"/><polyline class="cls-1" points="115.27 758.29 124.14 762.64 134.96 757.14 135.04 758.8 124.14 764.14 134.61 766.14 134.61 767.64 124.14 765.3 116.06 769.63 115.91 768.51 123.38 764.14 114.82 759.14 115.27 758.29"/><polyline class="cls-1" points="115.27 768.28 124.14 772.63 134.96 767.13 135.04 768.79 124.14 774.13 134.61 776.13 134.61 777.63 124.14 775.29 116.06 779.62 115.91 778.5 123.38 774.13 114.82 769.13 115.27 768.28"/></g><g id="sbbshoes-2" data-name="sbbshoes"><path class="cls-1" d="M242.74,764.79s15.14,34.34-19.35,37.34c0,0-31,0-37-14.5-3-7.23,8-29.5,8-29.5s-7.69,22.78-6,25.21,15.5,14.8,33,12.29,24.71-5.67,21.36-30.84"/><path class="cls-2" d="M232.82,737.13s11.37,23.56,12.72,44.28c0,0-1.16,14.72-22.15,16.22s-36-10-36-14.29,10.87-46.21,10.87-46.21l9.13,6c1-4.5,19-5.5,19.5,0Z"/><path class="cls-1" d="M241.56,784.63s-5.5-3.34-8-3.5v.44s5.16,1.25,8,3.5Z"/><path class="cls-1" d="M229.63,780s-6.18-1.8-8.64-1.31l.12.42s5.31-.13,8.63,1.32Z"/><path class="cls-1" d="M218.38,777.92s-6.28-1.41-8.7-.78l.14.42s5.29-.46,8.69.77Z"/><path class="cls-1" d="M205.59,776.77s-6.39-.65-8.72.27l.18.4s5.21-1.09,8.73-.27Z"/><path class="cls-1" d="M194,777.52s-6.07,2.12-7.79,3.94l.34.28s4.25-3.19,7.79-4Z"/><path class="cls-1" d="M226.89,743.13l-3.5,29.66S228,745.05,226.89,743.13Z"/><path class="cls-1" d="M207.73,773.06s-1.49-27.81-.63-29.86l.63,29.86"/><polyline class="cls-1" points="226.62 745.45 217.75 749.79 206.93 744.3 206.85 745.96 217.75 751.29 207.28 753.29 207.28 754.79 217.75 752.46 225.83 756.79 225.98 755.67 218.51 751.29 227.07 746.29 226.62 745.45"/><polyline class="cls-1" points="226.12 756.11 217.26 760.45 206.43 754.96 206.36 756.62 217.26 761.95 206.79 763.95 206.79 765.45 217.26 763.12 225.33 767.44 225.48 766.33 218.02 761.95 226.57 756.95 226.12 756.11"/><polyline class="cls-1" points="226.12 766.1 217.26 770.45 206.43 764.95 206.36 766.61 217.26 771.95 206.79 773.95 206.79 775.45 217.26 773.11 225.33 777.44 225.48 776.32 218.02 771.95 226.57 766.95 226.12 766.1"/></g></g><g id="cfbpants2"><g id="sbbpants"><path class="cls-3" d="M95.63,263.9s57.62,45.6,148.42,0c0,0,23.21,69.58,16.71,152.58s-14,104-14,110,7,86.5,7,92.5-11.5,108.49-11.5,108.49S229.44,738,218.35,739s-29.09-9.5-29.09-9.5S174.39,609,176.58,590s6.18-56.5,5.18-71.5S174.42,380,174.42,380l-7.66-1s-4.5,119-9.5,138-1.5,63.5,2,78-9,134-9,134-21,10-27.5,10-24.5-15.5-24.5-15.5-12-129-10-134.5,6-61,6-70-17-53-18-111S86,273.42,95.63,263.9Z"/><path class="cls-4" d="M219.94,408.48s6.67,140,4.67,147.33S217.77,738,217.77,738l-4.05-.68s5.71-175.49,5.63-182.15S219.94,408.48,219.94,408.48Z"/><path class="cls-4" d="M116.17,405.48s-6.66,140-4.66,147.33S118.34,735,118.34,735l4.06-.68s-5.71-175.49-5.63-182.15S116.17,405.48,116.17,405.48Z"/><path class="cls-5" d="M92.13,270.09s-5.41,8.29-4.44,15.13c0,0,47.9,16.31,79.53,16.48,32.89.18,82.66-16.43,82.66-16.43s.33-13.79-4-15.18C245.92,270.09,187.91,308.29,92.13,270.09Z"/><rect class="cls-6" x="156.61" y="286.29" width="24.37" height="17.41" rx="2.9" ry="2.9"/><rect class="cls-5" x="161.91" y="290.43" width="13.78" height="9.28" rx="1.59" ry="1.59"/></g><rect class="cls-3" x="137.09" y="283.62" width="4.93" height="18.08" rx="1.47" ry="1.47"/><rect class="cls-3" x="194.84" y="283.62" width="4.93" height="18.08" rx="1.47" ry="1.47"/><rect class="cls-3" x="232.92" y="273.23" width="4.93" height="18.08" rx="1.47" ry="1.47"/><rect class="cls-3" x="95.12" y="270.63" width="4.93" height="18.08" rx="1.47" ry="1.47"/><path class="cls-4" d="M207.26,318.14s13.5,23.67,45.75,18.67C253,336.81,221.26,347.79,207.26,318.14Z"/><path class="cls-4" d="M133.89,319.76S121,343.44,90.21,338.44C90.21,338.44,120.52,349.42,133.89,319.76Z"/><path class="cls-4" d="M163.93,323.69s-6.56,49.29,5.89,48.79C169.82,372.48,159.87,369.91,163.93,323.69Z"/></g><g id="cfbshirt2"><g id="shirt"><path class="cls-7" d="M130.12,11.32S59.23,37,52.56,44.68,37.89,84,39.56,104c0,0-32.67,110.76-31.33,140.23L6.41,306l-3.18-2.33,3.44,28.95S27,336.08,35,328.38l5.28-22L37.89,306s28.34-54.22,28.67-61.77,19.67-96.56,19.67-96.56,6,36,5.66,44,3.67,66,3.67,66l-6.88,4.63s56.32,39.8,154,9.33l-3.47-15s2-54,.33-69.33l12.67-33s16.33,98.33,30,125l16.66,25.33h-3l7.55,15s16.48,5.68,26-1.67l2.86-19.36h-2s-2-77.67-5.34-87.67-20.66-95.33-26.66-105.33c0,0,4.66-52.67-21-67.33,0,0-58-16.16-72.36-25.25,0,0-6.85,9.46-35.85,12.79S130.12,11.32,130.12,11.32Z"/><g id="sbbshirt2"><path class="cls-8" d="M162.68,28.78l4.84,254.44s4.73-.22,5.87-.23L175,28.43Z"/><path class="cls-7" d="M169.83,30.16s-1.9-1.95-1.9,4.05V283.09l1.47,0S169.16,34.08,169.83,30.16Z"/><circle class="cls-9" cx="167.93" cy="73.2" r="3.22"/><path class="cls-10" d="M168.8,70.73s-2.93-.28-3.37,1.75a2.82,2.82,0,0,0,2.5,3.43S162.93,72.48,168.8,70.73Z"/><circle class="cls-10" cx="167.93" cy="73.41" r="0.75"/><circle class="cls-9" cx="168.57" cy="49.56" r="3.22"/><path class="cls-10" d="M169.44,47.08s-2.93-.27-3.37,1.75a2.83,2.83,0,0,0,2.5,3.44S163.57,48.83,169.44,47.08Z"/><circle class="cls-10" cx="168.57" cy="49.77" r="0.75"/><circle class="cls-9" cx="168.27" cy="100.08" r="3.22"/><path class="cls-10" d="M169.14,97.6s-2.93-.27-3.37,1.75a2.83,2.83,0,0,0,2.5,3.44S163.27,99.35,169.14,97.6Z"/><circle class="cls-10" cx="168.27" cy="100.29" r="0.75"/><circle class="cls-9" cx="168.85" cy="131.73" r="3.22"/><path class="cls-10" d="M169.72,129.25s-2.93-.27-3.37,1.75a2.83,2.83,0,0,0,2.5,3.44S163.85,131,169.72,129.25Z"/><circle class="cls-10" cx="168.85" cy="131.94" r="0.75"/><circle class="cls-9" cx="169.19" cy="158.6" r="3.22"/><path class="cls-10" d="M170.06,156.13s-2.93-.27-3.37,1.75a2.82,2.82,0,0,0,2.5,3.43S164.19,157.88,170.06,156.13Z"/><circle class="cls-10" cx="169.19" cy="158.81" r="0.75"/><circle class="cls-9" cx="169.1" cy="185.48" r="3.22"/><path class="cls-10" d="M170,183s-2.93-.27-3.37,1.75a2.83,2.83,0,0,0,2.5,3.44S164.1,184.75,170,183Z"/><circle class="cls-10" cx="169.1" cy="185.69" r="0.75"/><circle class="cls-9" cx="169.44" cy="212.36" r="3.22"/><path class="cls-10" d="M170.31,209.88s-2.93-.27-3.37,1.75a2.82,2.82,0,0,0,2.5,3.43S164.44,211.63,170.31,209.88Z"/><circle class="cls-10" cx="169.44" cy="212.56" r="0.75"/><circle class="cls-9" cx="169.8" cy="233.8" r="3.22"/><path class="cls-10" d="M170.67,231.32s-2.92-.27-3.37,1.75a2.84,2.84,0,0,0,2.5,3.44S164.8,233.07,170.67,231.32Z"/><circle class="cls-10" cx="169.8" cy="234.01" r="0.75"/><circle class="cls-9" cx="170.14" cy="260.67" r="3.22"/><path class="cls-10" d="M171,258.2s-2.93-.27-3.37,1.75a2.82,2.82,0,0,0,2.5,3.43S165.14,260,171,258.2Z"/><circle class="cls-10" cx="170.14" cy="260.88" r="0.75"/><circle class="cls-11" cx="34.15" cy="310.04" r="2.21"/><circle class="cls-11" cx="304.05" cy="309.62" r="2.21"/><path class="cls-12" d="M239.92,112.54s-7.8,8-26.55,7.5c0,0,15,4.5,26.55-5.38Z"/><path class="cls-8" d="M175.82,242.06s-3.37,44.85,9.48,38.85C185.3,280.91,176.82,290.87,175.82,242.06Z"/></g></g><path class="cls-7" d="M136.68,1.23s-8.24,18.17-24.59,22.92c0,0,28.13,18.75,38.63,22.92l13.56-26.78S155.56,12.45,136.68,1.23Z"/><path class="cls-12" d="M111.31,17.7s9.53,16.87,30.74,30.36V41.5S118.42,25.92,111.31,17.7Z"/><path class="cls-8" d="M159.3,18.55S144.68,33,146.18,47.07l1.71-1.39S150.68,24.63,159.3,18.55Z"/><path class="cls-7" d="M201.56,2S211.64,20.16,221,24.15c0,0-26.32,21.06-36.82,25.23L173.74,21.6A86.13,86.13,0,0,1,201.56,2Z"/><path class="cls-12" d="M223.92,19.85s-9.84,17-31,30.52V43.81S216.81,28.07,223.92,19.85Z"/><path class="cls-8" d="M175.62,20.86s14.63,14.48,13.13,28.52L187,48S184.25,26.94,175.62,20.86Z"/><rect class="cls-13" x="161.43" y="20.29" width="13.47" height="13.47" rx="4.2" ry="4.2"/><path class="cls-14" d="M173.74,21.6s19.36-17.31,23.19-14S173.74,21.6,173.74,21.6Z"/><path class="cls-13" d="M196.93,7.62s1.75,6.67.38,12.67,2.75,10.83.52,15.5S173.74,31,173.74,31s2.31-3.63,0-9.44"/><path class="cls-14" d="M174.91,24.49l13.36-6.2-10.69,6.2h7l-7.75,1.16.08,2.14L184.77,31l-9.86-1.48A3.75,3.75,0,0,0,174.91,24.49Z"/><path class="cls-15" d="M193.7,11.15s1.44,8.1,0,11.2,1.57,11.41,1.57,11.41-1-7.8,0-10.47S193.7,11.15,193.7,11.15Z"/><path class="cls-14" d="M163.4,22.89S144,5.58,140.21,8.91,163.4,22.89,163.4,22.89Z"/><path class="cls-13" d="M140.21,8.91s-1.75,6.67-.37,12.67-2.76,10.83-.53,15.5,24.09-4.74,24.09-4.74-2.31-3.63,0-9.45"/><path class="cls-14" d="M162.24,25.78l-13.36-6.2,10.68,6.2h-7l7.76,1.16-.09,2.14-7.83,3.26,9.86-1.49A3.74,3.74,0,0,1,162.24,25.78Z"/><path class="cls-15" d="M143.44,12.45s-1.44,8.1,0,11.2-1.56,11.4-1.56,11.4,1-7.8,0-10.47S143.44,12.45,143.44,12.45Z"/><path class="cls-14" d="M163.4,21.6s1.63,1.95,0,10.74C163.4,32.34,167.37,25.75,163.4,21.6Z"/><path class="cls-15" d="M166.07,24.67s5.49-2.43,7.67,0C173.74,24.67,167.54,17.38,166.07,24.67Z"/><path class="cls-16" d="M111.31,17.7S56.33,34.86,50,43.86,35.6,98.79,36.67,104.55c0,0-29.52,109.33-30.26,133s-6.41,66-6.41,66,16.67,12.29,46,4.31c0,0,19.67-53.64,22-61.31s17-93.35,17-93.35,3.37,86,0,99S69,328.5,69,328.5s53.52,18.17,78.5,18.53l-1.32-300S109.62,28,111.31,17.7Z"/><path class="cls-17" d="M119.67,6.72S96.89,12.31,89.5,24.53L122.12,90l-14.86,4.45s-2,1.65-1.45,3.48,41,100.38,41,100.38,2.05-146.52-.85-155S127.22,3.78,119.67,6.72Z"/><path class="cls-16" d="M224.92,9.39s57.23,26,63.56,35,14.4,54.94,13.34,60.69c0,0,29.52,109.34,30.26,133s6.4,66,6.4,66-16.66,12.28-46,4.31c0,0-21.67-53.65-24-61.31s-15.62-89-15.62-89-2.79,81.69.58,94.69,16,76.32,16,76.32S216,346.7,191,347.06v-300S226.61,19.73,224.92,9.39Z"/><path class="cls-17" d="M217.7,9.15S240.09,14.74,247.36,27L215.29,92.53,229.9,97s2,1.65,1.43,3.49S190,200.36,190,200.36s-2.85-144.81,0-153.29S210.28,6.21,217.7,9.15Z"/><path class="cls-16" d="M100.93,15.17S131.86-.65,138.68.23c0,0-4.9,12.41-15.16,13.52C123.52,13.75,119.86,8.73,100.93,15.17Z"/><path class="cls-16" d="M237.56,15S206.63-.84,199.81,0c0,0,3,13.36,12.88,14.94C212.69,15,218.63,8.54,237.56,15Z"/><polygon class="cls-18" points="220.83 126.04 245 126.04 245 131.73 218.47 131.73 220.83 126.04"/><path class="cls-19" d="M225.1,115.7s2.9,2.16,3.27,4.91c0,0,6.88-14.34,9.63-14.29S245,126,245,126H220.83Z"/><path class="cls-20" d="M229.67,121.06s6.91-14.7,8.83-12.37C238.5,108.69,237.83,107.35,229.67,121.06Z"/><path class="cls-20" d="M224.92,120.52s2,4.25,4.75,4.25,2.83-1.66,2.83-1.66a5.85,5.85,0,0,1-2.83.91A7.41,7.41,0,0,1,224.92,120.52Z"/><polygon class="cls-16" points="219.74 128.27 245 128.27 245 130.02 218.88 130.02 219.74 128.27"/></g></g></g></g></svg>