<svg xmlns="http://www.w3.org/2000/svg" viewBox="0 0 333.67 797.98"><defs><style>.cls-1{fill:#473319;}.cls-2{fill:#684b1e;}.cls-3{fill:#332b29;}.cls-4{fill:#231e1d;}.cls-5{fill:#212121;}.cls-6{fill:#8c8357;}.cls-7{fill:#a39662;}.cls-8{fill:#34514c;}.cls-9{fill:#fff;}.cls-10{fill:#ccc;}.cls-11{fill:gray;}.cls-12{fill:#666;}.cls-13{fill:#2e382e;}</style></defs><title>rbb</title><g id="Layer_2" data-name="Layer 2"><g id="rbb"><g id="rbb-2" data-name="rbb"><g id="dressshoes"><g id="sbbshoes"><path class="cls-1" d="M94.82,760.64S79.67,795,114.17,798c0,0,31,0,37-14.5,3-7.23-8-29.5-8-29.5s7.68,22.78,6,25.21-15.5,14.8-33,12.29-24.7-5.67-21.35-30.84"/><path class="cls-2" d="M104.73,733S93.37,756.54,92,777.26c0,0,1.15,14.72,22.15,16.22s36-10.05,36-14.29S139.3,733,139.3,733l-9.13,6c-1-4.5-19-5.5-19.5,0Z"/><path class="cls-1" d="M96,780.48s5.5-3.33,8-3.5v.44s-5.17,1.25-8,3.5Z"/><path class="cls-1" d="M107.93,775.85s6.17-1.8,8.63-1.31l-.11.42s-5.31-.12-8.63,1.32Z"/><path class="cls-1" d="M119.18,773.77s6.27-1.41,8.7-.78l-.14.42s-5.3-.46-8.7.77Z"/><path class="cls-1" d="M132,772.63s6.4-.66,8.73.26l-.19.4s-5.2-1.09-8.73-.27Z"/><path class="cls-1" d="M143.52,773.37s6.07,2.12,7.78,3.94l-.33.28s-4.25-3.19-7.79-4Z"/><path class="cls-1" d="M110.67,739l3.5,29.67S109.53,740.9,110.67,739Z"/><path class="cls-1" d="M129.82,768.91s1.49-27.81.63-29.86l-.63,29.86"/><polyline class="cls-1" points="110.94 741.3 119.8 745.65 130.63 740.15 130.7 741.81 119.8 747.15 130.27 749.15 130.27 750.65 119.8 748.31 111.73 752.64 111.58 751.52 119.04 747.15 110.49 742.15 110.94 741.3"/><polyline class="cls-1" points="111.44 751.96 120.3 756.3 131.12 750.81 131.2 752.47 120.3 757.8 130.77 759.8 130.77 761.3 120.3 758.97 112.22 763.29 112.07 762.18 119.54 757.8 110.98 752.8 111.44 751.96"/><polyline class="cls-1" points="111.44 761.95 120.3 766.3 131.12 760.8 131.2 762.46 120.3 767.8 130.77 769.8 130.77 771.3 120.3 768.96 112.22 773.29 112.07 772.17 119.54 767.8 110.98 762.8 111.44 761.95"/></g><g id="sbbshoes-2" data-name="sbbshoes"><path class="cls-1" d="M238.9,758.46s15.15,34.34-19.35,37.34c0,0-31,0-37-14.5-3-7.24,8-29.5,8-29.5s-7.69,22.78-6,25.2,15.5,14.8,33,12.29,24.7-5.66,21.35-30.83"/><path class="cls-2" d="M229,730.8s11.36,23.55,12.71,44.27c0,0-1.15,14.73-22.15,16.23s-36-10-36-14.3,10.86-46.2,10.86-46.2l9.13,6c1-4.5,19-5.5,19.5,0Z"/><path class="cls-1" d="M237.72,778.3s-5.5-3.34-8-3.5v.43s5.16,1.25,8,3.5Z"/><path class="cls-1" d="M225.79,773.67s-6.18-1.8-8.64-1.31l.12.42s5.31-.13,8.63,1.31Z"/><path class="cls-1" d="M214.54,771.58s-6.28-1.41-8.7-.77l.14.42s5.29-.46,8.7.77Z"/><path class="cls-1" d="M201.76,770.44s-6.4-.65-8.73.27l.19.39s5.2-1.08,8.72-.26Z"/><path class="cls-1" d="M190.2,771.18s-6.07,2.13-7.79,4l.34.28s4.25-3.19,7.79-3.95Z"/><path class="cls-1" d="M223.05,736.8l-3.5,29.66S224.19,738.71,223.05,736.8Z"/><path class="cls-1" d="M203.89,766.73s-1.49-27.81-.63-29.87l.63,29.87"/><polyline class="cls-1" points="222.78 739.12 213.92 743.46 203.09 737.97 203.01 739.63 213.92 744.96 203.44 746.96 203.44 748.46 213.92 746.13 221.99 750.45 222.14 749.34 214.68 744.96 223.23 739.96 222.78 739.12"/><polyline class="cls-1" points="222.28 749.77 213.42 754.12 202.59 748.62 202.52 750.29 213.42 755.62 202.95 757.62 202.95 759.12 213.42 756.79 221.49 761.11 221.65 759.99 214.18 755.62 222.74 750.62 222.28 749.77"/><polyline class="cls-1" points="222.28 759.77 213.42 764.11 202.59 758.62 202.52 760.28 213.42 765.61 202.95 767.61 202.95 769.11 213.42 766.78 221.49 771.11 221.65 769.99 214.18 765.61 222.74 760.61 222.28 759.77"/></g></g><g id="sbbpants"><g id="sbbpants-2" data-name="sbbpants"><path class="cls-3" d="M88.18,270.93S153.24,318.1,244,272.51c0,0,20.3,50.4,13.8,133.4s-14,104-14,110,7,86.5,7,92.5-11.5,108.5-11.5,108.5-12.83,10.5-23.92,11.5-29.08-9.5-29.08-9.5-14.87-120.5-12.69-139.5,6.19-56.5,5.19-71.5-7.34-138.5-7.34-138.5l-7.66-1s-4.5,119-9.5,138-1.5,63.5,2,78-9,134-9,134-21,10-27.5,10-24.5-15.5-24.5-15.5-12-129-10-134.5,6-61,6-70-17-53-18-111S78.52,280.45,88.18,270.93Z"/><path class="cls-4" d="M217,397.91s6.66,140,4.66,147.34-6.83,182.16-6.83,182.16l-4.06-.68s5.71-175.48,5.64-182.15S217,397.91,217,397.91Z"/><path class="cls-4" d="M113.24,394.91s-6.67,140-4.67,147.34,6.84,182.16,6.84,182.16l4-.68s-5.71-175.48-5.63-182.15S113.24,394.91,113.24,394.91Z"/><path class="cls-5" d="M85.05,276s-5,6-4,12.78c0,0,52.78,18.66,84.42,18.83,32.88.18,84.63-17.83,84.63-17.83s-.51-12.39-4.8-13.78C245.28,276,180.83,314.16,85.05,276Z"/><rect class="cls-6" x="154.83" y="292.16" width="24.37" height="17.41" rx="2.9" ry="2.9"/><rect class="cls-5" x="159.99" y="296.38" width="13.78" height="9.28" rx="1.59" ry="1.59"/></g><path class="cls-7" d="M156.83,302.16s-3.88-10.37,8.5-9h0S155.7,293.79,156.83,302.16Z"/><rect class="cls-3" x="135.31" y="289.49" width="4.93" height="18.08" rx="1.47" ry="1.47"/><rect class="cls-3" x="193.06" y="289.49" width="4.93" height="18.08" rx="1.47" ry="1.47"/><rect class="cls-3" x="239.81" y="275.24" width="4.93" height="18.08" rx="1.47" ry="1.47"/><rect class="cls-3" x="85.81" y="275.24" width="4.93" height="18.08" rx="1.47" ry="1.47"/><path class="cls-4" d="M204.33,307.57s13.5,23.68,45.75,18.68C250.08,326.25,218.33,337.23,204.33,307.57Z"/><path class="cls-4" d="M131,309.19s-12.89,23.68-43.68,18.68C87.27,327.87,117.59,338.85,131,309.19Z"/><path class="cls-4" d="M161,313.12s-6.55,49.29,5.89,48.79C166.88,361.91,156.94,359.34,161,313.12Z"/></g><g id="rbbshirt"><path class="cls-8" d="M107.24,15.46s19.7,39,63.23,37.69,52.35-37.69,52.35-37.69S275.33,24.82,284,34.32s24,128.16,30,138.16,20.76,55.66,16.38,121.83c0,0-17,9.88-34.05,4.36,0,0-29.66-57.52-30.33-82.19,0,0-13.61-31.76-20.8-60.21,0,0-3,64.65-9.43,80.43l2.07,20s-76.09,25.58-142.3,0c0,0-3.69-12.24,2.38-22.91,0,0-11.39-29.27-16.56-82a410.34,410.34,0,0,1-15,55.34s-1,51.19-27.66,93.19c0,0-21.56,3.14-35.41-10.86,0,0-7.26-78.33,20.07-123,0,0-5.33-73.33,20-126C43.33,40.48,65.33,15.46,107.24,15.46Z"/><path class="cls-9" d="M231.67,18.15C226.67,7.81,199.49,0,199.49,0c-1.07,4.18-15.14,23.54-23.1,34.27-.17,0-.38,0-.51.12-4.65,4-9.1,16.84-9.1,16.84-2.05-4.5-7.81-12.52-7.81-12.52l0,0c-.17-.15-.33-.3-.5-.43s-.6-.5-.89-.72c-7.72-10.39-22.92-31.18-24-35.53,0,0-27.18,7.81-32.18,18.15l43.84,40.33s-1-8,2.5-10.58c6.06,2.36,5,2.58,19.78,3.27s18.58-2.24,18.6-2.25c4.2,2.06,4.2,9.56,4.2,9.56Z"/><path class="cls-9" d="M3.26,289.48,0,287.81l3.26,30.88s8.07,10.46,32.07,2.12l5-20.17S15.85,303.48,3.26,289.48Z"/><path class="cls-9" d="M300.34,298.67l-6.17-4.36,6.17,24.38s13.25,8.73,30,8l3.29-35.22-3.29,2.83A40.59,40.59,0,0,1,300.34,298.67Z"/><path class="cls-9" d="M95.54,256.72,83,273.81s29.71,20,82.33,19.35,83-20.68,83-20.68l-10.49-15.76s-52.41,12.95-73.46,11.36S95.54,256.72,95.54,256.72Z"/><path class="cls-10" d="M157.54,37.53s9.19,8.58,9.91,15.64L164.17,53S166.42,53.09,157.54,37.53Z"/><circle class="cls-11" cx="160.78" cy="49.23" r="2.5"/><path class="cls-12" d="M161.08,47.31s-2.43.07-2.2,1.92a2.34,2.34,0,0,0,2.2,2s-2.07-.84-2-2S161.08,47.31,161.08,47.31Z"/><circle class="cls-12" cx="160.78" cy="49.23" r="0.46"/><circle class="cls-11" cx="34.67" cy="305.92" r="2.5"/><path class="cls-12" d="M35,304s-2.43.07-2.21,1.91a2.35,2.35,0,0,0,2.21,2s-2.08-.84-2-2S35,304,35,304Z"/><circle class="cls-12" cx="34.67" cy="305.92" r="0.46"/><circle class="cls-11" cx="299.67" cy="300.64" r="2.5"/><path class="cls-12" d="M300,298.73s-2.43.07-2.21,1.91a2.35,2.35,0,0,0,2.21,2s-2.08-.84-2-2S300,298.73,300,298.73Z"/><circle class="cls-12" cx="299.67" cy="300.64" r="0.46"/><path class="cls-13" d="M88.17,148s0,70.17,27,85.83C115.17,233.81,88.17,188,88.17,148Z"/></g></g></g></g></svg>