<?xml version="1.0" encoding="utf-8"?>
<!-- Generator: Adobe Illustrator 22.1.0, SVG Export Plug-In . SVG Version: 6.00 Build 0)  -->
<svg version="1.1" id="Layer_1" xmlns="http://www.w3.org/2000/svg" xmlns:xlink="http://www.w3.org/1999/xlink" x="0px" y="0px"
	 viewBox="0 0 183 417.5" style="enable-background:new 0 0 183 417.5;" xml:space="preserve">
<style type="text/css">
	.st0{fill:none;}
	.st1{fill:#473319;}
	.st2{fill:#684B1E;}
	.st3{fill:#332B29;}
	.st4{fill:#231E1D;}
	.st5{fill:#212121;}
	.st6{fill:#8C8357;}
	.st7{fill:#A39662;}
	.st8{fill:#34514C;}
	.st9{fill:#FFFFFF;}
	.st10{fill:#CCCCCC;}
	.st11{fill:#808080;}
	.st12{fill:#666666;}
	.st13{fill:#2E382E;}
</style>
<title>rbb</title>
<g id="Layer_2_1_">
	<g id="rbb">
		<g id="rbb-2">
			<rect y="2.5" class="st0" width="183" height="415"/>
			<g id="dressshoes">
				<g id="sbbshoes">
					<path class="st1" d="M52.9,380.6c0,0-7.5,17,9.6,18.5c0,0,15.3,0,18.3-7.2c1.5-3.6-4-14.6-4-14.6s3.8,11.3,3,12.5
						s-7.7,7.4-16.3,6.1S51.3,393.1,52.9,380.6"/>
					<path class="st2" d="M57.8,366.8c0,0-5.6,11.7-6.3,22c0,0,0.6,7.3,10.9,8s17.8-5,17.8-7.1s-5.4-22.9-5.4-22.9l-4.5,3
						c-0.5-2.2-9.4-2.7-9.6,0L57.8,366.8z"/>
					<path class="st1" d="M53.5,390.4c0,0,2.7-1.6,4-1.7v0.2c-1.4,0.3-2.8,0.9-4,1.7V390.4z"/>
					<path class="st1" d="M59.4,388.1c0,0,3-0.9,4.3-0.7l-0.1,0.2c-1.4,0-2.9,0.2-4.3,0.7L59.4,388.1z"/>
					<path class="st1" d="M65,387.1c0,0,3.1-0.7,4.3-0.4l-0.1,0.2c-1.4-0.1-2.9,0-4.3,0.4L65,387.1z"/>
					<path class="st1" d="M71.3,386.5c0,0,3.2-0.3,4.3,0.1l-0.1,0.2c-1.4-0.3-2.9-0.3-4.3-0.1L71.3,386.5z"/>
					<path class="st1" d="M77,386.9c0,0,3,1,3.8,2l-0.2,0.1c-1.2-0.9-2.5-1.6-3.8-2L77,386.9z"/>
					<path class="st1" d="M60.8,369.8l1.7,14.7C62.5,384.5,60.2,370.8,60.8,369.8z"/>
					<path class="st1" d="M70.2,384.7c0,0,0.7-13.8,0.3-14.8L70.2,384.7"/>
					<polyline class="st1" points="60.9,371 65.3,373.1 70.6,370.4 70.7,371.2 65.3,373.9 70.4,374.9 70.4,375.6 65.3,374.4 
						61.3,376.6 61.2,376 64.9,373.9 60.7,371.4 60.9,371 					"/>
					<polyline class="st1" points="61.1,376.2 65.5,378.4 70.9,375.7 70.9,376.5 65.5,379.2 70.7,380.1 70.7,380.9 65.5,379.7 
						61.5,381.9 61.5,381.3 65.1,379.2 60.9,376.7 61.1,376.2 					"/>
					<polyline class="st1" points="61.1,381.2 65.5,383.4 70.9,380.6 70.9,381.5 65.5,384.1 70.7,385.1 70.7,385.8 65.5,384.7 
						61.5,386.8 61.5,386.3 65.1,384.1 60.9,381.6 61.1,381.2 					"/>
				</g>
				<g id="sbbshoes-2">
					<path class="st1" d="M124.1,379.5c0,0,7.5,17-9.6,18.5c0,0-15.3,0-18.3-7.2c-1.5-3.6,4-14.6,4-14.6s-3.8,11.3-3,12.5
						s7.7,7.3,16.3,6.1S125.8,392,124.1,379.5"/>
					<path class="st2" d="M119.2,365.7c0,0,5.6,11.7,6.3,22c0,0-0.6,7.3-10.9,8s-17.8-5-17.8-7.1s5.4-22.9,5.4-22.9l4.5,3
						c0.5-2.2,9.4-2.7,9.6,0L119.2,365.7z"/>
					<path class="st1" d="M123.5,389.3c0,0-2.7-1.7-4-1.7v0.2c1.4,0.3,2.8,0.9,4,1.7V389.3z"/>
					<path class="st1" d="M117.6,387c0,0-3.1-0.9-4.3-0.6v0.2c1.5,0,2.9,0.2,4.3,0.6L117.6,387z"/>
					<path class="st1" d="M112.1,386c0,0-3.1-0.7-4.3-0.4l0.1,0.2c1.4-0.1,2.9,0,4.3,0.4L112.1,386z"/>
					<path class="st1" d="M105.8,385.4c0,0-3.2-0.3-4.3,0.1l0.1,0.2c1.4-0.3,2.9-0.3,4.3-0.1L105.8,385.4z"/>
					<path class="st1" d="M100,385.8c0,0-3,1-3.8,2l0.2,0.1c1.2-0.9,2.5-1.6,3.8-2L100,385.8z"/>
					<path class="st1" d="M116.3,368.7l-1.7,14.7C114.5,383.4,116.8,369.7,116.3,368.7z"/>
					<path class="st1" d="M106.8,383.6c0,0-0.7-13.8-0.3-14.8L106.8,383.6"/>
					<polyline class="st1" points="116.1,369.9 111.8,372 106.4,369.3 106.4,370.1 111.8,372.8 106.6,373.8 106.6,374.5 
						111.8,373.4 115.7,375.5 115.8,374.9 112.1,372.8 116.4,370.3 116.1,369.9 					"/>
					<polyline class="st1" points="115.9,375.2 111.5,377.3 106.2,374.6 106.1,375.4 111.5,378.1 106.3,379.1 106.3,379.8 
						111.5,378.6 115.5,380.8 115.6,380.2 111.9,378.1 116.1,375.6 115.9,375.2 					"/>
					<polyline class="st1" points="115.9,380.1 111.5,382.3 106.2,379.6 106.1,380.4 111.5,383 106.3,384 106.3,384.8 111.5,383.6 
						115.5,385.8 115.6,385.2 111.9,383 116.1,380.5 115.9,380.1 					"/>
				</g>
			</g>
			<g id="sbbpants">
				<g id="sbbpants-2">
					<path class="st3" d="M49.7,138.5c0,0,32.1,23.4,77,0.8c0,0,10,25,6.8,66.2s-6.9,51.6-6.9,54.6c0,3,3.4,42.9,3.4,45.9
						s-5.7,53.9-5.7,53.9s-6.3,5.2-11.8,5.7s-14.4-4.7-14.4-4.7s-7.4-59.8-6.3-69.2s3.1-28,2.6-35.5c-0.5-7.4-3.6-68.8-3.6-68.8
						l-3.8-0.5c0,0-2.2,59.1-4.7,68.5s-0.7,31.5,1,38.7s-4.4,66.5-4.4,66.5s-10.4,5-13.6,5s-12.1-7.7-12.1-7.7s-5.9-64-4.9-66.8
						s3-30.3,3-34.7c0-4.5-8.4-26.3-8.9-55.1S44.9,143.2,49.7,138.5z"/>
					<path class="st4" d="M113.3,201.5c0,0,3.3,69.5,2.3,73.1s-3.4,90.4-3.4,90.4l-2-0.3c0,0,2.8-87.1,2.8-90.4
						S113.3,201.5,113.3,201.5z"/>
					<path class="st4" d="M62,200c0,0-3.3,69.5-2.3,73.1s3.4,90.4,3.4,90.4l2-0.3c0,0-2.8-87.1-2.8-90.4S62,200,62,200z"/>
					<path class="st5" d="M48.1,141c0,0-2.5,3-2,6.3c0,0,26.1,9.3,41.7,9.4c16.2,0.1,41.8-8.9,41.8-8.9s-0.2-6.1-2.4-6.8
						C127.2,141,95.4,159.9,48.1,141z"/>
					<path class="st6" d="M85.5,149h6.2c1.6,0,2.9,1.3,2.9,2.9v2.8c0,1.6-1.3,2.9-2.9,2.9h-6.2c-1.6,0-2.9-1.3-2.9-2.9v-2.8
						C82.6,150.3,83.9,149,85.5,149z"/>
					<path class="st5" d="M86.7,151.1h3.6c0.9,0,1.6,0.7,1.6,1.6v1.4c0,0.9-0.7,1.6-1.6,1.6h-3.6c-0.9,0-1.6-0.7-1.6-1.6v-1.4
						C85.1,151.8,85.8,151.1,86.7,151.1z"/>
				</g>
				<path class="st7" d="M83.6,154c0,0-1.9-5.1,4.2-4.5l0,0C87.8,149.5,83,149.8,83.6,154z"/>
				<path class="st3" d="M74.1,147.7L74.1,147.7c0.7,0,1.2,0.5,1.2,1.2v6.5c0,0.7-0.5,1.2-1.2,1.2h0c-0.7,0-1.2-0.5-1.2-1.2v-6.5
					C72.9,148.2,73.5,147.7,74.1,147.7z"/>
				<path class="st3" d="M102.7,147.7L102.7,147.7c0.7,0,1.2,0.5,1.2,1.2v6.5c0,0.7-0.5,1.2-1.2,1.2h0c-0.7,0-1.2-0.5-1.2-1.2v-6.5
					C101.5,148.2,102,147.7,102.7,147.7z"/>
				<path class="st3" d="M125.8,140.6L125.8,140.6c0.7,0,1.2,0.5,1.2,1.2v6.5c0,0.7-0.5,1.2-1.2,1.2h0c-0.7,0-1.2-0.5-1.2-1.2v-6.5
					C124.6,141.2,125.1,140.6,125.8,140.6z"/>
				<path class="st3" d="M49.7,140.6L49.7,140.6c0.7,0,1.2,0.5,1.2,1.2v6.5c0,0.7-0.5,1.2-1.2,1.2l0,0c-0.7,0-1.2-0.5-1.2-1.2v-6.5
					C48.5,141.2,49,140.6,49.7,140.6z"/>
				<path class="st4" d="M107,156.7c0,0,6.7,11.8,22.6,9.3C129.6,165.9,113.9,171.4,107,156.7z"/>
				<path class="st4" d="M70.8,157.5c0,0-6.4,11.8-21.6,9.3C49.2,166.7,64.2,172.2,70.8,157.5z"/>
				<path class="st4" d="M85.6,159.4c0,0-3.2,24.5,2.9,24.2C88.5,183.6,83.6,182.4,85.6,159.4z"/>
			</g>
			<g id="rbbshirt">
				<path class="st8" d="M59.1,10.7c0,0,9.7,19.3,31.2,18.7s25.9-18.7,25.9-18.7s25.9,4.6,30.2,9.4s11.9,63.6,14.8,68.6
					s10.3,27.6,8.1,60.5c0,0-8.4,4.9-16.8,2.2c0,0-14.7-28.6-15-40.8c0,0-6.7-15.8-10.3-29.9c0,0-1.5,32.1-4.7,39.9l1,9.9
					c0,0-37.6,12.7-70.3,0c0,0-1.8-6.1,1.2-11.4c0,0-5.6-14.5-8.2-40.7c-1.8,9.3-4.3,18.5-7.4,27.5c0,0-0.5,25.4-13.7,46.3
					c0,0-10.6,1.6-17.5-5.4c0,0-3.6-38.9,9.9-61.1c0,0-2.6-36.4,9.9-62.5C27.5,23.1,38.4,10.7,59.1,10.7z"/>
				<path class="st9" d="M120.5,12c-2.5-5.1-15.9-9-15.9-9c-0.5,2.1-7.5,11.7-11.4,17c-0.1,0-0.2,0-0.2,0.1c-2.3,2-4.5,8.4-4.5,8.4
					c-1.1-2.2-2.4-4.2-3.9-6.2l0,0L84.3,22l-0.4-0.4C80.1,16.5,72.6,6.2,72,4c0,0-13.4,3.9-15.9,9l21.7,20c0,0-0.5-4,1.2-5.2
					c3,1.2,2.5,1.3,9.8,1.6s9.2-1.1,9.2-1.1c2.1,1,2.1,4.7,2.1,4.7L120.5,12z"/>
				<path class="st9" d="M7.7,146.7l-1.6-0.8l1.6,15.3c0,0,4,5.2,15.8,1.1l2.5-10C26,152.2,13.9,153.6,7.7,146.7z"/>
				<path class="st9" d="M154.4,151.3l-3-2.2l3,12.1c4.5,2.7,9.6,4.1,14.8,4l1.6-17.5l-1.6,1.4C164.8,151.7,159.5,152.5,154.4,151.3
					z"/>
				<path class="st9" d="M53.3,130.4l-6.2,8.5c0,0,14.7,9.9,40.7,9.6s41-10.3,41-10.3l-5.2-7.8c0,0-25.9,6.4-36.3,5.6
					S53.3,130.4,53.3,130.4z"/>
				<path class="st10" d="M83.9,21.6c0,0,4.5,4.3,4.9,7.8l-1.6-0.1C87.2,29.3,88.3,29.4,83.9,21.6z"/>
				<ellipse class="st11" cx="85.5" cy="27.4" rx="1.2" ry="1.2"/>
				<path class="st12" d="M85.7,26.5c0,0-1.2,0-1.1,1c0.1,0.5,0.5,1,1.1,1c0,0-1-0.4-1-1S85.7,26.5,85.7,26.5z"/>
				<circle class="st12" cx="85.5" cy="27.4" r="0.2"/>
				<ellipse class="st11" cx="23.2" cy="154.9" rx="1.2" ry="1.2"/>
				<path class="st12" d="M23.4,153.9c0,0-1.2,0-1.1,0.9c0.1,0.6,0.5,1,1.1,1c0,0-1-0.4-1-1S23.4,153.9,23.4,153.9z"/>
				<circle class="st12" cx="23.2" cy="154.9" r="0.2"/>
				<ellipse class="st11" cx="154.1" cy="152.2" rx="1.2" ry="1.2"/>
				<path class="st12" d="M154.3,151.3c0,0-1.2,0-1.1,0.9c0.1,0.5,0.5,1,1.1,1c0,0-1-0.4-1-1S154.3,151.3,154.3,151.3z"/>
				<circle class="st12" cx="154.1" cy="152.2" r="0.2"/>
				<path class="st13" d="M49.6,76.5c0,0,0,34.8,13.3,42.6C63,119.1,49.6,96.3,49.6,76.5z"/>
			</g>
		</g>
	</g>
</g>
</svg>
