<svg xmlns="http://www.w3.org/2000/svg" viewBox="0 0 183 417.31"><defs><style>.cls-1{fill:none;}.cls-2{fill:#473319;}.cls-3{fill:#684b1e;}.cls-4{fill:#2b2b2b;}.cls-5{fill:#333;}.cls-6{fill:#212121;}.cls-7{fill:#8c8357;}.cls-8{fill:#a39662;}.cls-9{fill:#d89c66;}.cls-10{fill:#939393;}.cls-11{fill:#ccc;}.cls-12{fill:gray;}.cls-13{fill:#666;}.cls-14{fill:#c68958;}</style></defs><title>rbb2</title><g id="Layer_2" data-name="Layer 2"><g id="rbb2"><g id="rbb2-2" data-name="rbb2"><rect class="cls-1" y="2.31" width="183" height="415"/><g id="dressshoes"><g id="sbbshoes"><path class="cls-2" d="M52.93,379.09s-7.48,17.05,9.56,18.54c0,0,15.31,0,18.28-7.2,1.47-3.59-4-14.64-4-14.64s3.8,11.31,3,12.51-7.65,7.34-16.29,6.1-12.2-2.81-10.55-15.31"/><path class="cls-3" d="M57.83,365.36s-5.61,11.7-6.28,22c0,0,.57,7.31,10.94,8.05s17.78-5,17.78-7.09-5.37-22.94-5.37-22.94l-4.51,3c-.49-2.23-9.38-2.73-9.63,0Z"/><path class="cls-2" d="M53.52,388.94s2.71-1.65,3.95-1.74v.22a12.36,12.36,0,0,0-3.95,1.74Z"/><path class="cls-2" d="M59.41,386.64s3.05-.89,4.26-.65l-.05.21a12.54,12.54,0,0,0-4.27.65Z"/><path class="cls-2" d="M65,385.61s3.1-.7,4.29-.39l-.07.21a12.34,12.34,0,0,0-4.29.38Z"/><path class="cls-2" d="M71.28,385s3.16-.32,4.31.13l-.09.2a12.3,12.3,0,0,0-4.31-.13Z"/><path class="cls-2" d="M77,385.41s3,1,3.84,2l-.16.14a12.3,12.3,0,0,0-3.85-2Z"/><path class="cls-2" d="M60.76,368.34l1.73,14.73S60.2,369.29,60.76,368.34Z"/><path class="cls-2" d="M70.22,383.2s.74-13.81.31-14.83l-.31,14.83"/><polyline class="cls-2" points="60.9 369.49 65.27 371.65 70.62 368.92 70.66 369.75 65.27 372.39 70.44 373.39 70.44 374.13 65.27 372.97 61.28 375.12 61.21 374.57 64.9 372.39 60.67 369.91 60.9 369.49"/><polyline class="cls-2" points="61.14 374.78 65.52 376.94 70.86 374.21 70.9 375.04 65.52 377.69 70.69 378.68 70.69 379.42 65.52 378.26 61.53 380.41 61.45 379.86 65.14 377.69 60.92 375.2 61.14 374.78"/><polyline class="cls-2" points="61.14 379.74 65.52 381.9 70.86 379.17 70.9 380 65.52 382.64 70.69 383.64 70.69 384.38 65.52 383.22 61.53 385.37 61.45 384.82 65.14 382.64 60.92 380.16 61.14 379.74"/></g><g id="sbbshoes-2" data-name="sbbshoes"><path class="cls-2" d="M124.1,378s7.48,17-9.56,18.53c0,0-15.31,0-18.27-7.19-1.48-3.59,4-14.65,4-14.65s-3.8,11.31-3,12.51,7.66,7.35,16.29,6.11S125.76,390.5,124.1,378"/><path class="cls-3" d="M119.2,364.28s5.62,11.69,6.28,22c0,0-.57,7.3-10.94,8.05s-17.77-5-17.78-7.1,5.37-22.93,5.37-22.93l4.51,3c.49-2.24,9.39-2.73,9.63,0Z"/><path class="cls-2" d="M123.52,387.86s-2.72-1.66-4-1.74v.22a12.49,12.49,0,0,1,4,1.73Z"/><path class="cls-2" d="M117.62,385.56s-3.05-.89-4.26-.65l.06.21a12.23,12.23,0,0,1,4.26.65Z"/><path class="cls-2" d="M112.07,384.52s-3.1-.7-4.3-.38l.07.21a12.4,12.4,0,0,1,4.3.38Z"/><path class="cls-2" d="M105.75,384s-3.16-.33-4.31.13l.1.2a12.46,12.46,0,0,1,4.31-.14Z"/><path class="cls-2" d="M100.05,384.33s-3,1.05-3.85,2l.17.13a12.56,12.56,0,0,1,3.84-2Z"/><path class="cls-2" d="M116.27,367.26,114.54,382S116.83,368.21,116.27,367.26Z"/><path class="cls-2" d="M106.81,382.11s-.74-13.8-.31-14.82l.31,14.82"/><polyline class="cls-2" points="116.14 368.41 111.76 370.57 106.41 367.84 106.38 368.66 111.76 371.31 106.59 372.3 106.59 373.05 111.76 371.89 115.75 374.04 115.82 373.48 112.14 371.31 116.36 368.83 116.14 368.41"/><polyline class="cls-2" points="115.89 373.7 111.52 375.86 106.17 373.13 106.13 373.95 111.52 376.6 106.34 377.59 106.34 378.34 111.52 377.18 115.5 379.33 115.58 378.77 111.89 376.6 116.12 374.12 115.89 373.7"/><polyline class="cls-2" points="115.89 378.66 111.52 380.82 106.17 378.09 106.13 378.91 111.52 381.56 106.34 382.55 106.34 383.3 111.52 382.14 115.5 384.29 115.58 383.73 111.89 381.56 116.12 379.08 115.89 378.66"/></g></g><g id="sbbpants2"><g id="sbbpants"><path class="cls-4" d="M49,136.48s32.13,23.41,77,.78c0,0,10,25,6.82,66.22s-6.92,51.62-6.92,54.6S129.37,301,129.37,304s-5.68,53.85-5.68,53.85-6.34,5.21-11.81,5.71-14.37-4.71-14.37-4.71S90.17,299,91.24,289.59s3.06-28,2.57-35.48-3.63-68.75-3.63-68.75l-3.78-.5s-2.23,59.07-4.7,68.5-.74,31.52,1,38.72-4.44,66.51-4.44,66.51-10.38,5-13.59,5-12.1-7.69-12.1-7.69-5.93-64-4.94-66.76,3-30.28,3-34.75-8.39-26.3-8.89-55.09S44.26,141.2,49,136.48Z"/><path class="cls-5" d="M113.65,195.26c3.39,71.48,2.8,71.33,2.31,73.14-1,3.64-3.38,90.42-3.38,90.42l-2-.34s2.82-87.11,2.78-90.42S113.65,195.26,113.65,195.26Z"/><path class="cls-5" d="M62.4,193.78s-3.3,69.49-2.31,73.13,3.38,90.42,3.38,90.42l2-.34s-2.82-87.11-2.78-90.41S62.4,193.78,62.4,193.78Z"/><path class="cls-6" d="M48.47,134.73s-2.46,3-2,6.35c0,0,26.08,9.26,41.7,9.34,16.25.09,40.08-8.27,40.08-8.27s1.48-6.73-.64-7.42C127.62,134.73,95.78,153.69,48.47,134.73Z"/><rect class="cls-7" x="82.94" y="142.77" width="12.04" height="8.64" rx="2.9" ry="2.9"/><rect class="cls-6" x="85.49" y="144.87" width="6.81" height="4.61" rx="1.59" ry="1.59"/></g><path class="cls-8" d="M83.93,147.74s-1.92-5.15,4.2-4.47h0S83.37,143.58,83.93,147.74Z"/><rect class="cls-4" x="73.3" y="141.45" width="2.43" height="8.97" rx="1.22" ry="1.22"/><rect class="cls-4" x="101.83" y="141.45" width="2.43" height="8.97" rx="1.22" ry="1.22"/><rect class="cls-4" x="124.92" y="134.37" width="2.43" height="8.97" rx="1.22" ry="1.22"/><rect class="cls-4" x="48.85" y="134.37" width="2.43" height="8.97" rx="1.22" ry="1.22"/><path class="cls-5" d="M107.39,150.42s6.67,11.75,22.6,9.27C130,159.69,114.31,165.14,107.39,150.42Z"/><path class="cls-5" d="M71.15,151.23S64.78,163,49.57,160.5C49.57,160.5,64.54,166,71.15,151.23Z"/><path class="cls-5" d="M86,153.18s-3.24,24.46,2.9,24.22C88.89,177.4,84,176.12,86,153.18Z"/></g><g id="rbbshirt2"><path class="cls-9" d="M59.06,7.67S68.79,27,90.3,26.38,116.16,7.67,116.16,7.67s25.93,4.65,30.21,9.36,11.86,63.62,14.82,68.58,10.26,27.63,8.09,60.47c0,0-8.41,4.91-16.81,2.17,0,0-14.66-28.55-15-40.8,0,0-6.72-15.76-10.27-29.89,0,0-1.48,32.1-4.66,39.93l1,9.94s-37.58,12.69-70.29,0c0,0-1.82-6.08,1.18-11.37,0,0-5.63-14.53-8.18-40.71a204.74,204.74,0,0,1-7.42,27.47s-.5,25.41-13.67,46.26c0,0-10.65,1.56-17.49-5.39,0,0-3.58-38.89,9.92-61.06,0,0-2.64-36.4,9.88-62.54C27.5,20.09,38.36,7.67,59.06,7.67Z"/><path class="cls-10" d="M120.52,9c-2.47-5.13-15.89-9-15.89-9-.53,2.08-7.48,11.69-11.41,17-.09,0-.19,0-.25.06-2.3,2-4.49,8.36-4.49,8.36a53.32,53.32,0,0,0-3.86-6.22h0L84.35,19l-.44-.36C80.09,13.47,72.59,3.15,72,1c0,0-13.42,3.88-15.89,9L77.8,30s-.5-4,1.23-5.25c3,1.17,2.48,1.28,9.77,1.62S98,25.28,98,25.28c2.07,1,2.07,4.74,2.07,4.74Z"/><path class="cls-10" d="M7.7,143.69l-1.61-.83L7.7,158.18s4,5.2,15.85,1.06l2.47-10S13.92,150.64,7.7,143.69Z"/><path class="cls-10" d="M154.44,148.25l-3-2.17,3,12.1a27.46,27.46,0,0,0,14.84,4l1.63-17.48-1.63,1.4A20,20,0,0,1,154.44,148.25Z"/><path class="cls-10" d="M53.28,127.43l-6.19,8.48s14.68,9.94,40.67,9.61,41-10.27,41-10.27l-5.19-7.82s-25.88,6.43-36.28,5.63S53.28,127.43,53.28,127.43Z"/><path class="cls-11" d="M83.91,18.63s4.54,4.26,4.89,7.76l-1.62-.08S88.3,26.35,83.91,18.63Z"/><ellipse class="cls-12" cx="85.51" cy="24.44" rx="1.23" ry="1.24"/><path class="cls-13" d="M85.66,23.48s-1.2,0-1.09,1a1.17,1.17,0,0,0,1.09,1s-1-.42-1-1S85.66,23.48,85.66,23.48Z"/><circle class="cls-13" cx="85.51" cy="24.44" r="0.23"/><ellipse class="cls-12" cx="23.22" cy="151.85" rx="1.23" ry="1.24"/><path class="cls-13" d="M23.36,150.9s-1.2,0-1.09.95a1.15,1.15,0,0,0,1.09,1s-1-.42-1-1S23.36,150.9,23.36,150.9Z"/><circle class="cls-13" cx="23.22" cy="151.85" r="0.23"/><ellipse class="cls-12" cx="154.11" cy="149.23" rx="1.23" ry="1.24"/><path class="cls-13" d="M154.26,148.28s-1.2,0-1.09.95a1.17,1.17,0,0,0,1.09,1s-1-.42-1-1S154.26,148.28,154.26,148.28Z"/><circle class="cls-13" cx="154.11" cy="149.23" r="0.23"/><path class="cls-14" d="M49.64,73.45s0,34.83,13.34,42.61C63,116.06,49.64,93.31,49.64,73.45Z"/></g></g></g></g></svg>