<svg xmlns="http://www.w3.org/2000/svg" viewBox="0 0 333.67 801.08"><defs><style>.cls-1{fill:#473319;}.cls-2{fill:#684b1e;}.cls-3{fill:#2b2b2b;}.cls-4{fill:#333;}.cls-5{fill:#212121;}.cls-6{fill:#8c8357;}.cls-7{fill:#a39662;}.cls-8{fill:#d89c66;}.cls-9{fill:#939393;}.cls-10{fill:#ccc;}.cls-11{fill:gray;}.cls-12{fill:#666;}.cls-13{fill:#c68958;}</style></defs><title>rbb2</title><g id="Layer_2" data-name="Layer 2"><g id="rbb2"><g id="rbb2-2" data-name="rbb2"><g id="dressshoes"><g id="sbbshoes"><path class="cls-1" d="M94.83,763.74s-15.15,34.34,19.35,37.34c0,0,31,0,37-14.5,3-7.23-8-29.5-8-29.5s7.68,22.78,6,25.21-15.5,14.8-33,12.29-24.7-5.67-21.35-30.84"/><path class="cls-2" d="M104.74,736.08S93.38,759.64,92,780.36c0,0,1.15,14.72,22.15,16.22s36-10.05,36-14.29-10.86-46.21-10.86-46.21l-9.13,6c-1-4.5-19-5.5-19.5,0Z"/><path class="cls-1" d="M96,783.58s5.5-3.33,8-3.5v.44s-5.17,1.25-8,3.5Z"/><path class="cls-1" d="M107.94,779s6.17-1.8,8.63-1.32l-.11.42s-5.32-.12-8.63,1.32Z"/><path class="cls-1" d="M119.19,776.87s6.27-1.41,8.7-.78l-.14.42s-5.3-.46-8.7.77Z"/><path class="cls-1" d="M132,775.73s6.4-.66,8.73.26l-.19.4s-5.2-1.09-8.73-.27Z"/><path class="cls-1" d="M143.52,776.47s6.08,2.12,7.79,3.95l-.33.27s-4.25-3.19-7.79-3.94Z"/><path class="cls-1" d="M110.68,742.08l3.5,29.67S109.54,744,110.68,742.08Z"/><path class="cls-1" d="M129.83,772s1.49-27.81.63-29.86L129.83,772"/><polyline class="cls-1" points="110.95 744.4 119.81 748.75 130.64 743.25 130.71 744.91 119.81 750.25 130.28 752.25 130.28 753.75 119.81 751.41 111.74 755.74 111.58 754.62 119.05 750.25 110.5 745.25 110.95 744.4"/><polyline class="cls-1" points="111.44 755.06 120.31 759.4 131.13 753.91 131.21 755.57 120.31 760.9 130.78 762.9 130.78 764.4 120.31 762.07 112.23 766.4 112.08 765.28 119.55 760.9 110.99 755.9 111.44 755.06"/><polyline class="cls-1" points="111.44 765.05 120.31 769.4 131.13 763.9 131.21 765.56 120.31 770.9 130.78 772.9 130.78 774.4 120.31 772.06 112.23 776.39 112.08 775.27 119.55 770.9 110.99 765.9 111.44 765.05"/></g><g id="sbbshoes-2" data-name="sbbshoes"><path class="cls-1" d="M238.91,761.56s15.14,34.34-19.35,37.34c0,0-31,0-37-14.5-3-7.23,8-29.5,8-29.5s-7.69,22.78-6,25.2,15.5,14.8,33,12.3,24.7-5.67,21.35-30.84"/><path class="cls-2" d="M229,733.9s11.37,23.55,12.72,44.28c0,0-1.16,14.72-22.15,16.22s-36-10-36-14.3,10.87-46.2,10.87-46.2l9.13,6c1-4.5,19-5.5,19.5,0Z"/><path class="cls-1" d="M237.73,781.4s-5.5-3.34-8-3.5v.43s5.16,1.25,8,3.5Z"/><path class="cls-1" d="M225.8,776.77s-6.18-1.8-8.64-1.31l.12.42s5.31-.13,8.63,1.31Z"/><path class="cls-1" d="M214.55,774.68s-6.28-1.41-8.7-.77l.14.42s5.29-.46,8.7.77Z"/><path class="cls-1" d="M201.77,773.54s-6.4-.65-8.73.27l.18.4s5.21-1.09,8.73-.27Z"/><path class="cls-1" d="M190.21,774.28s-6.07,2.13-7.79,4l.34.28s4.25-3.19,7.79-4Z"/><path class="cls-1" d="M223.06,739.9l-3.5,29.66S224.2,741.81,223.06,739.9Z"/><path class="cls-1" d="M203.9,769.83S202.41,742,203.27,740l.63,29.87"/><polyline class="cls-1" points="222.78 742.22 213.92 746.56 203.1 741.07 203.02 742.73 213.92 748.06 203.45 750.06 203.45 751.56 213.92 749.23 222 753.55 222.15 752.44 214.69 748.06 223.24 743.06 222.78 742.22"/><polyline class="cls-1" points="222.29 752.88 213.43 757.22 202.6 751.73 202.53 753.39 213.43 758.72 202.96 760.72 202.96 762.22 213.43 759.89 221.5 764.21 221.66 763.1 214.19 758.72 222.74 753.72 222.29 752.88"/><polyline class="cls-1" points="222.29 762.87 213.43 767.21 202.6 761.72 202.53 763.38 213.43 768.71 202.96 770.71 202.96 772.21 213.43 769.88 221.5 774.21 221.66 773.09 214.19 768.71 222.74 763.71 222.29 762.87"/></g></g><g id="sbbpants2"><g id="sbbpants"><path class="cls-3" d="M86.92,275s65.06,47.17,155.86,1.58c0,0,20.29,50.4,13.79,133.4s-14,104-14,110,7,86.5,7,92.5-11.5,108.5-11.5,108.5-12.82,10.5-23.91,11.5-29.09-9.5-29.09-9.5-14.86-120.5-12.68-139.5,6.18-56.5,5.18-71.5-7.33-138.5-7.33-138.5l-7.67-1s-4.5,119-9.5,138-1.5,63.5,2,78-9,134-9,134-21,10-27.5,10-24.5-15.5-24.5-15.5-12-129-10-134.5,6-61,6-70-17-53-18-111S77.27,284.47,86.92,275Z"/><path class="cls-4" d="M217.76,393.39c6.85,144,5.65,143.7,4.66,147.33-2,7.34-6.83,182.17-6.83,182.17l-4.06-.68s5.71-175.49,5.63-182.15S217.76,393.39,217.76,393.39Z"/><path class="cls-4" d="M114,390.39s-6.67,140-4.67,147.33,6.83,182.17,6.83,182.17l4.06-.68s-5.71-175.49-5.63-182.15S114,390.39,114,390.39Z"/><path class="cls-5" d="M85.8,271.44s-5,5.94-4,12.78c0,0,52.79,18.66,84.42,18.83,32.89.18,81.14-16.66,81.14-16.66s3-13.56-1.3-14.95C246,271.44,181.58,309.64,85.8,271.44Z"/><rect class="cls-6" x="155.58" y="287.64" width="24.37" height="17.41" rx="2.9" ry="2.9"/><rect class="cls-5" x="160.74" y="291.86" width="13.78" height="9.28" rx="1.59" ry="1.59"/></g><path class="cls-7" d="M157.58,297.64s-3.88-10.37,8.5-9h0S156.45,289.27,157.58,297.64Z"/><rect class="cls-3" x="136.06" y="284.97" width="4.93" height="18.08" rx="1.47" ry="1.47"/><rect class="cls-3" x="193.81" y="284.97" width="4.93" height="18.08" rx="1.47" ry="1.47"/><rect class="cls-3" x="240.56" y="270.71" width="4.93" height="18.08" rx="1.47" ry="1.47"/><rect class="cls-3" x="86.56" y="270.71" width="4.93" height="18.08" rx="1.47" ry="1.47"/><path class="cls-4" d="M205.08,303.05s13.5,23.67,45.75,18.67C250.83,321.72,219.08,332.71,205.08,303.05Z"/><path class="cls-4" d="M131.7,304.67S118.81,328.35,88,323.35C88,323.35,118.33,334.33,131.7,304.67Z"/><path class="cls-4" d="M161.74,308.6s-6.55,49.29,5.89,48.79C167.63,357.39,157.69,354.82,161.74,308.6Z"/></g><g id="rbbshirt2"><path class="cls-8" d="M107.24,15.46s19.7,39,63.23,37.69,52.35-37.69,52.35-37.69S275.33,24.82,284,34.32s24,128.16,30,138.16,20.76,55.66,16.38,121.83c0,0-17,9.88-34.05,4.36,0,0-29.66-57.52-30.33-82.19,0,0-13.61-31.76-20.8-60.21,0,0-3,64.65-9.43,80.43l2.07,20s-76.09,25.58-142.3,0c0,0-3.69-12.24,2.38-22.91,0,0-11.39-29.27-16.56-82a410.34,410.34,0,0,1-15,55.34s-1,51.19-27.66,93.19c0,0-21.56,3.14-35.41-10.86,0,0-7.26-78.33,20.07-123,0,0-5.33-73.33,20-126C43.33,40.48,65.33,15.46,107.24,15.46Z"/><path class="cls-9" d="M231.67,18.15C226.67,7.81,199.49,0,199.49,0c-1.07,4.18-15.14,23.54-23.1,34.27-.17,0-.38,0-.51.12-4.65,4-9.1,16.84-9.1,16.84-2.05-4.5-7.81-12.52-7.81-12.52l0,0c-.17-.15-.33-.3-.5-.43s-.6-.5-.89-.72c-7.72-10.39-22.92-31.18-24-35.53,0,0-27.18,7.81-32.18,18.15l43.84,40.33s-1-8,2.5-10.58c6.06,2.36,5,2.58,19.78,3.27s18.58-2.24,18.6-2.25c4.2,2.06,4.2,9.56,4.2,9.56Z"/><path class="cls-9" d="M3.26,289.48,0,287.81l3.26,30.88s8.07,10.46,32.07,2.12l5-20.17S15.85,303.48,3.26,289.48Z"/><path class="cls-9" d="M300.34,298.67l-6.17-4.36,6.17,24.38s13.25,8.73,30,8l3.29-35.22-3.29,2.83A40.59,40.59,0,0,1,300.34,298.67Z"/><path class="cls-9" d="M95.54,256.72,83,273.81s29.71,20,82.33,19.35,83-20.68,83-20.68l-10.49-15.76s-52.41,12.95-73.46,11.36S95.54,256.72,95.54,256.72Z"/><path class="cls-10" d="M157.54,37.53s9.19,8.58,9.91,15.64L164.17,53S166.42,53.09,157.54,37.53Z"/><circle class="cls-11" cx="160.78" cy="49.23" r="2.5"/><path class="cls-12" d="M161.08,47.31s-2.43.07-2.2,1.92a2.34,2.34,0,0,0,2.2,2s-2.07-.84-2-2S161.08,47.31,161.08,47.31Z"/><circle class="cls-12" cx="160.78" cy="49.23" r="0.46"/><circle class="cls-11" cx="34.67" cy="305.92" r="2.5"/><path class="cls-12" d="M35,304s-2.43.07-2.21,1.91a2.35,2.35,0,0,0,2.21,2s-2.08-.84-2-2S35,304,35,304Z"/><circle class="cls-12" cx="34.67" cy="305.92" r="0.46"/><circle class="cls-11" cx="299.67" cy="300.64" r="2.5"/><path class="cls-12" d="M300,298.73s-2.43.07-2.21,1.91a2.35,2.35,0,0,0,2.21,2s-2.08-.84-2-2S300,298.73,300,298.73Z"/><circle class="cls-12" cx="299.67" cy="300.64" r="0.46"/><path class="cls-13" d="M88.17,148s0,70.17,27,85.83C115.17,233.81,88.17,188,88.17,148Z"/></g></g></g></g></svg>