<svg xmlns="http://www.w3.org/2000/svg" viewBox="0 0 334.67 785.93"><defs><style>.cls-1{fill:#fff;}.cls-2{fill:#505b68;}.cls-3{fill:#434c54;}.cls-4{fill:#797a7a;}.cls-5{fill:#5f6a75;}.cls-6{fill:#ccc;}.cls-7{fill:#565556;}.cls-8{fill:#4f4c4f;}.cls-9{fill:#cccacc;}.cls-10{fill:#999;}.cls-11{fill:#fcfcfc;}.cls-12{fill:#303030;}.cls-13{fill:#3d3d3d;}.cls-14{fill:#474f59;}.cls-15{fill:#7c7b60;}.cls-16{fill:#5b5945;}</style></defs><title>rcb</title><g id="Layer_2" data-name="Layer 2"><g id="rcb"><g id="rcb-2" data-name="rcb"><g id="rcbshirt"><path class="cls-1" d="M119.66,22.51s45.8,58.73,90.4,0l41.41,14.2-2,113.66-15,40.46,8.06,90.74s-70.54,44.56-151,0V189.12L81.2,137V36.22Z"/><path class="cls-2" d="M140.42,62.45C136.83,33.12,110.26,26,110.26,26c27.07-3.47,27.81-26,27.81-26-62.11.88-63,33.47-63,33.47v1.21c-12.78,4-25.34,9.17-30.42,15.11-12,14-19.34,131.6-19.34,131.6C0,214.32,5.8,306,5.8,306L0,323.79c8,14.66,38.67,12.94,38.67,12.94S38,310.45,53.31,273.18C69,235.06,78.18,167.4,78.18,167.4s3.15,75.72.54,80.94S84,258.45,84,258.45l-5.28,23.12c6.71,19.12,71.45,27.24,71.45,27.24S144,91.79,140.42,62.45Z"/><path class="cls-2" d="M330.22,306s5.11-75.5-17.55-114.16c0,0-2.77-145-44.05-149.16,0,0-10-4.24-21-8.09-1.07-3.26-3.71-16.3-9.62-22.75C230.67,3.79,197.34,0,197.34,0s2.07,12.08,3.48,17.21c.72,2.63,13.15,7.46,25.06,11.53-5.77-.22-22.12.66-31.88,16.38-12,19.33,3,264.67,3,264.67s43.7-15.1,51.7-28.22l-4-17.78s6.94-1.34,6.8-6.67-8.52-67,0-95.18c0,0,18.67,60.51,18.6,103.18,0,0,12.67,36.21,25.26,44.67l5.34,14s19.33,7.33,34,0Z"/><path class="cls-3" d="M199.33,11.29s13.84.16,19.67,3.83,6.88,13.62,6.88,13.62-23.52-8.44-24.62-10.86a39.78,39.78,0,0,1-1.93-6.59"/><path class="cls-3" d="M110.26,26S114,9.29,135.33,9.79C135.33,9.79,129.86,24.84,110.26,26Z"/><path class="cls-3" d="M80.33,39.79s18.34,7.66,32.34,6.66,22.66,53.34,22.66,53.34-14.33-49.67-22.66-50S85.58,44.9,80.33,39.79Z"/><path class="cls-3" d="M249.07,39.79s-18.34,7.66-32.34,6.66-22.66,53.34-22.66,53.34,14.33-49.67,22.66-50S243.82,44.9,249.07,39.79Z"/><polyline class="cls-4" points="141.87 81.61 138.17 81.61 149.93 300.46 141.87 81.61"/><path class="cls-5" d="M84,258.45s25.33,21.57,54.17,23.12l-1.84,17.55-.33-16h-1.67l-1.33,13-.67-13-2.85-1.55v9.55L127,281.57l-1.33,6.57-1-6.57s-10.84-1.78-13.59-2.78S108,289.45,108,289.45l-2.33-14.66-3-1.67-.34,10.67L101,270.74l-2.75,12.75,1-13-1.87-.87-3.13,19.62,1.5-20.5-1.62-1.12-1.75,14.87.37-15.75L84,258.45"/><path class="cls-5" d="M244.16,264.75s-21.28,18.11-45.49,19.41l1.53,14.74.28-13.44h1.4L203,296.38l.56-10.92,2.4-1.3v8l2.08-8,1.12,5.52.84-5.52s9.1-1.5,11.41-2.34,2.59,9,2.59,9l2-12.31,2.52-1.4.28,8.95,1.09-10.95,2.31,10.71-.84-10.92,1.57-.73,2.62,16.48-1.25-17.22,1.36-.94,1.47,12.49-.32-13.23,7.39-7"/><path class="cls-3" d="M212.61,213.12s.67,22.39,28.72,29.45C241.33,242.57,208.55,241.79,212.61,213.12Z"/><path class="cls-3" d="M96.67,239.79s27.63,2,32.81-22C129.48,217.79,127.06,248.9,96.67,239.79Z"/><path class="cls-6" d="M140.42,49.12s16.76,11.07,43.9,5.33C184.32,54.45,154.57,68.64,140.42,49.12Z"/></g><g id="Cloud_RainShoes" data-name="Cloud/RainShoes"><path class="cls-7" d="M106.92,739.35l3.45,2.44h0l.5-6.33c8-8.88,21.5,0,21.5,0l1.7,5.68,6.69,2-1.15-7.7c19.59,29.87,8.47,36.42,8.47,36.42-32.79,27.54-52.77,3.67-56.11-1.71C87.21,762.5,100,738.4,100,738.4Z"/><path class="cls-7" d="M191.55,723.72s-9.1,29.19-8.24,37.07.05,25,33.06,20.25,29.58-12.83,23.17-22.83-9.79-11.4-9.77-18.3,4.13-9.08,4.1-12.92-6.09,6.43-6.09,6.43l-4.41,2.1.5-8.53s-13-7.35-19.5,0l-2.5,4.52H194.1L190.87,727"/><path class="cls-8" d="M110.87,735.46l-3.16,25.82h24l2.39-20.14-1.7-5.68S119,726.92,110.87,735.46Z"/><path class="cls-8" d="M201.87,731.51s-2.33,5.56,3.34,29.77l26.43,2.52s-8.69-26.51-8.27-28.28a72.83,72.83,0,0,0,.5-8.53s-16.5-10.46-22,4.52"/><path class="cls-9" d="M95.06,771.62s22.83-30.61,54.82-1.07C149.88,770.55,119.24,800.49,95.06,771.62Z"/><path class="cls-9" d="M187.13,770.84s24.55-27.8,56.54,1.74C243.67,772.58,203.12,794.33,187.13,770.84Z"/><path class="cls-10" d="M96.06,747.51s-29.19,34.24,24.38,38.42c0,0,50.4-3.36,24.55-41.48h0s20.85,37.4-24.55,36.59c-42.27-.75-24.38-33.53-24.38-33.53"/><path class="cls-10" d="M185.4,746.23s-17,43.63,31,37.12S239.44,760,239.44,760s13.43,16.87-21.07,18.87S187.13,774,185.4,746.23Z"/><polygon class="cls-9" points="229.78 757.43 217.03 751.5 226.31 747.53 226.31 745.28 217.03 749.29 203.53 746.22 203.65 748.43 215.61 751.36 204.76 757.43 205.16 759.06 216.66 754.15 229.78 758.84 229.78 757.43"/><polygon class="cls-9" points="227.27 743.65 214.52 737.73 223.8 733.76 223.8 731.51 214.52 735.52 201.02 732.45 201.13 734.65 213.09 737.58 202.25 743.65 202.64 745.28 214.14 740.38 227.27 745.07 227.27 743.65"/><polygon class="cls-9" points="108.84 748.94 120.4 743.25 111.23 741.66 111.03 740.11 120.19 741.73 132.72 737.91 132.81 739.45 121.73 742.97 132.57 745.81 132.35 746.99 120.99 745.03 108.97 749.92 108.84 748.94"/><polygon class="cls-9" points="107.71 758.77 119.27 753.08 110.1 751.5 109.9 749.95 119.06 751.56 131.59 747.75 131.68 749.29 120.6 752.8 131.44 755.65 131.22 756.82 119.86 754.87 107.84 759.75 107.71 758.77"/><path class="cls-11" d="M100.87,770.37s3.8,11.43,25.5,6.47C126.37,776.84,103.87,777.4,100.87,770.37Z"/><path class="cls-11" d="M216.37,774.23s17.91,2.58,18.69-8.4C235.06,765.83,223.86,777.13,216.37,774.23Z"/></g><g id="rcbpants"><g id="ccbpants"><path class="cls-12" d="M91.67,276.72s66.88,41.53,147.73-2.7c0,0,40.94,102.82,10,209.83,0,0-10.06,88.5-1.38,110.5S231.3,716.16,235.31,723.26s-.25,25.78-.25,25.78-9.6-11.14-21.79-8.69c0,0-22.16-.16-25.44,7.69s2-35.82,0-49-10.35-98.59-4.34-129.67c6.38-33-13.74-94.94-12.24-133s-3.57-58-3.57-58-13.37,145.53-11.77,162.27,5.41,140.73,0,166.73-8.41,37.79-8.41,37.79-13.72-2.48-21.39.87-20.17,13.11-29.94,9.73c0,0-9.59-12.71,0-29.54s-2.76-24.85-10.27-62.85,4.5-103.47,4-122.73S63.53,419.61,71.37,387,66.63,303.22,91.67,276.72Z"/><path class="cls-13" d="M123.71,311.35s-9.34,31.23-37.84,37.86C85.87,349.21,124.55,357.85,123.71,311.35Z"/><path class="cls-13" d="M213.88,311.35s9.35,31.23,37.85,37.86C251.73,349.21,213,357.85,213.88,311.35Z"/><path class="cls-14" d="M94.79,730.88s6.38,9.75,18.25,1c23.79-17.59,24.66-3.66,27-1s-1-8.5-9.67-10.83S118,731,109,728s-9.49-9.6-9.49-9.6S97.59,730.73,94.79,730.88Z"/><path class="cls-14" d="M155.91,709.35s-13.29-6.75-20.54-3.25,18,.68,19.27,10.09h0l1.27-6.84"/><path class="cls-14" d="M187.83,745.51S192,729.69,211.37,734s16.33-3.33,16.33-3.33S222,734,211,730.69s-21.88,7.41-21.88,7.41l-1.33,7.41"/><path class="cls-14" d="M245.49,653.37s-9.79,51-31.45,43c0,0,23.57,16.71,31.45-43"/></g><circle class="cls-15" cx="167.05" cy="306.28" r="4.83"/><path class="cls-16" d="M166.74,301.88s-6.5,5.57,0,8.16c0,0-7.75-2.41,0-8.16"/><rect class="cls-13" x="135.67" y="295.12" width="4.75" height="16.23" rx="1.66" ry="1.66"/><rect class="cls-13" x="192.83" y="293.76" width="4.75" height="16.23" rx="1.66" ry="1.66"/><path class="cls-13" d="M158.12,306s1.3,48.17,1.3,53.67,15.75,8,16.5,0c0,0-9,8-14.75,0l-2-53.34Z"/></g></g></g></g></svg>