<svg xmlns="http://www.w3.org/2000/svg" viewBox="0 0 183 419.55"><defs><style>.cls-1{fill:none;}.cls-2{fill:#303030;}.cls-3{fill:#3d3d3d;}.cls-4{fill:#474f59;}.cls-5{fill:#7c7b60;}.cls-6{fill:#5b5945;}.cls-7{fill:#fff;}.cls-8{fill:#505b68;}.cls-9{fill:#434c54;}.cls-10{fill:#797a7a;}.cls-11{fill:#5f6a75;}.cls-12{fill:#ccc;}.cls-13{fill:#565556;}.cls-14{fill:#4f4c4f;}.cls-15{fill:#cccacc;}.cls-16{fill:#999;}.cls-17{fill:#fcfcfc;}</style></defs><title>rcb</title><g id="Layer_2" data-name="Layer 2"><g id="rcb"><g id="rcb-2" data-name="rcb"><rect class="cls-1" y="4.55" width="183" height="415"/><g id="rcbpants"><g id="ccbpants"><path class="cls-2" d="M51.12,138.35s33,20.62,73-1.34c0,0,20.22,51,4.92,104.16,0,0-5,43.92-.68,54.84s-8.24,60.46-6.26,64-.13,12.79-.13,12.79-4.74-5.52-10.76-4.31c0,0-10.94-.08-12.56,3.82s1-17.78,0-24.33S93.51,299,96.48,283.61c3.15-16.38-6.79-47.13-6-66s-1.76-28.79-1.76-28.79-6.6,72.24-5.81,80.54,2.67,69.86,0,82.76-4.16,18.76-4.16,18.76-6.78-1.23-10.56.43-10,6.51-14.79,4.83c0,0-4.74-6.31,0-14.66s-1.37-12.33-5.08-31.2,2.23-51.36,2-60.92-13-60.06-9.15-76.23S38.76,151.51,51.12,138.35Z"/><path class="cls-3" d="M67,155.54s-4.61,15.5-18.69,18.8C48.26,174.34,67.37,178.63,67,155.54Z"/><path class="cls-3" d="M111.49,155.54s4.62,15.5,18.7,18.8C130.19,174.34,111.08,178.63,111.49,155.54Z"/><path class="cls-4" d="M52.67,363.78s3.15,4.84,9,.49c11.75-8.74,12.18-1.82,13.34-.5s-.5-4.22-4.78-5.38-6.09,5.46-10.54,4S55,357.59,55,357.59,54.05,363.71,52.67,363.78Z"/><path class="cls-4" d="M82.86,353.1s-6.57-3.35-10.15-1.62,8.91.34,9.52,5h0l.63-3.39"/><path class="cls-4" d="M98.63,371s2.07-7.85,11.62-5.7,8.07-1.65,8.07-1.65-2.8,1.65-8.23,0-10.81,3.68-10.81,3.68L98.63,371"/><path class="cls-4" d="M127.11,325.31s-4.84,25.31-15.54,21.33c0,0,11.65,8.3,15.54-21.33"/></g><ellipse class="cls-5" cx="88.36" cy="153.03" rx="2.39" ry="2.4"/><path class="cls-6" d="M88.21,150.84s-3.21,2.77,0,4c0,0-3.83-1.19,0-4"/><rect class="cls-3" x="72.86" y="147.49" width="2.35" height="8.06" rx="1.17" ry="1.17"/><rect class="cls-3" x="101.1" y="146.81" width="2.35" height="8.06" rx="1.17" ry="1.17"/><path class="cls-3" d="M84,152.86s.64,23.91.64,26.64,7.78,4,8.15,0c0,0-4.44,4-7.28,0l-1-26.47Z"/></g><g id="rcbshirt"><path class="cls-7" d="M66,11.17s22.62,29.15,44.66,0l20.45,7-1,56.42-7.43,20.08,4,45s-34.84,22.12-74.58,0V93.87L47,68V18Z"/><path class="cls-8" d="M76.2,31A21.57,21.57,0,0,0,61.31,12.9C74.68,11.17,75,0,75,0,44.36.44,43.93,16.61,43.93,16.61v.6c-6.31,2-12.51,4.56-15,7.5C23,31.66,19.36,90,19.36,90c-12.51,16.35-9.65,61.83-9.65,61.83l-2.86,8.86c4,7.28,19.09,6.42,19.09,6.42s-.32-13,7.24-31.54c7.73-18.93,12.28-52.51,12.28-52.51s1.56,37.59.27,40.18,2.61,5,2.61,5l-2.61,11.47C49,149.25,81,153.28,81,153.28S78,45.56,76.2,31Z"/><path class="cls-8" d="M170,151.86s2.52-37.47-8.67-56.66c0,0-1.37-72-21.76-74,0,0-4.95-2.1-10.37-4-.53-1.62-1.83-8.1-4.75-11.3C120.78,1.88,104.32,0,104.32,0s1,6,1.72,8.54c.36,1.31,6.49,3.7,12.38,5.73-2.85-.11-10.93.32-15.75,8.13-5.93,9.59,1.47,131.37,1.47,131.37s21.58-7.5,25.53-14l-2-8.83s3.43-.66,3.36-3.31-4.21-33.26,0-47.24c0,0,9.22,30,9.19,51.22,0,0,6.26,18,12.48,22.17l2.63,6.95s9.55,3.64,16.79,0Z"/><path class="cls-9" d="M105.31,5.6s6.83.08,9.71,1.9,3.4,6.77,3.4,6.77-11.62-4.19-12.16-5.4a19.34,19.34,0,0,1-1-3.27"/><path class="cls-9" d="M61.31,12.9s1.85-8.29,12.38-8C73.69,4.86,71,12.33,61.31,12.9Z"/><path class="cls-9" d="M46.53,19.75s9,3.8,16,3.31S73.69,49.53,73.69,49.53,66.61,24.88,62.5,24.71,49.12,22.29,46.53,19.75Z"/><path class="cls-9" d="M129.87,19.75s-9.05,3.8-16,3.31-11.2,26.47-11.2,26.47,7.08-24.65,11.2-24.82S127.28,22.29,129.87,19.75Z"/><polyline class="cls-10" points="76.92 40.51 75.09 40.51 80.9 149.14 76.92 40.51"/><path class="cls-11" d="M48.34,128.29S60.85,139,75.09,139.76l-.9,8.71L74,140.53H73.2L72.54,147l-.33-6.45-1.41-.77v4.74l-1.22-4.74L68.92,143l-.5-3.26s-5.35-.88-6.7-1.38-1.53,5.29-1.53,5.29L59,136.39l-1.48-.82-.17,5.29-.63-6.47-1.36,6.33.49-6.46-.93-.43-1.54,9.74.74-10.18-.8-.55-.87,7.38.19-7.82-4.34-4.11"/><path class="cls-11" d="M127.45,131.41s-10.51,9-22.47,9.64l.76,7.31.14-6.67h.69l.55,5.42.28-5.42,1.18-.64v4l1-4,.55,2.74.42-2.74s4.49-.75,5.63-1.16,1.28,4.44,1.28,4.44l1-6.11,1.24-.69.14,4.44.54-5.44,1.14,5.32-.42-5.42.78-.36,1.3,8.18-.62-8.55.67-.47.73,6.2-.16-6.56,3.65-3.46"/><path class="cls-9" d="M111.86,105.78s.34,11.12,14.19,14.62C126.05,120.4,109.86,120,111.86,105.78Z"/><path class="cls-9" d="M54.59,119s13.65,1,16.21-10.92C70.8,108.1,69.61,123.54,54.59,119Z"/><path class="cls-12" d="M76.2,24.38s8.28,5.5,21.69,2.65C97.89,27,83.19,34.07,76.2,24.38Z"/></g><g id="Cloud_RainShoes" data-name="Cloud/RainShoes"><path class="cls-13" d="M59.66,376l1.7,1.2h0l.25-3.14c4-4.4,10.62,0,10.62,0l.84,2.83,3.31,1-.58-3.83C85.48,388.88,80,392.13,80,392.13c-16.2,13.67-26.07,1.82-27.72-.85-2.35-3.81,4-15.77,4-15.77Z"/><path class="cls-13" d="M101.46,368.23s-4.49,14.49-4.07,18.4,0,12.39,16.33,10.05,14.61-6.37,11.45-11.33-4.84-5.66-4.83-9.08,2-4.51,2-6.42-3,3.19-3,3.19l-2.18,1,.25-4.24s-6.42-3.65-9.63,0l-1.24,2.25h-3.84l-1.59-2.25"/><path class="cls-14" d="M61.61,374.05l-1.56,12.82H71.89l1.18-10-.84-2.83S65.65,369.81,61.61,374.05Z"/><path class="cls-14" d="M106.56,372.1s-1.15,2.75,1.65,14.77l13.06,1.25s-4.3-13.16-4.09-14a37.19,37.19,0,0,0,.25-4.24s-8.15-5.19-10.87,2.25"/><path class="cls-15" d="M53.8,392s11.28-15.2,27.08-.54C80.88,391.47,65.74,406.33,53.8,392Z"/><path class="cls-15" d="M99.28,391.62s12.12-13.8,27.93.86C127.21,392.48,107.18,403.28,99.28,391.62Z"/><path class="cls-16" d="M54.3,380s-14.42,17,12,19.07c0,0,24.89-1.67,12.12-20.59h0s10.3,18.56-12.12,18.16c-20.88-.37-12-16.64-12-16.64"/><path class="cls-16" d="M98.42,379.4s-8.41,21.66,15.3,18.42,11.4-11.6,11.4-11.6,6.63,8.37-10.41,9.36S99.28,393.21,98.42,379.4Z"/><polygon class="cls-15" points="120.35 384.96 114.05 382.02 118.63 380.05 118.63 378.93 114.05 380.92 107.38 379.4 107.44 380.49 113.34 381.94 107.99 384.96 108.18 385.77 113.86 383.33 120.35 385.66 120.35 384.96"/><polygon class="cls-15" points="119.11 378.12 112.81 375.18 117.39 373.21 117.39 372.1 112.81 374.09 106.14 372.56 106.19 373.65 112.1 375.11 106.75 378.12 106.94 378.93 112.62 376.5 119.11 378.82 119.11 378.12"/><polygon class="cls-15" points="60.61 380.75 66.31 377.92 61.79 377.13 61.69 376.37 66.22 377.17 72.4 375.27 72.45 376.04 66.98 377.78 72.33 379.19 72.22 379.78 66.61 378.81 60.67 381.23 60.61 380.75"/><polygon class="cls-15" points="60.05 385.63 65.76 382.8 61.23 382.02 61.13 381.25 65.66 382.05 71.84 380.15 71.89 380.92 66.42 382.66 71.77 384.07 71.66 384.66 66.05 383.69 60.12 386.11 60.05 385.63"/><path class="cls-17" d="M56.67,391.38s1.88,5.68,12.6,3.21C69.27,394.59,58.15,394.87,56.67,391.38Z"/><path class="cls-17" d="M113.72,393.3s8.85,1.28,9.24-4.17C123,389.13,117.42,394.74,113.72,393.3Z"/></g></g></g></g></svg>