<svg xmlns="http://www.w3.org/2000/svg" viewBox="0 0 334.67 788.21"><defs><style>.cls-1{fill:#565556;}.cls-2{fill:#4f4c4f;}.cls-3{fill:#cccacc;}.cls-4{fill:#999;}.cls-5{fill:#fcfcfc;}.cls-6{fill:#8c7a62;}.cls-7{fill:#756551;}.cls-8{fill:#7c7b60;}.cls-9{fill:#5b5945;}.cls-10{fill:#776755;}.cls-11{fill:#333;}.cls-12{fill:#aa4946;}.cls-13{fill:#843a3a;}.cls-14{fill:#797a7a;}.cls-15{fill:#b55454;}.cls-16{fill:#0a0a0a;}</style></defs><title>rcb2</title><g id="Layer_2" data-name="Layer 2"><g id="rcb2"><g id="rcb2-2" data-name="rcb2"><g id="Cloud_RainShoes" data-name="Cloud/RainShoes"><path class="cls-1" d="M110.49,741.63l3.46,2.43h0l.5-6.33c8-8.87,21.5,0,21.5,0l1.69,5.69,6.7,2-1.16-7.71c19.59,29.87,8.47,36.42,8.47,36.42-32.79,27.55-52.77,3.67-56.11-1.7-4.76-7.68,8.07-31.78,8.07-31.78Z"/><path class="cls-1" d="M195.12,726s-9.1,29.19-8.24,37.07.05,25,33.06,20.25,29.58-12.84,23.17-22.84-9.78-11.4-9.77-18.29,4.13-9.08,4.11-12.93-6.1,6.43-6.1,6.43L227,737.8l.5-8.54s-13-7.34-19.5,0l-2.5,4.53h-7.78l-3.22-4.53"/><path class="cls-2" d="M114.45,737.73l-3.16,25.83h24l2.39-20.14L136,737.73S122.61,729.19,114.45,737.73Z"/><path class="cls-2" d="M205.45,733.79s-2.34,5.56,3.33,29.77l26.44,2.52s-8.7-26.51-8.27-28.28a75.39,75.39,0,0,0,.5-8.54s-16.5-10.46-22,4.53"/><path class="cls-3" d="M98.63,773.9s22.83-30.61,54.82-1.07C153.45,772.83,122.81,802.77,98.63,773.9Z"/><path class="cls-3" d="M190.7,773.12s24.55-27.81,56.54,1.74C247.24,774.86,206.7,796.61,190.7,773.12Z"/><path class="cls-4" d="M99.64,749.79S70.45,784,124,788.21c0,0,50.4-3.36,24.55-41.48h0s20.85,37.4-24.55,36.59c-42.27-.75-24.37-33.53-24.37-33.53"/><path class="cls-4" d="M189,748.51s-17,43.63,31,37.11S243,762.24,243,762.24s13.44,16.87-21.06,18.87S190.7,776.32,189,748.51Z"/><polygon class="cls-3" points="233.35 759.7 220.6 753.78 229.88 749.8 229.88 747.56 220.6 751.57 207.11 748.5 207.22 750.7 219.18 753.63 208.34 759.7 208.73 761.33 220.23 756.42 233.35 761.12 233.35 759.7"/><polygon class="cls-3" points="230.84 745.93 218.09 740 227.37 736.03 227.37 733.79 218.09 737.8 204.59 734.73 204.7 736.93 216.66 739.86 205.82 745.93 206.21 747.56 217.72 742.65 230.84 747.35 230.84 745.93"/><polygon class="cls-3" points="112.42 751.22 123.97 745.53 114.81 743.94 114.6 742.39 123.77 744 136.29 740.19 136.38 741.73 125.31 745.25 136.14 748.09 135.92 749.26 124.56 747.31 112.55 752.19 112.42 751.22"/><polygon class="cls-3" points="111.28 761.05 122.84 755.36 113.67 753.77 113.47 752.22 122.64 753.84 135.16 750.02 135.25 751.56 124.18 755.08 135.01 757.92 134.79 759.1 123.43 757.14 111.41 762.03 111.28 761.05"/><path class="cls-5" d="M104.45,772.64s3.79,11.44,25.5,6.48C130,779.12,107.45,779.68,104.45,772.64Z"/><path class="cls-5" d="M219.94,776.5s17.91,2.58,18.7-8.39C238.64,768.11,227.43,779.4,219.94,776.5Z"/></g><g id="rcbpants2"><g id="ccbpants"><path class="cls-6" d="M93.58,275.72s66.88,41.53,147.73-2.7c0,0,40.94,102.82,10,209.83,0,0-10.06,88.5-1.38,110.5s-16.69,121.81-12.69,128.91S237,748,237,748s-9.6-11.14-21.79-8.69c0,0-22.16-.16-25.44,7.69s2-35.82,0-49-10.35-98.59-4.34-129.67c6.38-33-13.74-94.94-12.25-133s-3.57-58-3.57-58-13.36,145.53-11.76,162.27,5.41,140.73,0,166.73-8.41,37.79-8.41,37.79-13.72-2.48-21.39.87-20.17,13.11-29.94,9.73c0,0-9.59-12.71,0-29.54s-2.76-24.85-10.28-62.85,4.51-103.47,4-122.73S65.44,418.61,73.28,386,68.54,302.22,93.58,275.72Z"/><path class="cls-7" d="M125.62,310.35s-9.34,31.23-37.84,37.86C87.78,348.21,126.46,356.85,125.62,310.35Z"/><path class="cls-7" d="M215.79,310.35s9.34,31.23,37.84,37.86C253.63,348.21,215,356.85,215.79,310.35Z"/><path class="cls-7" d="M96.7,729.88s6.38,9.75,18.25,1c23.79-17.59,24.66-3.66,27-1s-1-8.5-9.67-10.83S120,730,111,727s-9.49-9.6-9.49-9.6S99.5,729.73,96.7,729.88Z"/><path class="cls-7" d="M157.82,708.35s-13.29-6.75-20.54-3.25,18,.68,19.27,10.09h0l1.27-6.84"/><path class="cls-7" d="M189.74,744.51S194,728.69,213.28,733s16.33-3.33,16.33-3.33S224,733,213,729.69s-21.88,7.41-21.88,7.41l-1.33,7.41"/><path class="cls-7" d="M247.4,652.37s-9.79,51-31.45,43c0,0,23.57,16.71,31.45-43"/></g><circle class="cls-8" cx="168.96" cy="305.28" r="4.83"/><path class="cls-9" d="M168.65,300.88s-6.5,5.57,0,8.16c0,0-7.75-2.41,0-8.16"/><rect class="cls-10" x="137.58" y="294.12" width="4.75" height="16.23" rx="1.66" ry="1.66"/><rect class="cls-10" x="194.74" y="292.76" width="4.75" height="16.23" rx="1.66" ry="1.66"/><path class="cls-7" d="M160,305s1.3,48.17,1.3,53.67,15.75,8,16.5,0c0,0-9,8-14.75,0l-2-53.34Z"/></g><g id="rcbshirt2"><path class="cls-11" d="M119.66,22.51s45.8,58.73,90.4,0l41.41,14.2-2,113.66-15,40.46,8.06,90.74s-70.54,44.56-151,0V189.12L81.2,137V36.22Z"/><path class="cls-12" d="M140.42,62.45C136.83,33.12,110.26,26,110.26,26c27.07-3.47,27.81-26,27.81-26-62.11.88-63,33.47-63,33.47v1.21c-12.78,4-25.34,9.17-30.42,15.11-12,14-19.34,131.6-19.34,131.6C0,214.32,5.8,306,5.8,306L0,323.79c8,14.66,38.67,12.94,38.67,12.94S38,310.45,53.31,273.18C69,235.06,78.18,167.4,78.18,167.4s3.15,75.72.54,80.94S84,258.45,84,258.45l-5.28,23.12c6.71,19.12,71.45,27.24,71.45,27.24S144,91.79,140.42,62.45Z"/><path class="cls-12" d="M330.22,306s5.11-75.5-17.55-114.16c0,0-2.77-145-44.05-149.16,0,0-10-4.24-21-8.09-1.07-3.26-3.71-16.3-9.62-22.75C230.67,3.79,197.34,0,197.34,0s2.07,12.08,3.48,17.21c.72,2.63,13.15,7.46,25.06,11.53-5.77-.22-22.12.66-31.88,16.38-12,19.33,3,264.67,3,264.67s43.7-15.1,51.7-28.22l-4-17.78s6.94-1.34,6.8-6.67-8.52-67,0-95.18c0,0,18.67,60.51,18.6,103.18,0,0,12.67,36.21,25.26,44.67l5.34,14s19.33,7.33,34,0Z"/><path class="cls-13" d="M199.33,11.29s13.84.16,19.67,3.83,6.88,13.62,6.88,13.62-23.52-8.44-24.62-10.86a39.78,39.78,0,0,1-1.93-6.59"/><path class="cls-13" d="M110.26,26S114,9.29,135.33,9.79C135.33,9.79,129.86,24.84,110.26,26Z"/><path class="cls-13" d="M80.33,39.79s18.34,7.66,32.34,6.66,22.66,53.34,22.66,53.34-14.33-49.67-22.66-50S85.58,44.9,80.33,39.79Z"/><path class="cls-13" d="M249.07,39.79s-18.34,7.66-32.34,6.66-22.66,53.34-22.66,53.34,14.33-49.67,22.66-50S243.82,44.9,249.07,39.79Z"/><polyline class="cls-14" points="141.87 81.61 138.17 81.61 149.93 300.46 141.87 81.61"/><path class="cls-15" d="M84,258.45s25.33,21.57,54.17,23.12l-1.84,17.55-.33-16h-1.67l-1.33,13-.67-13-2.85-1.55v9.55L127,281.57l-1.33,6.57-1-6.57s-10.84-1.78-13.59-2.78S108,289.45,108,289.45l-2.33-14.66-3-1.67-.34,10.67L101,270.74l-2.75,12.75,1-13-1.87-.87-3.13,19.62,1.5-20.5-1.62-1.12-1.75,14.87.37-15.75L84,258.45"/><path class="cls-15" d="M244.16,264.75s-21.28,18.11-45.49,19.41l1.53,14.74.28-13.44h1.4L203,296.38l.56-10.92,2.4-1.3v8l2.08-8,1.12,5.52.84-5.52s9.1-1.5,11.41-2.34,2.59,9,2.59,9l2-12.31,2.52-1.4.28,8.95,1.09-10.95,2.31,10.71-.84-10.92,1.57-.73,2.62,16.48-1.25-17.22,1.36-.94,1.47,12.49-.32-13.23,7.39-7"/><path class="cls-13" d="M212.61,213.12s.67,22.39,28.72,29.45C241.33,242.57,208.55,241.79,212.61,213.12Z"/><path class="cls-13" d="M96.67,239.79s27.63,2,32.81-22C129.48,217.79,127.06,248.9,96.67,239.79Z"/><path class="cls-16" d="M140.42,49.12s16.76,11.07,43.9,5.33C184.32,54.45,154.57,68.64,140.42,49.12Z"/></g></g></g></g></svg>