<svg xmlns="http://www.w3.org/2000/svg" viewBox="0 0 183 418.12"><defs><style>.cls-1{fill:none;}.cls-2{fill:#565556;}.cls-3{fill:#4f4c4f;}.cls-4{fill:#cccacc;}.cls-5{fill:#999;}.cls-6{fill:#fcfcfc;}.cls-7{fill:#8c7a62;}.cls-8{fill:#756551;}.cls-9{fill:#7c7b60;}.cls-10{fill:#5b5945;}.cls-11{fill:#776755;}.cls-12{fill:#333;}.cls-13{fill:#aa4946;}.cls-14{fill:#843a3a;}.cls-15{fill:#797a7a;}.cls-16{fill:#b55454;}.cls-17{fill:#0a0a0a;}</style></defs><title>rcb2</title><g id="Layer_2" data-name="Layer 2"><g id="rcb2"><g id="rcb2-2" data-name="rcb2"><rect class="cls-1" y="3.12" width="183" height="415"/><g id="Cloud_RainShoes" data-name="Cloud/RainShoes"><path class="cls-2" d="M58.42,375.12l1.71,1.2h0l.25-3.14c3.95-4.4,10.62,0,10.62,0l.83,2.83,3.31,1-.57-3.83c9.67,14.83,4.18,18.08,4.18,18.08-16.19,13.67-26.06,1.82-27.71-.85-2.35-3.81,4-15.77,4-15.77Z"/><path class="cls-2" d="M100.23,367.36s-4.5,14.49-4.08,18.4,0,12.39,16.33,10.05,14.62-6.37,11.45-11.33-4.83-5.66-4.83-9.08,2.05-4.51,2-6.42-3,3.19-3,3.19L116,373.22l.24-4.24s-6.42-3.65-9.63,0l-1.23,2.25h-3.85L99.89,369"/><path class="cls-3" d="M60.38,373.18,58.81,386H70.65l1.18-10L71,373.18S64.41,368.94,60.38,373.18Z"/><path class="cls-3" d="M105.33,371.23S104.17,374,107,386L120,387.25s-4.29-13.16-4.08-14a39.13,39.13,0,0,0,.24-4.24s-8.15-5.19-10.86,2.25"/><path class="cls-4" d="M52.56,391.14s11.28-15.2,27.08-.54C79.64,390.6,64.51,405.46,52.56,391.14Z"/><path class="cls-4" d="M98,390.75s12.13-13.8,27.93.86C126,391.61,105.94,402.41,98,390.75Z"/><path class="cls-5" d="M53.06,379.17s-14.42,17,12,19.07c0,0,24.9-1.67,12.13-20.59h0s10.3,18.56-12.13,18.16c-20.88-.37-12-16.64-12-16.64"/><path class="cls-5" d="M97.19,378.53S88.77,400.19,112.48,397s11.4-11.6,11.4-11.6,6.64,8.37-10.4,9.36S98,392.34,97.19,378.53Z"/><polygon class="cls-4" points="119.11 384.09 112.81 381.15 117.4 379.18 117.4 378.06 112.81 380.05 106.15 378.53 106.2 379.62 112.11 381.07 106.75 384.09 106.95 384.9 112.63 382.46 119.11 384.79 119.11 384.09"/><polygon class="cls-4" points="117.87 377.25 111.57 374.31 116.16 372.34 116.16 371.23 111.57 373.22 104.9 371.69 104.96 372.79 110.87 374.24 105.51 377.25 105.7 378.06 111.39 375.63 117.87 377.95 117.87 377.25"/><polygon class="cls-4" points="59.37 379.88 65.08 377.05 60.55 376.26 60.45 375.5 64.98 376.3 71.17 374.4 71.21 375.17 65.74 376.91 71.09 378.32 70.98 378.91 65.37 377.94 59.44 380.36 59.37 379.88"/><polygon class="cls-4" points="58.81 384.76 64.52 381.93 59.99 381.14 59.89 380.38 64.42 381.18 70.61 379.28 70.65 380.05 65.18 381.79 70.53 383.2 70.42 383.79 64.81 382.82 58.88 385.24 58.81 384.76"/><path class="cls-6" d="M55.44,390.51s1.87,5.68,12.59,3.21C68,393.72,56.92,394,55.44,390.51Z"/><path class="cls-6" d="M112.48,392.43s8.85,1.28,9.24-4.17C121.72,388.26,116.19,393.87,112.48,392.43Z"/></g><g id="rcbpants2"><g id="ccbpants"><path class="cls-7" d="M52.07,136.86s33,20.61,73-1.34c0,0,20.22,51,4.92,104.15,0,0-5,43.93-.67,54.85S121,355,123,358.5s-.12,12.8-.12,12.8-4.74-5.53-10.77-4.31c0,0-10.94-.08-12.56,3.81s1-17.78,0-24.33-5.12-48.94-2.15-64.36c3.15-16.38-6.78-47.13-6-66s-1.77-28.79-1.77-28.79S83,259.54,83.8,267.85s2.67,69.85,0,82.76-4.15,18.75-4.15,18.75-6.78-1.23-10.57.43-10,6.51-14.79,4.83c0,0-4.74-6.3,0-14.66s-1.36-12.33-5.07-31.19,2.22-51.36,2-60.92-13-60.07-9.16-76.23S39.7,150,52.07,136.86Z"/><path class="cls-8" d="M67.9,154.05s-4.62,15.5-18.7,18.79C49.2,172.84,68.31,177.13,67.9,154.05Z"/><path class="cls-8" d="M112.44,154.05s4.61,15.5,18.69,18.79C131.13,172.84,112,177.13,112.44,154.05Z"/><path class="cls-8" d="M53.61,362.29s3.15,4.83,9,.48C74.37,354,74.81,361,76,362.27s-.49-4.22-4.78-5.37-6.09,5.45-10.53,4S56,356.1,56,356.1,55,362.21,53.61,362.29Z"/><path class="cls-8" d="M83.8,351.6s-6.56-3.35-10.15-1.61,8.92.33,9.52,5h0l.63-3.39"/><path class="cls-8" d="M99.57,369.55s2.07-7.86,11.62-5.71,8.07-1.65,8.07-1.65-2.8,1.65-8.23,0-10.81,3.68-10.81,3.68l-.65,3.68"/><path class="cls-8" d="M128.05,323.81s-4.84,25.31-15.54,21.34c0,0,11.65,8.29,15.54-21.34"/></g><ellipse class="cls-9" cx="89.3" cy="151.53" rx="2.39" ry="2.4"/><path class="cls-10" d="M89.15,149.34s-3.21,2.77,0,4c0,0-3.83-1.19,0-4"/><rect class="cls-11" x="73.8" y="145.99" width="2.35" height="8.06" rx="1.17" ry="1.17"/><rect class="cls-11" x="102.04" y="145.32" width="2.35" height="8.06" rx="1.17" ry="1.17"/><path class="cls-8" d="M84.89,151.37s.64,23.91.64,26.64,7.78,4,8.15,0c0,0-4.44,4-7.28,0l-1-26.48Z"/></g><g id="rcbshirt2"><path class="cls-12" d="M66,11.17s22.62,29.15,44.66,0l20.45,7-1,56.42-7.43,20.08,4,45s-34.84,22.12-74.58,0V93.87L47,68V18Z"/><path class="cls-13" d="M76.2,31A21.57,21.57,0,0,0,61.31,12.9C74.68,11.17,75,0,75,0,44.36.44,43.93,16.61,43.93,16.61v.6c-6.31,2-12.51,4.56-15,7.5C23,31.66,19.36,90,19.36,90c-12.51,16.35-9.65,61.83-9.65,61.83l-2.86,8.86c4,7.28,19.09,6.42,19.09,6.42s-.32-13,7.24-31.54c7.73-18.93,12.28-52.51,12.28-52.51s1.56,37.59.27,40.18,2.61,5,2.61,5l-2.61,11.47C49,149.25,81,153.28,81,153.28S78,45.56,76.2,31Z"/><path class="cls-13" d="M170,151.86s2.52-37.47-8.67-56.66c0,0-1.37-72-21.76-74,0,0-4.95-2.1-10.37-4-.53-1.62-1.83-8.1-4.75-11.3C120.78,1.88,104.32,0,104.32,0s1,6,1.72,8.54c.36,1.31,6.49,3.7,12.38,5.73-2.85-.11-10.93.32-15.75,8.13-5.93,9.59,1.47,131.37,1.47,131.37s21.58-7.5,25.53-14l-2-8.83s3.43-.66,3.36-3.31-4.21-33.26,0-47.24c0,0,9.22,30,9.19,51.22,0,0,6.26,18,12.48,22.17l2.63,6.95s9.55,3.64,16.79,0Z"/><path class="cls-14" d="M105.31,5.6s6.83.08,9.71,1.9,3.4,6.77,3.4,6.77-11.62-4.19-12.16-5.4a19.34,19.34,0,0,1-1-3.27"/><path class="cls-14" d="M61.31,12.9s1.85-8.29,12.38-8C73.69,4.86,71,12.33,61.31,12.9Z"/><path class="cls-14" d="M46.53,19.75s9,3.8,16,3.31S73.69,49.53,73.69,49.53,66.61,24.88,62.5,24.71,49.12,22.29,46.53,19.75Z"/><path class="cls-14" d="M129.87,19.75s-9.05,3.8-16,3.31-11.2,26.47-11.2,26.47,7.08-24.65,11.2-24.82S127.28,22.29,129.87,19.75Z"/><polyline class="cls-15" points="76.92 40.51 75.09 40.51 80.9 149.14 76.92 40.51"/><path class="cls-16" d="M48.34,128.29S60.85,139,75.09,139.76l-.9,8.71L74,140.53H73.2L72.54,147l-.33-6.45-1.41-.77v4.74l-1.22-4.74L68.92,143l-.5-3.26s-5.35-.88-6.7-1.38-1.53,5.29-1.53,5.29L59,136.39l-1.48-.82-.17,5.29-.63-6.47-1.36,6.33.49-6.46-.93-.43-1.54,9.74.74-10.18-.8-.55-.87,7.38.19-7.82-4.34-4.11"/><path class="cls-16" d="M127.45,131.41s-10.51,9-22.47,9.64l.76,7.31.14-6.67h.69l.55,5.42.28-5.42,1.18-.64v4l1-4,.55,2.74.42-2.74s4.49-.75,5.63-1.16,1.28,4.44,1.28,4.44l1-6.11,1.24-.69.14,4.44.54-5.44,1.14,5.32-.42-5.42.78-.36,1.3,8.18-.62-8.55.67-.47.73,6.2-.16-6.56,3.65-3.46"/><path class="cls-14" d="M111.86,105.78s.34,11.12,14.19,14.62C126.05,120.4,109.86,120,111.86,105.78Z"/><path class="cls-14" d="M54.59,119s13.65,1,16.21-10.92C70.8,108.1,69.61,123.54,54.59,119Z"/><path class="cls-17" d="M76.2,24.38s8.28,5.5,21.69,2.65C97.89,27,83.19,34.07,76.2,24.38Z"/></g></g></g></g></svg>