<?xml version="1.0" encoding="utf-8"?>
<!-- Generator: Adobe Illustrator 22.1.0, SVG Export Plug-In . SVG Version: 6.00 Build 0)  -->
<svg version="1.1" id="Layer_1" xmlns="http://www.w3.org/2000/svg" xmlns:xlink="http://www.w3.org/1999/xlink" x="0px" y="0px"
	 viewBox="0 0 183 415" style="enable-background:new 0 0 183 415;" xml:space="preserve">
<style type="text/css">
	.st0{fill:none;}
	.st1{fill:#473319;}
	.st2{fill:#684B1E;}
	.st3{fill:#131B33;}
	.st4{fill:#1C2744;}
	.st5{fill:#020202;}
	.st6{fill:#878589;}
	.st7{fill:#D4D6D6;}
	.st8{fill:#C6C6C6;}
	.st9{fill:#666565;}
	.st10{fill:#543D3A;}
	.st11{fill:#42302D;}
	.st12{fill:#212121;}
	.st13{fill:#3A3A3A;}
	.st14{fill:#1B2944;}
	.st15{fill:#1F314C;}
</style>
<title>rfb</title>
<g id="Layer_2_1_">
	<g id="rfb">
		<g id="rfb-2">
			<rect class="st0" width="183" height="415"/>
			<g id="dressshoes">
				<g id="sbbshoes">
					<path class="st1" d="M53,380.4c0,0-7.5,17,9.6,18.5c0,0,15.3,0,18.3-7.2c1.5-3.6-4-14.6-4-14.6s3.8,11.3,3,12.5
						s-7.7,7.3-16.3,6.1S51.3,392.9,53,380.4"/>
					<path class="st2" d="M57.9,366.7c0,0-5.6,11.7-6.3,22c0,0,0.6,7.3,10.9,8s17.8-5,17.8-7.1S75,366.7,75,366.7l-4.5,3
						c-0.5-2.2-9.4-2.7-9.6,0L57.9,366.7z"/>
					<path class="st1" d="M53.6,390.3c0,0,2.7-1.7,4-1.7v0.2c-1.4,0.3-2.8,0.9-4,1.7V390.3z"/>
					<path class="st1" d="M59.5,388c0,0,3-0.9,4.3-0.6l0,0.2c-1.5,0-2.9,0.2-4.3,0.6L59.5,388z"/>
					<path class="st1" d="M65,386.9c0,0,3.1-0.7,4.3-0.4l-0.1,0.2c-1.4-0.1-2.9,0-4.3,0.4L65,386.9z"/>
					<path class="st1" d="M71.3,386.4c0,0,3.2-0.3,4.3,0.1l-0.1,0.2c-1.4-0.3-2.9-0.3-4.3-0.1L71.3,386.4z"/>
					<path class="st1" d="M77.1,386.7c0,0,3,1,3.8,2l-0.2,0.1c-1.2-0.9-2.5-1.6-3.8-2L77.1,386.7z"/>
					<path class="st1" d="M60.8,369.7l1.7,14.7C62.6,384.4,60.3,370.6,60.8,369.7z"/>
					<path class="st1" d="M70.3,384.5c0,0,0.7-13.8,0.3-14.8L70.3,384.5"/>
					<polyline class="st1" points="61,370.8 65.3,373 70.7,370.2 70.7,371.1 65.3,373.7 70.5,374.7 70.5,375.5 65.3,374.3 
						61.3,376.4 61.3,375.9 65,373.7 60.7,371.2 61,370.8 					"/>
					<polyline class="st1" points="61.2,376.1 65.6,378.3 70.9,375.5 71,376.4 65.6,379 70.8,380 70.8,380.7 65.6,379.6 61.6,381.7 
						61.5,381.2 65.2,379 61,376.5 61.2,376.1 					"/>
					<polyline class="st1" points="61.2,381.1 65.6,383.2 70.9,380.5 71,381.3 65.6,384 70.8,385 70.8,385.7 65.6,384.5 61.6,386.7 
						61.5,386.1 65.2,384 61,381.5 61.2,381.1 					"/>
				</g>
				<g id="sbbshoes-2">
					<path class="st1" d="M124.2,379.3c0,0,7.5,17-9.6,18.5c0,0-15.3,0-18.3-7.2c-1.5-3.6,4-14.6,4-14.6s-3.8,11.3-3,12.5
						s7.7,7.4,16.3,6.1S125.8,391.8,124.2,379.3"/>
					<path class="st2" d="M119.3,365.6c0,0,5.6,11.7,6.3,22c0,0-0.6,7.3-10.9,8.1s-17.8-5-17.8-7.1s5.4-22.9,5.4-22.9l4.5,3
						c0.5-2.2,9.4-2.7,9.6,0L119.3,365.6z"/>
					<path class="st1" d="M123.6,389.2c0,0-2.7-1.6-4-1.7v0.2c1.4,0.3,2.8,0.9,4,1.7V389.2z"/>
					<path class="st1" d="M117.7,386.9c0,0-3-0.9-4.3-0.6v0.2c1.5,0,2.9,0.2,4.3,0.6L117.7,386.9z"/>
					<path class="st1" d="M112.1,385.8c0,0-3.1-0.7-4.3-0.4l0.1,0.2c1.4-0.1,2.9,0,4.3,0.4L112.1,385.8z"/>
					<path class="st1" d="M105.8,385.3c0,0-3.2-0.3-4.3,0.1l0.1,0.2c1.4-0.3,2.9-0.3,4.3-0.1L105.8,385.3z"/>
					<path class="st1" d="M100.1,385.6c0,0-3,1.1-3.8,2l0.2,0.1c1.2-0.9,2.5-1.6,3.8-2L100.1,385.6z"/>
					<path class="st1" d="M116.3,368.6l-1.7,14.7C114.6,383.3,116.9,369.5,116.3,368.6z"/>
					<path class="st1" d="M106.9,383.4c0,0-0.7-13.8-0.3-14.8L106.9,383.4"/>
					<polyline class="st1" points="116.2,369.7 111.8,371.9 106.5,369.1 106.4,370 111.8,372.6 106.7,373.6 106.7,374.4 
						111.8,373.2 115.8,375.4 115.9,374.8 112.2,372.6 116.4,370.1 116.2,369.7 					"/>
					<polyline class="st1" points="116,375 111.6,377.2 106.2,374.4 106.2,375.3 111.6,377.9 106.4,378.9 106.4,379.7 111.6,378.5 
						115.6,380.6 115.7,380.1 112,377.9 116.2,375.4 116,375 					"/>
					<polyline class="st1" points="116,380 111.6,382.1 106.2,379.4 106.2,380.2 111.6,382.9 106.4,383.9 106.4,384.6 111.6,383.5 
						115.6,385.6 115.7,385 112,382.9 116.2,380.4 116,380 					"/>
				</g>
			</g>
			<g id="rfbpants">
				<g id="sbbpants">
					<path class="st3" d="M51.8,132.9c0,0,28.5,22.6,73.3,0c7.3,24.5,10.1,50.2,8.3,75.7c-3.2,41.2-6.9,51.6-6.9,54.6
						s3.5,42.9,3.5,45.9s-5.7,53.8-5.7,53.8s-6.3,5.2-11.8,5.7S98,364,98,364s-7.3-59.8-6.3-69.2s3.1-28,2.6-35.5
						s-3.6-68.7-3.6-68.7l-3.8-0.5c0,0-2.2,59.1-4.7,68.5s-0.7,31.5,1,38.7s-4.4,66.5-4.4,66.5s-10.4,5-13.6,5s-12.1-7.7-12.1-7.7
						s-5.9-64-4.9-66.8s3-30.3,3-34.8s-8.4-26.3-8.9-55.1S47,137.7,51.8,132.9z"/>
					<path class="st4" d="M113.2,204.7c0,0,3.3,69.5,2.3,73.1s-3.4,90.4-3.4,90.4l-2-0.3c0,0,2.8-87.1,2.8-90.4
						S113.2,204.7,113.2,204.7z"/>
					<path class="st4" d="M61.9,203.2c0,0-3.3,69.5-2.3,73.1s3.4,90.4,3.4,90.4l2-0.3c0,0-2.8-87.1-2.8-90.4S61.9,203.2,61.9,203.2z
						"/>
					<path class="st5" d="M50,136c0,0-2.7,4.1-2.2,7.5c0,0,23.7,8.1,39.3,8.2c16.2,0.1,40.8-8.2,40.8-8.2s0.2-6.8-2-7.5
						C126,136,97.3,155,50,136z"/>
					<path class="st6" d="M84.8,144.1H91c1.6,0,2.9,1.3,2.9,2.9v2.8c0,1.6-1.3,2.9-2.9,2.9h-6.2c-1.6,0-2.9-1.3-2.9-2.9v-2.8
						C81.9,145.3,83.2,144.1,84.8,144.1z"/>
					<path class="st5" d="M86.1,146.1h3.6c0.9,0,1.6,0.7,1.6,1.6v1.4c0,0.9-0.7,1.6-1.6,1.6h-3.6c-0.9,0-1.6-0.7-1.6-1.6v-1.4
						C84.5,146.8,85.2,146.1,86.1,146.1z"/>
				</g>
				<path class="st3" d="M73.5,142.7L73.5,142.7c0.7,0,1.2,0.5,1.2,1.2v6.5c0,0.7-0.5,1.2-1.2,1.2h0c-0.7,0-1.2-0.5-1.2-1.2v-6.5
					C72.2,143.3,72.8,142.7,73.5,142.7z"/>
				<path class="st3" d="M102,142.7L102,142.7c0.7,0,1.2,0.5,1.2,1.2v6.5c0,0.7-0.5,1.2-1.2,1.2h0c-0.7,0-1.2-0.5-1.2-1.2v-6.5
					C100.8,143.3,101.3,142.7,102,142.7z"/>
				<path class="st3" d="M120.8,137.6L120.8,137.6c0.7,0,1.2,0.5,1.2,1.2v6.5c0,0.7-0.5,1.2-1.2,1.2h0c-0.7,0-1.2-0.5-1.2-1.2v-6.5
					C119.6,138.1,120.1,137.6,120.8,137.6z"/>
				<path class="st3" d="M52.7,136.3L52.7,136.3c0.7,0,1.2,0.5,1.2,1.2v6.5c0,0.7-0.5,1.2-1.2,1.2l0,0c-0.7,0-1.2-0.5-1.2-1.2v-6.5
					C51.5,136.8,52.1,136.3,52.7,136.3z"/>
				<path class="st4" d="M106.9,159.9c0,0,6.7,11.8,22.6,9.3C129.5,169.1,113.8,174.6,106.9,159.9z"/>
				<path class="st4" d="M70.7,160.7c0,0-6.4,11.8-21.6,9.3C49.1,169.9,64.1,175.4,70.7,160.7z"/>
				<path class="st4" d="M85.5,162.6c0,0-3.2,24.5,2.9,24.2C88.4,186.8,83.5,185.6,85.5,162.6z"/>
			</g>
			<g id="rfbshirt">
				<g id="shirt">
					<path class="st7" d="M69.5,7.6c0,0-35,12.8-38.3,16.6S24,43.7,24.8,53.6c0,0-16.1,55-15.5,69.6l-0.9,30.7l-1.6-1.2l1.7,14.4
						c0,0,10,1.7,14-2.1l2.6-10.9l-1.1-0.1c0,0,14-26.9,14.2-30.7s9.7-47.9,9.7-47.9s3,17.9,2.8,21.8s1.8,32.8,1.8,32.8l-3.4,2.3
						c0,0,26.3,21.3,76.1,4.6l-1.7-7.4c0,0,1-26.8,0.2-34.4l6.3-16.4c0,0,8.1,48.8,14.8,62l8.2,12.6h-1.5l3.7,7.5
						c0,0,8.1,2.8,12.8-0.8l1.4-9.6h-1c0,0-1-38.6-2.6-43.5s-10.2-47.3-13.2-52.3c0,0,2.3-26.1-10.4-33.4c0,0-28.7-8-35.7-12.5
						c0,0-3.4,4.7-17.7,6.3S69.5,7.6,69.5,7.6z"/>
					<g id="sbbshirt2">
						<path class="st8" d="M85.6,17.7l2.3,125.1c0,0,2.3-0.1,2.9-0.1l0.9-125.1L85.6,17.7z"/>
						<path class="st7" d="M89.2,17.9c0,0-0.9-1-0.9,2c0,7,0.1,122.9,0.1,122.9H89C89,142.8,88.8,19.9,89.2,17.9z"/>
						<ellipse class="st9" cx="88.2" cy="39.8" rx="1.6" ry="1.6"/>
						<path class="st10" d="M88.6,38.5c0,0-1.4-0.1-1.7,0.9c-0.2,0.8,0.3,1.5,1,1.7c0.1,0,0.1,0,0.2,0
							C88.2,41.1,85.7,39.4,88.6,38.5z"/>
						<circle class="st10" cx="88.2" cy="39.9" r="0.4"/>
						<ellipse class="st9" cx="88.5" cy="28" rx="1.6" ry="1.6"/>
						<path class="st10" d="M89,26.8c0,0-1.4-0.1-1.7,0.9c-0.2,0.8,0.3,1.5,1.1,1.7c0.1,0,0.1,0,0.2,0C88.6,29.4,86.1,27.7,89,26.8z
							"/>
						<circle class="st10" cx="88.5" cy="28.1" r="0.4"/>
						<ellipse class="st9" cx="88.4" cy="53.1" rx="1.6" ry="1.6"/>
						<path class="st10" d="M88.8,51.9c0,0-1.4-0.1-1.7,0.9c-0.2,0.8,0.3,1.5,1.1,1.7c0.1,0,0.1,0,0.2,0
							C88.4,54.5,85.9,52.8,88.8,51.9z"/>
						<circle class="st10" cx="88.4" cy="53.2" r="0.4"/>
						<ellipse class="st9" cx="88.7" cy="68.8" rx="1.6" ry="1.6"/>
						<path class="st10" d="M89.1,67.6c0,0-1.4-0.1-1.7,0.9c-0.2,0.8,0.3,1.5,1.1,1.7c0.1,0,0.1,0,0.2,0
							C88.7,70.2,86.2,68.5,89.1,67.6z"/>
						<circle class="st10" cx="88.7" cy="68.9" r="0.4"/>
						<ellipse class="st9" cx="88.8" cy="82.2" rx="1.6" ry="1.6"/>
						<path class="st10" d="M89.3,80.9c0,0-1.4-0.1-1.7,0.9c-0.2,0.8,0.3,1.5,1.1,1.7c0.1,0,0.1,0,0.2,0
							C88.8,83.5,86.4,81.8,89.3,80.9z"/>
						<circle class="st10" cx="88.8" cy="82.3" r="0.4"/>
						<ellipse class="st9" cx="88.8" cy="95.5" rx="1.6" ry="1.6"/>
						<path class="st10" d="M89.2,94.3c0,0-1.4-0.1-1.7,0.9c-0.2,0.8,0.3,1.5,1.1,1.7c0.1,0,0.1,0,0.2,0
							C88.8,96.9,86.3,95.2,89.2,94.3z"/>
						<circle class="st10" cx="88.8" cy="95.6" r="0.4"/>
						<ellipse class="st9" cx="89" cy="108.8" rx="1.6" ry="1.6"/>
						<path class="st10" d="M89.4,107.6c0,0-1.4-0.1-1.7,0.9c-0.2,0.8,0.3,1.5,1.1,1.7c0.1,0,0.1,0,0.2,0
							C89,110.2,86.5,108.5,89.4,107.6z"/>
						<circle class="st10" cx="89" cy="109" r="0.4"/>
						<ellipse class="st9" cx="89.1" cy="119.5" rx="1.6" ry="1.6"/>
						<path class="st10" d="M89.6,118.3c0,0-1.4-0.1-1.7,0.9c-0.2,0.8,0.3,1.5,1.1,1.7c0.1,0,0.1,0,0.2,0
							C89.1,120.8,86.7,119.1,89.6,118.3z"/>
						<circle class="st10" cx="89.1" cy="119.6" r="0.4"/>
						<ellipse class="st9" cx="89.3" cy="132.8" rx="1.6" ry="1.6"/>
						<path class="st10" d="M89.7,131.6c0,0-1.4-0.1-1.7,0.9c-0.2,0.8,0.3,1.5,1,1.7c0.1,0,0.1,0,0.2,0
							C89.3,134.2,86.8,132.5,89.7,131.6z"/>
						<circle class="st10" cx="89.3" cy="132.9" r="0.4"/>
						<ellipse class="st11" cx="22.1" cy="157.3" rx="1.1" ry="1.1"/>
						<path class="st8" d="M92.1,123.6c0,0-1.7,22.3,4.7,19.3C96.8,142.9,92.6,147.8,92.1,123.6z"/>
					</g>
				</g>
				<path class="st7" d="M72.8,4.1c0,0-4.1,9-12.1,11.4c0,0,13.9,9.3,19.1,11.4l6.7-13.3C86.4,13.5,82.1,9.6,72.8,4.1z"/>
				<path class="st8" d="M84,12.7c0,0-7.2,7.2-6.5,14.1l0.8-0.7C78.4,26.1,79.7,15.7,84,12.7z"/>
				<path class="st7" d="M104.8,4.4c0,0,5,9,9.6,11c0,0-13,10.5-18.2,12.5l-5.2-13.8C95,10,99.6,6.7,104.8,4.4z"/>
				<path class="st8" d="M92,13.8c0,0,7.2,7.2,6.5,14.2l-0.8-0.7C97.7,27.3,96.3,16.8,92,13.8z"/>
				<path class="st12" d="M83.3,13.7c3.5-1.7,7.6-1.7,11.1,0.1c0,0-1.6,3.2-1.6,5s-7.7,0.9-7.7,0.9s-0.8-5.3-1.8-5.9
					C83.3,13.8,83.3,13.7,83.3,13.7C83.3,13.7,83.3,13.7,83.3,13.7z"/>
				<path class="st12" d="M85.7,19.7l-5.4,105.6c0,0-0.4,2.8,0.3,3.9s7.6,12.8,9,13s8.1-12.9,8.1-12.9c0.3-1.3,0.3-2.7,0-4.1
					L92,19.6L85.7,19.7z"/>
				<path class="st13" d="M93.2,13.8c0,0-4.9-1.6-8.2,0c0.7,1.4,0.9,2.9,0.7,4.5c0,0,1.2-2.6,1-3.6C86.6,14.6,86.5,13.3,93.2,13.8z"
					/>
				<path class="st13" d="M86.6,19.9l-4.6,102.6l7.5,15.4c0,0-5.6-14.3-5.6-16.1S86.6,19.9,86.6,19.9z"/>
				<path class="st3" d="M72.8,4.1c0,0-16.9,42.1,16.4,91.6c0,0,34.9-70.5,15.7-91.2c0,0,9.3,8.5,45.2,17.5c0,0,5,7.3,5.5,34.2
					c0,0,11.8,50.8,12.1,57.2s3.8,39.2,3.8,39.2s-13.2,5-22.6,1.8c0,0-11.4-32.9-13.1-41.2s-6.6-32.7-6.6-32.7s-7.4,35.4-2.8,47.3
					s10,40.4,10,40.4s-32.8,5.8-38.3,1.8l-9.2-73.2l-5.5,74.3c0,0-34.1-2-42-8l8.4-36.1c0,0,2.2-23.7-2.8-47.2L38.7,126l-11.4,34.6
					c0,0-15.3,2.8-23.7-5.3l4.5-39.9c0,0,6.1-39.8,15.1-61c0,0,1.6-33.1,4.6-34.5C27.8,20,65.7,11.1,72.8,4.1z"/>
				<path class="st14" d="M72.8,4.1c0,0-8.1,57.9,16.4,91.6c0,0-27.1-31.2-31.5-60S66.3,5.1,72.8,4.1z"/>
				<path class="st14" d="M105.1,4.1c0,0,5,56.9-16.4,91.6c0,0,27.1-31.2,31.5-60S111.6,5.1,105.1,4.1z"/>
				<path class="st8" d="M98.5,28l7.1-5.8C105.6,22.2,102.3,27.3,98.5,28z"/>
				<path class="st8" d="M71.6,20.9l5.9,5.9C77.5,26.8,73.7,25.9,71.6,20.9z"/>
				<ellipse class="st14" cx="88.5" cy="96.9" rx="1.7" ry="1.7"/>
				<path class="st15" d="M95.7,153.5l2.1,16.5c0,0,2.1,2.9,24.1,0.3c0,0-21.7,1.2-22.5-0.9S95.7,153.5,95.7,153.5z"/>
				<path class="st15" d="M63.1,169.1l20,2l1.3-17.6c0,0-1.5,15-2.5,15.4S63.1,169.1,63.1,169.1z"/>
				<rect x="109.7" y="69" class="st15" width="16.9" height="1.9"/>
				<path class="st15" d="M54,129.2c0,0,11.2,3.7,18.8,2.3C72.8,131.6,62.4,135.2,54,129.2z"/>
				<path class="st15" d="M121.7,130c0,0-11.2,3.7-18.8,2.3C102.8,132.3,113.3,136,121.7,130z"/>
			</g>
		</g>
	</g>
</g>
</svg>
