<svg xmlns="http://www.w3.org/2000/svg" viewBox="0 0 183 415"><defs><style>.cls-1{fill:none;}.cls-2{fill:#473319;}.cls-3{fill:#684b1e;}.cls-4{fill:#131b33;}.cls-5{fill:#1c2744;}.cls-6{fill:#020202;}.cls-7{fill:#878589;}.cls-8{fill:#d4d6d6;}.cls-9{fill:#c6c6c6;}.cls-10{fill:#666565;}.cls-11{fill:#543d3a;}.cls-12{fill:#42302d;}.cls-13{fill:#212121;}.cls-14{fill:#3a3a3a;}.cls-15{fill:#1b2944;}.cls-16{fill:#1f314c;}</style></defs><title>rfb</title><g id="Layer_2" data-name="Layer 2"><g id="rfb"><g id="rfb-2" data-name="rfb"><rect class="cls-1" width="183" height="415"/><g id="dressshoes"><g id="sbbshoes"><path class="cls-2" d="M53,380.41s-7.48,17,9.56,18.53c0,0,15.31,0,18.27-7.19,1.48-3.59-4-14.65-4-14.65s3.8,11.31,3,12.52-7.65,7.34-16.29,6.1S51.34,392.9,53,380.41"/><path class="cls-3" d="M57.9,366.68s-5.61,11.69-6.28,22c0,0,.57,7.31,10.94,8s17.77-5,17.78-7.09S75,366.68,75,366.68l-4.51,3c-.49-2.24-9.38-2.73-9.63,0Z"/><path class="cls-2" d="M53.58,390.26s2.72-1.66,4-1.74v.22a12.51,12.51,0,0,0-4,1.73Z"/><path class="cls-2" d="M59.48,388s3.05-.89,4.26-.65l-.05.21a12.54,12.54,0,0,0-4.27.65Z"/><path class="cls-2" d="M65,386.93s3.1-.7,4.3-.39l-.07.21a12.34,12.34,0,0,0-4.29.38Z"/><path class="cls-2" d="M71.35,386.36s3.16-.33,4.31.13l-.09.2a12.34,12.34,0,0,0-4.32-.13Z"/><path class="cls-2" d="M77.05,386.73s3,1,3.85,2l-.16.13a12.53,12.53,0,0,0-3.85-2Z"/><path class="cls-2" d="M60.83,369.66l1.73,14.72S60.27,370.61,60.83,369.66Z"/><path class="cls-2" d="M70.29,384.52s.74-13.81.31-14.83l-.31,14.83"/><polyline class="cls-2" points="60.96 370.81 65.34 372.97 70.69 370.24 70.72 371.06 65.34 373.71 70.51 374.7 70.51 375.45 65.34 374.29 61.35 376.44 61.28 375.88 64.97 373.71 60.74 371.23 60.96 370.81"/><polyline class="cls-2" points="61.21 376.1 65.59 378.26 70.93 375.53 70.97 376.35 65.59 379 70.76 380 70.76 380.74 65.59 379.58 61.6 381.73 61.52 381.17 65.21 379 60.98 376.52 61.21 376.1"/><polyline class="cls-2" points="61.21 381.06 65.59 383.22 70.93 380.49 70.97 381.31 65.59 383.96 70.76 384.95 70.76 385.7 65.59 384.54 61.6 386.69 61.52 386.13 65.21 383.96 60.98 381.48 61.21 381.06"/></g><g id="sbbshoes-2" data-name="sbbshoes"><path class="cls-2" d="M124.17,379.33s7.48,17-9.56,18.53c0,0-15.31,0-18.27-7.2-1.48-3.59,4-14.64,4-14.64s-3.8,11.31-3,12.51,7.65,7.35,16.29,6.1,12.2-2.81,10.55-15.3"/><path class="cls-3" d="M119.27,365.6s5.61,11.69,6.28,22c0,0-.57,7.31-10.94,8.06s-17.77-5-17.78-7.1,5.37-22.93,5.37-22.93l4.51,3c.49-2.23,9.38-2.73,9.63,0Z"/><path class="cls-2" d="M123.59,389.17s-2.72-1.65-4-1.73v.21a12.38,12.38,0,0,1,4,1.74Z"/><path class="cls-2" d="M117.69,386.88s-3-.9-4.26-.65l0,.21a12.27,12.27,0,0,1,4.27.65Z"/><path class="cls-2" d="M112.14,385.84s-3.1-.7-4.3-.38l.07.2a12.45,12.45,0,0,1,4.29.39Z"/><path class="cls-2" d="M105.82,385.28s-3.16-.33-4.31.13l.09.19a12.61,12.61,0,0,1,4.32-.13Z"/><path class="cls-2" d="M100.11,385.64s-3,1.06-3.84,2l.16.14a12.53,12.53,0,0,1,3.85-2Z"/><path class="cls-2" d="M116.34,368.57l-1.73,14.73S116.9,369.53,116.34,368.57Z"/><path class="cls-2" d="M106.88,383.43s-.74-13.8-.31-14.82l.31,14.82"/><polyline class="cls-2" points="116.21 369.73 111.83 371.88 106.48 369.15 106.44 369.98 111.83 372.63 106.66 373.62 106.66 374.37 111.83 373.21 115.82 375.35 115.89 374.8 112.2 372.63 116.43 370.15 116.21 369.73"/><polyline class="cls-2" points="115.96 375.02 111.58 377.17 106.24 374.44 106.2 375.27 111.58 377.92 106.41 378.91 106.41 379.66 111.58 378.5 115.57 380.64 115.65 380.09 111.96 377.92 116.19 375.44 115.96 375.02"/><polyline class="cls-2" points="115.96 379.98 111.58 382.13 106.24 379.4 106.2 380.23 111.58 382.88 106.41 383.87 106.41 384.62 111.58 383.46 115.57 385.6 115.65 385.05 111.96 382.88 116.19 380.4 115.96 379.98"/></g></g><g id="rfbpants"><g id="sbbpants"><path class="cls-4" d="M51.76,132.94s28.46,22.63,73.31,0a214.19,214.19,0,0,1,8.26,75.73c-3.21,41.2-6.92,51.62-6.92,54.6s3.46,42.94,3.46,45.92S124.19,363,124.19,363s-6.34,5.21-11.81,5.71S98,364,98,364s-7.34-59.81-6.27-69.24,3.06-28,2.57-35.49-3.63-68.74-3.63-68.74l-3.78-.5s-2.23,59.07-4.7,68.5-.74,31.52,1,38.71-4.44,66.52-4.44,66.52-10.38,5-13.59,5-12.1-7.69-12.1-7.69-5.93-64-4.94-66.76,3-30.28,3-34.75-8.39-26.31-8.89-55.1S47,137.66,51.76,132.94Z"/><path class="cls-5" d="M113.16,204.7s3.3,69.49,2.31,73.13-3.38,90.42-3.38,90.42l-2-.33s2.82-87.11,2.78-90.42S113.16,204.7,113.16,204.7Z"/><path class="cls-5" d="M61.91,203.21s-3.29,69.49-2.31,73.13S63,366.76,63,366.76l2-.33S62.16,279.32,62.2,276,61.91,203.21,61.91,203.21Z"/><path class="cls-6" d="M50,136s-2.67,4.11-2.19,7.51c0,0,23.66,8.09,39.28,8.18,16.25.09,40.83-8.16,40.83-8.16s.17-6.84-2-7.53C126,136,97.34,155,50,136Z"/><rect class="cls-7" x="81.88" y="144.05" width="12.04" height="8.64" rx="2.9" ry="2.9"/><rect class="cls-6" x="84.5" y="146.11" width="6.81" height="4.61" rx="1.59" ry="1.59"/></g><rect class="cls-4" x="72.24" y="142.73" width="2.43" height="8.97" rx="1.22" ry="1.22"/><rect class="cls-4" x="100.77" y="142.73" width="2.43" height="8.97" rx="1.22" ry="1.22"/><rect class="cls-4" x="119.58" y="137.57" width="2.43" height="8.97" rx="1.22" ry="1.22"/><rect class="cls-4" x="51.51" y="136.28" width="2.43" height="8.97" rx="1.22" ry="1.22"/><path class="cls-5" d="M106.9,159.86s6.67,11.75,22.6,9.27C129.5,169.13,113.82,174.58,106.9,159.86Z"/><path class="cls-5" d="M70.66,160.66s-6.37,11.76-21.58,9.27C49.08,169.93,64.06,175.38,70.66,160.66Z"/><path class="cls-5" d="M85.5,162.61s-3.24,24.47,2.91,24.22C88.41,186.83,83.49,185.56,85.5,162.61Z"/></g><g id="rfbshirt"><g id="shirt"><path class="cls-8" d="M69.53,7.58s-35,12.75-38.31,16.56S24,43.66,24.8,53.59c0,0-16.13,55-15.48,69.6l-.89,30.66-1.58-1.16,1.71,14.37s10,1.72,14-2.11L25.13,154,24,153.85s14-26.91,14.16-30.66,9.71-47.93,9.71-47.93,3,17.87,2.8,21.84,1.81,32.76,1.81,32.76l-3.4,2.3s26.25,21.29,76.09,4.63l-1.72-7.43s1-26.8.16-34.41l6.26-16.38s8.07,48.81,14.82,62.05l8.23,12.57h-1.48l3.73,7.46s8.14,2.82,12.82-.83l1.42-9.61h-1s-1-38.55-2.64-43.51-10.21-47.32-13.17-52.29c0,0,2.31-26.14-10.37-33.42,0,0-28.67-8-35.74-12.53,0,0-3.39,4.7-17.71,6.35S69.53,7.58,69.53,7.58Z"/><g id="sbbshirt2"><path class="cls-9" d="M85.62,17.73l2.26,125.05s2.33-.11,2.9-.11l.93-125.11Z"/><path class="cls-8" d="M89.15,17.92s-.94-1-.94,2c0,7,.11,122.87.11,122.87H89S88.82,19.87,89.15,17.92Z"/><ellipse class="cls-10" cx="88.21" cy="39.78" rx="1.59" ry="1.6"/><path class="cls-11" d="M88.64,38.55s-1.44-.13-1.66.87a1.4,1.4,0,0,0,1.23,1.71S85.74,39.42,88.64,38.55Z"/><circle class="cls-11" cx="88.21" cy="39.89" r="0.37"/><ellipse class="cls-10" cx="88.53" cy="28.05" rx="1.59" ry="1.6"/><path class="cls-11" d="M89,26.82s-1.45-.14-1.67.87a1.41,1.41,0,0,0,1.24,1.7S86.06,27.69,89,26.82Z"/><circle class="cls-11" cx="88.53" cy="28.15" r="0.37"/><ellipse class="cls-10" cx="88.38" cy="53.12" rx="1.59" ry="1.6"/><path class="cls-11" d="M88.81,51.89s-1.45-.13-1.67.87a1.41,1.41,0,0,0,1.24,1.71S85.91,52.76,88.81,51.89Z"/><circle class="cls-11" cx="88.38" cy="53.23" r="0.37"/><ellipse class="cls-10" cx="88.67" cy="68.83" rx="1.59" ry="1.6"/><path class="cls-11" d="M89.1,67.6s-1.45-.13-1.67.87a1.41,1.41,0,0,0,1.24,1.71S86.19,68.47,89.1,67.6Z"/><circle class="cls-11" cx="88.67" cy="68.94" r="0.37"/><ellipse class="cls-10" cx="88.83" cy="82.17" rx="1.59" ry="1.6"/><path class="cls-11" d="M89.26,80.94s-1.44-.13-1.66.87a1.41,1.41,0,0,0,1.23,1.71S86.36,81.81,89.26,80.94Z"/><circle class="cls-11" cx="88.83" cy="82.28" r="0.37"/><ellipse class="cls-10" cx="88.79" cy="95.51" rx="1.59" ry="1.6"/><path class="cls-11" d="M89.22,94.28s-1.45-.13-1.67.87a1.41,1.41,0,0,0,1.24,1.71S86.32,95.15,89.22,94.28Z"/><circle class="cls-11" cx="88.79" cy="95.62" r="0.37"/><ellipse class="cls-10" cx="88.96" cy="108.85" rx="1.59" ry="1.6"/><path class="cls-11" d="M89.39,107.62s-1.45-.13-1.67.87A1.41,1.41,0,0,0,89,110.2S86.49,108.49,89.39,107.62Z"/><circle class="cls-11" cx="88.96" cy="108.96" r="0.37"/><ellipse class="cls-10" cx="89.14" cy="119.5" rx="1.59" ry="1.6"/><path class="cls-11" d="M89.57,118.27s-1.45-.14-1.67.86a1.41,1.41,0,0,0,1.24,1.71S86.66,119.13,89.57,118.27Z"/><circle class="cls-11" cx="89.14" cy="119.6" r="0.37"/><ellipse class="cls-10" cx="89.3" cy="132.84" rx="1.59" ry="1.6"/><path class="cls-11" d="M89.73,131.61s-1.44-.14-1.66.86a1.4,1.4,0,0,0,1.23,1.71S86.83,132.47,89.73,131.61Z"/><circle class="cls-11" cx="89.3" cy="132.94" r="0.37"/><ellipse class="cls-12" cx="22.13" cy="157.34" rx="1.09" ry="1.1"/><path class="cls-9" d="M92.11,123.6s-1.67,22.26,4.68,19.28C96.79,142.88,92.6,147.83,92.11,123.6Z"/></g></g><path class="cls-8" d="M72.77,4.06s-4.06,9-12.14,11.37c0,0,13.89,9.31,19.08,11.38l6.7-13.29S82.1,9.63,72.77,4.06Z"/><path class="cls-9" d="M84,12.66s-7.22,7.19-6.48,14.15l.84-.69S79.69,15.67,84,12.66Z"/><path class="cls-8" d="M104.82,4.43s5,9,9.62,11c0,0-13,10.46-18.19,12.53L91.08,14.17A42.43,42.43,0,0,1,104.82,4.43Z"/><path class="cls-9" d="M92,13.8S99.24,21,98.49,28l-.84-.7S96.27,16.82,92,13.8Z"/><path class="cls-13" d="M83.35,13.71a12.43,12.43,0,0,1,11.07.08s-1.62,3.2-1.58,5-7.68.9-7.68.9-.8-5.26-1.82-5.87A.07.07,0,0,1,83.35,13.71Z"/><path class="cls-13" d="M85.65,19.72l-5.4,105.63s-.43,2.79.31,3.91,7.59,12.84,9,13,8.06-12.9,8.06-12.9a9.51,9.51,0,0,0,0-4.06L92,19.62Z"/><path class="cls-14" d="M93.18,13.8s-4.87-1.65-8.23,0a7.14,7.14,0,0,1,.68,4.47s1.2-2.55,1-3.65C86.62,14.62,86.51,13.32,93.18,13.8Z"/><path class="cls-14" d="M86.62,19.85,82.07,122.47l7.5,15.41S84,123.61,84,121.75,86.62,19.85,86.62,19.85Z"/><path class="cls-4" d="M72.77,4.06S55.83,46.15,89.16,95.62c0,0,34.88-70.53,15.66-91.19,0,0,9.27,8.51,45.16,17.55,0,0,5,7.28,5.47,34.25,0,0,11.82,50.79,12.15,57.25s3.79,39.21,3.79,39.21-13.2,5-22.65,1.82c0,0-11.43-32.93-13.08-41.2s-6.58-32.74-6.58-32.74-7.42,35.39-2.8,47.3,10,40.37,10,40.37S103.47,174,98,170.06l-9.2-73.2-5.48,74.27s-34.09-2-42-8L49.71,127s2.2-23.65-2.85-47.15l-8.18,46.16L27.32,160.63S12,163.44,3.61,155.34L8.1,115.46s6.09-39.76,15.12-61c0,0,1.63-33.08,4.59-34.52C27.81,20,65.7,11.12,72.77,4.06Z"/><path class="cls-15" d="M72.77,4.06S64.64,62,89.16,95.62c0,0-27.1-31.2-31.54-60S66.29,5.11,72.77,4.06Z"/><path class="cls-15" d="M105.07,4.06s5,56.88-16.39,91.56c0,0,27.1-31.2,31.54-60S111.55,5.11,105.07,4.06Z"/><path class="cls-9" d="M98.49,28l7.07-5.78S102.33,27.31,98.49,28Z"/><path class="cls-9" d="M71.56,20.88l5.91,5.93S73.65,25.9,71.56,20.88Z"/><ellipse class="cls-15" cx="88.53" cy="96.86" rx="1.65" ry="1.65"/><path class="cls-16" d="M95.65,153.47,97.73,170s2.12,2.92,24.1.26c0,0-21.74,1.23-22.48-.93S95.65,153.47,95.65,153.47Z"/><path class="cls-16" d="M63.09,169.12l20,2,1.31-17.64s-1.53,15-2.54,15.36S63.09,169.12,63.09,169.12Z"/><rect class="cls-16" x="109.73" y="69.03" width="16.87" height="1.87"/><path class="cls-16" d="M54,129.24s11.25,3.67,18.84,2.33C72.83,131.57,62.39,135.2,54,129.24Z"/><path class="cls-16" d="M121.66,130s-11.24,3.67-18.84,2.33C102.82,132.33,113.26,136,121.66,130Z"/></g></g></g></g></svg>