<svg xmlns="http://www.w3.org/2000/svg" viewBox="0 0 339.67 794.21"><defs><style>.cls-1{fill:#473319;}.cls-2{fill:#684b1e;}.cls-3{fill:#162d16;}.cls-4{fill:#1b351b;}.cls-5{fill:#020202;}.cls-6{fill:#878589;}.cls-7{fill:#f9f9f9;}.cls-8{fill:#c6c6c6;}.cls-9{fill:#d4d6d6;}.cls-10{fill:#666565;}.cls-11{fill:#543d3a;}.cls-12{fill:#42302d;}.cls-13{fill:#775d3d;}.cls-14{fill:#60482e;}.cls-15{fill:#1f3a1f;}</style></defs><title>rfb2</title><g id="Layer_2" data-name="Layer 2"><g id="rfb2"><g id="rfb2-2" data-name="rfb2"><g id="dressshoes"><g id="sbbshoes"><path class="cls-1" d="M101.18,756.88S86,791.21,120.53,794.21c0,0,31,0,37-14.5,3-7.23-8-29.5-8-29.5s7.69,22.78,6,25.21-15.5,14.8-33,12.29-24.7-5.67-21.35-30.83"/><path class="cls-2" d="M111.09,729.21s-11.36,23.56-12.71,44.28c0,0,1.15,14.72,22.15,16.22s36-10.05,36-14.29-10.86-46.21-10.86-46.21l-9.13,6c-1-4.5-19-5.5-19.5,0Z"/><path class="cls-1" d="M102.36,776.71s5.5-3.33,8-3.5v.44s-5.16,1.25-8,3.5Z"/><path class="cls-1" d="M114.29,772.09s6.18-1.8,8.64-1.32l-.12.42s-5.31-.12-8.63,1.32Z"/><path class="cls-1" d="M125.54,770s6.28-1.41,8.7-.77l-.14.41s-5.3-.46-8.7.77Z"/><path class="cls-1" d="M138.32,768.86s6.4-.66,8.73.26l-.19.4s-5.2-1.09-8.72-.27Z"/><path class="cls-1" d="M149.88,769.6s6.07,2.12,7.79,3.95l-.34.27s-4.25-3.19-7.79-3.94Z"/><path class="cls-1" d="M117,735.21l3.5,29.67S115.89,737.13,117,735.21Z"/><path class="cls-1" d="M136.19,765.14s1.49-27.81.63-29.86l-.63,29.86"/><polyline class="cls-1" points="117.3 737.53 126.16 741.88 136.99 736.38 137.06 738.04 126.16 743.38 136.63 745.38 136.63 746.88 126.16 744.54 118.09 748.87 117.94 747.75 125.4 743.38 116.85 738.38 117.3 737.53"/><polyline class="cls-1" points="117.8 748.19 126.66 752.53 137.49 747.04 137.56 748.7 126.66 754.03 137.13 756.03 137.13 757.53 126.66 755.2 118.58 759.53 118.43 758.41 125.9 754.03 117.34 749.03 117.8 748.19"/><polyline class="cls-1" points="117.8 758.18 126.66 762.53 137.49 757.03 137.56 758.69 126.66 764.03 137.13 766.03 137.13 767.53 126.66 765.19 118.58 769.52 118.43 768.4 125.9 764.03 117.34 759.03 117.8 758.18"/></g><g id="sbbshoes-2" data-name="sbbshoes"><path class="cls-1" d="M245.26,754.69S260.41,789,225.91,792c0,0-31,0-37-14.5-3-7.23,8-29.5,8-29.5s-7.68,22.78-6,25.2,15.5,14.81,33,12.3,24.7-5.67,21.35-30.84"/><path class="cls-2" d="M235.35,727s11.36,23.55,12.71,44.28c0,0-1.15,14.72-22.15,16.22s-36-10-36-14.3S200.78,727,200.78,727l9.13,6c1-4.5,19-5.5,19.5,0Z"/><path class="cls-1" d="M244.08,774.53s-5.5-3.34-8-3.5v.43s5.17,1.25,8,3.5Z"/><path class="cls-1" d="M232.15,769.9s-6.18-1.8-8.63-1.31l.11.42s5.31-.13,8.63,1.31Z"/><path class="cls-1" d="M220.9,767.81s-6.28-1.41-8.7-.77l.14.42s5.3-.46,8.7.77Z"/><path class="cls-1" d="M208.12,766.67s-6.4-.65-8.73.27l.19.4s5.2-1.09,8.73-.27Z"/><path class="cls-1" d="M196.56,767.41s-6.07,2.13-7.79,4l.34.28s4.25-3.19,7.79-3.95Z"/><path class="cls-1" d="M229.41,733l-3.5,29.66S230.55,734.94,229.41,733Z"/><path class="cls-1" d="M210.26,763s-1.49-27.81-.64-29.87l.64,29.87"/><polyline class="cls-1" points="229.14 735.35 220.28 739.69 209.45 734.2 209.38 735.86 220.28 741.19 209.81 743.19 209.81 744.69 220.28 742.36 228.35 746.68 228.5 745.57 221.04 741.19 229.59 736.19 229.14 735.35"/><polyline class="cls-1" points="228.64 746.01 219.78 750.35 208.96 744.86 208.88 746.52 219.78 751.85 209.31 753.85 209.31 755.35 219.78 753.02 227.86 757.34 228.01 756.23 220.54 751.85 229.1 746.85 228.64 746.01"/><polyline class="cls-1" points="228.64 756 219.78 760.34 208.96 754.85 208.88 756.51 219.78 761.84 209.31 763.84 209.31 765.34 219.78 763.01 227.86 767.34 228.01 766.22 220.54 761.84 229.1 756.84 228.64 756"/></g></g><g id="rfbpants"><g id="sbbpants"><path class="cls-3" d="M96.74,257.23s57.61,45.6,148.41,0c0,0,23.22,69.58,16.72,152.58s-14,104-14,110,7,86.5,7,92.5S243.36,720.8,243.36,720.8s-12.82,10.51-23.91,11.51-29.08-9.5-29.08-9.5-14.87-120.5-12.69-139.5,6.19-56.5,5.19-71.5-7.34-138.5-7.34-138.5l-7.66-1s-4.5,119-9.5,138-1.5,63.5,2,78-9,134-9,134-21,10-27.5,10-24.5-15.5-24.5-15.5-12-129-10-134.5,6-61,6-70-17-53-18-111S87.08,266.75,96.74,257.23Z"/><path class="cls-4" d="M221,401.81s6.67,140,4.67,147.33-6.83,182.17-6.83,182.17l-4.06-.68s5.71-175.49,5.63-182.15S221,401.81,221,401.81Z"/><path class="cls-4" d="M117.28,398.81s-6.67,140-4.67,147.33,6.83,182.17,6.83,182.17l4.06-.68s-5.71-175.49-5.63-182.15S117.28,398.81,117.28,398.81Z"/><path class="cls-5" d="M93.24,263.42s-5.42,8.29-4.45,15.13c0,0,47.9,16.31,79.54,16.48,32.88.18,82.66-16.43,82.66-16.43s.32-13.79-4-15.18C247,263.42,189,301.62,93.24,263.42Z"/><rect class="cls-6" x="157.71" y="279.62" width="24.37" height="17.41" rx="2.9" ry="2.9"/><rect class="cls-5" x="163.01" y="283.76" width="13.78" height="9.28" rx="1.59" ry="1.59"/></g><rect class="cls-3" x="138.19" y="276.95" width="4.93" height="18.08" rx="1.47" ry="1.47"/><rect class="cls-3" x="195.94" y="276.95" width="4.93" height="18.08" rx="1.47" ry="1.47"/><rect class="cls-3" x="234.03" y="266.56" width="4.93" height="18.08" rx="1.47" ry="1.47"/><rect class="cls-3" x="96.22" y="263.96" width="4.93" height="18.08" rx="1.47" ry="1.47"/><path class="cls-4" d="M208.37,311.47s13.49,23.67,45.74,18.67C254.11,330.14,222.37,341.13,208.37,311.47Z"/><path class="cls-4" d="M135,313.09s-12.89,23.68-43.68,18.68C91.31,331.77,121.62,342.75,135,313.09Z"/><path class="cls-4" d="M165,317s-6.55,49.29,5.89,48.79C170.92,365.81,161,363.24,165,317Z"/></g><g id="rfbshirt"><g id="shirt"><path class="cls-7" d="M133.46,7.09S62.57,32.79,55.9,40.45s-14.66,39.34-13,59.34c0,0-32.67,110.75-31.33,140.22L9.75,301.79l-3.18-2.34L10,328.4s20.35,3.45,28.29-4.25l5.27-22-2.33-.33S69.57,247.56,69.9,240s19.67-96.56,19.67-96.56,6,36,5.67,44,3.66,66,3.66,66L92,258.09s53.14,42.89,154,9.32l-3.48-15s2-54,.33-69.33l12.67-33s16.33,98.33,30,125l16.67,25.33h-3l7.54,15s16.48,5.68,26-1.67l2.87-19.36h-2.05s-2-77.66-5.33-87.66-20.67-95.34-26.67-105.34c0,0,4.67-52.66-21-67.33,0,0-58-16.16-72.35-25.25,0,0-6.86,9.46-35.86,12.8S133.46,7.09,133.46,7.09Z"/><g id="sbbshirt2"><path class="cls-8" d="M166,27.55l4.58,251.94s4.73-.22,5.87-.23L178.36,27.2Z"/><path class="cls-9" d="M173.17,27.93S171.28,26,171.28,32c0,14,.21,247.53.21,247.53l1.47,0S172.51,31.85,173.17,27.93Z"/><circle class="cls-10" cx="171.28" cy="71.98" r="3.22"/><path class="cls-11" d="M172.15,69.5s-2.93-.27-3.38,1.75a2.83,2.83,0,0,0,2.51,3.43S166.27,71.25,172.15,69.5Z"/><circle class="cls-11" cx="171.28" cy="72.18" r="0.75"/><circle class="cls-10" cx="171.91" cy="48.33" r="3.22"/><path class="cls-11" d="M172.78,45.85s-2.92-.27-3.37,1.75a2.84,2.84,0,0,0,2.5,3.44S166.91,47.6,172.78,45.85Z"/><circle class="cls-11" cx="171.91" cy="48.54" r="0.75"/><circle class="cls-10" cx="171.61" cy="98.85" r="3.22"/><path class="cls-11" d="M172.48,96.37s-2.92-.27-3.37,1.75a2.84,2.84,0,0,0,2.5,3.44S166.61,98.12,172.48,96.37Z"/><circle class="cls-11" cx="171.61" cy="99.06" r="0.75"/><circle class="cls-10" cx="172.19" cy="130.5" r="3.22"/><path class="cls-11" d="M173.06,128s-2.92-.27-3.37,1.75a2.84,2.84,0,0,0,2.5,3.44S167.19,129.77,173.06,128Z"/><circle class="cls-11" cx="172.19" cy="130.71" r="0.75"/><circle class="cls-10" cx="172.53" cy="157.38" r="3.22"/><path class="cls-11" d="M173.4,154.9s-2.93-.27-3.37,1.75a2.83,2.83,0,0,0,2.5,3.44S167.53,156.65,173.4,154.9Z"/><circle class="cls-11" cx="172.53" cy="157.58" r="0.75"/><circle class="cls-10" cx="172.45" cy="184.25" r="3.22"/><path class="cls-11" d="M173.32,181.77s-2.93-.27-3.38,1.75a2.84,2.84,0,0,0,2.51,3.44S167.44,183.52,173.32,181.77Z"/><circle class="cls-11" cx="172.45" cy="184.46" r="0.75"/><circle class="cls-10" cx="172.78" cy="211.13" r="3.22"/><path class="cls-11" d="M173.65,208.65s-2.92-.27-3.37,1.75a2.84,2.84,0,0,0,2.5,3.44S167.78,210.4,173.65,208.65Z"/><circle class="cls-11" cx="172.78" cy="211.34" r="0.75"/><circle class="cls-10" cx="173.15" cy="232.57" r="3.22"/><path class="cls-11" d="M174,230.09s-2.93-.27-3.38,1.75a2.85,2.85,0,0,0,2.51,3.44S168.14,231.84,174,230.09Z"/><circle class="cls-11" cx="173.15" cy="232.78" r="0.75"/><circle class="cls-10" cx="173.48" cy="259.45" r="3.22"/><path class="cls-11" d="M174.36,257s-2.93-.27-3.38,1.75a2.84,2.84,0,0,0,2.5,3.44S168.48,258.72,174.36,257Z"/><circle class="cls-11" cx="173.48" cy="259.66" r="0.75"/><circle class="cls-12" cx="37.5" cy="308.82" r="2.21"/><path class="cls-8" d="M179.17,240.83s-3.38,44.85,9.48,38.85C188.65,279.68,180.17,289.64,179.17,240.83Z"/></g></g><path class="cls-7" d="M140,0s-8.24,18.17-24.58,22.92c0,0,28.12,18.76,38.62,22.92l13.56-26.78S158.9,11.22,140,0Z"/><path class="cls-8" d="M162.65,17.33S148,31.81,149.52,45.84l1.71-1.39S154,23.4,162.65,17.33Z"/><path class="cls-7" d="M204.9.75S215,18.93,224.38,22.92c0,0-26.33,21.06-36.83,25.23L177.09,20.37A86.07,86.07,0,0,1,204.9.75Z"/><path class="cls-8" d="M179,19.63s14.62,14.49,13.12,28.52l-1.71-1.4S187.59,25.71,179,19.63Z"/><path class="cls-13" d="M161.43,19.45c1.85-.92,11.92-5.39,22.41.15,0,0-3.27,6.45-3.19,10.13s-15.56,1.81-15.56,1.81-1.62-10.61-3.67-11.83A.14.14,0,0,1,161.43,19.45Z"/><path class="cls-13" d="M166.1,31.56l-10.95,212.8s-.87,5.62.63,7.87,15.37,25.88,18.12,26.13,16.31-26,16.31-26a18.87,18.87,0,0,0,0-8.17L179,31.36Z"/><path class="cls-14" d="M181.33,19.63s-9.86-3.33-16.66,0a14.29,14.29,0,0,1,1.37,9s2.45-5.14,2-7.35C168.05,21.28,167.83,18.65,181.33,19.63Z"/><path class="cls-14" d="M168.05,31.82l-9.22,206.74L174,269.61s-11.31-28.75-11.37-32.5S168.05,31.82,168.05,31.82Z"/><path class="cls-3" d="M140,0s-34.3,84.81,33.18,184.46c0,0,70.61-142.08,31.7-183.71,0,0,18.77,17.14,91.43,35.36,0,0,10.13,14.67,11.07,69,0,0,23.93,102.33,24.6,115.33s7.67,79,7.67,79-26.72,10-45.86,3.67c0,0-23.14-66.33-26.48-83s-13.31-66-13.31-66-15,71.28-5.69,95.28,20.34,81.34,20.34,81.34-66.51,11.66-77.59,3.66L172.45,187,161.34,336.61s-69-4-85-16.06l17-72.77s4.44-47.66-5.78-95L71,245.78,48,315.44s-31,5.67-48-10.66l9.1-80.34s12.31-80.1,30.61-122.88c0,0,3.29-66.63,9.29-69.54C49,32,125.71,14.22,140,0Z"/><path class="cls-4" d="M140,0S123.56,116.81,173.2,184.46c0,0-54.87-62.85-63.87-120.85S126.89,2.12,140,0Z"/><path class="cls-4" d="M205.4,0s10.17,114.61-33.18,184.46c0,0,54.86-62.85,63.86-120.85S218.53,2.12,205.4,0Z"/><path class="cls-8" d="M192.09,48.15l14.3-11.64S199.85,46.85,192.09,48.15Z"/><path class="cls-8" d="M137.56,33.89l12,12S141.79,44,137.56,33.89Z"/><circle class="cls-4" cx="171.93" cy="186.96" r="3.33"/><path class="cls-4" d="M186.86,301.07l4.22,33.37s4.28,5.87,48.78.51c0,0-44,2.48-45.5-1.86S186.86,301.07,186.86,301.07Z"/><path class="cls-4" d="M120.94,332.59l40.4,4L164,301.07s-3.09,30.19-5.15,30.94S120.94,332.59,120.94,332.59Z"/><rect class="cls-15" x="213.36" y="129.96" width="34.16" height="3.76"/><path class="cls-15" d="M102.52,252.26s22.77,7.39,38.14,4.7C140.66,257,119.52,264.26,102.52,252.26Z"/><path class="cls-15" d="M239.52,253.79s-22.76,7.39-38.13,4.69C201.39,258.48,222.52,265.79,239.52,253.79Z"/></g></g></g></g></svg>