<svg xmlns="http://www.w3.org/2000/svg" viewBox="0 0 183 415.61"><defs><style>.cls-1{fill:none;}.cls-2{fill:#473319;}.cls-3{fill:#684b1e;}.cls-4{fill:#162d16;}.cls-5{fill:#1b351b;}.cls-6{fill:#020202;}.cls-7{fill:#878589;}.cls-8{fill:#f9f9f9;}.cls-9{fill:#c6c6c6;}.cls-10{fill:#d4d6d6;}.cls-11{fill:#666565;}.cls-12{fill:#543d3a;}.cls-13{fill:#42302d;}.cls-14{fill:#775d3d;}.cls-15{fill:#60482e;}.cls-16{fill:#1f3a1f;}</style></defs><title>rfb2</title><g id="Layer_2" data-name="Layer 2"><g id="rfb2"><g id="rfb2-2" data-name="rfb2"><rect class="cls-1" y="0.61" width="183" height="415"/><g id="dressshoes"><g id="sbbshoes"><path class="cls-2" d="M54.59,375.68s-7.48,17.05,9.56,18.54c0,0,15.31,0,18.27-7.2,1.48-3.59-4-14.64-4-14.64s3.8,11.31,3,12.51-7.66,7.34-16.29,6.1-12.21-2.81-10.55-15.31"/><path class="cls-3" d="M59.49,362s-5.62,11.7-6.28,22c0,0,.57,7.31,10.94,8.05s17.77-5,17.78-7.09S76.56,362,76.56,362l-4.51,3c-.49-2.23-9.39-2.73-9.63,0Z"/><path class="cls-2" d="M55.17,385.53s2.72-1.65,3.95-1.74V384a12.36,12.36,0,0,0-3.95,1.74Z"/><path class="cls-2" d="M61.07,383.23s3.05-.89,4.26-.65l-.06.21a12.49,12.49,0,0,0-4.26.65Z"/><path class="cls-2" d="M66.62,382.2s3.1-.7,4.3-.39l-.07.21a12.4,12.4,0,0,0-4.3.38Z"/><path class="cls-2" d="M72.94,381.63s3.16-.32,4.31.13l-.1.2a12.3,12.3,0,0,0-4.31-.13Z"/><path class="cls-2" d="M78.64,382s3,1.05,3.85,2l-.17.14a12.33,12.33,0,0,0-3.84-2Z"/><path class="cls-2" d="M62.42,364.93l1.73,14.73S61.86,365.88,62.42,364.93Z"/><path class="cls-2" d="M71.88,379.79s.74-13.81.31-14.83l-.31,14.83"/><polyline class="cls-2" points="62.55 366.08 66.93 368.24 72.28 365.51 72.31 366.34 66.93 368.99 72.1 369.98 72.1 370.72 66.93 369.56 62.94 371.71 62.87 371.16 66.55 368.99 62.33 366.5 62.55 366.08"/><polyline class="cls-2" points="62.8 371.37 67.17 373.53 72.52 370.8 72.56 371.63 67.17 374.27 72.35 375.27 72.35 376.01 67.17 374.85 63.19 377 63.11 376.45 66.8 374.27 62.57 371.79 62.8 371.37"/><polyline class="cls-2" points="62.8 376.33 67.17 378.49 72.52 375.76 72.56 376.59 67.17 379.24 72.35 380.23 72.35 380.97 67.17 379.81 63.19 381.96 63.11 381.41 66.8 379.24 62.57 376.75 62.8 376.33"/></g><g id="sbbshoes-2" data-name="sbbshoes"><path class="cls-2" d="M125.76,374.6s7.48,17-9.56,18.53c0,0-15.31,0-18.28-7.19-1.47-3.59,4-14.65,4-14.65s-3.8,11.31-3,12.51,7.65,7.35,16.29,6.11,12.2-2.82,10.55-15.31"/><path class="cls-3" d="M120.86,360.87s5.61,11.69,6.28,22c0,0-.57,7.3-10.94,8s-17.78-5-17.78-7.1,5.37-22.93,5.37-22.93l4.51,3c.49-2.24,9.38-2.73,9.63,0Z"/><path class="cls-2" d="M125.17,384.45s-2.71-1.66-4-1.74v.22a12.49,12.49,0,0,1,4,1.73Z"/><path class="cls-2" d="M119.28,382.15s-3-.89-4.26-.65l0,.21a12.54,12.54,0,0,1,4.27.65Z"/><path class="cls-2" d="M113.72,381.11s-3.1-.7-4.29-.38l.07.21a12.34,12.34,0,0,1,4.29.38Z"/><path class="cls-2" d="M107.41,380.55s-3.16-.33-4.31.13l.09.2a12.46,12.46,0,0,1,4.31-.14Z"/><path class="cls-2" d="M101.7,380.92s-3,1.05-3.84,2L98,383a12.53,12.53,0,0,1,3.85-2Z"/><path class="cls-2" d="M117.93,363.85l-1.73,14.72S118.49,364.8,117.93,363.85Z"/><path class="cls-2" d="M108.47,378.71s-.74-13.81-.31-14.83l.31,14.83"/><polyline class="cls-2" points="117.79 365 113.42 367.16 108.07 364.43 108.03 365.25 113.42 367.9 108.25 368.89 108.25 369.64 113.42 368.48 117.41 370.63 117.48 370.07 113.79 367.9 118.02 365.42 117.79 365"/><polyline class="cls-2" points="117.55 370.29 113.17 372.45 107.83 369.72 107.79 370.54 113.17 373.19 108 374.18 108 374.93 113.17 373.77 117.16 375.92 117.23 375.36 113.55 373.19 117.77 370.71 117.55 370.29"/><polyline class="cls-2" points="117.55 375.25 113.17 377.41 107.83 374.68 107.79 375.5 113.17 378.15 108 379.14 108 379.89 113.17 378.73 117.16 380.88 117.23 380.32 113.55 378.15 117.77 375.67 117.55 375.25"/></g></g><g id="rfbpants"><g id="sbbpants"><path class="cls-4" d="M52.39,127.68s28.46,22.63,73.31,0A214.24,214.24,0,0,1,134,203.41C130.75,244.61,127,255,127,258s3.46,42.94,3.46,45.92-5.68,53.85-5.68,53.85S118.49,363,113,363.49s-14.37-4.71-14.37-4.71S91.3,299,92.38,289.53s3.05-28,2.56-35.49-3.63-68.74-3.63-68.74l-3.78-.5s-2.22,59.07-4.69,68.5-.75,31.52,1,38.72-4.44,66.51-4.44,66.51-10.38,5-13.59,5-12.1-7.69-12.1-7.69-5.93-64-4.94-66.76,3-30.28,3-34.75S43.32,228,42.83,199.2,47.63,132.41,52.39,127.68Z"/><path class="cls-5" d="M113.8,199.44s3.29,69.49,2.3,73.13S112.73,363,112.73,363l-2-.34s2.82-87.11,2.78-90.42S113.8,199.44,113.8,199.44Z"/><path class="cls-5" d="M62.54,198s-3.29,69.5-2.31,73.14,3.38,90.42,3.38,90.42l2-.34s-2.82-87.11-2.78-90.42S62.54,198,62.54,198Z"/><path class="cls-6" d="M50.66,130.75s-2.67,4.12-2.19,7.51c0,0,23.66,8.1,39.29,8.18,16.24.09,40.83-8.16,40.83-8.16s.16-6.84-2-7.53C126.63,130.75,98,149.71,50.66,130.75Z"/><rect class="cls-7" x="82.51" y="138.79" width="12.04" height="8.64" rx="2.9" ry="2.9"/><rect class="cls-6" x="85.13" y="140.85" width="6.81" height="4.61" rx="1.59" ry="1.59"/></g><rect class="cls-4" x="72.87" y="137.47" width="2.43" height="8.97" rx="1.22" ry="1.22"/><rect class="cls-4" x="101.4" y="137.47" width="2.43" height="8.97" rx="1.22" ry="1.22"/><rect class="cls-4" x="120.21" y="132.31" width="2.43" height="8.97" rx="1.22" ry="1.22"/><rect class="cls-4" x="52.14" y="131.02" width="2.43" height="8.97" rx="1.22" ry="1.22"/><path class="cls-5" d="M107.53,154.6s6.67,11.75,22.6,9.27C130.13,163.87,114.45,169.32,107.53,154.6Z"/><path class="cls-5" d="M71.29,155.41s-6.37,11.75-21.58,9.27C49.71,164.68,64.69,170.13,71.29,155.41Z"/><path class="cls-5" d="M86.13,157.36S82.89,181.82,89,181.57C89,181.57,84.12,180.3,86.13,157.36Z"/></g><g id="rfbshirt"><g id="shirt"><path class="cls-8" d="M70.53,3.52s-35,12.75-38.31,16.56S25,39.6,25.8,49.53c0,0-16.13,55-15.48,69.6L9.43,149.8l-1.58-1.16L9.56,163s10,1.72,14-2.1L26.13,150,25,149.8s14-26.92,14.16-30.67,9.71-47.92,9.71-47.92,3,17.86,2.8,21.83,1.81,32.76,1.81,32.76l-3.4,2.3s26.25,21.3,76.09,4.63l-1.72-7.42s1-26.81.16-34.42l6.26-16.38s8.07,48.81,14.82,62.05l8.23,12.57h-1.48l3.73,7.46s8.14,2.82,12.82-.83l1.42-9.6h-1s-1-38.56-2.64-43.52-10.21-47.32-13.17-52.28c0,0,2.31-26.14-10.37-33.42,0,0-28.67-8-35.74-12.54,0,0-3.39,4.7-17.71,6.35S70.53,3.52,70.53,3.52Z"/><g id="sbbshirt2"><path class="cls-9" d="M86.62,13.68l2.26,125s2.33-.11,2.9-.12L92.71,13.5Z"/><path class="cls-10" d="M90.15,13.86s-.94-1-.94,2c0,6.95.11,122.86.11,122.86H90S89.82,15.81,90.15,13.86Z"/><ellipse class="cls-11" cx="89.21" cy="35.73" rx="1.59" ry="1.6"/><path class="cls-12" d="M89.64,34.5s-1.44-.14-1.66.86a1.4,1.4,0,0,0,1.23,1.71S86.74,35.36,89.64,34.5Z"/><circle class="cls-12" cx="89.21" cy="35.83" r="0.37"/><ellipse class="cls-11" cx="89.53" cy="23.99" rx="1.59" ry="1.6"/><path class="cls-12" d="M90,22.76s-1.45-.13-1.67.87a1.41,1.41,0,0,0,1.24,1.71S87.06,23.63,90,22.76Z"/><circle class="cls-12" cx="89.53" cy="24.09" r="0.37"/><ellipse class="cls-11" cx="89.38" cy="49.07" rx="1.59" ry="1.6"/><path class="cls-12" d="M89.81,47.84s-1.45-.14-1.67.86a1.41,1.41,0,0,0,1.24,1.71S86.91,48.7,89.81,47.84Z"/><circle class="cls-12" cx="89.38" cy="49.17" r="0.37"/><ellipse class="cls-11" cx="89.67" cy="64.78" rx="1.59" ry="1.6"/><path class="cls-12" d="M90.1,63.55s-1.45-.14-1.67.86a1.41,1.41,0,0,0,1.24,1.71S87.19,64.41,90.1,63.55Z"/><circle class="cls-12" cx="89.67" cy="64.88" r="0.37"/><ellipse class="cls-11" cx="89.83" cy="78.12" rx="1.59" ry="1.6"/><path class="cls-12" d="M90.26,76.89s-1.44-.14-1.66.86a1.4,1.4,0,0,0,1.23,1.71S87.36,77.75,90.26,76.89Z"/><circle class="cls-12" cx="89.83" cy="78.22" r="0.37"/><ellipse class="cls-11" cx="89.79" cy="91.46" rx="1.59" ry="1.6"/><path class="cls-12" d="M90.22,90.23s-1.45-.14-1.67.86a1.41,1.41,0,0,0,1.24,1.71S87.32,91.09,90.22,90.23Z"/><circle class="cls-12" cx="89.79" cy="91.56" r="0.37"/><ellipse class="cls-11" cx="89.96" cy="104.8" rx="1.59" ry="1.6"/><path class="cls-12" d="M90.39,103.57s-1.45-.14-1.67.86A1.41,1.41,0,0,0,90,106.14S87.49,104.43,90.39,103.57Z"/><circle class="cls-12" cx="89.96" cy="104.9" r="0.37"/><ellipse class="cls-11" cx="90.14" cy="115.44" rx="1.59" ry="1.6"/><path class="cls-12" d="M90.57,114.21s-1.45-.13-1.67.87a1.4,1.4,0,0,0,1.24,1.7S87.66,115.08,90.57,114.21Z"/><circle class="cls-12" cx="90.14" cy="115.54" r="0.37"/><ellipse class="cls-11" cx="90.3" cy="128.78" rx="1.59" ry="1.6"/><path class="cls-12" d="M90.73,127.55s-1.44-.13-1.66.87a1.39,1.39,0,0,0,1.23,1.7S87.83,128.42,90.73,127.55Z"/><circle class="cls-12" cx="90.3" cy="128.88" r="0.37"/><ellipse class="cls-13" cx="23.13" cy="153.28" rx="1.09" ry="1.1"/><path class="cls-9" d="M93.11,119.54s-1.67,22.26,4.68,19.29C97.79,138.83,93.6,143.77,93.11,119.54Z"/></g></g><path class="cls-8" d="M73.77,0S69.71,9,61.63,11.38c0,0,13.89,9.31,19.08,11.37l6.7-13.29S83.1,5.57,73.77,0Z"/><path class="cls-9" d="M85,8.6s-7.22,7.19-6.48,14.15l.84-.69S80.69,11.62,85,8.6Z"/><path class="cls-8" d="M105.82.37s5,9,9.62,11c0,0-13,10.45-18.19,12.52L92.08,10.11A42.6,42.6,0,0,1,105.82.37Z"/><path class="cls-9" d="M93,9.74s7.23,7.19,6.48,14.16l-.84-.69S97.27,12.76,93,9.74Z"/><path class="cls-14" d="M84.35,9.65a12.5,12.5,0,0,1,11.07.08s-1.62,3.2-1.58,5-7.68.9-7.68.9-.8-5.27-1.82-5.88A.07.07,0,0,1,84.35,9.65Z"/><path class="cls-14" d="M86.65,15.66l-5.4,105.63s-.43,2.79.31,3.91,7.59,12.84,9,13,8.06-12.91,8.06-12.91a9.45,9.45,0,0,0,0-4.05L93,15.57Z"/><path class="cls-15" d="M94.18,9.74s-4.87-1.65-8.23,0a7.16,7.16,0,0,1,.68,4.47s1.2-2.55,1-3.65C87.62,10.56,87.51,9.26,94.18,9.74Z"/><path class="cls-15" d="M87.62,15.79,83.07,118.41l7.5,15.41S85,119.55,85,117.69,87.62,15.79,87.62,15.79Z"/><path class="cls-4" d="M73.77,0S56.83,42.1,90.16,91.56c0,0,34.88-70.52,15.66-91.19,0,0,9.27,8.51,45.16,17.55,0,0,5,7.28,5.47,34.25,0,0,11.82,50.8,12.15,57.25s3.79,39.21,3.79,39.21-13.2,5-22.65,1.82c0,0-11.43-32.92-13.08-41.2s-6.58-32.73-6.58-32.73-7.42,35.38-2.8,47.29,10,40.38,10,40.38S104.47,170,99,166L89.79,92.8l-5.48,74.28s-34.09-2-42-8L50.71,123s2.2-23.66-2.85-47.16L39.68,122,28.32,156.57S13,159.39,4.61,151.28L9.1,111.41s6.09-39.76,15.12-61c0,0,1.63-33.07,4.59-34.52C28.81,15.89,66.7,7.06,73.77,0Z"/><path class="cls-5" d="M73.77,0S65.64,58,90.16,91.56c0,0-27.1-31.2-31.54-60S67.29,1.05,73.77,0Z"/><path class="cls-5" d="M106.07,0s5,56.89-16.39,91.56c0,0,27.1-31.2,31.54-60S112.55,1.05,106.07,0Z"/><path class="cls-9" d="M99.49,23.9l7.07-5.78S103.33,23.26,99.49,23.9Z"/><path class="cls-9" d="M72.56,16.82l5.91,5.93S74.65,21.84,72.56,16.82Z"/><ellipse class="cls-5" cx="89.53" cy="92.8" rx="1.65" ry="1.65"/><path class="cls-5" d="M96.91,149.44,99,166s2.12,2.91,24.1.25c0,0-21.74,1.23-22.48-.93S96.91,149.44,96.91,149.44Z"/><path class="cls-5" d="M64.35,165.09l20,2,1.3-17.64s-1.53,15-2.54,15.36S64.35,165.09,64.35,165.09Z"/><rect class="cls-16" x="110" y="64.51" width="16.87" height="1.87"/><path class="cls-16" d="M55.25,125.21s11.25,3.67,18.84,2.33C74.09,127.54,63.65,131.17,55.25,125.21Z"/><path class="cls-16" d="M122.92,126s-11.24,3.67-18.83,2.33C104.09,128.3,114.52,131.93,122.92,126Z"/></g></g></g></g></svg>