<?xml version="1.0" encoding="utf-8"?>
<!-- Generator: Adobe Illustrator 22.1.0, SVG Export Plug-In . SVG Version: 6.00 Build 0)  -->
<svg version="1.1" id="Layer_1" xmlns="http://www.w3.org/2000/svg" xmlns:xlink="http://www.w3.org/1999/xlink" x="0px" y="0px"
	 viewBox="0 0 183 415.6" style="enable-background:new 0 0 183 415.6;" xml:space="preserve">
<style type="text/css">
	.st0{fill:none;}
	.st1{fill:#473319;}
	.st2{fill:#684B1E;}
	.st3{fill:#162D16;}
	.st4{fill:#1B351B;}
	.st5{fill:#020202;}
	.st6{fill:#878589;}
	.st7{fill:#F9F9F9;}
	.st8{fill:#C6C6C6;}
	.st9{fill:#D4D6D6;}
	.st10{fill:#666565;}
	.st11{fill:#543D3A;}
	.st12{fill:#42302D;}
	.st13{fill:#775D3D;}
	.st14{fill:#60482E;}
	.st15{fill:#1F3A1F;}
</style>
<title>rfb2</title>
<g id="Layer_2_1_">
	<g id="rfb2">
		<g id="rfb2-2">
			<rect y="0.6" class="st0" width="183" height="415"/>
			<g id="dressshoes">
				<g id="sbbshoes">
					<path class="st1" d="M53.6,380.7c0,0-7.5,17,9.6,18.5c0,0,15.3,0,18.3-7.2c1.5-3.6-4-14.6-4-14.6s3.8,11.3,3,12.5
						s-7.7,7.3-16.3,6.1S51.9,393.2,53.6,380.7"/>
					<path class="st2" d="M58.5,367c0,0-5.6,11.7-6.3,22c0,0,0.6,7.3,10.9,8s17.8-5,17.8-7.1s-5.4-23-5.4-23l-4.5,3
						c-0.5-2.2-9.4-2.7-9.6,0L58.5,367z"/>
					<path class="st1" d="M54.2,390.5c0,0,2.7-1.6,4-1.7v0.2c-1.4,0.3-2.7,0.9-4,1.7V390.5z"/>
					<path class="st1" d="M60.1,388.2c0,0,3.1-0.9,4.3-0.6l-0.1,0.2c-1.4,0-2.9,0.2-4.3,0.6L60.1,388.2z"/>
					<path class="st1" d="M65.6,387.2c0,0,3.1-0.7,4.3-0.4l-0.1,0.2c-1.4-0.1-2.9,0-4.3,0.4L65.6,387.2z"/>
					<path class="st1" d="M71.9,386.6c0,0,3.2-0.3,4.3,0.1l-0.1,0.2c-1.4-0.3-2.9-0.3-4.3-0.1L71.9,386.6z"/>
					<path class="st1" d="M77.6,387c0,0,3,1,3.8,2l-0.2,0.1c-1.2-0.9-2.5-1.6-3.8-2L77.6,387z"/>
					<path class="st1" d="M61.4,369.9l1.7,14.7C63.1,384.7,60.9,370.9,61.4,369.9z"/>
					<path class="st1" d="M70.9,384.8c0,0,0.7-13.8,0.3-14.8L70.9,384.8"/>
					<polyline class="st1" points="61.5,371.1 65.9,373.2 71.3,370.5 71.3,371.3 65.9,374 71.1,375 71.1,375.7 65.9,374.6 
						61.9,376.7 61.9,376.2 65.5,374 61.3,371.5 61.5,371.1 					"/>
					<polyline class="st1" points="61.8,376.4 66.2,378.5 71.5,375.8 71.6,376.6 66.2,379.3 71.3,380.3 71.3,381 66.2,379.9 
						62.2,382 62.1,381.5 65.8,379.3 61.6,376.8 61.8,376.4 					"/>
					<polyline class="st1" points="61.8,381.3 66.2,383.5 71.5,380.8 71.6,381.6 66.2,384.2 71.3,385.2 71.3,386 66.2,384.8 
						62.2,387 62.1,386.4 65.8,384.2 61.6,381.8 61.8,381.3 					"/>
				</g>
				<g id="sbbshoes-2">
					<path class="st1" d="M124.8,379.6c0,0,7.5,17-9.6,18.5c0,0-15.3,0-18.3-7.2c-1.5-3.6,4-14.6,4-14.6s-3.8,11.3-3,12.5
						s7.7,7.4,16.3,6.1S126.4,392.1,124.8,379.6"/>
					<path class="st2" d="M119.9,365.9c0,0,5.6,11.7,6.3,22c0,0-0.6,7.3-10.9,8s-17.8-5-17.8-7.1s5.4-22.9,5.4-22.9l4.5,3
						c0.5-2.2,9.4-2.7,9.6,0L119.9,365.9z"/>
					<path class="st1" d="M124.2,389.5c0,0-2.7-1.7-4-1.7v0.2c1.4,0.3,2.8,0.9,4,1.7V389.5z"/>
					<path class="st1" d="M118.3,387.2c0,0-3-0.9-4.3-0.6v0.2c1.5,0,2.9,0.2,4.3,0.6L118.3,387.2z"/>
					<path class="st1" d="M112.7,386.1c0,0-3.1-0.7-4.3-0.4l0.1,0.2c1.4-0.1,2.9,0,4.3,0.4L112.7,386.1z"/>
					<path class="st1" d="M106.4,385.6c0,0-3.2-0.3-4.3,0.1l0.1,0.2c1.4-0.3,2.9-0.3,4.3-0.1L106.4,385.6z"/>
					<path class="st1" d="M100.7,385.9c0,0-3,1-3.8,2L97,388c1.2-0.9,2.5-1.6,3.8-2L100.7,385.9z"/>
					<path class="st1" d="M116.9,368.9l-1.7,14.7C115.2,383.6,117.5,369.8,116.9,368.9z"/>
					<path class="st1" d="M107.5,383.7c0,0-0.7-13.8-0.3-14.8L107.5,383.7"/>
					<polyline class="st1" points="116.8,370 112.4,372.2 107.1,369.4 107,370.3 112.4,372.9 107.2,373.9 107.2,374.6 112.4,373.5 
						116.4,375.6 116.5,375.1 112.8,372.9 117,370.4 116.8,370 					"/>
					<polyline class="st1" points="116.5,375.3 112.2,377.5 106.8,374.7 106.8,375.5 112.2,378.2 107,379.2 107,379.9 112.2,378.8 
						116.2,380.9 116.2,380.4 112.5,378.2 116.8,375.7 116.5,375.3 					"/>
					<polyline class="st1" points="116.5,380.3 112.2,382.4 106.8,379.7 106.8,380.5 112.2,383.2 107,384.1 107,384.9 112.2,383.7 
						116.2,385.9 116.2,385.3 112.5,383.2 116.8,380.7 116.5,380.3 					"/>
				</g>
			</g>
			<g id="rfbpants">
				<g id="sbbpants">
					<path class="st3" d="M51.4,132.7c0,0,28.6,22.6,73.7,0c7.3,24.5,10.1,50.2,8.3,75.7c-3.3,41.2-7,51.6-7,54.6s3.5,42.9,3.5,45.9
						s-5.7,53.9-5.7,53.9s-6.3,5.2-11.9,5.7c-5.5,0.5-14.5-4.7-14.5-4.7s-7.4-59.8-6.3-69.2s3.1-28,2.6-35.5
						c-0.5-7.5-3.7-68.7-3.7-68.7l-3.8-0.5c0,0-2.2,59.1-4.7,68.5c-2.5,9.4-0.8,31.5,1,38.7s-4.5,66.5-4.5,66.5s-10.4,5-13.7,5
						c-3.2,0-12.2-7.7-12.2-7.7s-6-64-5-66.8s3-30.3,3-34.8c0-4.5-8.5-26.3-9-55.1C41.3,175.4,46.7,137.4,51.4,132.7z"/>
					<path class="st4" d="M113.2,204.4c0,0,3.3,69.5,2.3,73.1c-1,3.6-3.4,90.4-3.4,90.4l-2-0.3c0,0,2.8-87.1,2.8-90.4
						C112.9,273.9,113.2,204.4,113.2,204.4z"/>
					<path class="st4" d="M61.7,203c0,0-3.3,69.5-2.3,73.1c1,3.6,3.4,90.4,3.4,90.4l2-0.3c0,0-2.8-87.1-2.8-90.4
						C62,272.5,61.7,203,61.7,203z"/>
					<path class="st5" d="M49.7,135.8c0,0-2.7,4.1-2.2,7.5c0,0,23.8,8.1,39.5,8.2c16.3,0.1,41.1-8.2,41.1-8.2s0.2-6.8-2-7.5
						C126.1,135.8,97.3,154.7,49.7,135.8z"/>
					<path class="st6" d="M84.7,143.8h6.3c1.6,0,2.9,1.3,2.9,2.9v2.8c0,1.6-1.3,2.9-2.9,2.9h-6.3c-1.6,0-2.9-1.3-2.9-2.9v-2.8
						C81.7,145.1,83.1,143.8,84.7,143.8z"/>
					<path class="st5" d="M86,145.9h3.7c0.9,0,1.6,0.7,1.6,1.6v1.4c0,0.9-0.7,1.6-1.6,1.6H86c-0.9,0-1.6-0.7-1.6-1.6v-1.4
						C84.4,146.6,85.1,145.9,86,145.9z"/>
				</g>
				<path class="st3" d="M73.3,142.5L73.3,142.5c0.7,0,1.2,0.5,1.2,1.2v6.5c0,0.7-0.5,1.2-1.2,1.2h0c-0.7,0-1.2-0.5-1.2-1.2v-6.5
					C72,143,72.6,142.5,73.3,142.5z"/>
				<path class="st3" d="M102,142.5L102,142.5c0.7,0,1.2,0.5,1.2,1.2v6.5c0,0.7-0.5,1.2-1.2,1.2h0c-0.7,0-1.2-0.5-1.2-1.2v-6.5
					C100.8,143,101.3,142.5,102,142.5z"/>
				<path class="st3" d="M120.9,137.3L120.9,137.3c0.7,0,1.2,0.5,1.2,1.2v6.5c0,0.7-0.5,1.2-1.2,1.2h0c-0.7,0-1.2-0.5-1.2-1.2v-6.5
					C119.7,137.9,120.2,137.3,120.9,137.3z"/>
				<path class="st3" d="M52.4,136L52.4,136c0.7,0,1.2,0.5,1.2,1.2v6.5c0,0.7-0.5,1.2-1.2,1.2l0,0c-0.7,0-1.2-0.5-1.2-1.2v-6.5
					C51.2,136.6,51.7,136,52.4,136z"/>
				<path class="st4" d="M106.9,159.6c0,0,6.7,11.8,22.7,9.3C129.7,168.9,113.9,174.3,106.9,159.6z"/>
				<path class="st4" d="M70.5,160.4c0,0-6.4,11.8-21.7,9.3C48.8,169.7,63.8,175.1,70.5,160.4z"/>
				<path class="st4" d="M85.4,162.4c0,0-3.3,24.5,2.9,24.2C88.3,186.6,83.4,185.3,85.4,162.4z"/>
			</g>
			<g id="rfbshirt">
				<g id="shirt">
					<path class="st7" d="M69.5,7.5c0,0-35,12.8-38.3,16.6S24,43.6,24.8,53.5c0,0-16.1,55-15.5,69.6l-0.9,30.7l-1.6-1.2L8.6,167
						c0,0,10,1.7,14-2.1l2.6-10.9l-1.1-0.2c0,0,14-26.9,14.2-30.7s9.7-47.9,9.7-47.9s3,17.9,2.8,21.8s1.8,32.8,1.8,32.8l-3.4,2.3
						c0,0,26.3,21.3,76.1,4.6l-1.7-7.4c0,0,1-26.8,0.2-34.4l6.3-16.4c0,0,8.1,48.8,14.8,62l8.2,12.6h-1.5l3.7,7.5
						c0,0,8.1,2.8,12.8-0.8l1.4-9.6h-1c0,0-1-38.6-2.6-43.5s-10.2-47.3-13.2-52.3c0,0,2.3-26.1-10.4-33.4c0,0-28.7-8-35.7-12.5
						c0,0-3.4,4.7-17.7,6.3S69.5,7.5,69.5,7.5z"/>
					<g id="sbbshirt2">
						<path class="st8" d="M85.6,17.7l2.3,125c0,0,2.3-0.1,2.9-0.1l0.9-125.1L85.6,17.7z"/>
						<path class="st9" d="M89.1,17.9c0,0-0.9-1-0.9,2c0,7,0.1,122.9,0.1,122.9H89C89,142.7,88.8,19.8,89.1,17.9z"/>
						<ellipse class="st10" cx="88.2" cy="39.7" rx="1.6" ry="1.6"/>
						<path class="st11" d="M88.6,38.5c0,0-1.4-0.1-1.7,0.9c-0.2,0.8,0.3,1.5,1,1.7c0.1,0,0.1,0,0.2,0
							C88.2,41.1,85.7,39.4,88.6,38.5z"/>
						<circle class="st11" cx="88.2" cy="39.8" r="0.4"/>
						<ellipse class="st10" cx="88.5" cy="28" rx="1.6" ry="1.6"/>
						<path class="st11" d="M89,26.8c0,0-1.4-0.1-1.7,0.9c-0.2,0.8,0.3,1.5,1.1,1.7c0.1,0,0.1,0,0.2,0C88.6,29.3,86.1,27.6,89,26.8z
							"/>
						<circle class="st11" cx="88.5" cy="28.1" r="0.4"/>
						<ellipse class="st10" cx="88.4" cy="53.1" rx="1.6" ry="1.6"/>
						<path class="st11" d="M88.8,51.8c0,0-1.4-0.1-1.7,0.9c-0.2,0.8,0.3,1.5,1.1,1.7c0.1,0,0.1,0,0.2,0
							C88.4,54.4,85.9,52.7,88.8,51.8z"/>
						<circle class="st11" cx="88.4" cy="53.2" r="0.4"/>
						<ellipse class="st10" cx="88.7" cy="68.8" rx="1.6" ry="1.6"/>
						<path class="st11" d="M89.1,67.6c0,0-1.4-0.1-1.7,0.9c-0.2,0.8,0.3,1.5,1.1,1.7c0.1,0,0.1,0,0.2,0
							C88.7,70.1,86.2,68.4,89.1,67.6z"/>
						<circle class="st11" cx="88.7" cy="68.9" r="0.4"/>
						<ellipse class="st10" cx="88.8" cy="82.1" rx="1.6" ry="1.6"/>
						<path class="st11" d="M89.3,80.9c0,0-1.4-0.1-1.7,0.9c-0.2,0.8,0.3,1.5,1,1.7c0.1,0,0.1,0,0.2,0
							C88.8,83.5,86.4,81.8,89.3,80.9z"/>
						<circle class="st11" cx="88.8" cy="82.2" r="0.4"/>
						<ellipse class="st10" cx="88.8" cy="95.5" rx="1.6" ry="1.6"/>
						<path class="st11" d="M89.2,94.2c0,0-1.4-0.1-1.7,0.9c-0.2,0.8,0.3,1.5,1.1,1.7c0.1,0,0.1,0,0.2,0
							C88.8,96.8,86.3,95.1,89.2,94.2z"/>
						<circle class="st11" cx="88.8" cy="95.6" r="0.4"/>
						<ellipse class="st10" cx="89" cy="108.8" rx="1.6" ry="1.6"/>
						<path class="st11" d="M89.4,107.6c0,0-1.4-0.1-1.7,0.9c-0.2,0.8,0.3,1.5,1.1,1.7c0.1,0,0.1,0,0.2,0
							C89,110.1,86.5,108.4,89.4,107.6z"/>
						<circle class="st11" cx="89" cy="108.9" r="0.4"/>
						<ellipse class="st10" cx="89.1" cy="119.4" rx="1.6" ry="1.6"/>
						<path class="st11" d="M89.6,118.2c0,0-1.4-0.1-1.7,0.9c-0.2,0.8,0.3,1.5,1.1,1.7c0.1,0,0.1,0,0.2,0
							C89.1,120.8,86.7,119.1,89.6,118.2z"/>
						<circle class="st11" cx="89.1" cy="119.5" r="0.4"/>
						<ellipse class="st10" cx="89.3" cy="132.8" rx="1.6" ry="1.6"/>
						<path class="st11" d="M89.7,131.6c0,0-1.4-0.1-1.7,0.9c-0.2,0.7,0.3,1.5,1,1.7c0.1,0,0.1,0,0.2,0
							C89.3,134.1,86.8,132.4,89.7,131.6z"/>
						<circle class="st11" cx="89.3" cy="132.9" r="0.4"/>
						<ellipse class="st12" cx="22.1" cy="157.3" rx="1.1" ry="1.1"/>
						<path class="st8" d="M92.1,123.5c0,0-1.7,22.3,4.7,19.3C96.8,142.8,92.6,147.8,92.1,123.5z"/>
					</g>
				</g>
				<path class="st7" d="M72.8,4c0,0-4.1,9-12.1,11.4c0,0,13.9,9.3,19.1,11.4l6.7-13.3C86.4,13.5,82.1,9.6,72.8,4z"/>
				<path class="st8" d="M84,12.6c0,0-7.2,7.2-6.5,14.1l0.8-0.7C78.4,26.1,79.7,15.6,84,12.6z"/>
				<path class="st7" d="M104.8,4.4c0,0,5,9,9.6,11c0,0-13,10.4-18.2,12.5l-5.2-13.8C95,10,99.6,6.7,104.8,4.4z"/>
				<path class="st8" d="M92,13.7c0,0,7.2,7.2,6.5,14.2l-0.8-0.7C97.6,27.2,96.3,16.8,92,13.7z"/>
				<path class="st13" d="M83.3,13.7c3.5-1.7,7.6-1.7,11.1,0.1c0,0-1.6,3.2-1.6,5c0,1.8-7.7,0.9-7.7,0.9S84.4,14.4,83.3,13.7
					C83.3,13.7,83.3,13.7,83.3,13.7C83.3,13.7,83.3,13.7,83.3,13.7z"/>
				<path class="st13" d="M85.6,19.7l-5.4,105.6c0,0-0.4,2.8,0.3,3.9c0.7,1.1,7.6,12.8,9,13s8.1-12.9,8.1-12.9
					c0.3-1.3,0.3-2.7,0-4.1L92,19.6L85.6,19.7z"/>
				<path class="st14" d="M93.2,13.7c0,0-4.9-1.6-8.2,0c0.7,1.4,0.9,2.9,0.7,4.5c0,0,1.2-2.6,1-3.6C86.6,14.6,86.5,13.3,93.2,13.7z"
					/>
				<path class="st14" d="M86.6,19.8l-4.6,102.6l7.5,15.4c0,0-5.6-14.3-5.6-16.1S86.6,19.8,86.6,19.8z"/>
				<path class="st3" d="M72.8,4c0,0-16.9,42.1,16.4,91.6c0,0,34.9-70.5,15.7-91.2c0,0,9.3,8.5,45.2,17.5c0,0,5,7.3,5.5,34.2
					c0,0,11.8,50.8,12.1,57.3s3.8,39.2,3.8,39.2s-13.2,5-22.6,1.8c0,0-11.4-32.9-13.1-41.2s-6.6-32.7-6.6-32.7s-7.4,35.4-2.8,47.3
					c4.6,11.9,10,40.4,10,40.4S103.5,174,98,170l-9.2-73.2l-5.5,74.3c0,0-34.1-2-42-8l8.4-36.1c0,0,2.2-23.7-2.8-47.2L38.7,126
					l-11.4,34.6c0,0-15.3,2.8-23.7-5.3l4.5-39.9c0,0,6.1-39.8,15.1-61c0,0,1.6-33.1,4.6-34.5C27.8,19.9,65.7,11.1,72.8,4z"/>
				<path class="st4" d="M72.8,4c0,0-8.1,58,16.4,91.6c0,0-27.1-31.2-31.5-60S66.3,5.1,72.8,4z"/>
				<path class="st4" d="M105.1,4c0,0,5,56.9-16.4,91.6c0,0,27.1-31.2,31.5-60S111.5,5.1,105.1,4z"/>
				<path class="st8" d="M98.5,27.9l7.1-5.8C105.6,22.1,102.3,27.3,98.5,27.9z"/>
				<path class="st8" d="M71.6,20.8l5.9,5.9C77.5,26.8,73.6,25.8,71.6,20.8z"/>
				<ellipse class="st4" cx="88.5" cy="96.8" rx="1.7" ry="1.7"/>
				<path class="st4" d="M95.9,153.4L98,170c0,0,2.1,2.9,24.1,0.2c0,0-21.7,1.2-22.5-0.9S95.9,153.4,95.9,153.4z"/>
				<path class="st4" d="M63.3,169.1l20,2l1.3-17.6c0,0-1.5,15-2.5,15.4S63.3,169.1,63.3,169.1z"/>
				<rect x="109" y="68.5" class="st15" width="16.9" height="1.9"/>
				<path class="st15" d="M54.2,129.2c0,0,11.2,3.7,18.8,2.3C73.1,131.5,62.6,135.2,54.2,129.2z"/>
				<path class="st15" d="M121.9,130c0,0-11.2,3.7-18.8,2.3C103.1,132.3,113.5,135.9,121.9,130z"/>
			</g>
		</g>
	</g>
</g>
</svg>
