<svg xmlns="http://www.w3.org/2000/svg" viewBox="0 0 280.77 795.74"><defs><style>.cls-1{fill:#473319;}.cls-2{fill:#684b1e;}.cls-3{fill:#3b3c49;}.cls-4{fill:#2b2d35;}.cls-5{fill:#1b1d23;}.cls-6{fill:#303030;}.cls-7{fill:#212121;}.cls-8{fill:#8c8357;}.cls-9{fill:#a39662;}</style></defs><title>sbb</title><g id="Layer_2" data-name="Layer 2"><g id="sbb"><g id="sbb-2" data-name="sbb"><g id="dressshoes"><g id="sbbshoes"><path class="cls-1" d="M68.7,758.41s-15.14,34.33,19.36,37.33c0,0,31,0,37-14.5,3-7.23-8-29.5-8-29.5s7.69,22.79,6,25.21-15.5,14.8-33,12.29-24.71-5.67-21.36-30.83"/><path class="cls-2" d="M78.62,730.74S67.26,754.3,65.91,775c0,0,1.15,14.72,22.15,16.22s36-10,36-14.29-10.87-46.21-10.87-46.21l-9.13,6c-1-4.5-19-5.5-19.5,0Z"/><path class="cls-1" d="M69.89,778.24s5.5-3.33,8-3.5v.44s-5.17,1.25-8,3.5Z"/><path class="cls-1" d="M81.82,773.62s6.17-1.8,8.63-1.32l-.11.43S85,772.6,81.7,774Z"/><path class="cls-1" d="M93.07,771.53s6.27-1.41,8.7-.77l-.14.41s-5.3-.46-8.7.78Z"/><path class="cls-1" d="M105.85,770.39s6.4-.65,8.73.27l-.19.39s-5.21-1.08-8.73-.27Z"/><path class="cls-1" d="M117.4,771.13s6.07,2.12,7.79,4l-.34.28s-4.25-3.2-7.78-4Z"/><path class="cls-1" d="M84.55,736.74l3.51,29.67S83.42,738.66,84.55,736.74Z"/><path class="cls-1" d="M103.71,766.68s1.49-27.81.63-29.87l-.63,29.87"/><polyline class="cls-1" points="84.83 739.06 93.69 743.41 104.52 737.91 104.59 739.58 93.69 744.91 104.16 746.91 104.16 748.41 93.69 746.08 85.61 750.4 85.46 749.28 92.93 744.91 84.38 739.91 84.83 739.06"/><polyline class="cls-1" points="85.32 749.72 94.18 754.07 105.01 748.57 105.08 750.23 94.18 755.57 104.65 757.57 104.65 759.07 94.18 756.73 86.11 761.06 85.96 759.94 93.42 755.57 84.87 750.57 85.32 749.72"/><polyline class="cls-1" points="85.32 759.71 94.18 764.06 105.01 758.56 105.08 760.23 94.18 765.56 104.65 767.56 104.65 769.06 94.18 766.73 86.11 771.05 85.96 769.93 93.42 765.56 84.87 760.56 85.32 759.71"/></g><g id="sbbshoes-2" data-name="sbbshoes"><path class="cls-1" d="M212.79,756.22s15.14,34.34-19.35,37.34c0,0-31,0-37-14.5-3-7.23,8-29.5,8-29.5s-7.69,22.78-6,25.21,15.51,14.8,33,12.29,24.71-5.67,21.36-30.84"/><path class="cls-2" d="M202.87,728.56s11.36,23.56,12.72,44.28c0,0-1.16,14.72-22.15,16.22s-36-10-36-14.29,10.87-46.21,10.87-46.21l9.13,6c1-4.5,19-5.5,19.5,0Z"/><path class="cls-1" d="M211.6,776.06s-5.5-3.33-8-3.5V773s5.17,1.25,8,3.5Z"/><path class="cls-1" d="M199.67,771.43s-6.17-1.79-8.63-1.31l.11.42s5.32-.12,8.64,1.32Z"/><path class="cls-1" d="M188.42,769.35s-6.27-1.41-8.69-.78l.14.42s5.29-.46,8.69.77Z"/><path class="cls-1" d="M175.64,768.21s-6.39-.66-8.72.26l.18.4s5.21-1.09,8.73-.27Z"/><path class="cls-1" d="M164.09,769s-6.07,2.12-7.79,3.94l.34.28s4.25-3.19,7.79-3.94Z"/><path class="cls-1" d="M196.94,734.56l-3.5,29.67S198.07,736.48,196.94,734.56Z"/><path class="cls-1" d="M177.78,764.49s-1.49-27.81-.63-29.86l.63,29.86"/><polyline class="cls-1" points="196.66 736.88 187.8 741.23 176.98 735.73 176.9 737.39 187.8 742.73 177.33 744.73 177.33 746.23 187.8 743.89 195.88 748.22 196.03 747.1 188.56 742.73 197.12 737.73 196.66 736.88"/><polyline class="cls-1" points="196.17 747.54 187.31 751.88 176.48 746.39 176.41 748.05 187.31 753.38 176.84 755.38 176.84 756.88 187.31 754.55 195.38 758.88 195.53 757.76 188.07 753.38 196.62 748.38 196.17 747.54"/><polyline class="cls-1" points="196.17 757.53 187.31 761.88 176.48 756.38 176.41 758.04 187.31 763.38 176.84 765.38 176.84 766.88 187.31 764.54 195.38 768.87 195.53 767.75 188.07 763.38 196.62 758.38 196.17 757.53"/></g></g><g id="sbbshirt"><path class="cls-3" d="M104.05,3.37S34.46,23,23.34,38.29,10.55,94.58,10.55,94.58s-5.66,14.71-6.33,19c0,0-7.33,3.92-2.67,10s29.13,19.86,48.73,21.29c0,0,9-.26,4-7.93L57,135.14s2.57,21.73,10.7,39.23c0,0-3.75,21-1,68.87,0,0-8.63,26.3-7.63,30.25,0,0,38,29.75,81.28,29.09L137.27,50.73S102.55,14.37,104.05,3.37Z"/><path class="cls-3" d="M175.22,4.24S246.31,23,257.43,38.29s12.79,56.29,12.79,56.29,5.66,14.71,6.33,19c0,0,7.33,3.92,2.67,10s-31.8,25.27-51.41,26.7c0,0-8.75-1.79-3.72-9.46l-1.3-2.65s-1.57,18.73-9.7,36.23c0,0,3.75,21,1,68.87,0,0,8.63,26.3,7.63,30.25,0,0-34.89,25.75-78.22,25.09l.64-243.34S176.72,15.24,175.22,4.24Z"/><path class="cls-4" d="M66.06,15.21s29.32,26,55.5,46.37c0,0,2.58,1.37,2.24,3.54,0,0,1.46-6.82,14-12.66C137.75,52.46,89.41,3.51,66.06,15.21Z"/><path class="cls-3" d="M106.79.86c-14,13.69,29.48,49.87,29.48,49.87l-13.05,9.35c0-8.09-54.42-42.84-54.15-46.87S106.79.86,106.79.86"/><path class="cls-4" d="M214.3,17.21A419.76,419.76,0,0,1,168,59.7s-2.58,1.38-2.25,3.54c0,0-6.67-8-21.58-8C144.14,55.24,191,5.51,214.3,17.21Z"/><path class="cls-3" d="M173.41,0s34.31,10.37,38.73,16.31c0,0-40.42,37.77-46.59,42.77,0,0-9.11-9.21-21.41-3.84C144.14,55.24,183.8,13.4,173.41,0Z"/><path class="cls-4" d="M136.27,50.73l3.45,251.85s4.36-4,5.5-4l-.94-238.51Z"/><path class="cls-3" d="M141.88,58.09s-3.32-2.35-3.32,3.65c0,14,1.5,239,1.5,239l1.39-2.12S141.21,62,141.88,58.09Z"/><circle class="cls-5" cx="140" cy="65.41" r="3.22"/><path class="cls-3" d="M140.87,62.93s-2.93-.27-3.38,1.75A2.84,2.84,0,0,0,140,68.12S135,64.68,140.87,62.93Z"/><circle class="cls-3" cx="140" cy="65.62" r="0.75"/><circle class="cls-5" cx="140.33" cy="92.28" r="3.22"/><path class="cls-3" d="M141.2,89.81s-2.92-.27-3.37,1.75a2.83,2.83,0,0,0,2.5,3.43S135.33,91.56,141.2,89.81Z"/><circle class="cls-3" cx="140.33" cy="92.49" r="0.75"/><circle class="cls-5" cx="140.91" cy="123.93" r="3.22"/><path class="cls-3" d="M141.79,121.46s-2.93-.28-3.38,1.75a2.83,2.83,0,0,0,2.5,3.43S135.91,123.21,141.79,121.46Z"/><circle class="cls-3" cx="140.91" cy="124.14" r="0.75"/><circle class="cls-5" cx="141.25" cy="150.81" r="3.22"/><path class="cls-3" d="M142.12,148.33s-2.92-.27-3.37,1.75a2.83,2.83,0,0,0,2.5,3.44S136.25,150.08,142.12,148.33Z"/><circle class="cls-3" cx="141.25" cy="151.02" r="0.75"/><circle class="cls-5" cx="141.17" cy="177.69" r="3.22"/><path class="cls-3" d="M142,175.21s-2.93-.27-3.38,1.75a2.83,2.83,0,0,0,2.51,3.43S136.16,177,142,175.21Z"/><circle class="cls-3" cx="141.17" cy="177.89" r="0.75"/><circle class="cls-5" cx="141.5" cy="204.56" r="3.22"/><path class="cls-3" d="M142.37,202.08s-2.92-.27-3.37,1.75a2.84,2.84,0,0,0,2.5,3.44S136.5,203.83,142.37,202.08Z"/><circle class="cls-3" cx="141.5" cy="204.77" r="0.75"/><circle class="cls-5" cx="141.87" cy="226" r="3.22"/><path class="cls-3" d="M142.74,223.53s-2.93-.27-3.38,1.75a2.84,2.84,0,0,0,2.51,3.43S136.86,225.28,142.74,223.53Z"/><circle class="cls-3" cx="141.87" cy="226.21" r="0.75"/><circle class="cls-5" cx="142.21" cy="252.88" r="3.22"/><path class="cls-3" d="M143.08,250.4s-2.93-.27-3.38,1.75a2.84,2.84,0,0,0,2.51,3.44S137.2,252.15,143.08,250.4Z"/><circle class="cls-3" cx="142.21" cy="253.09" r="0.75"/><circle class="cls-5" cx="142.25" cy="281.78" r="3.22"/><path class="cls-3" d="M143.12,279.31s-2.92-.27-3.37,1.75a2.83,2.83,0,0,0,2.5,3.43S137.25,281.06,143.12,279.31Z"/><circle class="cls-3" cx="142.25" cy="281.99" r="0.75"/><path class="cls-4" d="M68.05,96.75s23.5,11.65,41,5.32v35.08s-20.69,15.1-23.35,15.1S68.05,136.4,68.05,136.4Z"/><path class="cls-3" d="M69,99.41s21.25,10.53,37.07,4.82v31.71S87.38,149.59,85,149.59s-16-14.33-16-14.33Z"/><path class="cls-4" d="M212.94,95.86s-23.5,11.64-41,5.32v35.08s20.69,15.1,23.35,15.1,17.65-15.85,17.65-15.85Z"/><path class="cls-3" d="M212,98.52s-21.25,10.53-37.07,4.81v31.72S193.61,148.7,196,148.7s16-14.33,16-14.33Z"/><path class="cls-4" d="M67.68,174.37s18.24,33.2,41.37,45.21c0,0-31.81-15.2-42-40.94l.61-4.27"/><path class="cls-4" d="M4.22,113.6s25,16.31,37.67,18.64c0,0-36-14.46-36.36-23.56Z"/><path class="cls-4" d="M57,135.14s-14.43-10.56-15.09-18.56L57,135.14"/><path class="cls-4" d="M276,111.35s-24.48,21.35-37.81,23.79c0,0,24.17-5.56,38.33-21.54h0l-.52-2.25"/><path class="cls-4" d="M219.55,133.58s14-9.67,14-15.34C233.55,118.24,233.22,130.24,219.55,133.58Z"/><path class="cls-4" d="M69,105.62s14.92,8.25,30.29,6.62c0,0-17.37,3.13-30.29-4.75Z"/><path class="cls-4" d="M212,104.74s-7.8,8-26.55,7.5c0,0,15,4.5,26.55-5.37Z"/><path class="cls-4" d="M148.89,250.39s-3.38,44.85,9.48,38.85C158.37,289.24,149.89,299.2,148.89,250.39Z"/><path class="cls-4" d="M28.4,33.53S58.55,49.24,59.05,71.74c0,0,5-19.11-29-39.34Z"/><path class="cls-4" d="M247.48,30.47s-14.93.11-20.93,39.77c0,0,8.95-37.67,23.14-37.84Z"/></g><g id="sbbpants"><g id="sbbpants-2" data-name="sbbpants"><path class="cls-6" d="M62.4,274.26s65.06,47.17,155.86,1.58c0,0,20.29,50.4,13.79,133.4s-14,104-14,110,7,86.5,7,92.5-11.5,108.5-11.5,108.5-12.82,10.5-23.91,11.5-29.09-9.5-29.09-9.5-14.86-120.5-12.68-139.5,6.18-56.5,5.18-71.5-7.33-138.5-7.33-138.5l-7.67-1s-4.5,119-9.5,138-1.5,63.5,2,78-9,134-9,134-21,10-27.5,10-24.5-15.5-24.5-15.5-12-129-10-134.5,6-61,6-70-17-53-18-111S52.75,283.78,62.4,274.26Z"/><path class="cls-7" d="M191.23,401.24s6.67,140,4.67,147.34-6.83,182.16-6.83,182.16l-4.06-.68s5.71-175.48,5.63-182.15S191.23,401.24,191.23,401.24Z"/><path class="cls-7" d="M87.46,398.24s-6.66,140-4.66,147.34,6.83,182.16,6.83,182.16l4.06-.68S88,551.58,88.06,544.91,87.46,398.24,87.46,398.24Z"/><path class="cls-7" d="M59.28,279.29s-5,5.94-4,12.78c0,0,52.79,18.66,84.42,18.83,32.88.18,84.63-17.83,84.63-17.83s-.5-12.39-4.79-13.78C219.51,279.29,155.05,317.49,59.28,279.29Z"/><rect class="cls-8" x="129.05" y="295.49" width="24.37" height="17.41" rx="2.9" ry="2.9"/><rect class="cls-7" x="134.22" y="299.71" width="13.78" height="9.28" rx="1.59" ry="1.59"/></g><path class="cls-9" d="M131.05,305.49s-3.87-10.37,8.5-9h0S129.93,297.12,131.05,305.49Z"/><rect class="cls-6" x="109.54" y="292.82" width="4.93" height="18.08" rx="1.47" ry="1.47"/><rect class="cls-6" x="167.29" y="292.82" width="4.93" height="18.08" rx="1.47" ry="1.47"/><rect class="cls-6" x="214.04" y="278.56" width="4.93" height="18.08" rx="1.47" ry="1.47"/><rect class="cls-6" x="60.04" y="278.56" width="4.93" height="18.08" rx="1.47" ry="1.47"/><path class="cls-7" d="M178.55,310.9s13.5,23.68,45.75,18.68C224.3,329.58,192.55,340.56,178.55,310.9Z"/><path class="cls-7" d="M105.18,312.52S92.29,336.2,61.5,331.2C61.5,331.2,91.81,342.18,105.18,312.52Z"/><path class="cls-7" d="M135.22,316.45s-6.55,49.29,5.89,48.79C141.11,365.24,131.16,362.67,135.22,316.45Z"/></g></g></g></g></svg>