<svg xmlns="http://www.w3.org/2000/svg" viewBox="0 0 183 415"><defs><style>.cls-1{fill:none;}.cls-2{fill:#473319;}.cls-3{fill:#684b1e;}.cls-4{fill:#3b3c49;}.cls-5{fill:#2b2d35;}.cls-6{fill:#1b1d23;}.cls-7{fill:#303030;}.cls-8{fill:#212121;}.cls-9{fill:#8c8357;}.cls-10{fill:#a39662;}</style></defs><title>sbb</title><g id="Layer_2" data-name="Layer 2"><g id="sbb"><g id="sbb-2" data-name="sbb"><rect class="cls-1" width="183" height="415"/><g id="dressshoes"><g id="sbbshoes"><path class="cls-2" d="M53.09,377.46s-7.48,17,9.56,18.53c0,0,15.31,0,18.28-7.2,1.47-3.59-4-14.64-4-14.64s3.79,11.31,3,12.51-7.66,7.35-16.3,6.1-12.2-2.81-10.55-15.3"/><path class="cls-3" d="M58,363.72s-5.61,11.7-6.28,22c0,0,.57,7.31,10.94,8.05s17.78-5,17.78-7.09-5.37-22.94-5.37-22.94l-4.51,3c-.49-2.23-9.38-2.73-9.63,0Z"/><path class="cls-2" d="M53.68,387.3s2.71-1.65,4-1.74v.22a12.36,12.36,0,0,0-4,1.74Z"/><path class="cls-2" d="M59.57,385s3-.9,4.26-.66l0,.21a12.38,12.38,0,0,0-4.27.66Z"/><path class="cls-2" d="M65.13,384s3.1-.7,4.29-.38l-.07.2a12.45,12.45,0,0,0-4.29.39Z"/><path class="cls-2" d="M71.44,383.4s3.16-.32,4.31.14l-.09.19a12.3,12.3,0,0,0-4.31-.13Z"/><path class="cls-2" d="M77.15,383.77s3,1.06,3.85,2l-.17.14a12.3,12.3,0,0,0-3.85-2Z"/><path class="cls-2" d="M60.92,366.7l1.73,14.73S60.36,367.65,60.92,366.7Z"/><path class="cls-2" d="M70.38,381.56s.74-13.8.32-14.82l-.32,14.82"/><polyline class="cls-2" points="61.06 367.86 65.43 370.01 70.78 367.28 70.82 368.11 65.43 370.76 70.61 371.75 70.61 372.49 65.43 371.34 61.45 373.48 61.37 372.93 65.06 370.76 60.83 368.27 61.06 367.86"/><polyline class="cls-2" points="61.3 373.14 65.68 375.3 71.03 372.57 71.06 373.4 65.68 376.05 70.85 377.04 70.85 377.78 65.68 376.63 61.69 378.77 61.62 378.22 65.3 376.05 61.08 373.56 61.3 373.14"/><polyline class="cls-2" points="61.3 378.11 65.68 380.26 71.03 377.53 71.06 378.36 65.68 381.01 70.85 382 70.85 382.74 65.68 381.59 61.69 383.73 61.62 383.18 65.3 381.01 61.08 378.52 61.3 378.11"/></g><g id="sbbshoes-2" data-name="sbbshoes"><path class="cls-2" d="M124.26,376.37s7.48,17.05-9.56,18.53c0,0-15.31,0-18.27-7.19-1.48-3.59,3.95-14.65,3.95-14.65s-3.8,11.31-3,12.52,7.66,7.34,16.3,6.1,12.2-2.82,10.54-15.31"/><path class="cls-3" d="M119.37,362.64s5.61,11.69,6.28,22c0,0-.57,7.31-11,8.05s-17.77-5-17.77-7.09,5.36-22.94,5.36-22.94l4.51,3c.5-2.23,9.39-2.73,9.63,0Z"/><path class="cls-2" d="M123.68,386.22s-2.72-1.66-4-1.74v.22a12.36,12.36,0,0,1,4,1.74Z"/><path class="cls-2" d="M117.79,383.92s-3.05-.89-4.27-.65l.06.21a12.49,12.49,0,0,1,4.26.65Z"/><path class="cls-2" d="M112.23,382.89s-3.1-.7-4.3-.39l.07.21a12.4,12.4,0,0,1,4.3.38Z"/><path class="cls-2" d="M105.92,382.32s-3.16-.32-4.32.13l.1.2a12.3,12.3,0,0,1,4.31-.13Z"/><path class="cls-2" d="M100.21,382.69s-3,1.05-3.85,2l.17.14a12.33,12.33,0,0,1,3.84-2Z"/><path class="cls-2" d="M116.43,365.62l-1.73,14.72S117,366.57,116.43,365.62Z"/><path class="cls-2" d="M107,380.48s-.73-13.81-.31-14.83l.31,14.83"/><polyline class="cls-2" points="116.3 366.77 111.92 368.93 106.57 366.2 106.54 367.02 111.92 369.67 106.75 370.67 106.75 371.41 111.92 370.25 115.91 372.4 115.98 371.84 112.3 369.67 116.52 367.19 116.3 366.77"/><polyline class="cls-2" points="116.05 372.06 111.68 374.22 106.33 371.49 106.29 372.32 111.68 374.96 106.5 375.96 106.5 376.7 111.68 375.54 115.67 377.69 115.74 377.13 112.05 374.96 116.28 372.48 116.05 372.06"/><polyline class="cls-2" points="116.05 377.02 111.68 379.18 106.33 376.45 106.29 377.28 111.68 379.92 106.5 380.92 106.5 381.66 111.68 380.5 115.67 382.65 115.74 382.09 112.05 379.92 116.28 377.44 116.05 377.02"/></g></g><g id="sbbshirt"><path class="cls-4" d="M70.55,5.68S36.18,15.43,30.69,23,24.37,51,24.37,51s-2.8,7.3-3.13,9.44c0,0-3.62,1.94-1.32,4.94S34.31,75.2,44,75.91c0,0,4.45-.14,2-3.94l1.35-.88s1.27,10.78,5.29,19.47c0,0-1.86,10.42-.5,34.19,0,0-4.26,13.05-3.76,15,0,0,18.74,14.77,40.14,14.44L87,29.19S69.81,11.14,70.55,5.68Z"/><path class="cls-4" d="M105.71,6.12s35.11,9.31,40.6,16.9S152.63,51,152.63,51s2.8,7.3,3.13,9.44c0,0,3.62,1.94,1.32,4.94s-15.71,12.54-25.39,13.25c0,0-4.33-.89-1.84-4.69l-.65-1.32a60.34,60.34,0,0,1-4.79,18s1.86,10.42.5,34.19c0,0,4.26,13.05,3.76,15,0,0-17.23,12.78-38.63,12.45l.31-120.78S106.45,11.58,105.71,6.12Z"/><path class="cls-5" d="M51.79,11.56s14.48,12.89,27.41,23c0,0,1.27.68,1.11,1.75,0,0,.72-3.38,6.89-6.28C87.2,30.05,63.32,5.75,51.79,11.56Z"/><path class="cls-4" d="M71.91,4.44C65,11.23,86.47,29.19,86.47,29.19L80,33.83c0-4-26.88-21.26-26.75-23.26S71.91,4.44,71.91,4.44"/><path class="cls-5" d="M125,12.55a207.11,207.11,0,0,1-22.89,21.09s-1.27.69-1.11,1.76c0,0-3.29-4-10.66-4C90.35,31.43,113.48,6.75,125,12.55Z"/><path class="cls-4" d="M104.81,4s17,5.15,19.13,8.1c0,0-20,18.74-23,21.22a9.78,9.78,0,0,0-10.58-1.9S110,10.66,104.81,4Z"/><path class="cls-5" d="M86.47,29.19l1.7,125s2.16-2,2.72-2L90.43,33.83Z"/><path class="cls-4" d="M89.24,32.85s-1.64-1.17-1.64,1.81c0,7,.74,118.61.74,118.61l.69-1.05S88.91,34.79,89.24,32.85Z"/><ellipse class="cls-6" cx="88.31" cy="36.48" rx="1.59" ry="1.6"/><path class="cls-4" d="M88.74,35.25s-1.45-.14-1.67.87a1.41,1.41,0,0,0,1.24,1.7S85.84,36.12,88.74,35.25Z"/><circle class="cls-4" cx="88.31" cy="36.58" r="0.37"/><ellipse class="cls-6" cx="88.47" cy="49.82" rx="1.59" ry="1.6"/><path class="cls-4" d="M88.9,48.59s-1.44-.14-1.66.87a1.4,1.4,0,0,0,1.23,1.7S86,49.46,88.9,48.59Z"/><circle class="cls-4" cx="88.47" cy="49.92" r="0.37"/><ellipse class="cls-6" cx="88.76" cy="65.53" rx="1.59" ry="1.6"/><path class="cls-4" d="M89.19,64.3s-1.45-.14-1.67.87a1.41,1.41,0,0,0,1.24,1.7S86.29,65.17,89.19,64.3Z"/><circle class="cls-4" cx="88.76" cy="65.63" r="0.37"/><ellipse class="cls-6" cx="88.93" cy="78.87" rx="1.59" ry="1.6"/><path class="cls-4" d="M89.36,77.64s-1.45-.14-1.67.87a1.41,1.41,0,0,0,1.24,1.7S86.46,78.51,89.36,77.64Z"/><circle class="cls-4" cx="88.93" cy="78.97" r="0.37"/><ellipse class="cls-6" cx="88.89" cy="92.21" rx="1.59" ry="1.6"/><path class="cls-4" d="M89.32,91s-1.45-.14-1.67.87a1.4,1.4,0,0,0,1.24,1.7S86.41,91.85,89.32,91Z"/><circle class="cls-4" cx="88.89" cy="92.31" r="0.37"/><ellipse class="cls-6" cx="89.05" cy="105.55" rx="1.59" ry="1.6"/><path class="cls-4" d="M89.48,104.32s-1.44-.14-1.66.87a1.39,1.39,0,0,0,1.23,1.7S86.58,105.19,89.48,104.32Z"/><circle class="cls-4" cx="89.05" cy="105.65" r="0.37"/><ellipse class="cls-6" cx="89.23" cy="116.19" rx="1.59" ry="1.6"/><path class="cls-4" d="M89.66,115s-1.44-.13-1.67.87a1.41,1.41,0,0,0,1.24,1.71S86.76,115.83,89.66,115Z"/><circle class="cls-4" cx="89.23" cy="116.29" r="0.37"/><ellipse class="cls-6" cx="89.4" cy="129.53" rx="1.59" ry="1.6"/><path class="cls-4" d="M89.83,128.3s-1.45-.13-1.67.87a1.41,1.41,0,0,0,1.24,1.71S86.93,129.17,89.83,128.3Z"/><circle class="cls-4" cx="89.4" cy="129.63" r="0.37"/><ellipse class="cls-6" cx="89.42" cy="143.88" rx="1.59" ry="1.6"/><path class="cls-4" d="M89.85,142.65s-1.44-.14-1.66.87a1.4,1.4,0,0,0,1.23,1.7S87,143.52,89.85,142.65Z"/><circle class="cls-4" cx="89.42" cy="143.98" r="0.37"/><path class="cls-5" d="M52.77,52S64.38,57.82,73,54.68V72.09S62.8,79.58,61.49,79.58s-8.72-7.86-8.72-7.86Z"/><path class="cls-4" d="M53.24,53.36s10.5,5.22,18.32,2.38V71.49s-9.24,6.77-10.43,6.77-7.89-7.11-7.89-7.11Z"/><path class="cls-5" d="M124.34,51.59s-11.61,5.78-20.25,2.64V71.65s10.22,7.49,11.53,7.49,8.72-7.87,8.72-7.87Z"/><path class="cls-4" d="M123.86,52.91s-10.49,5.23-18.31,2.39V71s9.24,6.78,10.43,6.78,7.88-7.11,7.88-7.11Z"/><path class="cls-5" d="M52.59,90.56S61.6,107,73,113c0,0-15.71-7.54-20.74-20.32l.31-2.12"/><path class="cls-5" d="M21.24,60.4s12.35,8.09,18.61,9.25c0,0-17.8-7.18-18-11.7Z"/><path class="cls-5" d="M47.3,71.09s-7.12-5.24-7.45-9.21l7.45,9.21"/><path class="cls-5" d="M155.5,59.28s-12.09,10.6-18.67,11.81c0,0,11.93-2.76,18.93-10.69h0l-.26-1.12"/><path class="cls-5" d="M127.61,70.31s6.91-4.79,6.91-7.61C134.52,62.7,134.36,68.66,127.61,70.31Z"/><path class="cls-5" d="M53.24,56.44s7.37,4.09,15,3.28c0,0-8.58,1.56-15-2.35Z"/><path class="cls-5" d="M123.86,56s-3.85,4-13.11,3.72c0,0,7.4,2.24,13.11-2.66Z"/><path class="cls-5" d="M92.7,128.3S91,150.56,97.38,147.58C97.38,147.58,93.19,152.52,92.7,128.3Z"/><path class="cls-5" d="M33.18,20.66s14.9,7.79,15.15,19c0,0,2.48-9.49-14.32-19.52Z"/><path class="cls-5" d="M141.4,19.13s-7.37.06-10.34,19.75c0,0,4.42-18.7,11.43-18.78Z"/></g><g id="sbbpants"><g id="sbbpants-2" data-name="sbbpants"><path class="cls-7" d="M50,138.14s32.14,23.42,77,.79c0,0,10,25,6.81,66.21s-6.92,51.63-6.92,54.6,3.46,42.94,3.46,45.92-5.68,53.85-5.68,53.85-6.33,5.21-11.81,5.71-14.37-4.71-14.37-4.71-7.34-59.82-6.26-69.25,3-28,2.56-35.49S91.13,187,91.13,187l-3.78-.5S85.13,245.6,82.66,255s-.75,31.52,1,38.72-4.44,66.51-4.44,66.51-10.38,5-13.59,5-12.1-7.69-12.1-7.69-5.92-64-4.94-66.76,3-30.28,3-34.75-8.4-26.31-8.89-55.09S45.21,142.87,50,138.14Z"/><path class="cls-8" d="M113.62,201.17s3.29,69.49,2.3,73.13-3.37,90.42-3.37,90.42l-2-.33s2.82-87.11,2.78-90.42S113.62,201.17,113.62,201.17Z"/><path class="cls-8" d="M62.36,199.68s-3.29,69.5-2.31,73.14,3.38,90.42,3.38,90.42l2-.34s-2.82-87.11-2.78-90.42S62.36,199.68,62.36,199.68Z"/><path class="cls-8" d="M48.44,140.64s-2.47,3-2,6.35c0,0,26.07,9.25,41.7,9.34,16.24.09,41.8-8.85,41.8-8.85s-.25-6.15-2.37-6.84C127.58,140.64,95.75,159.6,48.44,140.64Z"/><rect class="cls-9" x="82.9" y="148.68" width="12.04" height="8.64" rx="2.9" ry="2.9"/><rect class="cls-8" x="85.45" y="150.78" width="6.81" height="4.61" rx="1.59" ry="1.59"/></g><path class="cls-10" d="M83.89,153.65s-1.91-5.15,4.2-4.47h0S83.33,149.49,83.89,153.65Z"/><rect class="cls-7" x="73.26" y="147.36" width="2.43" height="8.97" rx="1.22" ry="1.22"/><rect class="cls-7" x="101.79" y="147.36" width="2.43" height="8.97" rx="1.22" ry="1.22"/><rect class="cls-7" x="124.88" y="140.28" width="2.43" height="8.97" rx="1.22" ry="1.22"/><rect class="cls-7" x="48.81" y="140.28" width="2.43" height="8.97" rx="1.22" ry="1.22"/><path class="cls-8" d="M107.35,156.33S114,168.08,130,165.6C130,165.6,114.27,171.05,107.35,156.33Z"/><path class="cls-8" d="M71.11,157.14s-6.37,11.75-21.58,9.27C49.53,166.41,64.51,171.86,71.11,157.14Z"/><path class="cls-8" d="M86,159.09s-3.24,24.46,2.91,24.21C88.86,183.3,84,182,86,159.09Z"/></g></g></g></g></svg>