<?xml version="1.0" encoding="utf-8"?>
<!-- Generator: Adobe Illustrator 22.1.0, SVG Export Plug-In . SVG Version: 6.00 Build 0)  -->
<svg version="1.1" id="Layer_1" xmlns="http://www.w3.org/2000/svg" xmlns:xlink="http://www.w3.org/1999/xlink" x="0px" y="0px"
	 viewBox="0 0 183 415" style="enable-background:new 0 0 183 415;" xml:space="preserve">
<style type="text/css">
	.st0{fill:none;}
	.st1{fill:#473319;}
	.st2{fill:#684B1E;}
	.st3{fill:#3B3C49;}
	.st4{fill:#2B2D35;}
	.st5{fill:#1B1D23;}
	.st6{fill:#303030;}
	.st7{fill:#212121;}
	.st8{fill:#8C8357;}
	.st9{fill:#A39662;}
</style>
<title>sbb</title>
<g id="Layer_2_1_">
	<g id="sbb">
		<g id="sbb-2">
			<rect class="st0" width="183" height="415"/>
			<g id="dressshoes">
				<g id="sbbshoes">
					<path class="st1" d="M52.1,375.5c0,0-7.5,17,9.6,18.5c0,0,15.3,0,18.3-7.2c1.5-3.6-4-14.6-4-14.6s3.8,11.3,3,12.5
						s-7.7,7.4-16.3,6.1S50.4,387.9,52.1,375.5"/>
					<path class="st2" d="M57,361.7c0,0-5.6,11.7-6.3,22c0,0,0.6,7.3,10.9,8s17.8-5,17.8-7.1s-5.4-22.9-5.4-22.9l-4.5,3
						c-0.5-2.2-9.4-2.7-9.6,0L57,361.7z"/>
					<path class="st1" d="M52.7,385.3c0,0,2.7-1.6,4-1.7v0.2c-1.4,0.3-2.8,0.9-4,1.7V385.3z"/>
					<path class="st1" d="M58.6,383c0,0,3-0.9,4.3-0.7v0.2c-1.5,0-2.9,0.2-4.3,0.7L58.6,383z"/>
					<path class="st1" d="M64.1,382c0,0,3.1-0.7,4.3-0.4l-0.1,0.2c-1.4-0.1-2.9,0-4.3,0.4L64.1,382z"/>
					<path class="st1" d="M70.4,381.4c0,0,3.2-0.3,4.3,0.1l-0.1,0.2c-1.4-0.3-2.9-0.3-4.3-0.1L70.4,381.4z"/>
					<path class="st1" d="M76.2,381.8c0,0,3,1.1,3.8,2l-0.2,0.1c-1.2-0.9-2.5-1.6-3.8-2L76.2,381.8z"/>
					<path class="st1" d="M59.9,364.7l1.7,14.7C61.6,379.4,59.4,365.6,59.9,364.7z"/>
					<path class="st1" d="M69.4,379.6c0,0,0.7-13.8,0.3-14.8L69.4,379.6"/>
					<polyline class="st1" points="60.1,365.9 64.4,368 69.8,365.3 69.8,366.1 64.4,368.8 69.6,369.8 69.6,370.5 64.4,369.3 
						60.5,371.5 60.4,370.9 64.1,368.8 59.8,366.3 60.1,365.9 					"/>
					<polyline class="st1" points="60.3,371.1 64.7,373.3 70,370.6 70.1,371.4 64.7,374 69.8,375 69.8,375.8 64.7,374.6 60.7,376.8 
						60.6,376.2 64.3,374 60.1,371.6 60.3,371.1 					"/>
					<polyline class="st1" points="60.3,376.1 64.7,378.3 70,375.5 70.1,376.4 64.7,379 69.8,380 69.8,380.7 64.7,379.6 60.7,381.7 
						60.6,381.2 64.3,379 60.1,376.5 60.3,376.1 					"/>
				</g>
				<g id="sbbshoes-2">
					<path class="st1" d="M123.3,374.4c0,0,7.5,17-9.6,18.5c0,0-15.3,0-18.3-7.2c-1.5-3.6,3.9-14.6,3.9-14.6s-3.8,11.3-3,12.5
						s7.7,7.3,16.3,6.1S124.9,386.9,123.3,374.4"/>
					<path class="st2" d="M118.4,360.6c0,0,5.6,11.7,6.3,22c0,0-0.6,7.3-11,8s-17.8-5-17.8-7.1s5.4-22.9,5.4-22.9l4.5,3
						c0.5-2.2,9.4-2.7,9.6,0L118.4,360.6z"/>
					<path class="st1" d="M122.7,384.2c0,0-2.7-1.7-4-1.7v0.2c1.4,0.3,2.8,0.9,4,1.7V384.2z"/>
					<path class="st1" d="M116.8,381.9c0,0-3.1-0.9-4.3-0.6l0.1,0.2c1.4,0,2.9,0.2,4.3,0.6L116.8,381.9z"/>
					<path class="st1" d="M111.2,380.9c0,0-3.1-0.7-4.3-0.4l0.1,0.2c1.4-0.1,2.9,0,4.3,0.4L111.2,380.9z"/>
					<path class="st1" d="M104.9,380.3c0,0-3.2-0.3-4.3,0.1l0.1,0.2c1.4-0.3,2.9-0.3,4.3-0.1L104.9,380.3z"/>
					<path class="st1" d="M99.2,380.7c0,0-3,1-3.8,2l0.2,0.1c1.2-0.9,2.5-1.6,3.8-2L99.2,380.7z"/>
					<path class="st1" d="M115.4,363.6l-1.7,14.7C113.7,378.3,116,364.6,115.4,363.6z"/>
					<path class="st1" d="M106,378.5c0,0-0.7-13.8-0.3-14.8L106,378.5"/>
					<polyline class="st1" points="115.3,364.8 110.9,366.9 105.6,364.2 105.5,365 110.9,367.7 105.8,368.7 105.8,369.4 
						110.9,368.2 114.9,370.4 115,369.8 111.3,367.7 115.5,365.2 115.3,364.8 					"/>
					<polyline class="st1" points="115.1,370.1 110.7,372.2 105.3,369.5 105.3,370.3 110.7,373 105.5,374 105.5,374.7 110.7,373.5 
						114.7,375.7 114.7,375.1 111.1,373 115.3,370.5 115.1,370.1 					"/>
					<polyline class="st1" points="115.1,375 110.7,377.2 105.3,374.5 105.3,375.3 110.7,377.9 105.5,378.9 105.5,379.7 
						110.7,378.5 114.7,380.6 114.7,380.1 111.1,377.9 115.3,375.4 115.1,375 					"/>
				</g>
			</g>
			<g id="sbbshirt">
				<path class="st3" d="M69.6,2.7c0,0-34.4,9.8-39.9,17.3s-6.3,28-6.3,28s-2.8,7.3-3.1,9.4c0,0-3.6,1.9-1.3,4.9S33.3,72.2,43,72.9
					c0,0,4.5-0.1,2-3.9l1.3-0.9c0,0,1.3,10.8,5.3,19.5c0,0-1.9,10.4-0.5,34.2c0,0-4.3,13.1-3.8,15c0,0,18.7,14.8,40.1,14.4L86,26.2
					C86,26.2,68.8,8.1,69.6,2.7z"/>
				<path class="st3" d="M104.7,3.1c0,0,35.1,9.3,40.6,16.9s6.3,28,6.3,28s2.8,7.3,3.1,9.4c0,0,3.6,1.9,1.3,4.9
					s-15.7,12.5-25.4,13.2c0,0-4.3-0.9-1.8-4.7l-0.6-1.3c-0.7,6.2-2.3,12.3-4.8,18c0,0,1.9,10.4,0.5,34.2c0,0,4.3,13.1,3.8,15
					c0,0-17.2,12.8-38.6,12.4l0.3-120.8C89.4,28.5,105.4,8.6,104.7,3.1z"/>
				<path class="st4" d="M50.8,8.6c0,0,14.5,12.9,27.4,23c0,0,1.3,0.7,1.1,1.7c0,0,0.7-3.4,6.9-6.3C86.2,27.1,62.3,2.8,50.8,8.6z"/>
				<path class="st3" d="M70.9,1.4C64,8.2,85.5,26.2,85.5,26.2L79,30.8c0-4-26.9-21.3-26.8-23.3S70.9,1.4,70.9,1.4"/>
				<path class="st4" d="M124,9.6c-7.1,7.6-14.7,14.6-22.9,21.1c0,0-1.3,0.7-1.1,1.8c0,0-3.3-4-10.7-4C89.3,28.4,112.5,3.8,124,9.6z
					"/>
				<path class="st3" d="M103.8,1c0,0,17,5.2,19.1,8.1c0,0-20,18.7-23,21.2c-2.8-2.7-7-3.4-10.6-1.9C89.4,28.4,109,7.7,103.8,1z"/>
				<path class="st4" d="M85.5,26.2l1.7,125c0,0,2.2-2,2.7-2L89.4,30.8L85.5,26.2z"/>
				<path class="st3" d="M88.2,29.9c0,0-1.6-1.2-1.6,1.8c0,7,0.7,118.6,0.7,118.6l0.7-1.1C88,149.2,87.9,31.8,88.2,29.9z"/>
				<ellipse class="st5" cx="87.3" cy="33.5" rx="1.6" ry="1.6"/>
				<path class="st3" d="M87.7,32.3c0,0-1.4-0.1-1.7,0.9c-0.2,0.8,0.3,1.5,1.1,1.7c0.1,0,0.1,0,0.2,0C87.3,34.8,84.8,33.1,87.7,32.3
					z"/>
				<circle class="st3" cx="87.3" cy="33.6" r="0.4"/>
				<ellipse class="st5" cx="87.5" cy="46.8" rx="1.6" ry="1.6"/>
				<path class="st3" d="M87.9,45.6c0,0-1.4-0.1-1.7,0.9c-0.2,0.8,0.3,1.5,1.1,1.7c0.1,0,0.1,0,0.2,0C87.5,48.2,85,46.5,87.9,45.6z"
					/>
				<circle class="st3" cx="87.5" cy="46.9" r="0.4"/>
				<ellipse class="st5" cx="87.8" cy="62.5" rx="1.6" ry="1.6"/>
				<path class="st3" d="M88.2,61.3c0,0-1.4-0.1-1.7,0.9c-0.2,0.8,0.3,1.5,1.1,1.7c0.1,0,0.1,0,0.2,0C87.8,63.9,85.3,62.2,88.2,61.3
					z"/>
				<circle class="st3" cx="87.8" cy="62.6" r="0.4"/>
				<ellipse class="st5" cx="87.9" cy="75.9" rx="1.6" ry="1.6"/>
				<path class="st3" d="M88.4,74.6c0,0-1.4-0.1-1.7,0.9c-0.2,0.8,0.3,1.5,1.1,1.7c0.1,0,0.1,0,0.2,0C87.9,77.2,85.5,75.5,88.4,74.6
					z"/>
				<circle class="st3" cx="87.9" cy="76" r="0.4"/>
				<ellipse class="st5" cx="87.9" cy="89.2" rx="1.6" ry="1.6"/>
				<path class="st3" d="M88.3,88c0,0-1.4-0.1-1.7,0.9c-0.2,0.8,0.3,1.5,1.1,1.7c0.1,0,0.1,0,0.2,0C87.9,90.6,85.4,88.9,88.3,88z"/>
				<circle class="st3" cx="87.9" cy="89.3" r="0.4"/>
				<ellipse class="st5" cx="88.1" cy="102.6" rx="1.6" ry="1.6"/>
				<path class="st3" d="M88.5,101.3c0,0-1.4-0.1-1.7,0.9c-0.2,0.7,0.3,1.5,1,1.7c0.1,0,0.1,0,0.2,0
					C88.1,103.9,85.6,102.2,88.5,101.3z"/>
				<circle class="st3" cx="88.1" cy="102.7" r="0.4"/>
				<ellipse class="st5" cx="88.2" cy="113.2" rx="1.6" ry="1.6"/>
				<path class="st3" d="M88.7,112c0,0-1.4-0.1-1.7,0.9c-0.2,0.8,0.3,1.5,1.1,1.7c0.1,0,0.1,0,0.2,0C88.2,114.6,85.8,112.8,88.7,112
					z"/>
				<circle class="st3" cx="88.2" cy="113.3" r="0.4"/>
				<ellipse class="st5" cx="88.4" cy="126.5" rx="1.6" ry="1.6"/>
				<path class="st3" d="M88.8,125.3c0,0-1.4-0.1-1.7,0.9c-0.2,0.8,0.3,1.5,1.1,1.7c0.1,0,0.1,0,0.2,0
					C88.4,127.9,85.9,126.2,88.8,125.3z"/>
				<circle class="st3" cx="88.4" cy="126.6" r="0.4"/>
				<ellipse class="st5" cx="88.4" cy="140.9" rx="1.6" ry="1.6"/>
				<path class="st3" d="M88.8,139.7c0,0-1.4-0.1-1.7,0.9c-0.2,0.8,0.3,1.5,1.1,1.7c0.1,0,0.1,0,0.2,0
					C88.4,142.2,86,140.5,88.8,139.7z"/>
				<circle class="st3" cx="88.4" cy="141" r="0.4"/>
				<path class="st4" d="M51.8,49c0,0,11.6,5.8,20.2,2.7v17.4c0,0-10.2,7.5-11.5,7.5s-8.7-7.9-8.7-7.9V49z"/>
				<path class="st3" d="M52.2,50.4c0,0,10.5,5.2,18.3,2.4v15.7c0,0-9.2,6.8-10.4,6.8s-7.9-7.1-7.9-7.1L52.2,50.4z"/>
				<path class="st4" d="M123.3,48.6c0,0-11.6,5.8-20.2,2.6v17.4c0,0,10.2,7.5,11.5,7.5s8.7-7.9,8.7-7.9V48.6z"/>
				<path class="st3" d="M122.9,49.9c0,0-10.5,5.2-18.3,2.4V68c0,0,9.2,6.8,10.4,6.8s7.9-7.1,7.9-7.1V49.9z"/>
				<path class="st4" d="M51.6,87.6c0,0,9,16.4,20.4,22.4c0,0-15.7-7.5-20.7-20.3L51.6,87.6"/>
				<path class="st4" d="M20.2,57.4c0,0,12.4,8.1,18.6,9.2c0,0-17.8-7.2-18-11.7L20.2,57.4z"/>
				<path class="st4" d="M46.3,68.1c0,0-7.1-5.2-7.5-9.2L46.3,68.1"/>
				<path class="st4" d="M154.5,56.3c0,0-12.1,10.6-18.7,11.8c0,0,11.9-2.8,18.9-10.7l0,0L154.5,56.3"/>
				<path class="st4" d="M126.6,67.3c0,0,6.9-4.8,6.9-7.6C133.5,59.7,133.4,65.7,126.6,67.3z"/>
				<path class="st4" d="M52.2,53.4c0,0,7.4,4.1,15,3.3c0,0-8.6,1.6-15-2.3L52.2,53.4z"/>
				<path class="st4" d="M122.9,53c0,0-3.8,4-13.1,3.7c0,0,7.4,2.2,13.1-2.7V53z"/>
				<path class="st4" d="M91.7,125.3c0,0-1.7,22.3,4.7,19.3C96.4,144.6,92.2,149.5,91.7,125.3z"/>
				<path class="st4" d="M32.2,17.7c0,0,14.9,7.8,15.2,19c0,0,2.5-9.5-14.3-19.5L32.2,17.7z"/>
				<path class="st4" d="M140.4,16.1c0,0-7.4,0.1-10.3,19.8c0,0,4.4-18.7,11.4-18.8L140.4,16.1z"/>
			</g>
			<g id="sbbpants">
				<g id="sbbpants-2">
					<path class="st6" d="M49,137.1c0,0,32.1,23.4,77,0.8c0,0,10,25,6.8,66.2s-6.9,51.6-6.9,54.6c0,3,3.5,42.9,3.5,45.9
						s-5.7,53.9-5.7,53.9s-6.3,5.2-11.8,5.7s-14.4-4.7-14.4-4.7s-7.3-59.8-6.3-69.2s3-28,2.6-35.5c-0.4-7.5-3.7-68.8-3.7-68.8
						l-3.8-0.5c0,0-2.2,59.1-4.7,68.5c-2.5,9.4-0.8,31.5,1,38.7s-4.4,66.5-4.4,66.5s-10.4,5-13.6,5s-12.1-7.7-12.1-7.7
						s-5.9-64-4.9-66.8s3-30.3,3-34.7c0-4.5-8.4-26.3-8.9-55.1S44.2,141.9,49,137.1z"/>
					<path class="st7" d="M112.6,200.2c0,0,3.3,69.5,2.3,73.1s-3.4,90.4-3.4,90.4l-2-0.3c0,0,2.8-87.1,2.8-90.4
						S112.6,200.2,112.6,200.2z"/>
					<path class="st7" d="M61.4,198.7c0,0-3.3,69.5-2.3,73.1s3.4,90.4,3.4,90.4l2-0.3c0,0-2.8-87.1-2.8-90.4S61.4,198.7,61.4,198.7z
						"/>
					<path class="st7" d="M47.4,139.6c0,0-2.5,3-2,6.4c0,0,26.1,9.2,41.7,9.3c16.2,0.1,41.8-8.9,41.8-8.9s-0.2-6.1-2.4-6.8
						C126.6,139.6,94.8,158.6,47.4,139.6z"/>
					<path class="st8" d="M84.8,147.7H91c1.6,0,2.9,1.3,2.9,2.9v2.8c0,1.6-1.3,2.9-2.9,2.9h-6.2c-1.6,0-2.9-1.3-2.9-2.9v-2.8
						C81.9,149,83.2,147.7,84.8,147.7z"/>
					<path class="st7" d="M86,149.8h3.6c0.9,0,1.6,0.7,1.6,1.6v1.4c0,0.9-0.7,1.6-1.6,1.6H86c-0.9,0-1.6-0.7-1.6-1.6v-1.4
						C84.4,150.5,85.2,149.8,86,149.8z"/>
				</g>
				<path class="st9" d="M82.9,152.7c0,0-1.9-5.1,4.2-4.5l0,0C87.1,148.2,82.3,148.5,82.9,152.7z"/>
				<path class="st6" d="M73.5,146.4L73.5,146.4c0.7,0,1.2,0.5,1.2,1.2v6.5c0,0.7-0.5,1.2-1.2,1.2h0c-0.7,0-1.2-0.5-1.2-1.2v-6.5
					C72.3,146.9,72.8,146.4,73.5,146.4z"/>
				<path class="st6" d="M102,146.4L102,146.4c0.7,0,1.2,0.5,1.2,1.2v6.5c0,0.7-0.5,1.2-1.2,1.2h0c-0.7,0-1.2-0.5-1.2-1.2v-6.5
					C100.8,146.9,101.3,146.4,102,146.4z"/>
				<path class="st6" d="M125.1,139.3L125.1,139.3c0.7,0,1.2,0.5,1.2,1.2v6.5c0,0.7-0.5,1.2-1.2,1.2h0c-0.7,0-1.2-0.5-1.2-1.2v-6.5
					C123.9,139.8,124.4,139.3,125.1,139.3z"/>
				<path class="st6" d="M49,139.3L49,139.3c0.7,0,1.2,0.5,1.2,1.2v6.5c0,0.7-0.5,1.2-1.2,1.2l0,0c-0.7,0-1.2-0.5-1.2-1.2v-6.5
					C47.8,139.8,48.4,139.3,49,139.3z"/>
				<path class="st7" d="M106.3,155.3c0,0,6.7,11.8,22.7,9.3C129,164.6,113.3,170.1,106.3,155.3z"/>
				<path class="st7" d="M70.1,156.1c0,0-6.4,11.8-21.6,9.3C48.5,165.4,63.5,170.9,70.1,156.1z"/>
				<path class="st7" d="M85,158.1c0,0-3.2,24.5,2.9,24.2C87.9,182.3,83,181,85,158.1z"/>
			</g>
		</g>
	</g>
</g>
</svg>
