<?xml version="1.0" encoding="utf-8"?>
<!-- Generator: Adobe Illustrator 22.1.0, SVG Export Plug-In . SVG Version: 6.00 Build 0)  -->
<svg version="1.1" id="Layer_1" xmlns="http://www.w3.org/2000/svg" xmlns:xlink="http://www.w3.org/1999/xlink" x="0px" y="0px"
	 viewBox="0 0 183 416.4" style="enable-background:new 0 0 183 416.4;" xml:space="preserve">
<style type="text/css">
	.st0{fill:none;}
	.st1{fill:#473319;}
	.st2{fill:#684B1E;}
	.st3{fill:#4B5B45;}
	.st4{fill:#363F32;}
	.st5{fill:#22281E;}
	.st6{fill:#3B3C49;}
	.st7{fill:#776843;}
	.st8{fill:#5B4C29;}
	.st9{fill:#212121;}
	.st10{fill:#8C8357;}
	.st11{fill:#A39662;}
</style>
<title>sbb2</title>
<g id="Layer_2_1_">
	<g id="sbb2">
		<g id="sbb2-2">
			<rect y="1.4" class="st0" width="183" height="415"/>
			<g id="dressshoes">
				<g id="sbbshoes">
					<path class="st1" d="M53.1,378.3c0,0-7.5,17,9.6,18.5c0,0,15.3,0,18.3-7.2C82.4,386,77,375,77,375s3.8,11.3,3,12.5
						s-7.7,7.4-16.3,6.1S51.5,390.8,53.1,378.3"/>
					<path class="st2" d="M58,364.6c0,0-5.6,11.7-6.3,22c0,0,0.6,7.3,10.9,8s17.8-5,17.8-7.1s-5.4-22.9-5.4-22.9l-4.5,3
						c-0.5-2.2-9.4-2.7-9.6,0L58,364.6z"/>
					<path class="st1" d="M53.7,388.1c0,0,2.7-1.7,4-1.7v0.2c-1.4,0.3-2.8,0.9-4,1.7V388.1z"/>
					<path class="st1" d="M59.6,385.8c0,0,3-0.9,4.3-0.6l-0.1,0.2c-1.4,0-2.9,0.2-4.3,0.6L59.6,385.8z"/>
					<path class="st1" d="M65.1,384.8c0,0,3.1-0.7,4.3-0.4l-0.1,0.2c-1.4-0.1-2.9,0-4.3,0.4L65.1,384.8z"/>
					<path class="st1" d="M71.4,384.2c0,0,3.2-0.3,4.3,0.1l-0.1,0.2c-1.4-0.3-2.9-0.3-4.3-0.1L71.4,384.2z"/>
					<path class="st1" d="M77.1,384.6c0,0,3,1.1,3.8,2l-0.2,0.1c-1.2-0.9-2.5-1.6-3.8-2L77.1,384.6z"/>
					<path class="st1" d="M60.9,367.5l1.7,14.7C62.6,382.3,60.4,368.5,60.9,367.5z"/>
					<path class="st1" d="M70.4,382.4c0,0,0.7-13.8,0.3-14.8L70.4,382.4"/>
					<polyline class="st1" points="61,368.7 65.4,370.9 70.8,368.1 70.8,368.9 65.4,371.6 70.6,372.6 70.6,373.3 65.4,372.2 
						61.4,374.3 61.4,373.8 65.1,371.6 60.8,369.1 61,368.7 					"/>
					<polyline class="st1" points="61.3,374 65.7,376.1 71,373.4 71.1,374.2 65.7,376.9 70.8,377.9 70.8,378.6 65.7,377.5 
						61.7,379.6 61.6,379 65.3,376.9 61.1,374.4 61.3,374 					"/>
					<polyline class="st1" points="61.3,378.9 65.7,381.1 71,378.4 71.1,379.2 65.7,381.8 70.8,382.8 70.8,383.6 65.7,382.4 
						61.7,384.6 61.6,384 65.3,381.8 61.1,379.4 61.3,378.9 					"/>
				</g>
				<g id="sbbshoes-2">
					<path class="st1" d="M124.3,377.2c0,0,7.5,17-9.6,18.5c0,0-15.3,0-18.3-7.2c-1.4-3.5,3.9-14.6,3.9-14.6s-3.8,11.3-3,12.5
						s7.7,7.4,16.3,6.1S125.9,389.7,124.3,377.2"/>
					<path class="st2" d="M119.4,363.5c0,0,5.6,11.7,6.3,22c0,0-0.6,7.3-10.9,8s-17.8-5-17.8-7.1s5.4-22.9,5.4-22.9l4.5,3
						c0.5-2.2,9.4-2.7,9.6,0L119.4,363.5z"/>
					<path class="st1" d="M123.7,387c0,0-2.7-1.6-4-1.7v0.2c1.4,0.3,2.8,0.9,4,1.7V387z"/>
					<path class="st1" d="M117.8,384.8c0,0-3-0.9-4.3-0.7v0.2c1.5,0,2.9,0.2,4.3,0.7L117.8,384.8z"/>
					<path class="st1" d="M112.2,383.7c0,0-3.1-0.7-4.3-0.4l0.1,0.2c1.4-0.1,2.9,0,4.3,0.4L112.2,383.7z"/>
					<path class="st1" d="M105.9,383.1c0,0-3.2-0.3-4.3,0.1l0.1,0.2c1.4-0.3,2.9-0.3,4.3-0.1L105.9,383.1z"/>
					<path class="st1" d="M100.2,383.5c0,0-3,1.1-3.8,2l0.2,0.1c1.2-0.9,2.5-1.6,3.8-2L100.2,383.5z"/>
					<path class="st1" d="M116.4,366.5l-1.7,14.7C114.7,381.2,117,367.4,116.4,366.5z"/>
					<path class="st1" d="M107,381.3c0,0-0.7-13.8-0.3-14.8L107,381.3"/>
					<polyline class="st1" points="116.3,367.6 111.9,369.8 106.6,367 106.5,367.9 111.9,370.5 106.7,371.5 106.7,372.2 
						111.9,371.1 115.9,373.2 116,372.7 112.3,370.5 116.5,368 116.3,367.6 					"/>
					<polyline class="st1" points="116,372.9 111.7,375 106.3,372.3 106.3,373.1 111.7,375.8 106.5,376.8 106.5,377.5 111.7,376.4 
						115.7,378.5 115.7,378 112,375.8 116.3,373.3 116,372.9 					"/>
					<polyline class="st1" points="116,377.9 111.7,380 106.3,377.3 106.3,378.1 111.7,380.8 106.5,381.8 106.5,382.5 111.7,381.3 
						115.7,383.5 115.7,382.9 112,380.8 116.3,378.3 116,377.9 					"/>
				</g>
			</g>
			<g id="sbbshirt2">
				<path class="st3" d="M70.5,6.7c0,0-34.4,9.8-39.9,17.3s-6.3,27.9-6.3,27.9s-2.8,7.3-3.1,9.5c0,0-3.6,1.9-1.3,4.9
					c2.3,3,14.4,9.9,24.1,10.6c0,0,4.5-0.1,2-3.9l1.3-0.9c0,0,1.3,10.8,5.3,19.5c0,0-1.9,10.4-0.5,34.2c0,0-4.3,13-3.8,15
					c0,0,18.7,14.8,40.1,14.4L87,30.2C87,30.2,69.8,12.1,70.5,6.7z"/>
				<path class="st3" d="M105.7,7.1c0,0,35.1,9.3,40.6,16.9s6.3,27.9,6.3,27.9s2.8,7.3,3.1,9.5c0,0,3.6,1.9,1.3,4.9
					c-2.3,3-15.7,12.5-25.4,13.3c0,0-4.3-0.9-1.8-4.7l-0.6-1.3c-0.7,6.2-2.3,12.3-4.8,18c0,0,1.9,10.4,0.5,34.2c0,0,4.3,13,3.8,15
					c0,0-17.2,12.8-38.6,12.4l0.3-120.8C90.4,32.4,106.4,12.6,105.7,7.1z"/>
				<path class="st4" d="M51.8,12.6c0,0,14.5,12.9,27.4,23c0,0,1.3,0.7,1.1,1.8c0,0,0.7-3.4,6.9-6.3C87.2,31,63.3,6.7,51.8,12.6z"/>
				<path class="st3" d="M71.9,5.4C65,12.2,86.5,30.2,86.5,30.2L80,34.8c0-4-26.9-21.3-26.8-23.3S71.9,5.4,71.9,5.4"/>
				<path class="st4" d="M125,13.5c-7.1,7.6-14.7,14.6-22.9,21.1c0,0-1.3,0.7-1.1,1.8c0,0-3.3-4-10.7-4
					C90.3,32.4,113.5,7.7,125,13.5z"/>
				<path class="st3" d="M104.8,5c0,0,17,5.1,19.1,8.1c0,0-20,18.8-23,21.2c-2.8-2.7-7-3.4-10.6-1.9C90.4,32.4,110,11.7,104.8,5z"/>
				<path class="st4" d="M86.5,30.2l1.7,125c0,0,2.2-2,2.7-2L90.4,34.8L86.5,30.2z"/>
				<path class="st3" d="M89.2,33.8c0,0-1.6-1.2-1.6,1.8c0,7,0.7,118.6,0.7,118.6l0.7-1C89,153.3,88.9,35.8,89.2,33.8z"/>
				<ellipse class="st5" cx="88.3" cy="37.5" rx="1.6" ry="1.6"/>
				<path class="st6" d="M88.7,36.2c0,0-1.4-0.1-1.7,0.9c-0.2,0.8,0.3,1.5,1.1,1.7c0.1,0,0.1,0,0.2,0C88.3,38.8,85.8,37.1,88.7,36.2
					z"/>
				<circle class="st6" cx="88.3" cy="37.6" r="0.4"/>
				<ellipse class="st5" cx="88.5" cy="50.8" rx="1.6" ry="1.6"/>
				<path class="st6" d="M88.9,49.6c0,0-1.4-0.1-1.7,0.9c-0.2,0.8,0.3,1.5,1.1,1.7c0.1,0,0.1,0,0.2,0C88.5,52.2,86,50.5,88.9,49.6z"
					/>
				<circle class="st6" cx="88.5" cy="50.9" r="0.4"/>
				<ellipse class="st5" cx="88.8" cy="66.5" rx="1.6" ry="1.6"/>
				<path class="st6" d="M89.2,65.3c0,0-1.4-0.1-1.7,0.9c-0.2,0.8,0.3,1.5,1.1,1.7c0.1,0,0.1,0,0.2,0C88.8,67.9,86.3,66.2,89.2,65.3
					z"/>
				<circle class="st6" cx="88.8" cy="66.6" r="0.4"/>
				<ellipse class="st5" cx="88.9" cy="79.9" rx="1.6" ry="1.6"/>
				<path class="st6" d="M89.4,78.6c0,0-1.4-0.1-1.7,0.9c-0.2,0.8,0.3,1.5,1.1,1.7c0.1,0,0.1,0,0.2,0C88.9,81.2,86.5,79.5,89.4,78.6
					z"/>
				<circle class="st6" cx="88.9" cy="80" r="0.4"/>
				<ellipse class="st5" cx="88.9" cy="93.2" rx="1.6" ry="1.6"/>
				<path class="st6" d="M89.3,92c0,0-1.4-0.1-1.7,0.9c-0.2,0.8,0.3,1.5,1,1.7c0.1,0,0.1,0,0.2,0C88.9,94.6,86.4,92.8,89.3,92z"/>
				<circle class="st6" cx="88.9" cy="93.3" r="0.4"/>
				<ellipse class="st5" cx="89" cy="106.5" rx="1.6" ry="1.6"/>
				<path class="st6" d="M89.5,105.3c0,0-1.4-0.1-1.7,0.9c-0.2,0.8,0.3,1.5,1,1.7c0.1,0,0.1,0,0.2,0C89,107.9,86.6,106.2,89.5,105.3
					z"/>
				<circle class="st6" cx="89" cy="106.6" r="0.4"/>
				<ellipse class="st5" cx="89.2" cy="117.2" rx="1.6" ry="1.6"/>
				<path class="st6" d="M89.7,116c0,0-1.4-0.1-1.7,0.9c-0.2,0.8,0.3,1.5,1.1,1.7c0.1,0,0.1,0,0.2,0C89.2,118.6,86.8,116.8,89.7,116
					z"/>
				<circle class="st6" cx="89.2" cy="117.3" r="0.4"/>
				<ellipse class="st5" cx="89.4" cy="130.5" rx="1.6" ry="1.6"/>
				<path class="st6" d="M89.8,129.3c0,0-1.4-0.1-1.7,0.9c-0.2,0.8,0.3,1.5,1.1,1.7c0.1,0,0.1,0,0.2,0
					C89.4,131.9,86.9,130.2,89.8,129.3z"/>
				<circle class="st6" cx="89.4" cy="130.6" r="0.4"/>
				<ellipse class="st5" cx="89.4" cy="144.9" rx="1.6" ry="1.6"/>
				<path class="st6" d="M89.8,143.6c0,0-1.4-0.1-1.7,0.9c-0.2,0.8,0.3,1.5,1.1,1.7c0.1,0,0.1,0,0.2,0
					C89.4,146.2,87,144.5,89.8,143.6z"/>
				<circle class="st6" cx="89.4" cy="145" r="0.4"/>
				<path class="st4" d="M52.8,53c0,0,11.6,5.8,20.2,2.7v17.4c0,0-10.2,7.5-11.5,7.5s-8.7-7.9-8.7-7.9V53z"/>
				<path class="st3" d="M53.2,54.4c0,0,10.5,5.2,18.3,2.4v15.8c0,0-9.2,6.8-10.4,6.8s-7.9-7.1-7.9-7.1L53.2,54.4z"/>
				<path class="st4" d="M124.3,52.6c0,0-11.6,5.8-20.2,2.6v17.4c0,0,10.2,7.5,11.5,7.5s8.7-7.9,8.7-7.9V52.6z"/>
				<path class="st3" d="M123.9,53.9c0,0-10.5,5.2-18.3,2.4V72c0,0,9.2,6.8,10.4,6.8s7.9-7.1,7.9-7.1V53.9z"/>
				<path class="st4" d="M52.6,91.6c0,0,9,16.4,20.4,22.4c0,0-15.7-7.5-20.7-20.3L52.6,91.6"/>
				<path class="st4" d="M21.2,61.4c0,0,12.4,8.1,18.6,9.2c0,0-17.8-7.2-18-11.7L21.2,61.4z"/>
				<path class="st4" d="M47.3,72.1c0,0-7.1-5.2-7.5-9.2L47.3,72.1"/>
				<path class="st4" d="M155.5,60.3c0,0-12.1,10.6-18.7,11.8c0,0,11.9-2.8,18.9-10.7l0,0L155.5,60.3"/>
				<path class="st4" d="M127.6,71.3c0,0,6.9-4.8,6.9-7.6C134.5,63.7,134.4,69.7,127.6,71.3z"/>
				<path class="st4" d="M53.2,57.4c0,0,7.4,4.1,15,3.3c0,0-8.6,1.5-15-2.3L53.2,57.4z"/>
				<path class="st4" d="M123.9,57c0,0-3.8,4-13.1,3.7c0,0,7.4,2.2,13.1-2.7V57z"/>
				<path class="st4" d="M92.7,129.3c0,0-1.7,22.3,4.7,19.3C97.4,148.6,93.2,153.5,92.7,129.3z"/>
				<path class="st4" d="M33.2,21.7c0,0,14.9,7.8,15.2,19c0,0,2.5-9.5-14.3-19.5L33.2,21.7z"/>
				<path class="st4" d="M141.4,20.1c0,0-7.4,0.1-10.3,19.7c0,0,4.4-18.7,11.4-18.8L141.4,20.1z"/>
			</g>
			<g id="sbbpants2">
				<g id="sbbpants">
					<path class="st7" d="M50.4,139c0,0,32.1,23.4,77,0.8c0,0,10,25,6.8,66.2s-6.9,51.6-6.9,54.6s3.5,42.9,3.5,45.9
						s-5.7,53.9-5.7,53.9s-6.3,5.2-11.8,5.7s-14.4-4.7-14.4-4.7s-7.3-59.8-6.3-69.2s3-28,2.6-35.5c-0.4-7.4-3.6-68.8-3.6-68.8
						l-3.8-0.5c0,0-2.2,59.1-4.7,68.5c-2.5,9.4-0.7,31.5,1,38.7s-4.4,66.5-4.4,66.5s-10.4,5-13.6,5S54,358.4,54,358.4s-6-64-5-66.8
						s3-30.3,3-34.8c0-4.5-8.4-26.3-8.9-55.1S45.7,143.7,50.4,139z"/>
					<path class="st8" d="M114.1,202c0,0,3.3,69.5,2.3,73.1s-3.4,90.4-3.4,90.4l-2-0.3c0,0,2.8-87.1,2.8-90.4S114.1,202,114.1,202z"
						/>
					<path class="st8" d="M62.8,200.5c0,0-3.3,69.5-2.3,73.1s3.4,90.4,3.4,90.4l2-0.3c0,0-2.8-87.1-2.8-90.4S62.8,200.5,62.8,200.5z
						"/>
					<path class="st9" d="M48.9,141.5c0,0-2.5,2.9-2,6.3c0,0,26.1,9.3,41.7,9.3c16.2,0.1,41.8-8.9,41.8-8.9s-0.2-6.1-2.4-6.8
						C128,141.5,96.2,160.4,48.9,141.5z"/>
					<path class="st10" d="M86.3,149.5h6.2c1.6,0,2.9,1.3,2.9,2.9v2.8c0,1.6-1.3,2.9-2.9,2.9h-6.2c-1.6,0-2.9-1.3-2.9-2.9v-2.8
						C83.4,150.8,84.7,149.5,86.3,149.5z"/>
					<path class="st9" d="M87.5,151.6h3.6c0.9,0,1.6,0.7,1.6,1.6v1.4c0,0.9-0.7,1.6-1.6,1.6h-3.6c-0.9,0-1.6-0.7-1.6-1.6v-1.4
						C85.9,152.3,86.6,151.6,87.5,151.6z"/>
				</g>
				<path class="st11" d="M84.3,154.5c0,0-1.9-5.1,4.2-4.5l0,0C88.5,150,83.8,150.3,84.3,154.5z"/>
				<path class="st7" d="M74.9,148.2L74.9,148.2c0.7,0,1.2,0.5,1.2,1.2v6.5c0,0.7-0.5,1.2-1.2,1.2h0c-0.7,0-1.2-0.5-1.2-1.2v-6.5
					C73.7,148.7,74.3,148.2,74.9,148.2z"/>
				<path class="st7" d="M103.5,148.2L103.5,148.2c0.7,0,1.2,0.5,1.2,1.2v6.5c0,0.7-0.5,1.2-1.2,1.2h0c-0.7,0-1.2-0.5-1.2-1.2v-6.5
					C102.2,148.7,102.8,148.2,103.5,148.2z"/>
				<path class="st7" d="M126.6,141.1L126.6,141.1c0.7,0,1.2,0.5,1.2,1.2v6.5c0,0.7-0.5,1.2-1.2,1.2h0c-0.7,0-1.2-0.5-1.2-1.2v-6.5
					C125.3,141.7,125.9,141.1,126.6,141.1z"/>
				<path class="st7" d="M50.5,141.1L50.5,141.1c0.7,0,1.2,0.5,1.2,1.2v6.5c0,0.7-0.5,1.2-1.2,1.2l0,0c-0.7,0-1.2-0.5-1.2-1.2v-6.5
					C49.3,141.7,49.8,141.1,50.5,141.1z"/>
				<path class="st8" d="M107.8,157.2c0,0,6.7,11.8,22.6,9.3C130.4,166.4,114.7,171.9,107.8,157.2z"/>
				<path class="st8" d="M71.6,158c0,0-6.4,11.7-21.6,9.2C50,167.2,65,172.7,71.6,158z"/>
				<path class="st8" d="M86.4,159.9c0,0-3.2,24.5,2.9,24.2C89.3,184.1,84.4,182.9,86.4,159.9z"/>
			</g>
		</g>
	</g>
</g>
</svg>
