<svg xmlns="http://www.w3.org/2000/svg" viewBox="0 0 183 416.41"><defs><style>.cls-1{fill:none;}.cls-2{fill:#473319;}.cls-3{fill:#684b1e;}.cls-4{fill:#4b5b45;}.cls-5{fill:#363f32;}.cls-6{fill:#22281e;}.cls-7{fill:#3b3c49;}.cls-8{fill:#776843;}.cls-9{fill:#5b4c29;}.cls-10{fill:#212121;}.cls-11{fill:#8c8357;}.cls-12{fill:#a39662;}</style></defs><title>sbb2</title><g id="Layer_2" data-name="Layer 2"><g id="sbb2"><g id="sbb2-2" data-name="sbb2"><rect class="cls-1" y="1.41" width="183" height="415"/><g id="dressshoes"><g id="sbbshoes"><path class="cls-2" d="M54.09,377.29s-7.48,17,9.56,18.53c0,0,15.31,0,18.27-7.2C83.4,385,78,374,78,374s3.8,11.31,3,12.51-7.65,7.35-16.29,6.1-12.21-2.81-10.55-15.3"/><path class="cls-3" d="M59,363.56s-5.62,11.69-6.28,22c0,0,.57,7.3,10.94,8s17.77-5,17.78-7.1-5.37-22.93-5.37-22.93l-4.51,3c-.49-2.24-9.38-2.73-9.63,0Z"/><path class="cls-2" d="M54.67,387.14s2.72-1.66,4-1.74v.22a12.51,12.51,0,0,0-4,1.73Z"/><path class="cls-2" d="M60.57,384.84s3-.89,4.26-.65l-.06.21a12.23,12.23,0,0,0-4.26.65Z"/><path class="cls-2" d="M66.12,383.8s3.1-.7,4.3-.38l-.07.21a12.41,12.41,0,0,0-4.3.38Z"/><path class="cls-2" d="M72.44,383.24s3.16-.33,4.31.13l-.09.2a12.53,12.53,0,0,0-4.32-.14Z"/><path class="cls-2" d="M78.14,383.6s3,1.06,3.85,2l-.17.14a12.43,12.43,0,0,0-3.84-2Z"/><path class="cls-2" d="M61.92,366.54l1.73,14.72S61.36,367.49,61.92,366.54Z"/><path class="cls-2" d="M71.38,381.39s.74-13.8.31-14.82l-.31,14.82"/><polyline class="cls-2" points="62.05 367.69 66.43 369.85 71.78 367.12 71.81 367.94 66.43 370.59 71.6 371.58 71.6 372.33 66.43 371.17 62.44 373.32 62.37 372.76 66.06 370.59 61.83 368.11 62.05 367.69"/><polyline class="cls-2" points="62.3 372.98 66.67 375.14 72.02 372.41 72.06 373.23 66.67 375.88 71.85 376.87 71.85 377.62 66.67 376.46 62.69 378.61 62.61 378.05 66.3 375.88 62.07 373.4 62.3 372.98"/><polyline class="cls-2" points="62.3 377.94 66.67 380.1 72.02 377.37 72.06 378.19 66.67 380.84 71.85 381.83 71.85 382.58 66.67 381.42 62.69 383.57 62.61 383.01 66.3 380.84 62.07 378.36 62.3 377.94"/></g><g id="sbbshoes-2" data-name="sbbshoes"><path class="cls-2" d="M125.26,376.21s7.48,17-9.56,18.53c0,0-15.31,0-18.27-7.2C96,384,101.38,372.9,101.38,372.9s-3.8,11.31-3,12.51,7.65,7.35,16.29,6.1,12.2-2.81,10.55-15.3"/><path class="cls-3" d="M120.36,362.47s5.61,11.7,6.28,22c0,0-.57,7.31-10.94,8.05s-17.78-5-17.78-7.09,5.37-22.94,5.37-22.94l4.51,3c.49-2.23,9.38-2.73,9.63,0Z"/><path class="cls-2" d="M124.68,386.05s-2.72-1.65-4-1.74v.22a12.38,12.38,0,0,1,4,1.74Z"/><path class="cls-2" d="M118.78,383.76s-3-.9-4.26-.66l0,.21a12.38,12.38,0,0,1,4.27.66Z"/><path class="cls-2" d="M113.23,382.72s-3.1-.7-4.3-.38l.07.2a12.19,12.19,0,0,1,4.29.39Z"/><path class="cls-2" d="M106.91,382.15s-3.16-.32-4.31.14l.09.19a12.3,12.3,0,0,1,4.31-.13Z"/><path class="cls-2" d="M101.2,382.52s-3,1.06-3.84,2l.16.14a12.3,12.3,0,0,1,3.85-2Z"/><path class="cls-2" d="M117.43,365.45l-1.73,14.73S118,366.4,117.43,365.45Z"/><path class="cls-2" d="M108,380.31s-.74-13.8-.31-14.82l.31,14.82"/><polyline class="cls-2" points="117.3 366.6 112.92 368.76 107.57 366.03 107.53 366.86 112.92 369.51 107.75 370.5 107.75 371.24 112.92 370.08 116.91 372.23 116.98 371.68 113.29 369.51 117.52 367.02 117.3 366.6"/><polyline class="cls-2" points="117.05 371.89 112.67 374.05 107.33 371.32 107.29 372.15 112.67 374.8 107.5 375.79 107.5 376.53 112.67 375.38 116.66 377.52 116.74 376.97 113.05 374.8 117.27 372.31 117.05 371.89"/><polyline class="cls-2" points="117.05 376.86 112.67 379.01 107.33 376.28 107.29 377.11 112.67 379.76 107.5 380.75 107.5 381.49 112.67 380.33 116.66 382.48 116.74 381.93 113.05 379.76 117.27 377.27 117.05 376.86"/></g></g><g id="sbbshirt2"><path class="cls-4" d="M71.55,1.67S37.18,11.42,31.69,19s-6.32,27.93-6.32,27.93-2.8,7.31-3.13,9.45c0,0-3.62,1.94-1.32,4.93S35.31,71.18,45,71.89c0,0,4.45-.13,2-3.93l1.35-.88s1.27,10.78,5.29,19.47c0,0-1.86,10.42-.5,34.19,0,0-4.26,13-3.76,15,0,0,18.74,14.77,40.14,14.44L88,25.18S70.81,7.13,71.55,1.67Z"/><path class="cls-4" d="M106.71,2.11s35.11,9.31,40.6,16.9,6.32,27.93,6.32,27.93,2.8,7.31,3.13,9.45c0,0,3.62,1.94,1.32,4.93s-15.71,12.55-25.39,13.26c0,0-4.33-.89-1.84-4.7l-.65-1.31a60.34,60.34,0,0,1-4.79,18s1.86,10.42.5,34.19c0,0,4.26,13,3.76,15,0,0-17.23,12.78-38.63,12.45l.31-120.78S107.45,7.57,106.71,2.11Z"/><path class="cls-5" d="M52.79,7.55s14.48,12.89,27.41,23c0,0,1.27.69,1.11,1.76,0,0,.72-3.38,6.89-6.28C88.2,26,64.32,1.74,52.79,7.55Z"/><path class="cls-4" d="M72.91.42C66,7.22,87.47,25.18,87.47,25.18L81,29.82c0-4-26.88-21.26-26.75-23.26S72.91.42,72.91.42"/><path class="cls-5" d="M126,8.54a208.24,208.24,0,0,1-22.89,21.09s-1.27.69-1.11,1.76c0,0-3.29-4-10.66-4C91.35,27.42,114.48,2.73,126,8.54Z"/><path class="cls-4" d="M105.81,0s17,5.15,19.13,8.09c0,0-20,18.75-23,21.23a9.78,9.78,0,0,0-10.58-1.9S111,6.65,105.81,0Z"/><path class="cls-5" d="M87.47,25.18l1.7,125s2.16-2,2.72-2L91.43,29.82Z"/><path class="cls-4" d="M90.24,28.83s-1.64-1.16-1.64,1.82c0,7,.74,118.61.74,118.61l.69-1S89.91,30.78,90.24,28.83Z"/><ellipse class="cls-6" cx="89.31" cy="32.47" rx="1.59" ry="1.6"/><path class="cls-7" d="M89.74,31.24s-1.45-.14-1.67.86a1.41,1.41,0,0,0,1.24,1.71S86.84,32.1,89.74,31.24Z"/><circle class="cls-7" cx="89.31" cy="32.57" r="0.37"/><ellipse class="cls-6" cx="89.47" cy="45.81" rx="1.59" ry="1.6"/><path class="cls-7" d="M89.9,44.58s-1.44-.14-1.66.87a1.4,1.4,0,0,0,1.23,1.7S87,45.45,89.9,44.58Z"/><circle class="cls-7" cx="89.47" cy="45.91" r="0.37"/><ellipse class="cls-6" cx="89.76" cy="61.52" rx="1.59" ry="1.6"/><path class="cls-7" d="M90.19,60.29s-1.45-.14-1.67.86a1.41,1.41,0,0,0,1.24,1.71S87.29,61.15,90.19,60.29Z"/><circle class="cls-7" cx="89.76" cy="61.62" r="0.37"/><ellipse class="cls-6" cx="89.93" cy="74.86" rx="1.59" ry="1.6"/><path class="cls-7" d="M90.36,73.63s-1.45-.14-1.67.86a1.41,1.41,0,0,0,1.24,1.71S87.46,74.49,90.36,73.63Z"/><circle class="cls-7" cx="89.93" cy="74.96" r="0.37"/><ellipse class="cls-6" cx="89.89" cy="88.2" rx="1.59" ry="1.6"/><path class="cls-7" d="M90.32,87s-1.45-.14-1.67.86a1.4,1.4,0,0,0,1.24,1.71S87.41,87.83,90.32,87Z"/><circle class="cls-7" cx="89.89" cy="88.3" r="0.37"/><ellipse class="cls-6" cx="90.05" cy="101.54" rx="1.59" ry="1.6"/><path class="cls-7" d="M90.48,100.31s-1.44-.14-1.66.86a1.4,1.4,0,0,0,1.23,1.71S87.58,101.17,90.48,100.31Z"/><circle class="cls-7" cx="90.05" cy="101.64" r="0.37"/><ellipse class="cls-6" cx="90.23" cy="112.18" rx="1.59" ry="1.6"/><path class="cls-7" d="M90.66,111s-1.44-.13-1.67.87a1.4,1.4,0,0,0,1.24,1.7S87.76,111.82,90.66,111Z"/><circle class="cls-7" cx="90.23" cy="112.28" r="0.37"/><ellipse class="cls-6" cx="90.4" cy="125.52" rx="1.59" ry="1.6"/><path class="cls-7" d="M90.83,124.29s-1.45-.13-1.67.87a1.4,1.4,0,0,0,1.24,1.7S87.93,125.16,90.83,124.29Z"/><circle class="cls-7" cx="90.4" cy="125.62" r="0.37"/><ellipse class="cls-6" cx="90.42" cy="139.87" rx="1.59" ry="1.6"/><path class="cls-7" d="M90.85,138.64s-1.44-.14-1.66.87a1.4,1.4,0,0,0,1.23,1.7S88,139.51,90.85,138.64Z"/><circle class="cls-7" cx="90.42" cy="139.97" r="0.37"/><path class="cls-5" d="M53.77,48S65.38,53.8,74,50.67V68.08S63.8,75.57,62.49,75.57s-8.72-7.87-8.72-7.87Z"/><path class="cls-4" d="M54.24,49.35s10.5,5.22,18.32,2.38V67.48s-9.24,6.77-10.43,6.77-7.89-7.11-7.89-7.11Z"/><path class="cls-5" d="M125.34,47.58s-11.61,5.78-20.25,2.64V67.63s10.22,7.5,11.53,7.5,8.72-7.87,8.72-7.87Z"/><path class="cls-4" d="M124.86,48.9s-10.49,5.23-18.31,2.39V67s9.24,6.78,10.43,6.78,7.88-7.11,7.88-7.11Z"/><path class="cls-5" d="M53.59,86.55S62.6,103,74,109c0,0-15.71-7.54-20.74-20.32l.31-2.12"/><path class="cls-5" d="M22.24,56.39s12.35,8.09,18.61,9.25c0,0-17.8-7.18-18-11.7Z"/><path class="cls-5" d="M48.3,67.08s-7.12-5.24-7.45-9.22l7.45,9.22"/><path class="cls-5" d="M156.5,55.27s-12.09,10.6-18.67,11.81c0,0,11.93-2.76,18.93-10.69h0l-.26-1.12"/><path class="cls-5" d="M128.61,66.3s6.91-4.8,6.91-7.61C135.52,58.69,135.36,64.65,128.61,66.3Z"/><path class="cls-5" d="M54.24,52.42s7.37,4.1,15,3.29c0,0-8.58,1.55-15-2.35Z"/><path class="cls-5" d="M124.86,52s-3.85,4-13.11,3.72c0,0,7.4,2.24,13.11-2.66Z"/><path class="cls-5" d="M93.7,124.28S92,146.55,98.38,143.57C98.38,143.57,94.19,148.51,93.7,124.28Z"/><path class="cls-5" d="M34.18,16.65s14.9,7.79,15.15,19c0,0,2.48-9.49-14.32-19.53Z"/><path class="cls-5" d="M142.4,15.12s-7.37.06-10.34,19.75c0,0,4.42-18.71,11.43-18.79Z"/></g><g id="sbbpants2"><g id="sbbpants"><path class="cls-8" d="M50.44,137s32.14,23.41,77,.78c0,0,10,25,6.82,66.22s-6.92,51.62-6.92,54.6,3.46,42.93,3.46,45.91-5.68,53.85-5.68,53.85-6.34,5.22-11.81,5.71-14.37-4.71-14.37-4.71-7.34-59.81-6.26-69.24,3-28.05,2.56-35.49-3.63-68.75-3.63-68.75l-3.78-.5s-2.23,59.07-4.7,68.5-.74,31.52,1,38.72-4.44,66.51-4.44,66.51-10.38,5-13.59,5S54,356.36,54,356.36,48,292.33,49,289.6s3-30.28,3-34.75-8.4-26.3-8.9-55.09S45.67,141.7,50.44,137Z"/><path class="cls-9" d="M114.07,200s3.3,69.49,2.31,73.13S113,363.56,113,363.56l-2-.34s2.82-87.1,2.78-90.41S114.07,200,114.07,200Z"/><path class="cls-9" d="M62.82,198.52S59.53,268,60.51,271.65s3.38,90.42,3.38,90.42l2-.34s-2.82-87.1-2.78-90.41S62.82,198.52,62.82,198.52Z"/><path class="cls-10" d="M48.89,139.48s-2.46,2.94-2,6.34c0,0,26.07,9.26,41.7,9.34,16.24.09,41.8-8.85,41.8-8.85s-.25-6.15-2.37-6.83C128,139.48,96.2,158.44,48.89,139.48Z"/><rect class="cls-11" x="83.36" y="147.52" width="12.04" height="8.64" rx="2.9" ry="2.9"/><rect class="cls-10" x="85.91" y="149.61" width="6.81" height="4.61" rx="1.59" ry="1.59"/></g><path class="cls-12" d="M84.35,152.48s-1.91-5.15,4.2-4.47h0S83.79,148.32,84.35,152.48Z"/><rect class="cls-8" x="73.72" y="146.19" width="2.43" height="8.97" rx="1.22" ry="1.22"/><rect class="cls-8" x="102.25" y="146.19" width="2.43" height="8.97" rx="1.22" ry="1.22"/><rect class="cls-8" x="125.34" y="139.11" width="2.43" height="8.97" rx="1.22" ry="1.22"/><rect class="cls-8" x="49.27" y="139.11" width="2.43" height="8.97" rx="1.22" ry="1.22"/><path class="cls-9" d="M107.81,155.16s6.67,11.76,22.6,9.27C130.41,164.43,114.73,169.88,107.81,155.16Z"/><path class="cls-9" d="M71.57,156S65.2,167.72,50,165.24C50,165.24,65,170.69,71.57,156Z"/><path class="cls-9" d="M86.41,157.92s-3.24,24.47,2.91,24.22C89.32,182.14,84.4,180.86,86.41,157.92Z"/></g></g></g></g></svg>