<svg xmlns="http://www.w3.org/2000/svg" viewBox="0 0 280.77 797.44"><defs><style>.cls-1{fill:#473319;}.cls-2{fill:#684b1e;}.cls-3{fill:#4b5b45;}.cls-4{fill:#363f32;}.cls-5{fill:#22281e;}.cls-6{fill:#3b3c49;}.cls-7{fill:#776843;}.cls-8{fill:#5b4c29;}.cls-9{fill:#212121;}.cls-10{fill:#8c8357;}.cls-11{fill:#a39662;}</style></defs><title>sbb2</title><g id="Layer_2" data-name="Layer 2"><g id="sbb2"><g id="sbb2-2" data-name="sbb2"><g id="dressshoes"><g id="sbbshoes"><path class="cls-1" d="M68.7,760.11s-15.15,34.33,19.35,37.33c0,0,31,0,37-14.5,3-7.23-8-29.5-8-29.5s7.68,22.79,6,25.21-15.5,14.8-33,12.29-24.7-5.67-21.35-30.83"/><path class="cls-2" d="M78.61,732.44S67.25,756,65.9,776.72c0,0,1.15,14.72,22.15,16.22s36-10,36-14.29-10.86-46.21-10.86-46.21l-9.13,6c-1-4.5-19-5.5-19.5,0Z"/><path class="cls-1" d="M69.88,779.94s5.5-3.33,8-3.5v.44s-5.17,1.25-8,3.5Z"/><path class="cls-1" d="M81.81,775.32s6.17-1.8,8.63-1.32l-.11.43s-5.31-.13-8.63,1.31Z"/><path class="cls-1" d="M93.06,773.23s6.27-1.41,8.7-.77l-.14.41s-5.3-.46-8.7.78Z"/><path class="cls-1" d="M105.84,772.09s6.4-.65,8.73.27l-.19.39s-5.2-1.08-8.73-.26Z"/><path class="cls-1" d="M117.4,772.83s6.07,2.13,7.78,3.95l-.33.28s-4.25-3.19-7.79-3.95Z"/><path class="cls-1" d="M84.55,738.44l3.5,29.67S83.41,740.36,84.55,738.44Z"/><path class="cls-1" d="M103.7,768.38s1.49-27.81.63-29.87l-.63,29.87"/><polyline class="cls-1" points="84.82 740.76 93.68 745.11 104.51 739.61 104.58 741.28 93.68 746.61 104.15 748.61 104.15 750.11 93.68 747.78 85.61 752.1 85.46 750.98 92.92 746.61 84.37 741.61 84.82 740.76"/><polyline class="cls-1" points="85.31 751.42 94.18 755.77 105 750.27 105.08 751.93 94.18 757.27 104.65 759.27 104.65 760.77 94.18 758.44 86.1 762.76 85.95 761.64 93.42 757.27 84.86 752.27 85.31 751.42"/><polyline class="cls-1" points="85.31 761.41 94.18 765.76 105 760.26 105.08 761.93 94.18 767.26 104.65 769.26 104.65 770.76 94.18 768.43 86.1 772.75 85.95 771.63 93.42 767.26 84.86 762.26 85.31 761.41"/></g><g id="sbbshoes-2" data-name="sbbshoes"><path class="cls-1" d="M212.78,757.93s15.15,34.33-19.35,37.33c0,0-31,0-37-14.5-3-7.23,8-29.5,8-29.5s-7.69,22.78-6,25.21,15.5,14.8,33,12.29,24.7-5.67,21.35-30.83"/><path class="cls-2" d="M202.87,730.26s11.36,23.56,12.71,44.28c0,0-1.15,14.72-22.15,16.22s-36-10-36-14.29,10.86-46.21,10.86-46.21l9.13,6c1-4.5,19-5.5,19.5,0Z"/><path class="cls-1" d="M211.6,777.76s-5.5-3.33-8-3.5v.44s5.16,1.25,8,3.5Z"/><path class="cls-1" d="M199.67,773.14s-6.18-1.8-8.64-1.32l.12.42s5.31-.12,8.63,1.32Z"/><path class="cls-1" d="M188.42,771.05s-6.28-1.41-8.7-.77l.14.41s5.29-.46,8.7.77Z"/><path class="cls-1" d="M175.64,769.91s-6.4-.66-8.73.26l.19.4s5.2-1.09,8.72-.27Z"/><path class="cls-1" d="M164.08,770.65s-6.07,2.12-7.79,4l.34.27s4.25-3.19,7.79-3.94Z"/><path class="cls-1" d="M196.93,736.26l-3.5,29.67S198.07,738.18,196.93,736.26Z"/><path class="cls-1" d="M177.77,766.19s-1.49-27.81-.63-29.86l.63,29.86"/><polyline class="cls-1" points="196.66 738.58 187.79 742.93 176.97 737.43 176.9 739.09 187.79 744.43 177.32 746.43 177.32 747.93 187.79 745.59 195.87 749.92 196.02 748.8 188.56 744.43 197.11 739.43 196.66 738.58"/><polyline class="cls-1" points="196.16 749.24 187.3 753.59 176.47 748.09 176.4 749.75 187.3 755.09 176.83 757.09 176.83 758.59 187.3 756.25 195.37 760.58 195.53 759.46 188.06 755.09 196.61 750.09 196.16 749.24"/><polyline class="cls-1" points="196.16 759.23 187.3 763.58 176.47 758.08 176.4 759.74 187.3 765.08 176.83 767.08 176.83 768.58 187.3 766.25 195.37 770.57 195.53 769.45 188.06 765.08 196.61 760.08 196.16 759.23"/></g></g><g id="sbbshirt2"><path class="cls-3" d="M104.05,3.37S34.46,23,23.34,38.29,10.55,94.58,10.55,94.58s-5.66,14.71-6.33,19c0,0-7.33,3.92-2.67,10s29.13,19.86,48.73,21.29c0,0,9-.26,4-7.93L57,135.14s2.57,21.73,10.7,39.23c0,0-3.75,21-1,68.87,0,0-8.63,26.3-7.63,30.25,0,0,38,29.75,81.28,29.09L137.27,50.73S102.55,14.37,104.05,3.37Z"/><path class="cls-3" d="M175.22,4.24S246.31,23,257.43,38.29s12.79,56.29,12.79,56.29,5.66,14.71,6.33,19c0,0,7.33,3.92,2.67,10s-31.8,25.27-51.41,26.7c0,0-8.75-1.79-3.72-9.46l-1.3-2.65s-1.57,18.73-9.7,36.23c0,0,3.75,21,1,68.87,0,0,8.63,26.3,7.63,30.25,0,0-34.89,25.75-78.22,25.09l.64-243.34S176.72,15.24,175.22,4.24Z"/><path class="cls-4" d="M66.06,15.21s29.32,26,55.5,46.37c0,0,2.58,1.37,2.24,3.54,0,0,1.46-6.82,14-12.66C137.75,52.46,89.41,3.51,66.06,15.21Z"/><path class="cls-3" d="M106.79.86c-14,13.69,29.48,49.87,29.48,49.87l-13.05,9.35c0-8.09-54.42-42.84-54.15-46.87S106.79.86,106.79.86"/><path class="cls-4" d="M214.3,17.21A419.76,419.76,0,0,1,168,59.7s-2.58,1.38-2.25,3.54c0,0-6.67-8-21.58-8C144.14,55.24,191,5.51,214.3,17.21Z"/><path class="cls-3" d="M173.41,0s34.31,10.37,38.73,16.31c0,0-40.42,37.77-46.59,42.77,0,0-9.11-9.21-21.41-3.84C144.14,55.24,183.8,13.4,173.41,0Z"/><path class="cls-4" d="M136.27,50.73l3.45,251.85s4.36-4,5.5-4l-.94-238.51Z"/><path class="cls-3" d="M141.88,58.09s-3.32-2.35-3.32,3.65c0,14,1.5,239,1.5,239l1.39-2.12S141.21,62,141.88,58.09Z"/><circle class="cls-5" cx="140" cy="65.41" r="3.22"/><path class="cls-6" d="M140.87,62.93s-2.93-.27-3.38,1.75A2.84,2.84,0,0,0,140,68.12S135,64.68,140.87,62.93Z"/><circle class="cls-6" cx="140" cy="65.62" r="0.75"/><circle class="cls-5" cx="140.33" cy="92.28" r="3.22"/><path class="cls-6" d="M141.2,89.81s-2.92-.27-3.37,1.75a2.83,2.83,0,0,0,2.5,3.43S135.33,91.56,141.2,89.81Z"/><circle class="cls-6" cx="140.33" cy="92.49" r="0.75"/><circle class="cls-5" cx="140.91" cy="123.93" r="3.22"/><path class="cls-6" d="M141.79,121.46s-2.93-.28-3.38,1.75a2.83,2.83,0,0,0,2.5,3.43S135.91,123.21,141.79,121.46Z"/><circle class="cls-6" cx="140.91" cy="124.14" r="0.75"/><circle class="cls-5" cx="141.25" cy="150.81" r="3.22"/><path class="cls-6" d="M142.12,148.33s-2.92-.27-3.37,1.75a2.83,2.83,0,0,0,2.5,3.44S136.25,150.08,142.12,148.33Z"/><circle class="cls-6" cx="141.25" cy="151.02" r="0.75"/><circle class="cls-5" cx="141.17" cy="177.69" r="3.22"/><path class="cls-6" d="M142,175.21s-2.93-.27-3.38,1.75a2.83,2.83,0,0,0,2.51,3.43S136.16,177,142,175.21Z"/><circle class="cls-6" cx="141.17" cy="177.89" r="0.75"/><circle class="cls-5" cx="141.5" cy="204.56" r="3.22"/><path class="cls-6" d="M142.37,202.08s-2.92-.27-3.37,1.75a2.84,2.84,0,0,0,2.5,3.44S136.5,203.83,142.37,202.08Z"/><circle class="cls-6" cx="141.5" cy="204.77" r="0.75"/><circle class="cls-5" cx="141.87" cy="226" r="3.22"/><path class="cls-6" d="M142.74,223.53s-2.93-.27-3.38,1.75a2.84,2.84,0,0,0,2.51,3.43S136.86,225.28,142.74,223.53Z"/><circle class="cls-6" cx="141.87" cy="226.21" r="0.75"/><circle class="cls-5" cx="142.21" cy="252.88" r="3.22"/><path class="cls-6" d="M143.08,250.4s-2.93-.27-3.38,1.75a2.84,2.84,0,0,0,2.51,3.44S137.2,252.15,143.08,250.4Z"/><circle class="cls-6" cx="142.21" cy="253.09" r="0.75"/><circle class="cls-5" cx="142.25" cy="281.78" r="3.22"/><path class="cls-6" d="M143.12,279.31s-2.92-.27-3.37,1.75a2.83,2.83,0,0,0,2.5,3.43S137.25,281.06,143.12,279.31Z"/><circle class="cls-6" cx="142.25" cy="281.99" r="0.75"/><path class="cls-4" d="M68.05,96.75s23.5,11.65,41,5.32v35.08s-20.69,15.1-23.35,15.1S68.05,136.4,68.05,136.4Z"/><path class="cls-3" d="M69,99.41s21.25,10.53,37.07,4.82v31.71S87.38,149.59,85,149.59s-16-14.33-16-14.33Z"/><path class="cls-4" d="M212.94,95.86s-23.5,11.64-41,5.32v35.08s20.69,15.1,23.35,15.1,17.65-15.85,17.65-15.85Z"/><path class="cls-3" d="M212,98.52s-21.25,10.53-37.07,4.81v31.72S193.61,148.7,196,148.7s16-14.33,16-14.33Z"/><path class="cls-4" d="M67.68,174.37s18.24,33.2,41.37,45.21c0,0-31.81-15.2-42-40.94l.61-4.27"/><path class="cls-4" d="M4.22,113.6s25,16.31,37.67,18.64c0,0-36-14.46-36.36-23.56Z"/><path class="cls-4" d="M57,135.14s-14.43-10.56-15.09-18.56L57,135.14"/><path class="cls-4" d="M276,111.35s-24.48,21.35-37.81,23.79c0,0,24.17-5.56,38.33-21.54h0l-.52-2.25"/><path class="cls-4" d="M219.55,133.58s14-9.67,14-15.34C233.55,118.24,233.22,130.24,219.55,133.58Z"/><path class="cls-4" d="M69,105.62s14.92,8.25,30.29,6.62c0,0-17.37,3.13-30.29-4.75Z"/><path class="cls-4" d="M212,104.74s-7.8,8-26.55,7.5c0,0,15,4.5,26.55-5.37Z"/><path class="cls-4" d="M148.89,250.39s-3.38,44.85,9.48,38.85C158.37,289.24,149.89,299.2,148.89,250.39Z"/><path class="cls-4" d="M28.4,33.53S58.55,49.24,59.05,71.74c0,0,5-19.11-29-39.34Z"/><path class="cls-4" d="M247.48,30.47s-14.93.11-20.93,39.77c0,0,8.95-37.67,23.14-37.84Z"/></g><g id="sbbpants2"><g id="sbbpants"><path class="cls-7" d="M61.31,276s65.06,47.17,155.85,1.58c0,0,20.3,50.4,13.8,133.4s-14,104-14,110,7,86.5,7,92.5-11.5,108.5-11.5,108.5-12.83,10.5-23.92,11.5-29.08-9.5-29.08-9.5-14.87-120.5-12.69-139.5,6.19-56.5,5.19-71.5-7.34-138.5-7.34-138.5l-7.66-1s-4.5,119-9.5,138-1.5,63.5,2,78-9,134-9,134-21,10-27.5,10-24.5-15.5-24.5-15.5-12-129-10-134.5,6-61,6-70-17-53-18-111S51.65,285.48,61.31,276Z"/><path class="cls-8" d="M190.14,402.94s6.66,140,4.66,147.34S188,732.44,188,732.44l-4.06-.68s5.71-175.48,5.64-182.15S190.14,402.94,190.14,402.94Z"/><path class="cls-8" d="M86.37,399.94s-6.67,140-4.67,147.34,6.84,182.16,6.84,182.16l4-.67S86.89,553.28,87,546.61,86.37,399.94,86.37,399.94Z"/><path class="cls-9" d="M58.18,281s-5,5.94-4,12.77c0,0,52.78,18.66,84.42,18.83,32.88.18,84.63-17.83,84.63-17.83s-.51-12.39-4.8-13.77C218.41,281,154,319.19,58.18,281Z"/><rect class="cls-10" x="127.96" y="297.19" width="24.37" height="17.41" rx="2.9" ry="2.9"/><rect class="cls-9" x="133.12" y="301.41" width="13.78" height="9.28" rx="1.59" ry="1.59"/></g><path class="cls-11" d="M130,307.19s-3.88-10.37,8.5-9h0S128.83,298.82,130,307.19Z"/><rect class="cls-7" x="108.44" y="294.52" width="4.93" height="18.08" rx="1.47" ry="1.47"/><rect class="cls-7" x="166.19" y="294.52" width="4.93" height="18.08" rx="1.47" ry="1.47"/><rect class="cls-7" x="212.94" y="280.27" width="4.93" height="18.08" rx="1.47" ry="1.47"/><rect class="cls-7" x="58.94" y="280.27" width="4.93" height="18.08" rx="1.47" ry="1.47"/><path class="cls-8" d="M177.46,312.6s13.5,23.68,45.75,18.68C223.21,331.28,191.46,342.26,177.46,312.6Z"/><path class="cls-8" d="M104.08,314.22S91.19,337.9,60.41,332.9C60.41,332.9,90.72,343.88,104.08,314.22Z"/><path class="cls-8" d="M134.12,318.15s-6.55,49.29,5.89,48.79C140,366.94,130.07,364.37,134.12,318.15Z"/></g></g></g></g></svg>