<svg xmlns="http://www.w3.org/2000/svg" viewBox="0 0 187.89 782.18"><defs><style>.cls-1{fill:#333;}.cls-2{fill:#444;}.cls-3{fill:#4d4d4d;}.cls-4{fill:#708e5c;}.cls-5{fill:#7f996a;}.cls-6{fill:#666;}</style></defs><title>scb</title><g id="Layer_2" data-name="Layer 2"><g id="scb"><g id="scb-2" data-name="scb"><g id="scbpants"><path class="cls-1" d="M17.83,262.17s59,42.7,153.19.45c0,0,15.9,62.42,16.56,79.42s.34,71.33-2,87.33a8.75,8.75,0,0,1,.63,9.42S133.79,455.37,99.85,444c0,0-3-5.75,0-9.25l-5.65-64L87,436s3.21,3.16-.62,8.33c0,0-72.17,8-83.51-2.33,0,0-3.16-5.84,0-8.5,0,0-5.48-103.69-1.4-127.84S13.07,267.81,17.83,262.17Z"/><path class="cls-2" d="M17.83,262.17S82,302.46,171,262.62l3.81,17.68s-73.76,35.77-165.5,0C9.33,280.3,14.82,263.81,17.83,262.17Z"/><path class="cls-3" d="M51.06,296.3s-9.34,31.22-37.84,37.86C13.22,334.16,51.91,342.8,51.06,296.3Z"/><path class="cls-3" d="M141.23,296.3s9.35,31.22,37.85,37.86C179.08,334.16,140.39,342.8,141.23,296.3Z"/><path class="cls-3" d="M100.18,293.75s-2-7-7-.5c0,0-32,21.5-27.5,30.5s27-14.75,27-25.37a6.46,6.46,0,0,0,1.54,1.24C93.16,308.26,89.63,333,83.06,340v5.5s12-16.2,13.5-45.32h0c.08,1.49,2.68,48.48,13.5,58.82h6s-11-.71-16.5-58.86l-1.21-.85a5.24,5.24,0,0,0,.83-.9s9.5,28.86,19.5,27.36C118.68,325.74,125.18,307.75,100.18,293.75ZM69.18,321c-1.75-2.5,19.5-21,19.5-21C88.68,309.5,70.93,323.5,69.18,321Zm46.5.29c-3.75.78-13.75-21.29-13.75-21.29C109.93,302.5,119.44,320.51,115.68,321.29Z"/><path d="M84,288.09s-5.32,2.52,0,5.21C84,293.3,76,290.89,84,288.09Z"/><path d="M107.19,287.88s5,2.52,0,5.21C107.19,293.09,114.67,290.67,107.19,287.88Z"/><path class="cls-3" d="M59.09,283s-18.78-4.37-32.19-10.49a81.58,81.58,0,0,1-10.33-5.49l-5.68,10.65,6.54-9.23-4.8,10,6.44-9-3.86,9.12,5.25-8.25-1.67,9.27,3.55-8.19-1,7,3.44-5.92-.55,8,2.24-7.19-.7,9.88,3.43-8.69,1.51,2.63,2.5-1,1.34,2.69.87-2L38.22,279l.66-1.52Z"/><path class="cls-3" d="M120.37,284.52s20.89-2.84,35.85-10.45c4.17-2.12,10.17-3.41,13.53-5.7l2.49,7.23L166.77,269l5.3,9.71-7.13-8.55,4.25,8.94-5.8-7.92,1.82,9.32-3.92-8,1,7.06-3.81-5.71.58,8.18-2.46-7.12-.69,8.37-2.35-6.89-1.69,2.84-2.78-.79-1.5,2.88-1-1.94-3.07,2.44-.73-1.49Z"/><path class="cls-3" d="M4.39,433.37s24.19,6,35.53,3.67,24,.54,24,.54a82.71,82.71,0,0,0-26.67-2.11C23.4,436.87,4.39,433.37,4.39,433.37Z"/><path class="cls-3" d="M182.83,427.79a43.89,43.89,0,0,1-15.5,5.58c-8.5,1.17-15.5-3.25-20.5-2.79,0,0,15,2.21,19.5,1.21S182.83,427.79,182.83,427.79Z"/></g><g id="scbshirt"><path class="cls-4" d="M4.39,16.55,46.58,1.43S92.28,55.3,133.6,0L179,15.83s-23.4,52.28-2.57,113.46c0,0-8.38,105.2-2.91,135.41,0,0-74.93,44.54-160.59,0,0,0,7.73-90.23-4.8-148.78C8.12,115.92,20.58,88.54,4.39,16.55Z"/><path class="cls-5" d="M16.56,128.12s32.14,14.5,46.32,13.5l-15.16,121s1.66-95.5-8-105.5S16.56,128.12,16.56,128.12Z"/><path class="cls-5" d="M53.07,276.75s2.77-35.06,6.55-36.06S66,280.3,66,280.3Z"/><path class="cls-5" d="M39.72,9.38S62.27,41.29,112.8,30.54C112.8,30.54,65.87,47.73,39.72,9.38Z"/><path class="cls-5" d="M81.75,25.44S67,27.55,47,6L42.12,9.19l4.8-2L44.83,8.61l2.94-.52-1.3,1.09,2.07-.55-4.17,3.51,3.74-2.2-2.35,3.39,4-3.49-.93,2.33,2.25-.91,2,1.73-2.66,2.1,3.44-1.35,1.15.73-3.64,1.86,4.52-1.27-3.44,3.1,4.14-2.5L52.18,20.9l5.19-4.43,3.46,2.21-3.9,2.09,4.44-1.42-4.87,4L62.37,20l-1.53,2.08,2.83-1.52,2.55,1.34-3.37,2L67,22.35l-2.19,1.56,3.16-.82-4.67,3.47,5.77-3-2.5,2.31,3.34-2,1.55.42S79,26.31,81.75,25.44Z"/><path class="cls-5" d="M102.63,27.13s14.9.09,31.84-24l5.21,2.49-5-1.32,2.26,1.11-3-.12,1.44.91L133.25,6l4.61,2.91-4-1.67,2.78,3-4.42-2.92,1.23,2.19-2.35-.6-1.73,2,2.92,1.72-3.59-.88-1,.89L131.52,14l-4.65-.64L130.7,16,126.26,14l5,4.6-5.75-3.68-3.12,2.66,4.14,1.54-4.59-.8,5.36,3.26-6.27-2.51,1.81,1.85-3-1.12-2.36,1.67L121.14,23l-4.27-.95,2.38,1.24L116,22.93l5.09,2.8L115,23.55l2.79,1.94L114.2,24l-1.48.63S105.5,27.61,102.63,27.13Z"/><path class="cls-5" d="M173.51,141.9s-5.93,20.8-15.26,32.14c0,0,13.95-5.34-3.36,90.66,0,0,16.61-10.08,16.34-15S173.51,141.9,173.51,141.9Z"/></g><g id="SunShoes"><path class="cls-3" d="M23.76,758.35S4.47,777.41,39,781.41s43-8.56,43-11.53-9.07-18.47-9.07-18.47,16,25.48-23.93,25.09C8.13,776.1,23.76,758.35,23.76,758.35Z"/><path class="cls-3" d="M114.81,756.41s-20.5,20.4,14,24.4,41.5-8.74,41.5-11.71-8.46-15.69-8.46-15.69,16.92,22.89-23,22.49C98,775.5,114.81,756.41,114.81,756.41Z"/><path class="cls-3" d="M20.86,766.14l54.17,1s4.57-3.93,0-12-45.59-8.5-49.14-.38c0,0-6.51,7.74-5,11.44"/><path class="cls-6" d="M42.85,750.41s14.5-1.25,19.87,1c0,0-1.62.75-1.62,1.62s3.37,2.25,3.37,2.25-2.5.13-2.12,1.75-1.63,5.75-3.25,7.13-8.5-1.63-12.75,0-3.5-1.13-3.5-1.13l2.25-2s-3.5-2.21-3.75-3.67,2-3.08,2-4.33A9,9,0,0,0,42.85,750.41Z"/><path class="cls-3" d="M109.85,765.41l59.64.9s.35-3.77-6.26-12.9c-5.46-7.55-47.14-8.12-50.7,0,0,0-2.68,9.21-1.17,12.9"/><path class="cls-6" d="M131.35,749.57s14.5-1.25,19.87,1c0,0-1.62.75-1.62,1.63s3.37,2.25,3.37,2.25-2.5.12-2.12,1.75-1.63,5.75-3.25,7.12-8.5-1.62-12.75,0-3.5-1.12-3.5-1.12l2.25-2s-3.5-2.21-3.75-3.67,2-3.08,2-4.33A9.08,9.08,0,0,0,131.35,749.57Z"/><path class="cls-6" d="M20.63,770.16s26.34,18.62,54.84,0C75.47,770.16,51.28,791.66,20.63,770.16Z"/><path class="cls-6" d="M114.31,772.16s30.16,13.91,50.66-1.92C165,770.24,142.81,789.57,114.31,772.16Z"/></g></g></g></g></svg>