<?xml version="1.0" encoding="utf-8"?>
<!-- Generator: Adobe Illustrator 22.1.0, SVG Export Plug-In . SVG Version: 6.00 Build 0)  -->
<svg version="1.1" id="Layer_1" xmlns="http://www.w3.org/2000/svg" xmlns:xlink="http://www.w3.org/1999/xlink" x="0px" y="0px"
	 viewBox="0 0 183 415" style="enable-background:new 0 0 183 415;" xml:space="preserve">
<style type="text/css">
	.st0{fill:none;}
	.st1{fill:#333333;}
	.st2{fill:#444444;}
	.st3{fill:#4D4D4D;}
	.st4{fill:#708E5C;}
	.st5{fill:#7F996A;}
	.st6{fill:#666666;}
</style>
<title>scb</title>
<g id="Layer_2_1_">
	<g id="scb">
		<g id="scb-2">
			<rect class="st0" width="183" height="415"/>
			<g id="scbpants">
				<path class="st1" d="M52.9,137.5c0,0,29.1,21.2,75.7,0.2c0,0,7.9,31,8.2,39.4s0.2,35.4-1,43.4c1,1.4,1.1,3.2,0.3,4.7
					c0,0-25.9,8.2-42.7,2.6c0,0-1.5-2.9,0-4.6l-2.8-31.8l-3.5,32.4c0,0,1.6,1.6-0.3,4.1c0,0-35.7,4-41.2-1.2c0,0-1.6-2.9,0-4.2
					c0,0-2.7-51.5-0.7-63.5S50.5,140.3,52.9,137.5z"/>
				<path class="st2" d="M52.9,137.5c0,0,31.7,20,75.7,0.2l1.9,8.8c0,0-36.4,17.8-81.8,0C48.7,146.5,51.4,138.3,52.9,137.5z"/>
				<path class="st3" d="M69.3,154.5c0,0-4.6,15.6-18.7,18.8C50.6,173.2,69.7,177.5,69.3,154.5z"/>
				<path class="st3" d="M113.9,154.5c0,0,4.6,15.5,18.7,18.8C132.6,173.2,113.4,177.5,113.9,154.5z"/>
				<path class="st3" d="M93.6,153.2c0,0-1-3.5-3.5-0.2c0,0-15.8,10.7-13.6,15.1s13.3-7.3,13.3-12.6c0.2,0.2,0.5,0.5,0.8,0.6
					c-0.5,4.3-2.3,16.6-5.5,20v2.7c0,0,5.9-8,6.7-22.5l0,0c0,0.7,1.3,24.1,6.7,29.2h3c0,0-5.4-0.4-8.2-29.2l-0.6-0.4
					c0.2-0.1,0.3-0.3,0.4-0.4c0,0,4.7,14.3,9.6,13.6C102.7,169.1,105.9,160.1,93.6,153.2z M78.3,166.7c-0.9-1.2,9.6-10.4,9.6-10.4
					C87.9,161,79.1,168,78.3,166.7z M101.3,166.9c-1.9,0.4-6.8-10.6-6.8-10.6C98.4,157.5,103.1,166.5,101.3,166.9L101.3,166.9z"/>
				<path d="M85.6,150.4c0,0-2.6,1.3,0,2.6C85.6,153,81.6,151.8,85.6,150.4z"/>
				<path d="M97,150.3c0,0,2.5,1.2,0,2.6C97,152.9,100.7,151.7,97,150.3z"/>
				<path class="st3" d="M73.3,147.9c-5.4-1.3-10.8-3-15.9-5.2c-1.8-0.8-3.5-1.7-5.1-2.7l-2.8,5.3l3.2-4.6l-2.4,5l3.2-4.5l-1.9,4.5
					l2.6-4.1l-0.8,4.6l1.8-4.1l-0.5,3.5l1.7-2.9l-0.3,4l1.1-3.6l-0.3,4.9l1.7-4.3l0.7,1.3l1.2-0.5l0.7,1.3l0.4-1l1.4,1l0.3-0.8
					L73.3,147.9z"/>
				<path class="st3" d="M103.6,148.6c0,0,10.3-1.4,17.7-5.2c2.1-1.1,5-1.7,6.7-2.8l1.2,3.6l-2.7-3.3l2.6,4.8l-3.5-4.2l2.1,4.4
					l-2.9-3.9l0.9,4.6l-1.9-4l0.5,3.5l-1.9-2.8l0.3,4.1l-1.2-3.5l-0.3,4.2l-1.1-3.4l-0.8,1.4l-1.4-0.4L117,147l-0.5-1l-1.5,1.2
					l-0.4-0.7L103.6,148.6z"/>
				<path class="st3" d="M46.3,222.5c0,0,11.9,3,17.5,1.8c3.9-0.6,8-0.6,11.9,0.3c-4.3-1-8.8-1.4-13.2-1
					C55.7,224.2,46.3,222.5,46.3,222.5z"/>
				<path class="st3" d="M134.4,219.7c-2.4,1.4-5,2.3-7.7,2.8c-4.2,0.6-7.7-1.6-10.1-1.4c0,0,7.4,1.1,9.6,0.6
					S134.4,219.7,134.4,219.7z"/>
			</g>
			<g id="scbshirt">
				<path class="st4" d="M44.3,15.6l20.8-7.5c0,0,22.6,26.7,43-0.7l22.4,7.8c0,0-11.6,26-1.3,56.3c0,0-4.1,52.2-1.4,67.2
					c0,0-37,22.1-79.3,0c0,0,3.8-44.8-2.4-73.8C46.1,64.9,52.3,51.3,44.3,15.6z"/>
				<path class="st5" d="M50.3,71c0,0,15.9,7.2,22.9,6.7l-7.5,60.1c0,0,0.8-47.4-4-52.4S50.3,71,50.3,71z"/>
				<path class="st5" d="M68.3,144.7c0,0,1.4-17.4,3.2-17.9s3.2,19.7,3.2,19.7L68.3,144.7z"/>
				<path class="st5" d="M61.7,12c0,0,11.1,15.8,36.1,10.5C97.8,22.5,74.6,31.1,61.7,12z"/>
				<path class="st5" d="M82.5,20c0,0-7.3,1-17.2-9.6l-2.4,1.6l2.4-1l-1,0.7l1.4-0.3l-0.6,0.5l1-0.3L64,13.4l1.8-1.1L64.7,14l2-1.7
					l-0.5,1.2l1.1-0.4l1,0.9l-1.3,1l1.7-0.7l0.6,0.4l-1.8,0.9l2.2-0.6L68,16.4l2-1.2l-2.2,2.6l2.6-2.2l1.7,1.1l-1.9,1l2.2-0.7L70,19
					l2.9-1.7l-0.8,1l1.4-0.8l1.3,0.7l-1.7,1l2-0.8L74,19.3l1.6-0.4l-2.3,1.7l2.8-1.5L75,20.2l1.7-1l0.8,0.2
					C77.4,19.4,81.1,20.4,82.5,20z"/>
				<path class="st5" d="M92.8,20.8c0,0,7.4,0,15.7-11.9l2.6,1.2l-2.5-0.7l1.1,0.6l-1.5-0.1l0.7,0.4l-1-0.1l2.3,1.4l-2-0.8l1.4,1.5
					l-2.2-1.4l0.6,1.1l-1.2-0.3l-0.9,1l1.4,0.9l-1.8-0.4l-0.5,0.4l1.9,0.7l-2.3-0.3l1.9,1.3l-2.2-0.9l2.5,2.3l-2.8-1.8l-1.5,1.3
					l2,0.8l-2.3-0.4l2.7,1.6l-3.1-1.2l0.9,0.9l-1.5-0.5l-1.2,0.8l1.8,0.8l-2.1-0.5L101,19l-1.6-0.2l2.5,1.4l-3-1.1l1.4,1l-1.8-0.8
					l-0.7,0.3C97.8,19.7,94.2,21.1,92.8,20.8z"/>
				<path class="st5" d="M127.8,77.8c0,0-2.9,10.3-7.5,16c0,0,6.9-2.6-1.7,45c0,0,8.2-5,8.1-7.5S127.8,77.8,127.8,77.8z"/>
			</g>
			<g id="SunShoes">
				<path class="st3" d="M53.8,382.8c0,0-9.5,9.5,7.5,11.5s21.2-4.2,21.2-5.7s-4.5-9.2-4.5-9.2S86,392,66.3,391.8
					C46.1,391.6,53.8,382.8,53.8,382.8z"/>
				<path class="st3" d="M98.8,381.8c0,0-10.1,10.2,6.9,12.1s20.5-4.3,20.5-5.8s-4.2-7.8-4.2-7.8s8.4,11.4-11.4,11.2
					C90.5,391.3,98.8,381.8,98.8,381.8z"/>
				<path class="st3" d="M52.4,386.7l26.8,0.5c0,0,2.3-2,0-6S56.6,377,54.9,381C54.9,381,51.6,384.9,52.4,386.7"/>
				<path class="st6" d="M63.3,378.9c0,0,7.2-0.6,9.8,0.5c0,0-0.8,0.4-0.8,0.8s1.7,1.1,1.7,1.1s-1.2,0.1-1,0.9s-0.8,2.9-1.6,3.5
					s-4.2-0.8-6.3,0s-1.7-0.5-1.7-0.5l1.1-1c0,0-1.7-1.1-1.8-1.8s1-1.5,1-2.1C63.5,379.7,63.4,379.3,63.3,378.9z"/>
				<path class="st3" d="M96.4,386.3l29.5,0.4c0,0,0.2-1.9-3.1-6.4c-2.7-3.7-23.3-4-25,0c0,0-1.3,4.6-0.6,6.4"/>
				<path class="st6" d="M107,378.4c0,0,7.2-0.6,9.8,0.5c0,0-0.8,0.4-0.8,0.8s1.7,1.1,1.7,1.1s-1.2,0.1-1,0.9s-0.8,2.9-1.6,3.5
					s-4.2-0.8-6.3,0s-1.7-0.6-1.7-0.6l1.1-1c0,0-1.7-1.1-1.9-1.8s1-1.5,1-2.1C107.3,379.3,107.2,378.9,107,378.4z"/>
				<path class="st6" d="M52.3,388.6c0,0,13,9.2,27.1,0C79.4,388.6,67.4,399.3,52.3,388.6z"/>
				<path class="st6" d="M98.6,389.6c0,0,14.9,6.9,25-1C123.6,388.7,112.6,398.3,98.6,389.6z"/>
			</g>
		</g>
	</g>
</g>
</svg>
