<svg xmlns="http://www.w3.org/2000/svg" viewBox="0 0 183 415"><defs><style>.cls-1{fill:none;}.cls-2{fill:gray;}.cls-3{fill:#8e8e8e;}.cls-4{fill:#6d6d6d;}.cls-5{fill:#bcbcbb;}.cls-6{fill:#efefb4;}.cls-7{fill:#d8d69e;}.cls-8{fill:#4d4d4d;}.cls-9{fill:#666;}</style></defs><title>scb2</title><g id="Layer_2" data-name="Layer 2"><g id="scb2"><g id="scb2-2" data-name="scb2"><rect class="cls-1" width="183" height="415"/><g id="scbpants2"><path class="cls-2" d="M52.9,136.55s29.12,21.2,75.67.22c0,0,7.85,31,8.18,39.42s.17,35.41-1,43.35a4.38,4.38,0,0,1,.3,4.68s-25.89,8.23-42.65,2.6c0,0-1.47-2.85,0-4.59l-2.79-31.76-3.54,32.38s1.59,1.57-.31,4.14c0,0-35.65,4-41.24-1.16,0,0-1.57-2.9,0-4.22,0,0-2.71-51.46-.7-63.46S50.55,139.35,52.9,136.55Z"/><path class="cls-3" d="M52.9,136.55s31.68,20,75.67.22l1.88,8.78S94,163.3,48.7,145.55C48.7,145.55,51.42,137.36,52.9,136.55Z"/><path class="cls-3" d="M69.32,153.49S64.7,169,50.63,172.28C50.63,172.28,69.74,176.57,69.32,153.49Z"/><path class="cls-3" d="M113.86,153.49s4.61,15.5,18.69,18.79C132.55,172.28,113.44,176.57,113.86,153.49Z"/><path class="cls-4" d="M93.58,152.22s-1-3.47-3.46-.24c0,0-15.8,10.67-13.58,15.14s13.34-7.32,13.34-12.6a3.11,3.11,0,0,0,.75.62c-.52,4.29-2.26,16.57-5.51,20v2.73s5.93-8,6.67-22.5h0c0,.74,1.32,24.07,6.67,29.2h3s-5.43-.35-8.15-29.22l-.59-.42a2.62,2.62,0,0,0,.41-.45s4.69,14.33,9.63,13.59C102.72,168.11,105.93,159.17,93.58,152.22ZM78.27,165.75c-.87-1.24,9.63-10.42,9.63-10.42C87.9,160,79.13,167,78.27,165.75Zm23,.15c-1.86.38-6.79-10.57-6.79-10.57C98.4,156.57,103.09,165.51,101.24,165.9Z"/><path class="cls-5" d="M85.57,149.42s-2.62,1.25,0,2.58C85.57,152,81.62,150.8,85.57,149.42Z"/><path class="cls-5" d="M97,149.31s2.46,1.25,0,2.59C97,151.9,100.74,150.7,97,149.31Z"/><path class="cls-4" d="M73.28,146.91a101.44,101.44,0,0,1-15.9-5.21,40.46,40.46,0,0,1-5.1-2.72l-2.8,5.28,3.22-4.58-2.37,4.95,3.18-4.46-1.9,4.52,2.59-4.09-.82,4.6,1.75-4.07-.47,3.47,1.7-2.93-.27,4,1.1-3.56-.35,4.9,1.7-4.31.74,1.3,1.24-.5.66,1.33.43-1,1.36,1,.33-.75Z"/><path class="cls-4" d="M103.55,147.64s10.32-1.4,17.71-5.18c2.06-1.05,5-1.7,6.68-2.83l1.23,3.59-2.7-3.3,2.62,4.82-3.52-4.24,2.1,4.43L124.8,141l.9,4.62-1.94-4,.52,3.5-1.88-2.83.28,4.06-1.21-3.54-.34,4.16L120,143.58l-.84,1.41-1.37-.39L117,146l-.48-1L115,146.27l-.36-.74Z"/><path class="cls-3" d="M46.27,221.53s11.94,3,17.54,1.82a32.23,32.23,0,0,1,11.86.27,40.59,40.59,0,0,0-13.17-1.05C55.65,223.26,46.27,221.53,46.27,221.53Z"/><path class="cls-3" d="M134.41,218.76a21.62,21.62,0,0,1-7.66,2.77c-4.2.58-7.66-1.61-10.13-1.39,0,0,7.41,1.1,9.64.6S134.41,218.76,134.41,218.76Z"/></g><g id="scbshirt2"><path class="cls-6" d="M45.45,14.51,66.29,7s22.58,26.74,43-.71l22.42,7.86s-11.55,26-1.26,56.31c0,0-4.14,52.22-1.44,67.22,0,0-37,22.11-79.33,0,0,0,3.82-44.79-2.37-73.85C47.29,63.83,53.45,50.24,45.45,14.51Z"/><path class="cls-7" d="M51.47,69.88s15.87,7.2,22.87,6.71l-7.49,60.06s.83-47.41-3.95-52.37S51.47,69.88,51.47,69.88Z"/><path class="cls-7" d="M69.5,143.66s1.36-17.4,3.23-17.9,3.15,19.66,3.15,19.66Z"/><path class="cls-7" d="M62.9,11S74,26.78,99,21.45C99,21.45,75.82,30,62.9,11Z"/><path class="cls-7" d="M83.66,18.92s-7.28,1-17.19-9.64l-2.38,1.57,2.37-1-1,.7,1.45-.26-.64.55,1-.28L65.2,12.32,67,11.23,65.89,12.9l2-1.73-.46,1.16,1.11-.45,1,.86-1.32,1,1.7-.67.57.36-1.8.92,2.23-.62-1.7,1.54,2-1.25-2.16,2.6,2.56-2.19,1.71,1.09-1.93,1,2.2-.7-2.41,2,2.9-1.65-.76,1,1.4-.75,1.26.66-1.66,1,2-.75-1.08.77,1.56-.41-2.3,1.72L77.38,18l-1.24,1.14,1.65-1,.76.21S82.29,19.35,83.66,18.92Z"/><path class="cls-7" d="M94,19.75s7.37.05,15.74-11.88l2.57,1.23-2.48-.66,1.11.55-1.47-.05.71.45-1.05-.13,2.28,1.44-2-.83,1.38,1.51-2.19-1.45L109.2,11,108,10.72l-.85,1,1.44.86-1.77-.44-.52.44,1.91.67-2.3-.32,1.89,1.29-2.19-.95,2.49,2.28-2.84-1.82L103.76,15l2,.77-2.27-.4L106.19,17l-3.1-1.24.89.92-1.48-.56-1.17.83,1.79.75L101,17.24l1.17.62-1.59-.19,2.51,1.39-3-1.08,1.38,1-1.77-.75-.73.32S95.39,20,94,19.75Z"/><path class="cls-7" d="M129,76.72s-2.93,10.33-7.54,16c0,0,6.89-2.65-1.66,45,0,0,8.21-5,8.07-7.47S129,76.72,129,76.72Z"/></g><g id="SunShoes"><path class="cls-8" d="M53.69,383.88s-9.52,9.46,7.52,11.44,21.24-4.25,21.24-5.72S78,380.43,78,380.43s7.92,12.65-11.82,12.46C46,392.69,53.69,383.88,53.69,383.88Z"/><path class="cls-8" d="M98.67,382.92S88.54,393,105.58,395s20.5-4.34,20.5-5.81-4.18-7.79-4.18-7.79,8.36,11.36-11.38,11.16C90.35,392.39,98.67,382.92,98.67,382.92Z"/><path class="cls-8" d="M52.26,387.74l26.76.48s2.26-2,0-6-22.51-4.22-24.27-.19c0,0-3.21,3.84-2.47,5.67"/><path class="cls-9" d="M63.12,379.94s7.17-.62,9.82.49c0,0-.8.37-.8.81s1.67,1.12,1.67,1.12-1.24.06-1,.86-.81,2.86-1.61,3.54-4.2-.81-6.3,0-1.73-.56-1.73-.56l1.12-1s-1.73-1.1-1.86-1.82,1-1.53,1-2.15A4.42,4.42,0,0,0,63.12,379.94Z"/><path class="cls-8" d="M96.22,387.38l29.46.45s.17-1.87-3.09-6.4c-2.7-3.75-23.29-4-25,0,0,0-1.33,4.57-.59,6.4"/><path class="cls-9" d="M106.84,379.52s7.16-.62,9.82.5c0,0-.81.37-.81.81s1.67,1.11,1.67,1.11-1.23.07-1,.87-.8,2.86-1.6,3.54-4.2-.81-6.3,0-1.73-.56-1.73-.56l1.11-1s-1.73-1.1-1.85-1.82,1-1.53,1-2.15A4.53,4.53,0,0,0,106.84,379.52Z"/><path class="cls-9" d="M52.15,389.74s13,9.24,27.09,0C79.24,389.74,67.29,400.41,52.15,389.74Z"/><path class="cls-9" d="M98.42,390.73s14.9,6.91,25-1C123.45,389.78,112.5,399.38,98.42,390.73Z"/></g></g></g></g></svg>