<svg xmlns="http://www.w3.org/2000/svg" viewBox="0 0 187.89 782.53"><defs><style>.cls-1{fill:gray;}.cls-2{fill:#8e8e8e;}.cls-3{fill:#6d6d6d;}.cls-4{fill:#bcbcbb;}.cls-5{fill:#efefb4;}.cls-6{fill:#d8d69e;}.cls-7{fill:#4d4d4d;}.cls-8{fill:#666;}</style></defs><title>scb2</title><g id="Layer_2" data-name="Layer 2"><g id="scb2"><g id="scb2-2" data-name="scb2"><g id="scbpants2"><path class="cls-1" d="M17.83,262.43s59,42.7,153.19.45c0,0,15.9,62.42,16.56,79.42s.34,71.33-2,87.33a8.75,8.75,0,0,1,.63,9.42s-52.42,16.58-86.36,5.25c0,0-3-5.75,0-9.25l-5.65-64L87,436.3s3.21,3.17-.62,8.33c0,0-72.17,8-83.51-2.33,0,0-3.16-5.83,0-8.5,0,0-5.48-103.69-1.4-127.84S13.07,268.07,17.83,262.43Z"/><path class="cls-2" d="M17.83,262.43S82,302.72,171,262.88l3.81,17.68s-73.76,35.77-165.5,0C9.33,280.56,14.82,264.07,17.83,262.43Z"/><path class="cls-2" d="M51.06,296.56s-9.34,31.22-37.84,37.86C13.22,334.42,51.91,343.06,51.06,296.56Z"/><path class="cls-2" d="M141.23,296.56s9.35,31.22,37.85,37.86C179.08,334.42,140.39,343.06,141.23,296.56Z"/><path class="cls-3" d="M100.18,294s-2-7-7-.5c0,0-32,21.5-27.5,30.5s27-14.75,27-25.37a6.64,6.64,0,0,0,1.54,1.25c-1.06,8.63-4.59,33.38-11.16,40.36v5.5s12-16.2,13.5-45.32h0c.08,1.49,2.68,48.48,13.5,58.82h6s-11-.71-16.5-58.86l-1.21-.84a5.73,5.73,0,0,0,.83-.91s9.5,28.86,19.5,27.36C118.68,326,125.18,308,100.18,294Zm-31,27.25c-1.75-2.5,19.5-21,19.5-21C88.68,309.76,70.93,323.76,69.18,321.26Zm46.5.29c-3.75.78-13.75-21.29-13.75-21.29C109.93,302.76,119.44,320.77,115.68,321.55Z"/><path class="cls-4" d="M84,288.35s-5.32,2.52,0,5.21C84,293.56,76,291.15,84,288.35Z"/><path class="cls-4" d="M107.19,288.14s5,2.52,0,5.21C107.19,293.35,114.67,290.93,107.19,288.14Z"/><path class="cls-3" d="M59.09,283.3s-18.78-4.37-32.19-10.49a81.58,81.58,0,0,1-10.33-5.49L10.89,278l6.54-9.23-4.8,10,6.44-9-3.86,9.11,5.25-8.25-1.67,9.27,3.55-8.19-1,7,3.44-5.92-.55,8.05,2.24-7.18-.7,9.87,3.43-8.69,1.51,2.63,2.5-1,1.34,2.69.87-2,2.76,2.12.66-1.53Z"/><path class="cls-3" d="M120.37,284.78s20.89-2.84,35.85-10.45c4.17-2.12,10.17-3.41,13.53-5.7l2.49,7.23-5.47-6.64,5.3,9.72-7.13-8.56,4.25,8.94-5.8-7.91,1.82,9.31-3.92-8,1,7.06-3.81-5.71.58,8.18-2.46-7.12-.69,8.37-2.35-6.89-1.69,2.84-2.78-.79-1.5,2.89-1-1.95L143.59,282l-.73-1.49Z"/><path class="cls-2" d="M4.39,433.63s24.19,6,35.53,3.67,24,.54,24,.54a82.71,82.71,0,0,0-26.67-2.11C23.4,437.13,4.39,433.63,4.39,433.63Z"/><path class="cls-2" d="M182.83,428.05a43.67,43.67,0,0,1-15.5,5.58c-8.5,1.17-15.5-3.25-20.5-2.79,0,0,15,2.21,19.5,1.21S182.83,428.05,182.83,428.05Z"/></g><g id="scbshirt2"><path class="cls-5" d="M4.77,16.55,47,1.43S92.66,55.3,134,0l45.39,15.83S156,68.11,176.8,129.29c0,0-8.38,105.2-2.91,135.41,0,0-74.93,44.54-160.6,0,0,0,7.74-90.23-4.8-148.78C8.49,115.92,21,88.54,4.77,16.55Z"/><path class="cls-6" d="M16.94,128.12s32.14,14.5,46.32,13.5l-15.17,121s1.67-95.5-8-105.5S16.94,128.12,16.94,128.12Z"/><path class="cls-6" d="M53.45,276.75s2.77-35.06,6.55-36.06,6.38,39.61,6.38,39.61Z"/><path class="cls-6" d="M40.1,9.38s22.55,31.91,73.08,21.16C113.18,30.54,66.24,47.73,40.1,9.38Z"/><path class="cls-6" d="M82.13,25.44S67.37,27.55,47.33,6L42.5,9.19l4.79-2L45.21,8.61l2.94-.52L46.84,9.18l2.07-.55-4.17,3.51,3.74-2.2-2.34,3.39,4-3.49-.93,2.33,2.24-.91,2,1.73-2.66,2.1,3.43-1.35,1.15.73-3.64,1.86,4.53-1.27-3.45,3.1,4.14-2.5L52.56,20.9l5.19-4.43,3.45,2.21-3.89,2.09,4.44-1.42-4.87,4L62.75,20l-1.54,2.08L64,20.54l2.56,1.34-3.37,2,4.1-1.53-2.19,1.56,3.15-.82-4.66,3.47,5.77-3-2.5,2.31,3.33-2,1.56.42S79.35,26.31,82.13,25.44Z"/><path class="cls-6" d="M103,27.13s14.91.09,31.85-24l5.21,2.49-5-1.32,2.25,1.11-3-.12,1.45.91L133.63,6l4.61,2.91-4-1.67,2.78,3-4.43-2.92,1.24,2.19-2.35-.6-1.73,2,2.92,1.72-3.59-.88-1,.89L131.9,14l-4.65-.64L131.08,16,126.64,14l5,4.6-5.74-3.68-3.12,2.66L127,19.14l-4.6-.8,5.37,3.26-6.27-2.51,1.8,1.85-3-1.12-2.36,1.67L121.51,23l-4.27-.95,2.38,1.24-3.23-.38,5.09,2.8-6.12-2.18,2.79,1.94L114.58,24l-1.48.63S105.87,27.61,103,27.13Z"/><path class="cls-6" d="M173.89,141.9S168,162.7,158.63,174c0,0,14-5.34-3.36,90.66,0,0,16.61-10.08,16.34-15S173.89,141.9,173.89,141.9Z"/></g><g id="SunShoes"><path class="cls-7" d="M23.48,758.69S4.2,777.75,38.7,781.75s43-8.56,43-11.53-9.08-18.47-9.08-18.47,16,25.49-23.92,25.1C7.86,776.45,23.48,758.69,23.48,758.69Z"/><path class="cls-7" d="M114.53,756.76s-20.5,20.4,14,24.4,41.5-8.74,41.5-11.71-8.46-15.69-8.46-15.69,16.92,22.89-23,22.49C97.69,775.85,114.53,756.76,114.53,756.76Z"/><path class="cls-7" d="M20.58,766.49l54.17,1s4.58-3.93,0-12-45.59-8.5-49.14-.38c0,0-6.51,7.74-5,11.44"/><path class="cls-8" d="M42.57,750.75s14.5-1.25,19.88,1c0,0-1.63.75-1.63,1.63s3.38,2.25,3.38,2.25-2.5.12-2.13,1.75-1.62,5.75-3.25,7.12-8.5-1.62-12.75,0-3.5-1.12-3.5-1.12l2.25-2s-3.5-2.21-3.75-3.67,2-3.08,2-4.33A9.08,9.08,0,0,0,42.57,750.75Z"/><path class="cls-7" d="M109.57,765.76l59.64.9s.35-3.77-6.26-12.9c-5.46-7.55-47.14-8.12-50.69,0,0,0-2.69,9.21-1.18,12.9"/><path class="cls-8" d="M131.07,749.92s14.5-1.25,19.88,1c0,0-1.63.75-1.63,1.63s3.38,2.25,3.38,2.25-2.5.12-2.13,1.75-1.62,5.75-3.25,7.12-8.5-1.62-12.75,0-3.5-1.12-3.5-1.12l2.25-2s-3.5-2.21-3.75-3.67,2-3.08,2-4.33A9.08,9.08,0,0,0,131.07,749.92Z"/><path class="cls-8" d="M20.35,770.5s26.35,18.63,54.85,0C75.2,770.5,51,792,20.35,770.5Z"/><path class="cls-8" d="M114,772.51s30.17,13.91,50.67-1.92C164.7,770.59,142.53,789.92,114,772.51Z"/></g></g></g></g></svg>