<?xml version="1.0" encoding="utf-8"?>
<!-- Generator: Adobe Illustrator 22.1.0, SVG Export Plug-In . SVG Version: 6.00 Build 0)  -->
<svg version="1.1" id="Layer_1" xmlns="http://www.w3.org/2000/svg" xmlns:xlink="http://www.w3.org/1999/xlink" x="0px" y="0px"
	 viewBox="0 0 183 415.4" style="enable-background:new 0 0 183 415.4;" xml:space="preserve">
<style type="text/css">
	.st0{fill:none;}
	.st1{fill:#473319;}
	.st2{fill:#684B1E;}
	.st3{fill:#E2DCE5;}
	.st4{fill:#D2D1D3;}
	.st5{fill:#666565;}
	.st6{fill:#543D3A;}
	.st7{fill:#42302D;}
	.st8{fill:#3A3A3A;}
	.st9{fill:#212121;}
	.st10{fill:#4C4C4C;}
	.st11{fill:#303030;}
	.st12{fill:#8C8357;}
	.st13{fill:#878589;}
</style>
<title>sfb</title>
<g id="Layer_2_1_">
	<g id="sfb">
		<g id="sfb-2">
			<rect y="0.4" class="st0" width="183" height="415"/>
			<g id="dressshoes">
				<g id="sbbshoes">
					<path class="st1" d="M53.9,379.3c0,0-7.5,17,9.6,18.5c0,0,15.3,0,18.3-7.2c1.5-3.6-4-14.6-4-14.6s3.8,11.3,3,12.5
						s-7.7,7.4-16.3,6.1S52.2,391.8,53.9,379.3"/>
					<path class="st2" d="M58.8,365.5c0,0-5.6,11.7-6.3,22c0,0,0.6,7.3,10.9,8s17.8-5,17.8-7.1s-5.4-22.9-5.4-22.9l-4.5,3
						c-0.5-2.2-9.4-2.7-9.6,0L58.8,365.5z"/>
					<path class="st1" d="M54.5,389.1c0,0,2.7-1.6,4-1.7v0.2c-1.4,0.3-2.8,0.9-4,1.7V389.1z"/>
					<path class="st1" d="M60.4,386.8c0,0,3-0.9,4.3-0.6l-0.1,0.2c-1.4,0-2.9,0.2-4.3,0.6L60.4,386.8z"/>
					<path class="st1" d="M66,385.8c0,0,3.1-0.7,4.3-0.4l-0.1,0.2c-1.4-0.1-2.9,0-4.3,0.4L66,385.8z"/>
					<path class="st1" d="M72.3,385.2c0,0,3.2-0.3,4.3,0.1l-0.1,0.2c-1.4-0.3-2.9-0.3-4.3-0.1L72.3,385.2z"/>
					<path class="st1" d="M78,385.6c0,0,3,1.1,3.8,2l-0.2,0.1c-1.2-0.9-2.5-1.6-3.8-2L78,385.6z"/>
					<path class="st1" d="M61.7,368.5l1.7,14.7C63.5,383.2,61.2,369.5,61.7,368.5z"/>
					<path class="st1" d="M71.2,383.4c0,0,0.7-13.8,0.3-14.8L71.2,383.4"/>
					<polyline class="st1" points="61.9,369.7 66.3,371.8 71.6,369.1 71.6,369.9 66.3,372.6 71.4,373.6 71.4,374.3 66.3,373.2 
						62.3,375.3 62.2,374.8 65.9,372.6 61.7,370.1 61.9,369.7 					"/>
					<polyline class="st1" points="62.1,375 66.5,377.1 71.8,374.4 71.9,375.2 66.5,377.9 71.7,378.9 71.7,379.6 66.5,378.5 
						62.5,380.6 62.4,380 66.1,377.9 61.9,375.4 62.1,375 					"/>
					<polyline class="st1" points="62.1,379.9 66.5,382.1 71.8,379.4 71.9,380.2 66.5,382.8 71.7,383.8 71.7,384.6 66.5,383.4 
						62.5,385.6 62.4,385 66.1,382.8 61.9,380.4 62.1,379.9 					"/>
				</g>
				<g id="sbbshoes-2">
					<path class="st1" d="M125.1,378.2c0,0,7.5,17-9.6,18.5c0,0-15.3,0-18.3-7.2c-1.5-3.6,4-14.6,4-14.6s-3.8,11.3-3,12.5
						s7.7,7.4,16.3,6.1S126.8,390.7,125.1,378.2"/>
					<path class="st2" d="M120.2,364.5c0,0,5.6,11.7,6.3,22c0,0-0.6,7.3-10.9,8s-17.8-5-17.8-7.1s5.4-22.9,5.4-22.9l4.5,3
						c0.5-2.2,9.4-2.7,9.6,0L120.2,364.5z"/>
					<path class="st1" d="M124.5,388c0,0-2.7-1.6-4-1.7v0.2c1.4,0.3,2.8,0.9,4,1.7V388z"/>
					<path class="st1" d="M118.6,385.8c0,0-3-0.9-4.3-0.7l0.1,0.2c1.4,0,2.9,0.2,4.3,0.7L118.6,385.8z"/>
					<path class="st1" d="M113.1,384.7c0,0-3.1-0.7-4.3-0.4l0.1,0.2c1.4-0.1,2.9,0,4.3,0.4L113.1,384.7z"/>
					<path class="st1" d="M106.7,384.1c0,0-3.2-0.3-4.3,0.1l0.1,0.2c1.4-0.3,2.9-0.3,4.3-0.1L106.7,384.1z"/>
					<path class="st1" d="M101,384.5c0,0-3,1-3.8,2l0.2,0.1c1.2-0.9,2.5-1.6,3.8-2L101,384.5z"/>
					<path class="st1" d="M117.3,367.4l-1.7,14.7C115.5,382.2,117.8,368.4,117.3,367.4z"/>
					<path class="st1" d="M107.8,382.3c0,0-0.7-13.8-0.3-14.8L107.8,382.3"/>
					<polyline class="st1" points="117.1,368.6 112.7,370.8 107.4,368 107.4,368.9 112.7,371.5 107.6,372.5 107.6,373.2 
						112.7,372.1 116.7,374.2 116.8,373.7 113.1,371.5 117.3,369 117.1,368.6 					"/>
					<polyline class="st1" points="116.9,373.9 112.5,376 107.2,373.3 107.1,374.1 112.5,376.8 107.3,377.8 107.3,378.5 
						112.5,377.4 116.5,379.5 116.6,379 112.9,376.8 117.1,374.3 116.9,373.9 					"/>
					<polyline class="st1" points="116.9,378.8 112.5,381 107.2,378.3 107.1,379.1 112.5,381.8 107.3,382.7 107.3,383.5 
						112.5,382.3 116.5,384.5 116.6,383.9 112.9,381.8 117.1,379.3 116.9,378.8 					"/>
				</g>
			</g>
			<g id="sfbshirt">
				<g id="shirt">
					<path class="st3" d="M69.9,5.5c0,0-35,12.8-38.3,16.6s-7.2,19.5-6.4,29.5c0,0-16.1,55-15.5,69.6l-0.9,30.7l-1.6-1.2L8.9,165
						c0,0,10,1.7,14-2.1l2.6-10.9l-1.1-0.2c0,0,14-26.9,14.2-30.7s9.7-47.9,9.7-47.9s3,17.8,2.8,21.8s1.8,32.8,1.8,32.8l-2.9,12.8
						c0,0,33.5,23.6,77.1,0.4l-3.2-13.7c0,0,1-26.8,0.2-34.4l6.3-16.4c0,0,8.1,48.8,14.8,62l8.2,12.6h-1.5l3.7,7.5
						c0,0,8.1,2.8,12.8-0.8l1.4-9.6h-1c0,0-1-38.6-2.6-43.5S155.9,57.3,153,52.3c0,0,2.3-26.1-10.4-33.4c0,0-28.7-8-35.7-12.5
						c0,0-3.4,4.7-17.7,6.3S69.9,5.5,69.9,5.5z"/>
					<g id="sbbshirt2">
						<path class="st4" d="M86,14.2l2.4,133.9c0,0,2.3-0.1,2.9-0.1l0.8-134L86,14.2z"/>
						<path class="st3" d="M89.5,14.9c0,0-0.9-1-0.9,2v131.2h0.7C89.3,148.1,89.2,16.8,89.5,14.9z"/>
						<ellipse class="st5" cx="88.6" cy="36.2" rx="1.6" ry="1.6"/>
						<path class="st6" d="M89,35c0,0-1.4-0.1-1.7,0.9c-0.2,0.8,0.3,1.5,1.1,1.7c0.1,0,0.1,0,0.2,0C88.6,37.6,86.1,35.9,89,35z"/>
						<circle class="st6" cx="88.6" cy="36.3" r="0.4"/>
						<ellipse class="st5" cx="88.9" cy="24.5" rx="1.6" ry="1.6"/>
						<path class="st6" d="M89.3,23.3c0,0-1.4-0.1-1.7,0.9c-0.2,0.8,0.3,1.5,1.1,1.7c0.1,0,0.1,0,0.2,0
							C88.9,25.8,86.4,24.1,89.3,23.3z"/>
						<circle class="st6" cx="88.9" cy="24.6" r="0.4"/>
						<ellipse class="st5" cx="88.8" cy="49.6" rx="1.6" ry="1.6"/>
						<path class="st6" d="M89.2,48.3c0,0-1.4-0.1-1.7,0.9c-0.2,0.8,0.3,1.5,1.1,1.7c0.1,0,0.1,0,0.2,0
							C88.8,50.9,86.3,49.2,89.2,48.3z"/>
						<circle class="st6" cx="88.8" cy="49.7" r="0.4"/>
						<ellipse class="st5" cx="89" cy="65.3" rx="1.6" ry="1.6"/>
						<path class="st6" d="M89.5,64c0,0-1.4-0.1-1.7,0.9c-0.2,0.8,0.3,1.5,1,1.7c0.1,0,0.1,0,0.2,0C89,66.6,86.6,64.9,89.5,64z"/>
						<circle class="st6" cx="89" cy="65.4" r="0.4"/>
						<ellipse class="st5" cx="89.2" cy="78.6" rx="1.6" ry="1.6"/>
						<path class="st6" d="M89.6,77.4c0,0-1.4-0.1-1.7,0.9c-0.2,0.8,0.3,1.5,1,1.7c0.1,0,0.1,0,0.2,0C89.2,80,86.7,78.2,89.6,77.4z"
							/>
						<circle class="st6" cx="89.2" cy="78.7" r="0.4"/>
						<ellipse class="st5" cx="89.2" cy="91.9" rx="1.6" ry="1.6"/>
						<path class="st6" d="M89.6,90.7c0,0-1.4-0.1-1.7,0.9c-0.2,0.8,0.3,1.5,1.1,1.7c0.1,0,0.1,0,0.2,0
							C89.2,93.3,86.7,91.6,89.6,90.7z"/>
						<circle class="st6" cx="89.2" cy="92.1" r="0.4"/>
						<ellipse class="st5" cx="89.3" cy="105.3" rx="1.6" ry="1.6"/>
						<path class="st6" d="M89.8,104.1c0,0-1.4-0.1-1.7,0.9c-0.2,0.8,0.3,1.5,1.1,1.7c0.1,0,0.1,0,0.2,0
							C89.3,106.6,86.9,104.9,89.8,104.1z"/>
						<circle class="st6" cx="89.3" cy="105.4" r="0.4"/>
						<ellipse class="st5" cx="89.5" cy="115.9" rx="1.6" ry="1.6"/>
						<path class="st6" d="M90,114.7c0,0-1.4-0.1-1.7,0.9c-0.2,0.8,0.3,1.5,1,1.7c0.1,0,0.1,0,0.2,0C89.6,117.3,87,115.6,90,114.7z"
							/>
						<circle class="st6" cx="89.5" cy="116" r="0.4"/>
						<ellipse class="st5" cx="89.7" cy="129.3" rx="1.6" ry="1.6"/>
						<path class="st6" d="M90.1,128.1c0,0-1.4-0.1-1.7,0.9c-0.2,0.8,0.3,1.5,1.1,1.7c0.1,0,0.1,0,0.2,0
							C89.7,130.6,87.2,128.9,90.1,128.1z"/>
						<circle class="st6" cx="89.7" cy="129.4" r="0.4"/>
						<ellipse class="st5" cx="89.7" cy="143.6" rx="1.6" ry="1.6"/>
						<ellipse class="st7" cx="22.5" cy="153.8" rx="1.1" ry="1.1"/>
						<ellipse class="st7" cx="155.8" cy="153.6" rx="1.1" ry="1.1"/>
						<path class="st6" d="M90.1,142.4c0,0-1.4-0.1-1.7,0.9c-0.2,0.8,0.3,1.5,1,1.7c0.1,0,0.1,0,0.2,0
							C89.7,145,87.2,143.3,90.1,142.4z"/>
						<circle class="st6" cx="89.7" cy="143.7" r="0.4"/>
						<path class="st4" d="M53,51.8c0,0,11.6,5.8,20.3,2.6v17.4c0,0-10.2,7.5-11.5,7.5S53,71.5,53,71.5L53,51.8z"/>
						<path class="st3" d="M53.5,53.1c0,0,10.5,5.2,18.3,2.4v15.7c0,0-9.2,6.8-10.4,6.8s-7.9-7.1-7.9-7.1V53.1z"/>
						<path class="st4" d="M124.6,51.3c0,0-11.6,5.8-20.2,2.7v17.4c0,0,10.2,7.5,11.5,7.5s8.7-7.9,8.7-7.9V51.3z"/>
						<path class="st3" d="M124.1,52.7c0,0-10.5,5.2-18.3,2.4v15.7c0,0,9.2,6.8,10.4,6.8s7.9-7.1,7.9-7.1V52.7z"/>
						<path class="st4" d="M52.9,90.3c0,0,9,16.5,20.4,22.4c0,0-15.7-7.6-20.7-20.3L52.9,90.3"/>
						<path class="st4" d="M47.6,70.8c0,0-7.1-5.2-7.5-9.2L47.6,70.8"/>
						<path class="st4" d="M127.9,70.1c0,0,6.9-4.8,6.9-7.6C134.8,62.5,134.6,68.4,127.9,70.1z"/>
						<path class="st4" d="M53.5,56.2c0,0,7.4,4.1,15,3.3c0,0-8.6,1.5-15-2.4V56.2z"/>
						<path class="st4" d="M124.1,55.8c0,0-3.9,4-13.1,3.7c0,0,7.4,2.2,13.1-2.7V55.8z"/>
						<path class="st4" d="M93,128c0,0-1.7,22.3,4.7,19.3C97.7,147.3,93.5,152.3,93,128z"/>
						<path class="st4" d="M33.5,20.4c0,0,14.9,7.8,15.1,19c0,0,2.5-9.5-14.3-19.5L33.5,20.4z"/>
						<path class="st4" d="M141.7,18.9c0,0-7.4,0-10.3,19.7c0,0,4.4-18.7,11.4-18.8L141.7,18.9z"/>
					</g>
					<path class="st4" d="M8.8,151.8c0,0,8.5,3,13.6,0C22.4,151.8,15.3,157.4,8.8,151.8z"/>
					<path class="st4" d="M156.9,150.6c0,0,10.1,1.1,11.8-3.8C168.7,146.8,169.7,152.7,156.9,150.6z"/>
				</g>
				<path class="st3" d="M73.1,0.5c-4.7,2.6-9.7,4.7-14.8,6.2c0,0,16.6,14.5,21.8,16.5L85,7.9C85,7.9,82.5,4.4,73.1,0.5z"/>
				<path class="st4" d="M60.6,8.7c3.9,6.1,9.1,11.2,15.2,15.1v-3.2C75.8,20.5,64.1,12.8,60.6,8.7z"/>
				<path class="st4" d="M84.3,9.1c0,0-7.2,7.2-6.5,14.1l0.8-0.7C78.7,22.6,80.1,12.1,84.3,9.1z"/>
				<path class="st3" d="M104,0c0,0,8.8,6.7,13.4,8.7c0,0-15.7,13.7-20.8,15.7L91.7,9C91.7,9,95.4,3.8,104,0z"/>
				<path class="st4" d="M116.2,9.7c-3.9,6.1-9.2,11.3-15.3,15.1v-3.3C100.9,21.6,112.7,13.8,116.2,9.7z"/>
				<path class="st4" d="M92.4,10.2c0,0,7.2,7.2,6.5,14.2L98,23.7C98,23.7,96.6,13.3,92.4,10.2z"/>
				<path class="st8" d="M88.7,10L88.7,10c1.8,0,3.3,1.5,3.3,3.3v0c0,1.8-1.5,3.3-3.3,3.3h0c-1.8,0-3.3-1.5-3.3-3.3v0
					C85.4,11.5,86.9,10,88.7,10z"/>
				<path class="st9" d="M91.5,10.6c0,0,9.5-8.6,11.5-6.9S91.5,10.6,91.5,10.6z"/>
				<path class="st8" d="M102.9,3.7c0.5,2.1,0.6,4.2,0.2,6.3c-0.7,3,1.4,5.4,0.3,7.7s-11.9-2.4-11.9-2.4c0.7-1.5,0.7-3.2,0-4.7"/>
				<path class="st9" d="M92,12l6.6-3l-5.3,3h3.5L93,12.6v1.1l3.9,1.6L92,14.6C92.7,13.8,92.7,12.7,92,12z"/>
				<path class="st10" d="M101.3,5.4c0,0,0.7,4,0,5.6s0.8,5.7,0.8,5.7s-0.5-3.9,0-5.2S101.3,5.4,101.3,5.4z"/>
				<path class="st9" d="M86.3,11.2c0,0-9.6-8.6-11.4-6.9S86.3,11.2,86.3,11.2z"/>
				<path class="st8" d="M74.9,4.3c-0.5,2.1-0.6,4.2-0.2,6.3c0.7,3-1.4,5.4-0.3,7.7s11.9-2.4,11.9-2.4c-0.7-1.5-0.7-3.2,0-4.7"/>
				<path class="st9" d="M85.8,12.7l-6.6-3.1l5.3,3.1H81l3.8,0.6v1.1L81,15.9l4.9-0.7C85.2,14.5,85.1,13.4,85.8,12.7z"/>
				<path class="st10" d="M76.5,6.1c0,0-0.7,4,0,5.6s-0.8,5.7-0.8,5.7s0.5-3.9,0-5.2S76.5,6.1,76.5,6.1z"/>
				<path class="st9" d="M86.3,10.6c0,0,0.8,1,0,5.3C86.3,15.9,88.3,12.7,86.3,10.6z"/>
				<path class="st10" d="M87.7,12.1c0,0,2.7-1.2,3.8,0C91.5,12.1,88.4,8.5,87.7,12.1z"/>
				<path class="st9" d="M54.6,11.3c0,0,9.8,71.6,5.1,123.8l8,2.4c0,0,0-125.5-7.1-128.9L54.6,11.3z"/>
				<path class="st9" d="M122.8,12.3c0,0-10.3,70-5.7,122.2l-8,2.4c0,0,0.6-123.8,7.7-127.3L122.8,12.3z"/>
			</g>
			<g id="sfbpants">
				<g id="sbbpants">
					<path class="st11" d="M51.6,129.8c0,0,28.5,22.6,73.3,0c7.3,24.5,10.1,50.2,8.3,75.7c-3.2,41.2-6.9,51.6-6.9,54.6
						s3.5,42.9,3.5,45.9s-5.7,53.9-5.7,53.9s-6.3,5.2-11.8,5.7s-14.4-4.7-14.4-4.7s-7.3-59.9-6.2-69.2s3-28,2.6-35.5
						s-3.6-68.7-3.6-68.7l-3.8-0.5c0,0-2.2,59.1-4.7,68.5s-0.8,31.5,1,38.7s-4.4,66.5-4.4,66.5s-10.4,5-13.6,5s-12.1-7.7-12.1-7.7
						S47,293.8,48,291.1s3-30.3,3-34.8s-8.4-26.3-8.9-55.1S46.8,134.5,51.6,129.8z"/>
					<path class="st9" d="M113,201.5c0,0,3.3,69.5,2.3,73.1s-3.4,90.4-3.4,90.4l-2-0.3c0,0,2.8-87.1,2.8-90.4S113,201.5,113,201.5z"
						/>
					<path class="st9" d="M61.7,200c0,0-3.3,69.5-2.3,73.1s3.4,90.4,3.4,90.4l2-0.3c0,0-2.8-87.1-2.8-90.4S61.7,200,61.7,200z"/>
					<path class="st9" d="M49.9,132.8c0,0-2.7,4.1-2.2,7.5c0,0,23.7,8.1,39.3,8.2c16.2,0.1,40.8-8.2,40.8-8.2s0.2-6.8-2-7.5
						C125.8,132.8,97.2,151.8,49.9,132.8z"/>
					<path class="st12" d="M84.6,140.9h6.2c1.6,0,2.9,1.3,2.9,2.9v2.8c0,1.6-1.3,2.9-2.9,2.9h-6.2c-1.6,0-2.9-1.3-2.9-2.9v-2.8
						C81.7,142.2,83,140.9,84.6,140.9z"/>
					<path class="st9" d="M85.9,142.9h3.6c0.9,0,1.6,0.7,1.6,1.6v1.4c0,0.9-0.7,1.6-1.6,1.6h-3.6c-0.9,0-1.6-0.7-1.6-1.6v-1.4
						C84.3,143.6,85.1,142.9,85.9,142.9z"/>
				</g>
				<path class="st11" d="M73.3,139.5L73.3,139.5c0.7,0,1.2,0.5,1.2,1.2v6.5c0,0.7-0.5,1.2-1.2,1.2h0c-0.7,0-1.2-0.5-1.2-1.2v-6.5
					C72.1,140.1,72.6,139.5,73.3,139.5z"/>
				<path class="st11" d="M101.8,139.5L101.8,139.5c0.7,0,1.2,0.5,1.2,1.2v6.5c0,0.7-0.5,1.2-1.2,1.2h0c-0.7,0-1.2-0.5-1.2-1.2v-6.5
					C100.6,140.1,101.2,139.5,101.8,139.5z"/>
				<path class="st11" d="M120.6,134.4L120.6,134.4c0.7,0,1.2,0.5,1.2,1.2v6.5c0,0.7-0.5,1.2-1.2,1.2h0c-0.7,0-1.2-0.5-1.2-1.2v-6.5
					C119.4,134.9,120,134.4,120.6,134.4z"/>
				<path class="st11" d="M52.6,133.1L52.6,133.1c0.7,0,1.2,0.5,1.2,1.2v6.5c0,0.7-0.5,1.2-1.2,1.2l0,0c-0.7,0-1.2-0.5-1.2-1.2v-6.5
					C51.3,133.6,51.9,133.1,52.6,133.1z"/>
				<path class="st13" d="M59.7,135.1c0,0-1.9,1,0,2.4v1.3l8,1.8l0.2-1.8c0,0,1.3-1.1-0.2-1.6L59.7,135.1z"/>
				<path class="st13" d="M117.2,133.6c0,0,1.9,1,0,2.4v1.3l-8,1.8l-0.2-1.8c0,0-1.3-1.1,0.2-1.6L117.2,133.6z"/>
				<path class="st9" d="M106.7,156.7c0,0,6.7,11.8,22.6,9.3C129.3,165.9,113.7,171.4,106.7,156.7z"/>
				<path class="st9" d="M70.5,157.5c0,0-6.4,11.8-21.6,9.3C48.9,166.8,63.9,172.2,70.5,157.5z"/>
				<path class="st9" d="M85.3,159.4c0,0-3.2,24.5,2.9,24.2C88.2,183.6,83.3,182.4,85.3,159.4z"/>
			</g>
		</g>
	</g>
</g>
</svg>
