<svg xmlns="http://www.w3.org/2000/svg" viewBox="0 0 183 415"><defs><style>.cls-1{fill:none;}.cls-2{fill:#473319;}.cls-3{fill:#684b1e;}.cls-4{fill:#eaaca9;}.cls-5{fill:#ce8d8d;}.cls-6{fill:#666565;}.cls-7{fill:#543d3a;}.cls-8{fill:#42302d;}.cls-9{fill:#3a3a3a;}.cls-10{fill:#212121;}.cls-11{fill:#4c4c4c;}.cls-12{fill:#666;}.cls-13{fill:#343947;}.cls-14{fill:#272b35;}.cls-15{fill:#878589;}</style></defs><title>sfb2</title><g id="Layer_2" data-name="Layer 2"><g id="sfb2"><g id="sfb2-2" data-name="sfb2"><rect class="cls-1" width="183" height="415"/><g id="dressshoes"><g id="sbbshoes"><path class="cls-2" d="M53.86,379.47s-7.48,17,9.56,18.53c0,0,15.31,0,18.27-7.2,1.48-3.59-4-14.64-4-14.64s3.8,11.31,3,12.51-7.65,7.35-16.29,6.1S52.2,392,53.86,379.47"/><path class="cls-3" d="M58.76,365.74s-5.62,11.69-6.28,22c0,0,.57,7.31,10.94,8.06s17.77-5,17.78-7.1-5.37-22.93-5.37-22.93l-4.51,3c-.49-2.23-9.38-2.73-9.63,0Z"/><path class="cls-2" d="M54.44,389.31s2.72-1.65,4-1.73v.21a12.38,12.38,0,0,0-4,1.74Z"/><path class="cls-2" d="M60.34,387s3-.9,4.26-.65l0,.21a12.27,12.27,0,0,0-4.27.65Z"/><path class="cls-2" d="M65.89,386s3.1-.7,4.3-.38l-.07.2a12.45,12.45,0,0,0-4.29.39Z"/><path class="cls-2" d="M72.21,385.42s3.16-.33,4.31.13l-.09.19a12.61,12.61,0,0,0-4.32-.13Z"/><path class="cls-2" d="M77.91,385.78s3,1.06,3.85,2l-.16.14a12.53,12.53,0,0,0-3.85-2Z"/><path class="cls-2" d="M61.69,368.71l1.73,14.73S61.13,369.67,61.69,368.71Z"/><path class="cls-2" d="M71.15,383.57s.74-13.8.31-14.82l-.31,14.82"/><polyline class="cls-2" points="61.82 369.87 66.2 372.02 71.55 369.3 71.58 370.12 66.2 372.77 71.37 373.76 71.37 374.5 66.2 373.35 62.21 375.49 62.14 374.94 65.83 372.77 61.6 370.29 61.82 369.87"/><polyline class="cls-2" points="62.07 375.16 66.44 377.31 71.79 374.58 71.83 375.41 66.44 378.06 71.62 379.05 71.62 379.8 66.44 378.64 62.46 380.78 62.38 380.23 66.07 378.06 61.84 375.58 62.07 375.16"/><polyline class="cls-2" points="62.07 380.12 66.44 382.27 71.79 379.55 71.83 380.37 66.44 383.02 71.62 384.01 71.62 384.76 66.44 383.6 62.46 385.74 62.38 385.19 66.07 383.02 61.84 380.54 62.07 380.12"/></g><g id="sbbshoes-2" data-name="sbbshoes"><path class="cls-2" d="M125,378.38s7.48,17.05-9.56,18.54c0,0-15.31,0-18.27-7.2-1.48-3.59,4-14.64,4-14.64s-3.8,11.31-3,12.51,7.65,7.34,16.29,6.1,12.2-2.81,10.55-15.31"/><path class="cls-3" d="M120.13,364.65s5.61,11.7,6.28,22c0,0-.57,7.31-10.94,8.05s-17.77-5-17.78-7.09,5.37-22.94,5.37-22.94l4.51,3c.49-2.23,9.38-2.73,9.63,0Z"/><path class="cls-2" d="M124.45,388.23s-2.72-1.65-4-1.74v.22a12.38,12.38,0,0,1,4,1.74Z"/><path class="cls-2" d="M118.55,385.93s-3-.89-4.26-.65l0,.21a12.54,12.54,0,0,1,4.27.65Z"/><path class="cls-2" d="M113,384.9s-3.1-.7-4.3-.39l.07.21a12.34,12.34,0,0,1,4.29.38Z"/><path class="cls-2" d="M106.68,384.33s-3.16-.32-4.31.13l.09.2a12.34,12.34,0,0,1,4.32-.13Z"/><path class="cls-2" d="M101,384.7s-3,1.05-3.84,2l.16.14a12.3,12.3,0,0,1,3.85-2Z"/><path class="cls-2" d="M117.2,367.63l-1.73,14.73S117.76,368.58,117.2,367.63Z"/><path class="cls-2" d="M107.74,382.49s-.74-13.81-.31-14.83l.31,14.83"/><polyline class="cls-2" points="117.06 368.78 112.69 370.94 107.34 368.21 107.3 369.04 112.69 371.68 107.52 372.68 107.52 373.42 112.69 372.26 116.68 374.41 116.75 373.86 113.06 371.68 117.29 369.2 117.06 368.78"/><polyline class="cls-2" points="116.82 374.07 112.44 376.23 107.1 373.5 107.06 374.33 112.44 376.98 107.27 377.97 107.27 378.71 112.44 377.55 116.43 379.7 116.51 379.15 112.82 376.98 117.05 374.49 116.82 374.07"/><polyline class="cls-2" points="116.82 379.03 112.44 381.19 107.1 378.46 107.06 379.29 112.44 381.94 107.27 382.93 107.27 383.67 112.44 382.51 116.43 384.66 116.51 384.11 112.82 381.94 117.05 379.45 116.82 379.03"/></g></g><g id="sfbshirt2"><g id="shirt"><path class="cls-4" d="M69.91,6.05s-35,12.76-38.31,16.56-7.24,19.53-6.42,29.45c0,0-16.14,55-15.48,69.6l-.9,30.67-1.57-1.16,1.7,14.37s10.05,1.71,14-2.11l2.6-10.93-1.15-.17s14-26.92,14.16-30.67,9.71-47.92,9.71-47.92,3,17.87,2.8,21.84,1.81,32.76,1.81,32.76l-2.93,12.83s33.44,23.58,77.06.36l-3.16-13.69s1-26.8.16-34.41l6.26-16.38s8.07,48.81,14.82,62l8.23,12.58H151.8l3.73,7.46s8.14,2.82,12.82-.83l1.42-9.61h-1s-1-38.55-2.64-43.51S155.91,57.86,153,52.89c0,0,2.3-26.14-10.37-33.42,0,0-28.67-8-35.74-12.53,0,0-3.39,4.69-17.71,6.35S69.91,6.05,69.91,6.05Z"/><g id="sbbshirt2"><path class="cls-5" d="M86,14.72l2.38,133.94s2.34-.11,2.9-.11l.82-134Z"/><path class="cls-4" d="M89.53,15.41s-.94-1-.94,2V148.65h.73S89.2,17.35,89.53,15.41Z"/><ellipse class="cls-6" cx="88.59" cy="36.77" rx="1.59" ry="1.6"/><path class="cls-7" d="M89,35.54s-1.45-.13-1.67.87a1.41,1.41,0,0,0,1.24,1.71S86.12,36.41,89,35.54Z"/><circle class="cls-7" cx="88.59" cy="36.87" r="0.37"/><ellipse class="cls-6" cx="88.91" cy="25.04" rx="1.59" ry="1.6"/><path class="cls-7" d="M89.34,23.81s-1.45-.14-1.67.86a1.41,1.41,0,0,0,1.24,1.71S86.43,24.67,89.34,23.81Z"/><circle class="cls-7" cx="88.91" cy="25.14" r="0.37"/><ellipse class="cls-6" cx="88.76" cy="50.11" rx="1.59" ry="1.6"/><path class="cls-7" d="M89.19,48.88s-1.45-.13-1.67.87a1.41,1.41,0,0,0,1.24,1.71S86.29,49.75,89.19,48.88Z"/><circle class="cls-7" cx="88.76" cy="50.21" r="0.37"/><ellipse class="cls-6" cx="89.04" cy="65.82" rx="1.59" ry="1.6"/><path class="cls-7" d="M89.47,64.59s-1.44-.13-1.66.87A1.39,1.39,0,0,0,89,67.16S86.57,65.46,89.47,64.59Z"/><circle class="cls-7" cx="89.04" cy="65.92" r="0.37"/><ellipse class="cls-6" cx="89.21" cy="79.16" rx="1.59" ry="1.6"/><path class="cls-7" d="M89.64,77.93S88.2,77.8,88,78.8a1.41,1.41,0,0,0,1.24,1.71S86.74,78.8,89.64,77.93Z"/><circle class="cls-7" cx="89.21" cy="79.26" r="0.37"/><ellipse class="cls-6" cx="89.17" cy="92.5" rx="1.59" ry="1.6"/><path class="cls-7" d="M89.6,91.27s-1.45-.13-1.67.87a1.41,1.41,0,0,0,1.24,1.71S86.7,92.14,89.6,91.27Z"/><circle class="cls-7" cx="89.17" cy="92.6" r="0.37"/><ellipse class="cls-6" cx="89.34" cy="105.84" rx="1.59" ry="1.6"/><path class="cls-7" d="M89.77,104.61s-1.45-.13-1.67.87a1.41,1.41,0,0,0,1.24,1.71S86.86,105.48,89.77,104.61Z"/><circle class="cls-7" cx="89.34" cy="105.94" r="0.37"/><ellipse class="cls-6" cx="89.51" cy="116.48" rx="1.59" ry="1.6"/><path class="cls-7" d="M90,115.25s-1.45-.13-1.67.87a1.4,1.4,0,0,0,1.23,1.71S87,116.12,90,115.25Z"/><circle class="cls-7" cx="89.51" cy="116.59" r="0.37"/><ellipse class="cls-6" cx="89.68" cy="129.82" rx="1.59" ry="1.6"/><path class="cls-7" d="M90.11,128.59s-1.44-.13-1.67.87a1.41,1.41,0,0,0,1.24,1.71S87.21,129.46,90.11,128.59Z"/><circle class="cls-7" cx="89.68" cy="129.93" r="0.37"/><ellipse class="cls-6" cx="89.71" cy="144.17" rx="1.59" ry="1.6"/><ellipse class="cls-8" cx="22.51" cy="154.33" rx="1.09" ry="1.1"/><ellipse class="cls-8" cx="155.83" cy="154.12" rx="1.09" ry="1.1"/><path class="cls-7" d="M90.14,142.94s-1.45-.13-1.67.87a1.41,1.41,0,0,0,1.24,1.71S87.23,143.81,90.14,142.94Z"/><circle class="cls-7" cx="89.71" cy="144.27" r="0.37"/><path class="cls-5" d="M53.05,52.33S64.66,58.11,73.3,55V72.38s-10.21,7.5-11.53,7.5S53.05,72,53.05,72Z"/><path class="cls-4" d="M53.53,53.65S64,58.87,71.84,56V71.78s-9.24,6.78-10.43,6.78-7.88-7.12-7.88-7.12Z"/><path class="cls-5" d="M124.62,51.89s-11.6,5.77-20.25,2.64V71.94s10.22,7.49,11.53,7.49,8.72-7.86,8.72-7.86Z"/><path class="cls-4" d="M124.15,53.21s-10.5,5.22-18.31,2.38V71.34s9.24,6.77,10.42,6.77S124.15,71,124.15,71Z"/><path class="cls-5" d="M52.87,90.85s9,16.49,20.43,22.44c0,0-15.71-7.54-20.73-20.31l.3-2.13"/><path class="cls-5" d="M47.58,71.38s-7.12-5.24-7.45-9.21l7.45,9.21"/><path class="cls-5" d="M127.89,70.61s6.91-4.8,6.91-7.61C134.8,63,134.64,69,127.89,70.61Z"/><path class="cls-5" d="M53.53,56.73s7.37,4.09,15,3.29c0,0-8.58,1.55-15-2.36Z"/><path class="cls-5" d="M124.15,56.29s-3.86,4-13.12,3.73c0,0,7.4,2.23,13.12-2.67Z"/><path class="cls-5" d="M93,128.59s-1.66,22.26,4.69,19.28C97.67,147.87,93.48,152.82,93,128.59Z"/><path class="cls-5" d="M33.47,21s14.89,7.8,15.14,19c0,0,2.48-9.48-14.31-19.52Z"/><path class="cls-5" d="M141.68,19.43s-7.37.05-10.33,19.74c0,0,4.42-18.7,11.43-18.78Z"/></g><path class="cls-5" d="M8.8,152.33s8.48,3,13.58,0C22.38,152.33,15.32,158,8.8,152.33Z"/><path class="cls-5" d="M156.92,151.17s10.12,1.07,11.8-3.81C168.72,147.36,169.7,153.24,156.92,151.17Z"/></g><path class="cls-4" d="M73.15,1A77.35,77.35,0,0,1,58.33,7.25S74.9,21.73,80.09,23.8L85,8.41S82.53,5,73.15,1Z"/><path class="cls-5" d="M60.62,9.22A48.29,48.29,0,0,0,75.81,24.29V21S64.14,13.3,60.62,9.22Z"/><path class="cls-5" d="M84.33,9.65S77.1,16.83,77.84,23.8l.85-.69S80.07,12.66,84.33,9.65Z"/><path class="cls-4" d="M104,.55s8.8,6.69,13.44,8.67c0,0-15.66,13.66-20.85,15.72L91.69,9.56S95.39,4.4,104,.55Z"/><path class="cls-5" d="M116.25,10.29a49.59,49.59,0,0,1-15.34,15.14V22.18S112.73,14.37,116.25,10.29Z"/><path class="cls-5" d="M92.39,10.79S99.61,18,98.87,24.94L98,24.25S96.65,13.81,92.39,10.79Z"/><rect class="cls-9" x="85.38" y="10.51" width="6.66" height="6.69" rx="3.33" ry="3.33"/><path class="cls-10" d="M91.46,11.16s9.56-8.6,11.46-6.94S91.46,11.16,91.46,11.16Z"/><path class="cls-9" d="M102.92,4.22a15.29,15.29,0,0,1,.18,6.29c-.68,3,1.36,5.37.26,7.69s-11.9-2.36-11.9-2.36a5.36,5.36,0,0,0,0-4.68"/><path class="cls-10" d="M92,12.59l6.59-3.08-5.27,3.08h3.46L93,13.17,93,14.23l3.87,1.61L92,15.11A1.87,1.87,0,0,0,92,12.59Z"/><path class="cls-11" d="M101.32,6s.71,4,0,5.56.77,5.66.77,5.66-.49-3.87,0-5.2S101.32,6,101.32,6Z"/><path class="cls-10" d="M86.35,11.8S76.79,3.21,74.9,4.86,86.35,11.8,86.35,11.8Z"/><path class="cls-9" d="M74.9,4.86a15.2,15.2,0,0,0-.19,6.29c.68,3-1.36,5.37-.26,7.69s11.9-2.35,11.9-2.35a5.39,5.39,0,0,1,0-4.69"/><path class="cls-10" d="M85.78,13.23l-6.6-3.08,5.28,3.08H81l3.83.58,0,1.06-3.87,1.62,4.87-.74A1.87,1.87,0,0,1,85.78,13.23Z"/><path class="cls-11" d="M76.49,6.61s-.71,4,0,5.56-.77,5.67-.77,5.67.49-3.88,0-5.2S76.49,6.61,76.49,6.61Z"/><path class="cls-10" d="M86.35,11.16s.81,1,0,5.33C86.35,16.49,88.31,13.21,86.35,11.16Z"/><path class="cls-11" d="M87.67,12.68s2.71-1.21,3.79,0C91.46,12.68,88.4,9.06,87.67,12.68Z"/><path class="cls-12" d="M54.59,11.87s9.77,71.59,5.12,123.81l8,2.44S67.66,12.68,60.62,9.22Z"/><path class="cls-12" d="M122.82,12.88s-10.34,70-5.69,122.18l-8,2.45s.64-123.83,7.68-127.29Z"/></g><g id="sfbpants2"><g id="sbbpants"><path class="cls-13" d="M52.36,130.8s28.46,22.63,73.3,0a214.19,214.19,0,0,1,8.26,75.73c-3.21,41.2-6.91,51.62-6.91,54.6s3.45,42.93,3.45,45.91-5.68,53.85-5.68,53.85-6.33,5.22-11.81,5.71-14.37-4.71-14.37-4.71-7.34-59.81-6.26-69.24,3-28,2.56-35.49-3.63-68.75-3.63-68.75l-3.78-.49S85.27,247,82.8,256.41s-.74,31.52,1,38.72-4.45,66.51-4.45,66.51-10.37,5-13.58,5-12.11-7.7-12.11-7.7-5.92-64-4.94-66.76,3-30.28,3-34.74-8.4-26.31-8.89-55.1S47.59,135.52,52.36,130.8Z"/><path class="cls-14" d="M113.76,202.56s3.29,69.49,2.3,73.13-3.37,90.42-3.37,90.42l-2-.34s2.82-87.1,2.79-90.41S113.76,202.56,113.76,202.56Z"/><path class="cls-14" d="M62.5,201.07s-3.29,69.49-2.3,73.13,3.37,90.42,3.37,90.42l2-.34s-2.82-87.1-2.79-90.41S62.5,201.07,62.5,201.07Z"/><path class="cls-10" d="M50.63,133.87S48,138,48.43,141.38c0,0,23.66,8.09,39.29,8.18,16.24.08,40.83-8.16,40.83-8.16s.16-6.84-2-7.53C126.59,133.87,97.94,152.83,50.63,133.87Z"/><rect class="cls-15" x="82.47" y="141.91" width="12.04" height="8.64" rx="2.9" ry="2.9"/><rect class="cls-10" x="85.09" y="143.96" width="6.81" height="4.61" rx="1.59" ry="1.59"/></g><rect class="cls-13" x="72.83" y="140.58" width="2.43" height="8.97" rx="1.22" ry="1.22"/><rect class="cls-13" x="101.36" y="140.58" width="2.43" height="8.97" rx="1.22" ry="1.22"/><rect class="cls-13" x="120.17" y="135.43" width="2.43" height="8.97" rx="1.22" ry="1.22"/><rect class="cls-13" x="52.1" y="134.13" width="2.43" height="8.97" rx="1.22" ry="1.22"/><path class="cls-15" d="M60.46,136.17s-1.89,1,0,2.45v1.29l8,1.8.23-1.8s1.27-1.15-.23-1.57Z"/><path class="cls-15" d="M118,134.62s1.9,1,0,2.45v1.29l-8,1.8-.23-1.8s-1.27-1.15.23-1.57Z"/><path class="cls-14" d="M107.5,157.72s6.66,11.75,22.59,9.27C130.09,167,114.41,172.44,107.5,157.72Z"/><path class="cls-14" d="M71.25,158.52s-6.36,11.75-21.57,9.27C49.68,167.79,64.65,173.24,71.25,158.52Z"/><path class="cls-14" d="M86.09,160.47S82.85,184.94,89,184.69C89,184.69,84.09,183.41,86.09,160.47Z"/></g></g></g></g></svg>