<svg xmlns="http://www.w3.org/2000/svg" viewBox="0 0 329.05 800.73"><defs><style>.cls-1{fill:#473319;}.cls-2{fill:#684b1e;}.cls-3{fill:#eaaca9;}.cls-4{fill:#ce8d8d;}.cls-5{fill:#666565;}.cls-6{fill:#543d3a;}.cls-7{fill:#42302d;}.cls-8{fill:#3a3a3a;}.cls-9{fill:#212121;}.cls-10{fill:#4c4c4c;}.cls-11{fill:#666;}.cls-12{fill:#343947;}.cls-13{fill:#272b35;}.cls-14{fill:#878589;}</style></defs><title>sfb2</title><g id="Layer_2" data-name="Layer 2"><g id="sfb2"><g id="sfb2-2" data-name="sfb2"><g id="dressshoes"><g id="sbbshoes"><path class="cls-1" d="M94.39,763.39s-15.14,34.34,19.36,37.34c0,0,31,0,37-14.5,3-7.23-8-29.5-8-29.5s7.69,22.78,6,25.21-15.5,14.8-33,12.29S91,788.56,94.39,763.39"/><path class="cls-2" d="M104.31,735.73S93,759.29,91.6,780c0,0,1.15,14.72,22.15,16.22s36-10.05,36-14.29-10.87-46.21-10.87-46.21l-9.13,6c-1-4.5-19-5.5-19.5,0Z"/><path class="cls-1" d="M95.58,783.23s5.5-3.34,8-3.5v.44s-5.17,1.25-8,3.5Z"/><path class="cls-1" d="M107.51,778.6s6.17-1.8,8.63-1.31l-.11.42s-5.32-.13-8.64,1.32Z"/><path class="cls-1" d="M118.76,776.52s6.27-1.41,8.7-.78l-.14.42s-5.3-.46-8.7.77Z"/><path class="cls-1" d="M131.54,775.37s6.4-.65,8.73.27l-.19.4s-5.2-1.09-8.73-.27Z"/><path class="cls-1" d="M143.09,776.12s6.07,2.12,7.79,3.94l-.34.28s-4.25-3.19-7.78-4Z"/><path class="cls-1" d="M110.24,741.73l3.51,29.66S109.11,743.65,110.24,741.73Z"/><path class="cls-1" d="M129.4,771.66s1.49-27.81.63-29.87l-.63,29.87"/><polyline class="cls-1" points="110.52 744.05 119.38 748.39 130.21 742.9 130.28 744.56 119.38 749.89 129.85 751.89 129.85 753.39 119.38 751.06 111.31 755.39 111.15 754.27 118.62 749.89 110.06 744.89 110.52 744.05"/><polyline class="cls-1" points="111.01 754.71 119.87 759.05 130.7 753.56 130.78 755.22 119.87 760.55 130.34 762.55 130.34 764.05 119.87 761.72 111.8 766.04 111.65 764.93 119.11 760.55 110.56 755.55 111.01 754.71"/><polyline class="cls-1" points="111.01 764.7 119.87 769.04 130.7 763.55 130.78 765.21 119.87 770.54 130.34 772.54 130.34 774.04 119.87 771.71 111.8 776.04 111.65 774.92 119.11 770.54 110.56 765.54 111.01 764.7"/></g><g id="sbbshoes-2" data-name="sbbshoes"><path class="cls-1" d="M238.48,761.21s15.14,34.33-19.35,37.33c0,0-31,0-37-14.5-3-7.23,8-29.5,8-29.5s-7.69,22.79-6,25.21,15.51,14.8,33,12.29,24.71-5.67,21.36-30.83"/><path class="cls-2" d="M228.56,733.54s11.36,23.56,12.72,44.28c0,0-1.16,14.72-22.15,16.22s-36-10-36-14.29S194,733.54,194,733.54l9.13,6c1-4.5,19-5.5,19.5,0Z"/><path class="cls-1" d="M237.29,781s-5.5-3.33-8-3.5V778s5.17,1.25,8,3.5Z"/><path class="cls-1" d="M225.36,776.42s-6.17-1.8-8.63-1.32l.11.43s5.32-.13,8.64,1.31Z"/><path class="cls-1" d="M214.11,774.33s-6.27-1.41-8.69-.77l.14.41s5.29-.45,8.69.78Z"/><path class="cls-1" d="M201.33,773.19s-6.39-.65-8.72.27l.18.39s5.21-1.08,8.73-.26Z"/><path class="cls-1" d="M189.78,773.93s-6.07,2.13-7.79,4l.34.28s4.25-3.19,7.79-3.95Z"/><path class="cls-1" d="M222.63,739.54l-3.5,29.67S223.76,741.46,222.63,739.54Z"/><path class="cls-1" d="M203.47,769.48s-1.49-27.81-.63-29.87l.63,29.87"/><polyline class="cls-1" points="222.35 741.87 213.49 746.21 202.67 740.71 202.59 742.38 213.49 747.71 203.02 749.71 203.02 751.21 213.49 748.88 221.57 753.2 221.72 752.09 214.25 747.71 222.81 742.71 222.35 741.87"/><polyline class="cls-1" points="221.86 752.52 213 756.87 202.17 751.37 202.1 753.03 213 758.37 202.53 760.37 202.53 761.87 213 759.54 221.07 763.86 221.22 762.74 213.76 758.37 222.31 753.37 221.86 752.52"/><polyline class="cls-1" points="221.86 762.52 213 766.86 202.17 761.37 202.1 763.03 213 768.36 202.53 770.36 202.53 771.86 213 769.53 221.07 773.85 221.22 772.74 213.76 768.36 222.31 763.36 221.86 762.52"/></g></g><g id="sfbshirt2"><g id="shirt"><path class="cls-3" d="M126.89,11.09S56,36.79,49.33,44.45s-14.66,39.34-13,59.34c0,0-32.66,110.75-31.33,140.22L3.18,305.79,0,303.45,3.44,332.4s20.35,3.45,28.29-4.25l5.27-22-2.33-.33S63,251.56,63.33,244,83,147.45,83,147.45s6,36,5.67,44,3.66,66,3.66,66L86.39,283.3s67.71,47.52,156,.73L236,256.45s2-54,.33-69.33l12.67-33s16.33,98.33,30,125l16.67,25.33h-3l7.55,15s16.48,5.68,26-1.67l2.87-19.36H327s-2-77.66-5.33-87.66S301,115.45,295,105.45c0,0,4.67-52.66-21-67.33,0,0-58-16.16-72.35-25.25,0,0-6.85,9.46-35.85,12.8S126.89,11.09,126.89,11.09Z"/><g id="sbbshirt2"><path class="cls-4" d="M159.45,28.55l4.82,269.85s4.73-.23,5.87-.23l1.65-270Z"/><path class="cls-3" d="M166.6,29.93s-1.89-1.95-1.89,4v264.4l1.47,0S165.94,33.85,166.6,29.93Z"/><circle class="cls-5" cx="164.71" cy="72.98" r="3.22"/><path class="cls-6" d="M165.58,70.5s-2.93-.27-3.38,1.75a2.83,2.83,0,0,0,2.51,3.43S159.7,72.25,165.58,70.5Z"/><circle class="cls-6" cx="164.71" cy="73.18" r="0.75"/><circle class="cls-5" cx="165.35" cy="49.33" r="3.22"/><path class="cls-6" d="M166.22,46.85s-2.93-.27-3.38,1.75A2.84,2.84,0,0,0,165.35,52S160.34,48.6,166.22,46.85Z"/><circle class="cls-6" cx="165.35" cy="49.54" r="0.75"/><circle class="cls-5" cx="165.05" cy="99.85" r="3.22"/><path class="cls-6" d="M165.92,97.37s-2.93-.27-3.38,1.75a2.84,2.84,0,0,0,2.51,3.44S160,99.12,165.92,97.37Z"/><circle class="cls-6" cx="165.05" cy="100.06" r="0.75"/><circle class="cls-5" cx="165.63" cy="131.5" r="3.22"/><path class="cls-6" d="M166.5,129s-2.93-.27-3.38,1.75a2.85,2.85,0,0,0,2.51,3.44S160.62,130.77,166.5,129Z"/><circle class="cls-6" cx="165.63" cy="131.71" r="0.75"/><circle class="cls-5" cx="165.96" cy="158.38" r="3.22"/><path class="cls-6" d="M166.83,155.9s-2.92-.27-3.37,1.75a2.84,2.84,0,0,0,2.5,3.44S161,157.65,166.83,155.9Z"/><circle class="cls-6" cx="165.96" cy="158.58" r="0.75"/><circle class="cls-5" cx="165.88" cy="185.25" r="3.22"/><path class="cls-6" d="M166.75,182.77s-2.93-.27-3.38,1.75a2.85,2.85,0,0,0,2.51,3.44S160.87,184.52,166.75,182.77Z"/><circle class="cls-6" cx="165.88" cy="185.46" r="0.75"/><circle class="cls-5" cx="166.21" cy="212.13" r="3.22"/><path class="cls-6" d="M167.09,209.65s-2.93-.27-3.38,1.75a2.84,2.84,0,0,0,2.5,3.44S161.21,211.4,167.09,209.65Z"/><circle class="cls-6" cx="166.21" cy="212.34" r="0.75"/><circle class="cls-5" cx="166.58" cy="233.57" r="3.22"/><path class="cls-6" d="M167.45,231.09s-2.93-.27-3.38,1.75a2.85,2.85,0,0,0,2.51,3.44S161.57,232.84,167.45,231.09Z"/><circle class="cls-6" cx="166.58" cy="233.78" r="0.75"/><circle class="cls-5" cx="166.92" cy="260.45" r="3.22"/><path class="cls-6" d="M167.79,258s-2.93-.27-3.38,1.75a2.85,2.85,0,0,0,2.51,3.44S161.91,259.72,167.79,258Z"/><circle class="cls-6" cx="166.92" cy="260.66" r="0.75"/><circle class="cls-5" cx="166.96" cy="289.35" r="3.22"/><circle class="cls-7" cx="30.93" cy="309.82" r="2.21"/><circle class="cls-7" cx="300.83" cy="309.4" r="2.21"/><path class="cls-6" d="M167.84,286.87s-2.93-.27-3.38,1.75a2.84,2.84,0,0,0,2.5,3.44S162,288.62,167.84,286.87Z"/><circle class="cls-6" cx="166.96" cy="289.56" r="0.75"/><path class="cls-4" d="M92.76,104.32s23.5,11.64,41,5.32v35.08s-20.69,15.1-23.34,15.1S92.76,144,92.76,144Z"/><path class="cls-3" d="M93.72,107s21.25,10.53,37.07,4.81v31.72s-18.7,13.65-21.1,13.65-16-14.33-16-14.33Z"/><path class="cls-4" d="M237.66,103.43s-23.5,11.64-41,5.32v35.08s20.68,15.1,23.34,15.1,17.66-15.85,17.66-15.85Z"/><path class="cls-3" d="M236.69,106.09s-21.25,10.52-37.07,4.81v31.71s18.7,13.66,21.11,13.66,16-14.34,16-14.34Z"/><path class="cls-4" d="M92.39,181.93s18.25,33.21,41.37,45.21c0,0-31.81-15.2-42-40.93l.61-4.28"/><path class="cls-4" d="M81.69,142.7S67.27,132.14,66.6,124.14L81.69,142.7"/><path class="cls-4" d="M244.27,141.14s14-9.66,14-15.33C258.27,125.81,257.93,137.81,244.27,141.14Z"/><path class="cls-4" d="M93.72,113.18s14.92,8.25,30.3,6.63c0,0-17.38,3.12-30.3-4.75Z"/><path class="cls-4" d="M236.69,112.31s-7.8,8-26.55,7.5c0,0,15,4.5,26.55-5.38Z"/><path class="cls-4" d="M173.6,258s-3.37,44.85,9.48,38.85C183.08,296.81,174.6,306.77,173.6,258Z"/><path class="cls-4" d="M53.11,41.1S83.27,56.81,83.77,79.31c0,0,5-19.12-29-39.34Z"/><path class="cls-4" d="M272.19,38s-14.92.11-20.92,39.78c0,0,8.94-37.68,23.14-37.84Z"/></g><path class="cls-4" d="M3.18,305.79s17.15,6,27.49,0C30.67,305.79,16.36,317.12,3.18,305.79Z"/><path class="cls-4" d="M303,303.45s20.48,2.16,23.89-7.67C326.93,295.78,328.91,307.62,303,303.45Z"/></g><path class="cls-3" d="M133.45,1a157.23,157.23,0,0,1-30,12.5s33.54,29.18,44,33.34l10-31S152.44,8.88,133.45,1Z"/><path class="cls-4" d="M108.09,17.47s9.53,16.87,30.74,30.36V41.27S115.2,25.69,108.09,17.47Z"/><path class="cls-4" d="M156.08,18.33S141.45,32.81,143,46.84l1.71-1.39S147.45,24.4,156.08,18.33Z"/><path class="cls-3" d="M196,0s17.83,13.48,27.22,17.47c0,0-31.72,27.51-42.22,31.68l-10-31S178.47,7.75,196,0Z"/><path class="cls-4" d="M220.69,19.62s-9.83,17-31,30.52V43.58S213.58,27.84,220.69,19.62Z"/><path class="cls-4" d="M172.4,20.63S187,35.12,185.52,49.15l-1.71-1.4S181,26.71,172.4,20.63Z"/><rect class="cls-8" x="158.21" y="20.06" width="13.47" height="13.47" rx="4.2" ry="4.2"/><path class="cls-9" d="M170.52,21.37s19.35-17.31,23.19-14S170.52,21.37,170.52,21.37Z"/><path class="cls-8" d="M193.71,7.39s1.74,6.67.37,12.67,2.76,10.83.53,15.5-24.09-4.74-24.09-4.74,2.31-3.63,0-9.45"/><path class="cls-9" d="M171.68,24.26,185,18.06l-10.69,6.2h7l-7.75,1.16.09,2.14,7.83,3.26-9.86-1.49A3.74,3.74,0,0,0,171.68,24.26Z"/><path class="cls-10" d="M190.48,10.93s1.44,8.1,0,11.2S192,33.53,192,33.53s-1-7.8,0-10.47S190.48,10.93,190.48,10.93Z"/><path class="cls-9" d="M160.17,22.67S140.82,5.35,137,8.69,160.17,22.67,160.17,22.67Z"/><path class="cls-8" d="M137,8.69s-1.74,6.66-.37,12.66-2.76,10.84-.53,15.5,24.09-4.74,24.09-4.74-2.31-3.63,0-9.44"/><path class="cls-9" d="M159,25.56l-13.36-6.21,10.69,6.21h-7l7.75,1.16L157,28.85l-7.83,3.26L159,30.62A3.73,3.73,0,0,1,159,25.56Z"/><path class="cls-10" d="M140.21,12.22s-1.44,8.1,0,11.2-1.56,11.41-1.56,11.41,1-7.81,0-10.48S140.21,12.22,140.21,12.22Z"/><path class="cls-9" d="M160.17,21.37s1.64,1.95,0,10.74C160.17,32.11,164.14,25.52,160.17,21.37Z"/><path class="cls-10" d="M162.84,24.44s5.5-2.43,7.68,0C170.52,24.44,164.31,17.15,162.84,24.44Z"/><path class="cls-11" d="M95.88,22.82s19.78,144.23,10.36,249.42l16.25,4.93s-.15-252.73-14.4-259.7Z"/><path class="cls-11" d="M234,24.84s-20.92,141-11.51,246.16l-16.24,4.93s1.28-249.47,15.54-256.44Z"/></g><g id="sfbpants2"><g id="sbbpants"><path class="cls-12" d="M91.35,262.4s57.62,45.6,148.41,0c0,0,23.22,69.58,16.72,152.58s-14,104-14,110,7,86.5,7,92.5S238,726,238,726s-12.83,10.51-23.91,11.51S185,728,185,728s-14.87-120.5-12.69-139.5,6.19-56.5,5.19-71.5-7.34-138.5-7.34-138.5l-7.66-1s-4.5,119-9.5,138-1.5,63.5,2,78-9,134-9,134-21,10-27.5,10S94,722,94,722,82,593,84,587.48s6-61,6-70-17-53-18-111S81.7,271.92,91.35,262.4Z"/><path class="cls-13" d="M215.66,407s6.66,140,4.66,147.33-6.83,182.17-6.83,182.17l-4.06-.68s5.71-175.49,5.64-182.15S215.66,407,215.66,407Z"/><path class="cls-13" d="M111.89,404s-6.67,140-4.67,147.33,6.84,182.17,6.84,182.17l4-.68s-5.7-175.49-5.63-182.15S111.89,404,111.89,404Z"/><path class="cls-9" d="M87.85,268.59s-5.41,8.29-4.45,15.13c0,0,47.91,16.31,79.54,16.48,32.88.18,82.66-16.43,82.66-16.43s.33-13.79-4-15.18C241.64,268.59,183.63,306.79,87.85,268.59Z"/><rect class="cls-14" x="152.32" y="284.79" width="24.37" height="17.41" rx="2.9" ry="2.9"/><rect class="cls-9" x="157.63" y="288.93" width="13.78" height="9.28" rx="1.59" ry="1.59"/></g><rect class="cls-12" x="132.81" y="282.12" width="4.93" height="18.08" rx="1.47" ry="1.47"/><rect class="cls-12" x="190.56" y="282.12" width="4.93" height="18.08" rx="1.47" ry="1.47"/><rect class="cls-12" x="228.64" y="271.73" width="4.93" height="18.08" rx="1.47" ry="1.47"/><rect class="cls-12" x="90.84" y="269.13" width="4.93" height="18.08" rx="1.47" ry="1.47"/><path class="cls-14" d="M107.76,273.24s-3.83,2,0,4.93v2.6L124,284.4l.47-3.63s2.56-2.31-.47-3.17Z"/><path class="cls-14" d="M224.15,270.11s3.83,2,0,4.93v2.61l-16.25,3.62-.46-3.62s-2.57-2.32.46-3.17Z"/><path class="cls-13" d="M203,316.64s13.5,23.67,45.75,18.67C248.73,335.31,217,346.3,203,316.64Z"/><path class="cls-13" d="M129.6,318.26s-12.88,23.68-43.67,18.68C85.93,336.94,116.24,347.92,129.6,318.26Z"/><path class="cls-13" d="M159.65,322.19s-6.56,49.29,5.89,48.79C165.54,371,155.59,368.41,159.65,322.19Z"/></g></g></g></g></svg>