<svg xmlns="http://www.w3.org/2000/svg" viewBox="0 0 336.58 815.59"><defs><style>.cls-1{fill:#473319;}.cls-2{fill:#684b1e;}.cls-3{fill:#b2b2b2;}.cls-4{fill:#212121;}.cls-5{fill:#8c8357;}.cls-6{fill:#a39662;}.cls-7{fill:#969696;}.cls-8{fill:#d3d2af;}.cls-9{fill:#c6c49e;}.cls-10{fill:#d8d8bc;}.cls-11{fill:#1b1d23;}.cls-12{fill:#3b3c49;}.cls-13{fill:#afafaf;}.cls-14{fill:#d8d8d8;}.cls-15{fill:#937855;}.cls-16{fill:#896c4d;}.cls-17{fill:#773d3a;}.cls-18{fill:#663231;}.cls-19{fill:#42311f;}</style></defs><title>snbb2</title><g id="Layer_2" data-name="Layer 2"><g id="snbb2"><g id="snbb2-2" data-name="snbb2"><g id="dressshoes"><g id="sbbshoes"><path class="cls-1" d="M95.62,778.25S80.47,812.59,115,815.59c0,0,31,0,37-14.5,3-7.23-8-29.5-8-29.5s7.68,22.78,6,25.21-15.5,14.8-33,12.29-24.7-5.67-21.35-30.84"/><path class="cls-2" d="M105.53,750.59s-11.36,23.56-12.71,44.28c0,0,1.15,14.72,22.15,16.22S151,801,151,796.8s-10.86-46.21-10.86-46.21l-9.13,6c-1-4.5-19-5.5-19.5,0Z"/><path class="cls-1" d="M96.8,798.09s5.5-3.34,8-3.5V795s-5.17,1.25-8,3.5Z"/><path class="cls-1" d="M108.73,793.46s6.18-1.8,8.63-1.31l-.11.42s-5.31-.13-8.63,1.32Z"/><path class="cls-1" d="M120,791.38s6.28-1.41,8.7-.78l-.14.42s-5.3-.46-8.7.77Z"/><path class="cls-1" d="M132.76,790.23s6.4-.65,8.73.27l-.19.4s-5.2-1.09-8.73-.27Z"/><path class="cls-1" d="M144.32,791s6.07,2.13,7.79,3.95l-.34.28s-4.25-3.19-7.79-4Z"/><path class="cls-1" d="M111.47,756.59l3.5,29.66S110.33,758.51,111.47,756.59Z"/><path class="cls-1" d="M130.62,786.52s1.49-27.81.63-29.87l-.63,29.87"/><polyline class="cls-1" points="111.74 758.91 120.6 763.25 131.43 757.76 131.5 759.42 120.6 764.75 131.07 766.75 131.07 768.25 120.6 765.92 112.53 770.25 112.38 769.13 119.84 764.75 111.29 759.75 111.74 758.91"/><polyline class="cls-1" points="112.24 769.57 121.1 773.91 131.92 768.42 132 770.08 121.1 775.41 131.57 777.41 131.57 778.91 121.1 776.58 113.02 780.9 112.87 779.79 120.34 775.41 111.78 770.41 112.24 769.57"/><polyline class="cls-1" points="112.24 779.56 121.1 783.9 131.92 778.41 132 780.07 121.1 785.4 131.57 787.4 131.57 788.9 121.1 786.57 113.02 790.9 112.87 789.78 120.34 785.4 111.78 780.4 112.24 779.56"/></g><g id="sbbshoes-2" data-name="sbbshoes"><path class="cls-1" d="M239.7,776.07s15.15,34.33-19.35,37.33c0,0-31,0-37-14.5-3-7.23,8-29.5,8-29.5s-7.69,22.79-6,25.21,15.5,14.8,33,12.29,24.7-5.67,21.35-30.83"/><path class="cls-2" d="M229.79,748.4S241.15,772,242.5,792.68c0,0-1.15,14.72-22.15,16.22s-36-10-36-14.29,10.86-46.21,10.86-46.21l9.13,6c1-4.5,19-5.5,19.5,0Z"/><path class="cls-1" d="M238.52,795.9s-5.5-3.33-8-3.5v.44s5.16,1.25,8,3.5Z"/><path class="cls-1" d="M226.59,791.28s-6.18-1.8-8.64-1.32l.12.43s5.31-.13,8.63,1.31Z"/><path class="cls-1" d="M215.34,789.19s-6.28-1.41-8.7-.77l.14.41s5.29-.45,8.7.78Z"/><path class="cls-1" d="M202.56,788.05s-6.4-.65-8.73.27l.19.39s5.2-1.08,8.72-.26Z"/><path class="cls-1" d="M191,788.79s-6.07,2.13-7.79,4l.34.28s4.25-3.19,7.79-3.95Z"/><path class="cls-1" d="M223.85,754.4l-3.5,29.67S225,756.32,223.85,754.4Z"/><path class="cls-1" d="M204.69,784.34s-1.49-27.81-.63-29.87l.63,29.87"/><polyline class="cls-1" points="223.58 756.73 214.72 761.07 203.89 755.57 203.81 757.24 214.72 762.57 204.25 764.57 204.25 766.07 214.72 763.74 222.79 768.06 222.94 766.95 215.48 762.57 224.03 757.57 223.58 756.73"/><polyline class="cls-1" points="223.08 767.38 214.22 771.73 203.39 766.23 203.32 767.89 214.22 773.23 203.75 775.23 203.75 776.73 214.22 774.4 222.29 778.72 222.45 777.6 214.98 773.23 223.53 768.23 223.08 767.38"/><polyline class="cls-1" points="223.08 777.38 214.22 781.72 203.39 776.23 203.32 777.89 214.22 783.22 203.75 785.22 203.75 786.72 214.22 784.39 222.29 788.71 222.45 787.6 214.98 783.22 223.53 778.22 223.08 777.38"/></g></g><g id="snbbpants2"><g id="sbbpants2"><g id="sbbpants"><path class="cls-3" d="M91.06,281.41s60.79,45.59,151.58,0c0,0,21.23,63.34,14.73,146.34s-14,104-14,110,7,86.5,7,92.5-11.5,108.5-11.5,108.5-15.71,6.69-26.8,7.69-25.65-11.82-25.65-11.82S171,620.25,173.19,601.25s6.18-56.5,5.18-71.5S171,391.25,171,391.25l-7.67-1s-4.5,119-9.5,138,1.5,45.46,2,78c.24,14.92-9,134-9,134s-21,10-27.5,10-24.5-15.5-24.5-15.5-12-129-10-134.5,6-61,6-70-17-53-18-111S81.4,290.93,91.06,281.41Z"/><path class="cls-4" d="M86.78,288s-5,5.94-4,12.77c0,0,51.79,18.66,83.42,18.83,32.88.18,82.63-17.83,82.63-17.83S248.29,289.36,244,288C244,288,182.55,326.17,86.78,288Z"/><rect class="cls-5" x="154.67" y="302.63" width="24.37" height="17.41" rx="2.9" ry="2.9"/><rect class="cls-4" x="159.97" y="306.69" width="13.78" height="9.28" rx="1.59" ry="1.59"/></g><path class="cls-6" d="M156.37,312.9s-3.87-10.37,8.5-9h0S155.25,304.53,156.37,312.9Z"/><rect class="cls-3" x="134.86" y="300.15" width="4.93" height="18.08" rx="1.47" ry="1.47"/><rect class="cls-3" x="192.61" y="302.29" width="4.93" height="18.08" rx="1.47" ry="1.47"/><rect class="cls-3" x="239.36" y="287.7" width="4.93" height="18.08" rx="1.47" ry="1.47"/><rect class="cls-3" x="87.82" y="287.19" width="4.93" height="18.08" rx="1.47" ry="1.47"/><path class="cls-7" d="M203.87,329.41s13.5,23.68,45.75,18.68C249.62,348.09,217.87,359.07,203.87,329.41Z"/><path class="cls-7" d="M130.5,331s-12.89,23.68-43.68,18.68C86.82,349.71,117.13,360.69,130.5,331Z"/><path class="cls-7" d="M160.54,335s-6.55,49.29,5.89,48.79C166.43,383.75,156.49,381.18,160.54,335Z"/></g><path class="cls-3" d="M93.68,721.72s-7.11,7.74-1.71,13.49,18.9,13,25.65,14.25,24.76-6.91,29.25-9.21,9.2-14.35,1.72-17.07C148.59,723.18,116,738.74,93.68,721.72Z"/><path class="cls-3" d="M185.52,722.84s-7.11,7.73-1.71,13.48,18.9,11,25.65,12.25,24.76-4.91,29.25-7.21,9.2-14.34,1.72-17.07C240.43,724.29,207.84,739.85,185.52,722.84Z"/><path class="cls-7" d="M94.92,722.63s6.28,12.58,28.49,9.58C123.41,732.21,103.23,732.54,94.92,722.63Z"/><path class="cls-7" d="M208.38,729.72s18.09,4.5,29.29-5.26C237.67,724.46,229.14,738,208.38,729.72Z"/></g><g id="snbbshirt2"><g id="sbbshirt"><path class="cls-8" d="M132.49,23.8S62.9,43.44,51.78,58.73s33.64,96.84,33.64,96.84S88,177.3,96.12,194.8c0,0-3.75,21-1,68.88,0,0-8.63,26.3-7.63,30.25,0,0,38,29.75,81.28,29.08l1.17-276.7S131,34.8,132.49,23.8Z"/><path class="cls-8" d="M203.66,24.68s71.09,18.76,82.21,34.05-34.64,99.84-34.64,99.84-1.57,18.73-9.7,36.23c0,0,3.75,21,1,68.88,0,0,8.63,26.3,7.63,30.25,0,0-34.89,25.75-78.22,25.08l-2-272.7S205.16,35.68,203.66,24.68Z"/><path class="cls-9" d="M164.49,54.93,168.16,323s4.36-4,5.5-4L172,54.63Z"/><path class="cls-10" d="M170.36,54.63s-3.64.27-3.36,27.55c.15,14,1.5,239,1.5,239l1.39-2.13S169.69,58.55,170.36,54.63Z"/><circle class="cls-11" cx="168.44" cy="85.84" r="3.22"/><path class="cls-12" d="M169.31,83.36s-2.93-.27-3.38,1.75a2.84,2.84,0,0,0,2.51,3.44S163.43,85.11,169.31,83.36Z"/><circle class="cls-12" cx="168.44" cy="86.05" r="0.75"/><circle class="cls-11" cx="168.44" cy="60.88" r="3.22"/><path class="cls-12" d="M169.31,58.41s-2.93-.27-3.38,1.75a2.83,2.83,0,0,0,2.51,3.43S163.43,60.16,169.31,58.41Z"/><circle class="cls-12" cx="168.44" cy="61.09" r="0.75"/><circle class="cls-11" cx="168.77" cy="112.72" r="3.22"/><path class="cls-12" d="M169.64,110.24s-2.92-.27-3.37,1.75a2.84,2.84,0,0,0,2.5,3.44S163.77,112,169.64,110.24Z"/><circle class="cls-12" cx="168.77" cy="112.93" r="0.75"/><circle class="cls-11" cx="169.35" cy="144.37" r="3.22"/><path class="cls-12" d="M170.23,141.89s-2.93-.27-3.38,1.75a2.84,2.84,0,0,0,2.5,3.44S164.35,143.64,170.23,141.89Z"/><circle class="cls-12" cx="169.35" cy="144.58" r="0.75"/><circle class="cls-11" cx="169.69" cy="171.24" r="3.22"/><path class="cls-12" d="M170.56,168.76s-2.92-.27-3.37,1.75a2.83,2.83,0,0,0,2.5,3.44S164.69,170.51,170.56,168.76Z"/><circle class="cls-12" cx="169.69" cy="171.45" r="0.75"/><circle class="cls-11" cx="169.61" cy="198.12" r="3.22"/><path class="cls-12" d="M170.48,195.64s-2.93-.27-3.38,1.75a2.84,2.84,0,0,0,2.51,3.44S164.6,197.39,170.48,195.64Z"/><circle class="cls-12" cx="169.61" cy="198.33" r="0.75"/><circle class="cls-11" cx="169.94" cy="224.99" r="3.22"/><path class="cls-12" d="M170.81,222.52s-2.92-.27-3.37,1.75a2.83,2.83,0,0,0,2.5,3.43S164.94,224.27,170.81,222.52Z"/><circle class="cls-12" cx="169.94" cy="225.2" r="0.75"/><circle class="cls-11" cx="170.31" cy="246.44" r="3.22"/><path class="cls-12" d="M171.18,244s-2.93-.27-3.38,1.75a2.85,2.85,0,0,0,2.51,3.44S165.3,245.71,171.18,244Z"/><circle class="cls-12" cx="170.31" cy="246.65" r="0.75"/><circle class="cls-11" cx="170.65" cy="273.31" r="3.22"/><path class="cls-12" d="M171.52,270.83s-2.93-.27-3.38,1.75a2.84,2.84,0,0,0,2.51,3.44S165.64,272.58,171.52,270.83Z"/><circle class="cls-12" cx="170.65" cy="273.52" r="0.75"/><circle class="cls-11" cx="170.69" cy="302.22" r="3.22"/><path class="cls-12" d="M171.56,299.74s-2.92-.27-3.37,1.75a2.84,2.84,0,0,0,2.5,3.44S165.69,301.49,171.56,299.74Z"/><circle class="cls-12" cx="170.69" cy="302.43" r="0.75"/><path class="cls-13" d="M96.49,117.19s23.5,11.64,41,5.32v35.08s-20.69,15.1-23.35,15.1-17.65-15.85-17.65-15.85Z"/><path class="cls-14" d="M97.45,119.85s21.25,10.52,37.07,4.81v31.71S115.82,170,113.42,170s-16-14.34-16-14.34Z"/><path class="cls-13" d="M241.38,116.29s-23.5,11.65-41,5.32v35.08s20.69,15.1,23.35,15.1,17.65-15.85,17.65-15.85Z"/><path class="cls-14" d="M240.42,119s-21.25,10.53-37.07,4.82v31.71s18.7,13.65,21.11,13.65,16-14.33,16-14.33Z"/><path class="cls-13" d="M97.45,126.05s14.92,8.25,30.29,6.63c0,0-17.37,3.12-30.29-4.75Z"/><path class="cls-13" d="M240.42,125.18s-7.8,8-26.55,7.5c0,0,15,4.5,26.55-5.38Z"/><path class="cls-9" d="M177.33,270.82s-3.38,44.86,9.48,38.86C186.81,309.68,178.33,319.64,177.33,270.82Z"/></g><path class="cls-15" d="M93.22,36.67S55,46.33,46.54,60.33s-31.5,141-31.5,141S-1,215.65,0,334c0,0,31.14,8.16,46.57,0,0,0,27.93-97.78,19.93-119l16.2-55.69s5.8,93,3.3,103.5-26,87-11.5,230c0,0,39,19.5,60,24l17.19-321.2-19.9-159Z"/><path class="cls-16" d="M137.49,14.22S96.4,31,93.22,36.67,131,85.3,131,85.3s-14-1.53-15.75.75,36.61,97.38,36.44,109.58C151.71,195.63,164.43,100.1,137.49,14.22Z"/><path class="cls-15" d="M243.35,36.67S281.53,46.33,290,60.33s31.5,141,31.5,141,16,14.31,15,132.65c0,0-31.13,8.16-46.56,0,0,0-27.94-97.78-19.94-119l-16.19-55.69s-5.81,93-3.31,103.5,26,87,11.5,230c0,0-38.95,19.5-60,24l-17.19-321.2,19.9-159Z"/><path class="cls-16" d="M199.09,14.22S240.18,31,243.35,36.67,205.56,85.3,205.56,85.3s14-1.53,15.75.75-36.61,97.38-36.44,109.58C184.87,195.63,172.15,100.1,199.09,14.22Z"/><path class="cls-17" d="M198,0c-36.71,27.34-58.94,2.67-58.94,2.67-9,10.81-13.85,21.33-12.27,27.66l.95,6.34s-33.67,84.73-18.35,134,23,82.18,14.49,102.07-22.5,40.39-22.5,40.39,23.12,30.58,39.56,24.38c0,0,33.26-63.61,21.77-98.21S119.07,150,153.77,54.22h0c24.24,3.64,58.93-7.77,58.93-7.77C218.09,25.12,198,0,198,0Z"/><path class="cls-17" d="M188.41,43s30.52,105.65,17.74,155.32,15.74,92.34,15.74,92.34,34.54-4.13,32.12-13.92-19.95-70.28-16.29-81.85S250.84,86.67,204.77,36.67Z"/><path class="cls-18" d="M126.79,30.33s16.54,27.26,63.4,19.13C190.19,49.46,148.53,53.33,126.79,30.33Z"/><path class="cls-18" d="M168.06,36.67s38.64-5.57,38.81-22.45l2.75,6.08S201.68,36.45,168.06,36.67Z"/><path class="cls-18" d="M134.52,8.59s16.08,12.74,34.55,11.24c0,0-29.14-7.94-31.58-15.22Z"/><path class="cls-18" d="M134.52,47.33a29.73,29.73,0,0,0,9.16,6.19,14.5,14.5,0,0,0,5.45,1.11L145,66.33l1.34-9.5H144l-2.21,3.51V54.63S135.33,50.33,134.52,47.33Z"/><path class="cls-18" d="M140.29,85.3s-11.25,53.28-7.75,72,25.41,79.5,25,83.5c0,0-26.71-67.75-28.21-82.75S137,89,140.29,85.3Z"/><path class="cls-18" d="M212.7,141.15s2.84,47.18-5.66,68.68,11.77,60.26,11.77,60.26-15.11-45.26-9.19-59.26S216.35,151,212.7,141.15Z"/><path class="cls-18" d="M193.21,53s10.67-.67,12.67-3.67A13.05,13.05,0,0,1,199.54,53l.84,5.39-2.17-4.53h-3s4.85,19.3,5.17,27C200.38,80.83,195.71,54.53,193.21,53Z"/><path class="cls-16" d="M50,57.66s27,14,25.85,59.53c0,0,6.52-45.92-22.48-62.56Z"/><path class="cls-16" d="M274,50.36s-27,14-25.85,59.53c0,0-6.52-45.92,22.48-62.56Z"/><circle class="cls-19" cx="192.95" cy="224.11" r="4.11"/><circle class="cls-11" cx="191.83" cy="223.13" r="0.62"/><circle class="cls-11" cx="194.34" cy="223.13" r="0.62"/><circle class="cls-11" cx="194.34" cy="225.1" r="0.62"/><circle class="cls-11" cx="191.83" cy="225.33" r="0.62"/></g></g></g></g></svg>