<?xml version="1.0" encoding="utf-8"?>
<!-- Generator: Adobe Illustrator 22.1.0, SVG Export Plug-In . SVG Version: 6.00 Build 0)  -->
<svg version="1.1" id="Layer_1" xmlns="http://www.w3.org/2000/svg" xmlns:xlink="http://www.w3.org/1999/xlink" x="0px" y="0px"
	 viewBox="0 0 183 420.2" style="enable-background:new 0 0 183 420.2;" xml:space="preserve">
<style type="text/css">
	.st0{fill:none;}
	.st1{fill:#473319;}
	.st2{fill:#684B1E;}
	.st3{fill:#1A1A21;}
	.st4{fill:#212121;}
	.st5{fill:#8C8357;}
	.st6{fill:#A39662;}
	.st7{fill:#231E2B;}
	.st8{fill:#D8D8D8;}
	.st9{fill:#AFAFAF;}
	.st10{fill:#1B1D23;}
	.st11{fill:#3B3C49;}
	.st12{fill:#444444;}
	.st13{fill:#4C4C4C;}
	.st14{fill:#797A64;}
	.st15{fill:#686854;}
</style>
<title>snbb</title>
<g id="Layer_2_1_">
	<g id="snbb">
		<g id="snbb-2">
			<rect y="5.2" class="st0" width="183" height="415"/>
			<g id="dressshoes">
				<g id="sbbshoes">
					<path class="st1" d="M52.9,385.9c0,0-7.5,17,9.6,18.5c0,0,15.3,0,18.3-7.2c1.5-3.6-4-14.6-4-14.6s3.8,11.3,3,12.5
						s-7.7,7.3-16.3,6.1S51.2,398.4,52.9,385.9"/>
					<path class="st2" d="M57.8,372.2c0,0-5.6,11.7-6.3,22c0,0,0.6,7.3,10.9,8s17.8-5,17.8-7.1s-5.4-22.9-5.4-22.9l-4.5,3
						c-0.5-2.2-9.4-2.7-9.6,0L57.8,372.2z"/>
					<path class="st1" d="M53.5,395.8c0,0,2.7-1.7,4-1.7v0.2c-1.4,0.3-2.8,0.9-4,1.7V395.8z"/>
					<path class="st1" d="M59.4,393.5c0,0,3-0.9,4.3-0.6l-0.1,0.2c-1.4,0-2.9,0.2-4.3,0.6L59.4,393.5z"/>
					<path class="st1" d="M64.9,392.4c0,0,3.1-0.7,4.3-0.4l-0.1,0.2c-1.4-0.1-2.9,0-4.3,0.4L64.9,392.4z"/>
					<path class="st1" d="M71.2,391.9c0,0,3.2-0.3,4.3,0.1l-0.1,0.2c-1.4-0.3-2.9-0.3-4.3-0.1L71.2,391.9z"/>
					<path class="st1" d="M76.9,392.2c0,0,3,1,3.8,2l-0.2,0.1c-1.2-0.9-2.5-1.6-3.8-2L76.9,392.2z"/>
					<path class="st1" d="M60.7,375.2l1.7,14.7C62.5,389.9,60.2,376.1,60.7,375.2z"/>
					<path class="st1" d="M70.2,390c0,0,0.7-13.8,0.3-14.8L70.2,390"/>
					<polyline class="st1" points="60.8,376.3 65.2,378.5 70.6,375.7 70.6,376.6 65.2,379.2 70.4,380.2 70.4,381 65.2,379.8 
						61.2,381.9 61.2,381.4 64.8,379.2 60.6,376.7 60.8,376.3 					"/>
					<polyline class="st1" points="61.1,381.6 65.5,383.8 70.8,381 70.9,381.9 65.5,384.5 70.7,385.5 70.7,386.2 65.5,385.1 
						61.5,387.2 61.4,386.7 65.1,384.5 60.9,382 61.1,381.6 					"/>
					<polyline class="st1" points="61.1,386.6 65.5,388.7 70.8,386 70.9,386.8 65.5,389.5 70.7,390.5 70.7,391.2 65.5,390 
						61.5,392.2 61.4,391.6 65.1,389.5 60.9,387 61.1,386.6 					"/>
				</g>
				<g id="sbbshoes-2">
					<path class="st1" d="M124.1,384.8c0,0,7.5,17-9.6,18.5c0,0-15.3,0-18.3-7.2c-1.5-3.6,4-14.6,4-14.6s-3.8,11.3-3,12.5
						s7.7,7.4,16.3,6.1S125.7,397.3,124.1,384.8"/>
					<path class="st2" d="M119.2,371.1c0,0,5.6,11.7,6.3,22c0,0-0.6,7.3-10.9,8s-17.8-5-17.8-7.1s5.4-22.9,5.4-22.9l4.5,3
						c0.5-2.2,9.4-2.7,9.6,0L119.2,371.1z"/>
					<path class="st1" d="M123.5,394.7c0,0-2.7-1.6-4-1.7v0.2c1.4,0.3,2.8,0.9,4,1.7V394.7z"/>
					<path class="st1" d="M117.6,392.4c0,0-3-0.9-4.3-0.6l0.1,0.2c1.5,0,2.9,0.2,4.3,0.6L117.6,392.4z"/>
					<path class="st1" d="M112,391.3c0,0-3.1-0.7-4.3-0.4l0.1,0.2c1.4-0.1,2.9,0,4.3,0.4L112,391.3z"/>
					<path class="st1" d="M105.7,390.8c0,0-3.2-0.3-4.3,0.1l0.1,0.2c1.4-0.3,2.9-0.3,4.3-0.1L105.7,390.8z"/>
					<path class="st1" d="M100,391.1c0,0-3,1.1-3.8,2l0.2,0.1c1.2-0.9,2.5-1.6,3.8-2L100,391.1z"/>
					<path class="st1" d="M116.2,374.1l-1.7,14.7C114.5,388.8,116.8,375,116.2,374.1z"/>
					<path class="st1" d="M106.8,388.9c0,0-0.7-13.8-0.3-14.8L106.8,388.9"/>
					<polyline class="st1" points="116.1,375.2 111.7,377.4 106.4,374.7 106.3,375.5 111.7,378.1 106.6,379.1 106.6,379.9 
						111.7,378.7 115.7,380.9 115.8,380.3 112.1,378.1 116.3,375.6 116.1,375.2 					"/>
					<polyline class="st1" points="115.8,380.5 111.5,382.7 106.1,380 106.1,380.8 111.5,383.4 106.3,384.4 106.3,385.2 111.5,384 
						115.5,386.1 115.5,385.6 111.8,383.4 116.1,380.9 115.8,380.5 					"/>
					<polyline class="st1" points="115.8,385.5 111.5,387.6 106.1,384.9 106.1,385.7 111.5,388.4 106.3,389.4 106.3,390.1 
						111.5,389 115.5,391.1 115.5,390.5 111.8,388.4 116.1,385.9 115.8,385.5 					"/>
				</g>
			</g>
			<g id="snbbpants">
				<g id="sbbpants2">
					<g id="sbbpants">
						<path class="st3" d="M52,138.4c0,0,30,22.6,74.9,0c0,0,10.5,31.4,7.3,72.6s-6.9,51.6-6.9,54.6s3.5,42.9,3.5,45.9
							s-5.7,53.9-5.7,53.9s-7.8,3.3-13.2,3.8s-12.7-5.9-12.7-5.9s-7.6-56.8-6.5-66.2s3.1-28,2.6-35.5s-3.6-68.8-3.6-68.8l-3.8-0.5
							c0,0-2.2,59.1-4.7,68.5s0.7,22.6,1,38.7c0.1,7.4-4.4,66.5-4.4,66.5s-10.4,5-13.6,5s-12.1-7.7-12.1-7.7S48,299.4,49,296.6
							s3-30.3,3-34.8s-8.4-26.3-8.9-55.1S47.3,143.1,52,138.4z"/>
						<path class="st4" d="M49.9,141.6c0,0-2.5,3-2,6.3c0,0,25.6,9.3,41.2,9.3c16.2,0.1,40.8-8.8,40.8-8.8s-0.2-6.2-2.4-6.8
							C127.6,141.6,97.2,160.6,49.9,141.6z"/>
						<path class="st5" d="M86.4,148.9h6.2c1.6,0,2.9,1.3,2.9,2.9v2.8c0,1.6-1.3,2.9-2.9,2.9h-6.2c-1.6,0-2.9-1.3-2.9-2.9v-2.8
							C83.5,150.2,84.8,148.9,86.4,148.9z"/>
						<path class="st4" d="M87.7,150.9h3.6c0.9,0,1.6,0.7,1.6,1.6v1.4c0,0.9-0.7,1.6-1.6,1.6h-3.6c-0.9,0-1.6-0.7-1.6-1.6v-1.4
							C86.1,151.6,86.8,150.9,87.7,150.9z"/>
					</g>
					<path class="st6" d="M84.3,154c0,0-1.9-5.1,4.2-4.5l0,0C88.5,149.5,83.8,149.8,84.3,154z"/>
					<path class="st3" d="M74.9,147.7L74.9,147.7c0.7,0,1.2,0.5,1.2,1.2v6.5c0,0.7-0.5,1.2-1.2,1.2h0c-0.7,0-1.2-0.5-1.2-1.2v-6.5
						C73.7,148.2,74.2,147.7,74.9,147.7z"/>
					<path class="st3" d="M103.4,148.7L103.4,148.7c0.7,0,1.2,0.5,1.2,1.2v6.5c0,0.7-0.5,1.2-1.2,1.2h0c-0.7,0-1.2-0.5-1.2-1.2v-6.5
						C102.2,149.3,102.8,148.7,103.4,148.7z"/>
					<path class="st3" d="M126.5,141.5L126.5,141.5c0.7,0,1.2,0.5,1.2,1.2v6.5c0,0.7-0.5,1.2-1.2,1.2h0c-0.7,0-1.2-0.5-1.2-1.2v-6.5
						C125.3,142,125.8,141.5,126.5,141.5z"/>
					<path class="st3" d="M51.7,141.2L51.7,141.2c0.7,0,1.2,0.5,1.2,1.2v6.5c0,0.7-0.5,1.2-1.2,1.2l0,0c-0.7,0-1.2-0.5-1.2-1.2v-6.5
						C50.5,141.8,51,141.2,51.7,141.2z"/>
					<path class="st7" d="M107.8,162.2c0,0,6.7,11.8,22.6,9.3C130.4,171.5,114.7,176.9,107.8,162.2z"/>
					<path class="st7" d="M71.5,163c0,0-6.4,11.8-21.5,9.3C50,172.3,64.9,177.7,71.5,163z"/>
					<path class="st7" d="M86.4,165c0,0-3.2,24.5,2.9,24.2C89.3,189.2,84.4,187.9,86.4,165z"/>
				</g>
				<path class="st3" d="M53.3,356.9c0,0-3.5,3.8-0.8,6.7s9.3,6.5,12.7,7.1s12.2-3.4,14.5-4.6s4.5-7.1,0.8-8.5
					C80.5,357.6,64.4,365.4,53.3,356.9z"/>
				<path class="st3" d="M98.7,357.5c0,0-3.5,3.8-0.8,6.7s9.3,5.5,12.7,6.1s12.2-2.4,14.4-3.6s4.5-7.1,0.8-8.5
					C125.8,358.2,109.7,365.9,98.7,357.5z"/>
				<path class="st7" d="M54,357.4c0,0,3.1,6.2,14.1,4.8C68,362.1,58.1,362.3,54,357.4z"/>
				<path class="st7" d="M110,360.9c0,0,8.9,2.2,14.5-2.6C124.5,358.3,120.2,365,110,360.9z"/>
			</g>
			<g id="snbbshirt">
				<g id="sbbshirt">
					<path class="st8" d="M71.8,7.8c0,0-34.4,9.7-39.8,17.3s16.6,48.1,16.6,48.1s1.3,10.8,5.3,19.5c0,0-1.8,10.4-0.5,34.2
						c0,0-4.3,13.1-3.8,15c0,0,18.7,14.8,40.2,14.4L90.3,19C90.3,19,71.1,13.3,71.8,7.8z"/>
					<path class="st8" d="M107,8.2c0,0,35.1,9.3,40.6,16.9s-17.1,49.6-17.1,49.6c-0.7,6.2-2.3,12.3-4.8,18c0,0,1.8,10.4,0.5,34.2
						c0,0,4.3,13.1,3.8,15c0,0-17.2,12.8-38.6,12.4L90.3,19C90.3,19,107.7,13.7,107,8.2z"/>
					<path class="st9" d="M87.6,23.3l1.8,133.1c0,0,2.2-2,2.7-2L91.3,23.1L87.6,23.3z"/>
					<path class="st8" d="M90.5,23.1c0,0-1.8,0.1-1.7,13.7c0.1,7,0.8,118.6,0.8,118.6l0.7-1.1C90.3,154.3,90.2,25.1,90.5,23.1z"/>
					<ellipse class="st10" cx="89.6" cy="38.6" rx="1.6" ry="1.6"/>
					<path class="st11" d="M90,37.4c0,0-1.4-0.1-1.7,0.9c-0.2,0.7,0.2,1.5,1,1.7c0.1,0,0.2,0,0.3,0C89.6,40,87.1,38.2,90,37.4z"/>
					<circle class="st11" cx="89.6" cy="38.7" r="0.4"/>
					<ellipse class="st10" cx="89.6" cy="26.2" rx="1.6" ry="1.6"/>
					<path class="st11" d="M90,25c0,0-1.4-0.1-1.7,0.9c-0.2,0.8,0.3,1.5,1,1.7c0.1,0,0.1,0,0.2,0C89.6,27.6,87.1,25.9,90,25z"/>
					<circle class="st11" cx="89.6" cy="26.3" r="0.4"/>
					<ellipse class="st10" cx="89.7" cy="51.9" rx="1.6" ry="1.6"/>
					<path class="st11" d="M90.2,50.7c0,0-1.4-0.1-1.7,0.9c-0.2,0.8,0.3,1.5,1.1,1.7c0.1,0,0.1,0,0.2,0
						C89.7,53.3,87.3,51.6,90.2,50.7z"/>
					<circle class="st11" cx="89.7" cy="52" r="0.4"/>
					<ellipse class="st10" cx="90" cy="67.7" rx="1.6" ry="1.6"/>
					<path class="st11" d="M90.5,66.4c0,0-1.4-0.1-1.7,0.9c-0.2,0.8,0.3,1.5,1.1,1.7c0,0,0.1,0,0.1,0C90,69,87.6,67.3,90.5,66.4z"/>
					<circle class="st11" cx="90" cy="67.8" r="0.4"/>
					<ellipse class="st10" cx="90.2" cy="81" rx="1.6" ry="1.6"/>
					<path class="st11" d="M90.6,79.8c0,0-1.4-0.1-1.7,0.9c-0.2,0.8,0.3,1.5,1.1,1.7c0.1,0,0.1,0,0.2,0
						C90.2,82.3,87.7,80.6,90.6,79.8z"/>
					<circle class="st11" cx="90.2" cy="81.1" r="0.4"/>
					<ellipse class="st10" cx="90.2" cy="94.3" rx="1.6" ry="1.6"/>
					<path class="st11" d="M90.6,93.1c0,0-1.5-0.1-1.7,0.9c-0.2,0.8,0.3,1.5,1.1,1.7c0.1,0,0.1,0,0.2,0C90.2,95.7,87.7,94,90.6,93.1
						z"/>
					<circle class="st11" cx="90.2" cy="94.4" r="0.4"/>
					<ellipse class="st10" cx="90.3" cy="107.7" rx="1.6" ry="1.6"/>
					<path class="st11" d="M90.8,106.4c0,0-1.4-0.1-1.7,0.9c-0.2,0.8,0.3,1.5,1.1,1.7c0.1,0,0.1,0,0.2,0
						C90.3,109,87.8,107.3,90.8,106.4z"/>
					<circle class="st11" cx="90.3" cy="107.8" r="0.4"/>
					<ellipse class="st10" cx="90.5" cy="118.3" rx="1.6" ry="1.6"/>
					<path class="st11" d="M90.9,117.1c0,0-1.4-0.1-1.7,0.9c-0.2,0.8,0.3,1.5,1.1,1.7c0.1,0,0.1,0,0.2,0
						C90.5,119.7,88,118,90.9,117.1z"/>
					<circle class="st11" cx="90.5" cy="118.4" r="0.4"/>
					<ellipse class="st10" cx="90.7" cy="131.7" rx="1.6" ry="1.6"/>
					<path class="st11" d="M91.1,130.4c0,0-1.4-0.1-1.7,0.9c-0.2,0.8,0.3,1.5,1.1,1.7c0,0,0.1,0,0.1,0
						C90.7,133,88.2,131.3,91.1,130.4z"/>
					<circle class="st11" cx="90.7" cy="131.8" r="0.4"/>
					<ellipse class="st10" cx="90.7" cy="146" rx="1.6" ry="1.6"/>
					<path class="st11" d="M91.1,144.8c0,0-1.4-0.1-1.7,0.9c-0.2,0.8,0.3,1.5,1.1,1.7c0.1,0,0.1,0,0.2,0
						C90.7,147.3,88.2,145.6,91.1,144.8z"/>
					<circle class="st11" cx="90.7" cy="146.1" r="0.4"/>
					<path class="st9" d="M54,54.2c0,0,11.6,5.8,20.3,2.6v17.4c0,0-10.2,7.5-11.5,7.5S54,73.8,54,73.8V54.2z"/>
					<path class="st8" d="M54.5,55.5c0,0,10.5,5.2,18.3,2.4v15.7c0,0-9.2,6.8-10.4,6.8s-7.9-7.1-7.9-7.1L54.5,55.5z"/>
					<path class="st9" d="M125.6,53.7c0,0-11.6,5.8-20.3,2.6v17.4c0,0,10.2,7.5,11.5,7.5s8.7-7.9,8.7-7.9V53.7z"/>
					<path class="st8" d="M125.1,55c0,0-10.5,5.2-18.3,2.4v15.8c0,0,9.2,6.8,10.4,6.8s7.9-7.1,7.9-7.1V55z"/>
					<path class="st9" d="M54.5,58.6c0,0,7.4,4.1,15,3.3c0,0-8.6,1.6-15-2.4L54.5,58.6z"/>
					<path class="st9" d="M125.1,58.1c0,0-3.8,4-13.1,3.7c0,0,7.4,2.2,13.1-2.7V58.1z"/>
					<path class="st9" d="M94,130.4c0,0-1.7,22.3,4.7,19.3C98.7,149.7,94.5,154.7,94,130.4z"/>
				</g>
				<path class="st12" d="M52.4,14.2c0,0-18.9,4.8-23.1,11.8S13.8,96,13.8,96s-7.9,7-7.4,65.8c0,0,15.4,4.1,23,0
					c0,0,13.8-48.5,9.8-59l8-27.6c0,0,2.9,46.2,1.6,51.4S36,169.6,43.2,240.6c0,0,19.2,9.7,29.6,11.9l8.5-159.4l-9.8-78.9H52.4z"/>
				<path class="st13" d="M74.3,3.1c0,0-20.3,8.3-21.9,11.1s18.7,24.1,18.7,24.1s-6.9-0.8-7.8,0.4s18.1,48.3,18,54.4
					C81.3,93.1,87.6,45.7,74.3,3.1z"/>
				<path class="st12" d="M126.6,14.2c0,0,18.9,4.8,23.1,11.8s15.6,70,15.6,70s7.9,7.1,7.4,65.8c0,0-15.4,4.1-23,0
					c0,0-13.8-48.5-9.8-59l-8-27.6c0,0-2.9,46.2-1.6,51.4s12.9,43.2,5.7,114.2c0,0-19.2,9.7-29.6,11.9L97.7,93.1l9.8-78.9
					L126.6,14.2z"/>
				<path class="st13" d="M104.7,3.1c0,0,20.3,8.3,21.9,11.1s-18.7,24.1-18.7,24.1s6.9-0.8,7.8,0.4S97.6,87,97.7,93.1
					C97.7,93.1,91.4,45.7,104.7,3.1z"/>
				<path class="st14" d="M104.2-4C86,9.6,75.1-2.7,75.1-2.7C70.6,2.7,68.2,7.9,69,11.1l0.5,3.1c0,0-16.6,42.1-9.1,66.5
					s11.4,40.8,7.1,50.7c-3.1,7-6.9,13.7-11.1,20.1c0,0,11.4,15.2,19.6,12.1c0,0,16.4-31.6,10.8-48.8s-21.6-44.3-4.4-91.9l0,0
					c12,1.8,29.1-3.9,29.1-3.9C114.1,8.5,104.2-4,104.2-4z"/>
				<path class="st14" d="M99.4,17.3c0,0,15.1,52.4,8.8,77.1s7.8,45.8,7.8,45.8s17.1-2.1,15.9-6.9s-9.8-34.9-8-40.6
					s6.4-53.7-16.3-78.5L99.4,17.3z"/>
				<path class="st15" d="M69,11.1c0,0,8.2,13.5,31.3,9.5C100.3,20.5,79.7,22.5,69,11.1z"/>
				<path class="st15" d="M89.4,14.2c0,0,19.1-2.8,19.2-11.1l1.4,3C109.9,6.1,106,14.1,89.4,14.2z"/>
				<path class="st15" d="M72.8,0.3c0,0,7.9,6.3,17.1,5.6c0,0-14.4-3.9-15.6-7.6L72.8,0.3z"/>
				<path class="st15" d="M72.8,19.5c1.3,1.3,2.8,2.3,4.5,3.1c0.9,0.4,1.8,0.5,2.7,0.6l-2,5.8l0.7-4.7h-1.2L76.4,26v-2.9
					C76.4,23.1,73.2,21,72.8,19.5z"/>
				<path class="st15" d="M75.7,38.3c0,0-5.6,26.5-3.8,35.7s12.6,39.5,12.3,41.4c0,0-13.2-33.6-13.9-41.1S74.1,40.2,75.7,38.3z"/>
				<path class="st15" d="M111.4,66.1c0,0,1.4,23.4-2.8,34.1s5.8,29.9,5.8,29.9s-7.5-22.5-4.5-29.4S113.2,70.9,111.4,66.1z"/>
				<path class="st15" d="M101.8,22.3c0,0,5.3-0.3,6.3-1.8c-0.8,0.9-1.9,1.5-3.1,1.8l0.4,2.7l-1.1-2.2h-1.5c0,0,2.4,9.6,2.6,13.4
					C105.3,36.1,103,23.1,101.8,22.3z"/>
				<path class="st13" d="M31.1,24.6c0,0,13.3,7,12.8,29.5c0,0,3.2-22.8-11.1-31L31.1,24.6z"/>
				<path class="st13" d="M141.7,21c0,0-13.3,7-12.8,29.5c0,0-3.2-22.8,11.1-31L141.7,21z"/>
				<ellipse class="st13" cx="101.7" cy="107.2" rx="2" ry="2"/>
				<circle class="st10" cx="101.1" cy="106.7" r="0.3"/>
				<circle class="st10" cx="102.4" cy="106.7" r="0.3"/>
				<circle class="st10" cx="102.4" cy="107.7" r="0.3"/>
				<circle class="st10" cx="101.1" cy="107.8" r="0.3"/>
			</g>
		</g>
	</g>
</g>
</svg>
