<?xml version="1.0" encoding="utf-8"?>
<!-- Generator: Adobe Illustrator 22.1.0, SVG Export Plug-In . SVG Version: 6.00 Build 0)  -->
<svg version="1.1" id="Layer_1" xmlns="http://www.w3.org/2000/svg" xmlns:xlink="http://www.w3.org/1999/xlink" x="0px" y="0px"
	 viewBox="0 0 183 415" style="enable-background:new 0 0 183 415;" xml:space="preserve">
<style type="text/css">
	.st0{fill:none;}
	.st1{fill:#473319;}
	.st2{fill:#684B1E;}
	.st3{fill:#B2B2B2;}
	.st4{fill:#212121;}
	.st5{fill:#8C8357;}
	.st6{fill:#A39662;}
	.st7{fill:#969696;}
	.st8{fill:#D3D2AF;}
	.st9{fill:#C6C49E;}
	.st10{fill:#D8D8BC;}
	.st11{fill:#1B1D23;}
	.st12{fill:#3B3C49;}
	.st13{fill:#AFAFAF;}
	.st14{fill:#D8D8D8;}
	.st15{fill:#937855;}
	.st16{fill:#896C4D;}
	.st17{fill:#773D3A;}
	.st18{fill:#663231;}
	.st19{fill:#42311F;}
</style>
<title>snbb2</title>
<g id="Layer_2_1_">
	<g id="snbb2">
		<g id="snbb2-2">
			<rect class="st0" width="183" height="415"/>
			<g id="dressshoes">
				<g id="sbbshoes">
					<path class="st1" d="M55.6,389.4c0,0-7.5,17,9.6,18.5c0,0,15.3,0,18.3-7.2c1.5-3.6-4-14.6-4-14.6s3.8,11.3,3,12.5
						s-7.7,7.3-16.3,6.1S54,401.9,55.6,389.4"/>
					<path class="st2" d="M60.5,375.6c0,0-5.6,11.7-6.3,22c0,0,0.6,7.3,10.9,8s17.8-5,17.8-7.1s-5.4-22.9-5.4-22.9l-4.5,3
						c-0.5-2.2-9.4-2.7-9.6,0L60.5,375.6z"/>
					<path class="st1" d="M56.2,399.2c0,0,2.7-1.7,4-1.7v0.2c-1.4,0.3-2.8,0.9-4,1.7V399.2z"/>
					<path class="st1" d="M62.1,396.9c0,0,3-0.9,4.3-0.6v0.2c-1.4,0-2.9,0.2-4.3,0.6V396.9z"/>
					<path class="st1" d="M67.6,395.9c0,0,3.1-0.7,4.3-0.4l-0.1,0.2c-1.4-0.1-2.9,0-4.3,0.4L67.6,395.9z"/>
					<path class="st1" d="M74,395.3c0,0,3.2-0.3,4.3,0.1l-0.1,0.2c-1.4-0.3-2.9-0.3-4.3-0.1L74,395.3z"/>
					<path class="st1" d="M79.7,395.7c0,0,3,1,3.8,2l-0.2,0.1c-1.2-0.9-2.5-1.6-3.8-2L79.7,395.7z"/>
					<path class="st1" d="M63.4,378.6l1.7,14.7C65.2,393.4,62.9,379.6,63.4,378.6z"/>
					<path class="st1" d="M72.9,393.5c0,0,0.7-13.8,0.3-14.8L72.9,393.5"/>
					<polyline class="st1" points="63.6,379.8 67.9,381.9 73.3,379.2 73.3,380 67.9,382.7 73.1,383.7 73.1,384.4 67.9,383.3 
						64,385.4 63.9,384.9 67.6,382.7 63.3,380.2 63.6,379.8 					"/>
					<polyline class="st1" points="63.8,385.1 68.2,387.2 73.5,384.5 73.6,385.3 68.2,388 73.4,389 73.4,389.7 68.2,388.5 
						64.2,390.7 64.1,390.1 67.8,388 63.6,385.5 63.8,385.1 					"/>
					<polyline class="st1" points="63.8,390 68.2,392.2 73.5,389.5 73.6,390.3 68.2,392.9 73.4,393.9 73.4,394.7 68.2,393.5 
						64.2,395.7 64.1,395.1 67.8,392.9 63.6,390.5 63.8,390 					"/>
				</g>
				<g id="sbbshoes-2">
					<path class="st1" d="M126.8,388.3c0,0,7.5,17-9.6,18.5c0,0-15.3,0-18.3-7.2c-1.5-3.6,4-14.6,4-14.6s-3.8,11.3-3,12.5
						s7.7,7.4,16.3,6.1S128.4,400.8,126.8,388.3"/>
					<path class="st2" d="M121.9,374.6c0,0,5.6,11.7,6.3,22c0,0-0.6,7.3-11,8.1s-17.8-5-17.8-7.1s5.4-22.9,5.4-22.9l4.5,3
						c0.5-2.2,9.4-2.7,9.6,0L121.9,374.6z"/>
					<path class="st1" d="M126.2,398.1c0,0-2.7-1.6-4-1.7v0.2c1.4,0.3,2.8,0.9,4,1.7V398.1z"/>
					<path class="st1" d="M120.3,395.9c0,0-3-0.9-4.3-0.6l0.1,0.2c1.4,0,2.9,0.2,4.3,0.6L120.3,395.9z"/>
					<path class="st1" d="M114.7,394.8c0,0-3.1-0.7-4.3-0.4l0.1,0.2c1.4-0.1,2.9,0,4.3,0.4L114.7,394.8z"/>
					<path class="st1" d="M108.4,394.2c0,0-3.2-0.3-4.3,0.1l0.1,0.2c1.4-0.3,2.9-0.3,4.3-0.1L108.4,394.2z"/>
					<path class="st1" d="M102.7,394.6c0,0-3,1.1-3.8,2l0.2,0.1c1.2-0.9,2.5-1.6,3.8-2L102.7,394.6z"/>
					<path class="st1" d="M118.9,377.5l-1.7,14.7C117.2,392.3,119.5,378.5,118.9,377.5z"/>
					<path class="st1" d="M109.5,392.4c0,0-0.7-13.8-0.3-14.8L109.5,392.4"/>
					<polyline class="st1" points="118.8,378.7 114.4,380.9 109.1,378.1 109.1,379 114.4,381.6 109.3,382.6 109.3,383.3 
						114.4,382.2 118.4,384.3 118.5,383.8 114.8,381.6 119,379.1 118.8,378.7 					"/>
					<polyline class="st1" points="118.6,384 114.2,386.1 108.8,383.4 108.8,384.2 114.2,386.9 109,387.9 109,388.6 114.2,387.5 
						118.2,389.6 118.2,389.1 114.6,386.9 118.8,384.4 118.6,384 					"/>
					<polyline class="st1" points="118.6,389 114.2,391.1 108.8,388.4 108.8,389.2 114.2,391.9 109,392.8 109,393.6 114.2,392.4 
						118.2,394.6 118.2,394 114.6,391.9 118.8,389.4 118.6,389 					"/>
				</g>
			</g>
			<g id="snbbpants2">
				<g id="sbbpants2">
					<g id="sbbpants">
						<path class="st3" d="M51.3,141.8c0,0,30,22.6,74.9,0c0,0,10.5,31.4,7.3,72.6s-6.9,51.6-6.9,54.6s3.5,42.9,3.5,45.9
							s-5.7,53.9-5.7,53.9s-7.8,3.3-13.2,3.8s-12.7-5.9-12.7-5.9s-7.6-56.8-6.5-66.2s3.1-28,2.6-35.5s-3.6-68.8-3.6-68.8l-3.8-0.5
							c0,0-2.2,59.1-4.7,68.5c-2.5,9.4,0.7,22.6,1,38.7c0.1,7.4-4.4,66.5-4.4,66.5s-10.4,5-13.6,5s-12.1-7.7-12.1-7.7
							s-5.9-64-4.9-66.8s3-30.3,3-34.8s-8.4-26.3-8.9-55.1S46.6,146.5,51.3,141.8z"/>
						<path class="st4" d="M49.2,145c0,0-2.5,2.9-2,6.3c0,0,25.6,9.3,41.2,9.3c16.2,0.1,40.8-8.8,40.8-8.8s-0.2-6.2-2.4-6.8
							C126.9,145,96.5,164,49.2,145z"/>
						<path class="st5" d="M85.7,152.3h6.2c1.6,0,2.9,1.3,2.9,2.9v2.8c0,1.6-1.3,2.9-2.9,2.9h-6.2c-1.6,0-2.9-1.3-2.9-2.9v-2.8
							C82.8,153.6,84.1,152.3,85.7,152.3z"/>
						<path class="st4" d="M87,154.3h3.6c0.9,0,1.6,0.7,1.6,1.6v1.4c0,0.9-0.7,1.6-1.6,1.6H87c-0.9,0-1.6-0.7-1.6-1.6v-1.4
							C85.4,155,86.1,154.3,87,154.3z"/>
					</g>
					<path class="st6" d="M83.6,157.4c0,0-1.9-5.1,4.2-4.5l0,0C87.8,152.9,83.1,153.2,83.6,157.4z"/>
					<path class="st3" d="M74.2,151.1L74.2,151.1c0.7,0,1.2,0.5,1.2,1.2v6.5c0,0.7-0.5,1.2-1.2,1.2h0c-0.7,0-1.2-0.5-1.2-1.2v-6.5
						C73,151.6,73.5,151.1,74.2,151.1z"/>
					<path class="st3" d="M102.7,152.1L102.7,152.1c0.7,0,1.2,0.5,1.2,1.2v6.5c0,0.7-0.5,1.2-1.2,1.2h0c-0.7,0-1.2-0.5-1.2-1.2v-6.5
						C101.5,152.7,102.1,152.1,102.7,152.1z"/>
					<path class="st3" d="M125.8,144.9L125.8,144.9c0.7,0,1.2,0.5,1.2,1.2v6.5c0,0.7-0.5,1.2-1.2,1.2h0c-0.7,0-1.2-0.5-1.2-1.2v-6.5
						C124.6,145.4,125.1,144.9,125.8,144.9z"/>
					<path class="st3" d="M51,144.6L51,144.6c0.7,0,1.2,0.5,1.2,1.2v6.5c0,0.7-0.5,1.2-1.2,1.2l0,0c-0.7,0-1.2-0.5-1.2-1.2v-6.5
						C49.7,145.2,50.3,144.6,51,144.6z"/>
					<path class="st7" d="M107.1,165.6c0,0,6.7,11.8,22.6,9.3C129.7,174.9,114,180.3,107.1,165.6z"/>
					<path class="st7" d="M70.8,166.4c0,0-6.4,11.8-21.6,9.3C49.3,175.7,64.2,181.1,70.8,166.4z"/>
					<path class="st7" d="M85.7,168.3c0,0-3.2,24.5,2.9,24.2C88.6,192.6,83.7,191.3,85.7,168.3z"/>
				</g>
				<path class="st3" d="M52.6,360.3c0,0-3.5,3.8-0.8,6.7s9.3,6.5,12.7,7.1c3.3,0.6,12.2-3.4,14.4-4.6s4.6-7.1,0.8-8.5
					C79.8,361,63.7,368.8,52.6,360.3z"/>
				<path class="st3" d="M98,360.9c0,0-3.5,3.8-0.8,6.7s9.3,5.5,12.7,6.1s12.2-2.4,14.5-3.6s4.5-7.1,0.8-8.5
					C125.1,361.6,109,369.3,98,360.9z"/>
				<path class="st7" d="M53.3,360.8c0,0,3.1,6.2,14.1,4.8C67.3,365.5,57.4,365.7,53.3,360.8z"/>
				<path class="st7" d="M109.3,364.3c0,0,8.9,2.2,14.5-2.6C123.8,361.7,119.6,368.4,109.3,364.3z"/>
			</g>
			<g id="snbbshirt2">
				<g id="sbbshirt">
					<path class="st8" d="M70.8,6.9c0,0-34.4,9.7-39.8,17.3s16.6,48.1,16.6,48.1s1.3,10.8,5.3,19.5c0,0-1.8,10.4-0.5,34.2
						c0,0-4.3,13.1-3.8,15c0,0,18.7,14.8,40.2,14.4l0.6-137.4C89.3,18.1,70.1,12.4,70.8,6.9z"/>
					<path class="st8" d="M106,7.3c0,0,35.1,9.3,40.6,16.9s-17.1,49.6-17.1,49.6c-0.7,6.2-2.3,12.3-4.8,18c0,0,1.8,10.4,0.5,34.2
						c0,0,4.3,13.1,3.8,15c0,0-17.2,12.8-38.6,12.4l-1-135.4C89.3,18.1,106.7,12.8,106,7.3z"/>
					<path class="st9" d="M86.6,22.3l1.8,133.1c0,0,2.2-2,2.7-2L90.3,22.2L86.6,22.3z"/>
					<path class="st10" d="M89.5,22.2c0,0-1.8,0.1-1.7,13.7c0.1,6.9,0.8,118.6,0.8,118.6l0.7-1.1C89.3,153.4,89.2,24.1,89.5,22.2z"
						/>
					<ellipse class="st11" cx="88.6" cy="37.7" rx="1.6" ry="1.6"/>
					<path class="st12" d="M89,36.5c0,0-1.4-0.1-1.7,0.9c-0.2,0.8,0.3,1.5,1.1,1.6c0,0,0.1,0,0.1,0C88.6,39,86.1,37.3,89,36.5z"/>
					<circle class="st12" cx="88.6" cy="37.8" r="0.4"/>
					<ellipse class="st11" cx="88.6" cy="25.3" rx="1.6" ry="1.6"/>
					<path class="st12" d="M89,24.1c0,0-1.4-0.1-1.7,0.9c-0.2,0.7,0.3,1.5,1,1.7c0.1,0,0.1,0,0.2,0C88.6,26.6,86.1,25,89,24.1z"/>
					<circle class="st12" cx="88.6" cy="25.4" r="0.4"/>
					<ellipse class="st11" cx="88.7" cy="51" rx="1.6" ry="1.6"/>
					<path class="st12" d="M89.2,49.8c0,0-1.4-0.1-1.7,0.9c-0.2,0.8,0.3,1.5,1.1,1.7c0.1,0,0.1,0,0.2,0
						C88.7,52.4,86.3,50.7,89.2,49.8z"/>
					<circle class="st12" cx="88.7" cy="51.1" r="0.4"/>
					<ellipse class="st11" cx="89" cy="66.7" rx="1.6" ry="1.6"/>
					<path class="st12" d="M89.5,65.5c0,0-1.4-0.1-1.7,0.9c-0.2,0.8,0.3,1.5,1.1,1.7c0,0,0.1,0,0.1,0C89,68.1,86.5,66.4,89.5,65.5z"
						/>
					<circle class="st12" cx="89" cy="66.8" r="0.4"/>
					<ellipse class="st11" cx="89.2" cy="80.1" rx="1.6" ry="1.6"/>
					<path class="st12" d="M89.6,78.8c0,0-1.4-0.1-1.7,0.9c-0.2,0.8,0.3,1.5,1,1.7c0.1,0,0.1,0,0.2,0C89.2,81.4,86.7,79.7,89.6,78.8
						z"/>
					<circle class="st12" cx="89.2" cy="80.2" r="0.4"/>
					<ellipse class="st11" cx="89.1" cy="93.4" rx="1.6" ry="1.6"/>
					<path class="st12" d="M89.6,92.2c0,0-1.4-0.1-1.7,0.9c-0.2,0.8,0.3,1.5,1.1,1.7c0.1,0,0.1,0,0.2,0
						C89.1,94.8,86.7,93.1,89.6,92.2z"/>
					<circle class="st12" cx="89.1" cy="93.5" r="0.4"/>
					<ellipse class="st11" cx="89.3" cy="106.8" rx="1.6" ry="1.6"/>
					<path class="st12" d="M89.7,105.5c0,0-1.4-0.1-1.7,0.9c-0.2,0.8,0.3,1.5,1.1,1.7c0.1,0,0.1,0,0.2,0
						C89.3,108.1,86.8,106.4,89.7,105.5z"/>
					<circle class="st12" cx="89.3" cy="106.9" r="0.4"/>
					<ellipse class="st11" cx="89.5" cy="117.4" rx="1.6" ry="1.6"/>
					<path class="st12" d="M89.9,116.2c0,0-1.4-0.1-1.7,0.9c-0.2,0.8,0.3,1.5,1.1,1.7c0.1,0,0.1,0,0.2,0
						C89.5,118.7,87,117,89.9,116.2z"/>
					<circle class="st12" cx="89.5" cy="117.5" r="0.4"/>
					<ellipse class="st11" cx="89.7" cy="130.7" rx="1.6" ry="1.6"/>
					<path class="st12" d="M90.1,129.5c0,0-1.4-0.1-1.7,0.9c-0.2,0.7,0.3,1.5,1,1.7c0.1,0,0.1,0,0.2,0
						C89.7,132.1,87.2,130.4,90.1,129.5z"/>
					<circle class="st12" cx="89.7" cy="130.8" r="0.4"/>
					<ellipse class="st11" cx="89.7" cy="145.1" rx="1.6" ry="1.6"/>
					<path class="st12" d="M90.1,143.9c0,0-1.4-0.1-1.7,0.9c-0.2,0.8,0.3,1.5,1.1,1.7c0.1,0,0.1,0,0.2,0
						C89.7,146.4,87.2,144.7,90.1,143.9z"/>
					<circle class="st12" cx="89.7" cy="145.2" r="0.4"/>
					<path class="st13" d="M53,53.2c0,0,11.6,5.8,20.3,2.6v17.4c0,0-10.2,7.5-11.5,7.5S53,72.9,53,72.9V53.2z"/>
					<path class="st14" d="M53.5,54.6c0,0,10.5,5.2,18.3,2.4v15.7c0,0-9.2,6.8-10.4,6.8s-7.9-7.1-7.9-7.1L53.5,54.6z"/>
					<path class="st13" d="M124.6,52.8c0,0-11.6,5.8-20.3,2.6v17.4c0,0,10.2,7.5,11.5,7.5s8.7-7.9,8.7-7.9V52.8z"/>
					<path class="st14" d="M124.1,54.1c0,0-10.5,5.2-18.3,2.4v15.7c0,0,9.2,6.7,10.4,6.7s7.9-7.1,7.9-7.1V54.1z"/>
					<path class="st13" d="M53.5,57.6c0,0,7.4,4.1,15,3.3c0,0-8.6,1.6-15-2.4L53.5,57.6z"/>
					<path class="st13" d="M124.1,57.2c0,0-3.8,4-13.1,3.7c0,0,7.4,2.2,13.1-2.7V57.2z"/>
					<path class="st9" d="M93,129.5c0,0-1.7,22.3,4.7,19.3C97.6,148.8,93.5,153.7,93,129.5z"/>
				</g>
				<path class="st15" d="M51.4,13.3c0,0-18.9,4.8-23.1,11.7S12.8,95,12.8,95s-7.9,7.1-7.4,65.9c0,0,15.4,4,23,0
					c0,0,13.8-48.5,9.8-59.1l8-27.6c0,0,2.9,46.2,1.6,51.4S35,168.7,42.2,239.7c0,0,19.3,9.7,29.6,11.9l8.5-159.4l-9.8-78.9H51.4z"
					/>
				<path class="st16" d="M73.3,2.1c0,0-20.3,8.3-21.9,11.2s18.7,24.1,18.7,24.1s-6.9-0.8-7.8,0.4s18.1,48.3,18,54.4
					C80.3,92.2,86.6,44.8,73.3,2.1z"/>
				<path class="st15" d="M125.6,13.3c0,0,18.9,4.8,23.1,11.7s15.6,70,15.6,70s7.9,7.1,7.4,65.9c0,0-15.4,4-23,0
					c0,0-13.8-48.5-9.8-59.1l-8-27.6c0,0-2.9,46.2-1.6,51.4c1.2,5.2,12.9,43.2,5.7,114.2c0,0-19.2,9.7-29.6,11.9L96.7,92.2l9.8-78.9
					H125.6z"/>
				<path class="st16" d="M103.7,2.1c0,0,20.3,8.3,21.9,11.2s-18.7,24.1-18.7,24.1s6.9-0.8,7.8,0.4s-18.1,48.3-18,54.4
					C96.7,92.2,90.4,44.8,103.7,2.1z"/>
				<path class="st17" d="M103.2-4.9C85,8.6,74.1-3.6,74.1-3.6C69.6,1.8,67.2,7,68,10.1l0.5,3.1c0,0-16.6,42.1-9.1,66.5
					s11.4,40.8,7.1,50.7c-3.1,7-6.9,13.7-11.1,20.1c0,0,11.4,15.2,19.6,12.1c0,0,16.4-31.6,10.8-48.8S64.2,69.5,81.3,22l0,0
					c12,1.8,29.1-3.9,29.1-3.9C113.1,7.6,103.2-4.9,103.2-4.9z"/>
				<path class="st17" d="M98.4,16.4c0,0,15.1,52.4,8.8,77.1s7.8,45.8,7.8,45.8s17.1-2,15.9-6.9s-9.8-34.9-8-40.6
					s6.5-53.7-16.3-78.5L98.4,16.4z"/>
				<path class="st18" d="M68,10.1c0,0,8.2,13.5,31.3,9.5C99.3,19.6,78.7,21.6,68,10.1z"/>
				<path class="st18" d="M88.4,13.3c0,0,19.1-2.8,19.2-11.1l1.4,3C108.9,5.1,105,13.2,88.4,13.3z"/>
				<path class="st18" d="M71.8-0.7c0,0,7.9,6.3,17.1,5.6c0,0-14.4-3.9-15.6-7.6L71.8-0.7z"/>
				<path class="st18" d="M71.8,18.6c1.3,1.3,2.8,2.3,4.5,3.1c0.9,0.4,1.8,0.5,2.7,0.5L77,28l0.7-4.7h-1.1L75.4,25v-2.8
					C75.4,22.2,72.2,20.1,71.8,18.6z"/>
				<path class="st18" d="M74.7,37.4c0,0-5.6,26.4-3.8,35.8s12.6,39.5,12.3,41.5c0,0-13.2-33.6-13.9-41.1S73.1,39.3,74.7,37.4z"/>
				<path class="st18" d="M110.4,65.1c0,0,1.4,23.4-2.8,34.1s5.8,29.9,5.8,29.9s-7.5-22.5-4.5-29.4S112.2,70,110.4,65.1z"/>
				<path class="st18" d="M100.8,21.4c0,0,5.3-0.3,6.3-1.8c-0.8,0.9-1.9,1.5-3.1,1.8l0.4,2.7l-1.1-2.2h-1.5c0,0,2.4,9.6,2.6,13.4
					C104.3,35.2,102,22.1,100.8,21.4z"/>
				<path class="st16" d="M30.1,23.7c0,0,13.3,7,12.8,29.5c0,0,3.2-22.8-11.1-31L30.1,23.7z"/>
				<path class="st16" d="M140.7,20.1c0,0-13.3,7-12.8,29.5c0,0-3.2-22.8,11.1-31L140.7,20.1z"/>
				<ellipse class="st19" cx="100.7" cy="106.3" rx="2" ry="2"/>
				<circle class="st11" cx="100.1" cy="105.8" r="0.3"/>
				<circle class="st11" cx="101.4" cy="105.8" r="0.3"/>
				<circle class="st11" cx="101.4" cy="106.8" r="0.3"/>
				<circle class="st11" cx="100.1" cy="106.9" r="0.3"/>
			</g>
		</g>
	</g>
</g>
</svg>
