<svg xmlns="http://www.w3.org/2000/svg" viewBox="0 0 336.58 816.83"><defs><style>.cls-1{fill:#473319;}.cls-2{fill:#684b1e;}.cls-3{fill:#1a1a21;}.cls-4{fill:#212121;}.cls-5{fill:#8c8357;}.cls-6{fill:#a39662;}.cls-7{fill:#231e2b;}.cls-8{fill:#d8d8d8;}.cls-9{fill:#afafaf;}.cls-10{fill:#1b1d23;}.cls-11{fill:#3b3c49;}.cls-12{fill:#444;}.cls-13{fill:#4c4c4c;}.cls-14{fill:#797a64;}.cls-15{fill:#686854;}</style></defs><title>snbb</title><g id="Layer_2" data-name="Layer 2"><g id="snbb"><g id="snbb-2" data-name="snbb"><g id="dressshoes"><g id="sbbshoes"><path class="cls-1" d="M96.2,779.5s-15.15,34.33,19.35,37.33c0,0,31,0,37-14.5,3-7.23-8-29.5-8-29.5s7.69,22.78,6,25.21-15.5,14.8-33,12.29-24.7-5.67-21.35-30.83"/><path class="cls-2" d="M106.11,751.83S94.75,775.39,93.4,796.11c0,0,1.15,14.72,22.15,16.22s36-10.05,36-14.29-10.86-46.21-10.86-46.21l-9.14,6c-1-4.5-19-5.5-19.5,0Z"/><path class="cls-1" d="M97.38,799.33s5.5-3.33,8-3.5v.44s-5.17,1.25-8,3.5Z"/><path class="cls-1" d="M109.31,794.71s6.17-1.8,8.63-1.32l-.11.42s-5.32-.12-8.63,1.32Z"/><path class="cls-1" d="M120.56,792.62s6.27-1.41,8.7-.77l-.14.41s-5.3-.46-8.7.77Z"/><path class="cls-1" d="M133.34,791.48s6.4-.66,8.73.26l-.19.4s-5.2-1.09-8.73-.27Z"/><path class="cls-1" d="M144.89,792.22s6.07,2.12,7.79,3.95l-.33.27s-4.25-3.19-7.79-3.94Z"/><path class="cls-1" d="M112,757.83l3.51,29.67S110.91,759.75,112,757.83Z"/><path class="cls-1" d="M131.2,787.76s1.49-27.81.63-29.86l-.63,29.86"/><polyline class="cls-1" points="112.32 760.15 121.18 764.5 132.01 759 132.08 760.66 121.18 766 131.65 768 131.65 769.5 121.18 767.16 113.11 771.49 112.95 770.37 120.42 766 111.87 761 112.32 760.15"/><polyline class="cls-1" points="112.81 770.81 121.67 775.15 132.5 769.66 132.58 771.32 121.67 776.65 132.15 778.65 132.15 780.15 121.67 777.82 113.6 782.15 113.45 781.03 120.91 776.65 112.36 771.65 112.81 770.81"/><polyline class="cls-1" points="112.81 780.8 121.67 785.15 132.5 779.65 132.58 781.31 121.67 786.65 132.15 788.65 132.15 790.15 121.67 787.82 113.6 792.14 113.45 791.02 120.91 786.65 112.36 781.65 112.81 780.8"/></g><g id="sbbshoes-2" data-name="sbbshoes"><path class="cls-1" d="M240.28,777.31s15.14,34.34-19.35,37.34c0,0-31,0-37-14.5-3-7.23,8-29.5,8-29.5s-7.69,22.78-6,25.2,15.5,14.81,33,12.3,24.71-5.67,21.36-30.84"/><path class="cls-2" d="M230.36,749.65s11.37,23.55,12.72,44.28c0,0-1.16,14.72-22.15,16.22s-36-10-36-14.3,10.87-46.2,10.87-46.2l9.13,6c1-4.5,19-5.5,19.5,0Z"/><path class="cls-1" d="M239.1,797.15s-5.5-3.34-8-3.5v.43s5.16,1.25,8,3.5Z"/><path class="cls-1" d="M227.17,792.52s-6.18-1.8-8.64-1.31l.12.42s5.31-.13,8.63,1.32Z"/><path class="cls-1" d="M215.92,790.44s-6.28-1.42-8.7-.78l.14.42s5.29-.46,8.69.77Z"/><path class="cls-1" d="M203.13,789.29s-6.39-.65-8.72.27l.18.4s5.21-1.09,8.73-.27Z"/><path class="cls-1" d="M191.58,790s-6.07,2.13-7.79,4l.34.28s4.25-3.19,7.79-4Z"/><path class="cls-1" d="M224.43,755.65l-3.5,29.66S225.56,757.56,224.43,755.65Z"/><path class="cls-1" d="M205.27,785.58s-1.49-27.81-.63-29.87l.63,29.87"/><polyline class="cls-1" points="224.16 757.97 215.29 762.31 204.47 756.82 204.39 758.48 215.29 763.81 204.82 765.81 204.82 767.31 215.29 764.98 223.37 769.31 223.52 768.19 216.06 763.81 224.61 758.81 224.16 757.97"/><polyline class="cls-1" points="223.66 768.63 214.8 772.97 203.97 767.48 203.9 769.14 214.8 774.47 204.33 776.47 204.33 777.97 214.8 775.64 222.87 779.96 223.02 778.85 215.56 774.47 224.11 769.47 223.66 768.63"/><polyline class="cls-1" points="223.66 778.62 214.8 782.97 203.97 777.47 203.9 779.13 214.8 784.47 204.33 786.47 204.33 787.97 214.8 785.63 222.87 789.96 223.02 788.84 215.56 784.47 224.11 779.47 223.66 778.62"/></g></g><g id="snbbpants"><g id="sbbpants2"><g id="sbbpants"><path class="cls-3" d="M92.46,276.75s60.79,45.59,151.59,0c0,0,21.23,63.34,14.73,146.34s-14,104-14,110,7,86.5,7,92.5-11.5,108.5-11.5,108.5-15.72,6.69-26.8,7.69S187.83,730,187.83,730s-15.42-114.37-13.24-133.37,6.19-56.5,5.19-71.5-7.34-138.5-7.34-138.5l-7.66-1s-4.5,119-9.5,138,1.49,45.46,2,78c.23,14.92-9,134-9,134s-21,10-27.5,10-24.5-15.5-24.5-15.5-12-129-10-134.5,6-61,6-70-17-53-18-111S82.81,286.27,92.46,276.75Z"/><path class="cls-4" d="M88.18,283.31s-5,5.95-4,12.78c0,0,51.78,18.66,83.41,18.83,32.89.18,82.63-17.83,82.63-17.83s-.5-12.39-4.79-13.78C245.41,283.31,184,321.51,88.18,283.31Z"/><rect class="cls-5" x="156.07" y="297.97" width="24.37" height="17.41" rx="2.9" ry="2.9"/><rect class="cls-4" x="161.37" y="302.03" width="13.78" height="9.28" rx="1.59" ry="1.59"/></g><path class="cls-6" d="M157.78,308.24s-3.88-10.37,8.5-9h0S156.65,299.87,157.78,308.24Z"/><rect class="cls-3" x="136.26" y="295.48" width="4.93" height="18.08" rx="1.47" ry="1.47"/><rect class="cls-3" x="194.01" y="297.63" width="4.93" height="18.08" rx="1.47" ry="1.47"/><rect class="cls-3" x="240.76" y="283.04" width="4.93" height="18.08" rx="1.47" ry="1.47"/><rect class="cls-3" x="89.23" y="282.53" width="4.93" height="18.08" rx="1.47" ry="1.47"/><path class="cls-7" d="M205.28,324.75s13.5,23.67,45.75,18.67C251,343.42,219.28,354.41,205.28,324.75Z"/><path class="cls-7" d="M131.9,326.37S119,350.05,88.23,345.05C88.23,345.05,118.54,356,131.9,326.37Z"/><path class="cls-7" d="M162,330.3s-6.56,49.29,5.89,48.79C167.84,379.09,157.89,376.52,162,330.3Z"/></g><path class="cls-3" d="M95.09,717.06S88,724.8,93.37,730.55s18.9,13,25.65,14.25,24.77-6.91,29.26-9.21,9.2-14.35,1.72-17.07C150,718.52,117.4,734.08,95.09,717.06Z"/><path class="cls-3" d="M186.93,718.17s-7.12,7.74-1.72,13.49,18.9,11,25.65,12.25,24.77-4.91,29.26-7.21,9.2-14.35,1.72-17.07C241.84,719.63,209.24,735.19,186.93,718.17Z"/><path class="cls-7" d="M96.33,718s6.28,12.59,28.48,9.59C124.81,727.55,104.63,727.88,96.33,718Z"/><path class="cls-7" d="M209.78,725.06s18.09,4.5,29.29-5.26C239.07,719.8,230.54,733.33,209.78,725.06Z"/></g><g id="snbbshirt"><g id="sbbshirt"><path class="cls-8" d="M132.49,23.8S62.9,43.44,51.78,58.73s33.64,96.84,33.64,96.84S88,177.3,96.12,194.8c0,0-3.75,21-1,68.88,0,0-8.63,26.3-7.63,30.25,0,0,38,29.75,81.28,29.08l1.17-276.7S131,34.8,132.49,23.8Z"/><path class="cls-8" d="M203.66,24.68s71.09,18.76,82.21,34.05-34.64,99.84-34.64,99.84-1.57,18.73-9.7,36.23c0,0,3.75,21,1,68.88,0,0,8.63,26.3,7.63,30.25,0,0-34.89,25.75-78.22,25.08l-2-272.7S205.16,35.68,203.66,24.68Z"/><path class="cls-9" d="M164.49,54.93,168.16,323s4.36-4,5.5-4L172,54.63Z"/><path class="cls-8" d="M170.36,54.63s-3.64.27-3.36,27.55c.15,14,1.5,239,1.5,239l1.39-2.13S169.69,58.55,170.36,54.63Z"/><circle class="cls-10" cx="168.44" cy="85.84" r="3.22"/><path class="cls-11" d="M169.31,83.36s-2.93-.27-3.38,1.75a2.84,2.84,0,0,0,2.51,3.44S163.43,85.11,169.31,83.36Z"/><circle class="cls-11" cx="168.44" cy="86.05" r="0.75"/><circle class="cls-10" cx="168.44" cy="60.88" r="3.22"/><path class="cls-11" d="M169.31,58.41s-2.93-.27-3.38,1.75a2.83,2.83,0,0,0,2.51,3.43S163.43,60.16,169.31,58.41Z"/><circle class="cls-11" cx="168.44" cy="61.09" r="0.75"/><circle class="cls-10" cx="168.77" cy="112.72" r="3.22"/><path class="cls-11" d="M169.64,110.24s-2.92-.27-3.37,1.75a2.84,2.84,0,0,0,2.5,3.44S163.77,112,169.64,110.24Z"/><circle class="cls-11" cx="168.77" cy="112.93" r="0.75"/><circle class="cls-10" cx="169.35" cy="144.37" r="3.22"/><path class="cls-11" d="M170.23,141.89s-2.93-.27-3.38,1.75a2.84,2.84,0,0,0,2.5,3.44S164.35,143.64,170.23,141.89Z"/><circle class="cls-11" cx="169.35" cy="144.58" r="0.75"/><circle class="cls-10" cx="169.69" cy="171.24" r="3.22"/><path class="cls-11" d="M170.56,168.76s-2.92-.27-3.37,1.75a2.83,2.83,0,0,0,2.5,3.44S164.69,170.51,170.56,168.76Z"/><circle class="cls-11" cx="169.69" cy="171.45" r="0.75"/><circle class="cls-10" cx="169.61" cy="198.12" r="3.22"/><path class="cls-11" d="M170.48,195.64s-2.93-.27-3.38,1.75a2.84,2.84,0,0,0,2.51,3.44S164.6,197.39,170.48,195.64Z"/><circle class="cls-11" cx="169.61" cy="198.33" r="0.75"/><circle class="cls-10" cx="169.94" cy="224.99" r="3.22"/><path class="cls-11" d="M170.81,222.52s-2.92-.27-3.37,1.75a2.83,2.83,0,0,0,2.5,3.43S164.94,224.27,170.81,222.52Z"/><circle class="cls-11" cx="169.94" cy="225.2" r="0.75"/><circle class="cls-10" cx="170.31" cy="246.44" r="3.22"/><path class="cls-11" d="M171.18,244s-2.93-.27-3.38,1.75a2.85,2.85,0,0,0,2.51,3.44S165.3,245.71,171.18,244Z"/><circle class="cls-11" cx="170.31" cy="246.65" r="0.75"/><circle class="cls-10" cx="170.65" cy="273.31" r="3.22"/><path class="cls-11" d="M171.52,270.83s-2.93-.27-3.38,1.75a2.84,2.84,0,0,0,2.51,3.44S165.64,272.58,171.52,270.83Z"/><circle class="cls-11" cx="170.65" cy="273.52" r="0.75"/><circle class="cls-10" cx="170.69" cy="302.22" r="3.22"/><path class="cls-11" d="M171.56,299.74s-2.92-.27-3.37,1.75a2.84,2.84,0,0,0,2.5,3.44S165.69,301.49,171.56,299.74Z"/><circle class="cls-11" cx="170.69" cy="302.43" r="0.75"/><path class="cls-9" d="M96.49,117.19s23.5,11.64,41,5.32v35.08s-20.69,15.1-23.35,15.1-17.65-15.85-17.65-15.85Z"/><path class="cls-8" d="M97.45,119.85s21.25,10.52,37.07,4.81v31.71S115.82,170,113.42,170s-16-14.34-16-14.34Z"/><path class="cls-9" d="M241.38,116.29s-23.5,11.65-41,5.32v35.08s20.69,15.1,23.35,15.1,17.65-15.85,17.65-15.85Z"/><path class="cls-8" d="M240.42,119s-21.25,10.53-37.07,4.82v31.71s18.7,13.65,21.11,13.65,16-14.33,16-14.33Z"/><path class="cls-9" d="M97.45,126.05s14.92,8.25,30.29,6.63c0,0-17.37,3.12-30.29-4.75Z"/><path class="cls-9" d="M240.42,125.18s-7.8,8-26.55,7.5c0,0,15,4.5,26.55-5.38Z"/><path class="cls-9" d="M177.33,270.82s-3.38,44.86,9.48,38.86C186.81,309.68,178.33,319.64,177.33,270.82Z"/></g><path class="cls-12" d="M93.22,36.67S55,46.33,46.54,60.33s-31.5,141-31.5,141S-1,215.65,0,334c0,0,31.14,8.16,46.57,0,0,0,27.93-97.78,19.93-119l16.2-55.69s5.8,93,3.3,103.5-26,87-11.5,230c0,0,39,19.5,60,24l17.19-321.2-19.9-159Z"/><path class="cls-13" d="M137.49,14.22S96.4,31,93.22,36.67,131,85.3,131,85.3s-14-1.53-15.75.75,36.61,97.38,36.44,109.58C151.71,195.63,164.43,100.1,137.49,14.22Z"/><path class="cls-12" d="M243.35,36.67S281.53,46.33,290,60.33s31.5,141,31.5,141,16,14.31,15,132.65c0,0-31.13,8.16-46.56,0,0,0-27.94-97.78-19.94-119l-16.19-55.69s-5.81,93-3.31,103.5,26,87,11.5,230c0,0-38.95,19.5-60,24l-17.19-321.2,19.9-159Z"/><path class="cls-13" d="M199.09,14.22S240.18,31,243.35,36.67,205.56,85.3,205.56,85.3s14-1.53,15.75.75-36.61,97.38-36.44,109.58C184.87,195.63,172.15,100.1,199.09,14.22Z"/><path class="cls-14" d="M198,0c-36.71,27.34-58.94,2.67-58.94,2.67-9,10.81-13.85,21.33-12.27,27.66l.95,6.34s-33.67,84.73-18.35,134,23,82.18,14.49,102.07-22.5,40.39-22.5,40.39,23.12,30.58,39.56,24.38c0,0,33.26-63.61,21.77-98.21S119.07,150,153.77,54.22h0c24.24,3.64,58.93-7.77,58.93-7.77C218.09,25.12,198,0,198,0Z"/><path class="cls-14" d="M188.41,43s30.52,105.65,17.74,155.32,15.74,92.34,15.74,92.34,34.54-4.13,32.12-13.92-19.95-70.28-16.29-81.85S250.84,86.67,204.77,36.67Z"/><path class="cls-15" d="M126.79,30.33s16.54,27.26,63.4,19.13C190.19,49.46,148.53,53.33,126.79,30.33Z"/><path class="cls-15" d="M168.06,36.67s38.64-5.57,38.81-22.45l2.75,6.08S201.68,36.45,168.06,36.67Z"/><path class="cls-15" d="M134.52,8.59s16.08,12.74,34.55,11.24c0,0-29.14-7.94-31.58-15.22Z"/><path class="cls-15" d="M134.52,47.33a29.73,29.73,0,0,0,9.16,6.19,14.5,14.5,0,0,0,5.45,1.11L145,66.33l1.34-9.5H144l-2.21,3.51V54.63S135.33,50.33,134.52,47.33Z"/><path class="cls-15" d="M140.29,85.3s-11.25,53.28-7.75,72,25.41,79.5,25,83.5c0,0-26.71-67.75-28.21-82.75S137,89,140.29,85.3Z"/><path class="cls-15" d="M212.7,141.15s2.84,47.18-5.66,68.68,11.77,60.26,11.77,60.26-15.11-45.26-9.19-59.26S216.35,151,212.7,141.15Z"/><path class="cls-15" d="M193.21,53s10.67-.67,12.67-3.67A13.05,13.05,0,0,1,199.54,53l.84,5.39-2.17-4.53h-3s4.85,19.3,5.17,27C200.38,80.83,195.71,54.53,193.21,53Z"/><path class="cls-13" d="M50,57.66s27,14,25.85,59.53c0,0,6.52-45.92-22.48-62.56Z"/><path class="cls-13" d="M274,50.36s-27,14-25.85,59.53c0,0-6.52-45.92,22.48-62.56Z"/><circle class="cls-13" cx="192.95" cy="224.11" r="4.11"/><circle class="cls-10" cx="191.83" cy="223.13" r="0.62"/><circle class="cls-10" cx="194.34" cy="223.13" r="0.62"/><circle class="cls-10" cx="194.34" cy="225.1" r="0.62"/><circle class="cls-10" cx="191.83" cy="225.33" r="0.62"/></g></g></g></g></svg>