<svg xmlns="http://www.w3.org/2000/svg" viewBox="0 0 183 415"><defs><style>.cls-1{fill:none;}.cls-2{fill:#473319;}.cls-3{fill:#684b1e;}.cls-4{fill:#b2b2b2;}.cls-5{fill:#212121;}.cls-6{fill:#8c8357;}.cls-7{fill:#a39662;}.cls-8{fill:#969696;}.cls-9{fill:#d3d2af;}.cls-10{fill:#c6c49e;}.cls-11{fill:#d8d8bc;}.cls-12{fill:#1b1d23;}.cls-13{fill:#3b3c49;}.cls-14{fill:#afafaf;}.cls-15{fill:#d8d8d8;}.cls-16{fill:#937855;}.cls-17{fill:#896c4d;}.cls-18{fill:#773d3a;}.cls-19{fill:#663231;}.cls-20{fill:#42311f;}</style></defs><title>snbb2</title><g id="Layer_2" data-name="Layer 2"><g id="snbb2"><g id="snbb2-2" data-name="snbb2"><rect class="cls-1" width="183" height="415"/><g id="dressshoes"><g id="sbbshoes"><path class="cls-2" d="M55.6,389.38s-7.48,17,9.56,18.53c0,0,15.31,0,18.28-7.19,1.48-3.59-4-14.65-4-14.65s3.79,11.31,3,12.52-7.66,7.34-16.3,6.1S54,401.87,55.6,389.38"/><path class="cls-3" d="M60.5,375.65s-5.61,11.69-6.28,22c0,0,.57,7.31,10.94,8.05s17.78-5,17.78-7.09-5.37-22.94-5.37-22.94l-4.51,3c-.49-2.24-9.38-2.73-9.63,0Z"/><path class="cls-2" d="M56.19,399.23s2.71-1.66,4-1.74v.22a12.49,12.49,0,0,0-4,1.73Z"/><path class="cls-2" d="M62.08,396.93s3-.89,4.26-.65l0,.21a12.46,12.46,0,0,0-4.26.65Z"/><path class="cls-2" d="M67.64,395.9s3.1-.7,4.29-.39l-.06.21a12.4,12.4,0,0,0-4.3.38Z"/><path class="cls-2" d="M74,395.33s3.16-.33,4.31.13l-.09.2a12.3,12.3,0,0,0-4.31-.13Z"/><path class="cls-2" d="M79.66,395.7s3,1.05,3.85,2l-.17.13a12.53,12.53,0,0,0-3.85-2Z"/><path class="cls-2" d="M63.43,378.63l1.73,14.72S62.87,379.58,63.43,378.63Z"/><path class="cls-2" d="M72.89,393.49s.74-13.81.32-14.83l-.32,14.83"/><polyline class="cls-2" points="63.57 379.78 67.94 381.94 73.29 379.21 73.33 380.03 67.94 382.68 73.12 383.68 73.12 384.42 67.94 383.26 63.96 385.41 63.88 384.85 67.57 382.68 63.34 380.2 63.57 379.78"/><polyline class="cls-2" points="63.81 385.07 68.19 387.23 73.54 384.5 73.57 385.32 68.19 387.97 73.36 388.96 73.36 389.71 68.19 388.55 64.2 390.7 64.13 390.14 67.81 387.97 63.59 385.49 63.81 385.07"/><polyline class="cls-2" points="63.81 390.03 68.19 392.19 73.54 389.46 73.57 390.28 68.19 392.93 73.36 393.93 73.36 394.67 68.19 393.51 64.2 395.66 64.13 395.1 67.81 392.93 63.59 390.45 63.81 390.03"/></g><g id="sbbshoes-2" data-name="sbbshoes"><path class="cls-2" d="M126.77,388.3s7.48,17-9.56,18.53c0,0-15.31,0-18.27-7.2-1.48-3.59,4-14.64,4-14.64s-3.8,11.31-3,12.51,7.66,7.35,16.3,6.1,12.2-2.81,10.54-15.3"/><path class="cls-3" d="M121.88,374.57s5.61,11.69,6.28,22c0,0-.57,7.31-11,8.06s-17.77-5-17.77-7.1,5.36-22.93,5.36-22.93l4.51,3c.5-2.23,9.39-2.73,9.63,0Z"/><path class="cls-2" d="M126.19,398.14s-2.72-1.65-4-1.73v.21a12.36,12.36,0,0,1,4,1.74Z"/><path class="cls-2" d="M120.3,395.85s-3-.9-4.27-.65l.06.21a12.23,12.23,0,0,1,4.26.65Z"/><path class="cls-2" d="M114.74,394.81s-3.1-.7-4.3-.38l.07.2a12.51,12.51,0,0,1,4.3.39Z"/><path class="cls-2" d="M108.43,394.25s-3.16-.33-4.32.13l.1.19a12.57,12.57,0,0,1,4.31-.13Z"/><path class="cls-2" d="M102.72,394.61s-3,1.06-3.85,2l.17.14a12.53,12.53,0,0,1,3.85-2Z"/><path class="cls-2" d="M118.94,377.54l-1.73,14.73S119.51,378.5,118.94,377.54Z"/><path class="cls-2" d="M109.48,392.4s-.73-13.8-.31-14.82l.31,14.82"/><polyline class="cls-2" points="118.81 378.7 114.43 380.85 109.08 378.13 109.05 378.95 114.43 381.6 109.26 382.59 109.26 383.34 114.43 382.18 118.42 384.32 118.5 383.77 114.81 381.6 119.03 379.12 118.81 378.7"/><polyline class="cls-2" points="118.56 383.99 114.19 386.14 108.84 383.42 108.8 384.24 114.19 386.89 109.02 387.88 109.02 388.63 114.19 387.47 118.18 389.61 118.25 389.06 114.56 386.89 118.79 384.41 118.56 383.99"/><polyline class="cls-2" points="118.56 388.95 114.19 391.1 108.84 388.38 108.8 389.2 114.19 391.85 109.02 392.84 109.02 393.59 114.19 392.43 118.18 394.57 118.25 394.02 114.56 391.85 118.79 389.37 118.56 388.95"/></g></g><g id="snbbpants2"><g id="sbbpants2"><g id="sbbpants"><path class="cls-4" d="M53.35,142.77s30,22.63,74.88,0c0,0,10.48,31.44,7.27,72.64S128.59,267,128.59,270s3.46,42.93,3.46,45.91-5.69,53.85-5.69,53.85-7.76,3.33-13.23,3.82-12.67-5.86-12.67-5.86-7.62-56.77-6.54-66.2,3.06-28,2.56-35.49-3.62-68.75-3.62-68.75l-3.79-.5s-2.22,59.07-4.69,68.5.74,22.56,1,38.72c.11,7.4-4.45,66.51-4.45,66.51s-10.37,5-13.58,5-12.1-7.69-12.1-7.69-5.93-64-4.94-66.76,3-30.28,3-34.75-8.4-26.3-8.89-55.09S48.58,147.49,53.35,142.77Z"/><path class="cls-5" d="M51.24,146s-2.47,2.95-2,6.34c0,0,25.58,9.26,41.2,9.34,16.25.09,40.82-8.84,40.82-8.84s-.25-6.16-2.37-6.84C128.9,146,98.55,165,51.24,146Z"/><rect class="cls-6" x="84.77" y="153.3" width="12.04" height="8.64" rx="2.9" ry="2.9"/><rect class="cls-5" x="87.39" y="155.32" width="6.81" height="4.61" rx="1.59" ry="1.59"/></g><path class="cls-7" d="M85.61,158.4s-1.91-5.15,4.2-4.47h0S85.06,154.24,85.61,158.4Z"/><rect class="cls-4" x="74.99" y="152.07" width="2.43" height="8.97" rx="1.22" ry="1.22"/><rect class="cls-4" x="103.51" y="153.13" width="2.43" height="8.97" rx="1.22" ry="1.22"/><rect class="cls-4" x="126.6" y="145.89" width="2.43" height="8.97" rx="1.22" ry="1.22"/><rect class="cls-4" x="51.75" y="145.64" width="2.43" height="8.97" rx="1.22" ry="1.22"/><path class="cls-8" d="M109.08,166.59s6.67,11.75,22.6,9.27C131.68,175.86,116,181.31,109.08,166.59Z"/><path class="cls-8" d="M72.83,167.4s-6.36,11.75-21.57,9.27C51.26,176.67,66.23,182.12,72.83,167.4Z"/><path class="cls-8" d="M87.67,169.35s-3.23,24.46,2.91,24.22C90.58,193.57,85.67,192.29,87.67,169.35Z"/></g><path class="cls-4" d="M54.65,361.32s-3.52,3.84-.85,6.7,9.34,6.45,12.67,7.07,12.23-3.43,14.45-4.57,4.55-7.12.85-8.47C81.77,362.05,65.67,369.77,54.65,361.32Z"/><path class="cls-4" d="M100,361.87s-3.51,3.84-.85,6.7,9.34,5.46,12.67,6.08,12.24-2.44,14.46-3.58,4.54-7.12.85-8.47C127.14,362.6,111,370.32,100,361.87Z"/><path class="cls-8" d="M55.26,361.77s3.1,6.25,14.07,4.76C69.33,366.53,59.36,366.69,55.26,361.77Z"/><path class="cls-8" d="M111.3,365.29s8.94,2.24,14.47-2.61C125.77,362.68,121.56,369.4,111.3,365.29Z"/></g><g id="snbbshirt2"><g id="sbbshirt"><path class="cls-9" d="M73.82,14.9S39.44,24.65,34,32.24,50.57,80.31,50.57,80.31s1.27,10.78,5.28,19.47c0,0-1.85,10.42-.49,34.19,0,0-4.26,13.05-3.77,15,0,0,18.74,14.77,40.15,14.44l.58-137.35S73.08,20.36,73.82,14.9Z"/><path class="cls-9" d="M109,15.33s35.12,9.32,40.61,16.91S132.47,81.8,132.47,81.8a60.7,60.7,0,0,1-4.79,18s1.85,10.42.49,34.19c0,0,4.26,13.05,3.77,15,0,0-17.23,12.78-38.64,12.45l-1-135.36S109.71,20.79,109,15.33Z"/><path class="cls-10" d="M89.62,30.35l1.82,133.07s2.15-2,2.71-2L93.33,30.2Z"/><path class="cls-11" d="M92.52,30.2s-1.79.14-1.66,13.68c.08,6.94.75,118.61.75,118.61l.68-1.05S92.19,32.15,92.52,30.2Z"/><ellipse class="cls-12" cx="91.57" cy="45.7" rx="1.59" ry="1.6"/><path class="cls-13" d="M92,44.46s-1.44-.13-1.66.87A1.4,1.4,0,0,0,91.57,47S89.1,45.33,92,44.46Z"/><circle class="cls-13" cx="91.57" cy="45.8" r="0.37"/><ellipse class="cls-12" cx="91.57" cy="33.31" rx="1.59" ry="1.6"/><path class="cls-13" d="M92,32.08s-1.44-.14-1.66.87a1.39,1.39,0,0,0,1.23,1.7S89.1,33,92,32.08Z"/><circle class="cls-13" cx="91.57" cy="33.41" r="0.37"/><ellipse class="cls-12" cx="91.74" cy="59.04" rx="1.59" ry="1.6"/><path class="cls-13" d="M92.17,57.81s-1.45-.14-1.67.86a1.41,1.41,0,0,0,1.24,1.71S89.27,58.67,92.17,57.81Z"/><circle class="cls-13" cx="91.74" cy="59.14" r="0.37"/><ellipse class="cls-12" cx="92.03" cy="74.74" rx="1.59" ry="1.6"/><path class="cls-13" d="M92.46,73.51s-1.45-.13-1.67.87A1.41,1.41,0,0,0,92,76.09S89.55,74.38,92.46,73.51Z"/><circle class="cls-13" cx="92.03" cy="74.85" r="0.37"/><ellipse class="cls-12" cx="92.19" cy="88.08" rx="1.59" ry="1.6"/><path class="cls-13" d="M92.62,86.85s-1.44-.13-1.66.87a1.4,1.4,0,0,0,1.23,1.71S89.72,87.72,92.62,86.85Z"/><circle class="cls-13" cx="92.19" cy="88.19" r="0.37"/><ellipse class="cls-12" cx="92.15" cy="101.43" rx="1.59" ry="1.6"/><path class="cls-13" d="M92.58,100.19s-1.45-.13-1.67.87a1.41,1.41,0,0,0,1.24,1.71S89.68,101.06,92.58,100.19Z"/><circle class="cls-13" cx="92.15" cy="101.53" r="0.37"/><ellipse class="cls-12" cx="92.32" cy="114.77" rx="1.59" ry="1.6"/><path class="cls-13" d="M92.75,113.53s-1.45-.13-1.67.87a1.41,1.41,0,0,0,1.24,1.71S89.85,114.4,92.75,113.53Z"/><circle class="cls-13" cx="92.32" cy="114.87" r="0.37"/><ellipse class="cls-12" cx="92.5" cy="125.41" rx="1.59" ry="1.6"/><path class="cls-13" d="M92.93,124.18s-1.45-.14-1.67.87a1.41,1.41,0,0,0,1.24,1.7S90,125.05,92.93,124.18Z"/><circle class="cls-13" cx="92.5" cy="125.51" r="0.37"/><ellipse class="cls-12" cx="92.66" cy="138.75" rx="1.59" ry="1.6"/><path class="cls-13" d="M93.09,137.52s-1.44-.14-1.66.87a1.39,1.39,0,0,0,1.23,1.7S90.19,138.39,93.09,137.52Z"/><circle class="cls-13" cx="92.66" cy="138.85" r="0.37"/><ellipse class="cls-12" cx="92.69" cy="153.1" rx="1.59" ry="1.6"/><path class="cls-13" d="M93.12,151.87s-1.45-.14-1.67.86a1.41,1.41,0,0,0,1.24,1.71S90.22,152.73,93.12,151.87Z"/><circle class="cls-13" cx="92.69" cy="153.2" r="0.37"/><path class="cls-14" d="M56,61.25S67.64,67,76.29,63.89V81.31S66.07,88.8,64.75,88.8,56,80.93,56,80.93Z"/><path class="cls-15" d="M56.51,62.57S67,67.8,74.82,65V80.7s-9.24,6.78-10.42,6.78-7.89-7.11-7.89-7.11Z"/><path class="cls-14" d="M127.61,60.81S116,66.59,107.35,63.45V80.86s10.22,7.5,11.53,7.5,8.73-7.87,8.73-7.87Z"/><path class="cls-15" d="M127.13,62.13s-10.5,5.23-18.31,2.39V80.26S118.06,87,119.24,87s7.89-7.12,7.89-7.12Z"/><path class="cls-14" d="M56.51,65.65s7.37,4.1,15,3.29c0,0-8.58,1.55-15-2.36Z"/><path class="cls-14" d="M127.13,65.22s-3.85,4-13.12,3.72c0,0,7.4,2.24,13.12-2.67Z"/><path class="cls-10" d="M96,137.51s-1.66,22.27,4.69,19.29C100.65,156.8,96.46,161.74,96,137.51Z"/></g><path class="cls-16" d="M54.42,21.29S35.56,26.08,31.36,33,15.8,103,15.8,103s-7.9,7.1-7.4,65.85c0,0,15.37,4,23,0,0,0,13.79-48.54,9.84-59.06l8-27.64s2.87,46.16,1.64,51.38S38,176.73,45.19,247.71c0,0,19.25,9.68,29.63,11.91l8.49-159.43-9.83-78.9Z"/><path class="cls-17" d="M76.29,10.14S56,18.47,54.42,21.29,73.09,45.43,73.09,45.43s-6.93-.76-7.78.37,18.09,48.33,18,54.39C83.31,100.19,89.59,52.77,76.29,10.14Z"/><path class="cls-16" d="M128.58,21.29S147.44,26.08,151.64,33s15.56,70,15.56,70,7.9,7.1,7.4,65.85c0,0-15.37,4-23,0,0,0-13.79-48.54-9.84-59.06l-8-27.64s-2.87,46.16-1.64,51.38,12.85,43.18,5.69,114.16c0,0-19.25,9.68-29.63,11.91L99.69,100.19l9.83-78.9Z"/><path class="cls-17" d="M106.71,10.14s20.3,8.33,21.87,11.15-18.67,24.14-18.67,24.14,6.93-.76,7.78.37-18.09,48.33-18,54.39C99.69,100.19,93.41,52.77,106.71,10.14Z"/><path class="cls-18" d="M106.18,3.09C88,16.65,77.06,4.41,77.06,4.41,72.62,9.78,70.22,15,71,18.14l.47,3.15S54.84,63.35,62.41,87.82s11.35,40.79,7.15,50.66a138.82,138.82,0,0,1-11.11,20.05S69.87,173.71,78,170.63c0,0,16.43-31.57,10.75-48.75S67.19,77.55,84.33,30h0c12,1.81,29.11-3.86,29.11-3.86C116.1,15.56,106.18,3.09,106.18,3.09Z"/><path class="cls-18" d="M101.44,24.43s15.07,52.44,8.76,77.1S118,147.36,118,147.36s17.07-2,15.87-6.91-9.85-34.88-8-40.62,6.48-53.73-16.27-78.54Z"/><path class="cls-19" d="M71,18.14s8.17,13.53,31.32,9.5C102.32,27.64,81.74,29.56,71,18.14Z"/><path class="cls-19" d="M91.39,21.29s19.08-2.77,19.17-11.15l1.36,3S108,21.18,91.39,21.29Z"/><path class="cls-19" d="M74.82,7.35s7.94,6.32,17.07,5.58c0,0-14.4-3.94-15.6-7.56Z"/><path class="cls-19" d="M74.82,26.58a14.75,14.75,0,0,0,4.52,3.07,7.12,7.12,0,0,0,2.7.55L80,36l.66-4.72H79.52L78.43,33V30.2S75.22,28.07,74.82,26.58Z"/><path class="cls-19" d="M77.67,45.43s-5.56,26.44-3.83,35.75,12.55,39.46,12.33,41.45c0,0-13.19-33.63-13.93-41.08S76.07,47.27,77.67,45.43Z"/><path class="cls-19" d="M113.44,73.15s1.4,23.42-2.8,34.09,5.82,29.91,5.82,29.91-7.47-22.47-4.54-29.42S115.24,78,113.44,73.15Z"/><path class="cls-19" d="M103.81,29.39s5.27-.33,6.26-1.82a6.42,6.42,0,0,1-3.13,1.82l.41,2.68-1.07-2.25H104.8s2.39,9.58,2.55,13.39C107.35,43.21,105,30.15,103.81,29.39Z"/><path class="cls-17" d="M33.07,31.71s13.34,7,12.77,29.54c0,0,3.22-22.79-11.1-31Z"/><path class="cls-17" d="M143.7,28.08s-13.34,7-12.77,29.55c0,0-3.22-22.79,11.1-31.05Z"/><ellipse class="cls-20" cx="103.68" cy="114.32" rx="2.03" ry="2.04"/><circle class="cls-12" cx="103.13" cy="113.84" r="0.31"/><circle class="cls-12" cx="104.37" cy="113.84" r="0.31"/><circle class="cls-12" cx="104.37" cy="114.82" r="0.31"/><circle class="cls-12" cx="103.13" cy="114.93" r="0.31"/></g></g></g></g></svg>