<?xml version="1.0" encoding="utf-8"?>
<!-- Generator: Adobe Illustrator 22.1.0, SVG Export Plug-In . SVG Version: 6.00 Build 0)  -->
<svg version="1.1" id="Layer_1" xmlns="http://www.w3.org/2000/svg" xmlns:xlink="http://www.w3.org/1999/xlink" x="0px" y="0px"
	 viewBox="0 0 183 425.4" style="enable-background:new 0 0 183 425.4;" xml:space="preserve">
<style type="text/css">
	.st0{fill:none;}
	.st1{fill:#B2B2B2;}
	.st2{fill:#A0A0A0;}
	.st3{fill:#4F4F4F;}
	.st4{fill:#4E4754;}
	.st5{fill:#4F5F77;}
	.st6{fill:#404D60;}
	.st7{fill:#B3B3B3;}
	.st8{fill:#413C47;}
	.st9{fill:#56657C;}
	.st10{fill:#333333;}
	.st11{fill:#565656;}
	.st12{fill:#474747;}
	.st13{fill:#262626;}
	.st14{fill:#020202;}
</style>
<title>sncb2</title>
<g id="Layer_2_1_">
	<g id="sncb2">
		<g id="sncb2-2">
			<rect y="10.4" class="st0" width="183" height="415"/>
			<g id="sncbpants2">
				<g id="rcbpants">
					<g id="ccbpants">
						<path class="st1" d="M51.9,137.8c0,0,33.4,21.2,73.8-1.4c0,0,20.4,52.4,5,107.1c0,0-5.1,45.2-0.7,56.4
							c3.8,9.8,4.6,37.8-4.9,41.2c0,0-1.8,3.5-2.2,4.5l-1,9.9c0,0-16.3-0.6-22.4,0.6l0.1-11.9c-3.9,1.8-3.9-2.2-2.7-10.1
							c1-6.7-3.1-31.2-0.1-47.1c3.2-16.8-5.9-48.5-5.1-67.8c0.7-19.4-1.8-29.6-1.8-29.6S83.2,264,84,272.5
							c0.8,8.5-0.7,44.7-3.4,57.9c-1.2,5.8-1.2,11.1-2.7,14.7l-1.5,12.3H57c0,0-1.4-7.3-3.6-11.7c0,0-3.6,1.7-3.4-8.2
							c0.2-11.8,2.8-4.4-1-23.8c-3.8-19.4,2.3-31.3,2-41.2s-13.1-61.7-9.2-78.4S39.4,151.4,51.9,137.8z"/>
						<path class="st2" d="M67.9,155.5c0,0-4.7,15.9-18.9,19.3C49,174.8,68.4,179.2,67.9,155.5z"/>
						<path class="st2" d="M113,155.5c0,0,4.7,15.9,18.9,19.3C131.9,174.8,112.5,179.2,113,155.5z"/>
						<path class="st2" d="M51.6,339.5c0,0,3.2,5,9.1,0.5c11.9-9,12.3-1.9,13.5-0.5s-0.5-4.3-4.8-5.5c-4.3-1.2-6.2,5.6-10.7,4.1
							s-4.7-4.9-4.7-4.9S53,339.4,51.6,339.5z"/>
						<path class="st2" d="M96.9,341.4c0,0,2.1-8.1,11.7-5.9c9.7,2.2,8.2-1.7,8.2-1.7s-2.8,1.7-8.3,0c-5.5-1.7-10.9,3.8-10.9,3.8
							L96.9,341.4"/>
						<path class="st2" d="M130.5,307.4c0,0-4.9,26-15.7,21.9C114.8,329.3,126.5,337.8,130.5,307.4"/>
					</g>
					<path class="st2" d="M85.1,152.7c0,0,0.6,24.6,0.6,27.4c0,2.9,7.9,4.1,8.2,0c0,0-4.5,4.1-7.4,0l-1-27.2L85.1,152.7z"/>
				</g>
				<path class="st3" d="M90.6,148.7c0,0-1-3.6-3.5-0.3c0,0-16,11-13.7,15.6c2.2,4.6,13.5-7.5,13.5-13c0.2,0.3,0.5,0.5,0.8,0.6
					c-0.5,4.4-2.3,17-5.6,20.6v2.8c0,0,6-8.2,6.7-23.1l0,0c0,0.8,1.3,24.7,6.7,30h3c0,0-5.5-0.4-8.2-30l-0.6-0.4
					c0.2-0.1,0.3-0.3,0.4-0.5c0,0,4.7,14.8,9.7,14C99.9,165.1,103.1,155.9,90.6,148.7z M75.1,162.7c-0.9-1.3,9.7-10.7,9.7-10.7
					C84.9,156.8,76,163.9,75.1,162.7z M98.4,162.8c-1.9,0.4-6.9-10.9-6.9-10.9C95.5,153.2,100.2,162.4,98.4,162.8L98.4,162.8z"/>
				<path class="st2" d="M47.5,147.1c0,0,12.4,8.1,25.7,7.1C73.2,154.2,54.3,151.6,47.5,147.1z"/>
				<path class="st2" d="M125.4,146.4c0,0-10.3,8.1-21.3,7.1C104.1,153.4,119.7,150.8,125.4,146.4z"/>
			</g>
			<g id="sncbshirt2">
				<path class="st4" d="M73.8,1.7c0,0,11.7,7.3,30,0c0,0,1.7-0.1,1.6,7.3l33.4,12.6l-16.7,74.8l-3.3,43.6c0,0-31.7,16.2-64.5-0.5
					l1.8-44.2L43.6,19.6L70.3,9.4C70.3,9.4,71.9,0.8,73.8,1.7z"/>
				<path class="st5" d="M72.4,3.4c1.2-2.2,1.5-1.7,1.5-1.7l0.4-4c0,0-16.6,3-10.3,14.1c0,0-32.8,4.1-37.1,15.1
					c-2.6,6.4-2.7,13.5-0.4,19.9c0,0-17.8,11.8-9.2,34.3c0,0-16,8.6-8.6,29.4c0,0-12.2,12.7-1.9,29.7c0,0-5.1,8.3,0.1,17.1l1.8,11.1
					c0,0,9.7,3.6,14.5-1l0.1-10.1c0,0,8.4-7.9,7.1-15.9c0,0,11.3-15.7,8.7-28.5c3.8-4.5,6.7-9.8,8.3-15.5c-0.2,3.5,0.1,6.8,1.2,8.9
					c0,0-7.1,13.6,2.6,22.3l-0.5,9.3c0,0,7.1,7.2,22.4,9.3l7.4-130.3C80.5,17.1,72.1,11.1,72.4,3.4z M9.8,145.4l-1.2-1.9L9.8,145.4z
					 M13.5,151.4l-0.5-0.8L13.5,151.4z M11.8,148.7l-0.8-1.3L11.8,148.7z M16.4,156.3l0.2,0.3L16.4,156.3z M14.3,152.7l0.8,1.3
					L14.3,152.7z M15.3,154.5l0.5,0.9L15.3,154.5z M16.1,155.7l0.1,0.2L16.1,155.7z M16.8,156.9l0.1,0.2L16.8,156.9z"/>
				<path class="st5" d="M168.4,110.6c7.4-20.8-8.6-29.4-8.6-29.4c8.6-22.5-7.2-34.3-7.2-34.3c1-6.7,0.2-13.6-2.4-19.9
					c-4.3-10.9-37.1-15.1-37.1-15.1c6.3-11.1-9.8-14.6-9.8-14.6l0.5,4.5c0.5,0.5,1,1.1,1.3,1.7c-0.2,7.5-8.6,13.7-8.6,13.7
					l7.4,130.3c15.2-2.1,22.4-9.3,22.4-9.3l-0.5-9.3c9.7-8.8,2.6-22.3,2.6-22.3c1.1-2.1,1.3-5.4,1.2-8.9c1.7,5.7,4.5,11,8.3,15.5
					c-2.6,12.7,8.7,28.5,8.7,28.5c-1.3,7.9,7.1,15.9,7.1,15.9l0.1,10.1c4.7,4.6,14.5,1,14.5,1l1.8-11.1c5.3-8.8,0.1-17.1,0.1-17.1
					C180.7,123.3,168.4,110.6,168.4,110.6z M160.4,156.5l0.1-0.2L160.4,156.5z M160.1,157.1l0.1-0.2L160.1,157.1z M162.6,152.9
					l-0.5,0.9L162.6,152.9z M161.6,154.6l-0.4,0.7L161.6,154.6z M160.9,155.8L160.9,155.8L160.9,155.8z M165.9,147.6l3.3-5.4
					L165.9,147.6z M164,150.8l1.3-2.2L164,150.8z"/>
				<path class="st6" d="M49.3,53.9c0,0,10.6,10.1,23.8,5.8C73.1,59.6,57.2,67,49.3,53.9z"/>
				<path class="st6" d="M48.9,79.5c0,0,10.6,10.1,23.8,5.8C72.8,85.2,56.9,92.6,48.9,79.5z"/>
				<path class="st6" d="M48.7,105.6c0,0,10.6,10,23.8,5.8C72.5,111.4,56.6,118.7,48.7,105.6z"/>
				<path class="st6" d="M49.2,125.9c0,0,10.6,10.1,23.8,5.8C73,131.6,57.1,139,49.2,125.9z"/>
				<path class="st6" d="M127.6,53.9c0,0-10.6,10.1-23.8,5.8C103.8,59.6,119.6,67,127.6,53.9z"/>
				<path class="st6" d="M127.9,79.5c0,0-10.6,10.1-23.8,5.8C104.1,85.2,120,92.6,127.9,79.5z"/>
				<path class="st6" d="M128.1,105.6c0,0-10.6,10-23.8,5.8C104.3,111.4,120.2,118.7,128.1,105.6z"/>
				<path class="st6" d="M127.7,125.9c0,0-10.6,10.1-23.8,5.8C103.8,131.6,119.7,139,127.7,125.9z"/>
				<path class="st6" d="M64,15c1.9,3.9,5.1,6.9,9.1,8.6C73.1,23.5,63.3,23.6,64,15z"/>
				<path class="st6" d="M100.2,23.5c0,0,8.6-1.6,9.9-6.5C110,17.1,112,23.5,100.2,23.5z"/>
				<path class="st6" d="M29.2,29.5c0,0-5.8,17.5,12.4,20.8C41.6,50.3,27.5,44.4,29.2,29.5z"/>
				<path class="st6" d="M19,63.9c0,0-5.8,17.5,12.4,20.8C31.4,84.8,17.4,78.8,19,63.9z"/>
				<path class="st6" d="M10.5,95.2c0,0-5.8,17.5,12.4,20.8C22.8,116,8.8,110.1,10.5,95.2z"/>
				<path class="st6" d="M6.1,119.4c0,0-5.8,17.5,12.4,20.8C18.5,140.2,4.4,134.3,6.1,119.4z"/>
				<path class="st6" d="M148.7,29.5c0,0,5.8,17.5-12.4,20.9C136.3,50.3,150.3,44.4,148.7,29.5z"/>
				<path class="st6" d="M158.9,63.9c0,0,5.8,17.5-12.4,20.8C146.5,84.8,160.5,78.8,158.9,63.9z"/>
				<path class="st6" d="M167.4,95.2c0,0,5.8,17.5-12.4,20.8C155.1,116,169.1,110.1,167.4,95.2z"/>
				<path class="st6" d="M171.8,119.3c0,0,5.8,17.5-12.4,20.8C159.4,140.2,173.5,134.2,171.8,119.3z"/>
				<polygon class="st7" points="80.5,17.1 71.5,147.1 73.1,147.4 81.7,19.3 				"/>
				<path class="st8" d="M84.4,20.3c0,0,5.2,3.4,10.1,0C91.3,21.6,87.7,21.6,84.4,20.3z"/>
				<path class="st9" d="M41.6,26.1c0,0-1.8,22.3,28.7,26.3c0,0-5.4-15.6,2.8-21.3C73.1,31.1,45.7,19.4,41.6,26.1z"/>
				<path class="st9" d="M134.6,25.6c0,0,1.8,22.3-28.7,26.3c0,0,5.4-15.6-2.8-21.3C103.1,30.6,130.4,18.9,134.6,25.6z"/>
			</g>
			<g id="SnowShoes">
				<path class="st10" d="M55.8,352.6c0,0,1.2,7.9,1,12.2s0.7,8.8,1.2,12.4c0,0-8.9,15.9-7.4,17.4s5.2,7.2,13,7.5s17.7-4.5,18.4-6.7
					s-3.2-17.1-4.7-19.1s1.2-8.2,1-10.2c-0.2-4.5-0.1-9,0.5-13.4L55.8,352.6z"/>
				<path class="st11" d="M56.2,380.5c0,0-19.7,20,6.5,22.8s20-13.8,20-13.8L78.2,379c0,0,4.8,12.8,2.4,16.6s-15.7,4-17.9,4
					s-11.2-3.8-11.5-5.7S56.2,380.5,56.2,380.5"/>
				<path class="st12" d="M58.7,380.5c0,0,8.5-9.1,17.2,0C75.9,380.5,68.4,367.2,58.7,380.5z"/>
				<path class="st12" d="M49.1,393v4.5l2.7,4.5l0.5-1.2l1,0.6v1.3l5.2,1.4V403l2.7,0.6v1.1l6.3,0.3v-0.8l3.3-0.1v0.9l4.2-0.8v-0.7
					l3.2-0.8v1.2l3.4-2.8v-1.2l0.8-1v1.2l0.9-5.6C83.3,394.5,66.7,412.8,49.1,393z"/>
				<path class="st13" d="M63.5,374.1c0,0,0.9-11.4-1.7-21.1l0,0c0,0,5.3-4,12.9,0l0,0c0,0-3.1,15.1-2.3,21.1
					C72.3,374.1,66.1,372.4,63.5,374.1z"/>
				<polygon class="st14" points="62.2,354.7 67.3,357.9 74.9,354.1 74.9,355.5 67.8,359.3 74.4,361.4 74.1,363.1 67.3,360.3 
					61.9,362.5 61.4,361 66.6,359.1 61.9,355.6 				"/>
				<polygon class="st14" points="62.2,362.5 67.3,365.7 74.9,361.9 74.9,363.3 67.8,367 74.4,369.2 74.1,370.8 67.3,368 
					61.9,370.3 61.4,368.8 66.6,366.9 61.9,363.4 				"/>
				<polygon class="st14" points="61.4,369.7 66.5,372.9 74.1,369.1 74.1,370.5 67,374.2 73.6,376.4 73.3,378 66.5,375.2 61,377.5 
					60.5,376 65.8,374.1 61,370.6 				"/>
				<polygon class="st14" points="61.4,378.1 66.5,381.3 74.1,377.5 74.1,378.9 67,382.6 73.6,384.7 73.3,386.4 66.5,383.6 
					61,385.8 60.5,384.3 65.8,382.4 61,379 				"/>
				<path class="st12" d="M55.8,389.4c0,0,0.9,6.5,11.6,6C67.3,395.3,57.4,393.6,55.8,389.4z"/>
				<path class="st10" d="M122.1,351.6c0,0-1.2,7.9-1,12.2s-0.7,8.8-1.2,12.4c0,0,8.9,15.9,7.4,17.4c-1.5,1.5-5.2,7.2-13,7.5
					s-17.7-4.5-18.4-6.7s3.2-17.1,4.7-19.1s-1.2-8.2-0.9-10.2c0.2-4.5,0.1-9-0.5-13.4L122.1,351.6z"/>
				<path class="st11" d="M121.6,379.5c0,0,19.7,20-6.4,22.8s-20-13.8-20-13.8l4.5-10.5c0,0-4.9,12.8-2.4,16.6s15.7,4,17.9,4
					s11.2-3.8,11.5-5.7S121.7,379.5,121.6,379.5"/>
				<path class="st12" d="M119.1,379.5c0,0-8.5-9.1-17.2,0C101.9,379.5,109.5,366.2,119.1,379.5z"/>
				<path class="st12" d="M128.8,392v4.5L126,401l-0.5-1.2l-1,0.6v1.3l-5.2,1.4V402l-2.7,0.6v1.1l-6.3,0.3v-0.8l-3.3-0.1v0.9
					l-4.2-0.8v-0.7l-3.2-0.8v1.2l-3.4-2.8v-1.2l-0.8-1v1.2l-0.9-5.6C94.5,393.5,111.1,411.8,128.8,392z"/>
				<path class="st13" d="M114.3,373.1c0,0-0.9-11.4,1.7-21.1l0,0c0,0-5.3-4-12.8,0l0,0c0,0,3.1,15.1,2.3,21.1
					C105.5,373.1,111.7,371.4,114.3,373.1z"/>
				<polygon class="st14" points="115.6,353.7 110.5,356.9 102.9,353.1 102.9,354.5 110.1,358.3 103.5,360.4 103.7,362.1 
					110.5,359.2 116,361.5 116.5,360 111.2,358.1 116,354.6 				"/>
				<polygon class="st14" points="115.6,361.5 110.5,364.7 102.9,360.9 102.9,362.3 110.1,366 103.5,368.2 103.7,369.8 110.5,367 
					116,369.3 116.5,367.8 111.2,365.9 116,362.4 				"/>
				<polygon class="st14" points="116.4,368.7 111.3,371.9 103.7,368.1 103.7,369.5 110.9,373.2 104.3,375.4 104.5,377 111.3,374.2 
					116.8,376.5 117.3,375 112,373.1 116.8,369.6 				"/>
				<polygon class="st14" points="116.4,377.1 111.3,380.3 103.7,376.5 103.7,377.9 110.9,381.6 104.3,383.7 104.5,385.4 
					111.3,382.6 116.8,384.8 117.3,383.3 112,381.4 116.8,377.9 				"/>
				<path class="st12" d="M122.1,388.4c0,0-0.9,6.5-11.6,6C110.5,394.3,120.5,392.6,122.1,388.4z"/>
			</g>
		</g>
	</g>
</g>
</svg>
