<svg xmlns="http://www.w3.org/2000/svg" viewBox="0 0 348.86 811.55"><defs><style>.cls-1{fill:gray;}.cls-2{fill:#666;}.cls-3{fill:#3d3d3d;}.cls-4{fill:#ce9761;}.cls-5{fill:#c18249;}.cls-6{fill:#b3b3b3;}.cls-7{fill:#4c4c4c;}.cls-8{fill:#d19d6d;}.cls-9{fill:#333;}.cls-10{fill:#565656;}.cls-11{fill:#474747;}.cls-12{fill:#262626;}.cls-13{fill:#020202;}</style></defs><title>sncb</title><g id="Layer_2" data-name="Layer 2"><g id="sncb"><g id="sncb-2" data-name="sncb"><g id="sncbpants"><g id="rcbpants"><g id="ccbpants"><path class="cls-1" d="M100.5,284.38s66.88,41.52,147.73-2.7c0,0,41,102.81,10,209.83,0,0-10.06,88.5-1.38,110.5,7.6,19.25,9.15,74.07-9.82,80.79,0,0-3.51,6.85-4.36,8.79l-2,19.49s-32.71-1.23-44.91,1.22l.28-23.22c-7.71,3.59-7.83-4.41-5.47-19.8,2-13.2-6.19-61.2-.18-92.27,6.38-33-11.74-94.94-10.24-133s-3.57-58-3.57-58-13.37,145.53-11.77,162.26-1.44,87.53-6.85,113.53c-2.37,11.38-2.48,21.75-5.33,28.73l-3,24.13h-39s-2.72-14.25-7.19-22.88c0,0-7.18,3.23-6.75-16.14.5-23,5.6-8.67-1.91-46.67s4.5-61.43,4-80.7S72.37,427.27,80.2,394.7,75.46,310.88,100.5,284.38Z"/><path class="cls-2" d="M132.54,319s-9.34,31.22-37.84,37.86C94.7,356.87,133.39,365.51,132.54,319Z"/><path class="cls-2" d="M222.71,319s9.35,31.22,37.85,37.86C260.56,356.87,221.87,365.51,222.71,319Z"/><path class="cls-2" d="M99.87,679.56s6.38,9.75,18.25,1c23.79-17.6,24.67-3.67,27-1s-1-8.5-9.67-10.83-12.33,11-21.33,8-9.49-9.61-9.49-9.61S102.67,679.41,99.87,679.56Z"/><path class="cls-2" d="M190.5,683.38s4.2-15.83,23.54-11.5,16.33-3.33,16.33-3.33-5.67,3.33-16.67,0S191.82,676,191.82,676l-1.32,7.42"/><path class="cls-2" d="M257.79,616.66s-9.79,51-31.46,43c0,0,23.58,16.71,31.46-43"/></g><path class="cls-2" d="M167,313.6s1.3,48.18,1.3,53.68,15.75,8,16.5,0c0,0-9,8-14.75,0l-2-53.34Z"/></g><path class="cls-3" d="M178,305.82s-2-7-7-.5c0,0-32,21.5-27.5,30.5s27-14.75,27-25.38a6.43,6.43,0,0,0,1.53,1.25c-1,8.64-4.58,33.38-11.15,40.36v5.5s12-16.19,13.5-45.31h0c.08,1.49,2.67,48.48,13.5,58.81h6s-11-.7-16.5-58.85l-1.21-.85a5.33,5.33,0,0,0,.83-.91s9.5,28.87,19.5,27.37C196.48,337.81,203,319.82,178,305.82Zm-31,27.25c-1.75-2.5,19.5-21,19.5-21C166.48,321.57,148.73,335.57,147,333.07Zm46.5.29c-3.76.78-13.75-21.29-13.75-21.29C187.73,314.57,197.24,332.58,193.48,333.36Z"/><path class="cls-2" d="M91.64,302.55s24.78,15.84,51.41,13.89C143.05,316.44,105.31,311.33,91.64,302.55Z"/><path class="cls-2" d="M247.66,301.15S227.06,317,204.94,315C204.94,315,236.3,309.93,247.66,301.15Z"/></g><g id="sncbshirt"><path class="cls-3" d="M144.64,9.11s23.77,14.67,60.88,0c0,0,3.42-.16,3.27,14.75l67.8,25.43L242.7,200,236,287.8s-64.41,32.68-130.86-.92l3.55-89.1L83.19,45.18l54.17-20.63S140.74,7.21,144.64,9.11Z"/><path class="cls-4" d="M141.62,12.53c2.48-4.49,3-3.42,3-3.42l.87-8s-33.67,5.95-20.94,28.31c0,0-66.6,8.36-75.26,30.36s-.83,40.16-.83,40.16-36.16,23.84-18.63,69.17c0,0-32.51,17.33-17.53,59.33,0,0-24.87,25.57-3.94,59.79,0,0-10.41,16.77.26,34.49L12.32,345s19.73,7.22,29.36-2L42,322.71s17-15.93,14.35-31.93c0,0,23-31.67,17.66-57.34,0,0,11-11.62,17-31.26-.35,7,.11,13.74,2.39,17.93,0,0-14.34,27.33,5.33,45l-1,18.67s14.48,14.55,45.41,18.77L158.14,40.12S141,27.93,141.62,12.53Zm-126.93,286-2.35-3.85Zm7.38,12.06-1-1.58Zm-3.35-5.47-1.59-2.6C17.69,303.45,18.22,304.31,18.72,305.14Zm9.39,15.34c.14.23.26.44.37.61Zm-4.44-7.25,1.64,2.68Zm2.19,3.57c.42.7.79,1.31,1.12,1.84Zm1.52,2.5.25.4Zm1.92,3.14h0Zm-.4-.66.27.44Z"/><path class="cls-4" d="M336.53,228.44c15-42-17.52-59.33-17.52-59.33,17.52-45.33-14.63-69.17-14.63-69.17s3.84-18.16-4.83-40.16-75.27-30.36-75.27-30.36C237,7.06,204.47,0,204.47,0l1.05,9.11a21.87,21.87,0,0,1,2.72,3.47c-.48,15.2-17.53,27.54-17.53,27.54l15.1,262.43c30.93-4.22,45.41-18.77,45.41-18.77l-1-18.67c19.67-17.67,5.33-45,5.33-45,2.28-4.19,2.73-11,2.39-17.93,6,19.64,16.95,31.26,16.95,31.26-5.34,25.67,17.66,57.34,17.66,57.34-2.66,16,14.35,31.93,14.35,31.93l.28,20.28c9.63,9.22,29.35,2,29.35,2l3.69-22.27c10.67-17.72.26-34.49.26-34.49C361.41,254,336.53,228.44,336.53,228.44ZM320.43,321l.3-.48Zm-.88,1.44h0Zm.14-.23.26-.43Zm5.21-8.52-1.08,1.78C324.15,314.92,324.52,314.33,324.9,313.69Zm-2.11,3.46-.82,1.33Zm-1.41,2.31-.11.17Zm10-16.33L338,292.22Zm-3.86,6.31,2.66-4.35Z"/><path class="cls-5" d="M94.7,114.19s21.42,20.25,48.35,11.59C143.05,125.78,110.76,140.61,94.7,114.19Z"/><path class="cls-5" d="M94.06,165.83s21.42,20.25,48.35,11.59C142.41,177.42,110.12,192.25,94.06,165.83Z"/><path class="cls-5" d="M93.51,218.46s21.42,20.25,48.35,11.59C141.86,230.05,109.58,244.88,93.51,218.46Z"/><path class="cls-5" d="M94.53,259.29s21.42,20.25,48.34,11.58C142.87,270.87,110.59,285.7,94.53,259.29Z"/><path class="cls-5" d="M253.63,114.19s-21.42,20.25-48.34,11.59C205.29,125.78,237.57,140.61,253.63,114.19Z"/><path class="cls-5" d="M254.27,165.83s-21.42,20.25-48.35,11.59C205.92,177.42,238.21,192.25,254.27,165.83Z"/><path class="cls-5" d="M254.82,218.46s-21.42,20.25-48.35,11.59C206.47,230.05,238.75,244.88,254.82,218.46Z"/><path class="cls-5" d="M253.8,259.29s-21.42,20.25-48.34,11.58C205.46,270.87,237.74,285.7,253.8,259.29Z"/><path class="cls-5" d="M124.57,35.81s4.47,11.27,18.48,17.3C143.05,53.11,123.18,53.18,124.57,35.81Z"/><path class="cls-5" d="M198.05,53.11s17.47-3.31,20-13C218.08,40.12,222.14,53.11,198.05,53.11Z"/><path class="cls-5" d="M54,65.11s-11.8,35.33,25.1,42C79.07,107.11,50.64,95.11,54,65.11Z"/><path class="cls-5" d="M33.28,134.51s-11.8,35.33,25.1,42C58.38,176.51,29.94,164.51,33.28,134.51Z"/><path class="cls-5" d="M16,197.46s-11.79,35.34,25.11,42C41.08,239.46,12.64,227.46,16,197.46Z"/><path class="cls-5" d="M7.07,246.15s-11.8,35.34,25.1,42C32.17,288.15,3.74,276.15,7.07,246.15Z"/><path class="cls-5" d="M296.54,65s11.8,35.33-25.1,42C271.44,107,299.87,95,296.54,65Z"/><path class="cls-5" d="M317.24,134.44s11.79,35.33-25.11,42C292.13,176.44,320.57,164.44,317.24,134.44Z"/><path class="cls-5" d="M334.54,197.4s11.8,35.33-25.1,42C309.44,239.4,337.87,227.4,334.54,197.4Z"/><path class="cls-5" d="M343.44,246.09s11.8,35.33-25.1,42C318.34,288.09,346.78,276.09,343.44,246.09Z"/><polygon class="cls-6" points="158.14 40.12 139.78 302.05 143.05 302.55 160.64 44.46 158.14 40.12"/><path class="cls-7" d="M166.09,46.61s10.49,6.84,20.52,0A28.26,28.26,0,0,1,166.09,46.61Z"/><path class="cls-8" d="M79.07,58.28s-3.66,45,58.21,53c0,0-11-31.38,5.77-43C143.05,68.28,87.51,44.78,79.07,58.28Z"/><path class="cls-8" d="M267.92,57.29s3.65,45-58.21,53c0,0,11-31.37-5.77-43C203.94,67.29,259.48,43.79,267.92,57.29Z"/></g><g id="SnowShoes"><path class="cls-9" d="M107.7,706.05s2.51,16,2,24.5,1.34,17.66,2.5,25c0,0-18,32-15,35s10.43,14.5,26.21,15,35.79-9,37.29-13.5-6.47-34.5-9.5-38.5,2.35-16.5,1.92-20.5a143.52,143.52,0,0,1,1.08-27Z"/><path class="cls-10" d="M108.64,762.09s-39.93,40.21,13.07,46,40.5-27.75,40.5-27.75l-9.08-21.25S163,784.8,158,792.55s-31.75,8-36.25,8S99.08,793,98.46,789.05s10.18-27,10.18-27"/><path class="cls-11" d="M113.76,762.09s17.11-18.29,34.78,0C148.54,762.09,133.28,735.44,113.76,762.09Z"/><path class="cls-11" d="M94.21,787.38v9.17l5.5,9,1-2.35,2,1.16v2.67l10.5,2.83v-2.33l5.5,1.16v2.17l12.83.67v-1.67l6.67-.16v1.83l8.5-1.5v-1.34l6.42-1.66v2.5l6.91-5.67v-2.5l1.67-1.91v2.41l1.78-11.33S129.88,827.22,94.21,787.38Z"/><path class="cls-12" d="M123.42,749.3s1.79-23-3.46-42.5h0s10.75-8,26,0h0s-6.25,30.5-4.75,42.5C141.21,749.3,128.64,745.8,123.42,749.3Z"/><polygon class="cls-13" points="120.81 710.27 131.15 716.72 146.54 709.05 146.54 711.88 132.04 719.38 145.42 723.72 144.87 727.03 131.15 721.38 120.04 725.88 119.04 722.88 129.71 719.05 120.04 712.05 120.81 710.27"/><polygon class="cls-13" points="120.81 725.93 131.15 732.38 146.54 724.72 146.54 727.55 132.04 735.05 145.42 739.38 144.87 742.7 131.15 737.05 120.04 741.55 119.04 738.55 129.71 734.72 120.04 727.72 120.81 725.93"/><polygon class="cls-13" points="119.17 740.43 129.51 746.88 144.9 739.22 144.9 742.05 130.4 749.55 143.78 753.88 143.23 757.2 129.51 751.55 118.4 756.05 117.4 753.05 128.06 749.22 118.4 742.22 119.17 740.43"/><polygon class="cls-13" points="119.17 757.27 129.51 763.72 144.9 756.05 144.9 758.88 130.4 766.38 143.78 770.72 143.23 774.03 129.51 768.38 118.4 772.88 117.4 769.88 128.06 766.05 118.4 759.05 119.17 757.27"/><path class="cls-11" d="M107.71,780.05s1.88,13,23.44,12C131.15,792.05,111.05,788.48,107.71,780.05Z"/><path class="cls-9" d="M242,704s-2.51,16-2,24.5-1.34,17.66-2.5,25c0,0,18,32,15,35s-10.43,14.5-26.21,15-35.79-9-37.29-13.5,6.47-34.5,9.5-38.5-2.34-16.5-1.92-20.5a143.52,143.52,0,0,0-1.08-27Z"/><path class="cls-10" d="M241.06,760.05S281,800.26,228,806s-40.5-27.75-40.5-27.75L196.57,757s-9.83,25.75-4.83,33.5,31.75,8,36.25,8S250.62,791,251.24,787s-10.18-27-10.18-27"/><path class="cls-11" d="M235.94,760.05s-17.11-18.29-34.78,0C201.16,760.05,216.42,733.41,235.94,760.05Z"/><path class="cls-11" d="M255.49,785.35v9.16l-5.5,9-1-2.35-2,1.17V805l-10.5,2.84v-2.34l-5.5,1.17v2.17l-12.83.66v-1.66l-6.67-.17v1.83L203,808v-1.33L196.57,805v2.5l-6.91-5.66v-2.5L188,797.43v2.42l-1.78-11.34S219.82,825.18,255.49,785.35Z"/><path class="cls-12" d="M226.28,747.26s-1.79-23,3.46-42.5h0s-10.75-8-26,0h0s6.25,30.5,4.75,42.5C208.49,747.26,221.06,743.76,226.28,747.26Z"/><polygon class="cls-13" points="228.89 708.23 218.55 714.68 203.16 707.01 203.16 709.85 217.66 717.35 204.28 721.68 204.83 725 218.55 719.35 229.66 723.85 230.66 720.85 220 717.01 229.66 710.01 228.89 708.23"/><polygon class="cls-13" points="228.89 723.9 218.55 730.35 203.16 722.68 203.16 725.51 217.66 733.01 204.28 737.35 204.83 740.67 218.55 735.01 229.66 739.51 230.66 736.51 220 732.68 229.66 725.68 228.89 723.9"/><polygon class="cls-13" points="230.53 738.4 220.19 744.85 204.8 737.18 204.8 740.01 219.3 747.51 205.92 751.85 206.47 755.17 220.19 749.51 231.3 754.01 232.3 751.01 221.64 747.18 231.3 740.18 230.53 738.4"/><polygon class="cls-13" points="230.53 755.23 220.19 761.68 204.8 754.01 204.8 756.85 219.3 764.35 205.92 768.68 206.47 772 220.19 766.35 231.3 770.85 232.3 767.85 221.64 764.01 231.3 757.01 230.53 755.23"/><path class="cls-11" d="M242,778s-1.88,13-23.44,12C218.55,790,238.65,786.44,242,778Z"/></g></g></g></g></svg>