<?xml version="1.0" encoding="utf-8"?>
<!-- Generator: Adobe Illustrator 22.1.0, SVG Export Plug-In . SVG Version: 6.00 Build 0)  -->
<svg version="1.1" id="Layer_1" xmlns="http://www.w3.org/2000/svg" xmlns:xlink="http://www.w3.org/1999/xlink" x="0px" y="0px"
	 viewBox="0 0 183 426.3" style="enable-background:new 0 0 183 426.3;" xml:space="preserve">
<style type="text/css">
	.st0{fill:none;}
	.st1{fill:#808080;}
	.st2{fill:#666666;}
	.st3{fill:#3D3D3D;}
	.st4{fill:#CE9761;}
	.st5{fill:#C18249;}
	.st6{fill:#B3B3B3;}
	.st7{fill:#4C4C4C;}
	.st8{fill:#D19D6D;}
	.st9{fill:#333333;}
	.st10{fill:#565656;}
	.st11{fill:#474747;}
	.st12{fill:#262626;}
	.st13{fill:#020202;}
</style>
<title>sncb</title>
<g id="Layer_2_1_">
	<g id="sncb">
		<g id="sncb-2">
			<rect y="11.3" class="st0" width="183" height="415"/>
			<g id="sncbpants">
				<g id="rcbpants">
					<g id="ccbpants">
						<path class="st1" d="M51.8,138.6c0,0,33.3,21.3,73.7-1.4c0,0,20.4,52.6,5,107.4c0,0-5,45.3-0.7,56.5
							c3.8,9.8,4.6,37.9-4.9,41.3c0,0-1.7,3.5-2.2,4.5l-1,10c0,0-16.3-0.6-22.4,0.6l0.1-11.9c-3.8,1.8-3.9-2.3-2.7-10.1
							c1-6.8-3.1-31.3-0.1-47.2c3.2-16.9-5.9-48.6-5.1-68s-1.8-29.7-1.8-29.7s-6.7,74.5-5.9,83s-0.7,44.8-3.4,58.1
							c-1,4.8-1.2,9.2-2,12.6c-0.4,1.7-0.6,3.5-0.6,5.3l0.2,9.2H56.8c0,0-1.4-7.3-3.6-11.7c0,0-3.6,1.7-3.4-8.2
							c0.3-11.8,2.8-4.4-0.9-23.9s2.2-31.4,2-41.3c-0.2-9.9-13.1-61.9-9.2-78.6S39.3,152.2,51.8,138.6z"/>
						<path class="st2" d="M67.8,156.3c0,0-4.7,16-18.9,19.4C48.9,175.7,68.2,180.1,67.8,156.3z"/>
						<path class="st2" d="M112.7,156.3c0,0,4.7,16,18.9,19.4C131.6,175.7,112.3,180.1,112.7,156.3z"/>
						<path class="st2" d="M51.5,340.8c0,0,3.2,5,9.1,0.5c11.9-9,12.3-1.9,13.5-0.5c1.2,1.4-0.5-4.3-4.8-5.5
							c-4.3-1.2-6.1,5.6-10.6,4.1c-4.5-1.5-4.7-4.9-4.7-4.9S52.9,340.7,51.5,340.8z"/>
						<path class="st2" d="M96.7,342.7c0,0,2.1-8.1,11.7-5.9s8.1-1.7,8.1-1.7s-2.8,1.7-8.3,0c-5.5-1.7-10.9,3.8-10.9,3.8L96.7,342.7
							"/>
						<path class="st2" d="M130.2,308.6c0,0-4.9,26.1-15.7,22C114.5,330.6,126.3,339.1,130.2,308.6"/>
					</g>
					<path class="st2" d="M84.9,153.6c0,0,0.6,24.6,0.6,27.5s7.9,4.1,8.2,0c0,0-4.5,4.1-7.3,0l-1-27.3L84.9,153.6z"/>
				</g>
				<path class="st3" d="M90.5,149.6c0,0-1-3.6-3.5-0.3c0,0-16,11-13.7,15.6c2.3,4.6,13.5-7.5,13.5-13c0.2,0.3,0.5,0.5,0.8,0.6
					c-0.5,4.4-2.3,17.1-5.6,20.6v2.8c0,0,6-8.2,6.7-23.2l0,0c0,0.8,1.3,24.8,6.7,30.1h3c0,0-5.5-0.4-8.2-30.1l-0.6-0.4
					c0.2-0.1,0.3-0.3,0.4-0.5c0,0,4.7,14.8,9.7,14C99.6,166,102.9,156.8,90.5,149.6z M75,163.5c-0.9-1.3,9.7-10.7,9.7-10.7
					C84.7,157.6,75.8,164.8,75,163.5z M98.2,163.7c-1.9,0.4-6.9-10.9-6.9-10.9C95.3,154.1,100,163.3,98.2,163.7L98.2,163.7z"/>
				<path class="st2" d="M47.4,147.9c0,0,12.4,8.1,25.6,7.1C73,155,54.2,152.5,47.4,147.9z"/>
				<path class="st2" d="M125.2,147.2c0,0-10.3,8.1-21.3,7.1C103.9,154.3,119.5,151.7,125.2,147.2z"/>
			</g>
			<g id="sncbshirt">
				<path class="st3" d="M73.6,2.5c0,0,11.7,7.3,30.1,0c0,0,1.7-0.1,1.6,7.3l33.5,12.6L122,97.2l-3.3,43.6c0,0-31.8,16.2-64.6-0.5
					l1.8-44.2L43.2,20.4L70,10.2C70,10.2,71.7,1.6,73.6,2.5z"/>
				<path class="st4" d="M72.1,4.2c1.2-2.2,1.5-1.7,1.5-1.7l0.4-4c0,0-16.6,3-10.3,14.1c0,0-32.9,4.2-37.2,15.1
					c-2.6,6.4-2.7,13.5-0.4,19.9c0,0-17.9,11.8-9.2,34.3c0,0-16.1,8.6-8.7,29.4c0,0-12.3,12.7-2,29.7c0,0-5.1,8.3,0.1,17.1l1.8,11.1
					c0,0,9.7,3.6,14.5-1l0.1-10.1c0,0,8.4-7.9,7.1-15.9c0,0,11.4-15.7,8.7-28.5c3.8-4.5,6.7-9.8,8.4-15.5c-0.2,3.5,0.1,6.8,1.2,8.9
					c0,0-7.1,13.6,2.6,22.3l-0.5,9.3c0,0,7.2,7.2,22.4,9.3l7.5-130.3C80.3,17.9,71.8,11.9,72.1,4.2z M9.4,146.2l-1.2-1.9L9.4,146.2z
					 M13,152.2l-0.5-0.8C12.7,151.7,12.9,151.9,13,152.2L13,152.2z M11.4,149.5l-0.8-1.3L11.4,149.5z M16,157.1l0.2,0.3L16,157.1z
					 M13.8,153.5c0.3,0.5,0.6,0.9,0.8,1.3L13.8,153.5z M14.9,155.2l0.6,0.9L14.9,155.2z M15.6,156.5l0.1,0.2L15.6,156.5z M16.6,158
					L16.6,158z M16.4,157.7l0.1,0.2L16.4,157.7z"/>
				<path class="st4" d="M168.4,111.4c7.4-20.8-8.6-29.4-8.6-29.4c8.6-22.5-7.2-34.3-7.2-34.3c1-6.7,0.2-13.6-2.4-19.9
					c-4.3-10.9-37.2-15.1-37.2-15.1C119.2,1.5,103.1-2,103.1-2l0.5,4.5c0.5,0.5,0.9,1.1,1.3,1.7c-0.2,7.5-8.7,13.7-8.7,13.7
					l7.5,130.3c15.3-2.1,22.4-9.3,22.4-9.3l-0.5-9.3c9.7-8.8,2.6-22.3,2.6-22.3c1.1-2.1,1.4-5.4,1.2-8.9c1.7,5.7,4.5,11,8.4,15.5
					c-2.6,12.7,8.7,28.5,8.7,28.5c-1.3,7.9,7.1,15.9,7.1,15.9l0.1,10.1c4.8,4.6,14.5,1,14.5,1l1.8-11.1c5.3-8.8,0.1-17.1,0.1-17.1
					C180.7,124.1,168.4,111.4,168.4,111.4z M160.4,157.3l0.1-0.2L160.4,157.3z M160.1,157.9l0.1-0.2L160.1,157.9z M162.6,153.7
					l-0.5,0.9L162.6,153.7z M161.6,155.4l-0.4,0.7L161.6,155.4z M160.9,156.6L160.9,156.6L160.9,156.6z M165.9,148.5l3.3-5.4
					L165.9,148.5z M164,151.6l1.3-2.2L164,151.6z"/>
				<path class="st5" d="M48.9,54.7c0,0,10.6,10.1,23.9,5.8C72.8,60.4,56.9,67.8,48.9,54.7z"/>
				<path class="st5" d="M48.6,80.3c0,0,10.6,10.1,23.9,5.8C72.5,86.1,56.5,93.4,48.6,80.3z"/>
				<path class="st5" d="M48.3,106.4c0,0,10.6,10,23.9,5.8C72.2,112.2,56.3,119.5,48.3,106.4z"/>
				<path class="st5" d="M48.8,126.7c0,0,10.6,10.1,23.9,5.8C72.7,132.4,56.8,139.8,48.8,126.7z"/>
				<path class="st5" d="M127.4,54.7c0,0-10.6,10.1-23.9,5.8C103.5,60.4,119.5,67.8,127.4,54.7z"/>
				<path class="st5" d="M127.7,80.3c0,0-10.6,10.1-23.9,5.8C103.9,86.1,119.8,93.4,127.7,80.3z"/>
				<path class="st5" d="M128,106.4c0,0-10.6,10-23.9,5.8C104.1,112.2,120.1,119.5,128,106.4z"/>
				<path class="st5" d="M127.5,126.7c0,0-10.6,10.1-23.9,5.8C103.6,132.4,119.6,139.8,127.5,126.7z"/>
				<path class="st5" d="M63.7,15.8c1.9,3.9,5.1,6.9,9.1,8.6C72.8,24.4,63,24.4,63.7,15.8z"/>
				<path class="st5" d="M100,24.4c0,0,8.6-1.6,9.9-6.5C109.9,17.9,111.9,24.4,100,24.4z"/>
				<path class="st5" d="M28.8,30.3c0,0-5.8,17.5,12.4,20.8C41.2,51.2,27.2,45.2,28.8,30.3z"/>
				<path class="st5" d="M18.6,64.8c0,0-5.8,17.5,12.4,20.8C31,85.6,16.9,79.7,18.6,64.8z"/>
				<path class="st5" d="M10,96c0,0-5.8,17.5,12.4,20.8C22.4,116.9,8.4,110.9,10,96z"/>
				<path class="st5" d="M5.6,120.2c0,0-5.8,17.5,12.4,20.8C18,141,4,135.1,5.6,120.2z"/>
				<path class="st5" d="M148.6,30.3c0,0,5.8,17.5-12.4,20.8C136.2,51.1,150.3,45.2,148.6,30.3z"/>
				<path class="st5" d="M158.8,64.7c0,0,5.8,17.5-12.4,20.8C146.4,85.6,160.5,79.6,158.8,64.7z"/>
				<path class="st5" d="M167.4,96c0,0,5.8,17.5-12.4,20.8C155,116.8,169,110.9,167.4,96z"/>
				<path class="st5" d="M171.8,120.1c0,0,5.8,17.5-12.4,20.8C159.4,141,173.4,135,171.8,120.1z"/>
				<polygon class="st6" points="80.3,17.9 71.2,147.9 72.8,148.2 81.5,20.1 				"/>
				<path class="st7" d="M84.2,21.1c0,0,5.2,3.4,10.1,0C91.1,22.4,87.5,22.4,84.2,21.1z"/>
				<path class="st8" d="M41.2,26.9c0,0-1.8,22.3,28.8,26.3c0,0-5.4-15.6,2.8-21.3C72.8,31.9,45.4,20.2,41.2,26.9z"/>
				<path class="st8" d="M134.5,26.4c0,0,1.8,22.3-28.7,26.3c0,0,5.4-15.6-2.8-21.3C102.9,31.4,130.3,19.7,134.5,26.4z"/>
			</g>
			<g id="SnowShoes">
				<path class="st9" d="M55.5,353.8c0,0,1.2,8,1,12.2s0.7,8.8,1.2,12.4c0,0-8.9,15.9-7.4,17.4s5.2,7.2,13,7.4s17.7-4.5,18.4-6.7
					s-3.2-17.1-4.8-19.1s1.2-8.2,1-10.2c-0.2-4.5-0.1-9,0.5-13.4H55.5z"/>
				<path class="st10" d="M56,381.6c0,0-19.7,20,6.5,22.8s20-13.8,20-13.8L78,380.1c0,0,4.8,12.8,2.4,16.6s-15.7,4-17.9,4
					S51.3,397,51,395S56,381.6,56,381.6"/>
				<path class="st11" d="M58.5,381.6c0,0,8.5-9.1,17.2,0C75.7,381.6,68.2,368.4,58.5,381.6z"/>
				<path class="st11" d="M48.9,394.2v4.5l2.7,4.5l0.5-1.2l1,0.6v1.4l5.2,1.4v-1.2l2.7,0.6v1.1l6.3,0.3v-0.8l3.3-0.1v0.9l4.2-0.7
					v-0.7L78,404v1.2l3.4-2.8v-1.2l0.8-1v1.2l0.9-5.6C83.1,395.8,66.5,414,48.9,394.2z"/>
				<path class="st12" d="M63.3,375.3c0,0,0.9-11.4-1.7-21.1l0,0c0,0,5.3-4,12.9,0l0,0c0,0-3.1,15.1-2.3,21.1
					C72.1,375.3,65.9,373.6,63.3,375.3z"/>
				<polygon class="st13" points="62,355.9 67.1,359.1 74.7,355.3 74.7,356.7 67.6,360.4 74.2,362.6 73.9,364.2 67.1,361.4 
					61.6,363.7 61.1,362.2 66.4,360.3 61.6,356.8 				"/>
				<polygon class="st13" points="62,363.7 67.1,366.9 74.7,363.1 74.7,364.5 67.6,368.2 74.2,370.4 73.9,372 67.1,369.2 
					61.6,371.4 61.1,370 66.4,368.1 61.6,364.6 				"/>
				<polygon class="st13" points="61.2,370.9 66.3,374.1 73.9,370.3 73.9,371.7 66.8,375.4 73.4,377.6 73.1,379.2 66.3,376.4 
					60.8,378.6 60.3,377.1 65.6,375.2 60.8,371.8 				"/>
				<polygon class="st13" points="61.2,379.2 66.3,382.4 73.9,378.6 73.9,380 66.8,383.8 73.4,385.9 73.1,387.6 66.3,384.8 
					60.8,387 60.3,385.5 65.6,383.6 60.8,380.1 				"/>
				<path class="st11" d="M55.5,390.6c0,0,0.9,6.5,11.6,6C67.1,396.5,57.2,394.7,55.5,390.6z"/>
				<path class="st9" d="M121.9,352.8c0,0-1.2,8-1,12.2s-0.7,8.8-1.2,12.4c0,0,8.9,15.9,7.4,17.4s-5.2,7.2-13,7.4
					s-17.7-4.5-18.4-6.7s3.2-17.1,4.7-19.1s-1.2-8.2-1-10.2c0.2-4.5,0.1-9-0.5-13.4H121.9z"/>
				<path class="st10" d="M121.4,380.6c0,0,19.7,20-6.4,22.8s-20-13.8-20-13.8l4.5-10.5c0,0-4.9,12.8-2.4,16.6s15.7,4,17.9,4
					s11.2-3.7,11.5-5.7S121.4,380.6,121.4,380.6"/>
				<path class="st11" d="M118.9,380.6c0,0-8.4-9.1-17.2,0C101.7,380.6,109.2,367.4,118.9,380.6z"/>
				<path class="st11" d="M128.5,393.2v4.5l-2.7,4.5l-0.5-1.2l-1,0.6v1.3l-5.2,1.4v-1.1l-2.7,0.6v1.1l-6.3,0.3v-0.8l-3.3-0.1v0.9
					l-4.2-0.7v-0.7l-3.2-0.8v1.2l-3.4-2.8v-1.2l-0.8-1v1.2l-0.9-5.6C94.3,394.7,110.9,413,128.5,393.2z"/>
				<path class="st12" d="M114.1,374.3c0,0-0.9-11.4,1.7-21.1l0,0c0,0-5.3-4-12.8,0l0,0c0,0,3.1,15.1,2.3,21.1
					C105.3,374.3,111.5,372.5,114.1,374.3z"/>
				<polygon class="st13" points="115.4,354.9 110.3,358.1 102.7,354.3 102.7,355.7 109.9,359.4 103.2,361.6 103.5,363.2 
					110.3,360.4 115.8,362.7 116.3,361.2 111,359.3 115.8,355.8 				"/>
				<polygon class="st13" points="115.4,362.7 110.3,365.9 102.7,362.1 102.7,363.5 109.9,367.2 103.2,369.4 103.5,371 110.3,368.2 
					115.8,370.4 116.3,368.9 111,367 115.8,363.6 				"/>
				<polygon class="st13" points="116.2,369.9 111.1,373.1 103.5,369.3 103.5,370.7 110.7,374.4 104.1,376.6 104.3,378.2 
					111.1,375.4 116.6,377.6 117.1,376.1 111.8,374.2 116.6,370.8 				"/>
				<polygon class="st13" points="116.2,378.2 111.1,381.4 103.5,377.6 103.5,379 110.7,382.8 104.1,384.9 104.3,386.6 111.1,383.8 
					116.6,386 117.1,384.5 111.8,382.6 116.6,379.1 				"/>
				<path class="st11" d="M121.9,389.5c0,0-0.9,6.5-11.6,6C110.3,395.5,120.2,393.7,121.9,389.5z"/>
			</g>
		</g>
	</g>
</g>
</svg>
