<?xml version="1.0" encoding="utf-8"?>
<!-- Generator: Adobe Illustrator 22.1.0, SVG Export Plug-In . SVG Version: 6.00 Build 0)  -->
<svg version="1.1" id="Layer_1" xmlns="http://www.w3.org/2000/svg" xmlns:xlink="http://www.w3.org/1999/xlink" x="0px" y="0px"
	 viewBox="0 0 183 422.5" style="enable-background:new 0 0 183 422.5;" xml:space="preserve">
<style type="text/css">
	.st0{fill:none;}
	.st1{fill:#808080;}
	.st2{fill:#666666;}
	.st3{fill:#3D3D3D;}
	.st4{fill:#CE9761;}
	.st5{fill:#C18249;}
	.st6{fill:#B3B3B3;}
	.st7{fill:#4C4C4C;}
	.st8{fill:#D19D6D;}
	.st9{fill:#333333;}
	.st10{fill:#565656;}
	.st11{fill:#474747;}
	.st12{fill:#262626;}
	.st13{fill:#020202;}
</style>
<title>sncb</title>
<g id="Layer_2_1_">
	<g id="sncb">
		<g id="sncb-2">
			<rect y="7.6" class="st0" width="183" height="415"/>
			<g id="sncbpants">
				<g id="rcbpants">
					<g id="ccbpants">
						<path class="st1" d="M52.7,138.9c0,0,33,20.6,73-1.3c0,0,20.2,51,4.9,104.1c0,0-5,43.9-0.7,54.9c3.8,9.6,4.5,36.8-4.8,40.1
							c0,0-1.7,3.4-2.2,4.4l-1,9.7c0,0-16.2-0.6-22.2,0.6l0.1-11.5c-3.8,1.8-3.9-2.2-2.7-9.8c1-6.5-3.1-30.4-0.1-45.8
							c3.2-16.4-5.8-47.1-5.1-66s-1.8-28.8-1.8-28.8s-6.6,72.2-5.8,80.5s-0.8,43.4-3.5,56.3c-1.2,5.6-1.2,10.8-2.6,14.3l-1.5,12
							H57.7c0,0-1.3-7.1-3.6-11.4c0,0-3.5,1.6-3.3-8c0.2-11.4,2.8-4.3-0.9-23.2s2.2-30.5,2-40.1s-13-60.1-9.2-76.2
							S40.3,152,52.7,138.9z"/>
						<path class="st2" d="M68.5,156c0,0-4.6,15.5-18.7,18.8C49.8,174.8,68.9,179.1,68.5,156z"/>
						<path class="st2" d="M113.1,156c0,0,4.6,15.5,18.7,18.8C131.7,174.8,112.6,179.1,113.1,156z"/>
						<path class="st2" d="M52.4,335c0,0,3.2,4.8,9,0.5c11.7-8.7,12.2-1.8,13.3-0.5s-0.5-4.2-4.8-5.4s-6.1,5.5-10.5,4
							s-4.7-4.8-4.7-4.8S53.8,334.9,52.4,335z"/>
						<path class="st2" d="M97.1,336.9c0,0,2.1-7.9,11.6-5.7s8.1-1.6,8.1-1.6s-2.8,1.6-8.2,0s-10.8,3.7-10.8,3.7L97.1,336.9"/>
						<path class="st2" d="M130.4,303.8c0,0-4.8,25.3-15.5,21.3C114.8,325.1,126.5,333.4,130.4,303.8"/>
					</g>
					<path class="st2" d="M85.5,153.4c0,0,0.6,23.9,0.6,26.6s7.8,4,8.2,0c0,0-4.4,4-7.3,0l-1-26.5L85.5,153.4z"/>
				</g>
				<path class="st3" d="M91,149.5c0,0-1-3.5-3.5-0.2c0,0-15.8,10.7-13.6,15.1s13.3-7.3,13.3-12.6c0.2,0.2,0.5,0.4,0.8,0.6
					c-0.5,4.3-2.3,16.6-5.5,20v2.7c0,0,5.9-8,6.7-22.5l0,0c0,0.7,1.3,24.1,6.7,29.2h3c0,0-5.4-0.4-8.2-29.2l-0.6-0.4
					c0.1-0.1,0.3-0.3,0.4-0.4c0,0,4.7,14.3,9.6,13.6C100.1,165.4,103.3,156.4,91,149.5z M75.6,163c-0.9-1.2,9.6-10.4,9.6-10.4
					C85.3,157.3,76.5,164.3,75.6,163z M98.6,163.1c-1.9,0.4-6.8-10.6-6.8-10.6C95.8,153.8,100.5,162.8,98.6,163.1L98.6,163.1z"/>
				<path class="st2" d="M48.3,147.9c0,0,12.2,7.9,25.4,6.9C73.7,154.8,55,152.2,48.3,147.9z"/>
				<path class="st2" d="M125.4,147.2c0,0-10.2,7.9-21.1,6.9C104.3,154.1,119.8,151.5,125.4,147.2z"/>
			</g>
			<g id="sncbshirt">
				<path class="st3" d="M74.4,1.5c0,0,11.8,7.3,30.1,0c0,0,1.7-0.1,1.6,7.3l33.5,12.6l-16.7,74.8l-3.3,43.6c0,0-31.8,16.2-64.6-0.5
					l1.8-44.2L44,19.4L70.8,9.2C70.8,9.2,72.5,0.6,74.4,1.5z"/>
				<path class="st4" d="M72.9,3.2c1.2-2.2,1.5-1.7,1.5-1.7l0.4-4c0,0-16.6,3-10.3,14.1c0,0-32.9,4.1-37.2,15.1
					c-2.6,6.4-2.7,13.5-0.4,19.9c0,0-17.9,11.8-9.2,34.3c0,0-16,8.6-8.6,29.4c0,0-12.3,12.7-1.9,29.7c0,0-5.1,8.3,0.1,17.1L9,168.2
					c0,0,9.7,3.6,14.5-1l0.1-10.1c0,0,8.4-7.9,7.1-15.9c0,0,11.4-15.7,8.7-28.5c3.8-4.5,6.7-9.8,8.4-15.5c-0.2,3.5,0,6.8,1.2,8.9
					c0,0-7.1,13.6,2.6,22.3l-0.5,9.3c0,0,7.2,7.2,22.4,9.3l7.5-130.3C81.1,16.9,72.6,10.9,72.9,3.2z M10.2,145.2l-1.2-1.9
					L10.2,145.2z M13.9,151.2l-0.5-0.8C13.5,150.7,13.7,150.9,13.9,151.2L13.9,151.2z M12.2,148.5l-0.8-1.3L12.2,148.5z M16.8,156.1
					l0.2,0.3L16.8,156.1z M14.6,152.5l0.8,1.3L14.6,152.5z M15.7,154.3l0.6,0.9L15.7,154.3z M16.5,155.5l0.1,0.2L16.5,155.5z
					 M17.4,157.1L17.4,157.1z M17.2,156.8l0.1,0.2L17.2,156.8z"/>
				<path class="st4" d="M169.2,110.4c7.4-20.8-8.6-29.4-8.6-29.4c8.6-22.5-7.2-34.3-7.2-34.3c1-6.7,0.2-13.6-2.4-19.9
					c-4.3-10.9-37.2-15.1-37.2-15.1C120,0.5,104-3,104-3l0.5,4.5c0.5,0.5,1,1.1,1.3,1.7c-0.2,7.5-8.7,13.7-8.7,13.7l7.5,130.3
					c15.3-2.1,22.4-9.3,22.4-9.3l-0.5-9.3c9.7-8.8,2.6-22.3,2.6-22.3c1.1-2.1,1.4-5.4,1.2-8.9c1.7,5.7,4.5,11,8.4,15.5
					c-2.6,12.7,8.7,28.5,8.7,28.5c-1.3,7.9,7.1,15.9,7.1,15.9l0.1,10.1c4.8,4.6,14.5,1,14.5,1l1.8-11.1c5.3-8.8,0.1-17.1,0.1-17.1
					C181.5,123.1,169.2,110.4,169.2,110.4z M161.2,156.3l0.1-0.2L161.2,156.3z M160.7,157L160.7,157z M160.8,156.9l0.1-0.2
					L160.8,156.9z M163.4,152.7l-0.5,0.9L163.4,152.7z M162.3,154.4l-0.4,0.7L162.3,154.4z M161.7,155.6L161.7,155.6L161.7,155.6z
					 M166.6,147.5l3.3-5.4L166.6,147.5z M164.7,150.6l1.3-2.2L164.7,150.6z"/>
				<path class="st5" d="M49.7,53.7c0,0,10.6,10.1,23.9,5.8C73.6,59.4,57.7,66.8,49.7,53.7z"/>
				<path class="st5" d="M49.4,79.3c0,0,10.6,10.1,23.9,5.8C73.3,85.1,57.4,92.4,49.4,79.3z"/>
				<path class="st5" d="M49.1,105.4c0,0,10.6,10,23.9,5.8C73,111.2,57.1,118.5,49.1,105.4z"/>
				<path class="st5" d="M49.6,125.7c0,0,10.6,10,23.9,5.7C73.5,131.4,57.6,138.8,49.6,125.7z"/>
				<path class="st5" d="M128.2,53.7c0,0-10.6,10.1-23.9,5.8C104.4,59.4,120.3,66.8,128.2,53.7z"/>
				<path class="st5" d="M128.6,79.3c0,0-10.6,10.1-23.9,5.8C104.7,85.1,120.6,92.4,128.6,79.3z"/>
				<path class="st5" d="M128.8,105.4c0,0-10.6,10-23.9,5.8C104.9,111.2,120.9,118.5,128.8,105.4z"/>
				<path class="st5" d="M128.3,125.7c0,0-10.6,10-23.9,5.7C104.4,131.4,120.4,138.8,128.3,125.7z"/>
				<path class="st5" d="M64.5,14.8c1.9,3.9,5.1,6.9,9.1,8.6C73.6,23.4,63.8,23.4,64.5,14.8z"/>
				<path class="st5" d="M100.8,23.4c0,0,8.6-1.6,9.9-6.5C110.7,16.9,112.7,23.4,100.8,23.4z"/>
				<path class="st5" d="M29.6,29.3c0,0-5.8,17.5,12.4,20.8C42,50.2,28,44.2,29.6,29.3z"/>
				<path class="st5" d="M19.4,63.8c0,0-5.8,17.5,12.4,20.8C31.8,84.6,17.7,78.7,19.4,63.8z"/>
				<path class="st5" d="M10.8,95c0,0-5.8,17.6,12.4,20.9C23.2,115.9,9.2,109.9,10.8,95z"/>
				<path class="st5" d="M6.4,119.2c0,0-5.8,17.5,12.4,20.8C18.8,140,4.8,134.1,6.4,119.2z"/>
				<path class="st5" d="M149.4,29.3c0,0,5.8,17.5-12.4,20.9C137,50.1,151.1,44.2,149.4,29.3z"/>
				<path class="st5" d="M159.7,63.7c0,0,5.8,17.5-12.4,20.8C147.3,84.6,161.3,78.6,159.7,63.7z"/>
				<path class="st5" d="M168.2,95c0,0,5.8,17.5-12.4,20.8C155.8,115.8,169.8,109.9,168.2,95z"/>
				<path class="st5" d="M172.6,119.1c0,0,5.8,17.5-12.4,20.8C160.2,140,174.2,134,172.6,119.1z"/>
				<polygon class="st6" points="81.1,16.9 72,146.9 73.6,147.2 82.3,19.1 				"/>
				<path class="st7" d="M85,20.1c0,0,5.2,3.4,10.1,0C91.9,21.4,88.3,21.4,85,20.1z"/>
				<path class="st8" d="M42,25.9c0,0-1.8,22.3,28.8,26.3c0,0-5.4-15.6,2.8-21.3C73.6,30.9,46.2,19.2,42,25.9z"/>
				<path class="st8" d="M135.3,25.4c0,0,1.8,22.3-28.8,26.3c0,0,5.4-15.6-2.8-21.3C103.7,30.4,131.1,18.7,135.3,25.4z"/>
			</g>
			<g id="SnowShoes">
				<path class="st9" d="M55.5,352.1c0,0,1.2,7.9,1,12.2s0.7,8.8,1.2,12.4c0,0-8.9,15.9-7.4,17.4s5.2,7.2,13,7.5s17.6-4.5,18.4-6.7
					s-3.2-17.1-4.7-19.1s1.2-8.2,1-10.2c-0.2-4.5-0.1-9,0.5-13.4L55.5,352.1z"/>
				<path class="st10" d="M56,379.9c0,0-19.7,20,6.5,22.8s20-13.8,20-13.8L78,378.4c0,0,4.8,12.8,2.4,16.6s-15.7,4-17.9,4
					s-11.2-3.8-11.5-5.7S56,379.9,56,379.9"/>
				<path class="st11" d="M58.5,379.9c0,0,8.5-9.1,17.2,0C75.7,379.9,68.2,366.7,58.5,379.9z"/>
				<path class="st11" d="M48.9,392.5v4.5l2.7,4.5l0.5-1.2l1,0.6v1.3l5.2,1.4v-1.2L61,403v1.1l6.3,0.3v-0.8l3.3-0.1v0.9l4.2-0.8V403
					l3.2-0.8v1.2l3.4-2.8v-1.2l0.8-1v1.2l0.9-5.6C83.1,394,66.5,412.2,48.9,392.5z"/>
				<path class="st12" d="M63.3,373.6c0,0,0.9-11.4-1.7-21.1l0,0c0,0,5.3-4,12.9,0l0,0c0,0-3.1,15.1-2.3,21.1
					C72.1,373.6,65.9,371.8,63.3,373.6z"/>
				<polygon class="st13" points="62,354.2 67.1,357.4 74.7,353.6 74.7,355 67.6,358.7 74.2,360.9 73.9,362.5 67.1,359.7 
					61.6,361.9 61.1,360.5 66.4,358.5 61.6,355.1 				"/>
				<polygon class="st13" points="62,362 67.1,365.2 74.7,361.4 74.7,362.8 67.6,366.5 74.2,368.6 73.9,370.3 67.1,367.5 
					61.6,369.7 61.1,368.2 66.4,366.3 61.6,362.9 				"/>
				<polygon class="st13" points="61.2,369.2 66.3,372.4 73.9,368.5 73.9,370 66.8,373.7 73.4,375.8 73.1,377.5 66.3,374.7 
					60.8,376.9 60.3,375.4 65.6,373.5 60.8,370 				"/>
				<polygon class="st13" points="61.2,377.5 66.3,380.7 73.9,376.9 73.9,378.3 66.8,382 73.4,384.2 73.1,385.8 66.3,383 
					60.8,385.3 60.3,383.8 65.6,381.9 60.8,378.4 				"/>
				<path class="st11" d="M55.5,388.8c0,0,0.9,6.5,11.6,6C67.1,394.8,57.2,393,55.5,388.8z"/>
				<path class="st9" d="M121.9,351.1c0,0-1.2,7.9-1,12.2s-0.7,8.8-1.2,12.4c0,0,8.9,15.9,7.4,17.4s-5.2,7.2-13,7.5
					s-17.7-4.5-18.4-6.7s3.2-17.1,4.7-19.1s-1.2-8.2-1-10.2c0.2-4.5,0.1-9-0.5-13.4H121.9z"/>
				<path class="st10" d="M121.4,378.9c0,0,19.7,20-6.4,22.8s-20-13.8-20-13.8l4.5-10.5c0,0-4.9,12.8-2.4,16.6s15.7,4,17.9,4
					s11.2-3.8,11.5-5.7S121.4,378.9,121.4,378.9"/>
				<path class="st11" d="M118.9,378.9c0,0-8.4-9.1-17.2,0C101.7,378.9,109.2,365.7,118.9,378.9z"/>
				<path class="st11" d="M128.5,391.5v4.5l-2.7,4.5l-0.5-1.2l-1,0.6v1.3l-5.2,1.4v-1.2l-2.7,0.6v1.1l-6.3,0.3v-0.8l-3.3-0.1v0.9
					l-4.2-0.8V402l-3.2-0.8v1.2l-3.4-2.8v-1.2l-0.8-1v1.2l-0.9-5.6C94.3,393,110.9,411.2,128.5,391.5z"/>
				<path class="st12" d="M114.1,372.5c0,0-0.9-11.4,1.7-21.1l0,0c0,0-5.3-4-12.8,0l0,0c0,0,3.1,15.1,2.3,21.1
					C105.3,372.5,111.5,370.8,114.1,372.5z"/>
				<polygon class="st13" points="115.4,353.2 110.3,356.4 102.7,352.6 102.7,354 109.9,357.7 103.2,359.9 103.5,361.5 110.3,358.7 
					115.8,360.9 116.3,359.4 111,357.5 115.8,354.1 				"/>
				<polygon class="st13" points="115.4,361 110.3,364.1 102.7,360.4 102.7,361.8 109.9,365.5 103.2,367.6 103.5,369.3 110.3,366.5 
					115.8,368.7 116.3,367.2 111,365.3 115.8,361.8 				"/>
				<polygon class="st13" points="116.2,368.1 111.1,371.4 103.5,367.5 103.5,369 110.7,372.7 104.1,374.8 104.3,376.5 111.1,373.7 
					116.6,375.9 117.1,374.4 111.8,372.5 116.6,369 				"/>
				<polygon class="st13" points="116.2,376.5 111.1,379.7 103.5,375.9 103.5,377.3 110.7,381 104.1,383.2 104.3,384.8 111.1,382 
					116.6,384.2 117.1,382.8 111.8,380.9 116.6,377.4 				"/>
				<path class="st11" d="M121.9,387.8c0,0-0.9,6.5-11.6,6C110.3,393.8,120.2,392,121.9,387.8z"/>
			</g>
		</g>
	</g>
</g>
</svg>
