<svg xmlns="http://www.w3.org/2000/svg" viewBox="0 0 348.86 809.6"><defs><style>.cls-1{fill:#b2b2b2;}.cls-2{fill:#a0a0a0;}.cls-3{fill:#4f4f4f;}.cls-4{fill:#4e4754;}.cls-5{fill:#4f5f77;}.cls-6{fill:#404d60;}.cls-7{fill:#b3b3b3;}.cls-8{fill:#413c47;}.cls-9{fill:#56657c;}.cls-10{fill:#333;}.cls-11{fill:#565656;}.cls-12{fill:#474747;}.cls-13{fill:#262626;}.cls-14{fill:#020202;}</style></defs><title>sncb2</title><g id="Layer_2" data-name="Layer 2"><g id="sncb2"><g id="sncb2-2" data-name="sncb2"><g id="sncbpants2"><g id="rcbpants"><g id="ccbpants"><path class="cls-1" d="M101.67,283.65s66.89,41.53,147.74-2.7c0,0,40.94,102.82,10,209.84,0,0-10.05,88.5-1.37,110.5,7.59,19.25,9.15,74.06-9.83,80.79,0,0-3.5,6.85-4.36,8.79l-2,19.48s-32.71-1.22-44.9,1.22l.27-23.22c-7.7,3.59-7.82-4.4-5.46-19.8,2-13.2-6.2-61.19-.19-92.26,6.38-33-11.74-94.94-10.24-133s-3.57-58-3.57-58-13.37,145.53-11.76,162.26-1.45,87.52-6.86,113.52c-2.37,11.39-2.47,21.75-5.32,28.73l-3,24.14h-39s-2.73-14.25-7.2-22.89c0,0-7.17,3.24-6.75-16.13.51-23,5.6-8.67-1.91-46.67s4.51-61.43,4-80.7S73.54,426.54,81.38,394,76.63,310.15,101.67,283.65Z"/><path class="cls-2" d="M133.72,318.29s-9.35,31.22-37.85,37.86C95.87,356.15,134.56,364.79,133.72,318.29Z"/><path class="cls-2" d="M223.89,318.29s9.34,31.22,37.84,37.86C261.73,356.15,223.05,364.79,223.89,318.29Z"/><path class="cls-2" d="M101,678.84s6.39,9.74,18.25,1c23.79-17.6,24.67-3.67,27-1s-1-8.5-9.66-10.84-12.34,11-21.34,8-9.49-9.6-9.49-9.6S103.84,678.69,101,678.84Z"/><path class="cls-2" d="M191.68,682.65s4.2-15.82,23.53-11.49,16.33-3.33,16.33-3.33-5.66,3.33-16.66,0S193,675.24,193,675.24l-1.32,7.41"/><path class="cls-2" d="M259,615.94s-9.79,51-31.46,43c0,0,23.58,16.71,31.46-43"/></g><path class="cls-2" d="M168.13,312.88s1.29,48.17,1.29,53.67,15.75,8,16.5,0c0,0-9,8-14.74,0l-2-53.33Z"/></g><path class="cls-3" d="M179.15,305.09s-2-7-7-.5c0,0-32,21.5-27.5,30.5s27-14.74,27-25.37a6.64,6.64,0,0,0,1.54,1.25c-1.06,8.64-4.59,33.38-11.16,40.36v5.5s12-16.19,13.5-45.31h0c.08,1.49,2.68,48.48,13.5,58.81h6s-11-.7-16.5-58.85l-1.2-.85a5.74,5.74,0,0,0,.82-.91s9.5,28.87,19.5,27.37C197.65,337.09,204.15,319.09,179.15,305.09Zm-31,27.25c-1.75-2.5,19.5-21,19.5-21C167.65,320.84,149.9,334.84,148.15,332.34Zm46.5.3c-3.75.78-13.75-21.3-13.75-21.3C188.9,313.84,198.41,331.86,194.65,332.64Z"/><path class="cls-2" d="M92.81,301.83s24.79,15.83,51.41,13.89C144.22,315.72,106.48,310.6,92.81,301.83Z"/><path class="cls-2" d="M248.83,300.43s-20.59,15.83-42.71,13.89C206.12,314.32,237.47,309.2,248.83,300.43Z"/></g><g id="sncbshirt2"><path class="cls-4" d="M144.64,9.11s23.77,14.67,60.88,0c0,0,3.42-.16,3.27,14.75l67.8,25.43L242.7,200,236,287.8s-64.41,32.68-130.86-.92l3.55-89.1L83.19,45.18l54.17-20.63S140.74,7.21,144.64,9.11Z"/><path class="cls-5" d="M141.62,12.53c2.48-4.49,3-3.42,3-3.42l.87-8s-33.67,5.95-20.94,28.31c0,0-66.6,8.36-75.26,30.36s-.83,40.16-.83,40.16-36.16,23.84-18.63,69.17c0,0-32.51,17.33-17.53,59.33,0,0-24.87,25.57-3.94,59.79,0,0-10.41,16.77.26,34.49L12.32,345s19.73,7.22,29.36-2L42,322.71s17-15.93,14.35-31.93c0,0,23-31.67,17.66-57.34,0,0,11-11.62,17-31.26-.35,7,.11,13.74,2.39,17.93,0,0-14.34,27.33,5.33,45l-1,18.67s14.48,14.55,45.41,18.77L158.14,40.12S141,27.93,141.62,12.53Zm-126.93,286-2.35-3.85Zm7.38,12.06-1-1.58Zm-3.35-5.47-1.59-2.6C17.69,303.45,18.22,304.31,18.72,305.14Zm9.39,15.34c.14.23.26.44.37.61Zm-4.44-7.25,1.64,2.68Zm2.19,3.57c.42.7.79,1.31,1.12,1.84Zm1.52,2.5.25.4Zm1.92,3.14h0Zm-.4-.66.27.44Z"/><path class="cls-5" d="M336.53,228.44c15-42-17.52-59.33-17.52-59.33,17.52-45.33-14.63-69.17-14.63-69.17s3.84-18.16-4.83-40.16-75.27-30.36-75.27-30.36C237,7.06,204.47,0,204.47,0l1.05,9.11a21.87,21.87,0,0,1,2.72,3.47c-.48,15.2-17.53,27.54-17.53,27.54l15.1,262.43c30.93-4.22,45.41-18.77,45.41-18.77l-1-18.67c19.67-17.67,5.33-45,5.33-45,2.28-4.19,2.73-11,2.39-17.93,6,19.64,16.95,31.26,16.95,31.26-5.34,25.67,17.66,57.34,17.66,57.34-2.66,16,14.35,31.93,14.35,31.93l.28,20.28c9.63,9.22,29.35,2,29.35,2l3.69-22.27c10.67-17.72.26-34.49.26-34.49C361.41,254,336.53,228.44,336.53,228.44ZM320.43,321l.3-.48Zm-.88,1.44h0Zm.14-.23.26-.43Zm5.21-8.52-1.08,1.78C324.15,314.92,324.52,314.33,324.9,313.69Zm-2.11,3.46-.82,1.33Zm-1.41,2.31-.11.17Zm10-16.33L338,292.22Zm-3.86,6.31,2.66-4.35Z"/><path class="cls-6" d="M94.7,114.19s21.42,20.25,48.35,11.59C143.05,125.78,110.76,140.61,94.7,114.19Z"/><path class="cls-6" d="M94.06,165.83s21.42,20.25,48.35,11.59C142.41,177.42,110.12,192.25,94.06,165.83Z"/><path class="cls-6" d="M93.51,218.46s21.42,20.25,48.35,11.59C141.86,230.05,109.58,244.88,93.51,218.46Z"/><path class="cls-6" d="M94.53,259.29s21.42,20.25,48.34,11.58C142.87,270.87,110.59,285.7,94.53,259.29Z"/><path class="cls-6" d="M253.63,114.19s-21.42,20.25-48.34,11.59C205.29,125.78,237.57,140.61,253.63,114.19Z"/><path class="cls-6" d="M254.27,165.83s-21.42,20.25-48.35,11.59C205.92,177.42,238.21,192.25,254.27,165.83Z"/><path class="cls-6" d="M254.82,218.46s-21.42,20.25-48.35,11.59C206.47,230.05,238.75,244.88,254.82,218.46Z"/><path class="cls-6" d="M253.8,259.29s-21.42,20.25-48.34,11.58C205.46,270.87,237.74,285.7,253.8,259.29Z"/><path class="cls-6" d="M124.57,35.81s4.47,11.27,18.48,17.3C143.05,53.11,123.18,53.18,124.57,35.81Z"/><path class="cls-6" d="M198.05,53.11s17.47-3.31,20-13C218.08,40.12,222.14,53.11,198.05,53.11Z"/><path class="cls-6" d="M54,65.11s-11.8,35.33,25.1,42C79.07,107.11,50.64,95.11,54,65.11Z"/><path class="cls-6" d="M33.28,134.51s-11.8,35.33,25.1,42C58.38,176.51,29.94,164.51,33.28,134.51Z"/><path class="cls-6" d="M16,197.46s-11.79,35.34,25.11,42C41.08,239.46,12.64,227.46,16,197.46Z"/><path class="cls-6" d="M7.07,246.15s-11.8,35.34,25.1,42C32.17,288.15,3.74,276.15,7.07,246.15Z"/><path class="cls-6" d="M296.54,65s11.8,35.33-25.1,42C271.44,107,299.87,95,296.54,65Z"/><path class="cls-6" d="M317.24,134.44s11.79,35.33-25.11,42C292.13,176.44,320.57,164.44,317.24,134.44Z"/><path class="cls-6" d="M334.54,197.4s11.8,35.33-25.1,42C309.44,239.4,337.87,227.4,334.54,197.4Z"/><path class="cls-6" d="M343.44,246.09s11.8,35.33-25.1,42C318.34,288.09,346.78,276.09,343.44,246.09Z"/><polygon class="cls-7" points="158.14 40.12 139.78 302.05 143.05 302.55 160.64 44.46 158.14 40.12"/><path class="cls-8" d="M166.09,46.61s10.49,6.84,20.52,0A28.26,28.26,0,0,1,166.09,46.61Z"/><path class="cls-9" d="M79.07,58.28s-3.66,45,58.21,53c0,0-11-31.38,5.77-43C143.05,68.28,87.51,44.78,79.07,58.28Z"/><path class="cls-9" d="M267.92,57.29s3.65,45-58.21,53c0,0,11-31.37-5.77-43C203.94,67.29,259.48,43.79,267.92,57.29Z"/></g><g id="SnowShoes"><path class="cls-10" d="M109.2,704.1s2.51,16,2,24.5,1.34,17.66,2.5,25c0,0-18,32-15,35s10.43,14.5,26.21,15,35.79-9,37.29-13.5-6.47-34.5-9.5-38.5,2.34-16.5,1.92-20.5a143.52,143.52,0,0,1,1.08-27Z"/><path class="cls-11" d="M110.14,760.14s-39.93,40.21,13.07,46,40.5-27.75,40.5-27.75l-9.08-21.25s9.83,25.75,4.83,33.5-31.75,8-36.25,8-22.63-7.54-23.25-11.5,10.18-27,10.18-27"/><path class="cls-12" d="M115.26,760.14s17.11-18.29,34.78,0C150,760.14,134.78,733.5,115.26,760.14Z"/><path class="cls-12" d="M95.71,785.44v9.16l5.5,9,1-2.35,2,1.17v2.66l10.5,2.84V805.6l5.5,1.17v2.17l12.83.66v-1.66l6.67-.17v1.83l8.5-1.5v-1.33l6.42-1.67v2.5l6.91-5.66v-2.5l1.67-1.92v2.42L165,788.6S131.38,825.27,95.71,785.44Z"/><path class="cls-13" d="M124.92,747.35s1.79-23-3.46-42.5h0s10.75-8,26,0h0s-6.25,30.5-4.75,42.5C142.71,747.35,130.14,743.85,124.92,747.35Z"/><polygon class="cls-14" points="122.31 708.32 132.65 714.77 148.04 707.1 148.04 709.94 133.54 717.44 146.92 721.77 146.37 725.09 132.65 719.44 121.54 723.94 120.54 720.94 131.21 717.1 121.54 710.1 122.31 708.32"/><polygon class="cls-14" points="122.31 723.99 132.65 730.44 148.04 722.77 148.04 725.6 133.54 733.1 146.92 737.44 146.37 740.76 132.65 735.1 121.54 739.6 120.54 736.6 131.21 732.77 121.54 725.77 122.31 723.99"/><polygon class="cls-14" points="120.67 738.49 131.01 744.94 146.4 737.27 146.4 740.1 131.9 747.6 145.28 751.94 144.73 755.26 131.01 749.6 119.9 754.1 118.9 751.1 129.56 747.27 119.9 740.27 120.67 738.49"/><polygon class="cls-14" points="120.67 755.32 131.01 761.77 146.4 754.1 146.4 756.94 131.9 764.44 145.28 768.77 144.73 772.09 131.01 766.44 119.9 770.94 118.9 767.94 129.56 764.1 119.9 757.1 120.67 755.32"/><path class="cls-12" d="M109.21,778.1s1.88,13,23.44,12C132.65,790.1,112.55,786.53,109.21,778.1Z"/><path class="cls-10" d="M243.5,702.06s-2.51,16-2,24.51-1.34,17.66-2.5,25c0,0,18,32,15,35s-10.43,14.5-26.21,15-35.79-9-37.29-13.5,6.47-34.5,9.5-38.5-2.35-16.5-1.92-20.5a143.65,143.65,0,0,0-1.08-27Z"/><path class="cls-11" d="M242.56,758.11s39.93,40.21-13.07,46S189,776.32,189,776.32l9.08-21.25s-9.83,25.75-4.83,33.5,31.75,8,36.25,8,22.63-7.54,23.25-11.5-10.18-27-10.18-27"/><path class="cls-12" d="M237.44,758.11s-17.11-18.3-34.78,0C202.66,758.11,217.92,731.46,237.44,758.11Z"/><path class="cls-12" d="M257,783.4v9.17l-5.5,9-1-2.36-2,1.17v2.67L238,805.9v-2.33l-5.5,1.16v2.17l-12.83.67V805.9l-6.67-.17v1.84l-8.5-1.5v-1.34l-6.42-1.66v2.5l-6.91-5.67v-2.5l-1.67-1.92v2.42l-1.78-11.33S221.32,823.23,257,783.4Z"/><path class="cls-13" d="M227.78,745.32s-1.79-23,3.46-42.5h0s-10.75-8-26,0h0s6.25,30.5,4.75,42.5C210,745.32,222.56,741.82,227.78,745.32Z"/><polygon class="cls-14" points="230.39 706.29 220.05 712.73 204.66 705.07 204.66 707.9 219.16 715.4 205.78 719.73 206.33 723.05 220.05 717.4 231.16 721.9 232.16 718.9 221.49 715.07 231.16 708.07 230.39 706.29"/><polygon class="cls-14" points="230.39 721.95 220.05 728.4 204.66 720.73 204.66 723.57 219.16 731.07 205.78 735.4 206.33 738.72 220.05 733.07 231.16 737.57 232.16 734.57 221.49 730.73 231.16 723.73 230.39 721.95"/><polygon class="cls-14" points="232.03 736.45 221.69 742.9 206.3 735.23 206.3 738.07 220.8 745.57 207.42 749.9 207.97 753.22 221.69 747.57 232.8 752.07 233.8 749.07 223.13 745.23 232.8 738.23 232.03 736.45"/><polygon class="cls-14" points="232.03 753.29 221.69 759.73 206.3 752.07 206.3 754.9 220.8 762.4 207.42 766.73 207.97 770.05 221.69 764.4 232.8 768.9 233.8 765.9 223.13 762.07 232.8 755.07 232.03 753.29"/><path class="cls-12" d="M243.49,776.07s-1.88,13-23.44,12C220.05,788.07,240.15,784.5,243.49,776.07Z"/></g></g></g></g></svg>