<svg xmlns="http://www.w3.org/2000/svg" viewBox="0 0 183 421.43"><defs><style>.cls-1{fill:none;}.cls-2{fill:#b2b2b2;}.cls-3{fill:#a0a0a0;}.cls-4{fill:#4f4f4f;}.cls-5{fill:#4e4754;}.cls-6{fill:#4f5f77;}.cls-7{fill:#404d60;}.cls-8{fill:#b3b3b3;}.cls-9{fill:#413c47;}.cls-10{fill:#56657c;}.cls-11{fill:#333;}.cls-12{fill:#565656;}.cls-13{fill:#474747;}.cls-14{fill:#262626;}.cls-15{fill:#020202;}</style></defs><title>sncb2</title><g id="Layer_2" data-name="Layer 2"><g id="sncb2"><g id="sncb2-2" data-name="sncb2"><rect class="cls-1" y="6.43" width="183" height="415"/><g id="sncbpants2"><g id="rcbpants"><g id="ccbpants"><path class="cls-2" d="M53.56,140.79s33,20.62,73-1.33c0,0,20.22,51,4.92,104.15,0,0-5,43.93-.68,54.85,3.75,9.55,4.52,36.76-4.85,40.1,0,0-1.74,3.4-2.16,4.36l-1,9.67s-16.15-.61-22.18.61l.14-11.53c-3.81,1.79-3.87-2.18-2.7-9.83,1-6.55-3.06-30.37-.09-45.79,3.15-16.38-5.8-47.13-5.06-66s-1.76-28.79-1.76-28.79-6.61,72.24-5.82,80.54-.71,43.45-3.38,56.35c-1.17,5.65-1.22,10.8-2.63,14.26l-1.47,12H58.54S57.2,347.3,55,343c0,0-3.54,1.61-3.33-8,.24-11.43,2.76-4.31-.95-23.17s2.23-30.49,2-40.06-13-60.06-9.15-76.23S41.19,154,53.56,140.79Z"/><path class="cls-3" d="M69.39,158s-4.61,15.49-18.69,18.79C50.7,176.78,69.81,181.07,69.39,158Z"/><path class="cls-3" d="M113.93,158s4.62,15.49,18.69,18.79C132.62,176.78,113.51,181.07,113.93,158Z"/><path class="cls-3" d="M53.25,337s3.15,4.84,9,.48c11.75-8.73,12.18-1.82,13.33-.5s-.49-4.21-4.77-5.37-6.1,5.46-10.54,4-4.69-4.77-4.69-4.77S54.63,336.87,53.25,337Z"/><path class="cls-3" d="M98,338.84s2.07-7.85,11.62-5.7,8.07-1.65,8.07-1.65-2.8,1.65-8.23,0-10.81,3.67-10.81,3.67L98,338.84"/><path class="cls-3" d="M131.25,305.73s-4.83,25.31-15.53,21.33c0,0,11.64,8.3,15.53-21.33"/></g><path class="cls-3" d="M86.39,155.3s.64,23.91.64,26.64,7.78,4,8.15,0c0,0-4.44,4-7.29,0l-1-26.47Z"/></g><path class="cls-4" d="M91.83,151.44s-1-3.48-3.45-.25c0,0-15.81,10.67-13.59,15.14s13.34-7.32,13.34-12.6a3,3,0,0,0,.76.62c-.52,4.29-2.27,16.57-5.51,20v2.73s5.92-8,6.66-22.49h0c0,.75,1.32,24.07,6.66,29.2h3s-5.44-.35-8.15-29.21l-.6-.42a2.67,2.67,0,0,0,.41-.46S96,168.06,101,167.32C101,167.32,104.18,158.39,91.83,151.44ZM76.52,165c-.86-1.24,9.63-10.42,9.63-10.42C86.15,159.25,77.39,166.2,76.52,165Zm23,.15c-1.86.39-6.79-10.57-6.79-10.57C96.65,155.78,101.35,164.72,99.49,165.11Z"/><path class="cls-3" d="M49.19,149.82s12.24,7.86,25.39,6.89C74.58,156.71,55.94,154.17,49.19,149.82Z"/><path class="cls-3" d="M126.25,149.12s-10.17,7.86-21.1,6.9C105.15,156,120.64,153.48,126.25,149.12Z"/></g><g id="sncbshirt2"><path class="cls-5" d="M74.78,4.52s11.75,7.28,30.08,0c0,0,1.69-.08,1.61,7.32L140,24.46,123.22,99.25l-3.33,43.6s-31.82,16.22-64.64-.46L57,98.17,44.43,22.42,71.19,12.18S72.86,3.58,74.78,4.52Z"/><path class="cls-6" d="M73.29,6.22c1.23-2.23,1.49-1.7,1.49-1.7l.43-4S58.58,3.5,64.87,14.6c0,0-32.89,4.15-37.18,15.07a28.13,28.13,0,0,0-.4,19.94S9.43,61.44,18.08,83.94c0,0-16,8.6-8.65,29.45,0,0-12.29,12.69-1.95,29.67,0,0-5.14,8.33.13,17.13l1.82,11.05s9.74,3.58,14.5-1l.14-10.07s8.4-7.91,7.08-15.85c0,0,11.36-15.72,8.73-28.46a42.37,42.37,0,0,0,8.37-15.52c-.17,3.46,0,6.82,1.18,8.9,0,0-7.08,13.57,2.63,22.34l-.49,9.27s7.15,7.22,22.43,9.31L81.46,19.91S73,13.87,73.29,6.22Zm-62.69,142-1.16-1.91Zm3.64,6-.48-.79C13.93,153.66,14.09,153.92,14.24,154.18Zm-1.65-2.72-.79-1.29Zm4.63,7.62.19.3ZM15,155.48l.81,1.33Zm1.08,1.77.56.91Zm.76,1.24.12.2Zm.94,1.56h0Zm-.2-.33.14.22Z"/><path class="cls-6" d="M169.57,113.39c7.4-20.85-8.65-29.45-8.65-29.45,8.65-22.5-7.23-34.33-7.23-34.33a38.1,38.1,0,0,0-2.38-19.94C147,18.75,114.13,14.6,114.13,14.6,120.42,3.5,104.34,0,104.34,0l.52,4.52a10.9,10.9,0,0,1,1.34,1.73c-.24,7.54-8.66,13.66-8.66,13.66L105,150.17c15.28-2.09,22.43-9.31,22.43-9.31l-.49-9.27c9.71-8.77,2.63-22.34,2.63-22.34,1.13-2.08,1.35-5.44,1.18-8.9a42.37,42.37,0,0,0,8.37,15.52c-2.63,12.74,8.73,28.46,8.73,28.46-1.32,7.94,7.08,15.85,7.08,15.85l.14,10.07c4.76,4.57,14.5,1,14.5,1l1.82-11.05c5.27-8.8.13-17.13.13-17.13C181.86,126.08,169.57,113.39,169.57,113.39Zm-7.95,45.94.15-.24Zm-.44.72h0Zm.07-.12.13-.21Zm2.58-4.22-.54.88Zm-1.05,1.71-.4.66Zm-.69,1.15-.06.08Zm4.93-8.11,3.29-5.41Zm-1.91,3.14,1.32-2.16Z"/><path class="cls-7" d="M50.12,56.68S60.7,66.73,74,62.43C74,62.43,58.05,69.79,50.12,56.68Z"/><path class="cls-7" d="M49.8,82.31s10.58,10.06,23.88,5.75C73.68,88.06,57.74,95.43,49.8,82.31Z"/><path class="cls-7" d="M49.53,108.44s10.58,10,23.88,5.75C73.41,114.19,57.47,121.55,49.53,108.44Z"/><path class="cls-7" d="M50,128.7s10.58,10.05,23.88,5.75C73.91,134.45,58,141.81,50,128.7Z"/><path class="cls-7" d="M128.62,56.68S118,66.73,104.74,62.43C104.74,62.43,120.69,69.79,128.62,56.68Z"/><path class="cls-7" d="M128.94,82.31s-10.58,10.06-23.88,5.75C105.06,88.06,121,95.43,128.94,82.31Z"/><path class="cls-7" d="M129.21,108.44s-10.58,10-23.88,5.75C105.33,114.19,121.27,121.55,129.21,108.44Z"/><path class="cls-7" d="M128.71,128.7s-10.58,10.05-23.88,5.75C104.83,134.45,120.77,141.81,128.71,128.7Z"/><path class="cls-7" d="M64.87,17.78A17.44,17.44,0,0,0,74,26.36S64.18,26.4,64.87,17.78Z"/><path class="cls-7" d="M101.17,26.36s8.63-1.64,9.89-6.45C111.06,19.91,113.07,26.36,101.17,26.36Z"/><path class="cls-7" d="M30,32.32S24.17,49.86,42.4,53.16C42.4,53.16,28.35,47.21,30,32.32Z"/><path class="cls-7" d="M19.78,66.76S14,84.3,32.18,87.61C32.18,87.61,18.13,81.66,19.78,66.76Z"/><path class="cls-7" d="M11.23,98s-5.83,17.54,12.4,20.85C23.63,118.86,9.58,112.9,11.23,98Z"/><path class="cls-7" d="M6.83,122.18S1,139.72,19.23,143C19.23,143,5.19,137.07,6.83,122.18Z"/><path class="cls-7" d="M149.82,32.28s5.83,17.54-12.4,20.85C137.42,53.13,151.46,47.18,149.82,32.28Z"/><path class="cls-7" d="M160,66.73s5.83,17.54-12.4,20.85C147.64,87.58,161.69,81.62,160,66.73Z"/><path class="cls-7" d="M168.59,98s5.82,17.54-12.4,20.85C156.19,118.83,170.23,112.87,168.59,98Z"/><path class="cls-7" d="M173,122.15s5.82,17.54-12.4,20.85C160.59,143,174.63,137,173,122.15Z"/><polygon class="cls-8" points="81.46 19.91 72.39 149.93 74 150.18 82.69 22.07 81.46 19.91"/><path class="cls-9" d="M85.38,23.14s5.18,3.39,10.14,0A13.94,13.94,0,0,1,85.38,23.14Z"/><path class="cls-10" d="M42.4,28.93s-1.81,22.33,28.75,26.3c0,0-5.43-15.57,2.85-21.34C74,33.89,46.56,22.22,42.4,28.93Z"/><path class="cls-10" d="M135.68,28.44s1.8,22.33-28.75,26.3c0,0,5.43-15.57-2.85-21.34C104.08,33.4,131.51,21.74,135.68,28.44Z"/></g><g id="SnowShoes"><path class="cls-11" d="M57.28,349.49s1.24,7.94,1,12.16.67,8.77,1.24,12.41c0,0-8.9,15.88-7.41,17.37s5.15,7.2,12.95,7.45,17.67-4.47,18.41-6.7-3.19-17.13-4.69-19.11,1.16-8.19,1-10.18a71.85,71.85,0,0,1,.53-13.4Z"/><path class="cls-12" d="M57.74,377.31s-19.72,20,6.46,22.81,20-13.77,20-13.77L79.72,375.8s4.85,12.78,2.38,16.63-15.68,4-17.9,4S53,392.65,52.71,390.69s5-13.38,5-13.38"/><path class="cls-13" d="M60.27,377.31s8.46-9.08,17.18,0C77.45,377.31,69.92,364.08,60.27,377.31Z"/><path class="cls-13" d="M50.62,389.86v4.55l2.71,4.48.5-1.17,1,.58v1.32L60,401v-1.16l2.72.58v1.08l6.34.33V401l3.29-.08v.91l4.2-.75v-.66l3.17-.83v1.24l3.41-2.81v-1.24l.83-.95v1.2l.88-5.63S68.24,409.63,50.62,389.86Z"/><path class="cls-14" d="M65.05,371s.88-11.42-1.72-21.1h0s5.31-4,12.85,0h0S73.09,365,73.83,371C73.83,371,67.62,369.22,65.05,371Z"/><polygon class="cls-15" points="63.76 351.58 68.86 354.79 76.46 350.98 76.46 352.39 69.3 356.11 75.91 358.26 75.64 359.91 68.86 357.1 63.38 359.33 62.88 357.85 68.15 355.94 63.38 352.47 63.76 351.58"/><polygon class="cls-15" points="63.76 359.36 68.86 362.56 76.46 358.76 76.46 360.16 69.3 363.88 75.91 366.04 75.64 367.68 68.86 364.88 63.38 367.11 62.88 365.62 68.15 363.72 63.38 360.25 63.76 359.36"/><polygon class="cls-15" points="62.95 366.56 68.05 369.76 75.65 365.95 75.65 367.36 68.49 371.08 75.1 373.23 74.83 374.88 68.05 372.07 62.56 374.31 62.07 372.82 67.34 370.92 62.56 367.44 62.95 366.56"/><polygon class="cls-15" points="62.95 374.91 68.05 378.11 75.65 374.31 75.65 375.71 68.49 379.44 75.1 381.59 74.83 383.24 68.05 380.43 62.56 382.66 62.07 381.18 67.34 379.27 62.56 375.8 62.95 374.91"/><path class="cls-13" d="M57.28,386.22s.93,6.45,11.58,6C68.86,392.18,58.93,390.41,57.28,386.22Z"/><path class="cls-11" d="M123.62,348.48s-1.24,7.94-1,12.16-.67,8.77-1.24,12.41c0,0,8.89,15.88,7.41,17.37s-5.15,7.2-13,7.45-17.67-4.47-18.41-6.7,3.19-17.13,4.69-19.11-1.16-8.19-.95-10.18a71.15,71.15,0,0,0-.54-13.4Z"/><path class="cls-12" d="M123.15,376.3s19.73,19.95-6.45,22.81-20-13.78-20-13.78l4.49-10.54s-4.86,12.78-2.39,16.63,15.69,4,17.91,4,11.18-3.75,11.48-5.71-5-13.38-5-13.38"/><path class="cls-13" d="M120.63,376.3s-8.46-9.08-17.18,0C103.45,376.3,111,363.07,120.63,376.3Z"/><path class="cls-13" d="M130.28,388.85v4.55l-2.71,4.48-.5-1.17-1,.58v1.32L120.9,400v-1.16l-2.72.58v1.08l-6.34.33V400l-3.29-.08v.91l-4.2-.75v-.66l-3.17-.83v1.24L97.76,397V395.8l-.82-.95v1.2l-.88-5.63S112.66,408.62,130.28,388.85Z"/><path class="cls-14" d="M115.85,370s-.88-11.42,1.71-21.1h0s-5.31-4-12.84,0h0s3.09,15.14,2.35,21.1C107.07,370,113.27,368.21,115.85,370Z"/><polygon class="cls-15" points="117.14 350.57 112.03 353.77 104.43 349.97 104.43 351.38 111.59 355.1 104.99 357.25 105.26 358.9 112.03 356.09 117.52 358.32 118.02 356.83 112.75 354.93 117.52 351.46 117.14 350.57"/><polygon class="cls-15" points="117.14 358.35 112.03 361.55 104.43 357.75 104.43 359.15 111.59 362.87 104.99 365.02 105.26 366.67 112.03 363.87 117.52 366.1 118.02 364.61 112.75 362.71 117.52 359.23 117.14 358.35"/><polygon class="cls-15" points="117.95 365.55 112.85 368.75 105.24 364.94 105.24 366.35 112.41 370.07 105.8 372.22 106.07 373.87 112.85 371.06 118.33 373.3 118.83 371.81 113.56 369.91 118.33 366.43 117.95 365.55"/><polygon class="cls-15" points="117.95 373.9 112.85 377.1 105.24 373.3 105.24 374.7 112.41 378.43 105.8 380.58 106.07 382.23 112.85 379.42 118.33 381.65 118.83 380.16 113.56 378.26 118.33 374.79 117.95 373.9"/><path class="cls-13" d="M123.61,385.21s-.93,6.45-11.57,6C112,391.17,122,389.4,123.61,385.21Z"/></g></g></g></g></svg>