<svg xmlns="http://www.w3.org/2000/svg" viewBox="0 0 183 415.23"><defs><style>.cls-1{fill:none;}.cls-2{fill:#473319;}.cls-3{fill:#684b1e;}.cls-4{fill:#232323;}.cls-5{fill:#2b2b2b;}.cls-6{fill:#020202;}.cls-7{fill:#878589;}.cls-8{fill:#dbdcdd;}.cls-9{fill:#969696;}.cls-10{fill:#666565;}.cls-11{fill:#543d3a;}.cls-12{fill:#42302d;}.cls-13{fill:#829ca8;}.cls-14{fill:#7c1a1a;}.cls-15{fill:#701616;}.cls-16{fill:#161616;}</style></defs><title>snfb</title><g id="Layer_2" data-name="Layer 2"><g id="snfb"><g id="snfb-2" data-name="snfb"><rect class="cls-1" y="0.23" width="183" height="415"/><g id="dressshoes"><g id="sbbshoes"><path class="cls-2" d="M53.76,378.92S46.28,396,63.32,397.46c0,0,15.31,0,18.27-7.2,1.48-3.59-4-14.64-4-14.64s3.8,11.3,3,12.51-7.66,7.34-16.3,6.1-12.2-2.82-10.54-15.31"/><path class="cls-3" d="M58.65,365.19s-5.61,11.69-6.28,22c0,0,.57,7.31,11,8.05s17.77-5,17.77-7.09-5.36-22.94-5.36-22.94l-4.51,3c-.5-2.23-9.39-2.73-9.63,0Z"/><path class="cls-2" d="M54.34,388.77s2.72-1.66,3.95-1.74v.22A12.36,12.36,0,0,0,54.34,389Z"/><path class="cls-2" d="M60.23,386.47s3.05-.89,4.27-.65l-.06.21a12.49,12.49,0,0,0-4.26.65Z"/><path class="cls-2" d="M65.79,385.44s3.1-.7,4.3-.39l-.07.21a12.4,12.4,0,0,0-4.3.38Z"/><path class="cls-2" d="M72.1,384.87s3.16-.32,4.32.13l-.1.2a12.3,12.3,0,0,0-4.31-.13Z"/><path class="cls-2" d="M77.81,385.24s3,1.05,3.85,2l-.17.14a12.33,12.33,0,0,0-3.84-2Z"/><path class="cls-2" d="M61.59,368.17l1.73,14.73S61,369.12,61.59,368.17Z"/><path class="cls-2" d="M71.05,383s.73-13.81.31-14.83L71.05,383"/><polyline class="cls-2" points="61.72 369.32 66.1 371.48 71.45 368.75 71.48 369.58 66.1 372.22 71.27 373.22 71.27 373.96 66.1 372.8 62.11 374.95 62.04 374.39 65.72 372.22 61.5 369.74 61.72 369.32"/><polyline class="cls-2" points="61.97 374.61 66.34 376.77 71.69 374.04 71.73 374.87 66.34 377.51 71.52 378.51 71.52 379.25 66.34 378.09 62.35 380.24 62.28 379.69 65.97 377.51 61.74 375.03 61.97 374.61"/><polyline class="cls-2" points="61.97 379.57 66.34 381.73 71.69 379 71.73 379.83 66.34 382.47 71.52 383.47 71.52 384.21 66.34 383.05 62.35 385.2 62.28 384.64 65.97 382.47 61.74 379.99 61.97 379.57"/></g><g id="sbbshoes-2" data-name="sbbshoes"><path class="cls-2" d="M124.93,377.84s7.48,17-9.56,18.53c0,0-15.31,0-18.28-7.2-1.47-3.59,4-14.64,4-14.64s-3.79,11.31-3,12.51,7.66,7.35,16.3,6.1,12.2-2.81,10.55-15.3"/><path class="cls-3" d="M120,364.11s5.61,11.69,6.28,22c0,0-.57,7.3-10.94,8.05s-17.78-5-17.78-7.1S103,364.11,103,364.11l4.51,3c.49-2.24,9.38-2.73,9.63,0Z"/><path class="cls-2" d="M124.34,387.69s-2.71-1.66-4-1.74v.22a12.49,12.49,0,0,1,4,1.73Z"/><path class="cls-2" d="M118.45,385.39s-3-.89-4.26-.65l0,.21a12.27,12.27,0,0,1,4.27.65Z"/><path class="cls-2" d="M112.89,384.35s-3.1-.7-4.29-.38l.07.21a12.34,12.34,0,0,1,4.29.38Z"/><path class="cls-2" d="M106.58,383.79s-3.16-.33-4.31.13l.09.2a12.46,12.46,0,0,1,4.31-.14Z"/><path class="cls-2" d="M100.87,384.15s-3,1.06-3.84,2l.16.14a12.53,12.53,0,0,1,3.85-2Z"/><path class="cls-2" d="M117.1,367.09l-1.73,14.72S117.66,368,117.1,367.09Z"/><path class="cls-2" d="M107.64,381.94s-.74-13.8-.32-14.82l.32,14.82"/><polyline class="cls-2" points="116.96 368.24 112.59 370.39 107.24 367.67 107.2 368.49 112.59 371.14 107.41 372.13 107.41 372.88 112.59 371.72 116.57 373.87 116.65 373.31 112.96 371.14 117.19 368.66 116.96 368.24"/><polyline class="cls-2" points="116.72 373.53 112.34 375.69 106.99 372.96 106.96 373.78 112.34 376.43 107.17 377.42 107.17 378.17 112.34 377.01 116.33 379.16 116.4 378.6 112.72 376.43 116.94 373.95 116.72 373.53"/><polyline class="cls-2" points="116.72 378.49 112.34 380.65 106.99 377.92 106.96 378.74 112.34 381.39 107.17 382.38 107.17 383.13 112.34 381.97 116.33 384.12 116.4 383.56 112.72 381.39 116.94 378.91 116.72 378.49"/></g></g><g id="snfbpants"><g id="sbbpants"><path class="cls-4" d="M51.82,129.94s28.46,22.63,73.31,0a214.24,214.24,0,0,1,8.26,75.73c-3.21,41.2-6.92,51.63-6.92,54.6s3.46,42.94,3.46,45.92S124.25,360,124.25,360s-6.34,5.21-11.81,5.71S98.07,361,98.07,361s-7.35-59.82-6.27-69.25,3.06-28,2.56-35.49-3.62-68.74-3.62-68.74l-3.79-.5s-2.22,59.07-4.69,68.5-.74,31.52,1,38.71-4.45,66.52-4.45,66.52-10.37,5-13.58,5-12.1-7.69-12.1-7.69-5.93-64-4.94-66.76,3-30.28,3-34.75-8.39-26.31-8.89-55.1S47.05,134.67,51.82,129.94Z"/><path class="cls-5" d="M113.22,201.7s3.3,69.49,2.31,73.13-3.38,90.42-3.38,90.42l-2-.33s2.82-87.11,2.78-90.42S113.22,201.7,113.22,201.7Z"/><path class="cls-5" d="M62,200.21s-3.3,69.49-2.31,73.13S63,363.77,63,363.77l2-.34S62.22,276.32,62.26,273,62,200.21,62,200.21Z"/><path class="cls-6" d="M50.09,133s-2.67,4.12-2.19,7.51c0,0,23.66,8.1,39.28,8.18,16.24.09,40.83-8.16,40.83-8.16s.16-6.84-1.95-7.53C126.06,133,97.4,152,50.09,133Z"/><rect class="cls-7" x="81.94" y="141.05" width="12.04" height="8.64" rx="2.9" ry="2.9"/><rect class="cls-6" x="84.56" y="143.11" width="6.81" height="4.61" rx="1.59" ry="1.59"/></g><rect class="cls-5" x="72.3" y="139.73" width="2.43" height="8.97" rx="1.22" ry="1.22"/><rect class="cls-5" x="100.82" y="139.73" width="2.43" height="8.97" rx="1.22" ry="1.22"/><rect class="cls-5" x="119.63" y="134.57" width="2.43" height="8.97" rx="1.22" ry="1.22"/><rect class="cls-5" x="51.57" y="133.28" width="2.43" height="8.97" rx="1.22" ry="1.22"/><path class="cls-5" d="M107,156.86s6.67,11.75,22.6,9.27C129.56,166.13,113.87,171.58,107,156.86Z"/><path class="cls-5" d="M70.72,157.67s-6.37,11.75-21.58,9.27C49.14,166.94,64.11,172.39,70.72,157.67Z"/><path class="cls-5" d="M85.55,159.61s-3.23,24.47,2.91,24.22C88.46,183.83,83.55,182.56,85.55,159.61Z"/></g><g id="snfbshirt"><g id="shirt"><path class="cls-8" d="M69.8,5.82s-35,12.75-38.31,16.56S24.24,41.9,25.06,51.83c0,0-16.13,55-15.47,69.6l-.9,30.67-1.57-1.16,1.7,14.37s10.05,1.71,14-2.11l2.6-10.94-1.15-.16s14-26.92,14.16-30.67,9.72-47.92,9.72-47.92,3,17.86,2.8,21.84,1.81,32.76,1.81,32.76l-3.4,2.29s27.82,19.76,76.08,4.64l-1.72-7.43s1-26.8.17-34.42l6.25-16.38s8.07,48.81,14.82,62.05l8.23,12.57h-1.48l3.73,7.47s8.14,2.81,12.83-.84l1.41-9.6h-1s-1-38.55-2.63-43.52S155.8,57.62,152.83,52.66c0,0,2.31-26.14-10.37-33.42,0,0-28.67-8-35.74-12.54,0,0-3.38,4.7-17.71,6.36S69.8,5.82,69.8,5.82Z"/><g id="sbbshirt2"><path class="cls-9" d="M85.88,14.49l2.39,126.29s2.34-.11,2.9-.11L92,14.31Z"/><path class="cls-8" d="M89.41,15.17s-.93-1-.93,2V140.72h.72S89.08,17.12,89.41,15.17Z"/><ellipse class="cls-10" cx="88.48" cy="36.54" rx="1.59" ry="1.6"/><path class="cls-11" d="M88.91,35.31s-1.45-.14-1.67.87a1.4,1.4,0,0,0,1.24,1.7S86,36.18,88.91,35.31Z"/><circle class="cls-11" cx="88.48" cy="36.64" r="0.37"/><ellipse class="cls-10" cx="88.79" cy="24.8" rx="1.59" ry="1.6"/><path class="cls-11" d="M89.22,23.57s-1.45-.13-1.67.87a1.41,1.41,0,0,0,1.24,1.71S86.32,24.44,89.22,23.57Z"/><circle class="cls-11" cx="88.79" cy="24.91" r="0.37"/><ellipse class="cls-10" cx="88.64" cy="49.88" rx="1.59" ry="1.6"/><path class="cls-11" d="M89.07,48.65s-1.44-.14-1.66.87a1.39,1.39,0,0,0,1.23,1.7S86.17,49.52,89.07,48.65Z"/><circle class="cls-11" cx="88.64" cy="49.98" r="0.37"/><ellipse class="cls-10" cx="88.93" cy="65.59" rx="1.59" ry="1.6"/><path class="cls-11" d="M89.36,64.36s-1.45-.14-1.67.87a1.41,1.41,0,0,0,1.24,1.7S86.46,65.23,89.36,64.36Z"/><circle class="cls-11" cx="88.93" cy="65.69" r="0.37"/><ellipse class="cls-10" cx="89.1" cy="78.93" rx="1.59" ry="1.6"/><path class="cls-11" d="M89.53,77.7s-1.45-.14-1.67.87a1.41,1.41,0,0,0,1.24,1.7S86.62,78.57,89.53,77.7Z"/><circle class="cls-11" cx="89.1" cy="79.03" r="0.37"/><ellipse class="cls-10" cx="89.05" cy="92.27" rx="1.59" ry="1.6"/><path class="cls-11" d="M89.48,91s-1.44-.14-1.66.87a1.4,1.4,0,0,0,1.23,1.7S86.58,91.91,89.48,91Z"/><circle class="cls-11" cx="89.05" cy="92.37" r="0.37"/><ellipse class="cls-10" cx="89.22" cy="105.61" rx="1.59" ry="1.6"/><path class="cls-11" d="M89.65,104.38s-1.45-.14-1.67.87a1.41,1.41,0,0,0,1.24,1.7S86.75,105.25,89.65,104.38Z"/><circle class="cls-11" cx="89.22" cy="105.71" r="0.37"/><ellipse class="cls-10" cx="89.4" cy="116.25" rx="1.59" ry="1.6"/><path class="cls-11" d="M89.83,115s-1.45-.13-1.67.87a1.41,1.41,0,0,0,1.24,1.71S86.93,115.89,89.83,115Z"/><circle class="cls-11" cx="89.4" cy="116.35" r="0.37"/><ellipse class="cls-10" cx="89.57" cy="129.59" rx="1.59" ry="1.6"/><path class="cls-11" d="M90,128.36s-1.45-.13-1.67.87a1.41,1.41,0,0,0,1.24,1.71S87.09,129.23,90,128.36Z"/><circle class="cls-11" cx="89.57" cy="129.69" r="0.37"/><ellipse class="cls-12" cx="22.39" cy="154.1" rx="1.09" ry="1.1"/><ellipse class="cls-12" cx="155.71" cy="153.89" rx="1.09" ry="1.1"/><path class="cls-13" d="M92.37,120.35s-1.66,22.26,4.69,19.29C97.06,139.64,92.87,144.58,92.37,120.35Z"/></g></g><path class="cls-8" d="M73,.81S69,9.83,60.89,12.19c0,0,13.9,9.31,19.08,11.38l6.7-13.3A94.71,94.71,0,0,0,73,.81Z"/><path class="cls-9" d="M84.21,9.41S77,16.6,77.73,23.57l.84-.7S80,12.43,84.21,9.41Z"/><path class="cls-8" d="M105.09,1.18s3.18,9.93,7.82,11.91c0,0-11.21,9.55-16.4,11.62L91.35,10.92A42.6,42.6,0,0,1,105.09,1.18Z"/><path class="cls-9" d="M92.27,10.56s7.23,7.19,6.49,14.15L97.91,24S96.53,13.57,92.27,10.56Z"/><path class="cls-14" d="M83.74,9.58a12.42,12.42,0,0,1,11.07.08s-1.62,3.2-1.58,5-7.68.9-7.68.9-.81-5.26-1.82-5.87A.07.07,0,0,1,83.74,9.58Z"/><path class="cls-14" d="M86,15.59,80.63,121.22s-.42,2.79.32,3.91,7.59,12.84,8.94,13S98,125.19,98,125.19a9.33,9.33,0,0,0,0-4.06L92.4,15.49Z"/><path class="cls-15" d="M93.57,9.67S88.7,8,85.34,9.67A7.09,7.09,0,0,1,86,14.14s1.21-2.55,1-3.65C87,10.49,86.9,9.19,93.57,9.67Z"/><path class="cls-15" d="M86.51,15.72,82,118.34l7.5,15.41s-5.59-14.27-5.62-16.13S83.81,115.73,86.51,15.72Z"/><path class="cls-16" d="M52.53,11.31s-18.86,4.8-23.06,11.75-15.56,70-15.56,70S6,100.15,6.5,158.89c0,0,15.38,4.05,23,0,0,0,12.71-44.59,14.44-58l3.18-19.8s3.09,37.3,1.85,42.51-14.32,43.18-7.16,114.16c0,0,20.72,9.68,31.11,11.92L81.42,90.21l-9.83-78.9Z"/><path class="cls-4" d="M74.39.17S54.1,8.5,52.53,11.31,71.2,35.45,71.2,35.45s-6.93-.76-7.78.37,18.08,48.34,18,54.39C81.42,90.21,87.7,42.8,74.39.17Z"/><path class="cls-4" d="M31.18,21.73S44.52,28.7,44,51.28"/><path class="cls-16" d="M126.42,11.14s18.86,4.8,23.06,11.75,15.56,70,15.56,70,8,.48,7.46,59.22c0,0-15.38,4.05-23,0,0,0-12.76-38-14.49-51.41l-3.18-19.8s-3.09,37.3-1.85,42.51,13.83,43.19,6.67,114.17c0,0-20.23,9.68-30.62,11.91L97.53,90.05l9.84-78.91Z"/><path class="cls-4" d="M104.56,0s20.29,8.33,21.86,11.14-18.67,24.14-18.67,24.14,6.93-.76,7.78.38S97.45,84,97.53,90.05C97.53,90.05,91.25,42.63,104.56,0Z"/><path class="cls-4" d="M147.77,21.57s-13.33,7-12.77,29.54"/><path class="cls-16" d="M84,241.59h9.56l-2.8-54-3.79-.5S84.57,233.68,84,241.59Z"/></g></g></g></g></svg>