<svg xmlns="http://www.w3.org/2000/svg" viewBox="0 0 336.14 800.74"><defs><style>.cls-1{fill:#473319;}.cls-2{fill:#684b1e;}.cls-3{fill:#232323;}.cls-4{fill:#2b2b2b;}.cls-5{fill:#020202;}.cls-6{fill:#878589;}.cls-7{fill:#dbdcdd;}.cls-8{fill:#969696;}.cls-9{fill:#666565;}.cls-10{fill:#543d3a;}.cls-11{fill:#42302d;}.cls-12{fill:#829ca8;}.cls-13{fill:#7c1a1a;}.cls-14{fill:#701616;}.cls-15{fill:#161616;}</style></defs><title>snfb</title><g id="Layer_2" data-name="Layer 2"><g id="snfb"><g id="snfb-2" data-name="snfb"><g id="dressshoes"><g id="sbbshoes"><path class="cls-1" d="M95.71,763.4s-15.15,34.34,19.35,37.34c0,0,31,0,37-14.5,3-7.24-8-29.5-8-29.5s7.69,22.78,6,25.2-15.5,14.8-33,12.29-24.7-5.67-21.35-30.83"/><path class="cls-2" d="M105.62,735.73S94.26,759.29,92.91,780c0,0,1.15,14.73,22.15,16.23s36-10,36-14.3-10.86-46.21-10.86-46.21l-9.13,6c-1-4.5-19-5.5-19.5,0Z"/><path class="cls-1" d="M96.89,783.24s5.5-3.34,8-3.5v.43s-5.16,1.25-8,3.5Z"/><path class="cls-1" d="M108.82,778.61s6.18-1.8,8.64-1.31l-.12.42s-5.31-.13-8.63,1.31Z"/><path class="cls-1" d="M120.07,776.52s6.28-1.41,8.7-.77l-.14.41s-5.29-.45-8.7.78Z"/><path class="cls-1" d="M132.85,775.38s6.4-.65,8.73.27l-.19.39s-5.2-1.08-8.72-.26Z"/><path class="cls-1" d="M144.41,776.12s6.07,2.13,7.79,4l-.34.28s-4.25-3.19-7.79-4Z"/><path class="cls-1" d="M111.56,741.74l3.5,29.66S110.42,743.65,111.56,741.74Z"/><path class="cls-1" d="M130.72,771.67s1.49-27.81.63-29.87l-.63,29.87"/><polyline class="cls-1" points="111.83 744.06 120.69 748.4 131.52 742.9 131.59 744.57 120.69 749.9 131.16 751.9 131.16 753.4 120.69 751.07 112.62 755.39 112.47 754.28 119.93 749.9 111.38 744.9 111.83 744.06"/><polyline class="cls-1" points="112.33 754.71 121.19 759.06 132.02 753.56 132.09 755.23 121.19 760.56 131.66 762.56 131.66 764.06 121.19 761.73 113.12 766.05 112.96 764.93 120.43 760.56 111.88 755.56 112.33 754.71"/><polyline class="cls-1" points="112.33 764.71 121.19 769.05 132.02 763.56 132.09 765.22 121.19 770.55 131.66 772.55 131.66 774.05 121.19 771.72 113.12 776.04 112.96 774.93 120.43 770.55 111.88 765.55 112.33 764.71"/></g><g id="sbbshoes-2" data-name="sbbshoes"><path class="cls-1" d="M239.79,761.22s15.15,34.33-19.35,37.33c0,0-31,0-37-14.5-3-7.23,8-29.5,8-29.5s-7.68,22.79-6,25.21,15.5,14.8,33,12.29,24.7-5.67,21.35-30.83"/><path class="cls-2" d="M229.88,733.55s11.36,23.56,12.71,44.28c0,0-1.15,14.72-22.15,16.22s-36-10-36-14.29,10.86-46.21,10.86-46.21l9.13,6c1-4.5,19-5.5,19.5,0Z"/><path class="cls-1" d="M238.61,781.05s-5.5-3.33-8-3.5V778s5.17,1.25,8,3.5Z"/><path class="cls-1" d="M226.68,776.43s-6.18-1.8-8.63-1.32l.11.43s5.31-.13,8.63,1.31Z"/><path class="cls-1" d="M215.43,774.34s-6.28-1.41-8.7-.77l.14.41s5.3-.46,8.7.77Z"/><path class="cls-1" d="M202.65,773.2s-6.4-.66-8.73.27l.19.39s5.2-1.08,8.73-.27Z"/><path class="cls-1" d="M191.09,773.94s-6.07,2.12-7.78,3.95l.33.28s4.25-3.2,7.79-3.95Z"/><path class="cls-1" d="M223.94,739.55l-3.5,29.67S225.08,741.47,223.94,739.55Z"/><path class="cls-1" d="M204.79,769.49s-1.49-27.81-.63-29.87l.63,29.87"/><polyline class="cls-1" points="223.67 741.87 214.81 746.22 203.98 740.72 203.91 742.38 214.81 747.72 204.34 749.72 204.34 751.22 214.81 748.89 222.88 753.21 223.03 752.09 215.57 747.72 224.12 742.72 223.67 741.87"/><polyline class="cls-1" points="223.17 752.53 214.31 756.88 203.49 751.38 203.41 753.04 214.31 758.38 203.84 760.38 203.84 761.88 214.31 759.54 222.39 763.87 222.54 762.75 215.07 758.38 223.63 753.38 223.17 752.53"/><polyline class="cls-1" points="223.17 762.52 214.31 766.87 203.49 761.37 203.41 763.03 214.31 768.37 203.84 770.37 203.84 771.87 214.31 769.54 222.39 773.86 222.54 772.74 215.07 768.37 223.63 763.37 223.17 762.52"/></g></g><g id="snfbpants"><g id="sbbpants"><path class="cls-3" d="M91.79,261.79s57.61,45.59,148.41,0c0,0,23.22,69.57,16.72,152.57s-14,104-14,110,7,86.5,7,92.5-11.5,108.5-11.5,108.5-12.83,10.5-23.92,11.5-29.08-9.5-29.08-9.5-14.87-120.5-12.69-139.5,6.19-56.5,5.19-71.5-7.34-138.5-7.34-138.5l-7.66-1s-4.5,119-9.5,138-1.5,63.5,2,78-9,134-9,134-21,10-27.5,10-24.5-15.5-24.5-15.5-12-129-10-134.5,6-61,6-70-17-53-18-111S82.14,271.3,91.79,261.79Z"/><path class="cls-4" d="M216.1,406.36s6.66,140,4.66,147.33-6.83,182.17-6.83,182.17l-4.06-.68S215.58,559.69,215.5,553,216.1,406.36,216.1,406.36Z"/><path class="cls-4" d="M112.33,403.36s-6.67,140-4.67,147.34,6.83,182.16,6.83,182.16l4.06-.68S112.84,556.7,112.92,550,112.33,403.36,112.33,403.36Z"/><path class="cls-5" d="M88.29,268s-5.42,8.28-4.45,15.12c0,0,47.9,16.31,79.54,16.48,32.88.18,82.66-16.43,82.66-16.43s.33-13.79-4-15.17C242.08,268,184.06,306.17,88.29,268Z"/><rect class="cls-6" x="152.76" y="284.17" width="24.37" height="17.41" rx="2.9" ry="2.9"/><rect class="cls-5" x="158.07" y="288.31" width="13.78" height="9.28" rx="1.59" ry="1.59"/></g><rect class="cls-4" x="133.24" y="281.5" width="4.93" height="18.08" rx="1.47" ry="1.47"/><rect class="cls-4" x="190.99" y="281.5" width="4.93" height="18.08" rx="1.47" ry="1.47"/><rect class="cls-4" x="229.08" y="271.11" width="4.93" height="18.08" rx="1.47" ry="1.47"/><rect class="cls-4" x="91.27" y="268.51" width="4.93" height="18.08" rx="1.47" ry="1.47"/><path class="cls-4" d="M203.42,316s13.5,23.68,45.75,18.68C249.17,334.7,217.42,345.68,203.42,316Z"/><path class="cls-4" d="M130,317.64s-12.89,23.68-43.68,18.68C86.36,336.32,116.68,347.3,130,317.64Z"/><path class="cls-4" d="M160.08,321.57s-6.55,49.29,5.89,48.79C166,370.36,156,367.79,160.08,321.57Z"/></g><g id="snfbshirt"><g id="shirt"><path class="cls-7" d="M128.18,11.72S57.29,37.42,50.62,45.09,36,84.42,37.62,104.42c0,0-32.66,110.75-31.33,140.22L4.47,306.42l-3.18-2.33L4.73,333s20.35,3.46,28.29-4.24l5.27-22L36,306.42s28.33-54.22,28.66-61.78,19.67-96.55,19.67-96.55,6,36,5.67,44,3.66,66,3.66,66l-6.88,4.63s56.33,39.8,154,9.33l-3.48-15s2-54,.33-69.33l12.67-33s16.33,98.33,30,125L297,305.09h-3l7.55,15s16.47,5.68,26-1.68l2.87-19.35h-2s-2-77.67-5.33-87.67-20.67-95.33-26.67-105.33c0,0,4.67-52.67-21-67.33,0,0-58-16.17-72.35-25.25,0,0-6.86,9.46-35.86,12.79S128.18,11.72,128.18,11.72Z"/><g id="sbbshirt2"><path class="cls-8" d="M160.74,29.19l4.84,254.44s4.73-.23,5.87-.23l1.63-254.56Z"/><path class="cls-7" d="M167.89,30.57s-1.89-1.95-1.89,4V283.5l1.46,0S167.23,34.48,167.89,30.57Z"/><circle class="cls-9" cx="166" cy="73.61" r="3.22"/><path class="cls-10" d="M166.87,71.13s-2.93-.27-3.38,1.75A2.85,2.85,0,0,0,166,76.32S161,72.88,166.87,71.13Z"/><circle class="cls-10" cx="166" cy="73.82" r="0.75"/><circle class="cls-9" cx="166.63" cy="49.97" r="3.22"/><path class="cls-10" d="M167.51,47.49s-2.93-.27-3.38,1.75a2.84,2.84,0,0,0,2.5,3.44S161.63,49.24,167.51,47.49Z"/><circle class="cls-10" cx="166.63" cy="50.18" r="0.75"/><circle class="cls-9" cx="166.33" cy="100.49" r="3.22"/><path class="cls-10" d="M167.2,98s-2.92-.27-3.37,1.75a2.84,2.84,0,0,0,2.5,3.44S161.33,99.76,167.2,98Z"/><circle class="cls-10" cx="166.33" cy="100.69" r="0.75"/><circle class="cls-9" cx="166.92" cy="132.14" r="3.22"/><path class="cls-10" d="M167.79,129.66s-2.93-.27-3.38,1.75a2.83,2.83,0,0,0,2.51,3.43S161.91,131.41,167.79,129.66Z"/><circle class="cls-10" cx="166.92" cy="132.34" r="0.75"/><circle class="cls-9" cx="167.25" cy="159.01" r="3.22"/><path class="cls-10" d="M168.12,156.53s-2.92-.27-3.37,1.75a2.83,2.83,0,0,0,2.5,3.44S162.25,158.28,168.12,156.53Z"/><circle class="cls-10" cx="167.25" cy="159.22" r="0.75"/><circle class="cls-9" cx="167.17" cy="185.89" r="3.22"/><path class="cls-10" d="M168,183.41s-2.93-.27-3.38,1.75a2.84,2.84,0,0,0,2.51,3.44S162.16,185.16,168,183.41Z"/><circle class="cls-10" cx="167.17" cy="186.1" r="0.75"/><circle class="cls-9" cx="167.5" cy="212.76" r="3.22"/><path class="cls-10" d="M168.37,210.28S165.45,210,165,212a2.84,2.84,0,0,0,2.5,3.44S162.5,212,168.37,210.28Z"/><circle class="cls-10" cx="167.5" cy="212.97" r="0.75"/><circle class="cls-9" cx="167.87" cy="234.21" r="3.22"/><path class="cls-10" d="M168.74,231.73s-2.93-.27-3.38,1.75a2.83,2.83,0,0,0,2.51,3.43S162.86,233.48,168.74,231.73Z"/><circle class="cls-10" cx="167.87" cy="234.41" r="0.75"/><circle class="cls-9" cx="168.21" cy="261.08" r="3.22"/><path class="cls-10" d="M169.08,258.6s-2.93-.27-3.38,1.75a2.84,2.84,0,0,0,2.51,3.44S163.2,260.35,169.08,258.6Z"/><circle class="cls-10" cx="168.21" cy="261.29" r="0.75"/><circle class="cls-11" cx="32.22" cy="310.45" r="2.21"/><circle class="cls-11" cx="302.12" cy="310.03" r="2.21"/><path class="cls-12" d="M173.89,242.47s-3.38,44.85,9.48,38.85C183.37,281.32,174.89,291.28,173.89,242.47Z"/></g></g><path class="cls-7" d="M134.74,1.63s-8.23,18.17-24.58,22.93c0,0,28.12,18.75,38.62,22.92L162.34,20.7S153.62,12.85,134.74,1.63Z"/><path class="cls-8" d="M157.37,19s-14.63,14.49-13.13,28.52l1.71-1.4S148.74,25,157.37,19Z"/><path class="cls-7" d="M199.62,2.38s6.45,20,15.85,24c0,0-22.7,19.25-33.2,23.41L171.81,22A86,86,0,0,1,199.62,2.38Z"/><path class="cls-8" d="M173.69,21.27s14.62,14.48,13.12,28.51l-1.71-1.39S182.31,27.34,173.69,21.27Z"/><path class="cls-13" d="M156.4,19.3c1.85-.92,11.92-5.39,22.42.15,0,0-3.28,6.45-3.2,10.13s-15.55,1.82-15.55,1.82-1.63-10.62-3.68-11.84A.15.15,0,0,1,156.4,19.3Z"/><path class="cls-13" d="M161.07,31.41l-10.95,212.8s-.87,5.63.63,7.88,15.38,25.87,18.12,26.12,16.32-26,16.32-26a18.83,18.83,0,0,0,0-8.16L173.94,31.22Z"/><path class="cls-14" d="M176.31,19.48s-9.87-3.32-16.67,0a14.22,14.22,0,0,1,1.37,9s2.45-5.14,2-7.35C163,21.13,162.81,18.51,176.31,19.48Z"/><path class="cls-14" d="M162,31.67l-9.22,206.74,15.18,31s-11.31-28.75-11.37-32.5C156.55,233,156.56,233.16,162,31.67Z"/><path class="cls-15" d="M93.22,22.79S55,32.45,46.54,46.45s-31.5,141-31.5,141S-1,201.77,0,320.11c0,0,31.14,8.16,46.57,0,0,0,25.74-89.83,29.25-116.91l6.44-39.9S88.54,238.45,86,249s-29,87-14.5,230c0,0,42,19.5,63,24l17.19-321.2-19.9-159Z"/><path class="cls-3" d="M137.49.34S96.4,17.12,93.22,22.79,131,71.42,131,71.42s-14-1.53-15.75.75,36.61,97.38,36.44,109.58C151.71,181.75,164.43,86.22,137.49.34Z"/><path class="cls-3" d="M50,43.78s27,14,25.85,59.53"/><path class="cls-15" d="M242.82,22.45S281,32.11,289.5,46.11s31.5,141,31.5,141,16.1,1,15.1,119.31c0,0-31.14,8.15-46.57,0,0,0-25.84-76.48-29.34-103.56L253.74,163s-6.24,75.15-3.74,85.65,28,87,13.5,230c0,0-40.95,19.5-62,24l-17.19-321.2,19.91-159Z"/><path class="cls-3" d="M198.56,0s41.08,16.78,44.26,22.45S205,71.08,205,71.08s14-1.53,15.76.75-36.62,97.38-36.45,109.58C184.33,181.41,171.62,85.89,198.56,0Z"/><path class="cls-3" d="M286,43.45s-27,14-25.85,59.52"/><path class="cls-15" d="M156.89,486.73h19.37l-5.68-108.87-7.66-1S158.09,470.79,156.89,486.73Z"/></g></g></g></g></svg>