<svg xmlns="http://www.w3.org/2000/svg" viewBox="0 0 336.79 801.94"><defs><style>.cls-1{fill:#473319;}.cls-2{fill:#684b1e;}.cls-3{fill:#562727;}.cls-4{fill:#492020;}.cls-5{fill:#020202;}.cls-6{fill:#878589;}.cls-7{fill:#f9efc7;}.cls-8{fill:#969696;}.cls-9{fill:#dbdcdd;}.cls-10{fill:#666565;}.cls-11{fill:#543d3a;}.cls-12{fill:#42302d;}.cls-13{fill:#829ca8;}.cls-14{fill:#1e222d;}.cls-15{fill:#2a303d;}.cls-16{fill:#602c2c;}.cls-17{fill:#633030;}</style></defs><title>snfb2</title><g id="Layer_2" data-name="Layer 2"><g id="snfb2"><g id="snfb2-2" data-name="snfb2"><g id="dressshoes"><g id="sbbshoes"><path class="cls-1" d="M94,764.6s-15.14,34.34,19.35,37.34c0,0,31,0,37-14.5,3-7.23-8-29.5-8-29.5s7.69,22.78,6,25.21-15.51,14.8-33,12.29S90.67,789.77,94,764.6"/><path class="cls-2" d="M103.94,736.94S92.57,760.5,91.22,781.22c0,0,1.16,14.72,22.15,16.22s36-10.05,36-14.29-10.87-46.21-10.87-46.21l-9.13,6c-1-4.5-19-5.5-19.5,0Z"/><path class="cls-1" d="M95.2,784.44s5.5-3.33,8-3.5v.44s-5.16,1.25-8,3.5Z"/><path class="cls-1" d="M107.14,779.81s6.17-1.8,8.63-1.31l-.12.42s-5.31-.13-8.63,1.32Z"/><path class="cls-1" d="M118.38,777.73s6.28-1.41,8.7-.78l-.14.42s-5.29-.46-8.69.77Z"/><path class="cls-1" d="M131.17,776.59s6.39-.66,8.72.26l-.18.4s-5.21-1.09-8.73-.27Z"/><path class="cls-1" d="M142.72,777.33s6.07,2.12,7.79,3.94l-.34.28s-4.25-3.19-7.79-3.95Z"/><path class="cls-1" d="M109.87,742.94l3.5,29.67S108.74,744.86,109.87,742.94Z"/><path class="cls-1" d="M129,772.87s1.49-27.81.63-29.86L129,772.87"/><polyline class="cls-1" points="110.14 745.26 119.01 749.61 129.83 744.11 129.91 745.77 119.01 751.11 129.48 753.11 129.48 754.61 119.01 752.27 110.93 756.6 110.78 755.48 118.25 751.11 109.69 746.11 110.14 745.26"/><polyline class="cls-1" points="110.64 755.92 119.5 760.26 130.33 754.77 130.4 756.43 119.5 761.76 129.97 763.76 129.97 765.26 119.5 762.93 111.43 767.25 111.28 766.14 118.74 761.76 110.19 756.76 110.64 755.92"/><polyline class="cls-1" points="110.64 765.91 119.5 770.26 130.33 764.76 130.4 766.42 119.5 771.76 129.97 773.76 129.97 775.26 119.5 772.92 111.43 777.25 111.28 776.13 118.74 771.76 110.19 766.76 110.64 765.91"/></g><g id="sbbshoes-2" data-name="sbbshoes"><path class="cls-1" d="M238.11,762.42s15.14,34.34-19.36,37.34c0,0-31,0-37-14.5-3-7.24,8-29.5,8-29.5s-7.69,22.78-6,25.2,15.5,14.8,33,12.29,24.7-5.67,21.36-30.83"/><path class="cls-2" d="M228.19,734.75S239.55,758.31,240.9,779c0,0-1.15,14.73-22.15,16.23s-36-10-36-14.3,10.86-46.21,10.86-46.21l9.14,6c1-4.5,19-5.5,19.5,0Z"/><path class="cls-1" d="M236.92,782.26s-5.5-3.34-8-3.5v.43s5.17,1.25,8,3.5Z"/><path class="cls-1" d="M225,777.63s-6.17-1.8-8.63-1.31l.11.42s5.32-.13,8.63,1.31Z"/><path class="cls-1" d="M213.74,775.54s-6.27-1.41-8.7-.77l.14.41s5.3-.45,8.7.78Z"/><path class="cls-1" d="M201,774.4s-6.4-.65-8.73.27l.19.39s5.2-1.08,8.73-.26Z"/><path class="cls-1" d="M189.41,775.14s-6.07,2.13-7.79,4l.33.28s4.26-3.19,7.79-4Z"/><path class="cls-1" d="M222.26,740.76l-3.51,29.66S223.39,742.67,222.26,740.76Z"/><path class="cls-1" d="M203.1,770.69s-1.49-27.81-.63-29.87l.63,29.87"/><polyline class="cls-1" points="221.98 743.08 213.12 747.42 202.29 741.92 202.22 743.59 213.12 748.92 202.65 750.92 202.65 752.42 213.12 750.09 221.19 754.41 221.34 753.3 213.88 748.92 222.43 743.92 221.98 743.08"/><polyline class="cls-1" points="221.49 753.73 212.63 758.08 201.8 752.58 201.72 754.25 212.63 759.58 202.15 761.58 202.15 763.08 212.63 760.75 220.7 765.07 220.85 763.95 213.39 759.58 221.94 754.58 221.49 753.73"/><polyline class="cls-1" points="221.49 763.73 212.63 768.07 201.8 762.58 201.72 764.24 212.63 769.57 202.15 771.57 202.15 773.07 212.63 770.74 220.7 775.06 220.85 773.95 213.39 769.57 221.94 764.57 221.49 763.73"/></g></g><g id="snfbpants2"><g id="sbbpants"><path class="cls-3" d="M91.1,262.06s57.62,45.59,148.41,0c0,0,23.22,69.57,16.72,152.57s-14,104-14,110,7,86.5,7,92.5-11.5,108.5-11.5,108.5-12.83,10.5-23.91,11.5-29.09-9.5-29.09-9.5-14.87-120.5-12.68-139.5,6.18-56.5,5.18-71.5-7.34-138.5-7.34-138.5l-7.66-1s-4.5,119-9.5,138-1.5,63.5,2,78-9,134-9,134-21,10-27.5,10-24.5-15.5-24.5-15.5-12-129-10-134.5,6-61,6-70-17-53-18-111S81.45,271.58,91.1,262.06Z"/><path class="cls-4" d="M215.41,406.63s6.67,140,4.67,147.34-6.84,182.16-6.84,182.16l-4.06-.68S214.89,560,214.82,553.3,215.41,406.63,215.41,406.63Z"/><path class="cls-4" d="M111.64,403.63S105,543.63,107,551s6.84,182.16,6.84,182.16l4-.67S112.16,557,112.23,550.3,111.64,403.63,111.64,403.63Z"/><path class="cls-5" d="M87.6,268.25s-5.41,8.28-4.44,15.12c0,0,47.9,16.31,79.53,16.48,32.88.18,82.66-16.43,82.66-16.43s.33-13.79-4-15.17C241.39,268.25,183.38,306.45,87.6,268.25Z"/><rect class="cls-6" x="152.07" y="284.45" width="24.37" height="17.41" rx="2.9" ry="2.9"/><rect class="cls-5" x="157.38" y="288.59" width="13.78" height="9.28" rx="1.59" ry="1.59"/></g><rect class="cls-3" x="132.56" y="281.78" width="4.93" height="18.08" rx="1.47" ry="1.47"/><rect class="cls-3" x="190.31" y="281.78" width="4.93" height="18.08" rx="1.47" ry="1.47"/><rect class="cls-3" x="228.39" y="271.39" width="4.93" height="18.08" rx="1.47" ry="1.47"/><rect class="cls-3" x="90.59" y="268.78" width="4.93" height="18.08" rx="1.47" ry="1.47"/><path class="cls-4" d="M202.73,316.29S216.23,340,248.48,335C248.48,335,216.73,346,202.73,316.29Z"/><path class="cls-4" d="M129.35,317.91s-12.88,23.68-43.67,18.68C85.68,336.59,116,347.57,129.35,317.91Z"/><path class="cls-4" d="M159.4,321.84s-6.56,49.29,5.89,48.79C165.29,370.63,155.34,368.06,159.4,321.84Z"/></g><g id="snfbshirt2"><g id="shirt"><path class="cls-7" d="M128.18,11.72S57.29,37.42,50.62,45.09,36,84.42,37.62,104.42c0,0-32.66,110.75-31.33,140.22L4.47,306.42l-3.18-2.33L4.73,333s20.35,3.46,28.29-4.24l5.27-22L36,306.42s28.33-54.22,28.66-61.78,19.67-96.55,19.67-96.55,6,36,5.67,44,3.66,66,3.66,66l-6.88,4.63s56.33,39.8,154,9.33l-3.48-15s2-54,.33-69.33l12.67-33s16.33,98.33,30,125L297,305.09h-3l7.55,15s16.47,5.68,26-1.68l2.87-19.35h-2s-2-77.67-5.33-87.67-20.67-95.33-26.67-105.33c0,0,4.67-52.67-21-67.33,0,0-58-16.17-72.35-25.25,0,0-6.86,9.46-35.86,12.79S128.18,11.72,128.18,11.72Z"/><g id="sbbshirt2"><path class="cls-8" d="M160.74,29.19l4.84,254.44s4.73-.23,5.87-.23l1.63-254.56Z"/><path class="cls-9" d="M167.89,30.57s-1.89-1.95-1.89,4V283.5l1.46,0S167.23,34.48,167.89,30.57Z"/><circle class="cls-10" cx="166" cy="73.61" r="3.22"/><path class="cls-11" d="M166.87,71.13s-2.93-.27-3.38,1.75A2.85,2.85,0,0,0,166,76.32S161,72.88,166.87,71.13Z"/><circle class="cls-11" cx="166" cy="73.82" r="0.75"/><circle class="cls-10" cx="166.63" cy="49.97" r="3.22"/><path class="cls-11" d="M167.51,47.49s-2.93-.27-3.38,1.75a2.84,2.84,0,0,0,2.5,3.44S161.63,49.24,167.51,47.49Z"/><circle class="cls-11" cx="166.63" cy="50.18" r="0.75"/><circle class="cls-10" cx="166.33" cy="100.49" r="3.22"/><path class="cls-11" d="M167.2,98s-2.92-.27-3.37,1.75a2.84,2.84,0,0,0,2.5,3.44S161.33,99.76,167.2,98Z"/><circle class="cls-11" cx="166.33" cy="100.69" r="0.75"/><circle class="cls-10" cx="166.92" cy="132.14" r="3.22"/><path class="cls-11" d="M167.79,129.66s-2.93-.27-3.38,1.75a2.83,2.83,0,0,0,2.51,3.43S161.91,131.41,167.79,129.66Z"/><circle class="cls-11" cx="166.92" cy="132.34" r="0.75"/><circle class="cls-10" cx="167.25" cy="159.01" r="3.22"/><path class="cls-11" d="M168.12,156.53s-2.92-.27-3.37,1.75a2.83,2.83,0,0,0,2.5,3.44S162.25,158.28,168.12,156.53Z"/><circle class="cls-11" cx="167.25" cy="159.22" r="0.75"/><circle class="cls-10" cx="167.17" cy="185.89" r="3.22"/><path class="cls-11" d="M168,183.41s-2.93-.27-3.38,1.75a2.84,2.84,0,0,0,2.51,3.44S162.16,185.16,168,183.41Z"/><circle class="cls-11" cx="167.17" cy="186.1" r="0.75"/><circle class="cls-10" cx="167.5" cy="212.76" r="3.22"/><path class="cls-11" d="M168.37,210.28S165.45,210,165,212a2.84,2.84,0,0,0,2.5,3.44S162.5,212,168.37,210.28Z"/><circle class="cls-11" cx="167.5" cy="212.97" r="0.75"/><circle class="cls-10" cx="167.87" cy="234.21" r="3.22"/><path class="cls-11" d="M168.74,231.73s-2.93-.27-3.38,1.75a2.83,2.83,0,0,0,2.51,3.43S162.86,233.48,168.74,231.73Z"/><circle class="cls-11" cx="167.87" cy="234.41" r="0.75"/><circle class="cls-10" cx="168.21" cy="261.08" r="3.22"/><path class="cls-11" d="M169.08,258.6s-2.93-.27-3.38,1.75a2.84,2.84,0,0,0,2.51,3.44S163.2,260.35,169.08,258.6Z"/><circle class="cls-11" cx="168.21" cy="261.29" r="0.75"/><circle class="cls-12" cx="32.22" cy="310.45" r="2.21"/><circle class="cls-12" cx="302.12" cy="310.03" r="2.21"/><path class="cls-13" d="M173.89,242.47s-3.38,44.85,9.48,38.85C183.37,281.32,174.89,291.28,173.89,242.47Z"/></g></g><path class="cls-7" d="M134.74,1.63s-8.23,18.17-24.58,22.93c0,0,28.12,18.75,38.62,22.92L162.34,20.7S153.62,12.85,134.74,1.63Z"/><path class="cls-8" d="M157.37,19s-14.63,14.49-13.13,28.52l1.71-1.4S148.74,25,157.37,19Z"/><path class="cls-7" d="M199.62,2.38s6.45,20,15.85,24c0,0-22.7,19.25-33.2,23.41L171.81,22A86,86,0,0,1,199.62,2.38Z"/><path class="cls-8" d="M173.69,21.27s14.62,14.48,13.12,28.51l-1.71-1.39S182.31,27.34,173.69,21.27Z"/><path class="cls-14" d="M156.4,19.3c1.85-.92,11.92-5.39,22.42.15,0,0-3.28,6.45-3.2,10.13s-15.55,1.82-15.55,1.82-1.63-10.62-3.68-11.84A.15.15,0,0,1,156.4,19.3Z"/><path class="cls-14" d="M161.07,31.41l-10.95,212.8s-.87,5.63.63,7.88,15.38,25.87,18.12,26.12,16.32-26,16.32-26a18.83,18.83,0,0,0,0-8.16L173.94,31.22Z"/><path class="cls-15" d="M176.31,19.48s-9.87-3.32-16.67,0a14.22,14.22,0,0,1,1.37,9s2.45-5.14,2-7.35C163,21.13,162.81,18.51,176.31,19.48Z"/><path class="cls-15" d="M162,31.67l-9.22,206.74,15.18,31s-11.31-28.75-11.37-32.5C156.55,233,156.56,233.16,162,31.67Z"/><path class="cls-16" d="M93.22,22.79S55,32.45,46.54,46.45s-31.5,141-31.5,141S-1,201.77,0,320.11c0,0,31.14,8.16,46.57,0,0,0,25.74-89.83,29.25-116.91l6.44-39.9S88.54,238.45,86,249s-29,87-14.5,230c0,0,42,19.5,63,24l17.19-321.2-19.9-159Z"/><path class="cls-17" d="M137.49.34S96.4,17.12,93.22,22.79,131,71.42,131,71.42s-14-1.53-15.75.75,36.61,97.38,36.44,109.58C151.71,181.75,164.43,86.22,137.49.34Z"/><path class="cls-17" d="M50,43.78s27,14,25.85,59.53"/><path class="cls-16" d="M242.82,22.45S281,32.11,289.5,46.11s31.5,141,31.5,141,19.7,17.2,15.1,119.31c0,0-31.14,8.15-46.57,0,0,0-28.33-69.78-30.83-103l-6.5-30.71s-4.7,65.34-2.2,75.84,28,87,13.5,230c0,0-40.95,19.5-62,24l-17.19-321.2,19.91-159Z"/><path class="cls-17" d="M198.56,0s41.08,16.78,44.26,22.45S205,71.08,205,71.08s14-1.53,15.76.75-36.62,97.38-36.45,109.58C184.33,181.41,171.62,85.89,198.56,0Z"/><path class="cls-17" d="M286,43.45s-27,14-25.85,59.52"/><path class="cls-4" d="M156.89,486.73h19.37l-5.68-108.87-8.66-1S158.09,470.79,156.89,486.73Z"/></g></g></g></g></svg>