<svg xmlns="http://www.w3.org/2000/svg" viewBox="0 0 183 415.53"><defs><style>.cls-1{fill:none;}.cls-2{fill:#473319;}.cls-3{fill:#684b1e;}.cls-4{fill:#562727;}.cls-5{fill:#492020;}.cls-6{fill:#020202;}.cls-7{fill:#878589;}.cls-8{fill:#f9efc7;}.cls-9{fill:#969696;}.cls-10{fill:#dbdcdd;}.cls-11{fill:#666565;}.cls-12{fill:#543d3a;}.cls-13{fill:#42302d;}.cls-14{fill:#829ca8;}.cls-15{fill:#1e222d;}.cls-16{fill:#2a303d;}.cls-17{fill:#602c2c;}.cls-18{fill:#633030;}</style></defs><title>snfb2</title><g id="Layer_2" data-name="Layer 2"><g id="snfb2"><g id="snfb2-2" data-name="snfb2"><rect class="cls-1" y="0.53" width="183" height="415"/><g id="dressshoes"><g id="sbbshoes"><path class="cls-2" d="M52.76,379.52s-7.48,17,9.56,18.53c0,0,15.31,0,18.28-7.19,1.47-3.59-4-14.65-4-14.65s3.8,11.31,3,12.51-7.66,7.35-16.3,6.11S51.11,392,52.76,379.52"/><path class="cls-3" d="M57.66,365.79s-5.61,11.69-6.28,22c0,0,.57,7.3,10.94,8.05s17.78-5,17.78-7.1-5.37-22.93-5.37-22.93l-4.51,3c-.49-2.24-9.38-2.73-9.63,0Z"/><path class="cls-2" d="M53.35,389.37s2.71-1.66,3.95-1.74v.22a12.49,12.49,0,0,0-3.95,1.73Z"/><path class="cls-2" d="M59.24,387.07s3-.89,4.26-.65l0,.21a12.27,12.27,0,0,0-4.27.65Z"/><path class="cls-2" d="M64.8,386s3.1-.7,4.29-.38l-.07.21a12.34,12.34,0,0,0-4.29.38Z"/><path class="cls-2" d="M71.11,385.47s3.16-.33,4.31.13l-.09.2a12.46,12.46,0,0,0-4.31-.14Z"/><path class="cls-2" d="M76.82,385.84s3,1.05,3.84,2l-.16.13a12.53,12.53,0,0,0-3.85-2Z"/><path class="cls-2" d="M60.59,368.77l1.73,14.72S60,369.72,60.59,368.77Z"/><path class="cls-2" d="M70.05,383.62s.74-13.8.32-14.82l-.32,14.82"/><polyline class="cls-2" points="60.73 369.92 65.1 372.08 70.45 369.35 70.49 370.17 65.1 372.82 70.28 373.81 70.28 374.56 65.1 373.4 61.12 375.55 61.04 374.99 64.73 372.82 60.5 370.34 60.73 369.92"/><polyline class="cls-2" points="60.97 375.21 65.35 377.37 70.7 374.64 70.73 375.46 65.35 378.11 70.52 379.1 70.52 379.85 65.35 378.69 61.36 380.84 61.28 380.28 64.97 378.11 60.75 375.63 60.97 375.21"/><polyline class="cls-2" points="60.97 380.17 65.35 382.33 70.7 379.6 70.73 380.42 65.35 383.07 70.52 384.06 70.52 384.81 65.35 383.65 61.36 385.8 61.28 385.24 64.97 383.07 60.75 380.59 60.97 380.17"/></g><g id="sbbshoes-2" data-name="sbbshoes"><path class="cls-2" d="M123.93,378.44s7.48,17-9.56,18.53c0,0-15.31,0-18.27-7.2-1.48-3.59,4-14.64,4-14.64s-3.8,11.31-3,12.51,7.66,7.35,16.29,6.1,12.21-2.81,10.55-15.3"/><path class="cls-3" d="M119,364.7s5.62,11.7,6.28,22c0,0-.57,7.31-10.94,8.06s-17.77-5-17.78-7.1S102,364.7,102,364.7l4.51,3c.5-2.23,9.39-2.73,9.63,0Z"/><path class="cls-2" d="M123.35,388.28s-2.72-1.65-3.95-1.73v.21a12.36,12.36,0,0,1,3.95,1.74Z"/><path class="cls-2" d="M117.45,386s-3-.9-4.26-.66l.06.21a12.34,12.34,0,0,1,4.26.66Z"/><path class="cls-2" d="M111.9,385s-3.1-.7-4.3-.38l.07.2a12.51,12.51,0,0,1,4.3.39Z"/><path class="cls-2" d="M105.58,384.38s-3.16-.32-4.31.14l.1.19a12.3,12.3,0,0,1,4.31-.13Z"/><path class="cls-2" d="M99.88,384.75s-3,1.06-3.85,2l.17.14a12.56,12.56,0,0,1,3.84-2Z"/><path class="cls-2" d="M116.1,367.68l-1.73,14.73S116.66,368.64,116.1,367.68Z"/><path class="cls-2" d="M106.64,382.54s-.74-13.8-.31-14.82l.31,14.82"/><polyline class="cls-2" points="115.97 368.83 111.59 370.99 106.24 368.26 106.21 369.09 111.59 371.74 106.42 372.73 106.42 373.47 111.59 372.32 115.58 374.46 115.65 373.91 111.97 371.74 116.19 369.25 115.97 368.83"/><polyline class="cls-2" points="115.72 374.13 111.35 376.28 106 373.55 105.96 374.38 111.35 377.03 106.17 378.02 106.17 378.76 111.35 377.61 115.33 379.75 115.41 379.2 111.72 377.03 115.95 374.55 115.72 374.13"/><polyline class="cls-2" points="115.72 379.09 111.35 381.24 106 378.51 105.96 379.34 111.35 381.99 106.17 382.98 106.17 383.73 111.35 382.57 115.33 384.71 115.41 384.16 111.72 381.99 115.95 379.5 115.72 379.09"/></g></g><g id="snfbpants2"><g id="sbbpants"><path class="cls-4" d="M51.32,130.08s28.46,22.63,73.31,0a214.19,214.19,0,0,1,8.26,75.73c-3.22,41.2-6.92,51.62-6.92,54.6s3.46,42.93,3.46,45.91-5.68,53.85-5.68,53.85-6.34,5.22-11.82,5.71-14.36-4.71-14.36-4.71-7.35-59.81-6.27-69.24,3.06-28.05,2.56-35.49-3.62-68.75-3.62-68.75l-3.79-.49s-2.22,59.06-4.69,68.49-.74,31.52,1,38.72-4.45,66.51-4.45,66.51-10.37,5-13.58,5-12.1-7.7-12.1-7.7-5.93-64-4.94-66.76,3-30.28,3-34.74-8.4-26.31-8.89-55.1S46.55,134.8,51.32,130.08Z"/><path class="cls-5" d="M112.72,201.84S116,271.33,115,275s-3.38,90.42-3.38,90.42l-2-.34s2.82-87.1,2.78-90.41S112.72,201.84,112.72,201.84Z"/><path class="cls-5" d="M61.47,200.35s-3.3,69.49-2.31,73.13,3.38,90.42,3.38,90.42l2-.34s-2.82-87.1-2.78-90.41S61.47,200.35,61.47,200.35Z"/><path class="cls-6" d="M49.59,133.15s-2.67,4.11-2.2,7.5c0,0,23.67,8.1,39.29,8.19,16.24.08,40.83-8.16,40.83-8.16s.16-6.84-2-7.53C125.56,133.15,96.9,152.11,49.59,133.15Z"/><rect class="cls-7" x="81.44" y="141.19" width="12.04" height="8.64" rx="2.9" ry="2.9"/><rect class="cls-6" x="84.06" y="143.24" width="6.81" height="4.61" rx="1.59" ry="1.59"/></g><rect class="cls-4" x="71.8" y="139.86" width="2.43" height="8.97" rx="1.22" ry="1.22"/><rect class="cls-4" x="100.32" y="139.86" width="2.43" height="8.97" rx="1.22" ry="1.22"/><rect class="cls-4" x="119.13" y="134.71" width="2.43" height="8.97" rx="1.22" ry="1.22"/><rect class="cls-4" x="51.07" y="133.41" width="2.43" height="8.97" rx="1.22" ry="1.22"/><path class="cls-5" d="M106.46,157s6.67,11.75,22.6,9.27C129.06,166.27,113.37,171.72,106.46,157Z"/><path class="cls-5" d="M70.21,157.8s-6.36,11.75-21.57,9.27C48.64,167.07,63.61,172.52,70.21,157.8Z"/><path class="cls-5" d="M85.05,159.75S81.82,184.22,88,184C88,184,83.05,182.69,85.05,159.75Z"/></g><g id="snfbshirt2"><g id="shirt"><path class="cls-8" d="M69.64,5.82s-35,12.75-38.32,16.56S24.08,41.9,24.9,51.83c0,0-16.13,55-15.47,69.6l-.9,30.67L7,150.94l1.7,14.37s10.05,1.71,14-2.11l2.6-10.94-1.15-.16s14-26.92,14.16-30.67S48,73.51,48,73.51s3,17.86,2.8,21.84,1.81,32.76,1.81,32.76l-3.39,2.29S77,150.16,125.25,135l-1.72-7.43s1-26.8.16-34.42L130,76.81s8.07,48.81,14.82,62.05L153,151.43h-1.48l3.73,7.47s8.14,2.81,12.82-.84l1.42-9.6h-1s-1-38.55-2.64-43.52-10.2-47.32-13.17-52.28c0,0,2.31-26.14-10.37-33.42,0,0-28.67-8-35.74-12.54,0,0-3.38,4.7-17.71,6.36S69.64,5.82,69.64,5.82Z"/><g id="sbbshirt2"><path class="cls-9" d="M85.72,14.49l2.39,126.29s2.34-.11,2.9-.11l.8-126.36Z"/><path class="cls-10" d="M89.25,15.17s-.94-1-.94,2V140.72H89S88.92,17.12,89.25,15.17Z"/><ellipse class="cls-11" cx="88.31" cy="36.54" rx="1.59" ry="1.6"/><path class="cls-12" d="M88.74,35.31s-1.44-.14-1.66.87a1.4,1.4,0,0,0,1.23,1.7S85.84,36.18,88.74,35.31Z"/><circle class="cls-12" cx="88.31" cy="36.64" r="0.37"/><ellipse class="cls-11" cx="88.63" cy="24.8" rx="1.59" ry="1.6"/><path class="cls-12" d="M89.06,23.57s-1.45-.13-1.67.87a1.41,1.41,0,0,0,1.24,1.71S86.16,24.44,89.06,23.57Z"/><circle class="cls-12" cx="88.63" cy="24.91" r="0.37"/><ellipse class="cls-11" cx="88.48" cy="49.88" rx="1.59" ry="1.6"/><path class="cls-12" d="M88.91,48.65s-1.45-.14-1.67.87a1.41,1.41,0,0,0,1.24,1.7S86,49.52,88.91,48.65Z"/><circle class="cls-12" cx="88.48" cy="49.98" r="0.37"/><ellipse class="cls-11" cx="88.77" cy="65.59" rx="1.59" ry="1.6"/><path class="cls-12" d="M89.2,64.36s-1.45-.14-1.67.87a1.41,1.41,0,0,0,1.24,1.7S86.3,65.23,89.2,64.36Z"/><circle class="cls-12" cx="88.77" cy="65.69" r="0.37"/><ellipse class="cls-11" cx="88.93" cy="78.93" rx="1.59" ry="1.6"/><path class="cls-12" d="M89.37,77.7s-1.45-.14-1.67.87a1.4,1.4,0,0,0,1.23,1.7S86.46,78.57,89.37,77.7Z"/><circle class="cls-12" cx="88.93" cy="79.03" r="0.37"/><ellipse class="cls-11" cx="88.89" cy="92.27" rx="1.59" ry="1.6"/><path class="cls-12" d="M89.32,91s-1.44-.14-1.67.87a1.41,1.41,0,0,0,1.24,1.7S86.42,91.91,89.32,91Z"/><circle class="cls-12" cx="88.89" cy="92.37" r="0.37"/><ellipse class="cls-11" cx="89.06" cy="105.61" rx="1.59" ry="1.6"/><path class="cls-12" d="M89.49,104.38s-1.45-.14-1.67.87a1.41,1.41,0,0,0,1.24,1.7S86.59,105.25,89.49,104.38Z"/><circle class="cls-12" cx="89.06" cy="105.71" r="0.37"/><ellipse class="cls-11" cx="89.24" cy="116.25" rx="1.59" ry="1.6"/><path class="cls-12" d="M89.67,115s-1.45-.13-1.67.87a1.41,1.41,0,0,0,1.24,1.71S86.77,115.89,89.67,115Z"/><circle class="cls-12" cx="89.24" cy="116.35" r="0.37"/><ellipse class="cls-11" cx="89.41" cy="129.59" rx="1.59" ry="1.6"/><path class="cls-12" d="M89.84,128.36s-1.45-.13-1.67.87a1.41,1.41,0,0,0,1.24,1.71S86.93,129.23,89.84,128.36Z"/><circle class="cls-12" cx="89.41" cy="129.69" r="0.37"/><ellipse class="cls-13" cx="22.23" cy="154.1" rx="1.09" ry="1.1"/><ellipse class="cls-13" cx="155.55" cy="153.89" rx="1.09" ry="1.1"/><path class="cls-14" d="M92.21,120.35s-1.66,22.26,4.68,19.29C96.89,139.64,92.71,144.58,92.21,120.35Z"/></g></g><path class="cls-8" d="M72.88.81s-4.07,9-12.15,11.38c0,0,13.9,9.31,19.08,11.38l6.7-13.3A94.71,94.71,0,0,0,72.88.81Z"/><path class="cls-9" d="M84.05,9.41s-7.22,7.19-6.48,14.16l.84-.7S79.79,12.43,84.05,9.41Z"/><path class="cls-8" d="M104.92,1.18s3.19,9.93,7.83,11.91c0,0-11.21,9.55-16.4,11.62L91.18,10.92A42.75,42.75,0,0,1,104.92,1.18Z"/><path class="cls-9" d="M92.11,10.56s7.23,7.19,6.49,14.15L97.75,24S96.37,13.57,92.11,10.56Z"/><path class="cls-15" d="M83.57,9.58a12.45,12.45,0,0,1,11.08.08s-1.62,3.2-1.58,5-7.68.9-7.68.9-.81-5.26-1.82-5.87A.08.08,0,0,1,83.57,9.58Z"/><path class="cls-15" d="M85.88,15.59,80.47,121.22s-.43,2.79.32,3.91,7.59,12.84,8.94,13,8.06-12.9,8.06-12.9a9.33,9.33,0,0,0,0-4.06L92.24,15.49Z"/><path class="cls-16" d="M93.41,9.67s-4.88-1.65-8.24,0a7.06,7.06,0,0,1,.68,4.47s1.21-2.55,1-3.65C86.85,10.49,86.74,9.19,93.41,9.67Z"/><path class="cls-16" d="M86.35,15.72,81.8,118.34l7.5,15.41s-5.59-14.27-5.62-16.13S83.65,115.73,86.35,15.72Z"/><path class="cls-17" d="M52.37,11.31s-18.86,4.8-23.06,11.75-15.56,70-15.56,70-7.9,7.1-7.41,65.84c0,0,15.38,4.05,23,0,0,0,12.72-44.59,14.45-58L47,81.06s3.09,37.3,1.85,42.51S34.5,166.75,41.66,237.73c0,0,20.72,9.68,31.11,11.92L81.26,90.21l-9.83-78.9Z"/><path class="cls-18" d="M74.23.17S53.94,8.5,52.37,11.31,71,35.45,71,35.45s-6.93-.76-7.78.37,18.08,48.34,18,54.39C81.26,90.21,87.54,42.8,74.23.17Z"/><path class="cls-18" d="M31,21.73s13.33,7,12.77,29.55"/><path class="cls-17" d="M126.26,11.14s18.86,4.8,23.06,11.75,15.56,70,15.56,70,9.73,8.53,7.46,59.22c0,0-15.38,4.05-23,0,0,0-14-34.64-15.22-51.1L130.9,85.75s-2.33,32.44-1.09,37.65,13.83,43.19,6.67,114.17c0,0-20.23,9.68-30.62,11.91L97.37,90.05l9.83-78.91Z"/><path class="cls-18" d="M104.4,0s20.29,8.33,21.86,11.14-18.67,24.14-18.67,24.14,6.93-.76,7.78.38S97.29,84,97.37,90.05C97.37,90.05,91.09,42.63,104.4,0Z"/><path class="cls-18" d="M147.61,21.57s-13.33,7-12.77,29.54"/><path class="cls-5" d="M83.82,241.59h9.56l-2.8-54-4.28-.5S84.41,233.68,83.82,241.59Z"/></g></g></g></g></svg>