<svg xmlns="http://www.w3.org/2000/svg" viewBox="0 0 183 415"><defs><style>.cls-1{fill:none;}.cls-2{fill:#262626;}.cls-3{fill:#777;}.cls-4{fill:#2b343d;}.cls-5{fill:#181f26;}.cls-6{fill:#07090a;}.cls-7{fill:#25292b;}.cls-8{fill:#89625f;}.cls-9{fill:#8e6b69;}.cls-10{fill:#755352;}</style></defs><title>cbg</title><g id="Layer_2" data-name="Layer 2"><g id="cbg"><g id="cbg-2" data-name="cbg"><rect class="cls-1" width="183" height="415"/><g id="dressshoes_girl" data-name="dressshoes girl"><path class="cls-2" d="M75.09,364.51s.92,17.11,6,17.35,10-18,10-18-.77,9,0,11.27.84,11.08-.24,12.67-11.34,4-13.07,4-8.44-3-8.79-5.44,3.73-4.73,3.73-7.22S75.09,364.51,75.09,364.51Z"/><path class="cls-3" d="M71.94,383.23s-.46,5.47,6,6.33C78,389.56,70.83,390.55,71.94,383.23Z"/><path class="cls-2" d="M108.61,365.24s-1.37,16.38-6.44,16.62-10.63-18-10.63-18,1.42,9,.66,11.27-1.91,11.28-.82,12.88,12.4,3.75,14.13,3.75,8.44-3,8.79-5.44-3.24-4.73-3.24-7.22S108.61,365.24,108.61,365.24Z"/><path class="cls-3" d="M111.31,383.23s.46,5.47-6,6.33C105.26,389.56,112.41,390.55,111.31,383.23Z"/></g><g id="cbgshirt"><g id="cbgshirt-2" data-name="cbgshirt"><path class="cls-4" d="M77,16S49.66,23,46.35,28,35.6,39.66,36.75,83c0,0-1,9.1-6.09,23,0,0-4.92,18.35-2.8,46.48h-2L28.77,160s5.74,2.75,10.32,1.37l3.1-7.82-1.32-.17S51.66,108,52.19,104s6.63-26.48,6.63-29.95c0,0,7,16.86,6.25,27.63s-4.23,14.69-5.26,19.22c0,0,9.24,8.17,31.69,7.84s34.29-6.56,34.29-6.56,2,1.74-4.9-9.55a95.59,95.59,0,0,1,2.31-27.52c3.45-14,4.25-17.91,4.25-17.91s-1,8.73,3.53,21.64c4.89,13.83,2.59,21.28,3.74,28.72S143.28,152,143.28,152h-2l4.46,5.92s6.3,1.85,9.56-.63l1.78-7.61h-1.78s2.44-36.23-2.17-42.69-4.61-24.48-4.61-24.48.5-44.18-5.76-52.12-33.56-11.53-34-14c0,0-4.54,17.27-15.24,17.43S77,16,77,16Z"/><path class="cls-5" d="M78,13.87s-10.28,4.41-10.77,7.51c0,0,16,15.64,17.57,19.36,0,0,3.46-6.7,6.67-6.7C91.5,34,76.71,19.4,78,13.87Z"/><path class="cls-4" d="M79.24,13.21S68.22,15.3,67.72,20c-1.94-1.87,18,19.94,17.61,19.15,0,0,2.56-5.58,5.77-5.58C91.58,34.25,77.44,20.72,79.24,13.21Z"/><path class="cls-5" d="M106.5,14s8.39,4.41,8.79,7.51c0,0-13.07,15.47-14.38,19.19,0,0-3.26-7-5.88-7C95,33.74,107.58,19.56,106.5,14Z"/><path class="cls-4" d="M105.51,13.38s9.49,2.09,9.89,6.8c0,0-13,15-14.31,18.76,0,0-3.11-5.58-5.73-5.58C95.36,33.36,106.59,18.9,105.51,13.38Z"/><path class="cls-5" d="M91.1,33.59l-.36,95.72,3.48-.06,1.14-95.89A4.32,4.32,0,0,1,91.1,33.59Z"/><path class="cls-4" d="M92.3,34.08l.08,95.23,1-.06.14-95.39A1.22,1.22,0,0,1,92.3,34.08Z"/><path class="cls-5" d="M60.22,72.75s3.45,14.61,23,12.39C83.19,85.14,68.12,86.53,60.22,72.75Z"/><path class="cls-5" d="M124,72.53s-3,14.6-19.8,12.38C104.18,84.91,117.17,86.3,124,72.53Z"/><ellipse class="cls-6" cx="93.27" cy="36.59" rx="1.5" ry="1.51"/><path class="cls-7" d="M93.39,35.29s-1,.41-1,1.21.44,1.18.85,1.23a1.11,1.11,0,0,1-1.22-1.22A1.2,1.2,0,0,1,93.39,35.29Z"/><circle class="cls-7" cx="93.27" cy="36.59" r="0.29"/><ellipse class="cls-6" cx="93.27" cy="48.21" rx="1.5" ry="1.51"/><path class="cls-7" d="M93.39,46.92s-1,.4-1,1.21.44,1.18.85,1.22a1.11,1.11,0,0,1-1.22-1.21A1.2,1.2,0,0,1,93.39,46.92Z"/><circle class="cls-7" cx="93.27" cy="48.21" r="0.29"/><ellipse class="cls-6" cx="93.27" cy="59.83" rx="1.5" ry="1.51"/><path class="cls-7" d="M93.39,58.54s-1,.4-1,1.21.44,1.18.85,1.23a1.12,1.12,0,0,1-1.22-1.22A1.2,1.2,0,0,1,93.39,58.54Z"/><circle class="cls-7" cx="93.27" cy="59.83" r="0.29"/><ellipse class="cls-6" cx="93.05" cy="71.46" rx="1.5" ry="1.51"/><path class="cls-7" d="M93.17,70.16s-1,.41-1,1.21a1.08,1.08,0,0,0,.85,1.23,1.11,1.11,0,0,1-1.22-1.22A1.2,1.2,0,0,1,93.17,70.16Z"/><circle class="cls-7" cx="93.05" cy="71.46" r="0.29"/><ellipse class="cls-6" cx="93.05" cy="83.08" rx="1.5" ry="1.51"/><path class="cls-7" d="M93.17,81.79s-1,.4-1,1.21a1.07,1.07,0,0,0,.85,1.22A1.11,1.11,0,0,1,91.83,83,1.19,1.19,0,0,1,93.17,81.79Z"/><circle class="cls-7" cx="93.05" cy="83.08" r="0.29"/><ellipse class="cls-6" cx="93.05" cy="94.7" rx="1.5" ry="1.51"/><path class="cls-7" d="M93.17,93.41s-1,.4-1,1.21a1.08,1.08,0,0,0,.85,1.23,1.12,1.12,0,0,1-1.22-1.22A1.2,1.2,0,0,1,93.17,93.41Z"/><circle class="cls-7" cx="93.05" cy="94.7" r="0.29"/><ellipse class="cls-6" cx="92.77" cy="106.33" rx="1.5" ry="1.51"/><path class="cls-7" d="M92.89,105s-1,.41-1,1.21a1.08,1.08,0,0,0,.85,1.23,1.11,1.11,0,0,1-1.22-1.22A1.2,1.2,0,0,1,92.89,105Z"/><circle class="cls-7" cx="92.77" cy="106.33" r="0.29"/><ellipse class="cls-6" cx="92.77" cy="117.95" rx="1.5" ry="1.51"/><path class="cls-7" d="M92.89,116.66s-1,.4-1,1.21a1.07,1.07,0,0,0,.85,1.22,1.11,1.11,0,0,1-1.22-1.22A1.19,1.19,0,0,1,92.89,116.66Z"/><circle class="cls-7" cx="92.77" cy="117.95" r="0.29"/><ellipse class="cls-6" cx="144.72" cy="152.36" rx="1.5" ry="1.51"/><path class="cls-7" d="M144.85,151.06s-1,.41-1,1.21.45,1.18.85,1.23a1.11,1.11,0,0,1-1.22-1.22A1.21,1.21,0,0,1,144.85,151.06Z"/><circle class="cls-7" cx="144.72" cy="152.36" r="0.29"/><ellipse class="cls-6" cx="39.58" cy="153.89" rx="1.5" ry="1.51"/><path class="cls-7" d="M39.7,152.6s-1,.4-1,1.21a1.08,1.08,0,0,0,.85,1.23,1.12,1.12,0,0,1-1.22-1.22A1.2,1.2,0,0,1,39.7,152.6Z"/><circle class="cls-7" cx="39.58" cy="153.89" r="0.29"/><path class="cls-5" d="M27.86,152.5a14,14,0,0,0,9.47.5S31.32,156.23,27.86,152.5Z"/><path class="cls-5" d="M146.9,152.07s7.25,1.67,10.21-2.38C157.11,149.69,153.82,152.79,146.9,152.07Z"/><path class="cls-5" d="M48.83,26.16A28.71,28.71,0,0,1,58.74,46.7S58.93,31.24,50,25Z"/><path class="cls-5" d="M133.74,24.82s-7.82,6.9-8.42,20.54c0,0-.16-15,7-21.18Z"/></g><path class="cls-5" d="M65.28,54.89s10,4.17,17.48,1.91V69.35s-8.82,5.4-10,5.4-7.53-5.67-7.53-5.67Z"/><path class="cls-4" d="M65.69,55.35s9.39,4,16.38,1.82v12s-8.26,5.18-9.32,5.18-7.06-5.44-7.06-5.44Z"/><path class="cls-5" d="M65.69,58.06s6.36,3,12.92,2.38c0,0-7.41,1.11-12.92-1.7Z"/></g><g id="cbgpants"><path class="cls-8" d="M62.19,115.14s33.31,16.26,59-1c0,0,15.18,19.65,13.53,51.09s-1.62,42.57-13.65,83.91c0,0-.18,18.84,1.3,24,0,0-34.25,17.53-59.11-.83,0,0,1.65-20,.5-24s-13.34-55.76-13.34-63.87S46.46,139.32,62.19,115.14Z"/><path class="cls-8" d="M62.19,115.14s-9.3,17.49-15.06,23.21c0,0,23.33,9.36,45.09,8.37S139,136.84,139,136.84a109.2,109.2,0,0,1-17.29-22.16S97.33,124.6,62.19,115.14Z"/><path class="cls-9" d="M59.77,119.24s24,9.91,63.89-.58l-1.78-4.5s-31.46,9.94-59.69,1Z"/><path class="cls-9" d="M53.27,140.51S60,127.69,61.78,128s-2.57,14.27-2.57,14.27Z"/><path class="cls-9" d="M72.35,145.26s1.2-8.72,2.31-8.72.75,9.36.75,9.36Z"/><path class="cls-9" d="M88.13,146.79s.24-20,3.58-20.17,2.69,20,2.69,20Z"/><path class="cls-9" d="M102.45,145.53s-1.23-10.72.62-11.22S107,145.06,107,145.06Z"/><path class="cls-9" d="M117.79,142.88s-2.74-6-1.63-6.59,4.11,6,4.11,6Z"/><path class="cls-9" d="M127.81,140.31S116.4,126.49,118.26,125s15,13.35,15,13.35Z"/><path class="cls-10" d="M52.19,140.16s26.56,9.29,43.17,6.63,37-7.81,37-7.81l.35,2.24s-5.22-.51-8.1,1.07a30.56,30.56,0,0,1-8.7,3.24c-3.19.69-4.67-.34-8.38.37s-4,2.68-7.39,3-4.69-.62-8.83-.74-7.73,1.28-11.07.83-2.5-1.44-6.31-2.25-5,.14-8.75-.89-2.84-1.9-6.92-3-6.28.21-6.28.21Z"/><path class="cls-9" d="M64.17,233.83s6.67,8.19,2.22,34.5C66.39,268.33,74.79,241.28,64.17,233.83Z"/></g></g></g></g></svg>