<svg xmlns="http://www.w3.org/2000/svg" viewBox="0 0 183 415"><defs><style>.cls-1{fill:none;}.cls-2{fill:#262626;}.cls-3{fill:#777;}.cls-4{fill:#f49082;}.cls-5{fill:#bc655e;}.cls-6{fill:#07090a;}.cls-7{fill:#25292b;}.cls-8{fill:#252333;}.cls-9{fill:#302f42;}.cls-10{fill:#191823;}</style></defs><title>cbg2</title><g id="Layer_2" data-name="Layer 2"><g id="cbg2"><g id="cbg2-2" data-name="cbg2"><rect class="cls-1" width="183" height="415"/><g id="dressshoes_girl" data-name="dressshoes girl"><path class="cls-2" d="M75.73,363.7s.92,17.11,6,17.36,10-18,10-18-.77,9,0,11.27.85,11.08-.24,12.68-11.34,4-13.06,4-8.45-3-8.8-5.44,3.73-4.73,3.73-7.21S75.73,363.7,75.73,363.7Z"/><path class="cls-3" d="M72.57,382.42s-.46,5.47,6.05,6.33C78.62,388.75,71.47,389.74,72.57,382.42Z"/><path class="cls-2" d="M109.25,364.43s-1.38,16.38-6.44,16.63-10.64-18-10.64-18,1.43,9,.66,11.27-1.9,11.28-.81,12.88S104.41,391,106.14,391s8.45-3,8.79-5.44-3.23-4.73-3.23-7.21S109.25,364.43,109.25,364.43Z"/><path class="cls-3" d="M112,382.42s.45,5.47-6.06,6.33C105.89,388.75,113.05,389.74,112,382.42Z"/></g><g id="cbgshirt2"><g id="cbgshirt"><path class="cls-4" d="M77,15.84s-27.33,6.93-30.64,12-10.75,11.68-9.6,55c0,0-1,9.09-6.09,23,0,0-4.92,18.35-2.8,46.48h-2l2.88,7.45s5.74,2.74,10.32,1.37l3.1-7.83-1.32-.16s10.79-45.34,11.32-49.31,6.63-26.47,6.63-29.94c0,0,7,16.86,6.25,27.63s-4.23,14.69-5.26,19.22c0,0,9.24,8.17,31.69,7.83S125.79,122,125.79,122s2,1.74-4.9-9.55A95.59,95.59,0,0,1,123.2,85c3.45-14,4.25-17.92,4.25-17.92s-1,8.74,3.53,21.65c4.89,13.83,2.59,21.28,3.74,28.72s8.56,34.42,8.56,34.42h-2l4.46,5.92s6.3,1.85,9.56-.63l1.78-7.61h-1.78s2.44-36.24-2.17-42.69-4.61-24.49-4.61-24.49.5-44.17-5.76-52.11-33.56-11.53-34-14c0,0-4.54,17.27-15.24,17.43S77,15.84,77,15.84Z"/><path class="cls-5" d="M78,13.68s-10.28,4.41-10.77,7.51c0,0,16,15.63,17.57,19.36,0,0,3.46-6.7,6.67-6.7C91.5,33.85,76.71,19.2,78,13.68Z"/><path class="cls-4" d="M79.24,13s-11,2.09-11.52,6.8C65.78,18,85.67,39.76,85.33,39c0,0,2.56-5.59,5.77-5.59C91.58,34.05,77.44,20.53,79.24,13Z"/><path class="cls-5" d="M106.5,13.85s8.39,4.4,8.79,7.51c0,0-13.07,15.46-14.38,19.19,0,0-3.26-7-5.88-7C95,33.55,107.58,19.37,106.5,13.85Z"/><path class="cls-4" d="M105.51,13.18S115,15.28,115.4,20c0,0-13,15-14.31,18.76,0,0-3.11-5.58-5.73-5.58C95.36,33.17,106.59,18.71,105.51,13.18Z"/><path class="cls-5" d="M91.1,33.39l-.36,95.73,3.48-.06,1.14-95.89A4.3,4.3,0,0,1,91.1,33.39Z"/><path class="cls-4" d="M92.3,33.89l.08,95.23,1-.06.14-95.39A1.22,1.22,0,0,1,92.3,33.89Z"/><path class="cls-5" d="M60.22,72.56s3.45,14.61,23,12.39C83.19,85,68.12,86.34,60.22,72.56Z"/><path class="cls-5" d="M124,72.33s-3,14.61-19.8,12.39C104.18,84.72,117.17,86.11,124,72.33Z"/><ellipse class="cls-6" cx="93.27" cy="36.4" rx="1.5" ry="1.51"/><path class="cls-7" d="M93.39,35.1s-1,.41-1,1.21.44,1.18.85,1.23a1.11,1.11,0,0,1-1.22-1.22A1.2,1.2,0,0,1,93.39,35.1Z"/><circle class="cls-7" cx="93.27" cy="36.4" r="0.29"/><ellipse class="cls-6" cx="93.27" cy="48.02" rx="1.5" ry="1.51"/><path class="cls-7" d="M93.39,46.73s-1,.4-1,1.21a1.07,1.07,0,0,0,.85,1.22,1.11,1.11,0,0,1-1.22-1.22A1.19,1.19,0,0,1,93.39,46.73Z"/><circle class="cls-7" cx="93.27" cy="48.02" r="0.29"/><ellipse class="cls-6" cx="93.27" cy="59.64" rx="1.5" ry="1.51"/><path class="cls-7" d="M93.39,58.35s-1,.4-1,1.21.44,1.18.85,1.22a1.11,1.11,0,0,1-1.22-1.21A1.2,1.2,0,0,1,93.39,58.35Z"/><circle class="cls-7" cx="93.27" cy="59.64" r="0.29"/><ellipse class="cls-6" cx="93.05" cy="71.27" rx="1.5" ry="1.51"/><path class="cls-7" d="M93.17,70s-1,.41-1,1.21a1.08,1.08,0,0,0,.85,1.23,1.11,1.11,0,0,1-1.22-1.22A1.2,1.2,0,0,1,93.17,70Z"/><circle class="cls-7" cx="93.05" cy="71.27" r="0.29"/><ellipse class="cls-6" cx="93.05" cy="82.89" rx="1.5" ry="1.51"/><path class="cls-7" d="M93.17,81.6s-1,.4-1,1.21A1.07,1.07,0,0,0,93.05,84a1.11,1.11,0,0,1-1.22-1.22A1.19,1.19,0,0,1,93.17,81.6Z"/><circle class="cls-7" cx="93.05" cy="82.89" r="0.29"/><ellipse class="cls-6" cx="93.05" cy="94.51" rx="1.5" ry="1.51"/><path class="cls-7" d="M93.17,93.22s-1,.4-1,1.21.45,1.18.85,1.22a1.11,1.11,0,0,1-1.22-1.21A1.2,1.2,0,0,1,93.17,93.22Z"/><circle class="cls-7" cx="93.05" cy="94.51" r="0.29"/><ellipse class="cls-6" cx="92.77" cy="106.13" rx="1.5" ry="1.51"/><path class="cls-7" d="M92.89,104.84s-1,.41-1,1.21a1.08,1.08,0,0,0,.85,1.23,1.11,1.11,0,0,1-1.22-1.22A1.2,1.2,0,0,1,92.89,104.84Z"/><circle class="cls-7" cx="92.77" cy="106.13" r="0.29"/><ellipse class="cls-6" cx="92.77" cy="117.76" rx="1.5" ry="1.51"/><path class="cls-7" d="M92.89,116.47s-1,.4-1,1.21a1.07,1.07,0,0,0,.85,1.22,1.11,1.11,0,0,1-1.22-1.22A1.19,1.19,0,0,1,92.89,116.47Z"/><circle class="cls-7" cx="92.77" cy="117.76" r="0.29"/><ellipse class="cls-6" cx="144.72" cy="152.17" rx="1.5" ry="1.51"/><path class="cls-7" d="M144.85,150.87s-1,.41-1,1.21.45,1.18.85,1.23a1.11,1.11,0,0,1-1.22-1.22A1.21,1.21,0,0,1,144.85,150.87Z"/><circle class="cls-7" cx="144.72" cy="152.17" r="0.29"/><ellipse class="cls-6" cx="39.58" cy="153.7" rx="1.5" ry="1.51"/><path class="cls-7" d="M39.7,152.41s-1,.4-1,1.21.45,1.18.85,1.22a1.11,1.11,0,0,1-1.22-1.21A1.2,1.2,0,0,1,39.7,152.41Z"/><circle class="cls-7" cx="39.58" cy="153.7" r="0.29"/><path class="cls-5" d="M27.86,152.31a14,14,0,0,0,9.47.5S31.32,156,27.86,152.31Z"/><path class="cls-5" d="M146.9,151.87s7.25,1.68,10.21-2.37C157.11,149.5,153.82,152.59,146.9,151.87Z"/><path class="cls-5" d="M48.83,26a28.71,28.71,0,0,1,9.91,20.54S58.93,31.05,50,24.84Z"/><path class="cls-5" d="M133.74,24.63s-7.82,6.9-8.42,20.54c0,0-.16-15,7-21.18Z"/></g><path class="cls-5" d="M65.28,54.7s10,4.17,17.48,1.91V69.16s-8.82,5.4-10,5.4-7.53-5.67-7.53-5.67Z"/><path class="cls-4" d="M65.69,55.16s9.39,4,16.38,1.82V69s-8.26,5.18-9.32,5.18-7.06-5.44-7.06-5.44Z"/><path class="cls-5" d="M65.69,57.87s6.36,3,12.92,2.37c0,0-7.41,1.12-12.92-1.7Z"/></g><g id="cbgpants2"><path class="cls-8" d="M62.11,115.41s33.31,16.25,59-1c0,0,15.18,19.66,13.53,51.09S133,208.08,121,249.42c0,0-.17,18.84,1.31,24,0,0-34.25,17.54-59.11-.83,0,0,1.65-20,.49-24s-13.33-55.76-13.33-63.86S46.38,139.59,62.11,115.41Z"/><path class="cls-8" d="M62.11,115.41s-9.3,17.48-15.07,23.2c0,0,23.34,9.36,45.1,8.37s46.76-9.88,46.76-9.88a109,109,0,0,1-17.3-22.16S97.25,124.86,62.11,115.41Z"/><path class="cls-9" d="M59.69,119.5s24,9.91,63.89-.58l-1.78-4.5s-31.46,10-59.69,1Z"/><path class="cls-9" d="M53.19,140.77s6.7-12.82,8.51-12.48-2.57,14.26-2.57,14.26Z"/><path class="cls-9" d="M72.27,145.52s1.2-8.71,2.31-8.71.74,9.35.74,9.35Z"/><path class="cls-9" d="M88,147.05s.25-20.05,3.59-20.17,2.68,20,2.68,20Z"/><path class="cls-9" d="M102.37,145.79s-1.24-10.72.62-11.22,3.92,10.75,3.92,10.75Z"/><path class="cls-9" d="M117.7,143.14s-2.74-6-1.62-6.58,4.11,6,4.11,6Z"/><path class="cls-9" d="M127.73,140.57s-11.41-13.81-9.56-15.3,15,13.34,15,13.34Z"/><path class="cls-10" d="M52.11,140.42s26.56,9.29,43.17,6.64,37-7.81,37-7.81l.35,2.23s-5.21-.51-8.09,1.07a30.67,30.67,0,0,1-8.7,3.24c-3.19.7-4.67-.33-8.38.37s-4,2.68-7.39,3.06-4.69-.62-8.84-.75-7.73,1.28-11.06.83-2.5-1.44-6.31-2.25-5,.14-8.76-.89-2.84-1.89-6.91-3-6.28.21-6.28.21Z"/><path class="cls-9" d="M64.09,234.09s6.66,8.19,2.22,34.5C66.31,268.59,74.71,241.54,64.09,234.09Z"/></g></g></g></g></svg>