<svg xmlns="http://www.w3.org/2000/svg" viewBox="0 0 265.67 763.49"><defs><style>.cls-1{fill:#262626;}.cls-2{fill:#777;}.cls-3{fill:#f49082;}.cls-4{fill:#bc655e;}.cls-5{fill:#07090a;}.cls-6{fill:#25292b;}.cls-7{fill:#252333;}.cls-8{fill:#302f42;}.cls-9{fill:#191823;}</style></defs><title>cbg2</title><g id="Layer_2" data-name="Layer 2"><g id="cbg2"><g id="cbg2-2" data-name="cbg2"><g id="dressshoes_girl" data-name="dressshoes girl"><path class="cls-1" d="M100.9,708.53s1.86,34.46,12.11,35,20.2-36.23,20.2-36.23-1.55,18.14,0,22.73,1.71,22.3-.5,25.52-23,8-26.45,8-17.09-6-17.8-11S96,743,96,738,100.9,708.53,100.9,708.53Z"/><path class="cls-2" d="M94.51,746.24s-.93,11,12.25,12.75C106.76,759,92.28,761,94.51,746.24Z"/><path class="cls-1" d="M168.76,710s-2.78,33-13,33.5-21.53-36.23-21.53-36.23,2.88,18.14,1.33,22.73-3.85,22.72-1.65,25.94,25.1,7.56,28.6,7.56,17.09-6,17.79-11S173.73,743,173.73,738,168.76,710,168.76,710Z"/><path class="cls-2" d="M174.23,746.24s.92,11-12.25,12.75C162,759,176.46,761,174.23,746.24Z"/></g><g id="cbgshirt2"><g id="cbgshirt"><path class="cls-3" d="M103.45,5.68s-55.33,14-62,24.09S19.67,53.3,22,140.63c0,0-2,18.32-12.33,46.36,0,0-10,37-5.67,93.64H0l5.83,15s11.63,5.53,20.9,2.76L33,282.63l-2.67-.33S52.17,191,53.25,183s13.42-53.33,13.42-60.33c0,0,14.26,34,12.66,55.67S70.76,207.9,68.68,217c0,0,18.71,16.45,64.15,15.78s69.43-13.21,69.43-13.21,4.07,3.5-9.93-19.23c0,0-2.33-27.15,4.67-55.45s8.62-36.09,8.62-36.09-2.12,17.6,7.13,43.6c9.92,27.87,5.25,42.87,7.58,57.87s17.34,69.33,17.34,69.33h-4l9,11.93s12.75,3.74,19.36-1.26L265.67,275h-3.61s4.94-73-4.39-86-9.34-49.33-9.34-49.33,1-89-11.66-105S168.73,11.4,167.87,6.52c0,0-9.21,34.78-30.87,35.11S103.45,5.68,103.45,5.68Z"/><path class="cls-4" d="M105.57,1.34S84.75,10.21,83.75,16.46c0,0,32.33,31.5,35.58,39,0,0,7-13.5,13.5-13.5C132.83,42,102.89,12.46,105.57,1.34Z"/><path class="cls-3" d="M108,0S85.7,4.21,84.7,13.71C80.76,10,121,53.89,120.33,52.3c0,0,5.19-11.25,11.69-11.25C133,42.38,104.37,15.13,108,0Z"/><path class="cls-4" d="M163.19,1.68s17,8.87,17.81,15.12c0,0-26.47,31.16-29.12,38.66,0,0-6.59-14.1-11.9-14.1C140,41.36,165.38,12.8,163.19,1.68Z"/><path class="cls-3" d="M161.2.34s19.21,4.21,20,13.71c0,0-26.33,30.29-29,37.79,0,0-6.3-11.24-11.61-11.24C140.64,40.6,163.38,11.46,161.2.34Z"/><path class="cls-4" d="M132,41.05l-.73,192.86,7-.13L140.64,40.6S136.37,43.47,132,41.05Z"/><path class="cls-3" d="M134.46,42.05l.16,191.86,2-.13L137,41.61A2.49,2.49,0,0,1,134.46,42.05Z"/><path class="cls-4" d="M69.5,120s7,29.42,46.5,25C116,144.92,85.5,147.71,69.5,120Z"/><path class="cls-4" d="M198.59,119.5s-6,29.42-40.09,25C158.5,144.46,184.8,147.25,198.59,119.5Z"/><circle class="cls-5" cx="136.41" cy="47.1" r="3.04"/><path class="cls-6" d="M136.66,44.5s-1.94.81-2,2.43.91,2.38,1.72,2.47A2.24,2.24,0,0,1,133.94,47,2.43,2.43,0,0,1,136.66,44.5Z"/><circle class="cls-6" cx="136.41" cy="47.1" r="0.59"/><circle class="cls-5" cx="136.41" cy="70.52" r="3.04"/><path class="cls-6" d="M136.66,67.91s-1.94.81-2,2.44a2.18,2.18,0,0,0,1.72,2.47,2.24,2.24,0,0,1-2.47-2.45A2.43,2.43,0,0,1,136.66,67.91Z"/><circle class="cls-6" cx="136.41" cy="70.52" r="0.59"/><circle class="cls-5" cx="136.41" cy="93.93" r="3.04"/><path class="cls-6" d="M136.66,91.33s-1.94.81-2,2.44a2.18,2.18,0,0,0,1.72,2.47,2.25,2.25,0,0,1-2.47-2.46A2.43,2.43,0,0,1,136.66,91.33Z"/><circle class="cls-6" cx="136.41" cy="93.93" r="0.59"/><circle class="cls-5" cx="135.97" cy="117.35" r="3.04"/><path class="cls-6" d="M136.22,114.75s-1.94.81-2,2.43.91,2.38,1.72,2.47a2.24,2.24,0,0,1-2.47-2.45A2.43,2.43,0,0,1,136.22,114.75Z"/><circle class="cls-6" cx="135.97" cy="117.35" r="0.59"/><circle class="cls-5" cx="135.97" cy="140.77" r="3.04"/><path class="cls-6" d="M136.22,138.16s-1.94.81-2,2.44a2.18,2.18,0,0,0,1.72,2.47,2.24,2.24,0,0,1-2.47-2.45A2.43,2.43,0,0,1,136.22,138.16Z"/><circle class="cls-6" cx="135.97" cy="140.77" r="0.59"/><circle class="cls-5" cx="135.97" cy="164.18" r="3.04"/><path class="cls-6" d="M136.22,161.58s-1.94.81-2,2.44a2.18,2.18,0,0,0,1.72,2.47A2.25,2.25,0,0,1,133.5,164,2.43,2.43,0,0,1,136.22,161.58Z"/><circle class="cls-6" cx="135.97" cy="164.18" r="0.59"/><circle class="cls-5" cx="135.4" cy="187.6" r="3.04"/><path class="cls-6" d="M135.65,185s-1.94.81-2,2.43.91,2.38,1.72,2.47a2.24,2.24,0,0,1-2.47-2.45A2.43,2.43,0,0,1,135.65,185Z"/><circle class="cls-6" cx="135.4" cy="187.6" r="0.59"/><circle class="cls-5" cx="135.4" cy="211.02" r="3.04"/><path class="cls-6" d="M135.65,208.41s-1.94.81-2,2.44a2.18,2.18,0,0,0,1.72,2.47,2.24,2.24,0,0,1-2.47-2.45A2.43,2.43,0,0,1,135.65,208.41Z"/><circle class="cls-6" cx="135.4" cy="211.02" r="0.59"/><circle class="cls-5" cx="240.58" cy="280.34" r="3.04"/><path class="cls-6" d="M240.83,277.73s-1.94.81-2,2.44a2.18,2.18,0,0,0,1.72,2.47,2.23,2.23,0,0,1-2.46-2.46A2.42,2.42,0,0,1,240.83,277.73Z"/><circle class="cls-6" cx="240.58" cy="280.34" r="0.59"/><circle class="cls-5" cx="27.71" cy="283.43" r="3.04"/><path class="cls-6" d="M28,280.83s-1.93.81-2,2.44a2.16,2.16,0,0,0,1.72,2.46,2.23,2.23,0,0,1-2.46-2.45A2.42,2.42,0,0,1,28,280.83Z"/><circle class="cls-6" cx="27.71" cy="283.43" r="0.59"/><path class="cls-4" d="M4,280.63a28.43,28.43,0,0,0,19.17,1S11,288.13,4,280.63Z"/><path class="cls-4" d="M245,279.75s14.67,3.38,20.67-4.79C265.67,275,259,281.2,245,279.75Z"/><path class="cls-4" d="M46.45,26.09S65,40,66.51,67.48c0,0,.39-31.15-17.66-43.67Z"/><path class="cls-4" d="M218.34,23.39s-15.83,13.9-17.05,41.39c0,0-.31-30.15,14.13-42.67Z"/></g><path class="cls-4" d="M79.75,84s20.29,8.39,35.4,3.84V113.1S97.29,124,95,124s-15.24-11.43-15.24-11.43Z"/><path class="cls-3" d="M80.58,84.9s19,8,33.17,3.67V112.8S97,123.24,94.87,123.24s-14.29-10.95-14.29-10.95Z"/><path class="cls-4" d="M80.58,90.37s12.88,5.95,26.16,4.78c0,0-15,2.25-26.16-3.43Z"/></g><g id="cbgpants2"><path class="cls-7" d="M73.32,202.25s67.46,32.75,119.46-2c0,0,30.72,39.59,27.39,102.93S216.88,389,192.52,472.25c0,0-.35,37.95,2.65,48.28,0,0-69.34,35.33-119.67-1.67,0,0,3.33-40.33,1-48.33s-27-112.33-27-128.67S41.48,251,73.32,202.25Z"/><path class="cls-7" d="M73.32,202.25S54.5,237.47,42.83,249c0,0,47.25,18.86,91.29,16.86S228.79,246,228.79,246s-20.68-19.57-35-44.64C193.78,201.32,144.48,221.3,73.32,202.25Z"/><path class="cls-8" d="M68.43,210.5s48.63,20,129.35-1.17l-3.61-9.06s-63.69,20-120.85,2Z"/><path class="cls-8" d="M55.27,253.36s13.58-25.83,17.24-25.16-5.22,28.74-5.22,28.74Z"/><path class="cls-8" d="M93.91,262.92s2.42-17.56,4.67-17.56,1.5,18.84,1.5,18.84Z"/><path class="cls-8" d="M125.84,266s.5-40.39,7.25-40.64,5.44,40.25,5.44,40.25Z"/><path class="cls-8" d="M154.83,263.47s-2.49-21.61,1.26-22.61S164,262.51,164,262.51Z"/><path class="cls-8" d="M185.88,258.13s-5.54-12-3.29-13.27,8.32,12.08,8.32,12.08Z"/><path class="cls-8" d="M206.18,252.94s-23.1-27.83-19.35-30.83S217.18,249,217.18,249Z"/><path class="cls-9" d="M53.09,252.65s53.77,18.71,87.39,13.36,74.86-15.73,74.86-15.73l.71,4.5s-10.56-1-16.39,2.16a62.63,62.63,0,0,1-17.61,6.53c-6.47,1.39-9.47-.68-17,.73s-8.18,5.41-15,6.16-9.49-1.25-17.89-1.5-15.65,2.59-22.4,1.67-5-2.89-12.77-4.53-10.23.29-17.73-1.8-5.75-3.81-14-6.07-12.71.43-12.71.43Z"/><path class="cls-8" d="M77.33,441.36s13.5,16.5,4.5,69.5C81.83,510.86,98.83,456.36,77.33,441.36Z"/></g></g></g></g></svg>