<svg xmlns="http://www.w3.org/2000/svg" viewBox="0 0 183 415"><defs><style>.cls-1{fill:none;}.cls-2{fill:#3d3a3c;}.cls-3{fill:#565556;}.cls-4{fill:#212021;}.cls-5{fill:#474546;}.cls-6{fill:#f4e6f2;}.cls-7{fill:#eac7e5;}.cls-8{fill:#efdfef;}.cls-9{fill:#999;}.cls-10{fill:#4f4c4f;}.cls-11{fill:#cccacc;}.cls-12{fill:#020202;}.cls-13{fill:#fff;}</style></defs><title>ccg</title><g id="Layer_2" data-name="Layer 2"><g id="ccg"><g id="ccg-2" data-name="ccg"><rect class="cls-1" width="183" height="415"/><g id="ccgpants"><path class="cls-2" d="M60.73,122.23s22.29,16.62,62.47,0c0,0,7.75,15.26,9.86,25.36s2.71,51.13-12.77,103.94c0,0,.88,8.2-.73,13.86,0,0,7.21,28.63-9.28,78.37l-2.36,17.77s-11,2-14.49-.73c0,0,1.31-11.8-1.66-43.19,0,0,.93-23.3,2.4-32.64a130.73,130.73,0,0,0,1.55-18.71S90.87,235.11,93.47,184c0,0-.51.81-3.7.43,0,0,2.79,13.79-1.79,83,0,0,1.77,14.16,2.64,17.55.68,2.68,1.82,21.86-.41,34s0,42.14,0,42.14-10.19,2.84-15,.13c0,0-3.66-15.68-9-37.64C61,302,62.84,276,62.84,276s2.72-23.76-.25-31.39-10.65-46.53-11.52-55.52S44.43,146.23,60.73,122.23Z"/><path class="cls-3" d="M73.27,353.12l1.92,8.17s4.11,3.07,15-.13l-.64-8S79,355.82,73.27,353.12Z"/><path class="cls-3" d="M93.71,353.12s-.28,6.94-.69,7.39c0,0,2.51,3.2,14.9,1l1.42-8.41A51.21,51.21,0,0,1,93.71,353.12Z"/><path class="cls-2" d="M89.1,353.7a31.39,31.39,0,0,1-9.29,1.37,11.46,11.46,0,0,1-3.53-.64v6.16l.41-5.5.16,3.45.41-3.28.08,6,.41-5.83.66,6.24v-6.08l.65,3.12.16-3.12.82,5.17-.25-5.08L81,362.29l-.33-6.62.74,1.23.57-1.32.69,1.32v-1.48l1,.57v-.65Z"/><path class="cls-2" d="M96.08,353.7a24.7,24.7,0,0,0,8.29.95,9.44,9.44,0,0,0,3.09-.79l.31,6.15-.64-5.48,0,3.45-.53-3.26.23,6-.65-5.8-.26,6.26-.31-6.07-.42,3.15-.3-3.11-.46,5.2,0-5.09-.74,6.67,0-6.63-.59,1.26-.57-1.28-.55,1.34-.07-1.48-.87.62,0-.65Z"/><path class="cls-3" d="M60.73,122.23s22.58,16,62.47,0l3.76,8s-42.17,19.55-69.9-1.77C57.06,128.49,59.79,122.93,60.73,122.23Z"/><path class="cls-2" d="M82.78,130.07s-9.28-.47-15.91-3.5a42.55,42.55,0,0,1-5.1-2.73L59,129.12l3.23-4.58-2.37,5L63,125l-1.91,4.52,2.59-4.09-.82,4.6L64.63,126l-.48,3.47,1.7-2.94-.27,4,1.1-3.57-.45,6.47,1.8-5.88.75,1.3,1.23-.5.67,1.33.43-1,1.36,1.05.32-.75Z"/><path class="cls-2" d="M98.43,129.76s10.4-.63,18-3.84a53.61,53.61,0,0,0,5.92-2.86l2.7,5.34-3.23-4.62,2.24,5-3.19-4.5,1.76,4.58-2.56-4.13.55,4.68L119,125.3l.25,3.54-1.67-3,0,4.07-.94-3.62v6.59l-1.54-6-.94,1.35-1.34-.5-.85,1.37-.4-1-1.61,1.1-.3-.77Z"/><path class="cls-4" d="M92.53,131.38s-1.79-1.56-3.26,0c0,0-14,3.45-13,9.27s13-7.74,13-7.74-5.39,16-8.09,18l.66,1.23s7.75-10.58,8.49-18.71a1.07,1.07,0,0,0,1.44,0s.93,14.94,6.07,21.09L99,155a64.5,64.5,0,0,1-6-21.59s4.17,6.32,9.48,7.72S100.29,131.38,92.53,131.38Zm-14.7,9c-1.79-2.38,9.07-7.5,9.07-7.5S79.63,142.79,77.83,140.41Zm24.91-.41c-2.77.49-9-7.09-9-7.09S105.52,139.5,102.74,140Z"/><path class="cls-4" d="M82.27,131.34s-2.28.68-.66,2.09C81.61,133.43,81,131.89,82.27,131.34Z"/><path class="cls-4" d="M99.44,131a2.23,2.23,0,0,1,.55,2.46S101.33,131.52,99.44,131Z"/><path class="cls-3" d="M109.11,140s4.09,12,21.24,11.63C130.35,151.65,112.05,156,109.11,140Z"/><path class="cls-3" d="M75.3,140s-4,12-21,11.63C54.31,151.65,72.4,156,75.3,140Z"/><path class="cls-5" d="M65.18,134.5,59,140.78s6.29-3.4,6.94-5.05a10.77,10.77,0,0,1-2,6.07s3.92-2.61,4.41-5A3.48,3.48,0,0,1,69.59,140s1.06-2.39.65-3.17S67,136.45,65.18,134.5Z"/><path class="cls-5" d="M120.83,134.8l6.13,6.27s-6.21-3.39-6.85-5A10.88,10.88,0,0,0,122,142.1s-3.87-2.61-4.35-5a3.5,3.5,0,0,0-1.21,3.18s-1-2.39-.64-3.18S119.06,136.75,120.83,134.8Z"/></g><g id="ccgshirt"><path class="cls-6" d="M75.55,17.72c0,5.91,31.11,10.34,31.6,0,0,0,17.28,7.6,24.38,8.34S147.74,39.88,146,70.16c0,0-12.9,6.89-19,8.37l.24-4.68s-9.31,27.08-8.57,30S123.08,120,123.08,120s-27.36,13.63-62.64.33c0,0,2.37-10,2.37-17.15s-6.62-30.77-6.62-30.77l0,5.3S39,76.07,36.84,71.88c0,0-2.21-44.81,17.88-47.51C54.72,24.37,72.36,21.66,75.55,17.72Z"/><path class="cls-7" d="M75,19l-1.7,3.22,1.71-2.68.31.59-1,2.83,1.18-2.66,0,1.23.28-.94.43.35-.51,2,.81-1.8.77.66-.36.82.66-.74-.51,1.63L77.94,22l.21,0-.53,2.6.83-2.48.68.5-.29,2,.59-1.84,0,1.06.27-1,.68.36-.66,2.27,1-2.15L80.45,25l.65-1.45.64.24L81.47,25,82,23.86l1.24.44S77.66,22.4,75,19Z"/><path class="cls-7" d="M100.27,24.33l2,3.07-1.48-2.81.66,0,2,2.23-1.72-2.34,1.08.58-.68-.7.51-.21,1.48,1.41L102.88,24l1-.36.53.72-.32-.94,1.16,1.24-.89-1.39.14-.16,2,1.73L104.7,22.9l.76-.36L107,23.76l-1.31-1.42.94.5-.72-.72.65-.42,1.64,1.69-1.39-1.9,1.32,1-1-1.27.53-.45.9.82-.69-1,1-.87S104.52,23.71,100.27,24.33Z"/><path class="cls-7" d="M77.18,25s16.42,5.28,28.18.47C105.36,25.49,94.82,31.1,77.18,25Z"/><path class="cls-8" d="M57.06,62.77s1.46,14.28,21.24,13.3L67.68,116.69s2.31-26.1-2.87-33S55.48,71.14,57.06,62.77Z"/><path class="cls-8" d="M77.18,105.86s-8.91,14.45-6.31,16.37a12.62,12.62,0,0,0,4.43,2.29S70.48,120.88,77.18,105.86Z"/><path class="cls-8" d="M128.47,50.71s-9.56,2-4.9,21.21C123.57,71.92,122.59,54.4,128.47,50.71Z"/><path class="cls-8" d="M117.12,92.23s-6.22,20-1.38,28.24A142.71,142.71,0,0,1,117.12,92.23Z"/></g><g id="Cloudy_RainShoes" data-name="Cloudy/RainShoes"><path class="cls-9" d="M73.39,380.54s-7.84,9.53-2.61,14.77,19.6-1.31,20-3.93a94.35,94.35,0,0,0,0-10.28s.37,7.85-2.16,9.53-8.82,7.29-17.64,1.87C70.94,392.5,68.33,389.51,73.39,380.54Z"/><path class="cls-3" d="M86.47,371.91s.9-2,3,.56l.76-4.65s1.22,17,.09,20.94c-.54,1.93-4.85-2.05-4.85-2.05Z"/><path class="cls-3" d="M78.86,371.91s-1.11-2.1-2.94-1.12c0,0-1.46-2.66-.73-4.21a7.56,7.56,0,0,0-1.35,7s.44,4.95-.45,6.93c0,0-3.06,5.26-3.43,7.29l4.76-2.34A38.89,38.89,0,0,0,78.86,371.91Z"/><path class="cls-10" d="M73.72,386.13s5.7-9.71,4.71-17.09a7,7,0,0,1,7.84,0s1,13.47-.63,18.2Z"/><path class="cls-11" d="M70.59,387.24s8.13-7.24,19.33,1.38c0,0,2.17,4.89-11.06,6.69C67,396.92,70.59,387.24,70.59,387.24Z"/><polygon class="cls-11" points="74.72 382.67 80.46 380.16 76.28 378.48 76.28 377.53 80.46 379.23 86.53 377.93 86.48 378.86 81.1 380.1 85.98 382.67 85.81 383.36 80.63 381.29 74.72 383.27 74.72 382.67"/><polygon class="cls-11" points="75.85 376.84 81.59 374.33 77.42 372.64 77.42 371.69 81.59 373.39 87.67 372.09 87.62 373.03 82.23 374.27 87.11 376.84 86.94 377.53 81.76 375.45 75.85 377.44 75.85 376.84"/><path class="cls-12" d="M77.3,371.24a1,1,0,0,0,.25,1.91A1.62,1.62,0,0,1,77.3,371.24Z"/><path class="cls-12" d="M76,376.14s-1.43,1.12.24,1.91A1.61,1.61,0,0,1,76,376.14Z"/><path class="cls-12" d="M74.57,382.09a1,1,0,0,0,.25,1.91A1.62,1.62,0,0,1,74.57,382.09Z"/><path class="cls-12" d="M86.17,382.09s1.57,1.12-.27,1.91C85.9,384,86.89,383,86.17,382.09Z"/><path class="cls-12" d="M87.06,376.14s1.57,1.12-.27,1.91C86.79,378.05,87.78,377.07,87.06,376.14Z"/><path class="cls-12" d="M87.73,371.69s1.56,1.13-.27,1.92C87.46,373.61,88.44,372.63,87.73,371.69Z"/><path class="cls-13" d="M71.14,389.29s-.81,5.82,9.27,4.24C80.41,393.53,70.37,396,71.14,389.29Z"/><path class="cls-3" d="M98.54,370.08s-2.52-1.29-3.38.51c0,0-3.33-2.54-3.9-6.19a64.08,64.08,0,0,1-.48,18.32s0,5.25,1.22,6.15,6.23-5.12,6.23-5.12Z"/><path class="cls-3" d="M106.34,370.82a2.35,2.35,0,0,1,2.45-.31s-.8-3.95-2-5.14,4.64.9,3.22,15.91l3.65,5.66L108,384S105.81,372.15,106.34,370.82Z"/><path class="cls-10" d="M97.6,385.23s1.08-14.51.57-16.47a8.39,8.39,0,0,1,8.08,0s.53,12.15,2.81,15.12Z"/><path class="cls-9" d="M110.06,381.7s8.53,8.21,2.8,12.94-21.79-.56-22.19-2.93.29-9.92.29-9.92-.4,7.1,2.37,8.63,9.68,6.59,19.35,1.69C112.68,392.11,115.61,389.82,110.06,381.7Z"/><path class="cls-11" d="M92.17,389.52s9.41-13,20.5-3.17c0,0,4.44,8.28-5.68,8.21S95.49,392.79,92.17,389.52Z"/><polygon class="cls-11" points="109.05 382.26 103.68 379.75 107.59 378.07 107.59 377.12 103.68 378.81 97.99 377.51 98.03 378.45 103.08 379.69 98.51 382.26 98.67 382.95 103.52 380.87 109.05 382.86 109.05 382.26"/><polygon class="cls-11" points="107.99 376.43 102.62 373.92 106.53 372.23 106.53 371.28 102.62 372.98 96.93 371.68 96.97 372.61 102.02 373.85 97.45 376.43 97.61 377.12 102.46 375.04 107.99 377.03 107.99 376.43"/><path class="cls-12" d="M106.63,370.82a1.07,1.07,0,0,1-.23,1.92A1.69,1.69,0,0,0,106.63,370.82Z"/><path class="cls-12" d="M107.88,375.72s1.33,1.13-.23,1.92A1.71,1.71,0,0,0,107.88,375.72Z"/><path class="cls-12" d="M109.19,381.67s1.34,1.13-.23,1.92A1.69,1.69,0,0,0,109.19,381.67Z"/><path class="cls-12" d="M98.33,381.67s-1.47,1.13.25,1.92A1.6,1.6,0,0,1,98.33,381.67Z"/><path class="cls-12" d="M97.49,375.72a1,1,0,0,0,.26,1.92A1.6,1.6,0,0,1,97.49,375.72Z"/><path class="cls-12" d="M96.87,371.28a1,1,0,0,0,.25,1.92A1.6,1.6,0,0,1,96.87,371.28Z"/><path class="cls-13" d="M103.15,392.64s9.39,1.64,9.11-4.81C112.26,387.83,113.85,394.79,103.15,392.64Z"/></g></g></g></g></svg>