<svg xmlns="http://www.w3.org/2000/svg" viewBox="0 0 221.62 764.69"><defs><style>.cls-1{fill:#3d3a3c;}.cls-2{fill:#565556;}.cls-3{fill:#212021;}.cls-4{fill:#474546;}.cls-5{fill:#f4e6f2;}.cls-6{fill:#eac7e5;}.cls-7{fill:#efdfef;}.cls-8{fill:#999;}.cls-9{fill:#4f4c4f;}.cls-10{fill:#cccacc;}.cls-11{fill:#020202;}.cls-12{fill:#fff;}</style></defs><title>Asset 16</title><g id="Layer_2" data-name="Layer 2"><g id="ccg"><g id="ccgpants"><path class="cls-1" d="M48.5,210.55S93.64,244,175,210.55c0,0,15.69,30.76,19.95,51.09s5.5,103-25.84,209.41c0,0,1.77,16.52-1.49,27.93,0,0,14.61,57.68-18.77,157.87L144,692.67s-22.31,4-29.33-1.49c0,0,2.65-23.75-3.36-87,0,0,1.88-47,4.86-65.78a263.05,263.05,0,0,0,3.15-37.7S109.53,438,114.8,335.05c0,0-1,1.62-7.48.85,0,0,5.64,27.79-3.63,167.17,0,0,3.58,28.52,5.33,35.34,1.38,5.42,3.68,44.06-.83,68.61s0,84.9,0,84.9-20.63,5.72-30.41.26c0,0-7.39-31.59-18.11-75.83-10.55-43.57-6.89-96-6.89-96s5.51-47.87-.5-63.24S30.71,363.32,29,345.22,15.52,258.91,48.5,210.55Z"/><path class="cls-2" d="M73.9,675.71l3.88,16.47s8.33,6.19,30.41-.26l-1.3-16.21S85.4,681.15,73.9,675.71Z"/><path class="cls-2" d="M115.29,675.71s-.58,14-1.4,14.89c0,0,5.08,6.45,30.15,2.07l2.89-17S133.58,678.34,115.29,675.71Z"/><path class="cls-1" d="M106,676.88s-9.81,3.13-18.83,2.76A23.73,23.73,0,0,1,80,678.37v12.4l.83-11.08.33,6.94L82,680l.16,12.07L83,680.35l1.32,12.57V680.68L85.62,687l.33-6.28,1.66,10.42-.5-10.25,2.48,13.34-.66-13.34,1.49,2.48,1.15-2.65L93,683.33v-3l2.06,1.16v-1.33Z"/><path class="cls-1" d="M120.09,676.89s8.83,2.69,16.78,1.91a18.93,18.93,0,0,0,6.24-1.6l.63,12.39-1.29-11,.06,7L141.44,679l.47,12.06-1.33-11.69-.53,12.61-.62-12.22-.85,6.33-.61-6.25L137,690.26,137,680l-1.51,13.44-.09-13.36-1.19,2.55L133,680l-1.11,2.7-.16-3L130,681l-.07-1.32Z"/><path class="cls-2" d="M48.5,210.55s45.72,32.33,126.49,0l7.61,16.18s-85.37,39.39-141.52-3.56C41.08,223.17,46.6,212,48.5,210.55Z"/><path class="cls-1" d="M93.15,226.34s-18.78-.93-32.2-7.05a83.44,83.44,0,0,1-10.32-5.5L45,224.44l6.54-9.22-4.8,10,6.43-9-3.85,9.12,5.25-8.25-1.67,9.27,3.55-8.19-1,7,3.44-5.91-.55,8.05,2.24-7.19-.93,13,3.66-11.86,1.51,2.63,2.5-1,1.34,2.68.87-2,2.76,2.12.66-1.52Z"/><path class="cls-1" d="M124.84,225.72s21-1.26,36.54-7.73a109.79,109.79,0,0,0,12-5.77L178.84,223l-6.55-9.3,4.55,10.09-6.46-9.07,3.56,9.24-5.19-8.33,1.11,9.43-3.31-8.29.51,7.11-3.36-6,0,8.2-1.92-7.29,0,13.28-3.12-12-1.9,2.71-2.72-1-1.71,2.76-.81-2-3.25,2.2-.62-1.54Z"/><path class="cls-3" d="M112.9,229s-3.63-3.14-6.61,0c0,0-28.27,6.94-26.29,18.68s26.29-15.59,26.29-15.59-10.91,32.29-16.37,36.26l1.32,2.48s15.71-21.33,17.2-37.7a2.17,2.17,0,0,0,2.91,0s1.88,30.09,12.3,42.49l2.31,1a129.15,129.15,0,0,1-12.23-43.48s8.43,12.73,19.18,15.54S128.61,229,112.9,229ZM83.14,247.17c-3.63-4.79,18.35-15.09,18.35-15.09S86.78,252,83.14,247.17Zm50.43-.82c-5.62,1-18.19-14.27-18.19-14.27S139.19,245.36,133.57,246.35Z"/><path class="cls-3" d="M92.12,228.91s-4.61,1.36-1.33,4.21C90.79,233.12,89.6,230,92.12,228.91Z"/><path class="cls-3" d="M126.87,228.16s2.48,2.35,1.12,5C128,233.12,130.72,229.28,126.87,228.16Z"/><path class="cls-2" d="M146.47,246.39s8.26,24.1,43,23.44C189.45,269.83,152.42,278.52,146.47,246.39Z"/><path class="cls-2" d="M78,246.39s-8.17,24.1-42.49,23.44C35.53,269.83,72.13,278.52,78,246.39Z"/><path class="cls-4" d="M57.52,235.27,45,247.92s12.74-6.84,14-10.17A21.6,21.6,0,0,1,55,250S63,244.73,64,240c0,0,3.31,2.64,2.48,6.39,0,0,2.15-4.8,1.33-6.39S61.16,239.2,57.52,235.27Z"/><path class="cls-4" d="M170.19,235.87l12.41,12.65s-12.58-6.84-13.87-10.17a21.75,21.75,0,0,0,3.91,12.23s-7.83-5.25-8.81-10c0,0-3.26,2.64-2.45,6.39,0,0-2.12-4.8-1.3-6.39S166.6,239.8,170.19,235.87Z"/></g><g id="ccgshirt"><path class="cls-5" d="M78.51,0c0,11.9,63,20.83,64,0,0,0,35,15.31,49.36,16.79s32.8,27.85,29.33,88.86c0,0-26.12,13.89-38.52,16.86l.5-9.43s-18.85,54.57-17.36,60.52S174.74,206,174.74,206s-55.39,27.44-126.81.66c0,0,4.79-20.17,4.79-34.56s-13.39-62-13.39-62l.07,10.68S4.61,117.55.14,109.12c0,0-4.46-90.27,36.21-95.73C36.35,13.39,72.06,7.94,78.51,0Z"/><path class="cls-6" d="M77.49,2.53,74,9l3.47-5.38.62,1.18-2,5.69,2.41-5.36.05,2.48.56-1.89.87.71-1,4,1.63-3.62,1.57,1.33-.74,1.64L82.83,8.3l-1,3.28,1.56-2.94.43.07L82.7,14l1.68-5,1.39,1-.59,4,1.2-3.71.05,2.14.55-2,1.38.74L87,15.65l2-4.32-.52,3.35,1.3-2.94,1.29.48-.54,2.41,1.14-2.25,2.5.88S82.79,9.43,77.49,2.53Z"/><path class="cls-6" d="M128.56,13.32l4,6.18-3-5.66,1.34,0,4,4.49-3.5-4.71,2.19,1.16-1.38-1.41,1-.41,3,2.84-2.37-3.19,1.93-.72,1.08,1.44-.65-1.89L138.55,14l-1.8-2.8.27-.34,4,3.5-3.54-3.91,1.55-.72,3.15,2.44-2.65-2.85,1.89,1L140,8.86,141.34,8l3.32,3.41L141.84,7.6l2.67,2.1-1.93-2.58,1.06-.89,1.83,1.65-1.4-2.1,2-1.74S137.16,12.07,128.56,13.32Z"/><path class="cls-6" d="M81.82,14.71s33.23,10.64,57,.94C138.86,15.65,117.53,27,81.82,14.71Z"/><path class="cls-7" d="M41.08,90.77s3,28.77,43,26.78l-21.5,81.84s4.68-52.57-5.82-66.46S37.88,107.63,41.08,90.77Z"/><path class="cls-7" d="M81.82,177.57s-18,29.12-12.77,33,9,4.62,9,4.62S68.26,207.82,81.82,177.57Z"/><path class="cls-7" d="M185.65,66.46s-19.34,4.13-9.92,42.74C175.73,109.2,173.75,73.9,185.65,66.46Z"/><path class="cls-7" d="M162.67,150.12s-12.58,40.31-2.78,56.88C159.89,207,158,177.24,162.67,150.12Z"/></g><g id="Cloudy_RainShoes" data-name="Cloudy/RainShoes"><path class="cls-8" d="M74.15,731s-15.88,19.21-5.3,29.76,39.7-2.64,40.43-7.91,0-20.72,0-20.72.74,15.82-4.38,19.21S87,766,69.19,755.06C69.19,755.06,63.89,749,74.15,731Z"/><path class="cls-2" d="M100.63,713.57s1.82-4,6,1.14l1.53-9.37s2.48,34.18.2,42.19c-1.11,3.88-9.83-4.15-9.83-4.15Z"/><path class="cls-2" d="M85.21,713.58s-2.23-4.24-5.95-2.26c0,0-3-5.37-1.48-8.48,0,0-5.49,6.25-2.73,14.16,0,0,.91,10-.9,14,0,0-6.2,10.6-6.94,14.69l9.63-4.71S84,727.84,85.21,713.58Z"/><path class="cls-9" d="M74.81,742.23s11.54-19.56,9.53-34.44c0,0,7.69-5.51,15.87,0,0,0,2.07,27.14-1.26,36.66Z"/><path class="cls-10" d="M68.48,744.45s16.45-14.58,39.13,2.78c0,0,4.39,9.86-22.4,13.48C61.11,764,68.48,744.45,68.48,744.45Z"/><polygon class="cls-10" points="76.84 735.26 88.46 730.2 80 726.81 80 724.89 88.46 728.32 100.76 725.69 100.66 727.58 89.76 730.08 99.64 735.26 99.28 736.65 88.8 732.46 76.84 736.47 76.84 735.26"/><polygon class="cls-10" points="79.13 723.5 90.75 718.44 82.29 715.05 82.29 713.14 90.75 716.56 103.05 713.94 102.95 715.82 92.05 718.32 101.93 723.5 101.57 724.89 91.09 720.7 79.13 724.71 79.13 723.5"/><path class="cls-11" d="M82.07,712.21s-2.9,2.26.49,3.86C82.56,716.07,80.75,714.1,82.07,712.21Z"/><path class="cls-11" d="M79.38,722.09s-2.89,2.26.5,3.86C79.88,726,78.06,724,79.38,722.09Z"/><path class="cls-11" d="M76.54,734.08s-2.9,2.26.49,3.86C77,737.94,75.21,736,76.54,734.08Z"/><path class="cls-11" d="M100,734.08s3.17,2.26-.55,3.86C99.47,737.94,101.47,736,100,734.08Z"/><path class="cls-11" d="M101.82,722.09s3.17,2.26-.54,3.86C101.28,726,103.27,724,101.82,722.09Z"/><path class="cls-11" d="M103.17,713.14s3.17,2.26-.55,3.86C102.62,717,104.62,715,103.17,713.14Z"/><path class="cls-12" d="M69.58,748.59s-1.64,11.71,18.77,8.54C88.35,757.13,68,762,69.58,748.59Z"/><path class="cls-2" d="M125.06,709.88s-5.1-2.59-6.83,1c0,0-6.75-5.13-7.9-12.48a129.21,129.21,0,0,1-1,36.91s.11,10.59,2.47,12.4,12.61-10.32,12.61-10.32Z"/><path class="cls-2" d="M140.84,711.38s2.59-2,5-.63c0,0-1.62-8-4.11-10.35s9.41,1.81,6.54,32.06l7.38,11.4-11.4-5.92S139.78,714.05,140.84,711.38Z"/><path class="cls-9" d="M123.15,740.42s2.19-29.24,1.16-33.2c0,0,8.12-4.8,16.36,0,0,0,1.07,24.49,5.69,30.47Z"/><path class="cls-8" d="M148.38,733.29s17.27,16.54,5.67,26.08-44.12-1.14-44.92-5.91.58-20,.58-20-.81,14.31,4.81,17.38,19.58,13.28,39.17,3.4C153.69,754.26,159.62,749.65,148.38,733.29Z"/><path class="cls-10" d="M112.16,749s19.06-26.18,41.5-6.38c0,0,9,16.69-11.5,16.54S118.89,755.64,112.16,749Z"/><polygon class="cls-10" points="146.34 734.42 135.46 729.37 143.38 725.98 143.38 724.06 135.46 727.48 123.94 724.86 124.04 726.74 134.25 729.24 124.99 734.42 125.32 735.82 135.14 731.63 146.34 735.63 146.34 734.42"/><polygon class="cls-10" points="144.2 722.67 133.32 717.61 141.24 714.22 141.24 712.31 133.32 715.73 121.8 713.11 121.89 714.99 132.1 717.49 122.84 722.67 123.18 724.06 133 719.87 144.2 723.88 144.2 722.67"/><path class="cls-11" d="M141.45,711.38s2.71,2.26-.47,3.86C141,715.24,142.69,713.26,141.45,711.38Z"/><path class="cls-11" d="M144,721.26s2.71,2.26-.46,3.86C143.5,725.12,145.2,723.14,144,721.26Z"/><path class="cls-11" d="M146.63,733.24s2.71,2.26-.47,3.86C146.16,737.1,147.87,735.13,146.63,733.24Z"/><path class="cls-11" d="M124.63,733.24s-3,2.26.51,3.86C125.14,737.1,123.28,735.13,124.63,733.24Z"/><path class="cls-11" d="M122.94,721.26s-3,2.26.51,3.86C123.45,725.12,121.59,723.14,122.94,721.26Z"/><path class="cls-11" d="M121.68,712.31s-3,2.26.51,3.86C122.19,716.17,120.33,714.19,121.68,712.31Z"/><path class="cls-12" d="M134.4,755.34s19,3.3,18.43-9.7C152.83,745.64,156.05,759.67,134.4,755.34Z"/></g></g></g></svg>