<svg xmlns="http://www.w3.org/2000/svg" viewBox="0 0 183 415"><defs><style>.cls-1{fill:none;}.cls-2{fill:#b4d3b2;}.cls-3{fill:#a4bca2;}.cls-4{fill:#474b6d;}.cls-5{fill:#3d4156;}.cls-6{fill:#2f323f;}.cls-7{fill:#212021;}.cls-8{fill:#999;}.cls-9{fill:#565556;}.cls-10{fill:#4f4c4f;}.cls-11{fill:#cccacc;}.cls-12{fill:#020202;}.cls-13{fill:#fff;}</style></defs><title>ccg2</title><g id="Layer_2" data-name="Layer 2"><g id="ccg2"><g id="ccg2-2" data-name="ccg2"><rect class="cls-1" width="183" height="415"/><g id="ccgshirt2"><path class="cls-2" d="M75.55,17.85c0,5.91,31.11,10.34,31.6,0,0,0,17.28,7.6,24.38,8.34S147.74,40,146,70.29c0,0-12.9,6.9-19,8.37l.24-4.68s-9.31,27.09-8.57,30,4.41,16.09,4.41,16.09-27.36,13.62-62.64.32c0,0,2.37-10,2.37-17.15s-6.62-30.77-6.62-30.77l0,5.3S39,76.2,36.84,72c0,0-2.21-44.81,17.88-47.52C54.72,24.5,72.36,21.79,75.55,17.85Z"/><path class="cls-3" d="M75,19.11l-1.7,3.22,1.71-2.67.31.58-1,2.83,1.18-2.66,0,1.23.28-.94.43.35-.51,2,.81-1.81.77.67-.36.81.66-.74-.51,1.63.77-1.46.21,0-.53,2.6.83-2.48.68.49-.29,2,.59-1.84,0,1.06.27-1,.68.36-.66,2.27,1-2.14-.26,1.66.65-1.46.64.24-.27,1.19L82,24l1.24.44S77.66,22.53,75,19.11Z"/><path class="cls-3" d="M100.27,24.46l2,3.07-1.48-2.81.66,0,2,2.23-1.72-2.34,1.08.58-.68-.7.51-.21,1.48,1.42-1.17-1.59,1-.36.53.72-.32-.94,1.16,1.24-.89-1.38.14-.17,2,1.74L104.7,23l.76-.37L107,23.89l-1.31-1.42.94.5-.72-.72.65-.42,1.64,1.69-1.39-1.89,1.32,1-1-1.27.53-.44.9.81-.69-1,1-.87S104.52,23.84,100.27,24.46Z"/><path class="cls-3" d="M77.18,25.16s16.42,5.27,28.18.46C105.36,25.62,94.82,31.23,77.18,25.16Z"/><path class="cls-3" d="M57.06,62.91S58.52,77.19,78.3,76.2L67.68,116.82s2.31-26.09-2.87-33S55.48,71.28,57.06,62.91Z"/><path class="cls-3" d="M77.18,106s-8.91,14.45-6.31,16.37a12.62,12.62,0,0,0,4.43,2.29S70.48,121,77.18,106Z"/><path class="cls-3" d="M128.47,50.84s-9.56,2-4.9,21.22C123.57,72.06,122.59,54.54,128.47,50.84Z"/><path class="cls-3" d="M117.12,92.37s-6.22,20-1.38,28.23A142.61,142.61,0,0,1,117.12,92.37Z"/></g><g id="ccgpants2"><path class="cls-4" d="M60.46,122s22.3,16.62,62.48,0c0,0,7.75,15.26,9.85,25.36s2.72,51.13-12.76,103.94c0,0,.87,8.2-.74,13.86,0,0,7.22,28.63-9.27,78.37l-2.37,17.77s-11,2-14.49-.74c0,0,1.31-11.79-1.66-43.18,0,0,.93-23.31,2.41-32.64A130.82,130.82,0,0,0,95.46,266s-4.85-31.14-2.25-82.23c0,0-.51.81-3.7.43,0,0,2.79,13.79-1.79,83,0,0,1.77,14.16,2.63,17.55.69,2.68,1.82,21.86-.41,34.05s0,42.14,0,42.14-10.19,2.84-15,.13c0,0-3.65-15.68-8.94-37.64-5.22-21.62-3.41-47.67-3.41-47.67s2.73-23.76-.25-31.39-10.65-46.53-11.51-55.52S44.17,146,60.46,122Z"/><path class="cls-5" d="M73,352.91l1.92,8.17s4.12,3.07,15-.13l-.64-8S78.69,355.61,73,352.91Z"/><path class="cls-5" d="M93.45,352.91s-.29,6.94-.69,7.39c0,0,2.51,3.2,14.89,1l1.43-8.41A51.21,51.21,0,0,1,93.45,352.91Z"/><path class="cls-6" d="M88.84,353.49a31.41,31.41,0,0,1-9.3,1.37,11.75,11.75,0,0,1-3.52-.64v6.16l.41-5.5.16,3.45L77,355l.08,6,.41-5.83.65,6.24v-6.08l.66,3.12.16-3.12.82,5.17-.25-5.08,1.23,6.62-.33-6.62.73,1.23.58-1.32.69,1.32v-1.48l1,.57v-.65Z"/><path class="cls-6" d="M95.82,353.49a24.65,24.65,0,0,0,8.29.95,9.31,9.31,0,0,0,3.08-.79l.32,6.14-.64-5.47,0,3.45-.53-3.26.23,6-.66-5.8-.26,6.26-.31-6.07L105,358l-.31-3.11-.46,5.2,0-5.09-.75,6.67,0-6.63-.59,1.26-.57-1.29-.55,1.35-.08-1.48-.87.62,0-.65Z"/><path class="cls-5" d="M60.46,122s22.58,16,62.48,0l3.76,8s-42.17,19.55-69.9-1.77C56.8,128.28,59.52,122.72,60.46,122Z"/><path class="cls-6" d="M82.51,129.86s-9.27-.47-15.9-3.51a40.46,40.46,0,0,1-5.1-2.72l-2.8,5.28,3.22-4.58-2.37,5,3.18-4.46-1.9,4.52,2.59-4.09-.82,4.6,1.75-4.07-.47,3.48,1.7-2.94-.27,4,1.1-3.56L66,133.22l1.81-5.88.74,1.3,1.24-.5.66,1.33.43-1,1.36,1.05.33-.75Z"/><path class="cls-6" d="M98.17,129.55s10.4-.63,18-3.84a51.69,51.69,0,0,0,5.91-2.87l2.71,5.35-3.24-4.62,2.25,5-3.19-4.5,1.76,4.58-2.56-4.13.55,4.68-1.64-4.12.25,3.54-1.66-3,0,4.07-.94-3.62,0,6.59-1.54-6-.94,1.35-1.34-.5-.84,1.37-.4-1-1.61,1.1-.3-.77Z"/><path class="cls-7" d="M92.27,131.17s-1.8-1.56-3.27,0c0,0-14,3.45-13,9.27s13-7.74,13-7.74-5.39,16-8.08,18l.65,1.23s7.76-10.59,8.5-18.71a1.05,1.05,0,0,0,1.43,0s.93,14.94,6.08,21.09l1.14.49a64.26,64.26,0,0,1-6-21.58s4.16,6.32,9.47,7.72S100,131.17,92.27,131.17Zm-14.7,9c-1.8-2.38,9.07-7.5,9.07-7.5S79.37,142.58,77.57,140.2Zm24.91-.41c-2.78.49-9-7.09-9-7.09S105.26,139.29,102.48,139.79Z"/><path class="cls-7" d="M82,131.13s-2.27.68-.65,2.09C81.35,133.22,80.76,131.68,82,131.13Z"/><path class="cls-7" d="M99.17,130.76a2.21,2.21,0,0,1,.55,2.46S101.07,131.31,99.17,130.76Z"/><path class="cls-5" d="M108.85,139.81s4.08,12,21.23,11.63C130.08,151.44,111.79,155.75,108.85,139.81Z"/><path class="cls-5" d="M75,139.81s-4,12-21,11.63C54.05,151.44,72.13,155.75,75,139.81Z"/><path class="cls-6" d="M64.91,134.29l-6.2,6.28s6.29-3.4,6.94-5a10.77,10.77,0,0,1-2,6.07s3.92-2.61,4.41-5a3.44,3.44,0,0,1,1.22,3.17s1.06-2.39.66-3.17S66.71,136.24,64.91,134.29Z"/><path class="cls-6" d="M120.57,134.58l6.13,6.28s-6.22-3.39-6.85-5a10.79,10.79,0,0,0,1.93,6.07s-3.87-2.61-4.35-5a3.47,3.47,0,0,0-1.21,3.18s-1-2.39-.65-3.18S118.8,136.53,120.57,134.58Z"/></g><g id="Cloudy_RainShoes" data-name="Cloudy/RainShoes"><path class="cls-8" d="M73.13,380.4s-7.84,9.54-2.62,14.77,19.61-1.3,20-3.92a94.35,94.35,0,0,0,0-10.28s.37,7.85-2.16,9.53-8.82,7.29-17.64,1.87C70.68,392.37,68.06,389.38,73.13,380.4Z"/><path class="cls-9" d="M86.21,371.78s.9-2,3,.56l.75-4.65s1.23,17,.1,20.94c-.55,1.93-4.86-2.06-4.86-2.06Z"/><path class="cls-9" d="M78.59,371.78s-1.1-2.1-2.94-1.12c0,0-1.45-2.67-.73-4.21a7.56,7.56,0,0,0-1.35,7s.45,4.94-.44,6.92c0,0-3.06,5.26-3.43,7.3l4.76-2.34A38.75,38.75,0,0,0,78.59,371.78Z"/><path class="cls-10" d="M73.45,386s5.71-9.71,4.71-17.09a7,7,0,0,1,7.84,0s1,13.47-.62,18.19Z"/><path class="cls-11" d="M70.33,387.1s8.12-7.23,19.33,1.38c0,0,2.16,4.9-11.07,6.69C66.69,396.79,70.33,387.1,70.33,387.1Z"/><polygon class="cls-11" points="74.46 382.54 80.2 380.03 76.02 378.35 76.02 377.4 80.2 379.1 86.27 377.79 86.22 378.73 80.84 379.97 85.72 382.54 85.54 383.23 80.36 381.15 74.46 383.14 74.46 382.54"/><polygon class="cls-11" points="75.59 376.71 81.33 374.2 77.15 372.51 77.15 371.56 81.33 373.26 87.4 371.96 87.35 372.89 81.97 374.13 86.85 376.71 86.67 377.4 81.5 375.32 75.59 377.31 75.59 376.71"/><path class="cls-12" d="M77,371.1a1,1,0,0,0,.25,1.92A1.63,1.63,0,0,1,77,371.1Z"/><path class="cls-12" d="M75.71,376a1,1,0,0,0,.25,1.91A1.62,1.62,0,0,1,75.71,376Z"/><path class="cls-12" d="M74.31,382s-1.43,1.13.24,1.92A1.63,1.63,0,0,1,74.31,382Z"/><path class="cls-12" d="M85.91,382s1.56,1.13-.27,1.92C85.64,383.87,86.62,382.89,85.91,382Z"/><path class="cls-12" d="M86.8,376s1.56,1.12-.27,1.91C86.53,377.92,87.51,376.94,86.8,376Z"/><path class="cls-12" d="M87.46,371.56s1.57,1.12-.27,1.92C87.19,373.48,88.18,372.5,87.46,371.56Z"/><path class="cls-13" d="M70.87,389.16s-.81,5.81,9.27,4.24C80.14,393.4,70.11,395.82,70.87,389.16Z"/><path class="cls-9" d="M98.28,370s-2.52-1.29-3.38.51c0,0-3.33-2.55-3.9-6.19a64.51,64.51,0,0,1-.48,18.32s0,5.25,1.22,6.15S98,383.62,98,383.62Z"/><path class="cls-9" d="M106.07,370.69a2.37,2.37,0,0,1,2.46-.31s-.8-3.95-2-5.14,4.65.9,3.23,15.91l3.65,5.66-5.64-2.94S105.55,372,106.07,370.69Z"/><path class="cls-10" d="M97.33,385.1s1.09-14.51.58-16.47a8.39,8.39,0,0,1,8.08,0s.53,12.15,2.81,15.12Z"/><path class="cls-8" d="M109.79,381.57s8.54,8.21,2.81,12.94-21.8-.56-22.19-2.93.29-9.92.29-9.92-.41,7.1,2.37,8.62,9.67,6.6,19.35,1.69C112.42,392,115.35,389.68,109.79,381.57Z"/><path class="cls-11" d="M91.9,389.38s9.42-13,20.51-3.16c0,0,4.44,8.28-5.68,8.21S95.23,392.66,91.9,389.38Z"/><polygon class="cls-11" points="108.79 382.13 103.42 379.62 107.33 377.94 107.33 376.98 103.42 378.68 97.72 377.38 97.77 378.31 102.81 379.56 98.24 382.13 98.41 382.82 103.26 380.74 108.79 382.73 108.79 382.13"/><polygon class="cls-11" points="107.73 376.29 102.36 373.78 106.27 372.1 106.27 371.15 102.36 372.85 96.66 371.55 96.71 372.48 101.75 373.72 97.18 376.29 97.35 376.98 102.2 374.9 107.73 376.89 107.73 376.29"/><path class="cls-12" d="M106.37,370.69a1.07,1.07,0,0,1-.23,1.92A1.71,1.71,0,0,0,106.37,370.69Z"/><path class="cls-12" d="M107.61,375.59a1.07,1.07,0,0,1-.23,1.92A1.71,1.71,0,0,0,107.61,375.59Z"/><path class="cls-12" d="M108.93,381.54a1.07,1.07,0,0,1-.23,1.92A1.71,1.71,0,0,0,108.93,381.54Z"/><path class="cls-12" d="M98.07,381.54s-1.47,1.12.25,1.92A1.6,1.6,0,0,1,98.07,381.54Z"/><path class="cls-12" d="M97.23,375.59s-1.47,1.12.25,1.92A1.6,1.6,0,0,1,97.23,375.59Z"/><path class="cls-12" d="M96.61,371.15s-1.47,1.12.25,1.92A1.6,1.6,0,0,1,96.61,371.15Z"/><path class="cls-13" d="M102.89,392.51s9.39,1.64,9.1-4.81C112,387.7,113.59,394.66,102.89,392.51Z"/></g></g></g></g></svg>