<svg xmlns="http://www.w3.org/2000/svg" viewBox="0 0 221.62 764.15"><defs><style>.cls-1{fill:#b4d3b2;}.cls-2{fill:#a4bca2;}.cls-3{fill:#474b6d;}.cls-4{fill:#3d4156;}.cls-5{fill:#2f323f;}.cls-6{fill:#212021;}.cls-7{fill:#999;}.cls-8{fill:#565556;}.cls-9{fill:#4f4c4f;}.cls-10{fill:#cccacc;}.cls-11{fill:#020202;}.cls-12{fill:#fff;}</style></defs><title>ccg2</title><g id="Layer_2" data-name="Layer 2"><g id="ccg2"><g id="ccg2-2" data-name="ccg2"><g id="ccgshirt2"><path class="cls-1" d="M78.51,0c0,11.9,63,20.83,64,0,0,0,35,15.31,49.36,16.79s32.8,27.85,29.33,88.86c0,0-26.12,13.89-38.52,16.86l.5-9.43s-18.85,54.57-17.36,60.52S174.74,206,174.74,206s-55.39,27.44-126.81.66c0,0,4.79-20.17,4.79-34.56s-13.39-62-13.39-62l.07,10.68S4.61,117.55.14,109.12c0,0-4.46-90.27,36.21-95.73C36.35,13.39,72.06,7.94,78.51,0Z"/><path class="cls-2" d="M77.49,2.53,74,9l3.47-5.38.62,1.18-2,5.69,2.41-5.36.05,2.48.56-1.89.87.71-1,4,1.63-3.62,1.57,1.33-.74,1.64L82.83,8.3l-1,3.28,1.56-2.94.43.07L82.7,14l1.68-5,1.39,1-.59,4,1.2-3.71.05,2.14.55-2,1.38.74L87,15.65l2-4.32-.52,3.35,1.3-2.94,1.29.48-.54,2.41,1.14-2.25,2.5.88S82.79,9.43,77.49,2.53Z"/><path class="cls-2" d="M128.56,13.32l4,6.18-3-5.66,1.34,0,4,4.49-3.5-4.71,2.19,1.16-1.38-1.41,1-.41,3,2.84-2.37-3.19,1.93-.72,1.08,1.44-.65-1.89L138.55,14l-1.8-2.8.27-.34,4,3.5-3.54-3.91,1.55-.72,3.15,2.44-2.65-2.85,1.89,1L140,8.86,141.34,8l3.32,3.41L141.84,7.6l2.67,2.1-1.93-2.58,1.06-.89,1.83,1.65-1.4-2.1,2-1.74S137.16,12.07,128.56,13.32Z"/><path class="cls-2" d="M81.82,14.71s33.23,10.64,57,.94C138.86,15.65,117.53,27,81.82,14.71Z"/><path class="cls-2" d="M41.08,90.77s3,28.77,43,26.78l-21.5,81.84s4.68-52.57-5.82-66.46S37.88,107.63,41.08,90.77Z"/><path class="cls-2" d="M81.82,177.57s-18,29.12-12.77,33,9,4.62,9,4.62S68.26,207.82,81.82,177.57Z"/><path class="cls-2" d="M185.65,66.46s-19.34,4.13-9.92,42.74C175.73,109.2,173.75,73.9,185.65,66.46Z"/><path class="cls-2" d="M162.67,150.12s-12.58,40.31-2.78,56.88C159.89,207,158,177.24,162.67,150.12Z"/></g><g id="ccgpants2"><path class="cls-3" d="M48,209.86s45.14,33.48,126.48,0c0,0,15.7,30.75,20,51.09s5.5,103-25.85,209.41c0,0,1.78,16.52-1.48,27.93,0,0,14.61,57.68-18.77,157.87L143.51,692s-22.31,4-29.34-1.49c0,0,2.66-23.76-3.36-87,0,0,1.89-47,4.87-65.77a263.05,263.05,0,0,0,3.15-37.7s-9.83-62.74-4.57-165.66c0,0-1,1.62-7.48.85,0,0,5.65,27.79-3.63,167.17,0,0,3.59,28.51,5.33,35.34,1.39,5.42,3.69,44-.82,68.61s0,84.9,0,84.9S87,697,77.25,691.49c0,0-7.4-31.59-18.11-75.83-10.55-43.57-6.9-96-6.9-96s5.52-47.86-.5-63.24S30.18,362.63,28.43,344.53,15,258.22,48,209.86Z"/><path class="cls-4" d="M73.36,675l3.89,16.47s8.33,6.19,30.41-.26L106.36,675S84.87,680.46,73.36,675Z"/><path class="cls-4" d="M114.75,675s-.58,14-1.39,14.89c0,0,5.08,6.45,30.15,2.07l2.89-17S133.05,677.65,114.75,675Z"/><path class="cls-5" d="M105.43,676.19S95.62,679.32,86.6,679a23.73,23.73,0,0,1-7.13-1.28v12.4L80.3,679l.33,6.94.82-6.61.17,12.07.82-11.74,1.33,12.56V680l1.32,6.28.33-6.28,1.65,10.41-.49-10.25,2.48,13.35-.66-13.35,1.48,2.48L91,680l1.41,2.64v-3l2.06,1.16v-1.33Z"/><path class="cls-5" d="M119.56,676.2s8.82,2.69,16.78,1.91a18.93,18.93,0,0,0,6.24-1.6l.63,12.39-1.3-11,.07,7-1.07-6.57.47,12.06-1.33-11.68-.53,12.61L138.9,679l-.85,6.33-.62-6.26-.93,10.48-.08-10.26-1.51,13.44-.1-13.36-1.19,2.55-1.15-2.59-1.11,2.7-.16-3-1.76,1.25-.07-1.32Z"/><path class="cls-4" d="M48,209.86s45.72,32.32,126.48,0L182.07,226s-85.37,39.4-141.52-3.55C40.55,222.48,46.07,211.27,48,209.86Z"/><path class="cls-5" d="M92.61,225.65s-18.77-.93-32.19-7.05a83.44,83.44,0,0,1-10.32-5.5l-5.68,10.65L51,214.52l-4.8,10,6.44-9-3.85,9.11L54,216.37l-1.67,9.27,3.56-8.19-1,7,3.44-5.92-.55,8L60,219.39l-.93,13,3.65-11.86,1.51,2.63,2.51-1,1.34,2.69.87-2L71.74,225l.67-1.53Z"/><path class="cls-5" d="M124.31,225s21.05-1.26,36.53-7.73a106.28,106.28,0,0,0,12-5.78l5.48,10.77-6.55-9.3,4.55,10.09L169.84,214l3.56,9.24-5.18-8.33,1.11,9.43L166,216.06l.51,7.11-3.36-6,0,8.2-1.91-7.29,0,13.29-3.12-12-1.9,2.7-2.72-1-1.71,2.76-.82-2-3.24,2.2-.62-1.54Z"/><path class="cls-6" d="M112.37,228.3s-3.64-3.15-6.61,0c0,0-28.28,6.94-26.29,18.68s26.29-15.59,26.29-15.59-10.92,32.29-16.37,36.26l1.32,2.48s15.71-21.34,17.2-37.7a2.16,2.16,0,0,0,2.9,0s1.89,30.09,12.31,42.49l2.31,1a129.15,129.15,0,0,1-12.23-43.48s8.43,12.73,19.18,15.54S128.08,228.3,112.37,228.3ZM82.61,246.48C79,241.69,101,231.39,101,231.39S86.25,251.28,82.61,246.48Zm50.43-.82c-5.62,1-18.19-14.27-18.19-14.27S138.66,244.66,133,245.66Z"/><path class="cls-6" d="M91.58,228.21s-4.6,1.37-1.32,4.22C90.26,232.43,89.06,229.33,91.58,228.21Z"/><path class="cls-6" d="M126.34,227.47s2.48,2.35,1.12,5C127.46,232.43,130.18,228.59,126.34,227.47Z"/><path class="cls-4" d="M145.93,245.7s8.27,24.09,43,23.43C188.92,269.13,151.88,277.82,145.93,245.7Z"/><path class="cls-4" d="M77.48,245.7S69.31,269.79,35,269.13C35,269.13,71.6,277.82,77.48,245.7Z"/><path class="cls-5" d="M57,234.58,44.42,247.23s12.74-6.84,14-10.17a21.53,21.53,0,0,1-4,12.23s7.94-5.25,8.93-10c0,0,3.31,2.64,2.48,6.39,0,0,2.15-4.8,1.32-6.39S60.62,238.51,57,234.58Z"/><path class="cls-5" d="M169.66,235.18l12.41,12.65s-12.58-6.85-13.88-10.17a21.82,21.82,0,0,0,3.92,12.23s-7.83-5.26-8.81-10c0,0-3.27,2.63-2.45,6.39,0,0-2.12-4.81-1.31-6.39S166.07,239.1,169.66,235.18Z"/></g><g id="Cloudy_RainShoes" data-name="Cloudy/RainShoes"><path class="cls-7" d="M73.61,730.42s-15.87,19.21-5.29,29.76,39.69-2.64,40.42-7.91,0-20.72,0-20.72.75,15.82-4.38,19.21-17.85,14.69-35.71,3.77C68.65,754.53,63.36,748.5,73.61,730.42Z"/><path class="cls-8" d="M100.1,713s1.81-3.95,6,1.13l1.53-9.37s2.48,34.19.19,42.19c-1.1,3.89-9.83-4.14-9.83-4.14Z"/><path class="cls-8" d="M84.68,713s-2.24-4.23-6-2.26c0,0-2.94-5.36-1.47-8.47,0,0-5.49,6.24-2.73,14.16,0,0,.9,10-.91,13.95,0,0-6.19,10.59-6.93,14.69l9.63-4.71S83.51,727.31,84.68,713Z"/><path class="cls-9" d="M74.27,741.69s11.55-19.56,9.54-34.44c0,0,7.69-5.51,15.87,0,0,0,2.07,27.15-1.26,36.66Z"/><path class="cls-10" d="M68,743.91s16.44-14.58,39.12,2.79c0,0,4.39,9.86-22.39,13.48C60.58,763.43,68,743.91,68,743.91Z"/><polygon class="cls-10" points="76.31 734.72 87.92 729.66 79.47 726.27 79.47 724.36 87.92 727.78 100.22 725.16 100.12 727.04 89.22 729.54 99.1 734.72 98.75 736.11 88.27 731.92 76.31 735.93 76.31 734.72"/><polygon class="cls-10" points="78.6 722.97 90.22 717.91 81.76 714.52 81.76 712.6 90.22 716.03 102.51 713.4 102.41 715.29 91.52 717.79 101.39 722.97 101.04 724.36 90.56 720.17 78.6 724.18 78.6 722.97"/><path class="cls-11" d="M81.54,711.68s-2.9,2.26.49,3.86C82,715.54,80.21,713.56,81.54,711.68Z"/><path class="cls-11" d="M78.85,721.56s-2.89,2.26.5,3.86C79.35,725.42,77.53,723.44,78.85,721.56Z"/><path class="cls-11" d="M76,733.54s-2.89,2.26.5,3.86C76.5,737.4,74.68,735.43,76,733.54Z"/><path class="cls-11" d="M99.48,733.54s3.17,2.26-.54,3.86C98.94,737.4,100.93,735.43,99.48,733.54Z"/><path class="cls-11" d="M101.29,721.56s3.17,2.26-.54,3.86C100.75,725.42,102.74,723.44,101.29,721.56Z"/><path class="cls-11" d="M102.63,712.6s3.17,2.26-.54,3.87C102.09,716.47,104.08,714.49,102.63,712.6Z"/><path class="cls-12" d="M69.05,748.06s-1.64,11.71,18.77,8.54C87.82,756.6,67.5,761.47,69.05,748.06Z"/><path class="cls-8" d="M124.53,709.35s-5.1-2.59-6.83,1c0,0-6.75-5.13-7.9-12.47a129.2,129.2,0,0,1-1,36.91s.1,10.58,2.47,12.4,12.61-10.33,12.61-10.33Z"/><path class="cls-8" d="M140.31,710.85s2.59-2,5-.63c0,0-1.61-8-4.1-10.35s9.41,1.81,6.53,32l7.39,11.4-11.41-5.92S139.25,713.51,140.31,710.85Z"/><path class="cls-9" d="M122.62,739.88s2.19-29.24,1.16-33.19c0,0,8.12-4.8,16.36,0,0,0,1.07,24.48,5.69,30.46Z"/><path class="cls-7" d="M147.84,732.76s17.28,16.54,5.68,26.08-44.12-1.14-44.92-5.91.58-20,.58-20-.82,14.31,4.8,17.37,19.59,13.29,39.17,3.41C153.15,753.73,159.09,749.11,147.84,732.76Z"/><path class="cls-10" d="M111.62,748.51s19.07-26.18,41.51-6.38c0,0,9,16.69-11.5,16.54S118.36,755.1,111.62,748.51Z"/><polygon class="cls-10" points="145.81 733.89 134.93 728.83 142.85 725.44 142.85 723.53 134.93 726.95 123.41 724.33 123.5 726.21 133.71 728.71 124.46 733.89 124.79 735.28 134.61 731.09 145.81 735.1 145.81 733.89"/><polygon class="cls-10" points="143.66 722.14 132.78 717.08 140.7 713.69 140.7 711.77 132.78 715.19 121.26 712.57 121.36 714.45 131.57 716.95 122.31 722.14 122.64 723.53 132.46 719.34 143.66 723.34 143.66 722.14"/><path class="cls-11" d="M140.91,710.85s2.71,2.26-.46,3.86C140.45,714.71,142.15,712.73,140.91,710.85Z"/><path class="cls-11" d="M143.43,720.72s2.71,2.26-.47,3.86C143,724.58,144.67,722.61,143.43,720.72Z"/><path class="cls-11" d="M146.09,732.71s2.72,2.26-.46,3.86C145.63,736.57,147.33,734.59,146.09,732.71Z"/><path class="cls-11" d="M124.1,732.71s-3,2.26.51,3.86C124.61,736.57,122.74,734.59,124.1,732.71Z"/><path class="cls-11" d="M122.41,720.72s-3,2.26.51,3.86C122.92,724.58,121.05,722.61,122.41,720.72Z"/><path class="cls-11" d="M121.15,711.77s-3,2.26.51,3.86C121.66,715.63,119.79,713.66,121.15,711.77Z"/><path class="cls-12" d="M133.86,754.81s19,3.29,18.44-9.7C152.3,745.11,155.52,759.14,133.86,754.81Z"/></g></g></g></g></svg>