<?xml version="1.0" encoding="utf-8"?>
<!-- Generator: Adobe Illustrator 22.1.0, SVG Export Plug-In . SVG Version: 6.00 Build 0)  -->
<svg version="1.1" id="Layer_1" xmlns="http://www.w3.org/2000/svg" xmlns:xlink="http://www.w3.org/1999/xlink" x="0px" y="0px"
	 viewBox="0 0 183 415" style="enable-background:new 0 0 183 415;" xml:space="preserve">
<style type="text/css">
	.st0{fill:none;}
	.st1{fill:#262626;}
	.st2{fill:#777777;}
	.st3{fill:#8B70A0;}
	.st4{fill:#78628E;}
	.st5{fill:#A2A2A3;}
	.st6{fill:#B7B7B7;}
</style>
<title>cfg</title>
<g id="Layer_2_1_">
	<g id="cfg">
		<g id="cfg-2">
			<rect class="st0" width="183" height="415"/>
			<g id="dressshoes_girl">
				<path class="st1" d="M75,363.7c0,0,0.9,17.1,6,17.4s10-18,10-18s-0.8,9,0,11.3s0.8,11.1-0.3,12.7s-11.3,4-13.1,4s-8.4-3-8.8-5.4
					s3.7-4.7,3.7-7.2S75,363.7,75,363.7z"/>
				<path class="st2" d="M71.8,382.4c0,0-0.5,5.5,6,6.3C77.9,388.7,70.7,389.7,71.8,382.4z"/>
				<path class="st1" d="M108.5,364.4c0,0-1.4,16.4-6.4,16.6s-10.6-18-10.6-18s1.4,9,0.7,11.3s-1.9,11.3-0.8,12.9s12.4,3.8,14.1,3.8
					s8.4-3,8.8-5.4s-3.2-4.7-3.2-7.2S108.5,364.4,108.5,364.4z"/>
				<path class="st2" d="M111.2,382.4c0,0,0.5,5.5-6.1,6.3C105.1,388.7,112.3,389.7,111.2,382.4z"/>
			</g>
			<g id="cfgskirt">
				<path class="st3" d="M63.9,110.3c0,0,20.4,17.3,55.1,1.4c0,0,30.1,44.4,7.2,115.1c0,0-6.6,23.6-5.6,27.8
					c1,4.2-2.3,8.7-12.3-10.4c0,0-6.7,6.4-16.8-10.2s-25.9-53.6-40.9-50.5C50.6,183.4,39.7,150.8,63.9,110.3z"/>
				<path class="st4" d="M54.5,166.2c0,0,38.4,10.9,54.4,49c15.9,37.8,15.2,15.8,15.2,15.8s-3.2,18.1-13.3-15.7
					S54.5,166.2,54.5,166.2z"/>
				<path class="st4" d="M56.2,162.4c0,0,44.9,10.7,52.7,32.3s17.1,20.5,17.1,20.5s-10.7-5.1-15.2-21.7
					C108.7,185.6,97.2,170.3,56.2,162.4z"/>
				<path class="st4" d="M57.2,178.9c0,0,33.1,12.7,40,38c0,0,3.7,8.9,9.9,10.7c0,0-6.2-6-8.8-12.3
					C95.8,209.5,92.5,191.3,57.2,178.9z"/>
				<path class="st4" d="M83.2,212.6c0,0,13.7,32.3,23,29.6C106.2,242.2,99,240.3,83.2,212.6z"/>
				<polygon class="st4" points="66.9,112.6 62.5,122.3 67.9,113.3 				"/>
				<polygon class="st4" points="72.4,115.1 70.5,124.2 73.4,115.5 				"/>
				<polygon class="st4" points="117.8,114.1 122.3,123.8 116.8,114.8 				"/>
				<polygon class="st4" points="112.3,116.6 114.2,125.7 111.4,117 				"/>
			</g>
			<g id="cfgshirt">
				<path class="st3" d="M62.9,22.8c0,0-21.1,3.4-24.9,2s1.5,4.8,1.5,4.8s-2.8,2.1,0,5.3c0,0-2,3,4.8,5.6s13.5,19.5,13.5,19.5
					l-1.1,10.3c0,0-0.8,9.3,5.8,15.4c0,0,3.8,13.4,1.9,24.4c0,0,20.7,20.2,55.1,1.4c0,0-2.4-6.5,0.9-26.2c0,0,6.1-10.6,6.3-17.7
					s-1.4-9.8-1.4-9.8s1.3-12.6,6-16c4.7-3.4,6.5-5.3,3.5-6.1c0,0,6.1-0.7,5.6-4c0,0,2.8-0.5,1.5-3.8c0,0,3.3-1.8,4.3-3.6
					s-2.3,0-4.9,0.2S113.5,21,113.5,21s19.7,4.1,4.7,30.6c0,0-39.5,2.8-52.2-0.9C66,50.8,49.6,35.9,62.9,22.8z"/>
				<path class="st4" d="M58.6,71.7c0,0-1.3,9.2,6.3,13.3c0,0,3.6,18.9,1.8,24.5c0,0,6.5-17.7,4.6-24.5C71.3,85,60,84.8,58.6,71.7z"
					/>
				<path class="st4" d="M123.8,70.3c0,0,1.3,9.2-6.3,13.4c0,0-3.6,18.9-1.8,24.5c0,0-6.5-17.7-4.6-24.5
					C111.1,83.7,122.4,83.5,123.8,70.3z"/>
				<path class="st4" d="M42.6,25.1h-3.3c-0.6,0.4-0.7,1.2-0.3,1.8c0.1,0.1,0.2,0.2,0.3,0.3c0.8,0.8,1.5,1.7,2.1,2.6
					c-0.9,1.4-0.8,3.2,0.4,4.5c0,0-0.9,4,3.9,7c0,0,6-2.8,12.8,14.1c0,0-3.5-15.6-12.5-16c0,0-4.1-3.3-1.2-4.8c0,0-3.7-2.5-1-4.8
					C43.7,29.7,37.6,25.5,42.6,25.1z"/>
				<path class="st4" d="M139.4,24.4c0,0,4,0.1,4.3,0.7s-3.8,2.4-3.8,2.4c0.5,1.4-0.1,2.9-1.4,3.7c0,0,0.6,2.3-3.7,3.2
					c0,0,0.5,3.8-5.1,6.7c0,0-5.4,1-8.6,12c0,0,1.9-10.8,7.9-13.5c0,0,5.2-2.5,4.4-6c0,0,4.8-1.4,3.6-3.5c0.9-0.1,1.6-0.9,1.6-1.8
					c0-0.3-0.1-0.6-0.3-0.9C138.4,27.5,144.5,25.4,139.4,24.4z"/>
				<path class="st4" d="M64.4,110.3c0,0,29.6,19,55.1,1.4c0,0-1.1-1.6-1-5.1c0,0-23.8,14.6-53.5-1.2L64.4,110.3z"/>
				<path class="st5" d="M96.3,111.7H90c-1,0-1.8,0.8-1.8,1.8c0,0,0,0,0,0v4.6c0,1,0.8,1.8,1.8,1.8c0,0,0,0,0,0h6.2
					c1,0,1.8-0.8,1.8-1.8v-4.6C98.1,112.5,97.3,111.7,96.3,111.7z M95.8,117.2c0,0.4-0.3,0.8-0.7,0.8c0,0,0,0,0,0h-3.7
					c-0.4,0-0.8-0.3-0.8-0.7c0,0,0,0,0,0v-2.9c0-0.4,0.3-0.8,0.7-0.8c0,0,0,0,0,0H95c0.4,0,0.8,0.3,0.8,0.8L95.8,117.2z"/>
				<path class="st6" d="M95.2,112.1l-5.1,0.2c-0.9,0.1-1.5,1-1.3,1.8l0.2,4.8l0.6-4.7c0-0.6,0.4-1.2,1-1.3
					C91.5,112.6,95.2,112.1,95.2,112.1z"/>
			</g>
		</g>
	</g>
</g>
</svg>
