<svg xmlns="http://www.w3.org/2000/svg" viewBox="0 0 222.14 751.63"><defs><style>.cls-1{fill:#262626;}.cls-2{fill:#777;}.cls-3{fill:#e03b6e;}.cls-4{fill:#c13d6c;}.cls-5{fill:#a2a2a3;}.cls-6{fill:#b7b7b7;}</style></defs><title>cfg2</title><g id="Layer_2" data-name="Layer 2"><g id="cfg2"><g id="cfg2-2" data-name="cfg2"><g id="dressshoes_girl" data-name="dressshoes girl"><path class="cls-1" d="M78,696.67s1.86,34.46,12.11,35,20.2-36.22,20.2-36.22-1.55,18.14,0,22.72,1.72,22.31-.49,25.53-23,8-26.45,8-17.09-5.94-17.8-11,7.55-9.53,7.55-14.53S78,696.67,78,696.67Z"/><path class="cls-2" d="M71.58,734.38s-.93,11,12.25,12.75C83.83,747.13,69.35,749.13,71.58,734.38Z"/><path class="cls-1" d="M145.83,698.13s-2.79,33-13,33.5-21.52-36.22-21.52-36.22,2.88,18.14,1.33,22.72-3.85,22.73-1.65,26,25.09,7.55,28.59,7.55,17.1-5.94,17.8-11-6.55-9.53-6.55-14.53S145.83,698.13,145.83,698.13Z"/><path class="cls-2" d="M151.29,734.38s.93,11-12.25,12.75C139,747.13,153.53,749.13,151.29,734.38Z"/></g><g id="cfgskirt"><path class="cls-3" d="M56.18,179s40.22,34.81,110.58,2.76c0,0,61,89.46,14.69,232,0,0-13.32,47.5-11.32,56s-4.64,17.5-25-21c0,0-13.57,13-34-20.5s-52.46-108-82.71-101.77C28.38,326.48,7.23,260.81,56.18,179Z"/><path class="cls-4" d="M36.13,291.79s77.69,22,110.15,98.74c32.21,76.2,30.85,31.72,30.85,31.72s-6.5,36.55-27-31.72S36.13,291.79,36.13,291.79Z"/><path class="cls-4" d="M39.6,284.14s90.83,21.61,106.68,65.11,34.57,41.29,34.57,41.29-21.72-10.29-30.72-43.79C145.84,330.79,122.57,300,39.6,284.14Z"/><path class="cls-4" d="M41.63,317.25s67,25.59,81,76.5c0,0,7.5,18,20,21.5,0,0-12.5-12-17.91-24.72C119.83,379.05,113.13,342.25,41.63,317.25Z"/><path class="cls-4" d="M94.23,385.26s27.67,65,46.67,59.67C140.9,444.93,126.23,440.93,94.23,385.26Z"/><polygon class="cls-4" points="61.29 183.78 52.29 203.25 63.29 185.09 61.29 183.78"/><polygon class="cls-4" points="72.42 188.79 68.64 207.15 74.38 189.51 72.42 188.79"/><polygon class="cls-4" points="164.41 186.85 173.41 206.32 162.41 188.16 164.41 186.85"/><polygon class="cls-4" points="153.29 191.87 157.06 210.22 151.32 192.58 153.29 191.87"/></g><g id="cfgshirt"><path class="cls-3" d="M53.16,3.5S10.44,10.3,2.77,7.63s3,9.67,3,9.67S.11,21.63,5.77,28c0,0-4,6,9.67,11.33S42.77,78.63,42.77,78.63L40.58,99.4s-1.7,18.7,11.75,31.09c0,0,7.61,27,3.83,49.26,0,0,42,40.71,111.58,2.76,0,0-5-13,1.87-52.78,0,0,12.33-21.4,12.75-35.75s-2.92-19.68-2.92-19.68S182.12,49,191.61,42s13.16-10.67,7.16-12.34c0,0,12.34-1.33,11.34-8,0,0,5.66-1,3-7.66,0,0,6.66-3.67,8.66-7.34s-4.66,0-10,.34S155.6,0,155.6,0s39.84,8.3,9.51,61.72c0,0-80,5.58-105.67-1.75C59.44,60,26.21,30,53.16,3.5Z"/><path class="cls-4" d="M44.39,102s-2.62,18.61,12.72,27c0,0,7.33,38,3.66,49.33,0,0,13.15-35.67,9.41-49.33C70.18,129,47.29,128.43,44.39,102Z"/><path class="cls-4" d="M176.49,99.35s2.62,18.61-12.72,26.94c0,0-7.33,38-3.66,49.34,0,0-13.15-35.67-9.41-49.34C150.7,126.29,173.59,125.75,176.49,99.35Z"/><path class="cls-4" d="M12.11,8.19H5.36s-2.5,1.78,0,4.28a34.92,34.92,0,0,1,4.25,5.25,7.23,7.23,0,0,0,.75,9s-1.88,8,7.93,14.1c0,0,12.05-5.6,25.93,28.4,0,0-7.11-31.5-25.36-32.25,0,0-8.25-6.75-2.5-9.75,0,0-7.5-5-2-9.75C14.36,17.47,1.94,8.9,12.11,8.19Z"/><path class="cls-4" d="M208,6.78s8.09.26,8.71,1.41-7.62,4.9-7.62,4.9a6.17,6.17,0,0,1-2.75,7.38s1.25,4.62-7.5,6.5c0,0,1,7.62-10.25,13.5,0,0-11,2.12-17.5,24.25,0,0,3.87-21.75,16-27.13,0,0,10.62-5,9-12,0,0,9.62-2.87,7.37-7.12,0,0,4.88-.75,2.5-5.38C206,13.09,218.43,8.84,208,6.78Z"/><path class="cls-4" d="M56.16,179.75s59.89,38.3,111.58,2.76c0,0-2.2-3.21-2-10.21,0,0-48.14,29.33-108.23-2.33Z"/><path class="cls-5" d="M120.73,182.59H108.06a3.7,3.7,0,0,0-3.68,3.69v9.29a3.7,3.7,0,0,0,3.68,3.68h12.67a3.7,3.7,0,0,0,3.69-3.68v-9.29A3.7,3.7,0,0,0,120.73,182.59Zm-1,11.23a1.54,1.54,0,0,1-1.53,1.53H110.6a1.54,1.54,0,0,1-1.53-1.53V188a1.53,1.53,0,0,1,1.53-1.52h7.59a1.53,1.53,0,0,1,1.53,1.52Z"/><path class="cls-6" d="M118.61,183.47l-10.32.33a3.24,3.24,0,0,0-2.68,3.67l.31,9.62,1.19-9.37a2.79,2.79,0,0,1,2-2.69C111.11,184.41,118.61,183.47,118.61,183.47Z"/></g></g></g></g></svg>