<?xml version="1.0" encoding="utf-8"?>
<!-- Generator: Adobe Illustrator 22.1.0, SVG Export Plug-In . SVG Version: 6.00 Build 0)  -->
<svg version="1.1" id="Layer_1" xmlns="http://www.w3.org/2000/svg" xmlns:xlink="http://www.w3.org/1999/xlink" x="0px" y="0px"
	 viewBox="0 0 183 415" style="enable-background:new 0 0 183 415;" xml:space="preserve">
<style type="text/css">
	.st0{fill:none;}
	.st1{fill:#262626;}
	.st2{fill:#777777;}
	.st3{fill:#E03B6E;}
	.st4{fill:#C13D6C;}
	.st5{fill:#A2A2A3;}
	.st6{fill:#B7B7B7;}
</style>
<title>cfg2</title>
<g id="Layer_2_1_">
	<g id="cfg2">
		<g id="cfg2-2">
			<rect class="st0" width="183" height="415"/>
			<g id="dressshoes_girl">
				<path class="st1" d="M76.2,364.8c0,0,0.9,17.1,6,17.4s10-18,10-18s-0.8,9,0,11.3s0.8,11.1-0.2,12.7s-11.3,4-13.1,4
					s-8.4-3-8.8-5.4s3.7-4.7,3.7-7.2S76.2,364.8,76.2,364.8z"/>
				<path class="st2" d="M73,383.5c0,0-0.5,5.5,6,6.3C79.1,389.8,71.9,390.8,73,383.5z"/>
				<path class="st1" d="M109.7,365.5c0,0-1.4,16.4-6.4,16.6s-10.6-18-10.6-18s1.4,9,0.7,11.3s-1.9,11.3-0.8,12.9s12.4,3.8,14.1,3.8
					s8.4-3,8.8-5.4s-3.2-4.7-3.2-7.2S109.7,365.5,109.7,365.5z"/>
				<path class="st2" d="M112.4,383.5c0,0,0.5,5.5-6.1,6.3C106.3,389.8,113.5,390.8,112.4,383.5z"/>
			</g>
			<g id="cfgskirt">
				<path class="st3" d="M65.4,108.8c0,0,19.9,17.3,54.6,1.4c0,0,30.1,44.4,7.2,115.1c0,0-6.6,23.6-5.6,27.8
					c1,4.2-2.3,8.7-12.3-10.4c0,0-6.7,6.4-16.8-10.2S66.6,178.9,51.7,182C51.7,182,41.2,149.4,65.4,108.8z"/>
				<path class="st4" d="M55.5,164.8c0,0,38.4,10.9,54.4,49c15.9,37.8,15.2,15.8,15.2,15.8s-3.2,18.1-13.3-15.8
					S55.5,164.8,55.5,164.8z"/>
				<path class="st4" d="M57.2,161c0,0,44.9,10.7,52.7,32.3s17.1,20.5,17.1,20.5s-10.7-5.1-15.2-21.7
					C109.7,184.2,98.2,168.9,57.2,161z"/>
				<path class="st4" d="M58.2,177.4c0,0,33.1,12.7,40,38c0,0,3.7,8.9,9.9,10.7c0,0-6.2-5.9-8.8-12.3
					C96.8,208.1,93.5,189.8,58.2,177.4z"/>
				<path class="st4" d="M84.2,211.2c0,0,13.7,32.3,23,29.6C107.2,240.8,100,238.8,84.2,211.2z"/>
				<polygon class="st4" points="67.9,111.2 63.5,120.8 68.9,111.8 				"/>
				<polygon class="st4" points="73.4,113.7 71.5,122.8 74.4,114 				"/>
				<polygon class="st4" points="118.8,112.7 123.3,122.4 117.9,113.4 				"/>
				<polygon class="st4" points="113.3,115.2 115.2,124.3 112.4,115.6 				"/>
			</g>
			<g id="cfgshirt">
				<path class="st3" d="M63.9,21.7c0,0-21.1,3.4-24.9,2s1.5,4.8,1.5,4.8s-2.8,2.1,0,5.3c0,0-2,3,4.8,5.6S58.8,59,58.8,59l-1.1,10.3
					c0,0-0.8,9.3,5.8,15.4c0,0,3.8,13.4,1.9,24.5c0,0,20.7,20.2,55.1,1.4c0,0-2.4-6.5,0.9-26.2c0,0,6.1-10.6,6.3-17.7
					s-1.4-9.8-1.4-9.8s1.3-12.6,6-16c4.7-3.5,6.5-5.3,3.5-6.1c0,0,6.1-0.7,5.6-4c0,0,2.8-0.5,1.5-3.8c0,0,3.3-1.8,4.3-3.6
					s-2.3,0-4.9,0.2S114.5,20,114.5,20s19.7,4.1,4.7,30.6c0,0-39.5,2.8-52.2-0.9C67,49.7,50.6,34.9,63.9,21.7z"/>
				<path class="st4" d="M59.6,70.6c0,0-1.3,9.2,6.3,13.4c0,0,3.6,18.9,1.8,24.5c0,0,6.5-17.7,4.6-24.5C72.3,84,61,83.7,59.6,70.6z"
					/>
				<path class="st4" d="M124.8,69.3c0,0,1.3,9.2-6.3,13.4c0,0-3.6,18.9-1.8,24.5c0,0-6.5-17.7-4.6-24.5
					C112.1,82.7,123.4,82.4,124.8,69.3z"/>
				<path class="st4" d="M43.6,24h-3.3c-0.6,0.4-0.7,1.2-0.3,1.8c0.1,0.1,0.2,0.2,0.3,0.3c0.8,0.8,1.5,1.7,2.1,2.6
					c-0.9,1.4-0.8,3.2,0.4,4.5c0,0-0.9,4,3.9,7c0,0,6-2.8,12.8,14.1c0,0-3.5-15.6-12.5-16c0,0-4.1-3.3-1.2-4.8c0,0-3.7-2.5-1-4.8
					C44.7,28.6,38.6,24.4,43.6,24z"/>
				<path class="st4" d="M140.4,23.3c0,0,4,0.1,4.3,0.7s-3.8,2.4-3.8,2.4c0.5,1.4-0.1,2.9-1.4,3.7c0,0,0.6,2.3-3.7,3.2
					c0,0,0.5,3.8-5.1,6.7c0,0-5.4,1-8.6,12c0,0,1.9-10.8,7.9-13.5c0,0,5.2-2.5,4.4-6c0,0,4.8-1.4,3.6-3.5c0.9-0.1,1.6-0.9,1.6-1.8
					c0-0.3-0.1-0.6-0.3-0.9C139.4,26.4,145.5,24.4,140.4,23.3z"/>
				<path class="st4" d="M65.4,109.2c0,0,29.6,19,55.1,1.4c0,0-1.1-1.6-1-5.1c0,0-23.8,14.6-53.5-1.2L65.4,109.2z"/>
				<path class="st5" d="M97.3,110.6H91c-1,0-1.8,0.8-1.8,1.8c0,0,0,0,0,0v4.6c0,1,0.8,1.8,1.8,1.9c0,0,0,0,0,0h6.2
					c1,0,1.8-0.8,1.8-1.8c0,0,0,0,0,0v-4.6C99.1,111.4,98.3,110.6,97.3,110.6z M96.8,116.2c0,0.4-0.3,0.8-0.8,0.8h-3.8
					c-0.4,0-0.8-0.3-0.8-0.7c0,0,0,0,0,0v-2.9c0-0.4,0.3-0.8,0.7-0.8c0,0,0,0,0,0H96c0.4,0,0.8,0.3,0.8,0.8L96.8,116.2z"/>
				<path class="st6" d="M96.2,111l-5.1,0.2c-0.9,0.1-1.5,1-1.3,1.8l0.2,4.8l0.6-4.7c0-0.6,0.4-1.2,1-1.3
					C92.5,111.5,96.2,111,96.2,111z"/>
			</g>
		</g>
	</g>
</g>
</svg>
