<svg xmlns="http://www.w3.org/2000/svg" viewBox="0 0 183 415"><defs><style>.cls-1{fill:none;}.cls-2{fill:#262626;}.cls-3{fill:#777;}.cls-4{fill:#e03b6e;}.cls-5{fill:#c13d6c;}.cls-6{fill:#a2a2a3;}.cls-7{fill:#b7b7b7;}</style></defs><title>cfg2</title><g id="Layer_2" data-name="Layer 2"><g id="cfg2"><g id="cfg2-2" data-name="cfg2"><rect class="cls-1" width="183" height="415"/><g id="dressshoes_girl" data-name="dressshoes girl"><path class="cls-2" d="M76.15,364.76s.92,17.11,6,17.35,10-18,10-18-.77,9,0,11.28.84,11.08-.24,12.67-11.34,4-13.07,4-8.44-3-8.79-5.44,3.73-4.73,3.73-7.22S76.15,364.76,76.15,364.76Z"/><path class="cls-3" d="M73,383.48s-.46,5.47,6,6.33C79.05,389.81,71.89,390.8,73,383.48Z"/><path class="cls-2" d="M109.67,365.49s-1.38,16.38-6.44,16.62-10.63-18-10.63-18,1.42,9,.66,11.28-1.91,11.28-.82,12.88,12.4,3.75,14.13,3.75,8.44-3,8.79-5.44-3.24-4.73-3.24-7.22S109.67,365.49,109.67,365.49Z"/><path class="cls-3" d="M112.37,383.48s.46,5.47-6.05,6.33C106.32,389.81,113.47,390.8,112.37,383.48Z"/></g><g id="cfgskirt"><path class="cls-4" d="M65.39,106.82S85.26,124.1,120,108.19c0,0,30.14,44.41,7.25,115.14,0,0-6.58,23.58-5.59,27.8s-2.29,8.68-12.35-10.43c0,0-6.7,6.45-16.81-10.17S66.6,176.9,51.66,180C51.66,180,41.21,147.41,65.39,106.82Z"/><path class="cls-5" d="M55.48,162.79s38.38,10.9,54.41,49c15.92,37.83,15.24,15.75,15.24,15.75s-3.21,18.14-13.34-15.75S55.48,162.79,55.48,162.79Z"/><path class="cls-5" d="M57.2,159s44.86,10.73,52.69,32.32S127,211.81,127,211.81s-10.73-5.11-15.18-21.74C109.68,182.15,98.18,166.88,57.2,159Z"/><path class="cls-5" d="M58.2,175.43s33.11,12.7,40,38c0,0,3.7,8.94,9.88,10.67,0,0-6.18-5.95-8.85-12.27C96.83,206.1,93.52,187.84,58.2,175.43Z"/><path class="cls-5" d="M84.19,209.19s13.66,32.26,23,29.61C107.24,238.8,100,236.82,84.19,209.19Z"/><polygon class="cls-5" points="67.91 109.18 63.47 118.84 68.9 109.83 67.91 109.18"/><polygon class="cls-5" points="73.41 111.67 71.54 120.78 74.38 112.03 73.41 111.67"/><polygon class="cls-5" points="118.85 110.7 123.29 120.37 117.86 111.35 118.85 110.7"/><polygon class="cls-5" points="113.35 113.19 115.22 122.31 112.38 113.55 113.35 113.19"/></g><g id="cfgshirt"><path class="cls-4" d="M63.89,19.7S42.79,23.07,39,21.75s1.48,4.8,1.48,4.8-2.8,2.15,0,5.29c0,0-2,3,4.77,5.63S58.77,57,58.77,57L57.68,67.3s-.84,9.28,5.8,15.43c0,0,3.77,13.39,1.9,24.45,0,0,20.74,20.21,55.12,1.37,0,0-2.45-6.46.92-26.2,0,0,6.09-10.62,6.29-17.74s-1.44-9.77-1.44-9.77,1.33-12.58,6-16.05,6.5-5.29,3.53-6.12c0,0,6.09-.66,5.6-4,0,0,2.8-.5,1.48-3.81,0,0,3.29-1.82,4.28-3.64s-2.3,0-4.94.17S114.5,18,114.5,18s19.68,4.12,4.69,30.64c0,0-39.51,2.76-52.19-.88C67,47.72,50.58,32.87,63.89,19.7Z"/><path class="cls-5" d="M59.56,68.6S58.27,77.84,65.85,82c0,0,3.62,18.87,1.81,24.49,0,0,6.49-17.7,4.64-24.49C72.3,82,61,81.71,59.56,68.6Z"/><path class="cls-5" d="M124.81,67.27s1.3,9.24-6.28,13.38c0,0-3.62,18.86-1.81,24.48,0,0-6.49-17.7-4.64-24.48C112.08,80.65,123.38,80.38,124.81,67.27Z"/><path class="cls-5" d="M43.62,22H40.28a1.3,1.3,0,0,0,0,2.12,17,17,0,0,1,2.1,2.6,3.62,3.62,0,0,0,.37,4.47s-.92,4,3.92,7c0,0,5.95-2.78,12.81,14.1,0,0-3.51-15.64-12.53-16,0,0-4.07-3.35-1.23-4.84,0,0-3.71-2.48-1-4.84C44.73,26.63,38.6,22.38,43.62,22Z"/><path class="cls-5" d="M140.39,21.32s4,.13,4.3.71-3.76,2.43-3.76,2.43a3.07,3.07,0,0,1-1.36,3.66s.62,2.29-3.71,3.22c0,0,.5,3.79-5.06,6.71,0,0-5.43,1.05-8.64,12,0,0,1.91-10.79,7.9-13.46,0,0,5.25-2.48,4.44-6,0,0,4.76-1.42,3.65-3.53a1.68,1.68,0,0,0,1.23-2.67S145.53,22.35,140.39,21.32Z"/><path class="cls-5" d="M65.38,107.18s29.58,19,55.12,1.37c0,0-1.09-1.59-1-5.07,0,0-23.78,14.56-53.46-1.16Z"/><path class="cls-6" d="M97.27,108.59H91a1.82,1.82,0,0,0-1.82,1.83V115A1.82,1.82,0,0,0,91,116.86h6.25A1.83,1.83,0,0,0,99.09,115v-4.61A1.83,1.83,0,0,0,97.27,108.59Zm-.5,5.57a.76.76,0,0,1-.75.76H92.27a.75.75,0,0,1-.75-.76v-2.87a.75.75,0,0,1,.75-.76H96a.76.76,0,0,1,.75.76Z"/><path class="cls-7" d="M96.22,109l-5.09.16A1.61,1.61,0,0,0,89.8,111l.16,4.78.58-4.65a1.4,1.4,0,0,1,1-1.34C92.52,109.49,96.22,109,96.22,109Z"/></g></g></g></g></svg>