<svg xmlns="http://www.w3.org/2000/svg" viewBox="0 0 183 415"><defs><style>.cls-1{fill:none;}.cls-2{fill:#262626;}.cls-3{fill:#777;}.cls-4{fill:#bbbbbc;}.cls-5{fill:#f2f2f4;}.cls-6{fill:#e6e6e6;}.cls-7{fill:#999;}.cls-8{fill:#adadad;}.cls-9{fill:#373e49;}.cls-10{fill:#1d2228;}.cls-11{fill:#2c323a;}</style></defs><title>rbg</title><g id="Layer_2" data-name="Layer 2"><g id="rbg"><g id="rbg-2" data-name="rbg"><rect class="cls-1" width="183" height="415"/><g id="dressshoes_girl" data-name="dressshoes girl"><path class="cls-2" d="M75,364.58s.91,17.1,6,17.35,10-18,10-18-.77,9,0,11.28.85,11.07-.24,12.67-11.34,4-13.07,4-8.44-2.95-8.79-5.45,3.73-4.73,3.73-7.21S75,364.58,75,364.58Z"/><path class="cls-3" d="M71.87,383.3s-.46,5.47,6,6.33C77.92,389.63,70.77,390.62,71.87,383.3Z"/><path class="cls-2" d="M108.54,365.3s-1.37,16.38-6.43,16.63-10.64-18-10.64-18,1.42,9,.66,11.28-1.9,11.28-.81,12.88,12.39,3.75,14.12,3.75,8.44-2.95,8.79-5.45S111,381.68,111,379.2,108.54,365.3,108.54,365.3Z"/><path class="cls-3" d="M111.24,383.3s.46,5.47-6,6.33C105.19,389.63,112.35,390.62,111.24,383.3Z"/></g><g id="rbgshirt"><path class="cls-4" d="M66.54,19.87S78.6,37.7,91,37.7s23.7-18.34,23.7-18.34,17.53,3.83,23.23,7.55,9.33,17.06,8.42,27.3,7.93,51.88,7.93,51.88,2.34,29.77,0,45.32l-10.6,1.74s-10.66-35-11.48-45.58,1.33-13.78-2.39-22.36a59.14,59.14,0,0,1-4.37-16.69S124.1,79.9,121,85.21l-1.32,23.24s-27.62,16-55.3,0c0,0,.12-15.68-1.5-23.24,0,0-5.3-9.19-6.19-15.34,0,0,0,18-4.06,26.94,0,0-2.35,9.6-1.49,15.06S39,153.15,39,153.15s-8.35.43-10.53-.74c0,0,.3-40.1,1.62-44a97.87,97.87,0,0,0,5.1-21.51c1-9.63,1.48-53.5,8.4-59.29S66.54,19.87,66.54,19.87Z"/><path class="cls-5" d="M115.24,19.49c-.85-3.45-11.36-8.35-11.36-8.35,2.12,4.21-8.8,20-8.8,20L91.7,35.59c0-1.48-2.2-4.05-2.2-4.05C88,29.64,79.38,12.1,79.38,12.1c-6.55-1.39-12.84,7.77-12.84,7.77.14,4,16.07,19.28,16.07,19.28a5.44,5.44,0,0,1,1.52-3.09c8.35,5.1,16.55-1.32,16.55-1.32a18.9,18.9,0,0,1,2.55,4.41C106,34.89,115.24,19.49,115.24,19.49ZM84.84,35.27l-.71.79C84.36,35.79,84.59,35.53,84.84,35.27Zm13.31-3a11.65,11.65,0,0,1,2.53,2.42A12.07,12.07,0,0,0,98.15,32.32Z"/><path class="cls-4" d="M90,32.16A12.77,12.77,0,0,1,91.38,38l.51,0A7.76,7.76,0,0,0,90,32.16Z"/><ellipse class="cls-4" cx="90" cy="36.62" rx="0.95" ry="0.96"/><path class="cls-6" d="M90.12,35.86s-.72.18-.76.68.64.78.64.78a.79.79,0,0,1-.82-.8C89.18,35.71,90.12,35.86,90.12,35.86Z"/><circle class="cls-6" cx="90" cy="36.62" r="0.14"/><path class="cls-5" d="M64.36,108.45s14.51,7.74,27.62,7.09,26.57-6.61,26.57-6.61,6.82,8,9,15.92c0,0-10.87,15.1-33.71,15.48s-39.39-12.25-39.39-12.25S58.34,119.88,64.36,108.45Z"/><rect class="cls-7" x="64.73" y="100.29" width="0.3" height="8.16" rx="0.15" ry="0.15"/><rect class="cls-7" x="65.74" y="100.87" width="0.3" height="8.16" rx="0.15" ry="0.15"/><rect class="cls-7" x="67.09" y="101.53" width="0.3" height="8.16" rx="0.15" ry="0.15"/><rect class="cls-7" x="68.58" y="102.01" width="0.3" height="8.16" rx="0.15" ry="0.15"/><rect class="cls-7" x="71.14" y="103.14" width="0.3" height="8.16" rx="0.15" ry="0.15"/><rect class="cls-7" x="72.31" y="103.56" width="0.3" height="8.16" rx="0.15" ry="0.15"/><rect class="cls-7" x="73.59" y="104.14" width="0.3" height="8.16" rx="0.15" ry="0.15"/><rect class="cls-7" x="75" y="104.57" width="0.3" height="8.16" rx="0.15" ry="0.15"/><rect class="cls-7" x="76.73" y="104.95" width="0.3" height="8.16" rx="0.15" ry="0.15"/><rect class="cls-7" x="78.58" y="105.4" width="0.3" height="8.16" rx="0.15" ry="0.15"/><rect class="cls-7" x="80.43" y="106.09" width="0.3" height="8.16" rx="0.15" ry="0.15"/><rect class="cls-7" x="82.28" y="106.34" width="0.3" height="8.16" rx="0.15" ry="0.15"/><rect class="cls-7" x="84.42" y="106.73" width="0.3" height="8.16" rx="0.15" ry="0.15"/><rect class="cls-7" x="86.73" y="107.02" width="0.3" height="8.16" rx="0.15" ry="0.15"/><rect class="cls-7" x="89.2" y="107.22" width="0.3" height="8.16" rx="0.15" ry="0.15"/><rect class="cls-7" x="91.19" y="107.34" width="0.3" height="8.16" rx="0.15" ry="0.15"/><rect class="cls-7" x="93.42" y="107.02" width="0.3" height="8.16" rx="0.15" ry="0.15"/><rect class="cls-7" x="96.26" y="106.73" width="0.3" height="8.16" rx="0.15" ry="0.15"/><rect class="cls-7" x="99.1" y="106.56" width="0.3" height="8.16" rx="0.15" ry="0.15"/><rect class="cls-7" x="101.69" y="106.09" width="0.3" height="8.16" rx="0.15" ry="0.15"/><rect class="cls-7" x="103.99" y="105.61" width="0.3" height="8.16" rx="0.15" ry="0.15"/><rect class="cls-7" x="105.58" y="104.95" width="0.3" height="8.16" rx="0.15" ry="0.15"/><rect class="cls-7" x="107.19" y="104.37" width="0.3" height="8.16" rx="0.15" ry="0.15"/><rect class="cls-7" x="109.22" y="104.14" width="0.3" height="8.16" rx="0.15" ry="0.15"/><rect class="cls-7" x="110.89" y="103.56" width="0.3" height="8.16" rx="0.15" ry="0.15"/><rect class="cls-7" x="112.74" y="102.94" width="0.3" height="8.16" rx="0.15" ry="0.15"/><rect class="cls-7" x="114.6" y="102.26" width="0.3" height="8.16" rx="0.15" ry="0.15"/><rect class="cls-7" x="116.26" y="101.53" width="0.3" height="8.16" rx="0.15" ry="0.15"/><rect class="cls-7" x="118.18" y="100.87" width="0.3" height="8.16" rx="0.15" ry="0.15"/><rect class="cls-7" x="69.89" y="102.48" width="0.3" height="8.16" rx="0.15" ry="0.15"/><polygon class="cls-7" points="84.49 36.76 83.29 39.69 83.6 39.69 84.84 36.76 84.49 36.76"/><polygon class="cls-7" points="85.58 37.58 84.84 40 85.21 40 86.07 37.32 85.58 37.58"/><polygon class="cls-7" points="87 38.02 86.44 40.43 87 40.43 87.43 38.02 87 38.02"/><polygon class="cls-7" points="88.23 38.23 87.92 40.43 88.23 40.43 88.66 38.02 88.23 38.23"/><polygon class="cls-7" points="89.59 38.23 89.28 40.43 89.59 40.43 90.02 38.02 89.59 38.23"/><polygon class="cls-7" points="90.89 38.66 90.89 40.43 91.32 40.43 91.32 38.23 90.89 38.23 90.89 38.66"/><polygon class="cls-7" points="91.89 38.23 91.92 40.43 92.27 40.43 92.27 38.23 91.89 38.23"/><polygon class="cls-7" points="92.9 38.23 93.17 40.52 93.54 40.43 93.22 38.12 92.9 38.23"/><polygon class="cls-7" points="94.08 38.02 94.41 40.23 94.84 40.23 94.36 37.81 94.08 38.02"/><polygon class="cls-7" points="95.13 37.81 95.64 39.9 95.95 39.77 95.31 37.58 95.13 37.81"/><polygon class="cls-7" points="96.26 37.46 96.9 39.42 97.2 39.32 96.53 37.21 96.26 37.46"/><polygon class="cls-7" points="97.45 36.98 97.97 39.02 98.28 38.9 97.68 36.76 97.45 36.98"/><polygon class="cls-7" points="98.58 36.48 99.08 38.66 99.41 38.49 98.81 36.26 98.58 36.48"/><polygon class="cls-7" points="99.61 36.06 100.21 38.12 100.56 37.89 99.72 35.76 99.61 36.06"/><polygon class="cls-7" points="100.39 35.57 101.16 37.32 101.48 36.94 100.68 35.09 100.39 35.57"/><path class="cls-5" d="M28.47,151.42l-.77,1v9.51s8.23,1,11.07,0c0,0,.74-8.07,1.73-8.69C40.5,153.23,30.28,153.58,28.47,151.42Z"/><path class="cls-5" d="M154.53,150.45l.77,1V161s-8.23,1-11.07,0c0,0-.74-8.07-1.73-8.69C142.5,152.26,152.72,152.61,154.53,150.45Z"/><path class="cls-8" d="M59.56,68.52S59.27,85.05,73.74,86.3A23.79,23.79,0,0,1,59.56,68.52Z"/><path class="cls-8" d="M123.35,68.52s.3,16.53-14.18,17.78A23.77,23.77,0,0,0,123.35,68.52Z"/></g><g id="rbgpants"><path class="cls-9" d="M57.67,126.18s32.42,27.87,67.33-1.33a102.85,102.85,0,0,1,8.49,28.38c2.17,15.5,2.22,44.92-11.61,94.06,0,0-3,20.39,1,34.4,0,0,2,23.43-8.62,52.22l-2.89,16.38s-5.89,5.46-8.8,5.46-9.33-6.95-9.33-6.95-2-62.16-.08-70.48c2.37-10.13-.71-31.52.18-50.63s0-44.92,0-44.92L91,183l-1.7,71s-.74,11.42-.74,14.65,3,22.84,2.44,27.55-1.7,51.12-1.7,51.12-4.94,6.95-7.16,6.95-10.37-5.71-10.37-5.71-2.72-22.33-5.69-30S59.89,283,63.6,264.42,54.7,232.9,52,207.83,45.9,143.8,57.67,126.18Z"/><ellipse class="cls-10" cx="91.94" cy="143.24" rx="2.28" ry="2.3"/><path class="cls-9" d="M92.74,141.69s-2-.43-2.27,1.33,1.82,1.86,1.82,1.86-1.59-.86-1.49-1.82S92.74,141.69,92.74,141.69Z"/><path class="cls-11" d="M74.46,144.88s-2.22,13.69-20,13.07C54.46,158,68.41,157.74,74.46,144.88Z"/><path class="cls-11" d="M109.68,142.91s2.41,13.69,21.67,13.07C131.35,156,116.23,155.78,109.68,142.91Z"/><path class="cls-11" d="M87.06,147.77s-1.86,27.8,2.59,29.29C89.65,177.06,85.82,169.49,87.06,147.77Z"/><rect class="cls-11" x="78.2" y="139.07" width="1.98" height="7.68" rx="0.99" ry="0.99"/><rect class="cls-11" x="103.81" y="139.07" width="1.98" height="7.68" rx="0.99" ry="0.99"/><path class="cls-11" d="M72,216.27,81.1,354a1.51,1.51,0,0,0,1.82,0Z"/><polygon class="cls-11" points="108.79 218.5 101.41 355.24 103.62 355.56 108.79 218.5"/></g></g></g></g></svg>