<svg xmlns="http://www.w3.org/2000/svg" viewBox="0 0 258.33 767.93"><defs><style>.cls-1{fill:#262626;}.cls-2{fill:#777;}.cls-3{fill:#313f32;}.cls-4{fill:#1d2228;}.cls-5{fill:#373e49;}.cls-6{fill:#242d24;}.cls-7{fill:#513131;}.cls-8{fill:#e0cf89;}.cls-9{fill:#c9b86f;}.cls-10{fill:#bbbbbc;}.cls-11{fill:#e6e6e6;}.cls-12{fill:#3f2424;}</style></defs><title>rbg2</title><g id="Layer_2" data-name="Layer 2"><g id="rbg2"><g id="rbg2-2" data-name="rbg2"><g id="dressshoes_girl" data-name="dressshoes girl"><path class="cls-1" d="M95.14,713s1.86,34.46,12.11,35,20.2-36.22,20.2-36.22-1.56,18.14,0,22.72,1.71,22.31-.49,25.53-23,8-26.45,8S83.4,762,82.7,757s7.55-9.53,7.55-14.53S95.14,713,95.14,713Z"/><path class="cls-2" d="M88.75,750.68s-.93,11,12.25,12.75C101,763.43,86.51,765.43,88.75,750.68Z"/><path class="cls-1" d="M163,714.43s-2.79,33-13,33.5-21.53-36.22-21.53-36.22,2.88,18.14,1.34,22.72-3.86,22.72-1.65,26,25.09,7.55,28.59,7.55,17.1-5.94,17.8-11S168,747.43,168,742.43,163,714.43,163,714.43Z"/><path class="cls-2" d="M168.46,750.68s.93,11-12.25,12.75C156.21,763.43,170.69,765.43,168.46,750.68Z"/></g><g id="rbgpants2"><path class="cls-3" d="M60.47,232.68s65.64,56.14,136.32-2.68A206.41,206.41,0,0,1,214,287.18c4.41,31.23,4.5,90.5-23.5,189.5,0,0-6,41.08,2,69.29,0,0,4.12,47.21-17.44,105.21l-5.86,33s-11.93,11-17.81,11-18.89-14-18.89-14-4.11-125.24-.16-142c4.8-20.4-1.45-63.5.36-102s0-90.5,0-90.5l-4.75.5-3.45,143s-1.5,23-1.5,29.5,6.07,46,5,55.5-3.45,103-3.45,103-10,14-14.5,14-21-11.5-21-11.5-5.52-45-11.52-60.5-12.5-71.5-5-109-18-63.5-23.5-114S36.64,268.18,60.47,232.68Z"/><circle class="cls-4" cx="129.85" cy="267.05" r="4.63"/><path class="cls-5" d="M131.47,263.93s-4.09-.88-4.58,2.67,3.67,3.75,3.67,3.75-3.22-1.72-3-3.67S131.47,263.93,131.47,263.93Z"/><path class="cls-6" d="M94.47,270.35S90,297.93,54,296.68C54,296.68,82.22,296.26,94.47,270.35Z"/><path class="cls-6" d="M165.77,266.39s4.87,27.58,43.87,26.33C209.64,292.72,179,292.3,165.77,266.39Z"/><path class="cls-6" d="M120,276.18s-3.75,56,5.25,59C125.22,335.18,117.48,319.93,120,276.18Z"/><rect class="cls-6" x="102.05" y="258.65" width="4.01" height="15.47" rx="1.31" ry="1.31"/><rect class="cls-6" x="153.88" y="258.65" width="4.01" height="15.47" rx="1.31" ry="1.31"/><path class="cls-6" d="M89.47,414.18,107.9,691.73a3.11,3.11,0,0,0,3.69,0Z"/><polygon class="cls-6" points="163.97 418.68 149.03 694.15 153.51 694.8 163.97 418.68"/></g><g id="rbgshirt2"><path class="cls-7" d="M78.63,17.58s24.43,35.94,49.48,35.94,48-36.95,48-36.95,35.49,7.7,47,15.2,18.87,34.37,17,55,16.06,104.52,16.06,104.52,4.72,60,0,91.31l-21.46,3.51s-21.58-70.51-23.26-91.84,2.7-27.75-4.82-45a118.5,118.5,0,0,1-8.85-33.63s-2.67,22.92-9,33.63L186.17,196s-55.91,32.18-111.94,0c0,0,.22-31.59-3-46.81,0,0-10.73-18.53-12.54-30.91,0,0,0,36.2-8.21,54.28,0,0-4.75,19.33-3,30.33s-24.53,83.18-24.53,83.18S6,287,1.57,284.62c0,0,.6-80.8,3.27-88.58s8.25-23.95,10.33-43.34,3-107.77,17-119.43S78.63,17.58,78.63,17.58Z"/><path class="cls-8" d="M177.22,16.82c-1.71-7-23-16.82-23-16.82,4.3,8.48-17.8,40.27-17.8,40.27l-6.85,9c.06-3-4.45-8.17-4.45-8.17-3.05-3.83-20.49-39.16-20.49-39.16-13.26-2.82-26,15.64-26,15.64.29,8,32.54,38.85,32.54,38.85,0-2,1.32-4.16,3.08-6.23,16.9,10.27,33.49-2.66,33.49-2.66a38.5,38.5,0,0,1,5.18,8.89C158.42,47.85,177.22,16.82,177.22,16.82Zm-61.53,31.8c-.87.93-1.43,1.57-1.44,1.58C114.7,49.66,115.18,49.14,115.69,48.62Zm26.93-5.95a23.28,23.28,0,0,1,5.12,4.87A24.48,24.48,0,0,0,142.62,42.67Z"/><path class="cls-9" d="M126.13,42.34s3.13,5.87,2.79,11.81l1,0S130.83,47.16,126.13,42.34Z"/><circle class="cls-10" cx="126.13" cy="51.33" r="1.93"/><path class="cls-11" d="M126.37,49.81s-1.45.36-1.54,1.36,1.3,1.57,1.3,1.57a1.59,1.59,0,0,1-1.67-1.6C124.46,49.5,126.37,49.81,126.37,49.81Z"/><circle class="cls-11" cx="126.13" cy="51.33" r="0.29"/><path class="cls-8" d="M74.23,196s29.38,15.6,55.91,14.29S183.92,197,183.92,197s13.82,16.13,18.25,32.06c0,0-22,30.44-68.25,31.19S54.17,235.6,54.17,235.6,62,219.07,74.23,196Z"/><rect class="cls-12" x="74.97" y="179.61" width="0.6" height="16.44" rx="0.3" ry="0.3"/><rect class="cls-12" x="77" y="180.77" width="0.6" height="16.44" rx="0.3" ry="0.3"/><rect class="cls-12" x="79.75" y="182.11" width="0.6" height="16.44" rx="0.3" ry="0.3"/><rect class="cls-12" x="82.75" y="183.08" width="0.6" height="16.44" rx="0.3" ry="0.3"/><rect class="cls-12" x="87.95" y="185.36" width="0.6" height="16.44" rx="0.3" ry="0.3"/><rect class="cls-12" x="90.32" y="186.19" width="0.6" height="16.44" rx="0.3" ry="0.3"/><rect class="cls-12" x="92.91" y="187.36" width="0.6" height="16.44" rx="0.3" ry="0.3"/><rect class="cls-12" x="95.75" y="188.23" width="0.6" height="16.44" rx="0.3" ry="0.3"/><rect class="cls-12" x="99.25" y="188.99" width="0.6" height="16.44" rx="0.3" ry="0.3"/><rect class="cls-12" x="103" y="189.91" width="0.6" height="16.44" rx="0.3" ry="0.3"/><rect class="cls-12" x="106.75" y="191.29" width="0.6" height="16.44" rx="0.3" ry="0.3"/><rect class="cls-12" x="110.5" y="191.79" width="0.6" height="16.44" rx="0.3" ry="0.3"/><rect class="cls-12" x="114.84" y="192.58" width="0.6" height="16.44" rx="0.3" ry="0.3"/><rect class="cls-12" x="119.5" y="193.16" width="0.6" height="16.44" rx="0.3" ry="0.3"/><rect class="cls-12" x="124.5" y="193.58" width="0.6" height="16.44" rx="0.3" ry="0.3"/><rect class="cls-12" x="128.54" y="193.8" width="0.6" height="16.44" rx="0.3" ry="0.3"/><rect class="cls-12" x="133.05" y="193.16" width="0.6" height="16.44" rx="0.3" ry="0.3"/><rect class="cls-12" x="138.8" y="192.58" width="0.6" height="16.44" rx="0.3" ry="0.3"/><rect class="cls-12" x="144.55" y="192.24" width="0.6" height="16.44" rx="0.3" ry="0.3"/><rect class="cls-12" x="149.8" y="191.29" width="0.6" height="16.44" rx="0.3" ry="0.3"/><rect class="cls-12" x="154.45" y="190.33" width="0.6" height="16.44" rx="0.3" ry="0.3"/><rect class="cls-12" x="157.67" y="188.99" width="0.6" height="16.44" rx="0.3" ry="0.3"/><rect class="cls-12" x="160.92" y="187.83" width="0.6" height="16.44" rx="0.3" ry="0.3"/><rect class="cls-12" x="165.05" y="187.36" width="0.6" height="16.44" rx="0.3" ry="0.3"/><rect class="cls-12" x="168.42" y="186.19" width="0.6" height="16.44" rx="0.3" ry="0.3"/><rect class="cls-12" x="172.17" y="184.94" width="0.6" height="16.44" rx="0.3" ry="0.3"/><rect class="cls-12" x="175.92" y="183.58" width="0.6" height="16.44" rx="0.3" ry="0.3"/><rect class="cls-12" x="179.3" y="182.11" width="0.6" height="16.44" rx="0.3" ry="0.3"/><rect class="cls-12" x="183.17" y="180.77" width="0.6" height="16.44" rx="0.3" ry="0.3"/><rect class="cls-12" x="85.42" y="184.02" width="0.6" height="16.44" rx="0.3" ry="0.3"/><polygon class="cls-12" points="114.97 51.62 112.55 57.52 113.17 57.52 115.69 51.62 114.97 51.62"/><polygon class="cls-12" points="117.17 53.26 115.69 58.14 116.43 58.14 118.17 52.74 117.17 53.26"/><polygon class="cls-12" points="120.05 54.15 118.92 59.02 120.05 59.02 120.92 54.15 120.05 54.15"/><polygon class="cls-12" points="122.55 54.57 121.92 59.02 122.55 59.02 123.42 54.15 122.55 54.57"/><polygon class="cls-12" points="125.29 54.57 124.67 59.02 125.29 59.02 126.17 54.15 125.29 54.57"/><polygon class="cls-12" points="127.92 55.44 127.92 59.02 128.8 59.02 128.8 54.57 127.92 54.57 127.92 55.44"/><polygon class="cls-12" points="129.95 54.57 130.01 59.02 130.71 59.02 130.71 54.57 129.95 54.57"/><polygon class="cls-12" points="132 54.57 132.55 59.18 133.3 59.02 132.65 54.35 132 54.57"/><polygon class="cls-12" points="134.38 54.15 135.05 58.6 135.92 58.6 134.96 53.72 134.38 54.15"/><polygon class="cls-12" points="136.5 53.72 137.55 57.93 138.17 57.68 136.88 53.26 136.5 53.72"/><polygon class="cls-12" points="138.8 53.02 140.09 56.97 140.71 56.77 139.34 52.52 138.8 53.02"/><polygon class="cls-12" points="141.21 52.06 142.25 56.16 142.88 55.93 141.67 51.62 141.21 52.06"/><polygon class="cls-12" points="143.5 51.05 144.5 55.44 145.18 55.1 143.96 50.6 143.5 51.05"/><polygon class="cls-12" points="145.59 50.2 146.8 54.35 147.5 53.89 145.8 49.6 145.59 50.2"/><polygon class="cls-12" points="147.17 49.22 148.71 52.74 149.38 51.97 147.74 48.25 147.17 49.22"/><path class="cls-8" d="M1.57,282.62l-1.57,2v19.15s16.67,2,22.42,0c0,0,1.5-16.26,3.5-17.51C25.92,286.26,5.22,287,1.57,282.62Z"/><path class="cls-8" d="M256.76,280.66l1.57,2v19.15s-16.67,2-22.42,0c0,0-1.5-16.26-3.5-17.5C232.41,284.31,253.11,285,256.76,280.66Z"/><path class="cls-12" d="M64.5,115.6s-.59,33.3,28.71,35.81A48,48,0,0,1,64.5,115.6Z"/><path class="cls-12" d="M193.65,115.6s.59,33.3-28.7,35.81A48,48,0,0,0,193.65,115.6Z"/></g></g></g></g></svg>