<svg xmlns="http://www.w3.org/2000/svg" viewBox="0 0 183 415"><defs><style>.cls-1{fill:none;}.cls-2{fill:#262626;}.cls-3{fill:#777;}.cls-4{fill:#313f32;}.cls-5{fill:#1d2228;}.cls-6{fill:#373e49;}.cls-7{fill:#242d24;}.cls-8{fill:#513131;}.cls-9{fill:#e0cf89;}.cls-10{fill:#c9b86f;}.cls-11{fill:#bbbbbc;}.cls-12{fill:#e6e6e6;}.cls-13{fill:#3f2424;}</style></defs><title>rbg2</title><g id="Layer_2" data-name="Layer 2"><g id="rbg2"><g id="rbg2-2" data-name="rbg2"><rect class="cls-1" width="183" height="415"/><g id="dressshoes_girl" data-name="dressshoes girl"><path class="cls-2" d="M75.69,362.81s.92,17.1,6,17.35,10-18,10-18-.77,9,0,11.28.84,11.07-.24,12.67-11.34,4-13.07,4-8.44-2.95-8.79-5.45,3.73-4.73,3.73-7.21S75.69,362.81,75.69,362.81Z"/><path class="cls-3" d="M72.54,381.52s-.46,5.47,6,6.33C78.59,387.85,71.43,388.85,72.54,381.52Z"/><path class="cls-2" d="M109.21,363.53s-1.37,16.38-6.44,16.63-10.63-18-10.63-18,1.42,9,.66,11.28-1.91,11.28-.82,12.88,12.4,3.75,14.13,3.75,8.44-2.95,8.79-5.45-3.24-4.73-3.24-7.21S109.21,363.53,109.21,363.53Z"/><path class="cls-3" d="M111.91,381.52s.46,5.47-6,6.33C105.86,387.85,113,388.85,111.91,381.52Z"/></g><g id="rbgpants2"><path class="cls-4" d="M57.57,125.41s32.42,27.86,67.34-1.33a102.9,102.9,0,0,1,8.48,28.38c2.18,15.5,2.22,44.92-11.61,94.06,0,0-3,20.39,1,34.39,0,0,2,23.44-8.61,52.23l-2.9,16.38s-5.89,5.46-8.8,5.46-9.33-7-9.33-7-2-62.17-.08-70.49c2.37-10.12-.71-31.52.18-50.63s0-44.92,0-44.92l-2.35.25-1.7,71s-.74,11.42-.74,14.64,3,22.85,2.44,27.55-1.7,51.13-1.7,51.13-4.94,6.95-7.16,6.95-10.36-5.71-10.36-5.71-2.73-22.34-5.69-30-6.18-35.49-2.47-54.11-8.89-31.51-11.61-56.58S45.8,143,57.57,125.41Z"/><ellipse class="cls-5" cx="91.84" cy="142.47" rx="2.28" ry="2.3"/><path class="cls-6" d="M92.64,140.92s-2-.44-2.26,1.32,1.81,1.86,1.81,1.86-1.59-.85-1.48-1.82S92.64,140.92,92.64,140.92Z"/><path class="cls-7" d="M74.36,144.1s-2.22,13.7-20,13.07C54.36,157.17,68.31,157,74.36,144.1Z"/><path class="cls-7" d="M109.58,142.14s2.41,13.69,21.67,13.07C131.25,155.21,116.14,155,109.58,142.14Z"/><path class="cls-7" d="M87,147s-1.85,27.8,2.59,29.28C89.55,176.28,85.73,168.72,87,147Z"/><rect class="cls-7" x="78.11" y="138.3" width="1.98" height="7.68" rx="0.99" ry="0.99"/><rect class="cls-7" x="103.71" y="138.3" width="1.98" height="7.68" rx="0.99" ry="0.99"/><path class="cls-7" d="M71.89,215.5,81,353.26a1.53,1.53,0,0,0,1.82,0Z"/><polygon class="cls-7" points="108.69 217.73 101.31 354.47 103.53 354.79 108.69 217.73"/></g><g id="rbgshirt2"><path class="cls-8" d="M66.54,18.64S78.6,36.48,91,36.48s23.7-18.34,23.7-18.34,17.53,3.82,23.23,7.54,9.33,17.07,8.42,27.3,7.93,51.89,7.93,51.89,2.34,29.76,0,45.32l-10.6,1.74s-10.66-35-11.48-45.59,1.33-13.77-2.39-22.36a59.14,59.14,0,0,1-4.37-16.69S124.1,78.67,121,84l-1.32,23.24s-27.62,16-55.3,0c0,0,.12-15.68-1.5-23.24,0,0-5.3-9.19-6.19-15.34,0,0,0,18-4.06,27,0,0-2.35,9.59-1.49,15S39,151.93,39,151.93s-8.35.42-10.53-.74c0,0,.3-40.11,1.62-44a97.87,97.87,0,0,0,5.1-21.51c1-9.63,1.48-53.49,8.4-59.28S66.54,18.64,66.54,18.64Z"/><path class="cls-9" d="M115.24,18.26c-.85-3.45-11.36-8.35-11.36-8.35,2.12,4.22-8.8,20-8.8,20L91.7,34.37c0-1.49-2.2-4.06-2.2-4.06C88,28.41,79.38,10.88,79.38,10.88c-6.55-1.4-12.84,7.76-12.84,7.76.14,4,16.07,19.29,16.07,19.29a5.49,5.49,0,0,1,1.52-3.1c8.35,5.1,16.55-1.32,16.55-1.32a19.07,19.07,0,0,1,2.55,4.42C106,33.66,115.24,18.26,115.24,18.26ZM84.84,34.05c-.43.46-.7.77-.71.78C84.36,34.56,84.59,34.3,84.84,34.05Zm13.31-3a11.89,11.89,0,0,1,2.53,2.42A12.33,12.33,0,0,0,98.15,31.09Z"/><path class="cls-10" d="M90,30.93a12.77,12.77,0,0,1,1.38,5.86l.51,0A7.76,7.76,0,0,0,90,30.93Z"/><ellipse class="cls-11" cx="90" cy="35.39" rx="0.95" ry="0.96"/><path class="cls-12" d="M90.12,34.64s-.72.18-.76.67.64.78.64.78a.78.78,0,0,1-.82-.79C89.18,34.49,90.12,34.64,90.12,34.64Z"/><circle class="cls-12" cx="90" cy="35.39" r="0.14"/><path class="cls-9" d="M64.36,107.22S78.87,115,92,114.31s26.57-6.6,26.57-6.6,6.82,8,9,15.91c0,0-10.87,15.11-33.71,15.48s-39.39-12.24-39.39-12.24S58.34,118.65,64.36,107.22Z"/><rect class="cls-13" x="64.73" y="99.06" width="0.3" height="8.16" rx="0.15" ry="0.15"/><rect class="cls-13" x="65.74" y="99.64" width="0.3" height="8.16" rx="0.15" ry="0.15"/><rect class="cls-13" x="67.09" y="100.3" width="0.3" height="8.16" rx="0.15" ry="0.15"/><rect class="cls-13" x="68.58" y="100.79" width="0.3" height="8.16" rx="0.15" ry="0.15"/><rect class="cls-13" x="71.14" y="101.92" width="0.3" height="8.16" rx="0.15" ry="0.15"/><rect class="cls-13" x="72.31" y="102.33" width="0.3" height="8.16" rx="0.15" ry="0.15"/><rect class="cls-13" x="73.59" y="102.91" width="0.3" height="8.16" rx="0.15" ry="0.15"/><rect class="cls-13" x="75" y="103.34" width="0.3" height="8.16" rx="0.15" ry="0.15"/><rect class="cls-13" x="76.73" y="103.72" width="0.3" height="8.16" rx="0.15" ry="0.15"/><rect class="cls-13" x="78.58" y="104.18" width="0.3" height="8.16" rx="0.15" ry="0.15"/><rect class="cls-13" x="80.43" y="104.87" width="0.3" height="8.16" rx="0.15" ry="0.15"/><rect class="cls-13" x="82.28" y="105.11" width="0.3" height="8.16" rx="0.15" ry="0.15"/><rect class="cls-13" x="84.42" y="105.5" width="0.3" height="8.16" rx="0.15" ry="0.15"/><rect class="cls-13" x="86.73" y="105.79" width="0.3" height="8.16" rx="0.15" ry="0.15"/><rect class="cls-13" x="89.2" y="106" width="0.3" height="8.16" rx="0.15" ry="0.15"/><rect class="cls-13" x="91.19" y="106.11" width="0.3" height="8.16" rx="0.15" ry="0.15"/><rect class="cls-13" x="93.42" y="105.79" width="0.3" height="8.16" rx="0.15" ry="0.15"/><rect class="cls-13" x="96.26" y="105.5" width="0.3" height="8.16" rx="0.15" ry="0.15"/><rect class="cls-13" x="99.1" y="105.34" width="0.3" height="8.16" rx="0.15" ry="0.15"/><rect class="cls-13" x="101.69" y="104.87" width="0.3" height="8.16" rx="0.15" ry="0.15"/><rect class="cls-13" x="103.99" y="104.38" width="0.3" height="8.16" rx="0.15" ry="0.15"/><rect class="cls-13" x="105.58" y="103.72" width="0.3" height="8.16" rx="0.15" ry="0.15"/><rect class="cls-13" x="107.19" y="103.14" width="0.3" height="8.16" rx="0.15" ry="0.15"/><rect class="cls-13" x="109.22" y="102.91" width="0.3" height="8.16" rx="0.15" ry="0.15"/><rect class="cls-13" x="110.89" y="102.33" width="0.3" height="8.16" rx="0.15" ry="0.15"/><rect class="cls-13" x="112.74" y="101.71" width="0.3" height="8.16" rx="0.15" ry="0.15"/><rect class="cls-13" x="114.6" y="101.03" width="0.3" height="8.16" rx="0.15" ry="0.15"/><rect class="cls-13" x="116.26" y="100.3" width="0.3" height="8.16" rx="0.15" ry="0.15"/><rect class="cls-13" x="118.18" y="99.64" width="0.3" height="8.16" rx="0.15" ry="0.15"/><rect class="cls-13" x="69.89" y="101.26" width="0.3" height="8.16" rx="0.15" ry="0.15"/><polygon class="cls-13" points="84.49 35.54 83.29 38.46 83.6 38.46 84.84 35.54 84.49 35.54"/><polygon class="cls-13" points="85.58 36.35 84.84 38.77 85.21 38.77 86.07 36.09 85.58 36.35"/><polygon class="cls-13" points="87 36.79 86.44 39.21 87 39.21 87.43 36.79 87 36.79"/><polygon class="cls-13" points="88.23 37 87.92 39.21 88.23 39.21 88.66 36.79 88.23 37"/><polygon class="cls-13" points="89.59 37 89.28 39.21 89.59 39.21 90.02 36.79 89.59 37"/><polygon class="cls-13" points="90.89 37.43 90.89 39.21 91.32 39.21 91.32 37 90.89 37 90.89 37.43"/><polygon class="cls-13" points="91.89 37 91.92 39.21 92.27 39.21 92.27 37 91.89 37"/><polygon class="cls-13" points="92.9 37 93.17 39.29 93.54 39.21 93.22 36.89 92.9 37"/><polygon class="cls-13" points="94.08 36.79 94.41 39 94.84 39 94.36 36.58 94.08 36.79"/><polygon class="cls-13" points="95.13 36.58 95.64 38.67 95.95 38.55 95.31 36.35 95.13 36.58"/><polygon class="cls-13" points="96.26 36.23 96.9 38.19 97.2 38.09 96.53 35.98 96.26 36.23"/><polygon class="cls-13" points="97.45 35.75 97.97 37.79 98.28 37.68 97.68 35.54 97.45 35.75"/><polygon class="cls-13" points="98.58 35.25 99.08 37.43 99.41 37.26 98.81 35.03 98.58 35.25"/><polygon class="cls-13" points="99.61 34.83 100.21 36.89 100.56 36.66 99.72 34.53 99.61 34.83"/><polygon class="cls-13" points="100.39 34.35 101.16 36.09 101.48 35.71 100.68 33.86 100.39 34.35"/><path class="cls-9" d="M28.47,150.19l-.77,1v9.5s8.23,1,11.07,0c0,0,.74-8.07,1.73-8.69C40.5,152,30.28,152.35,28.47,150.19Z"/><path class="cls-9" d="M154.53,149.22l.77,1v9.5s-8.23,1-11.07,0c0,0-.74-8.07-1.73-8.69C142.5,151,152.72,151.38,154.53,149.22Z"/><path class="cls-13" d="M59.56,67.29s-.29,16.53,14.18,17.78A23.76,23.76,0,0,1,59.56,67.29Z"/><path class="cls-13" d="M123.35,67.29s.3,16.53-14.18,17.78A23.74,23.74,0,0,0,123.35,67.29Z"/></g></g></g></g></svg>