<svg xmlns="http://www.w3.org/2000/svg" viewBox="0 0 183 415"><defs><style>.cls-1{fill:none;}.cls-2{fill:#fcca65;}.cls-3{fill:#f2f2f2;}.cls-4{fill:#5d5d5d;}.cls-5{fill:#474747;}.cls-6{fill:#f4a721;}.cls-7{fill:#b3b3b3;}.cls-8{fill:#4c5b47;}.cls-9{fill:#556052;}.cls-10{fill:#999;}.cls-11{fill:#565556;}.cls-12{fill:#4f4c4f;}.cls-13{fill:#cccacc;}.cls-14{fill:#020202;}.cls-15{fill:#fff;}</style></defs><title>rcg</title><g id="Layer_2" data-name="Layer 2"><g id="rcg"><g id="rcg-2" data-name="rcg"><rect class="cls-1" width="183" height="415"/><g id="rcgshirt"><g id="rcgshirt-2" data-name="rcgshirt"><path class="cls-2" d="M69.75,22s22.56,46.38,44.06.67a131.39,131.39,0,0,0,13.25,3.6l-8.33,83.11s.48,12.76,2.71,17.26c0,0-27.06,17.59-59.41-.09l3.23-19.65s-3-25.56-8.26-35V25.88S66.32,23.4,69.75,22Z"/><path class="cls-3" d="M86.67,10.27h0Z"/><path class="cls-3" d="M82.82,10.33h0Z"/><path class="cls-3" d="M96.46,10.1h0Z"/><path class="cls-3" d="M96.38,10.1h0Z"/><path class="cls-3" d="M97.57,10.08Z"/><path class="cls-4" d="M81.05,30.58c-2.64-5.29-12.42-8.45-12.42-8.45h0C80.08,20.8,81.72,8.89,81.72,8.89,45.51,9.5,52.29,26.11,52.3,26.14c-4.37,1.44-8.32,3.19-9.9,5.14-4.33,5.34-6.3,43.81-6.3,43.81,0,25.31-3.21,24.69-6.18,39s-.8,34.36-.8,34.36L28,156.49c3.17-2.11,11.9,1.74,11.9,1.74L42.27,154c2.58-1.26,1.24-2.23,1.24-2.23,8.89-24.08,8-50.22,8-50.22,7.2-11.37,5.36-29.13,5.36-29.13s2,11.72,3.73,17-1.36,25.94-1.36,25.94c-1.23.87-.49,2.85-.49,2.85L57,122.9c9.87,8.61,27.79,9.27,27.79,9.27L83.68,35.88ZM67.93,22.22h0Zm-.67.07-.21,0Zm-.32,0-.12,0Zm-.36,0-.26,0Zm-.26,0-.63.08Zm-1.45.17-.52.06Zm-.59.07-.16,0Zm-.45.05h0Z"/><path class="cls-4" d="M156.29,148.72c1.71-22.34-6.09-50.14-7.41-52.78s-1.31-53.12-6.58-60.89c-4-5.87-5.52-7.16-12.51-8.92,5.4-18.63-27.23-17.24-27.23-17.24s-.11,1.44,3.08,9c1.09,2.56,4.83,4.47,9,5.86C104.32,25,100.48,35.88,100.48,35.88V132c12.35,2.16,28.24-6.45,28.24-6.45l-2-4.13c1.93-.83,0-2.32,0-2.32-3.51-6.62-5.22-28.91-5.22-28.91l2.8-13.78c1.42,8.93,9.39,17.37,9.06,30.11s7.24,44,7.24,44c-.33,2.31,1.81,4.13,1.81,4.13l1.48,8.61c2.8-2.81,11.37-1.82,11.37-1.82l.49-9.1C158.1,151,156.29,148.72,156.29,148.72Z"/><path class="cls-5" d="M64.87,21.48s3.28-6.88,14.92-7C79.79,14.44,76.17,23.9,64.87,21.48Z"/><path class="cls-5" d="M104.22,14.44s1.4,8.53,12.27,9.65C116.49,24.09,120.48,14,104.22,14.44Z"/></g><path class="cls-5" d="M59.18,28.18s15.69-3.25,18.28,17.57C77.46,45.75,73.89,29.67,59.18,28.18Z"/><path class="cls-5" d="M121.48,28.18s-14.82-3.25-17.26,17.57C104.22,45.75,107.59,29.67,121.48,28.18Z"/><path class="cls-6" d="M83.74,41.17s5.73,5.29,12.72,3C96.46,44.15,88.25,49.28,83.74,41.17Z"/><path class="cls-5" d="M59.18,117.85s7.34,6.28,15.69,6.73l-.53,5.11-.1-4.66h-.48l-.39,3.79L73.18,125l-.82-.45v2.78l-.72-2.78-.39,1.91L71,124.58s-3.14-.52-3.93-.81-.9,3.1-.9,3.1l-.67-4.26-.87-.49-.1,3.1-.37-3.79-.8,3.71.29-3.78-.54-.26-.91,5.71.44-6-.48-.33-.5,4.33.11-4.59-2.55-2.41"/><path class="cls-5" d="M125.92,122s-7.07,4.35-14.23,3.61l-.23,4.41.7-4,.41.07-.17,3.27.67-3.19.76-.27-.37,2.36,1-2.27.07,1.68.5-1.59s2.74,0,3.45-.16.35,2.76.35,2.76l1.14-3.53.81-.3-.34,2.65.83-3.17.18,3.26.26-3.26.49-.14v5l.43-5.13.44-.22-.14,3.75.51-3.91,2.49-1.71"/><path class="cls-5" d="M108.71,100.9s3.56,9.21,12.77,10.81C121.48,111.71,111.92,114.8,108.71,100.9Z"/><path class="cls-5" d="M78.14,100.9s-3.78,9.21-13.56,10.81C64.58,111.71,74.73,114.8,78.14,100.9Z"/><polygon class="cls-7" points="83.97 35.88 82.78 35.88 83.59 132.04 84.53 132.17 83.97 35.88"/></g><g id="rcgpants"><path class="cls-8" d="M59.41,128.54s32.65,20.5,65.18,0c0,0,11,12.49,9.52,39.71s2.26,17.21-12.56,88.36a131.85,131.85,0,0,0,0,24.48c1.17,14.32-6.58,53-6.58,53l-6.62,22.5s-7.6,4.58-12.84,0c0,0-.84-25.64-1.72-31.58s-2.59-31.12,2.57-56c0,0-4.3-80.79-2.7-83.4a4.7,4.7,0,0,1-4.09.56s1.43,65-.25,71.55-.12,27.05-.12,27.05a120.63,120.63,0,0,1,1,41.08l-2.08,28.8S82,359.7,75.47,355.83c0,0-12.2-47.44-12.82-54.26s1.36-32.39,1-35.24-.13-21.22-5.44-36.86-8.39-42.06-8.39-42.06S46.05,145.36,59.41,128.54Z"/><path class="cls-9" d="M54.54,138.31s39.19,21.67,70.14,3.14c0,0-26.34,22-71-1.51Z"/></g><g id="Cloudy_RainShoes" data-name="Cloudy/RainShoes"><path class="cls-10" d="M73.72,379.39s-7.84,9.54-2.61,14.77,19.61-1.31,20-3.92a94.54,94.54,0,0,0,0-10.29s.37,7.86-2.17,9.54-8.82,7.29-17.64,1.87C71.27,391.36,68.66,388.37,73.72,379.39Z"/><path class="cls-11" d="M86.81,370.77s.89-2,3,.56l.75-4.65s1.23,17,.1,20.94c-.55,1.93-4.86-2.06-4.86-2.06Z"/><path class="cls-11" d="M79.19,370.77s-1.1-2.1-2.94-1.12c0,0-1.46-2.67-.73-4.21a7.56,7.56,0,0,0-1.35,7s.45,4.94-.45,6.92c0,0-3,5.26-3.42,7.3l4.76-2.34A39,39,0,0,0,79.19,370.77Z"/><path class="cls-12" d="M74.05,385s5.7-9.71,4.71-17.1a7.06,7.06,0,0,1,7.84,0s1,13.48-.62,18.2Z"/><path class="cls-13" d="M70.93,386.09s8.12-7.23,19.32,1.38c0,0,2.17,4.9-11.06,6.69C67.29,395.78,70.93,386.09,70.93,386.09Z"/><polygon class="cls-13" points="75.06 381.53 80.79 379.02 76.62 377.34 76.62 376.39 80.79 378.08 86.87 376.78 86.82 377.72 81.44 378.96 86.31 381.53 86.14 382.22 80.96 380.14 75.06 382.13 75.06 381.53"/><polygon class="cls-13" points="76.19 375.7 81.93 373.19 77.75 371.5 77.75 370.55 81.93 372.25 88 370.95 87.95 371.88 82.57 373.12 87.45 375.7 87.27 376.39 82.09 374.31 76.19 376.3 76.19 375.7"/><path class="cls-14" d="M77.64,370.09a1,1,0,0,0,.24,1.92A1.62,1.62,0,0,1,77.64,370.09Z"/><path class="cls-14" d="M76.31,375s-1.43,1.13.25,1.92A1.63,1.63,0,0,1,76.31,375Z"/><path class="cls-14" d="M74.91,380.94s-1.43,1.13.24,1.92A1.62,1.62,0,0,1,74.91,380.94Z"/><path class="cls-14" d="M86.5,380.94s1.57,1.13-.26,1.92C86.24,382.86,87.22,381.88,86.5,380.94Z"/><path class="cls-14" d="M87.4,375s1.56,1.13-.27,1.92C87.13,376.91,88.11,375.93,87.4,375Z"/><path class="cls-14" d="M88.06,370.55s1.57,1.12-.27,1.92C87.79,372.47,88.78,371.49,88.06,370.55Z"/><path class="cls-15" d="M71.47,388.15s-.81,5.81,9.27,4.24C80.74,392.39,70.7,394.81,71.47,388.15Z"/><path class="cls-11" d="M98.87,368.93s-2.51-1.28-3.37.52c0,0-3.33-2.55-3.9-6.19a64.51,64.51,0,0,1-.48,18.32s0,5.25,1.21,6.15,6.23-5.12,6.23-5.12Z"/><path class="cls-11" d="M106.67,369.68a2.37,2.37,0,0,1,2.46-.31s-.8-3.95-2-5.14,4.65.9,3.23,15.91L114,385.8l-5.63-2.94S106.15,371,106.67,369.68Z"/><path class="cls-12" d="M97.93,384.09s1.08-14.51.58-16.48a8.42,8.42,0,0,1,8.08,0s.52,12.16,2.8,15.13Z"/><path class="cls-10" d="M110.39,380.55s8.54,8.22,2.8,12.95S91.4,392.93,91,390.57s.28-9.92.28-9.92-.4,7.1,2.38,8.62,9.67,6.6,19.34,1.69C113,391,115.94,388.67,110.39,380.55Z"/><path class="cls-13" d="M92.5,388.37s9.42-13,20.5-3.16c0,0,4.45,8.28-5.68,8.21S95.83,391.65,92.5,388.37Z"/><polygon class="cls-13" points="109.39 381.12 104.01 378.61 107.92 376.92 107.92 375.97 104.01 377.67 98.32 376.37 98.37 377.3 103.41 378.55 98.84 381.12 99 381.81 103.86 379.73 109.39 381.72 109.39 381.12"/><polygon class="cls-13" points="108.33 375.28 102.95 372.77 106.86 371.09 106.86 370.14 102.95 371.84 97.26 370.54 97.31 371.47 102.35 372.71 97.78 375.28 97.94 375.97 102.8 373.89 108.33 375.88 108.33 375.28"/><path class="cls-14" d="M107,369.68a1.07,1.07,0,0,1-.23,1.92A1.71,1.71,0,0,0,107,369.68Z"/><path class="cls-14" d="M108.21,374.58a1.07,1.07,0,0,1-.23,1.92A1.71,1.71,0,0,0,108.21,374.58Z"/><path class="cls-14" d="M109.53,380.53a1.07,1.07,0,0,1-.23,1.92A1.71,1.71,0,0,0,109.53,380.53Z"/><path class="cls-14" d="M98.66,380.53a1,1,0,0,0,.26,1.92A1.6,1.6,0,0,1,98.66,380.53Z"/><path class="cls-14" d="M97.83,374.58s-1.47,1.12.25,1.92A1.6,1.6,0,0,1,97.83,374.58Z"/><path class="cls-14" d="M97.21,370.14s-1.47,1.12.25,1.91A1.59,1.59,0,0,1,97.21,370.14Z"/><path class="cls-15" d="M103.49,391.5s9.39,1.64,9.1-4.81C112.59,386.69,114.18,393.65,103.49,391.5Z"/></g></g></g></g></svg>