<svg xmlns="http://www.w3.org/2000/svg" viewBox="0 0 261.04 780.22"><defs><style>.cls-1{fill:#fcca65;}.cls-2{fill:#f2f2f2;}.cls-3{fill:#5d5d5d;}.cls-4{fill:#474747;}.cls-5{fill:#f4a721;}.cls-6{fill:#b3b3b3;}.cls-7{fill:#4c5b47;}.cls-8{fill:#556052;}.cls-9{fill:#999;}.cls-10{fill:#565556;}.cls-11{fill:#4f4c4f;}.cls-12{fill:#cccacc;}.cls-13{fill:#020202;}.cls-14{fill:#fff;}</style></defs><title>rcg</title><g id="Layer_2" data-name="Layer 2"><g id="rcg"><g id="rcg-2" data-name="rcg"><g id="rcgshirt"><g id="rcgshirt-2" data-name="rcgshirt"><path class="cls-1" d="M84.45,26.4s45.69,93.45,89.22,1.36A266.87,266.87,0,0,0,200.49,35L183.63,202.45s1,25.71,5.47,34.77c0,0-54.77,35.43-120.27-.18l6.54-39.59s-6.08-51.5-16.73-70.6V34.29S77.51,29.3,84.45,26.4Z"/><path class="cls-2" d="M118.71,2.83h0Z"/><path class="cls-2" d="M110.91,3h0Z"/><path class="cls-2" d="M138.53,2.49l1,0Z"/><path class="cls-2" d="M138.36,2.49h0Z"/><path class="cls-2" d="M140.77,2.45Z"/><path class="cls-3" d="M107.33,43.76c-5.33-10.67-25.14-17-25.14-17h0C105.38,24.06,108.69.05,108.69.05,35.39,1.29,49.11,34.76,49.13,34.81c-8.84,2.89-16.84,6.42-20.05,10.36-8.75,10.75-12.75,88.25-12.75,88.25,0,51-6.5,49.75-12.5,78.53s-1.62,69.24-1.62,69.24L0,297.42c6.42-4.25,24.08,3.5,24.08,3.5l4.75-8.5c5.21-2.53,2.5-4.5,2.5-4.5,18-48.5,16.09-101.16,16.09-101.16,14.58-22.9,10.86-58.69,10.86-58.69s4,23.6,7.55,34.35-2.75,52.25-2.75,52.25c-2.5,1.75-1,5.75-1,5.75l-3.44,9.34c20,17.33,56.28,18.66,56.28,18.66l-2.25-194ZM80.78,26.9h0Zm-1.35.16-.44.05Zm-.66.07-.25,0Zm-.73.09-.52.06Zm-.53.06-1.27.15Zm-2.93.34-1,.12Zm-1.19.14-.32,0Zm-.92.1-.13,0Z"/><path class="cls-3" d="M259.67,281.76c3.45-45-12.34-101-15-106.34S242,68.42,231.33,52.76c-8-11.82-11.16-14.43-25.32-18C217-2.75,150.88.05,150.88.05s-.22,2.91,6.25,18c2.21,5.16,9.76,9,18.27,11.8-21,2.53-28.73,24.53-28.73,24.53V248.09c25,4.33,57.18-13,57.18-13l-3.95-8.33c3.9-1.67,0-4.67,0-4.67-7.1-13.33-10.57-58.23-10.57-58.23L195,136.09c2.88,18,19,35,18.33,60.67S228,285.42,228,285.42c-.67,4.67,3.67,8.34,3.67,8.34l3,17.34c5.66-5.66,23-3.68,23-3.68l1-18.33C263.33,286.42,259.67,281.76,259.67,281.76Z"/><path class="cls-4" d="M74.58,25.42s6.65-13.86,30.2-14.18C104.78,11.24,97.46,30.3,74.58,25.42Z"/><path class="cls-4" d="M154.25,11.24s2.83,17.18,24.83,19.43C179.08,30.67,187.16,10.31,154.25,11.24Z"/></g><path class="cls-4" d="M63.06,38.92s31.77-6.55,37,35.4C100.06,74.32,92.83,41.92,63.06,38.92Z"/><path class="cls-4" d="M189.19,38.92s-30-6.55-34.94,35.4C154.25,74.32,161.07,41.92,189.19,38.92Z"/><path class="cls-5" d="M112.79,65.09s11.6,10.67,25.74,6C138.53,71.09,121.91,81.43,112.79,65.09Z"/><path class="cls-4" d="M63.06,219.57s14.86,12.65,31.77,13.56l-1.08,10.29L93.56,234h-1l-.78,7.62L91.41,234l-1.67-.91v5.6l-1.46-5.6L87.5,237l-.59-3.85s-6.35-1-8-1.63-1.8,6.25-1.8,6.25l-1.37-8.6-1.76-1-.2,6.26-.75-7.65-1.62,7.48.59-7.63-1.1-.51L69.1,237.63l.88-12L69,225l-1,8.72.22-9.23-5.16-4.87"/><path class="cls-4" d="M198.18,227.84s-14.32,8.75-28.81,7.26L168.9,244l1.43-8,.83.13-.36,6.58,1.35-6.42,1.55-.55-.76,4.76,2-4.56.15,3.37,1-3.19s5.53,0,7-.32.7,5.56.7,5.56l2.32-7.13,1.62-.59-.67,5.34,1.67-6.4.37,6.57.52-6.56,1-.28,0,10,.86-10.33.9-.44-.3,7.55,1-7.87,5-3.44"/><path class="cls-4" d="M163.33,185.42s7.22,18.56,25.86,21.78C189.19,207.2,169.83,213.42,163.33,185.42Z"/><path class="cls-4" d="M101.45,185.42S93.79,204,74,207.2C74,207.2,94.55,213.42,101.45,185.42Z"/><polygon class="cls-6" points="113.25 54.42 110.83 54.42 112.48 248.16 114.38 248.42 113.25 54.42"/></g><g id="rcgpants"><path class="cls-7" d="M63.53,237.07s66.09,41.32,132,0c0,0,22.35,25.17,19.28,80s4.57,34.68-25.43,178c0,0-2.44,19.66,0,49.33C191.71,573.27,176,651.09,176,651.09l-13.4,45.32s-15.37,9.24-26,0c0,0-1.7-51.65-3.49-63.61s-5.24-62.69,5.21-112.84c0,0-8.69-162.77-5.46-168A9.58,9.58,0,0,1,124.6,353s2.87,131-.52,144.14-.25,54.5-.25,54.5,9,39,2,82.75l-4.21,58S109.23,702.79,96,695c0,0-24.7-95.56-25.95-109.31s2.75-65.25,2-71-.25-42.75-11-74.25-17-84.75-17-84.75S36.47,271,63.53,237.07Z"/><path class="cls-8" d="M53.66,256.75s79.34,43.67,142,6.34c0,0-53.34,44.33-143.8-3Z"/></g><g id="Cloudy_RainShoes" data-name="Cloudy/RainShoes"><path class="cls-9" d="M92.51,746.49s-15.87,19.21-5.29,29.76,39.69-2.64,40.42-7.91,0-20.72,0-20.72.74,15.82-4.38,19.21-17.86,14.69-35.71,3.77C87.55,770.6,82.26,764.57,92.51,746.49Z"/><path class="cls-10" d="M119,729.11s1.81-4,6,1.14l1.53-9.37s2.48,34.18.2,42.19c-1.11,3.88-9.83-4.15-9.83-4.15Z"/><path class="cls-10" d="M103.57,729.12s-2.23-4.24-5.95-2.26c0,0-3-5.37-1.47-8.48,0,0-5.49,6.25-2.74,14.16,0,0,.91,10-.9,14,0,0-6.19,10.6-6.94,14.69l9.63-4.71S102.4,743.38,103.57,729.12Z"/><path class="cls-11" d="M93.17,757.77s11.54-19.56,9.53-34.44c0,0,7.69-5.51,15.88,0,0,0,2.06,27.14-1.27,36.66Z"/><path class="cls-12" d="M86.84,760s16.45-14.58,39.13,2.78c0,0,4.39,9.86-22.4,13.48C79.47,779.5,86.84,760,86.84,760Z"/><polygon class="cls-12" points="95.2 750.8 106.82 745.74 98.36 742.35 98.36 740.43 106.82 743.86 119.12 741.23 119.02 743.11 108.12 745.62 118 750.8 117.64 752.19 107.16 748 95.2 752 95.2 750.8"/><polygon class="cls-12" points="97.49 739.04 109.11 733.98 100.66 730.59 100.66 728.68 109.11 732.1 121.41 729.48 121.31 731.36 110.41 733.86 120.29 739.04 119.93 740.43 109.45 736.24 97.49 740.25 97.49 739.04"/><path class="cls-13" d="M100.43,727.75s-2.89,2.26.5,3.86C100.93,731.61,99.11,729.64,100.43,727.75Z"/><path class="cls-13" d="M97.75,737.63s-2.9,2.26.49,3.86C98.24,741.49,96.42,739.51,97.75,737.63Z"/><path class="cls-13" d="M94.9,749.62s-2.89,2.26.49,3.86C95.39,753.48,93.58,751.5,94.9,749.62Z"/><path class="cls-13" d="M118.38,749.62s3.17,2.26-.54,3.86C117.84,753.48,119.83,751.5,118.38,749.62Z"/><path class="cls-13" d="M120.18,737.63s3.17,2.26-.54,3.86C119.64,741.49,121.63,739.51,120.18,737.63Z"/><path class="cls-13" d="M121.53,728.68s3.17,2.26-.55,3.86C121,732.54,123,730.56,121.53,728.68Z"/><path class="cls-14" d="M88,764.13s-1.64,11.71,18.76,8.54C106.71,772.67,86.39,777.54,88,764.13Z"/><path class="cls-10" d="M143.42,725.42s-5.09-2.59-6.83,1c0,0-6.75-5.13-7.9-12.48a129,129,0,0,1-1,36.91s.1,10.59,2.46,12.4S142.79,753,142.79,753Z"/><path class="cls-10" d="M159.2,726.92s2.59-2,5-.63c0,0-1.62-7.95-4.11-10.35s9.41,1.81,6.54,32.06L174,759.39l-11.4-5.91S158.14,729.59,159.2,726.92Z"/><path class="cls-11" d="M141.52,756s2.19-29.24,1.15-33.2c0,0,8.12-4.8,16.36,0,0,0,1.07,24.49,5.69,30.47Z"/><path class="cls-9" d="M166.74,748.83s17.28,16.54,5.67,26.08-44.12-1.14-44.92-5.91.59-20,.59-20-.82,14.31,4.8,17.38,19.58,13.28,39.17,3.4C172.05,769.8,178,765.18,166.74,748.83Z"/><path class="cls-12" d="M130.52,764.58S149.59,738.4,172,758.2c0,0,9,16.69-11.5,16.54S137.25,771.18,130.52,764.58Z"/><polygon class="cls-12" points="164.71 749.97 153.82 744.91 161.75 741.52 161.75 739.6 153.82 743.02 142.3 740.4 142.4 742.28 152.61 744.78 143.35 749.97 143.69 751.36 153.5 747.17 164.71 751.17 164.71 749.97"/><polygon class="cls-12" points="162.56 738.21 151.68 733.15 159.6 729.76 159.6 727.85 151.68 731.27 140.16 728.64 140.25 730.53 150.46 733.03 141.21 738.21 141.54 739.6 151.36 735.41 162.56 739.42 162.56 738.21"/><path class="cls-13" d="M159.81,726.92s2.71,2.26-.47,3.86C159.34,730.78,161.05,728.8,159.81,726.92Z"/><path class="cls-13" d="M162.32,736.8s2.71,2.26-.46,3.86C161.86,740.66,163.56,738.68,162.32,736.8Z"/><path class="cls-13" d="M165,748.78s2.71,2.26-.46,3.86C164.53,752.64,166.23,750.67,165,748.78Z"/><path class="cls-13" d="M143,748.78s-3,2.26.51,3.86C143.51,752.64,141.64,750.67,143,748.78Z"/><path class="cls-13" d="M141.31,736.8s-3,2.26.51,3.86C141.82,740.66,140,738.68,141.31,736.8Z"/><path class="cls-13" d="M140.05,727.85s-3,2.26.51,3.86C140.56,731.71,138.69,729.73,140.05,727.85Z"/><path class="cls-14" d="M152.76,770.88s19,3.3,18.43-9.7C171.19,761.18,174.42,775.21,152.76,770.88Z"/></g></g></g></g></svg>