<svg xmlns="http://www.w3.org/2000/svg" viewBox="0 0 261.04 769.02"><defs><style>.cls-1{fill:#f2eee7;}.cls-2{fill:#f2f2f2;}.cls-3{fill:#9b5d5d;}.cls-4{fill:#774747;}.cls-5{fill:#c6c5c4;}.cls-6{fill:#b3b3b3;}.cls-7{fill:#2d2f3d;}.cls-8{fill:#383b49;}.cls-9{fill:#999;}.cls-10{fill:#565556;}.cls-11{fill:#4f4c4f;}.cls-12{fill:#cccacc;}.cls-13{fill:#020202;}.cls-14{fill:#fff;}</style></defs><title>rcg2</title><g id="Layer_2" data-name="Layer 2"><g id="rcg2"><g id="rcg2-2" data-name="rcg2"><g id="rcgshirt2"><g id="rcgshirt"><path class="cls-1" d="M84.45,26.4s45.69,93.45,89.22,1.36A266.87,266.87,0,0,0,200.49,35L183.63,202.45s1,25.71,5.47,34.77c0,0-54.77,35.43-120.27-.18l6.54-39.59s-6.08-51.5-16.73-70.6V34.29S77.51,29.3,84.45,26.4Z"/><path class="cls-2" d="M118.71,2.83h0Z"/><path class="cls-2" d="M110.91,3h0Z"/><path class="cls-2" d="M138.53,2.49l1,0Z"/><path class="cls-2" d="M138.36,2.49h0Z"/><path class="cls-2" d="M140.77,2.45Z"/><path class="cls-3" d="M107.33,43.76c-5.33-10.67-25.14-17-25.14-17h0C105.38,24.06,108.69.05,108.69.05,35.39,1.29,49.11,34.76,49.13,34.81c-8.84,2.89-16.84,6.42-20.05,10.36-8.75,10.75-12.75,88.25-12.75,88.25,0,51-6.5,49.75-12.5,78.53s-1.62,69.24-1.62,69.24L0,297.42c6.42-4.25,24.08,3.5,24.08,3.5l4.75-8.5c5.21-2.53,2.5-4.5,2.5-4.5,18-48.5,16.09-101.16,16.09-101.16,14.58-22.9,10.86-58.69,10.86-58.69s4,23.6,7.55,34.35-2.75,52.25-2.75,52.25c-2.5,1.75-1,5.75-1,5.75l-3.44,9.34c20,17.33,56.28,18.66,56.28,18.66l-2.25-194ZM80.78,26.9h0Zm-1.35.16-.44.05Zm-.66.07-.25,0Zm-.73.09-.52.06Zm-.53.06-1.27.15Zm-2.93.34-1,.12Zm-1.19.14-.32,0Zm-.92.1-.13,0Z"/><path class="cls-3" d="M259.67,281.76c3.45-45-12.34-101-15-106.34S242,68.42,231.33,52.76c-8-11.82-11.16-14.43-25.32-18C217-2.75,150.88.05,150.88.05s-.22,2.91,6.25,18c2.21,5.16,9.76,9,18.27,11.8-21,2.53-28.73,24.53-28.73,24.53V248.09c25,4.33,57.18-13,57.18-13l-3.95-8.33c3.9-1.67,0-4.67,0-4.67-7.1-13.33-10.57-58.23-10.57-58.23L195,136.09c2.88,18,19,35,18.33,60.67S228,285.42,228,285.42c-.67,4.67,3.67,8.34,3.67,8.34l3,17.34c5.66-5.66,23-3.68,23-3.68l1-18.33C263.33,286.42,259.67,281.76,259.67,281.76Z"/><path class="cls-4" d="M74.58,25.42s6.65-13.86,30.2-14.18C104.78,11.24,97.46,30.3,74.58,25.42Z"/><path class="cls-4" d="M154.25,11.24s2.83,17.18,24.83,19.43C179.08,30.67,187.16,10.31,154.25,11.24Z"/></g><path class="cls-4" d="M63.06,38.92s31.77-6.55,37,35.4C100.06,74.32,92.83,41.92,63.06,38.92Z"/><path class="cls-4" d="M189.19,38.92s-30-6.55-34.94,35.4C154.25,74.32,161.07,41.92,189.19,38.92Z"/><path class="cls-5" d="M112.79,65.09s11.6,10.67,25.74,6C138.53,71.09,121.91,81.43,112.79,65.09Z"/><path class="cls-4" d="M63.06,219.57s14.86,12.65,31.77,13.56l-1.08,10.29L93.56,234h-1l-.78,7.62L91.41,234l-1.67-.91v5.6l-1.46-5.6L87.5,237l-.59-3.85s-6.35-1-8-1.63-1.8,6.25-1.8,6.25l-1.37-8.6-1.76-1-.2,6.26-.75-7.65-1.62,7.48.59-7.63-1.1-.51L69.1,237.63l.88-12L69,225l-1,8.72.22-9.23-5.16-4.87"/><path class="cls-4" d="M198.18,227.84s-14.32,8.75-28.81,7.26L168.9,244l1.43-8,.83.13-.36,6.58,1.35-6.42,1.55-.55-.76,4.76,2-4.56.15,3.37,1-3.19s5.53,0,7-.32.7,5.56.7,5.56l2.32-7.13,1.62-.59-.67,5.34,1.67-6.4.37,6.57.52-6.56,1-.28,0,10,.86-10.33.9-.44-.3,7.55,1-7.87,5-3.44"/><path class="cls-4" d="M163.33,185.42s7.22,18.56,25.86,21.78C189.19,207.2,169.83,213.42,163.33,185.42Z"/><path class="cls-4" d="M101.45,185.42S93.79,204,74,207.2C74,207.2,94.55,213.42,101.45,185.42Z"/><polygon class="cls-6" points="113.25 54.42 110.83 54.42 112.48 248.16 114.38 248.42 113.25 54.42"/></g><g id="rcgpants2"><path class="cls-7" d="M65,237.07s66.1,41.32,132,0c0,0,22.35,25.17,19.28,80s4.58,34.68-25.42,178c0,0-2.44,19.66,0,49.33,2.37,28.85-13.33,106.67-13.33,106.67l-13.4,45.32s-15.38,9.24-26,0c0,0-1.71-51.65-3.49-63.61s-5.24-62.69,5.21-112.84c0,0-8.7-162.77-5.47-168A9.58,9.58,0,0,1,126,353s2.88,131-.51,144.14-.25,54.5-.25,54.5,9,39,2,82.75l-4.21,58S110.68,702.79,97.48,695c0,0-24.7-95.56-25.95-109.31s2.75-65.25,2-71-.25-42.75-11-74.25-17-84.75-17-84.75S37.92,271,65,237.07Z"/><path class="cls-8" d="M55.11,256.75s79.34,43.67,142,6.34c0,0-53.33,44.33-143.79-3Z"/></g><g id="Cloudy_RainShoes" data-name="Cloudy/RainShoes"><path class="cls-9" d="M93.78,735.29s-15.87,19.21-5.29,29.76,39.69-2.64,40.42-7.91,0-20.72,0-20.72.75,15.82-4.37,19.21-17.86,14.69-35.72,3.77C88.82,759.4,83.53,753.37,93.78,735.29Z"/><path class="cls-10" d="M120.27,717.91s1.81-3.95,6,1.14l1.53-9.37s2.48,34.18.2,42.18c-1.11,3.89-9.84-4.14-9.84-4.14Z"/><path class="cls-10" d="M104.85,717.92s-2.23-4.24-5.95-2.26c0,0-3-5.37-1.48-8.48,0,0-5.49,6.25-2.73,14.16,0,0,.9,10-.91,13.95,0,0-6.19,10.59-6.93,14.69l9.63-4.71S103.68,732.18,104.85,717.92Z"/><path class="cls-11" d="M94.45,746.56S106,727,104,712.12c0,0,7.69-5.5,15.87,0,0,0,2.07,27.15-1.26,36.67Z"/><path class="cls-12" d="M88.12,748.79s16.44-14.59,39.13,2.78c0,0,4.38,9.86-22.4,13.48C80.75,768.3,88.12,748.79,88.12,748.79Z"/><polygon class="cls-12" points="96.48 739.59 108.09 734.54 99.64 731.15 99.64 729.23 108.09 732.65 120.39 730.03 120.29 731.91 109.39 734.41 119.27 739.59 118.92 740.99 108.44 736.8 96.48 740.8 96.48 739.59"/><polygon class="cls-12" points="98.77 727.84 110.39 722.78 101.93 719.39 101.93 717.48 110.39 720.9 122.69 718.27 122.58 720.16 111.69 722.66 121.56 727.84 121.21 729.23 110.73 725.04 98.77 729.05 98.77 727.84"/><path class="cls-13" d="M101.71,716.55s-2.9,2.26.49,3.86C102.2,720.41,100.38,718.43,101.71,716.55Z"/><path class="cls-13" d="M99,726.43s-2.89,2.26.5,3.86C99.52,730.29,97.7,728.31,99,726.43Z"/><path class="cls-13" d="M96.17,738.41s-2.89,2.26.5,3.86C96.67,742.27,94.85,740.3,96.17,738.41Z"/><path class="cls-13" d="M119.66,738.41s3.17,2.26-.55,3.86C119.11,742.27,121.1,740.3,119.66,738.41Z"/><path class="cls-13" d="M121.46,726.43s3.17,2.26-.54,3.86C120.92,730.29,122.91,728.31,121.46,726.43Z"/><path class="cls-13" d="M122.8,717.48s3.17,2.26-.54,3.86C122.26,721.34,124.25,719.36,122.8,717.48Z"/><path class="cls-14" d="M89.22,752.93s-1.64,11.71,18.77,8.54C108,761.47,87.67,766.34,89.22,752.93Z"/><path class="cls-10" d="M144.7,714.22s-5.1-2.59-6.83,1c0,0-6.75-5.14-7.9-12.48a129.2,129.2,0,0,1-1,36.91s.1,10.58,2.47,12.4,12.61-10.33,12.61-10.33Z"/><path class="cls-10" d="M160.48,715.72s2.59-2,5-.63c0,0-1.61-8-4.1-10.35s9.41,1.81,6.53,32.06l7.39,11.39-11.41-5.92S159.42,718.39,160.48,715.72Z"/><path class="cls-11" d="M142.79,744.75S145,715.51,144,711.56c0,0,8.12-4.8,16.36,0,0,0,1.07,24.48,5.69,30.46Z"/><path class="cls-9" d="M168,737.63s17.28,16.54,5.68,26.08-44.12-1.14-44.92-5.91.58-20,.58-20-.82,14.31,4.81,17.37,19.58,13.29,39.16,3.41C173.32,758.6,179.26,754,168,737.63Z"/><path class="cls-12" d="M131.79,753.38S150.86,727.2,173.3,747c0,0,9,16.69-11.5,16.54S138.53,760,131.79,753.38Z"/><polygon class="cls-12" points="165.98 738.76 155.1 733.7 163.02 730.31 163.02 728.4 155.1 731.82 143.58 729.2 143.67 731.08 153.88 733.58 144.63 738.76 144.96 740.15 154.78 735.96 165.98 739.97 165.98 738.76"/><polygon class="cls-12" points="163.84 727.01 152.95 721.95 160.87 718.56 160.87 716.64 152.95 720.07 141.43 717.44 141.53 719.33 151.74 721.83 142.48 727.01 142.82 728.4 152.63 724.21 163.84 728.22 163.84 727.01"/><path class="cls-13" d="M161.08,715.72s2.71,2.26-.46,3.86C160.62,719.58,162.32,717.6,161.08,715.72Z"/><path class="cls-13" d="M163.6,725.59s2.71,2.26-.47,3.87C163.13,729.46,164.84,727.48,163.6,725.59Z"/><path class="cls-13" d="M166.27,737.58s2.71,2.26-.47,3.86C165.8,741.44,167.5,739.46,166.27,737.58Z"/><path class="cls-13" d="M144.27,737.58s-3,2.26.51,3.86C144.78,741.44,142.91,739.46,144.27,737.58Z"/><path class="cls-13" d="M142.58,725.59s-3,2.26.51,3.87C143.09,729.46,141.22,727.48,142.58,725.59Z"/><path class="cls-13" d="M141.32,716.64s-3,2.26.51,3.86C141.83,720.5,140,718.53,141.32,716.64Z"/><path class="cls-14" d="M154,759.68s19,3.29,18.44-9.7C172.47,750,175.69,764,154,759.68Z"/></g></g></g></g></svg>