<svg xmlns="http://www.w3.org/2000/svg" viewBox="0 0 183 415"><defs><style>.cls-1{fill:none;}.cls-2{fill:#f2eee7;}.cls-3{fill:#f2f2f2;}.cls-4{fill:#9b5d5d;}.cls-5{fill:#774747;}.cls-6{fill:#c6c5c4;}.cls-7{fill:#b3b3b3;}.cls-8{fill:#2d2f3d;}.cls-9{fill:#383b49;}.cls-10{fill:#999;}.cls-11{fill:#565556;}.cls-12{fill:#4f4c4f;}.cls-13{fill:#cccacc;}.cls-14{fill:#020202;}.cls-15{fill:#fff;}</style></defs><title>rcg2</title><g id="Layer_2" data-name="Layer 2"><g id="rcg2"><g id="rcg2-2" data-name="rcg2"><rect class="cls-1" width="183" height="415"/><g id="rcgshirt2"><g id="rcgshirt"><path class="cls-2" d="M69.75,21.75s22.56,46.38,44.06.67A131.39,131.39,0,0,0,127.06,26l-8.33,83.11s.48,12.76,2.71,17.26c0,0-27.06,17.59-59.41-.09l3.23-19.65s-3-25.56-8.26-35V25.66S66.32,23.18,69.75,21.75Z"/><path class="cls-3" d="M86.67,10.05h0Z"/><path class="cls-3" d="M82.82,10.11h0Z"/><path class="cls-3" d="M96.46,9.88h0Z"/><path class="cls-3" d="M96.38,9.88h0Z"/><path class="cls-3" d="M97.57,9.86Z"/><path class="cls-4" d="M81.05,30.36c-2.64-5.29-12.42-8.44-12.42-8.44h0C80.08,20.58,81.72,8.67,81.72,8.67,45.51,9.28,52.29,25.9,52.3,25.92c-4.37,1.44-8.32,3.19-9.9,5.14-4.33,5.34-6.3,43.81-6.3,43.81,0,25.31-3.21,24.69-6.18,39s-.8,34.36-.8,34.36L28,156.27c3.17-2.11,11.9,1.74,11.9,1.74l2.34-4.22c2.58-1.25,1.24-2.23,1.24-2.23,8.89-24.08,8-50.22,8-50.22,7.2-11.36,5.36-29.13,5.36-29.13s2,11.72,3.73,17.05-1.36,25.94-1.36,25.94c-1.23.87-.49,2.85-.49,2.85L57,122.68c9.87,8.61,27.79,9.27,27.79,9.27L83.68,35.66ZM67.93,22h0Zm-.67.07-.21,0Zm-.32,0-.12,0Zm-.36,0-.26,0Zm-.26,0-.63.08Zm-1.45.17-.52.06Zm-.59.07-.16,0Zm-.45,0h0Z"/><path class="cls-4" d="M156.29,148.5c1.71-22.34-6.09-50.14-7.41-52.78s-1.31-53.11-6.58-60.89c-4-5.87-5.52-7.16-12.51-8.92,5.4-18.63-27.23-17.24-27.23-17.24s-.11,1.44,3.08,9c1.09,2.56,4.83,4.48,9,5.86-10.35,1.25-14.19,12.18-14.19,12.18v96.12c12.35,2.16,28.24-6.45,28.24-6.45l-2-4.13c1.93-.83,0-2.32,0-2.32-3.51-6.62-5.22-28.9-5.22-28.9l2.8-13.79c1.42,8.93,9.39,17.38,9.06,30.12s7.24,44,7.24,44c-.33,2.31,1.81,4.13,1.81,4.13l1.48,8.61c2.8-2.81,11.37-1.82,11.37-1.82l.49-9.1C158.1,150.81,156.29,148.5,156.29,148.5Z"/><path class="cls-5" d="M64.87,21.26s3.28-6.88,14.92-7C79.79,14.22,76.17,23.68,64.87,21.26Z"/><path class="cls-5" d="M104.22,14.22s1.4,8.53,12.27,9.65C116.49,23.87,120.48,13.76,104.22,14.22Z"/></g><path class="cls-5" d="M59.18,28s15.69-3.25,18.28,17.57C77.46,45.53,73.89,29.45,59.18,28Z"/><path class="cls-5" d="M121.48,28s-14.82-3.25-17.26,17.57C104.22,45.53,107.59,29.45,121.48,28Z"/><path class="cls-6" d="M83.74,41s5.73,5.3,12.72,3C96.46,43.93,88.25,49.06,83.74,41Z"/><path class="cls-5" d="M59.18,117.63s7.34,6.28,15.69,6.73l-.53,5.11-.1-4.66h-.48l-.39,3.79-.19-3.79-.82-.45v2.78l-.72-2.78-.39,1.91L71,124.36s-3.14-.52-3.93-.81-.9,3.1-.9,3.1l-.67-4.26-.87-.49-.1,3.11-.37-3.8-.8,3.71.29-3.78-.54-.26-.91,5.71.44-6-.48-.33-.5,4.33.11-4.59-2.55-2.41"/><path class="cls-5" d="M125.92,121.73s-7.07,4.35-14.23,3.61l-.23,4.41.7-4,.41.07-.17,3.27.67-3.19.76-.27-.37,2.36,1-2.27.07,1.68.5-1.59s2.74,0,3.45-.16.35,2.76.35,2.76l1.14-3.53.81-.3-.34,2.65.83-3.17.18,3.26.26-3.26.49-.14v5l.43-5.13.44-.22-.14,3.75.51-3.91,2.49-1.71"/><path class="cls-5" d="M108.71,100.68s3.56,9.21,12.77,10.81C121.48,111.49,111.92,114.58,108.71,100.68Z"/><path class="cls-5" d="M78.14,100.68s-3.78,9.21-13.56,10.81C64.58,111.49,74.73,114.58,78.14,100.68Z"/><polygon class="cls-7" points="83.97 35.66 82.78 35.66 83.59 131.82 84.53 131.95 83.97 35.66"/></g><g id="rcgpants2"><path class="cls-8" d="M59.12,128.32s32.65,20.5,65.18,0c0,0,11,12.49,9.53,39.71s2.25,17.21-12.56,88.36a132.29,132.29,0,0,0,0,24.48c1.18,14.32-6.58,52.95-6.58,52.95l-6.62,22.5s-7.59,4.58-12.84,0c0,0-.84-25.64-1.72-31.58s-2.59-31.12,2.57-56c0,0-4.29-80.79-2.7-83.4a4.68,4.68,0,0,1-4.08.56s1.42,65-.25,71.55-.13,27.05-.13,27.05a120.33,120.33,0,0,1,1,41.08l-2.08,28.8s-6.12,5.13-12.64,1.26c0,0-12.2-47.44-12.82-54.26s1.36-32.39,1-35.24-.12-21.22-5.43-36.86-8.4-42.06-8.4-42.06S45.76,145.14,59.12,128.32Z"/><path class="cls-9" d="M54.25,138.09s39.19,21.67,70.14,3.14c0,0-26.34,22-71-1.51Z"/></g><g id="Cloudy_RainShoes" data-name="Cloudy/RainShoes"><path class="cls-10" d="M73.35,379.61s-7.84,9.54-2.61,14.77,19.61-1.31,20-3.92a94.54,94.54,0,0,0,0-10.29s.37,7.86-2.16,9.54S79.72,397,70.9,391.58C70.9,391.58,68.29,388.59,73.35,379.61Z"/><path class="cls-11" d="M86.44,371s.89-2,3,.56l.75-4.65s1.23,17,.1,20.94c-.55,1.93-4.86-2.06-4.86-2.06Z"/><path class="cls-11" d="M78.82,371s-1.1-2.1-2.94-1.12c0,0-1.46-2.67-.73-4.21a7.56,7.56,0,0,0-1.35,7s.45,4.94-.45,6.92c0,0-3,5.26-3.42,7.29l4.76-2.33A39,39,0,0,0,78.82,371Z"/><path class="cls-12" d="M73.68,385.21s5.7-9.71,4.71-17.1a7.06,7.06,0,0,1,7.84,0s1,13.48-.62,18.2Z"/><path class="cls-13" d="M70.56,386.31s8.12-7.24,19.32,1.38c0,0,2.17,4.9-11.06,6.69C66.92,396,70.56,386.31,70.56,386.31Z"/><polygon class="cls-13" points="74.69 381.75 80.42 379.24 76.25 377.56 76.25 376.61 80.42 378.3 86.5 377 86.45 377.94 81.07 379.18 85.95 381.75 85.77 382.44 80.59 380.36 74.69 382.35 74.69 381.75"/><polygon class="cls-13" points="75.82 375.92 81.56 373.4 77.38 371.72 77.38 370.77 81.56 372.47 87.63 371.17 87.58 372.1 82.2 373.34 87.08 375.92 86.9 376.61 81.72 374.53 75.82 376.51 75.82 375.92"/><path class="cls-14" d="M77.27,370.31a1,1,0,0,0,.24,1.92A1.62,1.62,0,0,1,77.27,370.31Z"/><path class="cls-14" d="M75.94,375.21s-1.43,1.13.25,1.92A1.63,1.63,0,0,1,75.94,375.21Z"/><path class="cls-14" d="M74.54,381.16s-1.43,1.13.24,1.92A1.62,1.62,0,0,1,74.54,381.16Z"/><path class="cls-14" d="M86.13,381.16s1.57,1.13-.26,1.92C85.87,383.08,86.85,382.1,86.13,381.16Z"/><path class="cls-14" d="M87,375.21s1.56,1.13-.27,1.92C86.76,377.13,87.74,376.15,87,375.21Z"/><path class="cls-14" d="M87.69,370.77s1.57,1.12-.27,1.92C87.42,372.69,88.41,371.71,87.69,370.77Z"/><path class="cls-15" d="M71.1,388.37s-.81,5.81,9.27,4.24C80.37,392.61,70.34,395,71.1,388.37Z"/><path class="cls-11" d="M98.5,369.15s-2.51-1.28-3.37.52c0,0-3.33-2.55-3.9-6.19a64.51,64.51,0,0,1-.48,18.32s0,5.25,1.21,6.15,6.23-5.12,6.23-5.12Z"/><path class="cls-11" d="M106.3,369.9a2.37,2.37,0,0,1,2.46-.31s-.8-3.95-2-5.14,4.65.9,3.23,15.91L113.6,386,108,383.08S105.78,371.22,106.3,369.9Z"/><path class="cls-12" d="M97.56,384.31s1.08-14.51.58-16.48a8.42,8.42,0,0,1,8.08,0S106.74,380,109,383Z"/><path class="cls-10" d="M110,380.77s8.54,8.22,2.8,13-21.79-.57-22.18-2.93.28-9.92.28-9.92-.4,7.1,2.38,8.62,9.67,6.6,19.34,1.69C112.64,391.18,115.57,388.89,110,380.77Z"/><path class="cls-13" d="M92.13,388.59s9.42-13,20.5-3.16c0,0,4.45,8.28-5.68,8.21S95.46,391.87,92.13,388.59Z"/><polygon class="cls-13" points="109.02 381.34 103.64 378.83 107.56 377.14 107.56 376.19 103.64 377.89 97.95 376.59 98 377.52 103.04 378.76 98.47 381.34 98.64 382.03 103.48 379.95 109.02 381.94 109.02 381.34"/><polygon class="cls-13" points="107.96 375.5 102.58 372.99 106.5 371.31 106.5 370.36 102.58 372.06 96.89 370.75 96.94 371.69 101.98 372.93 97.41 375.5 97.58 376.19 102.42 374.11 107.96 376.1 107.96 375.5"/><path class="cls-14" d="M106.6,369.9a1.07,1.07,0,0,1-.23,1.92A1.71,1.71,0,0,0,106.6,369.9Z"/><path class="cls-14" d="M107.84,374.8a1.07,1.07,0,0,1-.23,1.92A1.71,1.71,0,0,0,107.84,374.8Z"/><path class="cls-14" d="M109.16,380.75a1.07,1.07,0,0,1-.23,1.92A1.71,1.71,0,0,0,109.16,380.75Z"/><path class="cls-14" d="M98.29,380.75a1,1,0,0,0,.26,1.92A1.6,1.6,0,0,1,98.29,380.75Z"/><path class="cls-14" d="M97.46,374.8s-1.47,1.12.25,1.92A1.6,1.6,0,0,1,97.46,374.8Z"/><path class="cls-14" d="M96.84,370.36s-1.47,1.12.25,1.91A1.59,1.59,0,0,1,96.84,370.36Z"/><path class="cls-15" d="M103.12,391.72s9.39,1.64,9.1-4.82C112.22,386.9,113.81,393.87,103.12,391.72Z"/></g></g></g></g></svg>