<svg xmlns="http://www.w3.org/2000/svg" viewBox="0 0 256.35 756.85"><defs><style>.cls-1{fill:#262626;}.cls-2{fill:#777;}.cls-3{fill:#333;}.cls-4{fill:#232323;}.cls-5{fill:#3a3a3a;}.cls-6{fill:#212121;}.cls-7{fill:#3d3d3d;}.cls-8{fill:#4c4c4c;}</style></defs><title>rfg</title><g id="Layer_2" data-name="Layer 2"><g id="rfg"><g id="rfg-2" data-name="rfg"><g id="dressshoes_girl" data-name="dressshoes girl"><path class="cls-1" d="M96,701.9s1.86,34.45,12.11,35,20.2-36.22,20.2-36.22-1.55,18.14,0,22.72,1.72,22.31-.49,25.53-22.95,8-26.45,8-17.09-5.94-17.8-11,7.55-9.53,7.55-14.53S96,701.9,96,701.9Z"/><path class="cls-2" d="M89.65,739.6s-.93,11,12.25,12.75C101.9,752.35,87.42,754.36,89.65,739.6Z"/><path class="cls-1" d="M163.9,703.35s-2.79,33-13,33.5-21.52-36.22-21.52-36.22,2.88,18.14,1.33,22.72-3.85,22.73-1.65,25.95,25.09,7.55,28.59,7.55,17.1-5.94,17.8-11-6.54-9.53-6.54-14.53S163.9,703.35,163.9,703.35Z"/><path class="cls-2" d="M169.36,739.6s.93,11-12.25,12.75C157.11,752.35,171.6,754.36,169.36,739.6Z"/></g><g id="rfgskirt"><path class="cls-3" d="M74.92,178.26s54.43,25.45,108.72,1.21c0,0,6.7,14.24,15.26,32.5,10.78,23,27.23,110.5,1,211,0,0-16.37,38.36-14.06,73,.75,11.25-117,9.51-116-2,4.33-51.17-11.2-62.5-24.4-121.5C41.05,352.83,25.17,253.54,74.92,178.26Z"/><path class="cls-4" d="M76.17,180.91l2.88,1.73s-10.88,15.33-12.88,25C66.17,207.64,69.67,190,76.17,180.91Z"/><path class="cls-4" d="M84.84,187.14l2.51.67a44.36,44.36,0,0,0-6.43,19.83S81.34,196,84.84,187.14Z"/><path class="cls-4" d="M179.47,188.41l-2.87,1.73s10.87,15.33,12.87,25C189.47,215.14,186,197.51,179.47,188.41Z"/><path class="cls-4" d="M170.81,194.64l-2.52.67a44.22,44.22,0,0,1,6.43,19.83S174.31,203.47,170.81,194.64Z"/><path class="cls-4" d="M47.42,304.8S52.5,409.14,78.84,447.47c0,0,15.5,28.67,5.16,47,0,0,13-18,1.17-47.33C85.17,447.14,59,406.8,47.42,304.8Z"/></g><g id="rfgshirt"><path class="cls-3" d="M95.62,0S40.47,14.18,34.51,24.3,18.67,49.47,15.17,156c0,0-.25,7.25-7.25,20.5S0,283,0,283s13.5,5.22,21,2.49c0,0,26-98.74,24.48-111.49s14-35.5,17.23-59.5a31.62,31.62,0,0,0,7.25,24s8,28.86,5,39.83c0,0,60.43,28.45,108.72,1.21,0,0,3.47-41.05,4-44.23,0,0,11.8-13.16,8.4-27.72,0,0,8.27,32.54,15.43,44.12,0,0,4.91,23.08,2.41,45.83,0,0,2.7,23.75,20.72,77.38,0,0,16.15,6.87,21.59,3.37,0,0,1.91-89-9.45-105.89,0,0-8.09-29.19-6.72-33.9S241.42,38.22,227.92,27s-11.41-13.3-63.36-25.54c0,0-35.93,102.29-34.42,114.29C130.14,115.72,105.17,20,95.62,0Z"/><path class="cls-4" d="M68.83,102.33s-5.73,26.06,12,36.1l1.31,39.83,8-42.79S67.49,136.2,68.83,102.33Z"/><path class="cls-4" d="M74.92,178.26s41.52,36.37,108.72,1.21l1.53-16.67s-53.85,32.84-110,0Z"/><rect class="cls-5" x="149.04" y="172.83" width="18.65" height="23.33" rx="4.2" ry="4.2" transform="matrix(0.99, -0.15, 0.15, 0.99, -26.64, 26.73)"/><path class="cls-6" d="M164.53,174s21.83-33.75,28-28.88S164.53,174,164.53,174Z"/><path class="cls-7" d="M192.5,145.14s4.17,11,3.9,21.59,6.68,17.94,4.87,26.4-34.21-3-34.21-3,2.19-6.7-2.53-16.15"/><path class="cls-6" d="M166.9,178.72l16.61-13.48-13,12.9,9.6-1.5-10.29,3.64.69,3.64,11.59,3.89-13.88-.43S170.73,182.56,166.9,178.72Z"/><path class="cls-8" d="M189,151.88s4.14,13.54,3,19.15,5.19,19.18,5.19,19.18-3.46-13.14-2.8-17.91S189,151.88,189,151.88Z"/><path class="cls-6" d="M150.73,178.45s-31.1-25.47-35.45-18.94S150.73,178.45,150.73,178.45Z"/><path class="cls-7" d="M115.28,159.51s-.6,11.77,2.88,21.74-.87,19.12,3.44,26.62,31.66-13.27,31.66-13.27-4.13-5.72-2.53-16.15"/><path class="cls-6" d="M149.92,183.64,130,175.89l16.27,8.32-9.6,1.51,10.92.32.45,3.67L138.19,197l13.09-4.65S147.44,188.47,149.92,183.64Z"/><path class="cls-8" d="M120.64,164.86s.2,14.16,3,19.15.92,19.85.92,19.85-.72-13.57-2.81-17.92S120.64,164.86,120.64,164.86Z"/><path class="cls-6" d="M153.26,194.6s3.66-12.12-2.87-18.36"/><path class="cls-8" d="M154.86,180.91s6.86-5.33,10.49-1.65C165.35,179.26,154.92,168.12,154.86,180.91Z"/></g></g></g></g></svg>