<svg xmlns="http://www.w3.org/2000/svg" viewBox="0 0 183 415"><defs><style>.cls-1{fill:none;}.cls-2{fill:#262626;}.cls-3{fill:#777;}.cls-4{fill:#333;}.cls-5{fill:#232323;}.cls-6{fill:#3a3a3a;}.cls-7{fill:#212121;}.cls-8{fill:#3d3d3d;}.cls-9{fill:#4c4c4c;}</style></defs><title>rfg</title><g id="Layer_2" data-name="Layer 2"><g id="rfg"><g id="rfg-2" data-name="rfg"><rect class="cls-1" width="183" height="415"/><g id="dressshoes_girl" data-name="dressshoes girl"><path class="cls-2" d="M75.63,365.06s.92,17.1,6,17.35,10-18,10-18-.77,9,0,11.28.85,11.07-.24,12.67-11.34,4-13.07,4-8.44-2.95-8.79-5.45,3.73-4.73,3.73-7.21S75.63,365.06,75.63,365.06Z"/><path class="cls-3" d="M72.47,383.77s-.46,5.47,6,6.33C78.52,390.1,71.37,391.1,72.47,383.77Z"/><path class="cls-2" d="M109.15,365.78s-1.38,16.38-6.44,16.63-10.64-18-10.64-18,1.43,9,.66,11.28-1.9,11.28-.81,12.88,12.39,3.75,14.12,3.75,8.45-2.95,8.79-5.45-3.23-4.73-3.23-7.21S109.15,365.78,109.15,365.78Z"/><path class="cls-3" d="M111.85,383.77s.45,5.47-6.06,6.33C105.79,390.1,113,391.1,111.85,383.77Z"/></g><g id="rfgskirt"><path class="cls-4" d="M65.2,105.14s26.88,12.64,53.7.6c0,0,3.31,7.07,7.53,16.14,5.33,11.41,13.45,54.85.5,104.73,0,0-8.09,19-7,36.23.37,5.59-57.78,4.73-57.3-1,2.14-25.4-5.53-31-12-60.31C48.46,191.79,40.62,142.51,65.2,105.14Z"/><path class="cls-5" d="M65.81,106.46l1.42.86s-5.37,7.61-6.36,12.41C60.87,119.73,62.6,111,65.81,106.46Z"/><path class="cls-5" d="M70.09,109.55l1.25.33a22.1,22.1,0,0,0-3.18,9.85A36.21,36.21,0,0,1,70.09,109.55Z"/><path class="cls-5" d="M116.84,110.18l-1.42.86s5.37,7.61,6.36,12.41C121.78,123.45,120.05,114.7,116.84,110.18Z"/><path class="cls-5" d="M112.56,113.27l-1.24.34a22.08,22.08,0,0,1,3.17,9.84A36.21,36.21,0,0,0,112.56,113.27Z"/><path class="cls-5" d="M51.61,168s2.51,51.78,15.52,70.81c0,0,7.66,14.23,2.55,23.33,0,0,6.42-8.93.58-23.49C70.26,238.61,57.34,218.59,51.61,168Z"/></g><g id="rfgshirt"><path class="cls-4" d="M75.42,16.66s-27.24,7-30.19,12.07-7.82,12.49-9.55,65.35c0,0-.12,3.6-3.58,10.18s-3.91,52.86-3.91,52.86,6.66,2.59,10.35,1.23c0,0,12.85-49,12.09-55.33s6.91-17.63,8.51-29.54a15.73,15.73,0,0,0,3.59,11.89s4,14.33,2.47,19.77c0,0,29.85,14.13,53.7.6,0,0,1.71-20.37,2-21.95,0,0,5.83-6.53,4.15-13.76,0,0,4.09,16.15,7.62,21.9a82.19,82.19,0,0,1,1.19,22.75s1.34,11.79,10.24,38.41c0,0,8,3.41,10.66,1.67,0,0,.95-44.19-4.66-52.56,0,0-4-14.49-3.33-16.83s.68-49.74-6-55.32-5.64-6.6-31.3-12.68c0,0-17.75,50.78-17,56.73C92.47,74.1,80.14,26.58,75.42,16.66Z"/><path class="cls-5" d="M62.19,67.46s-2.84,12.93,6,17.91l.64,19.77,3.93-21.23S61.53,84.27,62.19,67.46Z"/><path class="cls-5" d="M65.2,105.14s20.5,18.06,53.7.6l.75-8.27s-26.6,16.3-54.34,0Z"/><path class="cls-6" d="M109.8,113.56l-5,.79a2.08,2.08,0,0,1-2.37-1.74l-1.14-7.31a2.1,2.1,0,0,1,1.73-2.39l5-.78a2.07,2.07,0,0,1,2.37,1.73l1.14,7.32A2.08,2.08,0,0,1,109.8,113.56Z"/><path class="cls-7" d="M109.46,103s10.78-16.75,13.81-14.33S109.46,103,109.46,103Z"/><path class="cls-8" d="M123.27,88.71a32.92,32.92,0,0,1,1.93,10.71c-.13,5.24,3.3,8.9,2.41,13.1s-16.9-1.46-16.9-1.46,1.08-3.33-1.25-8"/><path class="cls-7" d="M110.63,105.37l8.2-6.69-6.4,6.41,4.74-.75-5.08,1.81.34,1.8,5.72,1.93-6.85-.21A3.83,3.83,0,0,0,110.63,105.37Z"/><path class="cls-9" d="M121.56,92.05s2,6.72,1.48,9.51,2.57,9.52,2.57,9.52-1.71-6.52-1.39-8.9S121.56,92.05,121.56,92.05Z"/><path class="cls-7" d="M102.64,105.24S87.28,92.6,85.13,95.84,102.64,105.24,102.64,105.24Z"/><path class="cls-8" d="M85.13,95.84a32.86,32.86,0,0,0,1.42,10.79c1.73,5-.43,9.49,1.7,13.21s15.64-6.59,15.64-6.59-2-2.83-1.25-8"/><path class="cls-7" d="M102.24,107.82,92.4,104l8,4.13-4.75.75,5.39.16.23,1.82-4.86,3.6,6.46-2.31A3.83,3.83,0,0,1,102.24,107.82Z"/><path class="cls-9" d="M87.78,98.49s.1,7,1.48,9.51.45,9.85.45,9.85-.35-6.73-1.38-8.89S87.78,98.49,87.78,98.49Z"/><path class="cls-7" d="M103.89,113.25s1.81-6-1.42-9.11"/><path class="cls-9" d="M104.68,106.46s3.39-2.65,5.18-.82C109.86,105.64,104.71,100.11,104.68,106.46Z"/></g></g></g></g></svg>