<svg xmlns="http://www.w3.org/2000/svg" viewBox="0 0 183 415"><defs><style>.cls-1{fill:none;}.cls-2{fill:#262626;}.cls-3{fill:#777;}.cls-4{fill:#772b19;}.cls-5{fill:#5b1e12;}.cls-6{fill:#7c3223;}.cls-7{fill:#873a2d;}</style></defs><title>rfg2</title><g id="Layer_2" data-name="Layer 2"><g id="rfg2"><g id="rfg2-2" data-name="rfg2"><rect class="cls-1" width="183" height="415"/><g id="dressshoes_girl" data-name="dressshoes girl"><path class="cls-2" d="M74.83,364.13s.92,17.1,6,17.35,10-18,10-18-.77,9,0,11.28.85,11.07-.24,12.67-11.34,4-13.06,4-8.45-3-8.8-5.45,3.73-4.73,3.73-7.21S74.83,364.13,74.83,364.13Z"/><path class="cls-3" d="M71.67,382.85s-.46,5.46,6,6.32C77.72,389.17,70.57,390.17,71.67,382.85Z"/><path class="cls-2" d="M108.35,364.85s-1.38,16.38-6.44,16.63-10.63-18-10.63-18,1.42,9,.65,11.28-1.9,11.28-.81,12.88,12.39,3.75,14.12,3.75,8.45-3,8.79-5.45-3.23-4.73-3.23-7.21S108.35,364.85,108.35,364.85Z"/><path class="cls-3" d="M111.05,382.85s.46,5.46-6,6.32C105,389.17,112.15,390.17,111.05,382.85Z"/></g><g id="rfgskirt2"><path class="cls-4" d="M64.89,104.23s26.89,12.63,53.71.6c0,0,3.31,7.07,7.53,16.13,5.33,11.42,13.45,54.85.5,104.73,0,0-8.09,19-6.95,36.24.37,5.58-57.78,4.72-57.3-1,2.14-25.39-5.53-31-12.05-60.3C48.16,190.88,40.32,141.6,64.89,104.23Z"/><path class="cls-5" d="M65.51,105.54l1.42.86s-5.37,7.61-6.36,12.41C60.57,118.81,62.3,110.06,65.51,105.54Z"/><path class="cls-5" d="M69.79,108.63,71,109a22.08,22.08,0,0,0-3.17,9.84A36.21,36.21,0,0,1,69.79,108.63Z"/><path class="cls-5" d="M116.54,109.26l-1.42.86s5.37,7.61,6.36,12.41C121.48,122.53,119.75,113.78,116.54,109.26Z"/><path class="cls-5" d="M112.26,112.36l-1.24.33a22.08,22.08,0,0,1,3.17,9.84A36.11,36.11,0,0,0,112.26,112.36Z"/><path class="cls-5" d="M51.31,167s2.51,51.79,15.52,70.81c0,0,7.66,14.23,2.55,23.33,0,0,6.42-8.93.58-23.49C70,237.69,57,217.67,51.31,167Z"/></g><g id="rfgshirt2"><path class="cls-4" d="M74.42,15.59s-27.24,7-30.19,12.07S36.41,40.15,34.68,93c0,0-.12,3.6-3.58,10.18s-3.91,52.86-3.91,52.86,6.66,2.59,10.35,1.23c0,0,12.85-49,12.09-55.34s6.91-17.62,8.51-29.53A15.73,15.73,0,0,0,61.73,84.3s4,14.33,2.47,19.77c0,0,29.85,14.13,53.7.6,0,0,1.71-20.37,2-22,0,0,5.83-6.53,4.15-13.76,0,0,4.09,16.15,7.62,21.9a82.19,82.19,0,0,1,1.19,22.75s1.34,11.79,10.24,38.41c0,0,8,3.41,10.66,1.67,0,0,.95-44.19-4.66-52.56,0,0-4-14.49-3.33-16.83s.68-49.74-6-55.32-5.64-6.6-31.3-12.68c0,0-17.75,50.78-17,56.73C91.47,73,79.14,25.5,74.42,15.59Z"/><path class="cls-5" d="M61.19,66.39s-2.84,12.93,6,17.91l.64,19.77,3.93-21.24S60.53,83.19,61.19,66.39Z"/><path class="cls-5" d="M64.2,104.07s20.5,18.06,53.7.6l.75-8.27s-26.6,16.3-54.34,0Z"/><path class="cls-6" d="M108.8,112.49l-5,.79a2.08,2.08,0,0,1-2.37-1.74l-1.14-7.31a2.1,2.1,0,0,1,1.73-2.39l5-.79a2.09,2.09,0,0,1,2.37,1.74l1.14,7.32A2.08,2.08,0,0,1,108.8,112.49Z"/><path class="cls-5" d="M108.46,102s10.78-16.76,13.81-14.33S108.46,102,108.46,102Z"/><path class="cls-6" d="M122.27,87.64a32.92,32.92,0,0,1,1.93,10.71c-.13,5.24,3.3,8.9,2.41,13.1s-16.9-1.46-16.9-1.46,1.08-3.33-1.25-8"/><path class="cls-5" d="M109.63,104.3l8.2-6.69-6.4,6.41,4.74-.75-5.08,1.81.34,1.8,5.72,1.93-6.85-.21A3.83,3.83,0,0,0,109.63,104.3Z"/><path class="cls-7" d="M120.56,91s2,6.72,1.48,9.51,2.57,9.52,2.57,9.52-1.71-6.53-1.39-8.9S120.56,91,120.56,91Z"/><path class="cls-5" d="M101.64,104.17S86.28,91.53,84.13,94.76,101.64,104.17,101.64,104.17Z"/><path class="cls-6" d="M84.13,94.76a32.91,32.91,0,0,0,1.42,10.8c1.73,5-.43,9.49,1.7,13.21s15.64-6.59,15.64-6.59-2-2.83-1.25-8"/><path class="cls-5" d="M101.24,106.74,91.4,102.9l8,4.13-4.75.74,5.39.17.23,1.82-4.86,3.59,6.46-2.3A3.84,3.84,0,0,1,101.24,106.74Z"/><path class="cls-7" d="M86.78,97.42s.1,7,1.48,9.51.45,9.85.45,9.85-.35-6.73-1.38-8.89S86.78,97.42,86.78,97.42Z"/><path class="cls-5" d="M102.89,112.18s1.81-6-1.42-9.11"/><path class="cls-7" d="M103.68,105.39s3.39-2.65,5.18-.82C108.86,104.57,103.71,99,103.68,105.39Z"/></g></g></g></g></svg>