<svg xmlns="http://www.w3.org/2000/svg" viewBox="0 0 256.35 757.14"><defs><style>.cls-1{fill:#262626;}.cls-2{fill:#777;}.cls-3{fill:#772b19;}.cls-4{fill:#5b1e12;}.cls-5{fill:#7c3223;}.cls-6{fill:#873a2d;}</style></defs><title>rfg2</title><g id="Layer_2" data-name="Layer 2"><g id="rfg2"><g id="rfg2-2" data-name="rfg2"><g id="dressshoes_girl" data-name="dressshoes girl"><path class="cls-1" d="M96.45,702.18s1.86,34.46,12.11,35,20.2-36.22,20.2-36.22-1.56,18.14,0,22.72,1.71,22.31-.49,25.53-22.95,8-26.45,8-17.1-5.94-17.8-11,7.55-9.53,7.55-14.53S96.45,702.18,96.45,702.18Z"/><path class="cls-2" d="M90.06,739.89s-.93,11,12.25,12.75C102.31,752.64,87.83,754.64,90.06,739.89Z"/><path class="cls-1" d="M164.31,703.64s-2.79,33-13,33.5-21.52-36.22-21.52-36.22,2.88,18.14,1.33,22.72-3.86,22.72-1.65,26,25.09,7.55,28.59,7.55,17.1-5.94,17.8-11-6.55-9.53-6.55-14.53S164.31,703.64,164.31,703.64Z"/><path class="cls-2" d="M169.77,739.89s.93,11-12.25,12.75C157.52,752.64,172,754.64,169.77,739.89Z"/></g><g id="rfgskirt2"><path class="cls-3" d="M76.34,178.57s54.43,25.45,108.71,1.21c0,0,6.71,14.24,15.27,32.5,10.77,23,27.22,110.5,1,211,0,0-16.38,38.36-14.07,73,.75,11.25-117,9.51-116-2,4.34-51.17-11.19-62.5-24.39-121.5C42.46,353.14,26.59,253.85,76.34,178.57Z"/><path class="cls-4" d="M77.59,181.22,80.46,183s-10.87,15.33-12.87,25C67.59,208,71.09,190.32,77.59,181.22Z"/><path class="cls-4" d="M86.25,187.45l2.52.67A44.22,44.22,0,0,0,82.34,208S82.75,196.28,86.25,187.45Z"/><path class="cls-4" d="M180.89,188.72,178,190.45s10.88,15.33,12.88,25C190.89,215.45,187.39,197.82,180.89,188.72Z"/><path class="cls-4" d="M172.22,195l-2.51.67a44.36,44.36,0,0,1,6.43,19.83S175.72,203.78,172.22,195Z"/><path class="cls-4" d="M48.84,305.11s5.08,104.34,31.41,142.67c0,0,15.5,28.67,5.17,47,0,0,13-18,1.17-47.33C86.59,447.45,60.43,407.11,48.84,305.11Z"/></g><g id="rfgshirt2"><path class="cls-3" d="M95.62,0S40.47,14.18,34.51,24.3,18.67,49.47,15.17,156c0,0-.25,7.25-7.25,20.5S0,283,0,283s13.5,5.22,21,2.49c0,0,26-98.74,24.48-111.49s14-35.5,17.23-59.5a31.62,31.62,0,0,0,7.25,24s8,28.86,5,39.83c0,0,60.43,28.45,108.72,1.21,0,0,3.47-41.05,4-44.23,0,0,11.8-13.16,8.4-27.72,0,0,8.27,32.54,15.43,44.12,0,0,4.91,23.08,2.41,45.83,0,0,2.7,23.75,20.72,77.38,0,0,16.15,6.87,21.59,3.37,0,0,1.91-89-9.45-105.89,0,0-8.09-29.19-6.72-33.9S241.42,38.22,227.92,27s-11.41-13.3-63.36-25.54c0,0-35.93,102.29-34.42,114.29C130.14,115.72,105.17,20,95.62,0Z"/><path class="cls-4" d="M68.83,102.33s-5.73,26.06,12,36.1l1.31,39.83,8-42.79S67.49,136.2,68.83,102.33Z"/><path class="cls-4" d="M74.92,178.26s41.52,36.37,108.72,1.21l1.53-16.67s-53.85,32.84-110,0Z"/><rect class="cls-5" x="149.04" y="172.83" width="18.65" height="23.33" rx="4.2" ry="4.2" transform="translate(-26.64 26.73) rotate(-8.9)"/><path class="cls-4" d="M164.53,174s21.83-33.75,28-28.88S164.53,174,164.53,174Z"/><path class="cls-5" d="M192.5,145.14s4.17,11,3.9,21.59,6.68,17.94,4.87,26.4-34.21-3-34.21-3,2.19-6.7-2.53-16.15"/><path class="cls-4" d="M166.9,178.72l16.61-13.48-13,12.9,9.6-1.5-10.29,3.64.69,3.64,11.59,3.89-13.88-.43S170.73,182.56,166.9,178.72Z"/><path class="cls-6" d="M189,151.88s4.14,13.54,3,19.15,5.19,19.18,5.19,19.18-3.46-13.14-2.8-17.91S189,151.88,189,151.88Z"/><path class="cls-4" d="M150.73,178.45s-31.1-25.47-35.45-18.94S150.73,178.45,150.73,178.45Z"/><path class="cls-5" d="M115.28,159.51s-.6,11.77,2.88,21.74-.87,19.12,3.44,26.62,31.66-13.27,31.66-13.27-4.13-5.72-2.53-16.15"/><path class="cls-4" d="M149.92,183.64,130,175.89l16.27,8.32-9.6,1.51,10.92.32.45,3.67L138.19,197l13.09-4.65S147.44,188.47,149.92,183.64Z"/><path class="cls-6" d="M120.64,164.86s.2,14.16,3,19.15.92,19.85.92,19.85-.72-13.57-2.81-17.92S120.64,164.86,120.64,164.86Z"/><path class="cls-4" d="M153.26,194.6s3.66-12.12-2.87-18.36"/><path class="cls-6" d="M154.86,180.91s6.86-5.33,10.49-1.65C165.35,179.26,154.92,168.12,154.86,180.91Z"/></g></g></g></g></svg>