<?xml version="1.0" encoding="utf-8"?>
<!-- Generator: Adobe Illustrator 22.1.0, SVG Export Plug-In . SVG Version: 6.00 Build 0)  -->
<svg version="1.1" id="Layer_1" xmlns="http://www.w3.org/2000/svg" xmlns:xlink="http://www.w3.org/1999/xlink" x="0px" y="0px"
	 viewBox="0 0 183 415" style="enable-background:new 0 0 183 415;" xml:space="preserve">
<style type="text/css">
	.st0{fill:none;}
	.st1{fill:#262626;}
	.st2{fill:#777777;}
	.st3{fill:#772B19;}
	.st4{fill:#5B1E12;}
	.st5{fill:#7C3223;}
	.st6{fill:#873A2D;}
</style>
<title>rfg2</title>
<g id="Layer_2_1_">
	<g id="rfg2">
		<g id="rfg2-2">
			<rect class="st0" width="183" height="415"/>
			<g id="dressshoes_girl">
				<path class="st1" d="M74.8,364.1c0,0,0.9,17.1,6,17.4s10-18,10-18s-0.8,9,0,11.3s0.8,11.1-0.2,12.7s-11.3,4-13.1,4
					s-8.4-3-8.8-5.5s3.7-4.7,3.7-7.2S74.8,364.1,74.8,364.1z"/>
				<path class="st2" d="M71.7,382.9c0,0-0.5,5.5,6,6.3C77.7,389.2,70.6,390.2,71.7,382.9z"/>
				<path class="st1" d="M108.3,364.9c0,0-1.4,16.4-6.4,16.6s-10.6-18-10.6-18s1.4,9,0.7,11.3s-2,11.2-0.9,12.8s12.4,3.8,14.1,3.8
					s8.4-3,8.8-5.5s-3.2-4.7-3.2-7.2S108.3,364.9,108.3,364.9z"/>
				<path class="st2" d="M111.1,382.9c0,0,0.5,5.5-6,6.3C105,389.2,112.2,390.2,111.1,382.9z"/>
			</g>
			<g id="rfgskirt2">
				<path class="st3" d="M65.9,105.2c0,0,26.9,12.7,53.7,0.6c0,0,3.3,7.2,7.5,16.3c5.3,11.5,13.5,55.3,0.5,105.7
					c0,0-10.1,17.2-9,34.5c0.4,5.7-56.8,5.8-56.3,0c2.1-25.7-4.5-30.3-11-59.9C49.2,192.8,41.3,143,65.9,105.2z"/>
				<path class="st4" d="M66.5,106.5l1.4,0.9c0,0-5.4,7.6-6.4,12.4C61.6,119.8,63.3,111.1,66.5,106.5z"/>
				<path class="st4" d="M70.8,109.6L72,110c-1.8,3-2.9,6.4-3.2,9.8C69,116.4,69.6,112.9,70.8,109.6z"/>
				<path class="st4" d="M117.5,110.3l-1.4,0.9c0,0,5.4,7.6,6.4,12.4C122.5,123.5,120.8,114.8,117.5,110.3z"/>
				<path class="st4" d="M113.3,113.4l-1.2,0.3c1.8,3,2.9,6.4,3.2,9.8C115,120.1,114.4,116.6,113.3,113.4z"/>
				<path class="st4" d="M52.3,168c0,0,2.5,51.8,15.5,70.8c0,0,5.7,12.2,0.5,21.3c0,0,8.4-6.9,2.6-21.5C71,238.7,58,218.7,52.3,168z
					"/>
			</g>
			<g id="rfgshirt2">
				<path class="st3" d="M75.4,16.6c0,0-27.2,7-30.2,12.1S37.4,41.2,35.7,94c0,0-0.1,3.6-3.6,10.2S27.2,156,27.2,156
					s7.7,3.6,11.4,2.2c0,0,12.8-49,12.1-55.3s6.9-17.6,8.5-29.5c-0.5,4.3,0.8,8.6,3.6,11.9c0,0,4,14.3,2.5,19.8
					c0,0,29.8,14.1,53.7,0.6c0,0,1.7-20.4,2-22c0,0,5.8-6.5,4.2-13.8c0,0,4.1,16.2,7.6,21.9c1.5,7.5,1.9,15.1,1.2,22.8
					c0,0,1.3,11.8,10.2,38.4c0,0,8,3.4,10.7,1.7c0,0,0.9-44.2-4.7-52.6c0,0-4-14.5-3.3-16.8s0.7-49.7-6-55.3s-5.6-6.6-31.3-12.7
					c0,0-17.8,50.8-17,56.7C92.5,74,80.1,26.5,75.4,16.6z"/>
				<path class="st4" d="M62.2,67.4c0,0-2.8,12.9,6,17.9l0.6,19.8l3.9-21.2C72.8,83.8,61.5,84.2,62.2,67.4z"/>
				<path class="st4" d="M65.2,105.1c0,0,20.5,18.1,53.7,0.6l0.8-8.3c0,0-26.6,16.3-54.3,0L65.2,105.1z"/>
				<path class="st5" d="M109.8,113.5l-5,0.8c-1.1,0.2-2.2-0.6-2.4-1.7l-1.1-7.3c-0.2-1.1,0.6-2.2,1.7-2.4l5-0.8
					c1.1-0.2,2.2,0.6,2.4,1.7l1.1,7.3C111.7,112.2,110.9,113.3,109.8,113.5L109.8,113.5z"/>
				<path class="st4" d="M109.5,103c0,0,10.8-16.8,13.8-14.3S109.5,103,109.5,103z"/>
				<path class="st5" d="M123.3,88.6c1.2,3.4,1.9,7.1,1.9,10.7c-0.1,5.2,3.3,8.9,2.4,13.1s-16.9-1.5-16.9-1.5s1.1-3.3-1.2-8"/>
				<path class="st4" d="M110.6,105.3l8.2-6.7l-6.4,6.4l4.7-0.8L112,106l0.3,1.8l5.7,1.9l-6.8-0.2
					C112,108.2,111.7,106.5,110.6,105.3z"/>
				<path class="st6" d="M121.6,92c0,0,2,6.7,1.5,9.5s2.6,9.5,2.6,9.5s-1.7-6.5-1.4-8.9S121.6,92,121.6,92z"/>
				<path class="st4" d="M102.6,105.2c0,0-15.4-12.6-17.5-9.4S102.6,105.2,102.6,105.2z"/>
				<path class="st5" d="M85.1,95.8c-0.1,3.7,0.4,7.3,1.4,10.8c1.7,5-0.4,9.5,1.7,13.2s15.6-6.6,15.6-6.6s-2-2.8-1.2-8"/>
				<path class="st4" d="M102.2,107.7l-9.8-3.8l8,4.1l-4.8,0.7l5.4,0.2l0.2,1.8l-4.9,3.6l6.5-2.3
					C101.8,110.9,101.5,109.2,102.2,107.7z"/>
				<path class="st6" d="M87.8,98.4c0,0,0.1,7,1.5,9.5s0.4,9.8,0.4,9.8s-0.3-6.7-1.4-8.9S87.8,98.4,87.8,98.4z"/>
				<path class="st4" d="M103.9,113.2c0,0,1.8-6-1.4-9.1"/>
				<path class="st6" d="M104.7,106.4c0,0,3.4-2.7,5.2-0.8C109.9,105.6,104.7,100,104.7,106.4z"/>
			</g>
		</g>
	</g>
</g>
</svg>
