<svg xmlns="http://www.w3.org/2000/svg" viewBox="0 0 173.72 765.76"><defs><style>.cls-1{fill:#262626;}.cls-2{fill:#777;}.cls-3{fill:#c4a5af;}.cls-4{fill:#a08590;}.cls-5{fill:#b296a0;}.cls-6{fill:#e7dddf;}.cls-7{fill:#b795a1;}.cls-8{fill:#333;}.cls-9{fill:#191919;}.cls-10{fill:#b3b3b3;}.cls-11{fill:#e6e6e6;}</style></defs><title>sbg</title><g id="Layer_2" data-name="Layer 2"><g id="sbg"><g id="sbg-2" data-name="sbg"><g id="dressshoes_girl" data-name="dressshoes girl"><path class="cls-1" d="M54.36,710.81s1.86,34.45,12.11,35,20.2-36.22,20.2-36.22-1.56,18.14,0,22.72,1.71,22.31-.49,25.53-23,8-26.45,8-17.1-5.94-17.8-11,7.55-9.53,7.55-14.53S54.36,710.81,54.36,710.81Z"/><path class="cls-2" d="M48,748.51s-.93,11,12.25,12.75C60.22,761.26,45.73,763.27,48,748.51Z"/><path class="cls-1" d="M122.22,712.26s-2.79,33-13,33.5-21.53-36.22-21.53-36.22,2.88,18.14,1.34,22.72-3.86,22.73-1.65,26,25.09,7.55,28.59,7.55,17.1-5.94,17.8-11-6.55-9.53-6.55-14.53S122.22,712.26,122.22,712.26Z"/><path class="cls-2" d="M127.68,748.51s.93,11-12.25,12.75C115.43,761.26,129.91,763.27,127.68,748.51Z"/></g><g id="sbgshirt"><path class="cls-3" d="M58.61,5.65s12.24,24,29.5,24.7,27.54-24.7,27.54-24.7S140,19.51,159,22.6c0,0-8.08,43.94,1.3,89.28a138.24,138.24,0,0,1-14.12,32.9s-6.75.73,18,105.23c0,0-2.74,1.7-13.37,1.47s-14,10.25-21.32,11.39S110.72,262.51,104,267s-13,1-20.75,0-10,2.6-18.75,2.24-7.25-8.49-11-9S37.33,264,33.15,258.14s-6.84-1-12.76-5-9.17-4.64-9.17-4.64,18-52,18-60.25,2.32-35-1.84-42.5c0,0-9-19.13-10.19-31.31S29,33.19,18.6,21.48C18.6,21.48,56.49,8.24,58.61,5.65Z"/><path class="cls-4" d="M61.34,2S43.62,7.26,42.62,12.26,72.37,29.51,75.37,39.51c0,0,5-9.33,11.29-9.28C86.66,30.23,60.32,7.49,61.34,2Z"/><path class="cls-3" d="M62.69,0S45,5.26,44,10.26,72.72,27.51,75.72,37.51c0,0,4.13-9.06,10.94-7.28C86.66,30.23,61.66,5.49,62.69,0Z"/><path class="cls-4" d="M113.41,2s17.73,5.26,18.73,10.26-28.75,17.25-31.75,27.25c0,0-1.84-8-8.93-9.41C91.46,30.1,114.44,7.49,113.41,2Z"/><path class="cls-3" d="M113.19,0s17.72,5.26,18.72,10.26-28.75,17.25-31.75,27.25c0,0-1.89-9.19-8.7-7.41C91.46,30.1,114.22,5.49,113.19,0Z"/><rect class="cls-5" x="84.7" y="29.18" width="8.52" height="8.52" rx="2.67" ry="2.67"/><path class="cls-4" d="M85,30.51S52.47,47.93,64.63,60.76C73.24,69.86,85,36.2,85,36.2V34S69.72,61.64,67.47,58.39,85,34,85,34h0Z"/><path class="cls-4" d="M92.59,30.51s28.25,17.25,17.09,30.25C101.82,69.92,92.59,36.2,92.59,36.2V34s12.81,27.63,14.7,24.38S92.59,34,92.59,34h0Z"/><path class="cls-4" d="M85.45,36.88S81.22,85.39,75.09,96.51s-10.46,11.63-10.46,11.63,6.46-.75,8.84-2.63c0,0-1.88,6.5-5,9.25,0,0,10.37-3.25,13.74-17.5S89,37.51,89,37.51Z"/><path class="cls-4" d="M88.84,36.7s4,26.81,2.24,37.56c-1.36,8.47-1.32,35.88,10,40.5l-3.46-6.87s4.18,3.22,7.13,3c0,0-10.43-9.62-8.45-36.06,0,0,2.78-28.11-5.29-38.94Z"/><path class="cls-3" d="M85,30.51s2,1.86.48,6.37c0,0,5.54,2.62,8-1,0,0,1-6.81-2.92-6.7S85,30.51,85,30.51Z"/><path class="cls-3" d="M85,30.51s-29.09,17.92-20.9,29c0,0,14.27-25.63,20.9-27.07C85,32.45,85.72,32.26,85,30.51Z"/><path class="cls-3" d="M66.56,59.11s2,2.84,7.4-5.41C74,53.7,70.12,63.23,66.56,59.11Z"/><path class="cls-3" d="M93.22,33.44s17.25,16.82,16,24.82c0,0,8.75-7.2-16-26.41Z"/><path class="cls-3" d="M101,54.26s4.37,6.27,6.75,5.26C107.72,59.52,104.47,62,101,54.26Z"/><path class="cls-3" d="M86.66,37.33s-4.88,55.61-11.82,62.93l3.38-2.5L74,103.51s4.76-3.75,5.13-5.25c0,0-1.62,6.74-3.37,9.18,0,0,6.46-7.81,9-32.12s3.25-38,3.25-38Z"/><path class="cls-3" d="M90,37.8s4.56,26.5,2.62,33.46,0,29.38,2.25,32.25L94.22,97l3.5,8.25S95.09,96.51,95.09,96s1.69,3.5,1.69,3.5a92.2,92.2,0,0,1-1.94-27.12C96,57,91.46,37.33,91.46,37.33Z"/><path class="cls-6" d="M86.66,31.14s1.32,1,0,4c0,0,4.8-.46,4.8-2.75S86.66,31.14,86.66,31.14Z"/><path class="cls-6" d="M65.3,49.14S60,56.67,66,59.91C66,59.91,62.64,56.39,65.3,49.14Z"/><path class="cls-7" d="M108.6,49.14s7.08,7.53-.88,10.77C107.72,59.91,112.14,56.39,108.6,49.14Z"/><path class="cls-6" d="M85.91,45s-5.44,48.66-12,55.66C74,100.68,86.66,79.26,85.91,45Z"/><path class="cls-4" d="M52,22.88S46.31,36.59,33.78,40.82A23.1,23.1,0,0,0,52,22.88Z"/><path class="cls-4" d="M58.61,29.18s.44,7.83-5.23,12.5C53.38,41.68,61.86,38.26,58.61,29.18Z"/><path class="cls-4" d="M122.33,24.74s5.51,13.7,17.63,17.94C140,42.68,125.83,40.58,122.33,24.74Z"/><path class="cls-4" d="M115.94,31s-.43,7.83,5.06,12.5A9.62,9.62,0,0,1,115.94,31Z"/><path class="cls-7" d="M26,42.68s8.75,33.13-5,74.39C21,117.07,41.32,79.84,26,42.68Z"/><path class="cls-7" d="M153.34,36.8s-11.16,33.13,6.39,74.39C159.73,111.19,133.84,74,153.34,36.8Z"/></g><g id="sbgpants"><path class="cls-8" d="M28.08,194.79s59,30.89,123.92,0c0,0,21.72,69.22,21.72,99.72A657.76,657.76,0,0,1,149.22,474a133,133,0,0,0-2.5,37s-47.28,31.5-118.64,0c0,0,4.86-30,0-38.5,0,0-25.36-93-26.86-115S-5.56,269.57,28.08,194.79Z"/><path class="cls-9" d="M24.54,202.27s35.84,15.25,64.14,14.58c33.7-.79,66.78-13.3,66.78-13.3s2.56,6.57,2,10.19c0,0-23,13.95-68.77,13.61s-67.91-16.14-67.91-16.14S22.2,203.86,24.54,202.27Z"/><path class="cls-10" d="M97.4,213H86a3.46,3.46,0,0,0-3.45,3.45v11.37A3.46,3.46,0,0,0,86,231.28H97.4a3.45,3.45,0,0,0,3.44-3.45V216.46A3.46,3.46,0,0,0,97.4,213ZM97,225.45a2,2,0,0,1-2,2H88.41a2,2,0,0,1-2-2v-6.61a2,2,0,0,1,2-2H95a2,2,0,0,1,2,2Z"/><path class="cls-11" d="M83.88,226.1s-.83-10.23.67-11.28,9.42-.56,9.42-.56-8.09.67-8.67,1.25S83.88,226.1,83.88,226.1Z"/><rect class="cls-8" x="70.38" y="213.01" width="4.5" height="17.5" rx="0.99" ry="0.99"/><rect class="cls-8" x="110.55" y="212.18" width="4.5" height="17.5" rx="0.99" ry="0.99"/><rect class="cls-8" x="148.55" y="202.27" width="4.5" height="17.5" rx="0.99" ry="0.99" transform="translate(-38.93 34.18) rotate(-11.46)"/><rect class="cls-8" x="26.88" y="200.94" width="4.5" height="17.5" rx="0.99" ry="0.99" transform="translate(83.76 5.15) rotate(22.86)"/><path class="cls-1" d="M50.72,229.68s-1.5,24.33-32,24.58C18.72,254.26,46.72,262.6,50.72,229.68Z"/><path class="cls-1" d="M131.16,231.28s1.34,24.33,28.57,24.58C159.73,255.86,134.73,264.2,131.16,231.28Z"/><path class="cls-1" d="M26.38,427.68s17.34,58.67,8,76.33C34.38,504,53.72,492.35,26.38,427.68Z"/></g></g></g></g></svg>