<svg xmlns="http://www.w3.org/2000/svg" viewBox="0 0 183 415"><defs><style>.cls-1{fill:none;}.cls-2{fill:#262626;}.cls-3{fill:#777;}.cls-4{fill:#c4a5af;}.cls-5{fill:#a08590;}.cls-6{fill:#b296a0;}.cls-7{fill:#e7dddf;}.cls-8{fill:#b795a1;}.cls-9{fill:#333;}.cls-10{fill:#191919;}.cls-11{fill:#b3b3b3;}.cls-12{fill:#e6e6e6;}</style></defs><title>sbg</title><g id="Layer_2" data-name="Layer 2"><g id="sbg"><g id="sbg-2" data-name="sbg"><rect class="cls-1" width="183" height="415"/><g id="dressshoes_girl" data-name="dressshoes girl"><path class="cls-2" d="M75.45,364.27s.91,17.1,6,17.35,10-18,10-18-.77,9,0,11.28.85,11.07-.24,12.67-11.34,4-13.07,4-8.44-2.95-8.79-5.45S73,381.37,73,378.89,75.45,364.27,75.45,364.27Z"/><path class="cls-3" d="M72.29,383s-.46,5.47,6,6.32C78.34,389.31,71.19,390.31,72.29,383Z"/><path class="cls-2" d="M109,365s-1.38,16.38-6.44,16.63-10.64-18-10.64-18,1.43,9,.66,11.28-1.9,11.28-.81,12.88,12.39,3.75,14.12,3.75,8.44-2.95,8.79-5.45-3.23-4.73-3.23-7.21S109,365,109,365Z"/><path class="cls-3" d="M111.66,383s.46,5.47-6,6.32C105.61,389.31,112.77,390.31,111.66,383Z"/></g><g id="sbgshirt"><path class="cls-4" d="M77.55,14.26s6,11.92,14.57,12.26,13.6-12.26,13.6-12.26,12,6.88,21.43,8.41c0,0-4,21.81.65,44.31a68.53,68.53,0,0,1-7,16.33s-3.33.37,8.89,52.24c0,0-1.35.84-6.6.73s-6.92,5.09-10.53,5.65-9.3-.18-12.63,2-6.42.5-10.25,0-5,1.3-9.26,1.12-3.58-4.22-5.43-4.47-8,1.87-10-1-3.38-.5-6.3-2.47a14.72,14.72,0,0,0-4.53-2.31S63,109,63,104.9s1.14-17.37-.91-21.1c0,0-4.43-9.5-5-15.54s5.82-40.33.69-46.15C57.78,22.11,76.5,15.54,77.55,14.26Z"/><path class="cls-5" d="M78.9,12.44s-8.76,2.62-9.25,5.1S84.34,26.1,85.83,31.07c0,0,2.47-4.64,5.57-4.61C91.4,26.46,78.39,15.17,78.9,12.44Z"/><path class="cls-4" d="M79.56,11.45s-8.75,2.61-9.25,5.1S84.51,25.11,86,30.07c0,0,2-4.5,5.4-3.61C91.4,26.46,79.05,14.17,79.56,11.45Z"/><path class="cls-5" d="M104.62,12.44s8.75,2.62,9.24,5.1S99.66,26.1,98.18,31.07c0,0-.9-4-4.41-4.68C93.77,26.39,105.12,15.17,104.62,12.44Z"/><path class="cls-4" d="M104.51,11.45s8.75,2.61,9.24,5.1-14.2,8.56-15.68,13.52c0,0-.93-4.56-4.3-3.68C93.77,26.39,105,14.17,104.51,11.45Z"/><rect class="cls-6" x="90.43" y="25.94" width="4.21" height="4.23" rx="2.1" ry="2.1"/><path class="cls-5" d="M90.57,26.6s-16.06,8.64-10,15c4.26,4.52,10-12.19,10-12.19V28.34S83,42.05,81.92,40.43s8.65-12.09,8.65-12.09h0Z"/><path class="cls-5" d="M94.33,26.6s14,8.56,8.44,15c-3.88,4.54-8.44-12.19-8.44-12.19V28.34s6.33,13.71,7.26,12.09-7.26-12.09-7.26-12.09h0Z"/><path class="cls-5" d="M90.8,29.76s-2.09,24.08-5.11,29.6-5.17,5.77-5.17,5.77,3.19-.37,4.37-1.3c0,0-.93,3.22-2.47,4.59,0,0,5.12-1.62,6.79-8.69s3.33-29.66,3.33-29.66Z"/><path class="cls-5" d="M92.48,29.67s2,13.31,1.11,18.64c-.68,4.2-.66,17.81,4.92,20.11L96.8,65s2.06,1.6,3.52,1.49c0,0-5.15-4.77-4.17-17.9,0,0,1.37-14-2.62-19.33Z"/><path class="cls-4" d="M90.57,26.6s1,.92.23,3.16c0,0,2.74,1.3,4-.5,0,0,.48-3.38-1.45-3.32A5.14,5.14,0,0,0,90.57,26.6Z"/><path class="cls-4" d="M90.57,26.6S76.2,35.49,80.24,41c0,0,7.05-12.73,10.33-13.44C90.57,27.56,90.94,27.47,90.57,26.6Z"/><path class="cls-4" d="M81.47,40.79s1,1.41,3.66-2.68C85.13,38.11,83.23,42.84,81.47,40.79Z"/><path class="cls-4" d="M94.64,28.05s8.52,8.35,7.9,12.32c0,0,4.33-3.58-7.9-13.11Z"/><path class="cls-4" d="M98.47,38.39s2.16,3.11,3.33,2.61C101.8,41,100.2,42.23,98.47,38.39Z"/><path class="cls-4" d="M91.4,30S89,57.59,85.56,61.22L87.23,60l-2.1,2.85s2.35-1.86,2.53-2.6A19,19,0,0,1,86,64.78s3.19-3.88,4.43-15.94S92,30,92,30Z"/><path class="cls-4" d="M93,30.21s2.25,13.16,1.29,16.61,0,14.59,1.11,16l-.31-3.22,1.73,4.09s-1.29-4.34-1.29-4.59a11.44,11.44,0,0,1,.83,1.74,46.16,46.16,0,0,1-1-13.47C96,39.75,93.77,30,93.77,30Z"/><path class="cls-7" d="M91.4,26.91s.66.5,0,2c0,0,2.37-.23,2.37-1.36S91.4,26.91,91.4,26.91Z"/><path class="cls-7" d="M80.85,35.84s-2.63,3.74.33,5.35C81.18,41.19,79.54,39.44,80.85,35.84Z"/><path class="cls-8" d="M102.24,35.84s3.5,3.74-.44,5.35C101.8,41.19,104,39.44,102.24,35.84Z"/><path class="cls-7" d="M91,33.8S88.35,58,85.13,61.43C85.13,61.43,91.4,50.79,91,33.8Z"/><path class="cls-5" d="M74.28,22.81s-2.81,6.8-9,8.9A11.42,11.42,0,0,0,74.28,22.81Z"/><path class="cls-5" d="M77.55,25.94s.21,3.88-2.58,6.2A4.75,4.75,0,0,0,77.55,25.94Z"/><path class="cls-5" d="M109,23.73s2.72,6.8,8.71,8.9A11.16,11.16,0,0,1,109,23.73Z"/><path class="cls-5" d="M105.87,26.86s-.22,3.89,2.49,6.2A4.77,4.77,0,0,1,105.87,26.86Z"/><path class="cls-8" d="M61.45,32.63S65.77,49.08,59,69.56C59,69.56,69,51.08,61.45,32.63Z"/><path class="cls-8" d="M124.34,29.72s-5.51,16.44,3.15,36.92C127.49,66.64,114.7,48.16,124.34,29.72Z"/></g><g id="sbgpants"><path class="cls-9" d="M62.47,110.14s29.15,15.33,61.21,0c0,0,10.72,34.36,10.72,49.5a327.94,327.94,0,0,1-12.1,89.09,66.53,66.53,0,0,0-1.23,18.37s-23.36,15.64-58.6,0c0,0,2.4-14.89,0-19.11,0,0-12.53-46.16-13.27-57.08S45.85,147.26,62.47,110.14Z"/><path class="cls-10" d="M60.72,113.85s17.7,7.57,31.68,7.24c16.64-.4,33-6.61,33-6.61s1.27,3.27,1,5.06c0,0-11.35,6.93-34,6.76s-33.54-8-33.54-8S59.56,114.64,60.72,113.85Z"/><path class="cls-11" d="M96.7,119.18H91.09a1.71,1.71,0,0,0-1.7,1.72v5.64a1.71,1.71,0,0,0,1.7,1.71H96.7a1.72,1.72,0,0,0,1.71-1.71V120.9A1.72,1.72,0,0,0,96.7,119.18Zm-.18,6.18a1,1,0,0,1-1,1H92.27a1,1,0,0,1-1-1v-3.28a1,1,0,0,1,1-1h3.26a1,1,0,0,1,1,1Z"/><path class="cls-12" d="M90,125.68s-.41-5.08.33-5.6S95,119.8,95,119.8a26.43,26.43,0,0,0-4.28.62C90.44,120.71,90,125.68,90,125.68Z"/><rect class="cls-9" x="83.36" y="119.18" width="2.22" height="8.69" rx="0.99" ry="0.99"/><rect class="cls-9" x="103.2" y="118.77" width="2.22" height="8.69" rx="0.99" ry="0.99"/><path class="cls-9" d="M124.55,122.33l-1.22.25a.49.49,0,0,1-.57-.39l-1.53-7.55a.5.5,0,0,1,.39-.58l1.21-.24a.48.48,0,0,1,.58.38l1.53,7.55A.5.5,0,0,1,124.55,122.33Z"/><path class="cls-9" d="M61.88,121.78l-1.14-.49a.49.49,0,0,1-.27-.64l3-7.1a.49.49,0,0,1,.64-.26l1.15.48a.5.5,0,0,1,.26.65l-3,7.1A.49.49,0,0,1,61.88,121.78Z"/><path class="cls-2" d="M73.65,127.46s-.74,12.07-15.81,12.2C57.84,139.66,71.67,143.8,73.65,127.46Z"/><path class="cls-2" d="M113.38,128.25s.67,12.08,14.11,12.2C127.49,140.45,115.15,144.59,113.38,128.25Z"/><path class="cls-2" d="M61.63,225.74s8.56,29.12,3.95,37.89C65.58,263.63,75.13,257.83,61.63,225.74Z"/></g></g></g></g></svg>