<svg xmlns="http://www.w3.org/2000/svg" viewBox="0 0 173.72 765.51"><defs><style>.cls-1{fill:#262626;}.cls-2{fill:#777;}.cls-3{fill:#f7efd0;}.cls-4{fill:#edddab;}.cls-5{fill:#fcfcfc;}.cls-6{fill:#3a353f;}.cls-7{fill:#0c0c0c;}.cls-8{fill:#b3b3b3;}.cls-9{fill:#e6e6e6;}.cls-10{fill:#2b2730;}</style></defs><title>sbg2</title><g id="Layer_2" data-name="Layer 2"><g id="sbg2"><g id="sbg2-2" data-name="sbg2"><g id="dressshoes_girl" data-name="dressshoes girl"><path class="cls-1" d="M56.55,710.56s1.86,34.45,12.11,35,20.21-36.22,20.21-36.22-1.56,18.14,0,22.72,1.71,22.31-.49,25.53-23,8-26.46,8-17.09-5.94-17.79-11S51.66,745,51.66,740,56.55,710.56,56.55,710.56Z"/><path class="cls-2" d="M50.16,748.26s-.93,11,12.25,12.75C62.41,761,47.93,763,50.16,748.26Z"/><path class="cls-1" d="M124.41,712s-2.78,33-13,33.5-21.53-36.22-21.53-36.22,2.88,18.14,1.33,22.72-3.85,22.73-1.65,26,25.1,7.55,28.6,7.55,17.09-5.94,17.79-11S129.38,745,129.38,740,124.41,712,124.41,712Z"/><path class="cls-2" d="M129.88,748.26s.93,11-12.25,12.75C117.63,761,132.11,763,129.88,748.26Z"/></g><g id="sbgshirt2"><path class="cls-3" d="M60.77,5.65s12.24,24,29.51,24.7,27.53-24.7,27.53-24.7,24.38,13.86,43.39,17c0,0-8.08,43.94,1.3,89.28a138.44,138.44,0,0,1-14.11,32.9s-6.76.73,18,105.23c0,0-2.74,1.7-13.37,1.47s-14,10.25-21.32,11.39-18.81-.36-25.56,4.14-13,1-20.75,0-10,2.6-18.75,2.24-7.25-8.49-11-9S39.49,264,35.31,258.14s-6.84-1-12.76-5-9.17-4.64-9.17-4.64,18-52,18-60.25,2.32-35-1.84-42.5c0,0-9-19.13-10.19-31.31s11.79-81.26,1.41-93C20.76,21.48,58.65,8.24,60.77,5.65Z"/><path class="cls-4" d="M63.51,2S45.78,7.26,44.78,12.26,74.53,29.51,77.53,39.51c0,0,5-9.33,11.29-9.28C88.82,30.23,62.48,7.49,63.51,2Z"/><path class="cls-3" d="M64.85,0S47.13,5.26,46.13,10.26,74.88,27.51,77.88,37.51c0,0,4.14-9.06,10.94-7.28C88.82,30.23,63.83,5.49,64.85,0Z"/><path class="cls-4" d="M115.57,2S133.3,7.26,134.3,12.26s-28.75,17.25-31.75,27.25c0,0-1.84-8-8.93-9.41C93.62,30.1,116.6,7.49,115.57,2Z"/><path class="cls-3" d="M115.35,0s17.72,5.26,18.72,10.26-28.75,17.25-31.75,27.25c0,0-1.89-9.19-8.7-7.41C93.62,30.1,116.38,5.49,115.35,0Z"/><rect class="cls-4" x="86.86" y="29.18" width="8.52" height="8.52" rx="2.67" ry="2.67"/><path class="cls-4" d="M87.13,30.51S54.63,47.93,66.79,60.76c8.62,9.1,20.34-24.56,20.34-24.56V34S71.88,61.64,69.63,58.39,87.13,34,87.13,34h0Z"/><path class="cls-4" d="M94.75,30.51S123,47.76,111.84,60.76C104,69.92,94.75,36.2,94.75,36.2V34s12.81,27.63,14.7,24.38S94.75,34,94.75,34h0Z"/><path class="cls-4" d="M87.61,36.88S83.38,85.39,77.25,96.51s-10.46,11.63-10.46,11.63,6.46-.75,8.84-2.63c0,0-1.88,6.5-5,9.25,0,0,10.37-3.25,13.75-17.5s6.74-59.75,6.74-59.75Z"/><path class="cls-4" d="M91,36.7s4,26.81,2.24,37.56c-1.36,8.47-1.32,35.88,10,40.5l-3.46-6.87s4.17,3.22,7.12,3c0,0-10.43-9.62-8.45-36.06,0,0,2.78-28.11-5.29-38.94Z"/><path class="cls-3" d="M87.13,30.51s2,1.86.48,6.37c0,0,5.54,2.62,8-1,0,0,1-6.81-2.92-6.7S87.13,30.51,87.13,30.51Z"/><path class="cls-3" d="M87.13,30.51s-29.08,17.92-20.9,29c0,0,14.27-25.63,20.9-27.07C87.13,32.45,87.88,32.26,87.13,30.51Z"/><path class="cls-3" d="M68.72,59.11s2,2.84,7.4-5.41C76.12,53.7,72.29,63.23,68.72,59.11Z"/><path class="cls-3" d="M95.38,33.44s17.25,16.82,16,24.82c0,0,8.75-7.2-16-26.41Z"/><path class="cls-3" d="M103.13,54.26s4.37,6.27,6.75,5.26C109.88,59.52,106.63,62,103.13,54.26Z"/><path class="cls-3" d="M88.82,37.33S83.94,92.94,77,100.26l3.38-2.5-4.26,5.75s4.76-3.75,5.13-5.25c0,0-1.62,6.74-3.37,9.18,0,0,6.46-7.81,9-32.12s3.25-38,3.25-38Z"/><path class="cls-3" d="M92.13,37.8s4.56,26.5,2.62,33.46,0,29.38,2.25,32.25L96.38,97l3.5,8.25S97.25,96.51,97.25,96s1.69,3.5,1.69,3.5A92.2,92.2,0,0,1,97,72.39C98.13,57,93.62,37.33,93.62,37.33Z"/><path class="cls-5" d="M88.82,31.14s1.33,1,0,4c0,0,4.8-.46,4.8-2.75S88.82,31.14,88.82,31.14Z"/><path class="cls-5" d="M67.46,49.14s-5.33,7.53.67,10.77C68.13,59.91,64.8,56.39,67.46,49.14Z"/><path class="cls-5" d="M110.76,49.14s7.09,7.53-.88,10.77C109.88,59.91,114.3,56.39,110.76,49.14Z"/><path class="cls-5" d="M88.07,45s-5.44,48.66-11.95,55.66C76.12,100.68,88.82,79.26,88.07,45Z"/><path class="cls-4" d="M54.17,22.88S48.48,36.59,36,40.82A23.1,23.1,0,0,0,54.17,22.88Z"/><path class="cls-4" d="M60.77,29.18s.44,7.83-5.22,12.5C55.55,41.68,64,38.26,60.77,29.18Z"/><path class="cls-4" d="M124.49,24.74s5.51,13.7,17.63,17.94C142.12,42.68,128,40.58,124.49,24.74Z"/><path class="cls-4" d="M118.11,31s-.43,7.83,5,12.5A9.61,9.61,0,0,1,118.11,31Z"/><path class="cls-4" d="M28.18,42.68s8.75,33.13-5,74.39C23.16,117.07,43.48,79.84,28.18,42.68Z"/><path class="cls-4" d="M155.5,36.8s-11.16,33.13,6.39,74.39C161.89,111.19,136,74,155.5,36.8Z"/></g><g id="sbgpants2"><path class="cls-6" d="M28.08,194.54s59,30.89,123.92,0c0,0,21.72,69.22,21.72,99.72a657.76,657.76,0,0,1-24.5,179.5,133,133,0,0,0-2.5,37s-47.28,31.5-118.64,0c0,0,4.86-30,0-38.5,0,0-25.36-93-26.86-115S-5.56,269.32,28.08,194.54Z"/><path class="cls-7" d="M24.54,202s35.84,15.25,64.14,14.58c33.7-.8,66.78-13.3,66.78-13.3s2.56,6.57,2,10.18c0,0-23,14-68.77,13.62S20.77,211,20.77,211,22.2,203.61,24.54,202Z"/><path class="cls-8" d="M97.4,212.76H86a3.46,3.46,0,0,0-3.45,3.45v11.37A3.46,3.46,0,0,0,86,231H97.4a3.46,3.46,0,0,0,3.44-3.45V216.21A3.45,3.45,0,0,0,97.4,212.76ZM97,225.2a2,2,0,0,1-2,2H88.41a2,2,0,0,1-2-2v-6.61a2,2,0,0,1,2-2H95a2,2,0,0,1,2,2Z"/><path class="cls-9" d="M83.88,225.85s-.83-10.23.67-11.29S94,214,94,214s-8.09.67-8.67,1.25S83.88,225.85,83.88,225.85Z"/><rect class="cls-6" x="70.38" y="212.76" width="4.5" height="17.5" rx="0.99" ry="0.99"/><rect class="cls-6" x="110.55" y="211.93" width="4.5" height="17.5" rx="0.99" ry="0.99"/><rect class="cls-6" x="148.55" y="202.02" width="4.5" height="17.5" rx="0.99" ry="0.99" transform="translate(-38.88 34.18) rotate(-11.46)"/><rect class="cls-6" x="26.88" y="200.69" width="4.5" height="17.5" rx="0.99" ry="0.99" transform="translate(83.66 5.13) rotate(22.86)"/><path class="cls-10" d="M50.72,229.43s-1.5,24.33-32,24.58C18.72,254,46.72,262.35,50.72,229.43Z"/><path class="cls-10" d="M131.16,231s1.34,24.33,28.57,24.58C159.73,255.61,134.73,263.94,131.16,231Z"/><path class="cls-10" d="M26.38,427.43s17.34,58.67,8,76.33C34.38,503.76,53.72,492.1,26.38,427.43Z"/></g></g></g></g></svg>