<svg xmlns="http://www.w3.org/2000/svg" viewBox="0 0 183 415"><defs><style>.cls-1{fill:none;}.cls-2{fill:#262626;}.cls-3{fill:#777;}.cls-4{fill:#f7efd0;}.cls-5{fill:#edddab;}.cls-6{fill:#fcfcfc;}.cls-7{fill:#3a353f;}.cls-8{fill:#0c0c0c;}.cls-9{fill:#b3b3b3;}.cls-10{fill:#e6e6e6;}.cls-11{fill:#2b2730;}</style></defs><title>sbg2</title><g id="Layer_2" data-name="Layer 2"><g id="sbg2"><g id="sbg2-2" data-name="sbg2"><rect class="cls-1" width="183" height="415"/><g id="dressshoes_girl" data-name="dressshoes girl"><path class="cls-2" d="M76.53,370.21s.92,17.1,6,17.35,10-18,10-18-.77,9,0,11.28.84,11.07-.25,12.67-11.33,4-13.06,4-8.45-2.95-8.79-5.45,3.73-4.73,3.73-7.21S76.53,370.21,76.53,370.21Z"/><path class="cls-3" d="M73.37,388.92s-.45,5.47,6.06,6.33C79.43,395.25,72.27,396.25,73.37,388.92Z"/><path class="cls-2" d="M110.05,370.93s-1.38,16.38-6.44,16.63-10.63-18-10.63-18,1.42,9,.66,11.28-1.91,11.28-.82,12.88,12.4,3.75,14.12,3.75,8.45-2.95,8.8-5.45-3.24-4.73-3.24-7.21S110.05,370.93,110.05,370.93Z"/><path class="cls-3" d="M112.75,388.92s.46,5.47-6,6.33C106.7,395.25,113.85,396.25,112.75,388.92Z"/></g><g id="sbgshirt2"><path class="cls-4" d="M78.61,20.32s6,11.93,14.58,12.26,13.6-12.26,13.6-12.26,12,6.88,21.43,8.41c0,0-4,21.81.64,44.32a68.91,68.91,0,0,1-7,16.33s-3.34.36,8.89,52.23c0,0-1.35.84-6.6.73s-6.92,5.09-10.53,5.65-9.3-.18-12.63,2.06-6.42.49-10.25,0-5,1.29-9.26,1.11-3.58-4.22-5.44-4.46-8,1.86-10-1.06-3.38-.5-6.31-2.47a14.7,14.7,0,0,0-4.52-2.3S64.1,115.06,64.1,111s1.14-17.37-.91-21.09c0,0-4.43-9.5-5-15.55S64,34,58.85,28.17C58.85,28.17,77.57,21.61,78.61,20.32Z"/><path class="cls-5" d="M80,18.51s-8.75,2.61-9.24,5.09,14.69,8.56,16.17,13.53c0,0,2.48-4.64,5.58-4.61C92.47,32.52,79.46,21.23,80,18.51Z"/><path class="cls-4" d="M80.63,17.51s-8.75,2.62-9.25,5.1,14.2,8.56,15.68,13.52c0,0,2-4.49,5.41-3.61C92.47,32.52,80.12,20.24,80.63,17.51Z"/><path class="cls-5" d="M105.68,18.51s8.76,2.61,9.25,5.09-14.2,8.56-15.68,13.53c0,0-.91-4-4.41-4.68C94.84,32.45,106.19,21.23,105.68,18.51Z"/><path class="cls-4" d="M105.57,17.51s8.76,2.62,9.25,5.1-14.2,8.56-15.68,13.52c0,0-.94-4.56-4.3-3.68C94.84,32.45,106.08,20.24,105.57,17.51Z"/><rect class="cls-5" x="91.5" y="32" width="4.21" height="4.23" rx="2.1" ry="2.1"/><path class="cls-5" d="M91.63,32.66s-16,8.65-10,15c4.25,4.51,10-12.2,10-12.2V34.4S84.1,48.11,83,46.5s8.64-12.1,8.64-12.1h0Z"/><path class="cls-5" d="M95.4,32.66s13.95,8.56,8.44,15c-3.88,4.54-8.44-12.2-8.44-12.2V34.4s6.33,13.71,7.26,12.1S95.4,34.4,95.4,34.4h0Z"/><path class="cls-5" d="M91.87,35.82s-2.09,24.08-5.11,29.6-5.17,5.77-5.17,5.77,3.19-.37,4.36-1.3c0,0-.92,3.22-2.47,4.59,0,0,5.13-1.61,6.79-8.69S93.6,36.13,93.6,36.13Z"/><path class="cls-5" d="M93.55,35.73s2,13.31,1.1,18.65c-.67,4.2-.65,17.8,4.93,20.1l-1.71-3.41s2.06,1.6,3.52,1.48c0,0-5.15-4.77-4.17-17.9,0,0,1.37-13.95-2.62-19.33Z"/><path class="cls-4" d="M91.63,32.66s1,.92.24,3.16c0,0,2.74,1.3,4-.5,0,0,.49-3.38-1.44-3.32A5.16,5.16,0,0,0,91.63,32.66Z"/><path class="cls-4" d="M91.63,32.66s-14.36,8.89-10.32,14.4c0,0,7-12.72,10.32-13.44C91.63,33.62,92,33.53,91.63,32.66Z"/><path class="cls-4" d="M82.54,46.85s1,1.41,3.66-2.68C86.2,44.17,84.3,48.9,82.54,46.85Z"/><path class="cls-4" d="M95.71,34.11s8.52,8.35,7.9,12.32c0,0,4.32-3.57-7.9-13.11Z"/><path class="cls-4" d="M99.54,44.45s2.16,3.11,3.33,2.61C102.87,47.06,101.27,48.3,99.54,44.45Z"/><path class="cls-4" d="M92.47,36s-2.41,27.61-5.84,31.24L88.3,66l-2.1,2.85s2.35-1.86,2.53-2.6a18.88,18.88,0,0,1-1.67,4.56S90.25,67,91.5,54.9,93.11,36,93.11,36Z"/><path class="cls-4" d="M94.1,36.28s2.26,13.15,1.3,16.61,0,14.58,1.11,16l-.31-3.22,1.73,4.09s-1.29-4.34-1.29-4.59a11.44,11.44,0,0,1,.83,1.74,46.1,46.1,0,0,1-1-13.47c.56-7.63-1.67-17.4-1.67-17.4Z"/><path class="cls-6" d="M92.47,33s.65.5,0,2c0,0,2.37-.23,2.37-1.37S92.47,33,92.47,33Z"/><path class="cls-6" d="M81.92,41.91s-2.64,3.73.33,5.34C82.25,47.25,80.6,45.5,81.92,41.91Z"/><path class="cls-6" d="M103.31,41.91s3.5,3.73-.44,5.34C102.87,47.25,105.06,45.5,103.31,41.91Z"/><path class="cls-6" d="M92.1,39.86S89.41,64,86.2,67.49C86.2,67.49,92.47,56.85,92.1,39.86Z"/><path class="cls-5" d="M75.35,28.87s-2.81,6.8-9,8.9A11.41,11.41,0,0,0,75.35,28.87Z"/><path class="cls-5" d="M78.61,32s.22,3.89-2.58,6.2A4.74,4.74,0,0,0,78.61,32Z"/><path class="cls-5" d="M110.09,29.79s2.72,6.81,8.71,8.91A11.18,11.18,0,0,1,110.09,29.79Z"/><path class="cls-5" d="M106.93,32.92s-.21,3.89,2.5,6.21A4.78,4.78,0,0,1,106.93,32.92Z"/><path class="cls-5" d="M62.52,38.7S66.84,55.14,60,75.62C60,75.62,70.07,57.14,62.52,38.7Z"/><path class="cls-5" d="M125.4,35.78s-5.51,16.44,3.16,36.92C128.56,72.7,115.77,54.23,125.4,35.78Z"/></g><g id="sbgpants2"><path class="cls-7" d="M62.47,114.08s29.15,15.33,61.21,0c0,0,10.72,34.36,10.72,49.5a328,328,0,0,1-12.1,89.09A66.53,66.53,0,0,0,121.07,271s-23.36,15.63-58.6,0c0,0,2.4-14.89,0-19.11,0,0-12.53-46.16-13.27-57.08S45.85,151.19,62.47,114.08Z"/><path class="cls-8" d="M60.72,117.79s17.7,7.57,31.68,7.24c16.64-.4,33-6.61,33-6.61s1.27,3.26,1,5.06c0,0-11.35,6.92-34,6.76s-33.54-8-33.54-8S59.56,118.58,60.72,117.79Z"/><path class="cls-9" d="M96.7,123.12H91.09a1.71,1.71,0,0,0-1.7,1.71v5.65a1.71,1.71,0,0,0,1.7,1.71H96.7a1.72,1.72,0,0,0,1.71-1.71v-5.65A1.72,1.72,0,0,0,96.7,123.12Zm-.18,6.17a1,1,0,0,1-1,1H92.27a1,1,0,0,1-1-1V126a1,1,0,0,1,1-1h3.26a1,1,0,0,1,1,1Z"/><path class="cls-10" d="M90,129.62s-.41-5.08.33-5.6,4.65-.28,4.65-.28-4,.33-4.28.62S90,129.62,90,129.62Z"/><rect class="cls-7" x="83.36" y="123.12" width="2.22" height="8.69" rx="0.99" ry="0.99"/><rect class="cls-7" x="103.2" y="122.71" width="2.22" height="8.69" rx="0.99" ry="0.99"/><path class="cls-7" d="M124.55,126.27l-1.22.24a.48.48,0,0,1-.57-.38l-1.53-7.55a.5.5,0,0,1,.39-.58l1.21-.25a.49.49,0,0,1,.58.39l1.53,7.54A.51.51,0,0,1,124.55,126.27Z"/><path class="cls-7" d="M61.88,125.72l-1.14-.49a.49.49,0,0,1-.27-.64l3-7.1a.49.49,0,0,1,.64-.26l1.15.48a.5.5,0,0,1,.26.65l-3,7.09A.49.49,0,0,1,61.88,125.72Z"/><path class="cls-11" d="M73.65,131.39s-.74,12.08-15.81,12.21C57.84,143.6,71.67,147.73,73.65,131.39Z"/><path class="cls-11" d="M113.38,132.19s.67,12.08,14.11,12.2C127.49,144.39,115.15,148.53,113.38,132.19Z"/><path class="cls-11" d="M61.63,229.67s8.56,29.12,3.95,37.89C65.58,267.56,75.13,261.77,61.63,229.67Z"/></g></g></g></g></svg>