<?xml version="1.0" encoding="utf-8"?>
<!-- Generator: Adobe Illustrator 22.1.0, SVG Export Plug-In . SVG Version: 6.00 Build 0)  -->
<svg version="1.1" id="Layer_1" xmlns="http://www.w3.org/2000/svg" xmlns:xlink="http://www.w3.org/1999/xlink" x="0px" y="0px"
	 viewBox="0 0 183 415" style="enable-background:new 0 0 183 415;" xml:space="preserve">
<style type="text/css">
	.st0{fill:none;}
	.st1{fill:#262626;}
	.st2{fill:#777777;}
	.st3{fill:#F7EFD0;}
	.st4{fill:#EDDDAB;}
	.st5{fill:#FCFCFC;}
	.st6{fill:#3A353F;}
	.st7{fill:#0C0C0C;}
	.st8{fill:#B3B3B3;}
	.st9{fill:#E6E6E6;}
	.st10{fill:#2B2730;}
</style>
<title>sbg2</title>
<g id="Layer_2_1_">
	<g id="sbg2">
		<g id="sbg2-2">
			<rect class="st0" width="183" height="415"/>
			<g id="dressshoes_girl">
				<path class="st1" d="M75.5,367.2c0,0,0.9,17.1,6,17.4s10-18,10-18s-0.8,9,0,11.3s0.8,11.1-0.2,12.7s-11.3,4-13.1,4
					s-8.4-3-8.8-5.5s3.7-4.7,3.7-7.2S75.5,367.2,75.5,367.2z"/>
				<path class="st2" d="M72.4,385.9c0,0-0.4,5.5,6.1,6.3C78.4,392.2,71.3,393.2,72.4,385.9z"/>
				<path class="st1" d="M109,367.9c0,0-1.4,16.4-6.4,16.6s-10.6-18-10.6-18s1.4,9,0.7,11.3s-1.9,11.3-0.8,12.9s12.4,3.8,14.1,3.8
					s8.4-3,8.8-5.5s-3.2-4.7-3.2-7.2S109,367.9,109,367.9z"/>
				<path class="st2" d="M111.7,385.9c0,0,0.5,5.5-6,6.3C105.7,392.2,112.8,393.2,111.7,385.9z"/>
			</g>
			<g id="sbgshirt2">
				<path class="st3" d="M77.6,16.3c0,0,6,11.9,14.6,12.3s13.6-12.3,13.6-12.3s12,6.9,21.4,8.4c0,0-4,21.8,0.6,44.3
					c-1.6,5.7-4,11.2-7,16.3c0,0-3.3,0.4,8.9,52.2c0,0-1.4,0.8-6.6,0.7c-5.2-0.1-6.9,5.1-10.5,5.6s-9.3-0.2-12.6,2.1
					s-6.4,0.5-10.2,0s-5,1.3-9.3,1.1s-3.6-4.2-5.4-4.5s-8,1.9-10-1.1s-3.4-0.5-6.3-2.5c-1.4-1-2.9-1.8-4.5-2.3
					c0,0,8.9-25.8,8.9-29.9s1.1-17.4-0.9-21.1c0,0-4.4-9.5-5-15.6S63,30,57.8,24.2C57.8,24.2,76.6,17.6,77.6,16.3z"/>
				<path class="st4" d="M79,14.5c0,0-8.8,2.6-9.2,5.1s14.7,8.6,16.2,13.5c0,0,2.5-4.6,5.6-4.6C91.5,28.5,78.5,17.2,79,14.5z"/>
				<path class="st3" d="M79.6,13.5c0,0-8.8,2.6-9.2,5.1s14.2,8.6,15.7,13.5c0,0,2-4.5,5.4-3.6C91.5,28.5,79.1,16.2,79.6,13.5z"/>
				<path class="st4" d="M104.7,14.5c0,0,8.8,2.6,9.2,5.1s-14.2,8.6-15.7,13.5c0,0-0.9-4-4.4-4.7C93.8,28.4,105.2,17.2,104.7,14.5z"
					/>
				<path class="st3" d="M104.6,13.5c0,0,8.8,2.6,9.2,5.1s-14.2,8.6-15.7,13.5c0,0-0.9-4.6-4.3-3.7C93.8,28.4,105.1,16.2,104.6,13.5
					z"/>
				<path class="st4" d="M92.6,28L92.6,28c1.2,0,2.1,0.9,2.1,2.1v0c0,1.2-0.9,2.1-2.1,2.1h0c-1.2,0-2.1-0.9-2.1-2.1v0
					C90.5,28.9,91.4,28,92.6,28z"/>
				<path class="st4" d="M90.6,28.7c0,0-16,8.6-10,15c4.2,4.5,10-12.2,10-12.2v-1.1c0,0-7.5,13.7-8.6,12.1s8.6-12.1,8.6-12.1l0,0
					L90.6,28.7z"/>
				<path class="st4" d="M94.4,28.7c0,0,13.9,8.6,8.4,15c-3.9,4.5-8.4-12.2-8.4-12.2v-1.1c0,0,6.3,13.7,7.3,12.1s-7.3-12.1-7.3-12.1
					l0,0V28.7z"/>
				<path class="st4" d="M90.9,31.8c0,0-2.1,24.1-5.1,29.6s-5.2,5.8-5.2,5.8s3.2-0.4,4.4-1.3c0,0-0.9,3.2-2.5,4.6
					c0,0,5.1-1.6,6.8-8.7s3.3-29.7,3.3-29.7L90.9,31.8z"/>
				<path class="st4" d="M92.5,31.7c0,0,2,13.3,1.1,18.6C93,54.6,93,68.2,98.6,70.5l-1.7-3.4c0,0,2.1,1.6,3.5,1.5
					c0,0-5.2-4.8-4.2-17.9c0,0,1.4-14-2.6-19.3L92.5,31.7z"/>
				<path class="st3" d="M90.6,28.7c0,0,1,0.9,0.2,3.2c0,0,2.7,1.3,4-0.5c0,0,0.5-3.4-1.4-3.3C92.5,28,91.5,28.2,90.6,28.7z"/>
				<path class="st3" d="M90.6,28.7c0,0-14.4,8.9-10.3,14.4c0,0,7-12.7,10.3-13.4C90.6,29.6,91,29.5,90.6,28.7z"/>
				<path class="st3" d="M81.5,42.8c0,0,1,1.4,3.7-2.7C85.2,40.2,83.3,44.9,81.5,42.8z"/>
				<path class="st3" d="M94.7,30.1c0,0,8.5,8.4,7.9,12.3c0,0,4.3-3.6-7.9-13.1V30.1z"/>
				<path class="st3" d="M98.5,40.4c0,0,2.2,3.1,3.3,2.6C101.9,43.1,100.3,44.3,98.5,40.4z"/>
				<path class="st3" d="M91.5,32c0,0-2.4,27.6-5.8,31.2l1.7-1.2l-2.1,2.8c0,0,2.3-1.9,2.5-2.6c-0.4,1.6-0.9,3.1-1.7,4.6
					c0,0,3.2-3.8,4.4-15.9S92.1,32,92.1,32H91.5z"/>
				<path class="st3" d="M93.1,32.3c0,0,2.3,13.2,1.3,16.6s0,14.6,1.1,16l-0.3-3.2l1.7,4.1c0,0-1.3-4.3-1.3-4.6
					c0.3,0.6,0.6,1.1,0.8,1.7c-1-4.4-1.3-9-1-13.5C96,41.8,93.8,32,93.8,32L93.1,32.3z"/>
				<path class="st5" d="M91.5,29c0,0,0.7,0.5,0,2c0,0,2.4-0.2,2.4-1.4S91.5,29,91.5,29z"/>
				<path class="st5" d="M80.9,37.9c0,0-2.6,3.7,0.3,5.3C81.2,43.2,79.6,41.5,80.9,37.9z"/>
				<path class="st5" d="M102.3,37.9c0,0,3.5,3.7-0.4,5.3C101.9,43.2,104.1,41.5,102.3,37.9z"/>
				<path class="st5" d="M91.1,35.9c0,0-2.7,24.1-5.9,27.6C85.2,63.5,91.5,52.8,91.1,35.9z"/>
				<path class="st4" d="M74.3,24.9c0,0-2.8,6.8-9,8.9C69.9,32.9,73.4,29.4,74.3,24.9z"/>
				<path class="st4" d="M77.6,28c0,0,0.2,3.9-2.6,6.2C77.5,33.2,78.6,30.4,77.6,28C77.6,28,77.6,28,77.6,28z"/>
				<path class="st4" d="M109.1,25.8c0,0,2.7,6.8,8.7,8.9C113.4,33.8,109.9,30.3,109.1,25.8z"/>
				<path class="st4" d="M105.9,28.9c0,0-0.2,3.9,2.5,6.2C106,34.1,104.9,31.3,105.9,28.9z"/>
				<path class="st4" d="M61.5,34.7c0,0,4.3,16.4-2.5,36.9C59,71.6,69.1,53.1,61.5,34.7z"/>
				<path class="st4" d="M124.4,31.8c0,0-5.5,16.4,3.2,36.9C127.6,68.7,114.8,50.2,124.4,31.8z"/>
			</g>
			<g id="sbgpants2">
				<path class="st6" d="M61.5,110.1c0,0,29.2,15.3,61.2,0c0,0,10.7,34.4,10.7,49.5c0.1,30.1-4,60.1-12.1,89.1
					c-1.3,6-1.7,12.2-1.2,18.3c0,0-23.4,15.6-58.6,0c0,0,2.4-14.9,0-19.1c0,0-12.5-46.2-13.3-57.1S44.8,147.2,61.5,110.1z"/>
				<path class="st7" d="M59.7,113.8c0,0,17.7,7.6,31.7,7.2c16.6-0.4,33-6.6,33-6.6s1.3,3.3,1,5.1c0,0-11.3,6.9-34,6.8
					s-33.5-8-33.5-8S58.6,114.6,59.7,113.8z"/>
				<path class="st8" d="M95.7,119.1h-5.6c-0.9,0-1.7,0.8-1.7,1.7v5.6c0,0.9,0.8,1.7,1.7,1.7h5.6c0.9,0,1.7-0.8,1.7-1.7v-5.7
					C97.4,119.9,96.6,119.1,95.7,119.1z M95.5,125.3c0,0.6-0.4,1-1,1h-3.2c-0.6,0-1-0.4-1-1V122c0-0.6,0.4-1,1-1h3.3
					c0.6,0,1,0.4,1,1L95.5,125.3z"/>
				<path class="st9" d="M89,125.6c0,0-0.4-5.1,0.3-5.6s4.7-0.3,4.7-0.3s-4,0.3-4.3,0.6S89,125.6,89,125.6z"/>
				<path class="st6" d="M83.3,119.1h0.2c0.5,0,1,0.4,1,1v6.7c0,0.5-0.4,1-1,1h-0.2c-0.5,0-1-0.4-1-1v-6.7
					C82.4,119.6,82.8,119.1,83.3,119.1z"/>
				<path class="st6" d="M103.2,118.7h0.2c0.5,0,1,0.4,1,1v6.7c0,0.5-0.4,1-1,1h-0.2c-0.5,0-1-0.4-1-1v-6.7
					C102.2,119.2,102.6,118.7,103.2,118.7z"/>
				<path class="st6" d="M123.5,122.3l-1.2,0.2c-0.3,0.1-0.5-0.1-0.6-0.4c0,0,0,0,0,0l-1.5-7.6c0-0.3,0.1-0.5,0.4-0.6l1.2-0.2
					c0.3-0.1,0.5,0.1,0.6,0.4c0,0,0,0,0,0l1.5,7.5C124,121.9,123.8,122.2,123.5,122.3z"/>
				<path class="st6" d="M60.9,121.7l-1.1-0.5c-0.3-0.1-0.4-0.4-0.3-0.6c0,0,0,0,0,0l3-7.1c0.1-0.2,0.4-0.4,0.6-0.3l1.2,0.5
					c0.2,0.1,0.4,0.4,0.3,0.7l-3,7.1C61.4,121.7,61.1,121.8,60.9,121.7C60.9,121.7,60.9,121.7,60.9,121.7z"/>
				<path class="st10" d="M72.6,127.4c0,0-0.7,12.1-15.8,12.2C56.8,139.6,70.7,143.7,72.6,127.4z"/>
				<path class="st10" d="M112.4,128.2c0,0,0.7,12.1,14.1,12.2C126.5,140.4,114.1,144.5,112.4,128.2z"/>
				<path class="st10" d="M60.6,225.7c0,0,8.6,29.1,4,37.9C64.6,263.6,74.1,257.8,60.6,225.7z"/>
			</g>
		</g>
	</g>
</g>
</svg>
