<svg xmlns="http://www.w3.org/2000/svg" viewBox="0 0 183 415"><defs><style>.cls-1{fill:none;}.cls-2{fill:#353535;}.cls-3{fill:#4e4f4f;}.cls-4{fill:#1a1a1a;}.cls-5,.cls-6{fill:#444;}.cls-6{opacity:0.63;}.cls-7{fill:#99afc6;}.cls-8{fill:#a8bbcc;}</style></defs><title>scg</title><g id="Layer_2" data-name="Layer 2"><g id="scg"><g id="scg-2" data-name="scg"><rect class="cls-1" width="183" height="415"/><g id="scgpants"><path class="cls-2" d="M59.93,125.08s33.72,19.26,64.6,0A63.15,63.15,0,0,1,132,147.79c.86,7.74,2.21,14.13.82,28.19,0,0-1.23,8.19-39.4,12.9L91.63,182h0L90,189.13s-36.12-3.85-39.6-11.55c0,0-2.28-16.64.76-33.14C51.15,144.44,56.8,127.64,59.93,125.08Z"/><path class="cls-3" d="M58.81,126.59,61,121.21s34.46,14.56,61.35-.47l2.78,5.27S98.19,146.37,58.81,126.59Z"/><path class="cls-3" d="M91.37,139.31s-2.11,13.95,0,17.8C91.37,157.11,90.38,155.65,91.37,139.31Z"/><path class="cls-4" d="M94.91,131.8s-.7-2.45-2.44-.18c0,0-11.14,7.53-9.57,10.68s9.4-5.16,9.4-8.88a2.3,2.3,0,0,0,.53.44c-.36,3-1.59,11.68-3.88,14.12v1.92s4.17-5.66,4.7-15.85h0c0,.52.93,17,4.7,20.58h2.09s-3.83-.25-5.75-20.6l-.42-.29a1.82,1.82,0,0,0,.29-.32s3.31,10.1,6.79,9.58C101.35,143,103.62,136.7,94.91,131.8Zm-10.8,9.54c-.61-.88,6.8-7.35,6.8-7.35C90.91,137.31,84.72,142.21,84.11,141.34Zm16.2.1c-1.31.27-4.79-7.45-4.79-7.45C98.31,134.86,101.62,141.17,100.31,141.44Z"/><path class="cls-3" d="M57,146.19s16.67,2.07,18-11C75,135.23,77,152.15,57,146.19Z"/><path class="cls-3" d="M108.7,135.23s5.44,9.65,19.43,7.41C128.13,142.64,113,150.24,108.7,135.23Z"/><path class="cls-5" d="M50.82,178.31s-.4-17.05,1.57-17.39,2.49,20.36,2.49,20.36l1.44.67s-.6-11.68.64-11.56,3.36,13,3.36,13S52.83,181.63,50.82,178.31Z"/><path class="cls-5" d="M132.83,176s.58-14.89-1.23-15.06-1.48,18.13-1.48,18.13l-2,1.24s.56-11.1-1.36-11.1-2.1,12.76-2.1,12.76,7.42-3.31,8.16-6"/><path class="cls-6" d="M69.85,158.27s12.9,3.81,17.64,19C87.49,177.3,83.51,157.94,69.85,158.27Z"/></g><g id="scgshirt"><path id="scgshirt-2" data-name="scgshirt" class="cls-7" d="M65.7,22.21s1.79,30.57,24.13,30.66S116.05,22,116.05,22l5.65,1.78s-6.74,18,5.44,41c0,0,.41,9.69-5.09,16.32,0,0-3,23.83-1.66,29.24a75.78,75.78,0,0,0,2.07,7.4s-17.35,15.37-61.31,1.58a28.79,28.79,0,0,0,2.77-9c.33-4.2,1.15-20.44-2.39-26.73,0,0-3-2.83-4.54-13.16s10.23-28.29.84-46.18Z"/><path class="cls-8" d="M59.8,77.86s.66,5.46,9.39,7.61l3.21,30.12s-4.34-8.28-6.3-8.77c0,0-.53-20.19-2-21.51s-4.28-7.45-4.28-7.45"/><path class="cls-8" d="M124.72,75s-.66,5.46-9.39,7.61l-3.21,30.11s4.34-8.27,6.3-8.77c0,0,.54-20.18,2-21.5S124.72,75,124.72,75"/><path class="cls-8" d="M84.08,56S112,59.33,113.81,36.17C113.81,36.17,117.08,62,84.08,56Z"/><path class="cls-8" d="M59.14,24.42l5.77-1.49S66.31,34.51,69,39.81c0,0-4.28-8.11-4.94-15.56Z"/></g><g id="SunShoes"><path class="cls-5" d="M91.87,385.14s-.46,5-9.27,5.69v-2L91,376.93l-.27-2.87-8.52,12.65-7.55-10.85.31,3,6.75,9.64v2.37a34.4,34.4,0,0,1-4.94-.16s-7.46-.44-5.79-5.58c0,0-8,7.61,6,7.78S92,391.6,91.87,385.14Z"/><path class="cls-5" d="M113.28,384.54l-.07-.07Z"/><path class="cls-5" d="M112.66,383.89l-.3-.32Z"/><path class="cls-5" d="M113.21,384.47l-.55-.58Z"/><path class="cls-5" d="M113.42,384.69l-.14-.15Z"/><path class="cls-5" d="M112.36,383.57l-.24-.25Z"/><path class="cls-5" d="M113.55,384.82l-.11-.11Z"/><path class="cls-5" d="M113.44,384.71l0,0Z"/><path class="cls-5" d="M111.47,382.65l-.11-.12Z"/><path class="cls-5" d="M111.36,382.53Z"/><path class="cls-5" d="M113.55,384.82s4.43,6.65-8.78,6.26l-.35,0,.15-5.34,4.09-8.6.1-3.56-5.27,10.59-9.85-10.09-.47,3.06,10.24,8.68-.07,5.22c-10.85-.52-11.57-3-11.57-3v1.55s4.59,4.16,14.23,3.4S118.5,390,113.55,384.82Z"/><path class="cls-5" d="M111.5,382.68l0,0Z"/><path class="cls-5" d="M112.12,383.32l-.06-.05Z"/><path class="cls-5" d="M111.81,383l-.31-.32Z"/><path class="cls-5" d="M112.06,383.27l-.25-.27Z"/></g></g></g></g></svg>