<svg xmlns="http://www.w3.org/2000/svg" viewBox="0 0 169.78 747.55"><defs><style>.cls-1{fill:#353535;}.cls-2{fill:#4e4f4f;}.cls-3{fill:#1a1a1a;}.cls-4,.cls-5{fill:#444;}.cls-5{opacity:0.63;}.cls-6{fill:#99afc6;}.cls-7{fill:#a8bbcc;}</style></defs><title>scg</title><g id="Layer_2" data-name="Layer 2"><g id="scg"><g id="scg-2" data-name="scg"><g id="scgpants"><path class="cls-1" d="M21,207.72s68.28,38.8,130.8,0c0,0,12.28,20.46,15.13,45.77,1.75,15.58,4.48,28.45,1.66,56.79,0,0-2.5,16.48-79.76,26l-3.65-14h0l-3.32,14.47S8.72,329,1.65,313.5c0,0-4.6-33.53,1.56-66.78C3.21,246.72,14.64,212.9,21,207.72Z"/><path class="cls-2" d="M18.7,210.76l4.53-10.84S93,229.27,147.42,199l5.63,10.61S98.43,250.62,18.7,210.76Z"/><path class="cls-2" d="M84.64,236.4s-4.28,28.1,0,35.85C84.64,272.25,82.61,269.31,84.64,236.4Z"/><path class="cls-3" d="M91.79,221.26s-1.41-4.93-4.93-.35c0,0-22.56,15.16-19.39,21.51s19-10.4,19-17.89a4.71,4.71,0,0,0,1.08.88c-.75,6.09-3.24,23.53-7.87,28.45v3.88s8.46-11.41,9.52-32h0c.06,1.06,1.89,34.18,9.52,41.47H103s-7.76-.5-11.63-41.49l-.85-.6a4.63,4.63,0,0,0,.58-.64s6.7,20.35,13.75,19.29C104.84,243.82,109.42,231.13,91.79,221.26ZM69.94,240.48c-1.24-1.77,13.75-14.81,13.75-14.81C83.69,232.37,71.17,242.24,69.94,240.48Zm32.78.2c-2.65.55-9.69-15-9.69-15C98.67,227.43,105.37,240.13,102.72,240.68Z"/><path class="cls-2" d="M15,250.27s33.76,4.16,36.42-22.09C51.38,228.18,55.54,262.27,15,250.27Z"/><path class="cls-2" d="M119.72,228.18s11,19.44,39.33,14.93C159.05,243.11,128.38,258.43,119.72,228.18Z"/><path class="cls-4" d="M2.53,315s-.81-34.34,3.19-35,5,41,5,41l2.92,1.33S12.46,298.77,15,299s6.81,26.25,6.81,26.25S6.6,321.66,2.53,315Z"/><path class="cls-4" d="M168.56,310.28s1.18-30-2.5-30.35-3,36.52-3,36.52l-4,2.51s1.13-22.36-2.77-22.36S152,322.29,152,322.29s15-6.66,16.52-12"/><path class="cls-5" d="M41.05,274.6s26.12,7.67,35.73,38.33C76.78,312.93,68.72,273.93,41.05,274.6Z"/></g><g id="scgshirt"><path id="scgshirt-2" data-name="scgshirt" class="cls-6" d="M32.66.47s3.62,61.61,48.85,61.78S134.6,0,134.6,0L146,3.58s-13.66,36.35,11,82.69c0,0,.83,19.52-10.31,32.87,0,0-6,48-3.36,58.9A152.36,152.36,0,0,0,147.57,193s-35.12,30.95-124.12,3.18c0,0,4.93-9.66,5.6-18.11s2.33-41.17-4.83-53.84c0,0-6-5.7-9.19-26.5s20.71-57,1.7-93Z"/><path class="cls-7" d="M20.72,112.6s1.33,11,19,15.33l6.51,60.67s-8.79-16.67-12.76-17.67c0,0-1.09-40.66-4.09-43.33s-8.66-15-8.66-15"/><path class="cls-7" d="M152.14,106.79s-1.33,11-19,15.34l-6.51,60.66s8.79-16.67,12.75-17.66c0,0,1.09-40.67,4.09-43.34s8.67-15,8.67-15"/><path class="cls-7" d="M69.87,68.6s56.52,6.67,60.18-40C130.05,28.6,136.68,80.6,69.87,68.6Z"/><path class="cls-7" d="M19.38,4.93l11.67-3s2.83,23.34,8.33,34c0,0-8.66-16.33-10-31.33Z"/></g><g id="SunShoes"><path class="cls-4" d="M85.64,731.67s-.93,10-18.76,11.45V739L83.8,715.12l-.54-5.78L66,734.83,50.71,713l.63,6.07L65,738.45v4.78a69.29,69.29,0,0,1-10-.34s-15.1-.88-11.72-11.22c0,0-16.28,15.33,12.05,15.66S85.93,744.67,85.64,731.67Z"/><path class="cls-4" d="M129,730.46l-.14-.15Z"/><path class="cls-4" d="M127.72,729.14l-.61-.64Z"/><path class="cls-4" d="M128.85,730.31l-1.13-1.17Z"/><path class="cls-4" d="M129.27,730.75l-.28-.29Z"/><path class="cls-4" d="M127.11,728.5l-.48-.5Z"/><path class="cls-4" d="M129.53,731l-.23-.23Z"/><path class="cls-4" d="M129.3,730.79l0,0Z"/><path class="cls-4" d="M125.32,726.64l-.22-.24Z"/><path class="cls-4" d="M125.1,726.4Z"/><path class="cls-4" d="M129.53,731s9,13.38-17.78,12.6l-.71,0,.3-10.76,8.29-17.33.2-7.17-10.66,21.33-20-20.32-.94,6.17L109,733l-.15,10.51c-22-1.06-23.42-6.12-23.42-6.12l0,3.13s9.3,8.38,28.8,6.84S139.56,741.47,129.53,731Z"/><path class="cls-4" d="M125.39,726.71l-.07-.07Z"/><path class="cls-4" d="M126.63,728l-.11-.12Z"/><path class="cls-4" d="M126,727.34l-.61-.63Z"/><path class="cls-4" d="M126.52,727.88l-.52-.54Z"/></g></g></g></g></svg>