<svg xmlns="http://www.w3.org/2000/svg" viewBox="0 0 183 415"><defs><style>.cls-1{fill:none;}.cls-2{fill:#8865a8;}.cls-3{fill:#9677af;}.cls-4{fill:#ccc;}.cls-5{fill:#e6e6e6;}.cls-6{fill:#666;}.cls-7{fill:#444;}</style></defs><title>scg2</title><g id="Layer_2" data-name="Layer 2"><g id="scg2"><g id="scg2-2" data-name="scg2"><rect class="cls-1" width="183" height="415"/><g id="scgshirt2"><path id="scgshirt" class="cls-2" d="M66.19,22.21S68,52.78,90.32,52.87,116.55,22,116.55,22l5.64,1.78s-6.74,18,5.44,41c0,0,.41,9.69-5.09,16.32,0,0-3,23.83-1.66,29.24a75.78,75.78,0,0,0,2.07,7.4s-17.35,15.37-61.31,1.58a28.79,28.79,0,0,0,2.77-9c.33-4.2,1.15-20.44-2.39-26.73,0,0-3-2.83-4.54-13.16s10.24-28.29.84-46.18Z"/><path class="cls-3" d="M60.29,77.86s.66,5.46,9.39,7.61l3.21,30.12s-4.34-8.28-6.3-8.77c0,0-.53-20.19-2-21.51s-4.28-7.45-4.28-7.45"/><path class="cls-3" d="M125.21,75s-.66,5.46-9.39,7.61l-3.21,30.11s4.34-8.27,6.3-8.77c0,0,.54-20.18,2-21.5S125.21,75,125.21,75"/><path class="cls-3" d="M84.57,56s27.92,3.31,29.73-19.85C114.3,36.17,117.57,62,84.57,56Z"/><path class="cls-3" d="M59.63,24.42l5.77-1.49s1.4,11.58,4.11,16.88c0,0-4.28-8.11-4.94-15.56Z"/></g><g id="scgpants2"><path class="cls-4" d="M59.93,124.77s33.72,19.26,64.6,0A63.16,63.16,0,0,1,132,147.49c.86,7.73,2.21,14.12.82,28.19,0,0-1.23,8.18-39.4,12.9l-1.8-6.94h0L90,188.82S53.87,185,50.39,177.28c0,0-2.28-16.65.76-33.15C51.15,144.13,56.8,127.34,59.93,124.77Z"/><path class="cls-5" d="M58.81,126.28,61,120.9s34.46,14.56,61.35-.46l2.78,5.26S98.19,146.06,58.81,126.28Z"/><path class="cls-5" d="M91.37,139s-2.11,13.94,0,17.79C91.37,156.8,90.38,155.34,91.37,139Z"/><path class="cls-6" d="M94.91,131.49s-.7-2.45-2.44-.17c0,0-11.14,7.52-9.57,10.67s9.4-5.16,9.4-8.88a2.3,2.3,0,0,0,.53.44c-.36,3-1.59,11.68-3.88,14.12v1.93s4.17-5.67,4.7-15.86h0c0,.52.93,17,4.7,20.58h2.09s-3.83-.24-5.75-20.59l-.42-.3a1.82,1.82,0,0,0,.29-.32s3.31,10.1,6.79,9.58C101.35,142.69,103.62,136.39,94.91,131.49ZM84.11,141c-.61-.88,6.8-7.35,6.8-7.35C90.91,137,84.72,141.9,84.11,141Zm16.2.1c-1.31.27-4.79-7.45-4.79-7.45C98.31,134.55,101.62,140.86,100.31,141.13Z"/><path class="cls-5" d="M57,145.89s16.67,2.06,18-11C75,134.92,77,151.84,57,145.89Z"/><path class="cls-5" d="M108.7,134.92s5.44,9.66,19.43,7.42C128.13,142.34,113,149.94,108.7,134.92Z"/><path class="cls-5" d="M50.82,178s-.4-17.05,1.57-17.38S54.88,181,54.88,181l1.44.66s-.6-11.68.64-11.55,3.36,13,3.36,13S52.83,181.33,50.82,178Z"/><path class="cls-5" d="M132.83,175.68s.58-14.9-1.23-15.07-1.48,18.13-1.48,18.13l-2,1.25s.56-11.1-1.36-11.1-2.1,12.75-2.1,12.75,7.42-3.31,8.16-6"/><path class="cls-5" d="M69.85,158s12.9,3.8,17.64,19C87.49,177,83.51,157.64,69.85,158Z"/></g><g id="SunShoes"><path class="cls-7" d="M92.09,385.14s-.46,5-9.27,5.69v-2l8.36-11.86-.27-2.87-8.52,12.65-7.55-10.85.3,3,6.76,9.64v2.37a34.4,34.4,0,0,1-4.94-.16s-7.46-.44-5.79-5.58c0,0-8,7.61,6,7.78S92.23,391.6,92.09,385.14Z"/><path class="cls-7" d="M113.5,384.54l-.07-.07Z"/><path class="cls-7" d="M112.88,383.89l-.31-.32Z"/><path class="cls-7" d="M113.43,384.47l-.55-.58Z"/><path class="cls-7" d="M113.64,384.69l-.14-.15Z"/><path class="cls-7" d="M112.57,383.57l-.23-.25Z"/><path class="cls-7" d="M113.77,384.82l-.11-.11Z"/><path class="cls-7" d="M113.66,384.71l0,0Z"/><path class="cls-7" d="M111.69,382.65l-.11-.12Z"/><path class="cls-7" d="M111.58,382.53Z"/><path class="cls-7" d="M113.77,384.82s4.43,6.65-8.78,6.26l-.36,0,.15-5.34,4.1-8.6.1-3.56-5.27,10.59-9.85-10.09-.47,3.06,10.24,8.68-.07,5.22C92.71,390.5,92,388,92,388v1.55s4.59,4.16,14.23,3.4S118.72,390,113.77,384.82Z"/><path class="cls-7" d="M111.72,382.68l0,0Z"/><path class="cls-7" d="M112.34,383.32l-.06-.05Z"/><path class="cls-7" d="M112,383l-.31-.32Z"/><path class="cls-7" d="M112.28,383.27,112,383Z"/></g></g></g></g></svg>