<svg xmlns="http://www.w3.org/2000/svg" viewBox="0 0 169.78 747.55"><defs><style>.cls-1{fill:#8865a8;}.cls-2{fill:#9677af;}.cls-3{fill:#ccc;}.cls-4{fill:#e6e6e6;}.cls-5{fill:#666;}.cls-6{fill:#444;}</style></defs><title>scg2</title><g id="Layer_2" data-name="Layer 2"><g id="scg2"><g id="scg2-2" data-name="scg2"><g id="scgshirt2"><path id="scgshirt" class="cls-1" d="M33.65.47S37.27,62.08,82.5,62.25,135.59,0,135.59,0L147,3.58s-13.65,36.35,11,82.69c0,0,.83,19.52-10.31,32.87,0,0-6,48-3.35,58.9A151.23,151.23,0,0,0,148.56,193s-35.12,30.95-124.11,3.18c0,0,4.93-9.66,5.59-18.11s2.33-41.17-4.83-53.84c0,0-6-5.7-9.19-26.5s20.72-57,1.7-93Z"/><path class="cls-2" d="M21.71,112.6s1.33,11,19,15.33l6.51,60.67s-8.79-16.67-12.75-17.67c0,0-1.09-40.66-4.09-43.33s-8.67-15-8.67-15"/><path class="cls-2" d="M153.13,106.79s-1.33,11-19,15.34l-6.51,60.66s8.8-16.67,12.76-17.66c0,0,1.09-40.67,4.09-43.34s8.66-15,8.66-15"/><path class="cls-2" d="M70.86,68.6s56.52,6.67,60.19-40C131.05,28.6,137.67,80.6,70.86,68.6Z"/><path class="cls-2" d="M20.38,4.93,32,1.93s2.84,23.34,8.34,34c0,0-8.67-16.33-10-31.33Z"/></g><g id="scgpants2"><path class="cls-3" d="M21,207.1s68.28,38.8,130.8,0c0,0,12.28,20.46,15.13,45.77,1.75,15.58,4.48,28.46,1.66,56.79,0,0-2.5,16.49-79.76,26l-3.65-14h0l-3.32,14.47S8.72,328.4,1.65,312.88c0,0-4.6-33.52,1.56-66.77C3.21,246.11,14.64,212.28,21,207.1Z"/><path class="cls-4" d="M18.7,210.14l4.53-10.83s69.77,29.34,124.19-.94L153.05,209S98.43,250,18.7,210.14Z"/><path class="cls-4" d="M84.64,235.79s-4.28,28.09,0,35.84C84.64,271.63,82.61,268.69,84.64,235.79Z"/><path class="cls-5" d="M91.79,220.65s-1.41-4.94-4.93-.36c0,0-22.56,15.16-19.39,21.51s19-10.4,19-17.89a4.71,4.71,0,0,0,1.08.88c-.75,6.09-3.24,23.54-7.87,28.46v3.87s8.46-11.41,9.52-31.94h0c.06,1,1.89,34.18,9.52,41.46H103s-7.76-.5-11.63-41.49l-.85-.6a4.11,4.11,0,0,0,.58-.64s6.7,20.35,13.75,19.3C104.84,243.21,109.42,230.52,91.79,220.65ZM69.94,239.86c-1.24-1.76,13.75-14.81,13.75-14.81C83.69,231.75,71.17,241.62,69.94,239.86Zm32.78.21c-2.65.55-9.69-15-9.69-15C98.67,226.82,105.37,239.52,102.72,240.07Z"/><path class="cls-4" d="M15,249.65s33.76,4.16,36.42-22.09C51.38,227.56,55.54,261.65,15,249.65Z"/><path class="cls-4" d="M119.72,227.56s11,19.45,39.33,14.93C159.05,242.49,128.38,257.81,119.72,227.56Z"/><path class="cls-4" d="M2.53,314.35s-.81-34.35,3.19-35,5,41,5,41l2.92,1.34S12.46,298.15,15,298.4s6.81,26.25,6.81,26.25S6.6,321.05,2.53,314.35Z"/><path class="cls-4" d="M168.56,309.66s1.18-30-2.5-30.34-3,36.51-3,36.51l-4,2.51S160.18,296,156.28,296s-4.24,25.7-4.24,25.7,15-6.67,16.52-12"/><path class="cls-4" d="M41.05,274s26.12,7.67,35.73,38.33C76.78,312.31,68.72,273.31,41.05,274Z"/></g><g id="SunShoes"><path class="cls-6" d="M86.08,731.67s-.92,10-18.75,11.45V739l16.92-23.89-.55-5.78L66.45,734.83,51.16,713l.62,6.07,13.67,19.42v4.78a69.29,69.29,0,0,1-10-.34S40.36,742,43.74,731.67c0,0-16.29,15.33,12,15.66S86.37,744.67,86.08,731.67Z"/><path class="cls-6" d="M129.43,730.46l-.14-.15Z"/><path class="cls-6" d="M128.16,729.14l-.61-.64C127.76,728.71,128,728.93,128.16,729.14Z"/><path class="cls-6" d="M129.29,730.31l-1.13-1.17Z"/><path class="cls-6" d="M129.71,730.75l-.28-.29Z"/><path class="cls-6" d="M127.55,728.5l-.48-.5Z"/><path class="cls-6" d="M130,731l-.22-.23Z"/><path class="cls-6" d="M129.75,730.79l0,0Z"/><path class="cls-6" d="M125.76,726.64l-.22-.24Z"/><path class="cls-6" d="M125.54,726.4Z"/><path class="cls-6" d="M130,731s9,13.38-17.77,12.6l-.72,0,.3-10.76,8.29-17.33.21-7.17-10.66,21.33-20-20.32-.94,6.17L109.45,733l-.15,10.51c-22-1.06-23.41-6.12-23.41-6.12l0,3.13s9.29,8.38,28.79,6.84S140,741.47,130,731Z"/><path class="cls-6" d="M125.83,726.71l-.07-.07Z"/><path class="cls-6" d="M127.07,728l-.11-.12Z"/><path class="cls-6" d="M126.44,727.34l-.61-.63Z"/><path class="cls-6" d="M127,727.88l-.52-.54Z"/></g></g></g></g></svg>