<svg xmlns="http://www.w3.org/2000/svg" viewBox="0 0 276.53 752.07"><defs><style>.cls-1{fill:#262626;}.cls-2{fill:#777;}.cls-3{fill:#e5a1a1;}.cls-4{fill:#d17d7d;}.cls-5{fill:#ea9898;}.cls-6{fill:#e28686;}.cls-7{fill:#efb4b4;}</style></defs><title>sfg</title><g id="Layer_2" data-name="Layer 2"><g id="sfg"><g id="sfg-2" data-name="sfg"><g id="dressshoes_girl" data-name="dressshoes girl"><path class="cls-1" d="M102.58,697.11s1.86,34.46,12.11,35,20.2-36.23,20.2-36.23-1.55,18.14,0,22.73,1.71,22.3-.5,25.52-22.95,8-26.45,8-17.09-6-17.8-11,7.55-9.52,7.55-14.52S102.58,697.11,102.58,697.11Z"/><path class="cls-2" d="M96.19,734.82s-.93,11,12.25,12.75C108.44,747.57,94,749.57,96.19,734.82Z"/><path class="cls-1" d="M170.44,698.57s-2.78,33-13,33.5-21.53-36.23-21.53-36.23,2.88,18.14,1.33,22.73-3.85,22.72-1.65,25.94,25.1,7.56,28.6,7.56,17.09-6,17.79-11-6.54-9.52-6.54-14.52S170.44,698.57,170.44,698.57Z"/><path class="cls-2" d="M175.91,734.82s.92,11-12.25,12.75C163.66,747.57,178.14,749.57,175.91,734.82Z"/></g><g id="sfgskirt"><path class="cls-3" d="M4.21,356.68,1,368.93s15.42,9.5,23.92,12.75l4.25-8,23.5,11.75-1.5,9.5s24,9.56,32.75,8.3v-9.8l15.75,2.75v13.18s26.19,5.82,32,2.32l-1.5-11.5,11.75-3,1.19,11s26.78,4.92,32.82-.37l-1-9.38,18.75-2.75,2,10.29s22.45-1.54,25.45-9v-10.5L235,382.18l1.75,12.25S267,386.69,267,377.19l-4.2-5.26,6.69-1.58,1.5,5.33s5.45-3,5.41-8l-19.66-14Z"/><path class="cls-4" d="M6.54,331.35,1.28,359.9l39.34,16.19-2.91,7.26s18.34,14.67,32.34,15l3.34-10s19.32.67,25.32,5.33l-2,12s35.48,8.27,46.46,0V394l22.56-.34V408s35.42,0,35.34-4.79V391l10.66-4.34-.49,10.05s24.32-.71,31-10.05L241,378l6.67-3.3,7.34,10s23.89-12,21.28-22Z"/><path class="cls-5" d="M192.81,150.31c-33.91,44-95.8,17-111.89,8.87C13.66,211.17,0,359.47,0,359.47c12,14.67,38,18.68,38,18.68l3.33-10.3c11,12.25,26.48,16.29,26.48,16.29v6c6.47,10.7,45.52,10.22,45.52,10.22l.67-9c12,3.88,38.75.39,38.75.39l.87,7.06c27.28,5.66,53-5.67,53-5.67v-7l33.33-11,2.67,8c26.66-8.67,32.66-18.29,32.66-18.29C275.33,245.78,206.22,164.88,192.81,150.31Z"/><path class="cls-6" d="M42.37,370.68s.34-70.5,25.34-115.5c0,0-8.24,105.08,1.13,131.79C68.84,387,48,379.18,42.37,370.68Z"/><path class="cls-6" d="M115,394.19s11.18-150.92,14.68-167.85c0,0,18.38,133,21.44,167.68C151.16,394,129.36,400.19,115,394.19Z"/><path class="cls-6" d="M207.7,389s-1-103.29-15-133.79c0,0,13.32,35.44,48.33,122.8Z"/><path class="cls-6" d="M268,373.68s7.08-36.87-5.58-54.6c0,0,14.64,12.93,11,46.6Z"/></g><g id="sfgshirt"><path class="cls-5" d="M76.93,131.21c4.2,11.83,4.91,25.85,5,28.15,66.26,27.71,102.94-1.35,111.62-9.53a3.87,3.87,0,0,1-1-3.07s-.31-2.51,1.62-16.31S207,94.7,207,94.7c5.25-33.49-11.26-40-11.26-40-2-43.5-12.55-52.84-12.55-52.84L178.42,0C186.8,12,188,52,188,52c-32.09-2-48.64,48-48.64,48-12.6-42.34-52.9-48-52.9-48-.24-14.53,5.88-52,5.88-52L88.06,1.39c-3.32,8-9.35,51.29-9.35,51.29-24,22.67-17.33,44.87-17.33,44.87S72.41,118.46,76.93,131.21Z"/><path class="cls-7" d="M80.27,144.37s1.52,11,.65,14.81c0,0,74.83,42.14,112.64-9.35a55,55,0,0,1-.85-10.81S160.84,175.05,80.27,144.37Z"/><path class="cls-6" d="M142.46,100.68s24.5-45.5,47-44.5S208,91.68,208,91.68s4.71-29.5-12.29-37-38-1.31-56.4,45.34c0,0-6.95-39.42-52.9-48C86.41,52,70,47.37,61,84.15c0,0-1.31,10.08.41,13.4,0,0-5.42-28.87,16.08-38.87s57.41,29.5,59.46,42,2.79,16.25,2.79,16.25Z"/></g></g></g></g></svg>