<svg xmlns="http://www.w3.org/2000/svg" viewBox="0 0 183 415"><defs><style>.cls-1{fill:none;}.cls-2{fill:#262626;}.cls-3{fill:#777;}.cls-4{fill:#f2e5af;}.cls-5{fill:#eac93d;}.cls-6{fill:#efdf8f;}.cls-7{fill:#ead16a;}</style></defs><title>sfg2</title><g id="Layer_2" data-name="Layer 2"><g id="sfg2"><g id="sfg2-2" data-name="sfg2"><rect class="cls-1" width="183" height="415"/><g id="dressshoes_girl" data-name="dressshoes girl"><path class="cls-2" d="M75.31,363.12s.92,17.1,6,17.35,10-18,10-18-.77,9,0,11.28.84,11.07-.25,12.67-11.33,4-13.06,4-8.45-2.95-8.79-5.45,3.72-4.73,3.72-7.21S75.31,363.12,75.31,363.12Z"/><path class="cls-3" d="M72.15,381.83s-.45,5.47,6,6.33C78.2,388.16,71.05,389.16,72.15,381.83Z"/><path class="cls-2" d="M108.83,363.84s-1.38,16.38-6.44,16.63-10.63-18-10.63-18,1.42,9,.66,11.28-1.91,11.28-.82,12.88,12.4,3.75,14.12,3.75,8.45-2.95,8.8-5.45-3.24-4.73-3.24-7.21S108.83,363.84,108.83,363.84Z"/><path class="cls-3" d="M111.53,381.83s.46,5.47-6,6.33C105.48,388.16,112.63,389.16,111.53,381.83Z"/></g><g id="sfgskirt2"><path class="cls-4" d="M27.29,195.05l-1.57,6.08s7.62,4.71,11.82,6.32l2.09-4,11.61,5.84L50.5,214s11.84,4.75,16.18,4.12v-4.86l7.78,1.36v6.54s12.93,2.89,15.8,1.16l-.74-5.71,5.81-1.49.59,5.46s13.22,2.44,16.2-.19l-.49-4.65,9.26-1.37,1,5.11s11.09-.76,12.57-4.49v-5.21l6.79-2.11.87,6.08s15-3.84,14.94-8.56l-2.07-2.6,3.31-.79.74,2.65s2.69-1.49,2.67-4L152,193.56Z"/><path class="cls-5" d="M28.44,182.47l-2.6,14.17,19.43,8-1.44,3.6s9.06,7.28,16,7.45l1.65-5s9.55.33,12.51,2.65l-1,6s17.53,4.1,23,0v-5.79l11.14-.17v7.12s17.5,0,17.45-2.38v-6.06l5.27-2.15-.25,5s12-.35,15.31-5l-.57-4.32,3.29-1.64,3.63,5S163,203,161.7,198Z"/><path class="cls-6" d="M120.44,92.61C103.69,114.45,73.12,101,65.18,97c-33.23,25.81-40,99.42-40,99.42C31.13,203.71,44,205.7,44,205.7l1.65-5.11a29.57,29.57,0,0,0,13.08,8.08v3c3.19,5.31,22.49,5.07,22.49,5.07l.33-4.48c5.92,1.92,19.13.19,19.13.19l.43,3.5c13.48,2.82,26.21-2.81,26.21-2.81v-3.47l16.46-5.46,1.32,4c13.17-4.3,16.14-9.08,16.14-9.08C161.21,140,127.07,99.84,120.44,92.61Z"/><path class="cls-7" d="M46.13,202s.17-35,12.52-57.33c0,0-4.07,52.16.56,65.42C59.21,210.08,48.93,206.21,46.13,202Z"/><path class="cls-7" d="M82,213.66s5.52-74.91,7.25-83.31c0,0,9.08,66,10.59,83.23C99.87,213.58,89.1,216.64,82,213.66Z"/><path class="cls-7" d="M127.8,211.07s-.49-51.27-7.4-66.41c0,0,6.57,17.59,23.87,61Z"/><path class="cls-7" d="M157.56,203.48s3.5-18.3-2.75-27.1c0,0,7.23,6.42,5.42,23.13Z"/></g><g id="sfgshirt2"><path class="cls-6" d="M62.53,81.73A52.67,52.67,0,0,1,65,95.7C98.22,109.46,116.6,95,120.94,91a1.93,1.93,0,0,1-.48-1.53s-.15-1.25.81-8.1,6.39-17.74,6.39-17.74C130.29,47,122,43.75,122,43.75c-1-21.6-6.29-26.24-6.29-26.24l-2.37-.91c4.2,5.95,4.77,25.82,4.77,25.82-16.07-1-24.35,23.83-24.35,23.83-6.32-21-26.5-23.83-26.5-23.83-.12-7.21,2.94-25.82,2.94-25.82l-2.11.69c-1.67,4-4.69,25.46-4.69,25.46C51.4,54,54.74,65,54.74,65S60.27,75.4,62.53,81.73Z"/><path class="cls-4" d="M64.21,88.26s.76,5.45.32,7.35c0,0,37.47,20.92,56.41-4.63a27.53,27.53,0,0,1-.42-5.37S104.55,103.49,64.21,88.26Z"/><path class="cls-7" d="M95.35,66.58S107.62,44,118.89,44.49s9.28,17.62,9.28,17.62,2.37-14.64-6.15-18.36-19-.66-28.24,22.5c0,0-3.49-19.57-26.5-23.83,0,0-8.23-2.31-12.74,15.95,0,0-.66,5,.2,6.65,0,0-2.71-14.33,8.06-19.29S91.55,60.37,92.58,66.58,94,74.64,94,74.64Z"/></g></g></g></g></svg>