<?xml version="1.0" encoding="utf-8"?>
<!-- Generator: Adobe Illustrator 22.1.0, SVG Export Plug-In . SVG Version: 6.00 Build 0)  -->
<svg version="1.1" id="Layer_1" xmlns="http://www.w3.org/2000/svg" xmlns:xlink="http://www.w3.org/1999/xlink" x="0px" y="0px"
	 viewBox="0 0 183 415" style="enable-background:new 0 0 183 415;" xml:space="preserve">
<style type="text/css">
	.st0{fill:none;}
	.st1{fill:#262626;}
	.st2{fill:#777777;}
	.st3{fill:#F2E5AF;}
	.st4{fill:#EAC93D;}
	.st5{fill:#EFDF8F;}
	.st6{fill:#EAD16A;}
</style>
<title>sfg2</title>
<g id="Layer_2_1_">
	<g id="sfg2">
		<g id="sfg2-2">
			<rect class="st0" width="183" height="415"/>
			<g id="dressshoes_girl">
				<path class="st1" d="M75.3,363.1c0,0,0.9,17.1,6,17.4s10-18,10-18s-0.8,9,0,11.3s0.8,11.1-0.2,12.7s-11.3,4-13.1,4
					s-8.4-3-8.8-5.5s3.7-4.7,3.7-7.2S75.3,363.1,75.3,363.1z"/>
				<path class="st2" d="M72.2,381.8c0,0-0.4,5.5,6,6.3C78.2,388.2,71.1,389.2,72.2,381.8z"/>
				<path class="st1" d="M108.8,363.8c0,0-1.4,16.4-6.4,16.6s-10.6-18-10.6-18s1.4,9,0.7,11.3s-1.9,11.3-0.8,12.9s12.4,3.8,14.1,3.8
					s8.4-3,8.8-5.5s-3.2-4.7-3.2-7.2S108.8,363.8,108.8,363.8z"/>
				<path class="st2" d="M111.5,381.8c0,0,0.5,5.5-6,6.3C105.5,388.2,112.6,389.2,111.5,381.8z"/>
			</g>
			<g id="sfgskirt2">
				<path class="st3" d="M27.3,197.1l-1.6,6.1c0,0,7.6,4.7,11.8,6.3l2.1-4l11.6,5.8l-0.7,4.7c0,0,11.8,4.8,16.2,4.1v-4.9l7.8,1.4
					v6.5c0,0,12.9,2.9,15.8,1.2l-0.7-5.7l5.8-1.5l0.6,5.5c0,0,13.2,2.4,16.2-0.2l-0.5-4.6l9.3-1.4l1,5.1c0,0,11.1-0.8,12.6-4.5v-5.2
					l6.8-2.1l0.9,6.1c0,0,15-3.8,14.9-8.6l-2.1-2.6l3.3-0.8l0.7,2.6c0,0,2.7-1.5,2.7-4l-9.7-6.9L27.3,197.1z"/>
				<path class="st4" d="M28.4,184.5l-2.6,14.2l19.4,8l-1.4,3.6c0,0,9.1,7.3,16,7.4l1.7-5c0,0,9.6,0.3,12.5,2.6l-1,6
					c0,0,17.5,4.1,23,0v-5.8l11.1-0.2v7.1c0,0,17.5,0,17.4-2.4v-6.1l5.3-2.1l-0.2,5c0,0,12-0.4,15.3-5l-0.6-4.3l3.3-1.6l3.6,5
					c0,0,11.7-5.9,10.4-10.9L28.4,184.5z"/>
				<path class="st5" d="M120.4,94.6c-16.8,21.8-47.3,8.4-55.3,4.4c-33.2,25.8-40,99.4-40,99.4c5.9,7.3,18.8,9.3,18.8,9.3l1.7-5.1
					c3.6,3.8,8.1,6.6,13.1,8.1v3c3.2,5.3,22.5,5.1,22.5,5.1l0.3-4.5c5.9,1.9,19.1,0.2,19.1,0.2l0.4,3.5c13.5,2.8,26.2-2.8,26.2-2.8
					v-3.5l16.5-5.5l1.3,4c13.2-4.3,16.1-9.1,16.1-9.1C161.2,142,127.1,101.8,120.4,94.6z"/>
				<path class="st6" d="M46.1,204c0,0,0.2-35,12.5-57.3c0,0-4.1,52.2,0.6,65.4C59.2,212.1,48.9,208.2,46.1,204z"/>
				<path class="st6" d="M82,215.7c0,0,5.5-74.9,7.2-83.3c0,0,9.1,66,10.6,83.2C99.9,215.6,89.1,218.6,82,215.7z"/>
				<path class="st6" d="M127.8,213.1c0,0-0.5-51.3-7.4-66.4c0,0,6.6,17.6,23.9,61L127.8,213.1z"/>
				<path class="st6" d="M157.6,205.5c0,0,3.5-18.3-2.8-27.1c0,0,7.2,6.4,5.4,23.1L157.6,205.5z"/>
			</g>
			<g id="sfgshirt2">
				<path class="st5" d="M62.5,83.7c1.4,4.5,2.3,9.2,2.5,14c33.2,13.8,51.6-0.7,55.9-4.7c-0.4-0.4-0.5-1-0.5-1.5
					c0,0-0.2-1.2,0.8-8.1s6.4-17.7,6.4-17.7c2.6-16.6-5.7-19.9-5.7-19.9c-1-21.6-6.3-26.2-6.3-26.2l-2.4-0.9
					c4.2,5.9,4.8,25.8,4.8,25.8c-16.1-1-24.3,23.8-24.3,23.8c-6.3-21-26.5-23.8-26.5-23.8c-0.1-7.2,2.9-25.8,2.9-25.8l-2.1,0.7
					c-1.7,4-4.7,25.5-4.7,25.5C51.4,56,54.7,67,54.7,67S60.3,77.4,62.5,83.7z"/>
				<path class="st3" d="M64.2,90.3c0,0,0.8,5.4,0.3,7.3c0,0,37.5,20.9,56.4-4.6c-0.3-1.8-0.5-3.6-0.4-5.4
					C120.5,87.6,104.6,105.5,64.2,90.3z"/>
				<path class="st6" d="M95.3,68.6c0,0,12.3-22.6,23.5-22.1s9.3,17.6,9.3,17.6s2.4-14.6-6.2-18.4s-19-0.7-28.2,22.5
					c0,0-3.5-19.6-26.5-23.8c0,0-8.2-2.3-12.7,16c0,0-0.7,5,0.2,6.6c0,0-2.7-14.3,8.1-19.3s28.8,14.6,29.8,20.9s1.4,8.1,1.4,8.1
					L95.3,68.6z"/>
			</g>
		</g>
	</g>
</g>
</svg>
