<svg xmlns="http://www.w3.org/2000/svg" viewBox="0 0 276.53 753.07"><defs><style>.cls-1{fill:#262626;}.cls-2{fill:#777;}.cls-3{fill:#f2e5af;}.cls-4{fill:#eac93d;}.cls-5{fill:#efdf8f;}.cls-6{fill:#ead16a;}</style></defs><title>sfg2</title><g id="Layer_2" data-name="Layer 2"><g id="sfg2"><g id="sfg2-2" data-name="sfg2"><g id="dressshoes_girl" data-name="dressshoes girl"><path class="cls-1" d="M101.44,698.11s1.86,34.46,12.11,35,20.2-36.22,20.2-36.22-1.56,18.13,0,22.72,1.71,22.3-.49,25.53-23,8-26.45,8-17.1-6-17.8-11,7.55-9.53,7.55-14.53S101.44,698.11,101.44,698.11Z"/><path class="cls-2" d="M95.05,735.82s-.93,11,12.25,12.75C107.3,748.57,92.82,750.57,95.05,735.82Z"/><path class="cls-1" d="M169.3,699.57s-2.79,33-13,33.5-21.52-36.22-21.52-36.22,2.88,18.13,1.33,22.72-3.86,22.72-1.65,25.94,25.09,7.56,28.59,7.56,17.1-6,17.8-11-6.55-9.53-6.55-14.53S169.3,699.57,169.3,699.57Z"/><path class="cls-2" d="M174.76,735.82s.93,11-12.25,12.75C162.51,748.57,177,750.57,174.76,735.82Z"/></g><g id="sfgskirt2"><path class="cls-3" d="M4.21,357.49,1,369.74s15.42,9.5,23.92,12.75l4.25-8,23.5,11.75-1.5,9.5S75.19,405.3,84,404v-9.79L99.71,397v13.17s26.19,5.83,32,2.33l-1.5-11.5L142,398l1.19,11s26.78,4.91,32.82-.38l-1-9.37,18.75-2.75,2,10.28s22.45-1.53,25.45-9v-10.5L235,383l1.75,12.25S267,387.5,267,378l-4.2-5.25,6.69-1.58,1.5,5.33s5.45-3,5.41-8l-19.66-14Z"/><path class="cls-4" d="M6.54,332.15,1.28,360.7l39.34,16.19-2.91,7.26s18.34,14.67,32.34,15l3.34-10s19.32.67,25.32,5.34l-2,12s35.48,8.26,46.46,0V394.82l22.56-.33v14.33s35.42,0,35.34-4.79V391.82l10.66-4.33-.49,10s24.32-.71,31-10l-1.17-8.7,6.67-3.3,7.34,10s23.89-12,21.28-22Z"/><path class="cls-5" d="M192.81,151.11c-33.91,44-95.8,17-111.89,8.87C13.66,212,0,360.28,0,360.28,12,374.94,38,379,38,379l3.33-10.31c11,12.26,26.48,16.29,26.48,16.29v6c6.47,10.7,45.52,10.23,45.52,10.23l.67-9c12,3.88,38.75.39,38.75.39l.87,7.06c27.28,5.67,53-5.67,53-5.67v-7L240,376l2.67,8c26.66-8.67,32.66-18.29,32.66-18.29C275.33,246.58,206.22,165.69,192.81,151.11Z"/><path class="cls-6" d="M42.37,371.49S42.71,301,67.71,256c0,0-8.24,105.08,1.13,131.79C68.84,387.78,48,380,42.37,371.49Z"/><path class="cls-6" d="M115,395s11.18-150.91,14.68-167.85c0,0,18.38,133,21.44,167.68C151.16,394.82,129.36,401,115,395Z"/><path class="cls-6" d="M207.7,389.78s-1-103.29-15-133.79c0,0,13.32,35.43,48.33,122.8Z"/><path class="cls-6" d="M268,374.48s7.08-36.87-5.58-54.6c0,0,14.64,12.93,11,46.6Z"/></g><g id="sfgshirt2"><path class="cls-5" d="M75.57,131.21c4.26,11.83,5,25.85,5.08,28.15C147.83,187.07,185,158,193.82,149.83a3.85,3.85,0,0,1-1-3.07s-.31-2.51,1.64-16.31S207.41,94.7,207.41,94.7c5.33-33.49-11.41-40-11.41-40-2-43.5-12.73-52.84-12.73-52.84L178.47,0c8.49,12,9.66,52,9.66,52-32.54-2-49.31,48-49.31,48C126.05,57.68,85.18,52,85.18,52c-.25-14.53,6-52,6-52L86.85,1.39c-3.36,8-9.47,51.29-9.47,51.29C53,75.35,59.8,97.55,59.8,97.55S71,118.46,75.57,131.21Z"/><path class="cls-3" d="M79,144.37s1.54,11,.65,14.81c0,0,75.87,42.14,114.21-9.35A54.33,54.33,0,0,1,193,139S160.64,175.05,79,144.37Z"/><path class="cls-6" d="M142,100.68s24.84-45.5,47.66-44.5,18.79,35.5,18.79,35.5,4.78-29.5-12.46-37S157.43,53.37,138.82,100c0,0-7-39.42-53.64-48,0,0-16.66-4.65-25.79,32.13,0,0-1.33,10.08.41,13.4,0,0-5.49-28.87,16.31-38.87s58.21,29.5,60.28,42,2.83,16.25,2.83,16.25Z"/></g></g></g></g></svg>