<svg xmlns="http://www.w3.org/2000/svg" viewBox="0 0 267.75 785.7"><defs><style>.cls-1{fill:#262626;}.cls-2{fill:#777;}.cls-3{fill:#f9f0b2;}.cls-4{fill:#1d2228;}.cls-5{fill:#eade96;}.cls-6{fill:#969696;}.cls-7{fill:#3a3a3a;}.cls-8{fill:#434344;}.cls-9{fill:#7f7f7f;}</style></defs><title>snbg</title><g id="Layer_2" data-name="Layer 2"><g id="snbg"><g id="snbg-2" data-name="snbg"><g id="dressshoes_girl" data-name="dressshoes girl"><path class="cls-1" d="M99.55,730.74s1.86,34.46,12.11,35,20.2-36.22,20.2-36.22-1.55,18.13,0,22.72,1.71,22.3-.49,25.53-23,8-26.45,8-17.1-6-17.8-11,7.55-9.53,7.55-14.53S99.55,730.74,99.55,730.74Z"/><path class="cls-2" d="M93.16,768.45s-.93,11,12.25,12.75C105.41,781.2,90.93,783.2,93.16,768.45Z"/><path class="cls-1" d="M167.41,732.2s-2.79,33-13,33.5-21.52-36.22-21.52-36.22,2.88,18.13,1.33,22.72-3.85,22.72-1.65,25.94,25.09,7.56,28.59,7.56,17.1-6,17.8-11-6.55-9.53-6.55-14.53S167.41,732.2,167.41,732.2Z"/><path class="cls-2" d="M172.87,768.45s.93,11-12.25,12.75C160.62,781.2,175.11,783.2,172.87,768.45Z"/></g><g id="snbgpants"><g id="rbgpants2"><path class="cls-3" d="M69.16,242s68.58,29.95,128.8-.66c0,0,17.29,28,20.06,63,2.49,31.44,4.5,90.5-23.5,189.5,0,0-8.28,41.75-.28,70,0,0,6.4,46.54-15.16,104.54l-10.27,34.45s-6.68,2.55-12.57,2.55S139.91,699,139.91,699s-12.33-115.67-3.56-142.67c6.48-19.93-1.44-63.5.37-102s0-90.5,0-90.5l-4.76.5-3.44,143s-1.5,23-1.5,29.5,6.07,46,4.94,55.5-4.38,106.33-4.38,106.33-9.17,6.67-13.67,6.67-18-2.33-18-2.33-8.39-50.17-14.39-65.67-12.5-71.5-5-109-18-63.5-23.5-114S33.68,284.89,69.16,242Z"/><circle class="cls-4" cx="135.87" cy="268.93" r="4.63"/><path class="cls-5" d="M98.74,258.9s-6,27.29-41.89,24.06C56.85,283,85.08,284.1,98.74,258.9Z"/><path class="cls-5" d="M170.15,258.89s3.34,27.81,42.35,28.71C212.5,287.6,182,285.5,170.15,258.89Z"/><path class="cls-5" d="M124,293.28s-3.75,56,5.25,59C129.27,352.28,121.52,337,124,293.28Z"/><rect class="cls-5" x="108.07" y="260.52" width="4.01" height="15.47" rx="1.31" ry="1.31"/><rect class="cls-5" x="159.9" y="260.52" width="4.01" height="15.47" rx="1.31" ry="1.31"/></g><path class="cls-5" d="M98.24,694.61s4.61,5,22.67,0C120.91,694.61,106.24,704,98.24,694.61Z"/><path class="cls-5" d="M151.24,698.76s15.69,1.11,18-2.07C169.24,696.69,163.09,703.59,151.24,698.76Z"/></g><g id="snbgshirt"><path class="cls-6" d="M111.72,12.87s21.59,10.58,44.83,0c0,0,4.87,15.41,14.31,19.31s50,8.48,56,19.27-32.31,97.79-32.31,97.79L179.91,263.45s-47,19-90,0c0,0-14.06-109.64-27.53-129.07L35.91,51S83.61,33.3,92,30.45C102.58,26.83,111.72,12.87,111.72,12.87Z"/><path class="cls-7" d="M72.57,39.09S42.91,43.45,35.91,51s-24,149-24,149S-2.59,240,.41,312c0,0,14.15,9.29,31.5,6.67,0,0,17.54-109.17,17.27-117.17,0,0,17.23-46.5,16.73-51.5,0,0,6,55.55,2,69.53S40.46,302,39.41,332,51.16,485,51.16,485s36.73,37.47,54.75,40.5L123,206,92,30.45Z"/><path class="cls-8" d="M107.11,18.71s-33.88,7-34.54,20.38S123,206,123,206Z"/><path class="cls-7" d="M195.18,38.91s29.66,4.35,36.66,11.85,24,149,24,149,14.5,40,11.5,112c0,0-14.15,9.29-31.5,6.68,0,0-17.55-109.18-17.27-117.18,0,0-17.23-46.5-16.73-51.5,0,0-6,55.56-2,69.53s27.45,82.55,28.5,112.47-11.75,153-11.75,153-36.73,37.47-54.75,40.5l-17.13-319.5,31.06-175.5Z"/><path class="cls-8" d="M159.64,18.52s33.88,7,34.54,20.39-49.47,166.85-49.47,166.85Z"/><circle class="cls-8" cx="156.55" cy="210.34" r="4.39"/><path class="cls-6" d="M113.55,0S93.69,5.93,97.8,27.44s67,10,67,10S178.73,1,152.69,0C152.69,0,135.19,13.05,113.55,0Z"/><path class="cls-9" d="M108.72,37.66s12.8,11.52,32.49,6C141.21,43.61,120.07,56.11,108.72,37.66Z"/><path class="cls-9" d="M160.93,2s-20.88,14.76-32,10.84C129,12.87,158,17.59,160.93,2Z"/></g></g></g></g></svg>