<svg xmlns="http://www.w3.org/2000/svg" viewBox="0 0 183 415"><defs><style>.cls-1{fill:none;}.cls-2{fill:#262626;}.cls-3{fill:#777;}.cls-4{fill:#f9f0b2;}.cls-5{fill:#1d2228;}.cls-6{fill:#eade96;}.cls-7{fill:#969696;}.cls-8{fill:#3a3a3a;}.cls-9{fill:#434344;}.cls-10{fill:#7f7f7f;}</style></defs><title>snbg</title><g id="Layer_2" data-name="Layer 2"><g id="snbg"><g id="snbg-2" data-name="snbg"><rect class="cls-1" width="183" height="415"/><g id="dressshoes_girl" data-name="dressshoes girl"><path class="cls-2" d="M76.55,370.22s.91,17.1,6,17.35,10-18,10-18-.77,9,0,11.28.85,11.07-.24,12.67-11.34,4-13.07,4-8.44-2.95-8.79-5.45,3.73-4.73,3.73-7.21S76.55,370.22,76.55,370.22Z"/><path class="cls-3" d="M73.39,388.93s-.46,5.47,6,6.33C79.44,395.26,72.29,396.26,73.39,388.93Z"/><path class="cls-2" d="M110.06,370.94s-1.37,16.38-6.43,16.63-10.64-18-10.64-18,1.42,9,.66,11.28-1.9,11.28-.81,12.88,12.39,3.75,14.12,3.75,8.44-2.95,8.79-5.45-3.23-4.73-3.23-7.21S110.06,370.94,110.06,370.94Z"/><path class="cls-3" d="M112.76,388.93s.46,5.47-6.05,6.33C106.71,395.26,113.87,396.26,112.76,388.93Z"/></g><g id="snbgpants"><g id="rbgpants2"><path class="cls-4" d="M60.53,132.6s33.88,14.87,63.62-.33a78.11,78.11,0,0,1,9.91,31.27c1.23,15.6,2.23,44.92-11.6,94.06,0,0-4.09,20.72-.14,34.72,0,0,3.16,23.11-7.49,51.89l-5.07,17.1a20.49,20.49,0,0,1-6.21,1.27c-2.91,0-8.07-3.14-8.07-3.14S89.39,302,93.72,288.62c3.21-9.89-.71-31.52.18-50.63s0-44.92,0-44.92l-2.34.25-1.7,71s-.75,11.42-.75,14.64,3,22.84,2.45,27.55-2.17,52.78-2.17,52.78-4.53,3.31-6.75,3.31-8.89-1.16-8.89-1.16-4.15-24.9-7.11-32.59-6.17-35.49-2.47-54.11-8.89-31.52-11.61-56.58S43,153.92,60.53,132.6Z"/><ellipse class="cls-5" cx="93.49" cy="145.99" rx="2.28" ry="2.3"/><path class="cls-6" d="M75.15,141s-3,13.55-20.7,11.94C54.45,153,68.4,153.52,75.15,141Z"/><path class="cls-6" d="M110.42,141s1.65,13.8,20.92,14.25C131.34,155.26,116.25,154.21,110.42,141Z"/><path class="cls-6" d="M87.63,158.08s-1.85,27.79,2.6,29.28C90.23,187.36,86.4,179.79,87.63,158.08Z"/><rect class="cls-6" x="79.75" y="141.82" width="1.98" height="7.68" rx="0.99" ry="0.99"/><rect class="cls-6" x="105.36" y="141.82" width="1.98" height="7.68" rx="0.99" ry="0.99"/></g><path class="cls-6" d="M74.9,357.28s2.27,2.51,11.2,0C86.1,357.28,78.85,361.92,74.9,357.28Z"/><path class="cls-6" d="M101.08,359.34s7.75.55,8.89-1C110,358.31,106.93,361.74,101.08,359.34Z"/></g><g id="snbgshirt"><path class="cls-7" d="M81.56,9.89s10.66,5.25,22.14,0c0,0,2.41,7.65,7.07,9.59s24.68,4.21,27.66,9.56-16,48.54-16,48.54l-7.23,56.69s-23.22,9.43-44.46,0c0,0-6.94-54.42-13.59-64.06L44.11,28.79S67.67,20,71.81,18.62C77,16.82,81.56,9.89,81.56,9.89Z"/><path class="cls-8" d="M62.22,22.91s-14.65,2.16-18.11,5.88-11.86,74-11.86,74-7.16,19.86-5.68,55.59a24.31,24.31,0,0,0,15.56,3.32s8.67-54.19,8.54-58.16c0,0,8.51-23.09,8.26-25.57,0,0,3,27.58,1,34.51s-13.56,41-14.08,55.83,5.8,75.94,5.8,75.94,18.15,18.6,27.05,20.11l8.46-158.59L71.81,18.62Z"/><path class="cls-9" d="M79.28,12.79S62.54,16.28,62.22,22.91s24.93,82.82,24.93,82.82Z"/><path class="cls-8" d="M122.78,22.82S137.43,25,140.89,28.7s11.86,74,11.86,74,7.16,19.85,5.68,55.59a24.38,24.38,0,0,1-15.56,3.32s-8.67-54.2-8.54-58.17c0,0-8.51-23.08-8.26-25.56,0,0-3,27.58-1,34.51s13.56,41,14.08,55.83-5.8,75.94-5.8,75.94-18.15,18.6-27.05,20.1L97.85,105.64l15.34-87.11Z"/><path class="cls-9" d="M105.23,12.7S122,16.19,122.29,22.82s-24.44,82.82-24.44,82.82Z"/><ellipse class="cls-9" cx="103.7" cy="107.91" rx="2.17" ry="2.18"/><path class="cls-7" d="M82.46,3.5s-9.81,3-7.78,13.62,33.11,4.95,33.11,4.95,6.86-18.08-6-18.57C101.79,3.5,93.15,10,82.46,3.5Z"/><path class="cls-10" d="M80.08,22.2a17.52,17.52,0,0,0,16,2.95S85.68,31.36,80.08,22.2Z"/><path class="cls-10" d="M105.87,4.51S95.55,11.84,90.08,9.89C90.08,9.89,104.4,12.24,105.87,4.51Z"/></g></g></g></g></svg>