<svg xmlns="http://www.w3.org/2000/svg" viewBox="0 0 267.75 787.15"><defs><style>.cls-1{fill:#262626;}.cls-2{fill:#777;}.cls-3{fill:#4f4f4f;}.cls-4{fill:#1d2228;}.cls-5{fill:#707070;}.cls-6{fill:#7c4f4a;}.cls-7{fill:#b9aaba;}.cls-8{fill:#a999aa;}.cls-9{fill:#6d413d;}</style></defs><title>snbg2</title><g id="Layer_2" data-name="Layer 2"><g id="snbg2"><g id="snbg2-2" data-name="snbg2"><g id="dressshoes_girl" data-name="dressshoes girl"><path class="cls-1" d="M99.43,732.2s1.86,34.45,12.11,34.95,20.2-36.22,20.2-36.22-1.56,18.14,0,22.72,1.71,22.31-.49,25.53-23,8-26.45,8-17.1-5.94-17.8-11,7.55-9.53,7.55-14.53S99.43,732.2,99.43,732.2Z"/><path class="cls-2" d="M93,769.9s-.93,11,12.25,12.75C105.29,782.65,90.8,784.65,93,769.9Z"/><path class="cls-1" d="M167.29,733.65s-2.79,33-13,33.5-21.53-36.22-21.53-36.22,2.88,18.14,1.34,22.72-3.86,22.73-1.65,26,25.09,7.55,28.59,7.55,17.09-5.94,17.8-11-6.55-9.53-6.55-14.53S167.29,733.65,167.29,733.65Z"/><path class="cls-2" d="M172.75,769.9s.93,11-12.25,12.75C160.5,782.65,175,784.65,172.75,769.9Z"/></g><g id="snbgpants"><g id="rbgpants2"><path class="cls-3" d="M69.13,239.28s68.58,30,128.79-.66c0,0,17.3,28,20.07,63,2.49,31.44,4.5,90.5-23.5,189.5,0,0-8.28,41.75-.28,70,0,0,6.4,46.54-15.16,104.54l-10.27,34.45s-6.68,2.55-12.57,2.55-16.33-6.33-16.33-6.33-12.34-115.67-3.56-142.67c6.48-19.93-1.44-63.5.36-102s0-90.5,0-90.5l-4.75.5-3.44,143s-1.5,23-1.5,29.5,6.07,46,4.94,55.5-4.39,106.33-4.39,106.33-9.16,6.67-13.66,6.67-18-2.33-18-2.33-8.39-50.17-14.39-65.67-12.5-71.5-5-109-18-63.5-23.5-114S33.65,282.22,69.13,239.28Z"/><circle class="cls-4" cx="135.84" cy="266.26" r="4.63"/><path class="cls-5" d="M98.71,256.23s-6,27.29-41.89,24.06C56.82,280.29,85,281.43,98.71,256.23Z"/><path class="cls-5" d="M170.11,256.22s3.35,27.81,42.36,28.71C212.47,284.93,181.93,282.83,170.11,256.22Z"/><path class="cls-5" d="M124,290.61s-3.75,56,5.25,59C129.24,349.61,121.49,334.36,124,290.61Z"/><rect class="cls-5" x="108.04" y="257.86" width="4.01" height="15.47" rx="1.31" ry="1.31"/><rect class="cls-5" x="159.87" y="257.86" width="4.01" height="15.47" rx="1.31" ry="1.31"/></g><path class="cls-5" d="M98.21,691.94s4.61,5,22.67,0C120.88,691.94,106.21,701.28,98.21,691.94Z"/><path class="cls-5" d="M151.21,696.09s15.68,1.11,18-2.07C169.21,694,163.06,700.92,151.21,696.09Z"/></g><g id="snbgshirt"><path class="cls-6" d="M114.72,13.87s21.59,10.58,44.83,0c0,0,4.87,15.41,14.31,19.31s50,8.48,56,19.27-32.31,97.79-32.31,97.79L182.91,264.45s-47,19-90,0c0,0-14.06-109.64-27.53-129.07L38.91,52S86.61,34.3,95,31.45C105.58,27.83,114.72,13.87,114.72,13.87Z"/><path class="cls-7" d="M72.57,39.09S42.91,43.45,35.91,51s-24,149-24,149S-2.59,240,.41,312c0,0,14.15,9.29,31.5,6.67,0,0,17.54-109.17,17.27-117.17,0,0,17.23-46.5,16.73-51.5,0,0,6,55.55,2,69.53S40.46,302,39.41,332,51.16,485,51.16,485s36.73,37.47,54.75,40.5L123,206,92,30.45Z"/><path class="cls-8" d="M107.11,18.71s-33.88,7-34.54,20.38S123,206,123,206Z"/><path class="cls-7" d="M195.18,38.91s29.66,4.35,36.66,11.85,24,149,24,149,14.5,40,11.5,112c0,0-14.15,9.29-31.5,6.68,0,0-17.55-109.18-17.27-117.18,0,0-17.23-46.5-16.73-51.5,0,0-6,55.56-2,69.53s27.45,82.55,28.5,112.47-11.75,153-11.75,153-36.73,37.47-54.75,40.5l-17.13-319.5,31.06-175.5Z"/><path class="cls-8" d="M159.64,18.52s33.88,7,34.54,20.39-49.47,166.85-49.47,166.85Z"/><circle class="cls-8" cx="156.55" cy="210.34" r="4.39"/><path class="cls-6" d="M113.55,0S93.69,5.93,97.8,27.44s67,10,67,10S178.73,1,152.69,0C152.69,0,135.19,13.05,113.55,0Z"/><path class="cls-9" d="M108.72,37.66s12.8,11.52,32.49,6C141.21,43.61,120.07,56.11,108.72,37.66Z"/><path class="cls-9" d="M160.93,2s-20.88,14.76-32,10.84C129,12.87,158,17.59,160.93,2Z"/></g></g></g></g></svg>