<?xml version="1.0" encoding="utf-8"?>
<!-- Generator: Adobe Illustrator 22.1.0, SVG Export Plug-In . SVG Version: 6.00 Build 0)  -->
<svg version="1.1" id="Layer_1" xmlns="http://www.w3.org/2000/svg" xmlns:xlink="http://www.w3.org/1999/xlink" x="0px" y="0px"
	 viewBox="0 0 183 415" style="enable-background:new 0 0 183 415;" xml:space="preserve">
<style type="text/css">
	.st0{fill:#262626;}
	.st1{fill:#777777;}
	.st2{fill:#4F4F4F;}
	.st3{fill:#1D2228;}
	.st4{fill:#707070;}
	.st5{fill:#7C4F4A;}
	.st6{fill:#B9AABA;}
	.st7{fill:#A999AA;}
	.st8{fill:#6D413D;}
</style>
<title>snbg2</title>
<g id="Layer_2_1_">
	<g id="snbg2">
		<g id="snbg2-2">
			<g id="dressshoes_girl">
				<path class="st0" d="M76.5,368.6c0,0,0.9,17.1,6,17.4s10-18,10-18s-0.8,9,0,11.3s0.8,11.1-0.2,12.7s-11.3,4-13.1,4
					s-8.4-3-8.8-5.5s3.7-4.7,3.7-7.2S76.5,368.6,76.5,368.6z"/>
				<path class="st1" d="M73.3,387.3c0,0-0.5,5.5,6,6.3C79.4,393.6,72.2,394.6,73.3,387.3z"/>
				<path class="st0" d="M110,369.3c0,0-1.4,16.4-6.4,16.6s-10.6-18-10.6-18s1.4,9,0.7,11.3s-1.9,11.3-0.8,12.9s12.4,3.8,14.1,3.8
					s8.4-3,8.8-5.5s-3.2-4.7-3.2-7.2S110,369.3,110,369.3z"/>
				<path class="st1" d="M112.7,387.3c0,0,0.5,5.5-6,6.3C106.7,393.6,113.8,394.6,112.7,387.3z"/>
			</g>
			<g id="snbgpants">
				<g id="rbgpants2">
					<path class="st2" d="M60.5,132.9c0,0,33.9,14.9,63.6-0.3c5.5,9.6,8.9,20.3,9.9,31.3c1.2,15.6,2.2,44.9-11.6,94.1
						c0,0-4.1,20.7-0.1,34.7c0,0,3.2,23.1-7.5,51.9l-5.1,17.1c-2,0.7-4.1,1.2-6.2,1.3c-2.9,0-8.1-3.1-8.1-3.1s-6.1-57.4-1.8-70.8
						c3.2-9.9-0.7-31.5,0.2-50.6s0-44.9,0-44.9l-2.3,0.2l-1.7,71c0,0-0.7,11.4-0.7,14.6s3,22.8,2.4,27.5s-2.2,52.8-2.2,52.8
						s-4.5,3.3-6.8,3.3s-8.9-1.1-8.9-1.1s-4.1-24.9-7.1-32.6s-6.2-35.5-2.5-54.1c3.7-18.6-8.9-31.5-11.6-56.6S43,154.2,60.5,132.9z"
						/>
					<ellipse class="st3" cx="93.5" cy="146.3" rx="2.3" ry="2.3"/>
					<path class="st4" d="M75.1,141.3c0,0-3,13.5-20.7,11.9C54.4,153.3,68.4,153.8,75.1,141.3z"/>
					<path class="st4" d="M110.4,141.3c0,0,1.7,13.8,20.9,14.2C131.3,155.6,116.2,154.5,110.4,141.3z"/>
					<path class="st4" d="M87.6,158.4c0,0-1.9,27.8,2.6,29.3C90.2,187.7,86.4,180.1,87.6,158.4z"/>
					<path class="st4" d="M80.7,142.1L80.7,142.1c0.5,0,1,0.4,1,1v5.7c0,0.5-0.4,1-1,1l0,0c-0.5,0-1-0.4-1-1v-5.7
						C79.7,142.6,80.2,142.1,80.7,142.1z"/>
					<path class="st4" d="M106.3,142.1L106.3,142.1c0.5,0,1,0.4,1,1v5.7c0,0.5-0.4,1-1,1l0,0c-0.5,0-1-0.4-1-1v-5.7
						C105.3,142.6,105.8,142.1,106.3,142.1z"/>
				</g>
				<path class="st4" d="M74.9,357.6c0,0,2.3,2.5,11.2,0C86.1,357.6,78.8,362.2,74.9,357.6z"/>
				<path class="st4" d="M101.1,359.7c0,0,7.8,0.5,8.9-1C110,358.6,106.9,362.1,101.1,359.7z"/>
			</g>
			<g id="snbgshirt">
				<path class="st5" d="M83,10c0,0,10.7,5.2,22.1,0c0,0,2.4,7.6,7.1,9.6s24.7,4.2,27.7,9.6s-16,48.5-16,48.5l-7.2,56.7
					c0,0-23.2,9.4-44.5,0c0,0-7-54.4-13.6-64.1l-13-41.4c0,0,23.6-8.8,27.7-10.2C78.5,17,83,10,83,10z"/>
				<path class="st6" d="M62.2,22.6c0,0-14.7,2.2-18.1,5.9s-11.9,74-11.9,74s-7.2,19.8-5.7,55.6c4.7,2.8,10.1,4,15.6,3.3
					c0,0,8.7-54.2,8.5-58.2c0,0,8.5-23.1,8.3-25.6c0,0,3,27.6,1,34.5s-13.6,41-14.1,55.8s5.8,75.9,5.8,75.9s18.1,18.6,27,20.1
					l8.5-158.6l-15.3-87L62.2,22.6z"/>
				<path class="st7" d="M79.3,12.4c0,0-16.7,3.5-17.1,10.1s24.9,82.8,24.9,82.8L79.3,12.4z"/>
				<path class="st6" d="M122.8,22.5c0,0,14.6,2.2,18.1,5.9s11.9,74,11.9,74s7.2,19.8,5.7,55.6c-4.7,2.8-10.1,4-15.6,3.3
					c0,0-8.7-54.2-8.5-58.2c0,0-8.5-23.1-8.3-25.6c0,0-3,27.6-1,34.5s13.6,41,14.1,55.8s-5.8,75.9-5.8,75.9s-18.2,18.6-27.1,20.1
					l-8.4-158.5l15.3-87.1L122.8,22.5z"/>
				<path class="st7" d="M105.2,12.3c0,0,16.8,3.5,17.1,10.1s-24.4,82.8-24.4,82.8L105.2,12.3z"/>
				<ellipse class="st7" cx="103.7" cy="107.6" rx="2.2" ry="2.2"/>
				<path class="st5" d="M82.5,3.1c0,0-9.8,3-7.8,13.6s33.1,5,33.1,5s6.9-18.1-6-18.6C101.8,3.1,93.2,9.6,82.5,3.1z"/>
				<path class="st8" d="M80.1,21.8c4.5,3.6,10.5,4.7,16,3C96.1,24.8,85.7,31,80.1,21.8z"/>
				<path class="st8" d="M105.9,4.2c0,0-10.3,7.3-15.8,5.4C90.1,9.5,104.4,11.9,105.9,4.2z"/>
			</g>
		</g>
	</g>
</g>
</svg>
