<svg xmlns="http://www.w3.org/2000/svg" viewBox="0 0 183 415"><defs><style>.cls-1{fill:none;}.cls-2{fill:#262626;}.cls-3{fill:#777;}.cls-4{fill:#4f4f4f;}.cls-5{fill:#1d2228;}.cls-6{fill:#707070;}.cls-7{fill:#7c4f4a;}.cls-8{fill:#b9aaba;}.cls-9{fill:#a999aa;}.cls-10{fill:#6d413d;}</style></defs><title>snbg2</title><g id="Layer_2" data-name="Layer 2"><g id="snbg2"><g id="snbg2-2" data-name="snbg2"><rect class="cls-1" width="183" height="415"/><g id="dressshoes_girl" data-name="dressshoes girl"><path class="cls-2" d="M75.49,368.58s.91,17.1,6,17.35,10-18,10-18-.77,9,0,11.28.85,11.07-.24,12.67-11.34,4-13.07,4-8.44-2.95-8.79-5.45,3.73-4.73,3.73-7.21S75.49,368.58,75.49,368.58Z"/><path class="cls-3" d="M72.33,387.29s-.46,5.47,6,6.33C78.38,393.62,71.23,394.62,72.33,387.29Z"/><path class="cls-2" d="M109,369.3s-1.37,16.38-6.43,16.63-10.64-18-10.64-18,1.42,9,.66,11.28-1.9,11.28-.81,12.88,12.39,3.75,14.12,3.75,8.44-2.95,8.79-5.45-3.23-4.73-3.23-7.21S109,369.3,109,369.3Z"/><path class="cls-3" d="M111.7,387.29s.46,5.47-6,6.33C105.65,393.62,112.81,394.62,111.7,387.29Z"/></g><g id="snbgpants"><g id="rbgpants2"><path class="cls-4" d="M60.52,125.91s33.87,14.87,63.62-.32a78.21,78.21,0,0,1,9.91,31.26c1.23,15.61,2.22,44.92-11.61,94.06,0,0-4.09,20.72-.14,34.73,0,0,3.16,23.1-7.49,51.89l-5.07,17.1a20.63,20.63,0,0,1-6.21,1.26c-2.9,0-8.06-3.14-8.06-3.14s-6.1-57.41-1.76-70.81c3.2-9.9-.71-31.52.18-50.63s0-44.92,0-44.92l-2.35.24-1.7,71S89.1,269,89.1,272.26s3,22.84,2.44,27.54-2.17,52.78-2.17,52.78-4.52,3.31-6.75,3.31-8.89-1.15-8.89-1.15-4.14-24.91-7.11-32.6-6.17-35.49-2.47-54.1-8.89-31.52-11.6-56.59S43,147.23,60.52,125.91Z"/><ellipse class="cls-5" cx="93.47" cy="139.3" rx="2.28" ry="2.3"/><path class="cls-6" d="M75.13,134.33s-3,13.54-20.69,11.94C54.44,146.27,68.38,146.84,75.13,134.33Z"/><path class="cls-6" d="M110.4,134.32s1.65,13.8,20.92,14.25C131.32,148.57,116.24,147.53,110.4,134.32Z"/><path class="cls-6" d="M87.62,151.39s-1.86,27.8,2.59,29.29C90.21,180.68,86.38,173.11,87.62,151.39Z"/><rect class="cls-6" x="79.74" y="135.13" width="1.98" height="7.68" rx="0.99" ry="0.99"/><rect class="cls-6" x="105.34" y="135.13" width="1.98" height="7.68" rx="0.99" ry="0.99"/></g><path class="cls-6" d="M74.88,350.6s2.28,2.5,11.2,0C86.08,350.6,78.84,355.23,74.88,350.6Z"/><path class="cls-6" d="M101.06,352.66s7.75.55,8.89-1C110,351.63,106.91,355.06,101.06,352.66Z"/></g><g id="snbgshirt"><path class="cls-7" d="M83,7s10.66,5.25,22.14,0c0,0,2.41,7.65,7.07,9.58s24.68,4.21,27.66,9.57-16,48.53-16,48.53l-7.23,56.69s-23.21,9.44-44.45,0c0,0-7-54.41-13.6-64.06L45.59,25.93s23.57-8.76,27.7-10.18C78.52,14,83,7,83,7Z"/><path class="cls-8" d="M62.22,19.55s-14.65,2.16-18.11,5.88-11.86,74-11.86,74S25.09,119.24,26.57,155a24.38,24.38,0,0,0,15.56,3.32s8.67-54.19,8.54-58.17c0,0,8.51-23.08,8.26-25.56,0,0,3,27.58,1,34.51s-13.56,41-14.08,55.83,5.8,75.94,5.8,75.94S69.79,259.45,78.69,261l8.46-158.59L71.81,15.26Z"/><path class="cls-9" d="M79.28,9.43S62.54,12.92,62.22,19.55s24.93,82.82,24.93,82.82Z"/><path class="cls-8" d="M122.78,19.45s14.65,2.17,18.11,5.89,11.86,74,11.86,74,7.16,19.85,5.68,55.59a24.34,24.34,0,0,1-15.56,3.31S134.2,104,134.33,100c0,0-8.51-23.08-8.26-25.56,0,0-3,27.58-1,34.51s13.56,41,14.08,55.83-5.8,75.94-5.8,75.94-18.15,18.6-27.05,20.1L97.85,102.28l15.34-87.12Z"/><path class="cls-9" d="M105.23,9.34S122,12.83,122.29,19.45s-24.44,82.83-24.44,82.83Z"/><ellipse class="cls-9" cx="103.7" cy="104.55" rx="2.17" ry="2.18"/><path class="cls-7" d="M82.46.14s-9.81,2.95-7.78,13.62,33.11,5,33.11,5,6.86-18.08-6-18.57C101.79.14,93.15,6.62,82.46.14Z"/><path class="cls-10" d="M80.08,18.83a17.54,17.54,0,0,0,16,3S85.68,28,80.08,18.83Z"/><path class="cls-10" d="M105.87,1.15S95.55,8.48,90.08,6.53C90.08,6.53,104.4,8.88,105.87,1.15Z"/></g></g></g></g></svg>