<svg xmlns="http://www.w3.org/2000/svg" viewBox="0 0 183 415"><defs><style>.cls-1{fill:none;}.cls-2{fill:#605440;}.cls-3{fill:#473e31;}.cls-4{fill:#383229;}.cls-5{fill:#564b3b;}.cls-6{fill:#3b313f;}.cls-7{fill:#c9b0cc;}.cls-8{fill:#b19cb5;}.cls-9{fill:#ceb8d1;}.cls-10{fill:#999;}.cls-11{fill:#353535;}.cls-12{fill:#474747;}.cls-13{fill:#515151;}.cls-14{fill:#5b5b5b;}.cls-15{fill:#282828;}.cls-16{fill:#6b6b6b;}.cls-17{fill:#020202;}</style></defs><title>sncg</title><g id="Layer_2" data-name="Layer 2"><g id="sncg"><g id="sncg-2" data-name="sncg"><rect class="cls-1" width="183" height="415"/><g id="sncgpants"><g id="ccgpants2"><path class="cls-2" d="M61.17,117.77s22.29,16.62,62.47,0c0,0,7.76,15.26,9.86,25.36s3.7,51.13-11.78,103.94c0,0-.11,8.2-1.72,13.86,0,0,7.22,28.64-9.27,78.37l-2.37,17.77s-11,2-14.49-.73c0,0,1.31-11.79-1.66-43.18,0,0,.93-23.31,2.4-32.65a131.69,131.69,0,0,0,1.56-18.71s-4.72-29.1-2.11-80.18c0,0-.51.8-3.7.42,0,0,2.65,11.74-1.94,80.93,0,0,1.78,14.15,2.64,17.54.68,2.69,1.82,21.86-.41,34.05s0,42.15,0,42.15-10.19,2.83-15,.12c0,0-3.65-15.68-8.95-37.64-5.21-21.62-3.4-47.67-3.4-47.67S66,247.76,63,240.13,52.38,193.6,51.51,184.61,44.88,141.77,61.17,117.77Z"/><path class="cls-3" d="M109.56,135.56s4.08,12,21.23,11.63C130.79,147.19,112.5,151.5,109.56,135.56Z"/><path class="cls-3" d="M75.75,135.56s-4,12-21,11.63C54.76,147.19,72.84,151.5,75.75,135.56Z"/></g><ellipse class="cls-3" cx="91.97" cy="131.7" rx="2.76" ry="2.78"/><path class="cls-4" d="M92,129.3s-3.56,3,.64,4.26C92.61,133.56,87.44,133.22,92,129.3Z"/><path class="cls-5" d="M88.16,136.53s-.12,21.78,0,25.91,8.94,4.43,8.85,0c0,0-4.91,5.05-7.8,0V137Z"/><rect class="cls-5" x="77.83" y="126.79" width="1.48" height="8.78" rx="0.74" ry="0.74"/><rect class="cls-5" x="103.28" y="126.79" width="1.37" height="8.78" rx="0.68" ry="0.68"/></g><g id="sncgshirt"><path class="cls-6" d="M82,4.38s10.21,4.46,20.09,0c0,0,3.84-1.33,3.15,8.6,0,0,5.24,7.94,26.15,11.09l-13.62,96.21s-27,14.64-54.13,0L58.12,23.37S79.4,15.79,79.4,12.82,78.57,5.12,82,4.38Z"/><path class="cls-7" d="M79.81,6.19S71.9,7.53,71.7,9.3a14.56,14.56,0,0,0,.79,4.76s-25.2,6.45-30.14,13.65S34,44.83,37.16,55.5c0,0-12.59,13.86-3.45,30.76,0,0-13.42,13.67-5.6,35.76,0,0-7.58,12.65,0,25.81v10.42s3.45,3,10.45,0l3.3-10.67s8.89-15.39,5.92-24.82c0,0,7.91-15.14,7.41-30.28,0,0,4.71-1.74,5.94-19.36,0,0-4.46,27.33,1.72,34l-2.72,10.41s10.13,8.57,22,11.75L86,10.58S86.19,8.35,79.81,6.19Z"/><path class="cls-7" d="M103.19,6.19s7.91,1.34,8.11,3.11a14.56,14.56,0,0,1-.79,4.76s25.2,6.45,30.14,13.65,8.4,17.12,5.19,27.79c0,0,12.59,13.86,3.45,30.76,0,0,13.42,13.67,5.6,35.76,0,0,7.58,12.65,0,25.81v10.42s-3.45,3-10.45,0l-3.3-10.67s-8.89-15.39-5.92-24.82c0,0-7.91-15.14-7.41-30.28,0,0-4.71-1.74-5.94-19.36,0,0,4.46,27.33-1.72,34l2.72,10.41s-10.13,8.57-22,11.75L97,10.58S96.81,8.35,103.19,6.19Z"/><path class="cls-8" d="M62.11,48.55S64.17,55.34,80,55.34C80,55.34,63.84,58.81,62.11,48.55Z"/><path class="cls-8" d="M62.76,79.2S64.82,86,80.63,86C80.63,86,64.49,89.46,62.76,79.2Z"/><path class="cls-8" d="M63.55,105.82s2.06,6.78,17.87,6.78C81.42,112.6,65.28,116.08,63.55,105.82Z"/><path class="cls-8" d="M121.48,48s-2.06,6.78-17.86,6.78C103.62,54.73,119.75,58.21,121.48,48Z"/><path class="cls-8" d="M120.83,78.6s-2.06,6.78-17.87,6.78C103,85.38,119.1,88.86,120.83,78.6Z"/><path class="cls-8" d="M120,105.22S118,112,102.17,112C102.17,112,118.31,115.48,120,105.22Z"/><path class="cls-8" d="M73.72,16a8.76,8.76,0,0,0,8.89,3.88h0S75,18,73.72,16Z"/><path class="cls-8" d="M99.4,19.92s8.73-.82,9.55-5C109,15,108.62,21.24,99.4,19.92Z"/><path class="cls-8" d="M38.4,46.57A14.58,14.58,0,0,0,48.52,61.21S39.66,54.52,38.4,46.57Z"/><path class="cls-8" d="M32,72.94A14.58,14.58,0,0,0,42.14,87.58S33.28,80.89,32,72.94Z"/><path class="cls-8" d="M26.94,106.46A14.58,14.58,0,0,0,37.06,121.1S28.2,114.41,26.94,106.46Z"/><path class="cls-8" d="M25.84,135.67a12.85,12.85,0,0,0,8.92,12.9S27,142.67,25.84,135.67Z"/><path class="cls-8" d="M144.45,46.57a14.58,14.58,0,0,1-10.13,14.64S143.19,54.52,144.45,46.57Z"/><path class="cls-8" d="M150.84,72.94a14.6,14.6,0,0,1-10.13,14.64S149.57,80.89,150.84,72.94Z"/><path class="cls-8" d="M155.91,106.46a14.58,14.58,0,0,1-10.13,14.64S154.65,114.41,155.91,106.46Z"/><path class="cls-8" d="M157,135.67a12.85,12.85,0,0,1-8.92,12.9S155.9,142.67,157,135.67Z"/><path class="cls-9" d="M54.21,31.43A24.52,24.52,0,0,0,75.69,42.6s-4.22-11.17,1.84-13.9C77.53,28.7,63.34,20.76,54.21,31.43Z"/><path class="cls-9" d="M127.8,31.43A22.32,22.32,0,0,1,108.09,42.6S112,31.43,106.4,28.7C106.4,28.7,119.42,20.76,127.8,31.43Z"/><polygon class="cls-10" points="85.98 10.58 80.63 128.86 82.11 129.29 86.95 13.31 85.98 10.58"/></g><g id="snowShoes"><path class="cls-11" d="M71.53,337.51l4.61,21.14s-3.62,16.16-1.15,21c0,0-5.72,7.5-4.18,9.16s1.22,3.58,7.47,3.41a69.26,69.26,0,0,0,14.06-2.38s.85-7.81-1-12.31l1-12.64L90.3,334.93A33.24,33.24,0,0,1,71.53,337.51Z"/><path class="cls-12" d="M75.71,378.54s-8.45,9.25-5,12,4,5.49,22.25.45L92,379s-.4,9.77-1.63,10.67-10.86,3-14.57,1.68-7-1.79-.1-12.84"/><path class="cls-13" d="M77.05,378.54s5.55-5.94,12,0C89,378.54,82.41,369.38,77.05,378.54Z"/><path class="cls-14" d="M70.05,387.08s-1,3.46-.47,5.41l1,1.05.5-1.35.74.49V394a6.07,6.07,0,0,0,3.77,1.24v-1l1.48.06v1.24s4.81.44,5.18-.62v-.68L83,394l.37,1s3.27.25,4.13-1V393l1.49-.44v1s3.14.27,4.13-1.35L92.74,390S73.71,399.69,70.05,387.08Z"/><path class="cls-15" d="M76.72,337.92A8.43,8.43,0,0,1,86,336.55h0L87,374.89s-4.53-3.62-8.48,0c0,0,.66-20.74-1.81-37"/><path class="cls-16" d="M74,384.4s-3.21,5.63,6.59,5.46C80.59,389.86,73.33,388.56,74,384.4Z"/><polygon class="cls-17" points="76.37 338.57 81.54 340.68 86.6 337.02 86.6 338.14 82.23 341.68 86.93 343.23 86.6 344.28 81.54 342.05 77.05 345.03 76.72 344.22 81.06 341.43 76.37 339.32 76.37 338.57"/><polygon class="cls-17" points="76.72 345.96 81.89 348.07 86.95 344.4 86.95 345.52 82.58 349.06 87.28 350.61 86.95 351.67 81.89 349.43 77.4 352.41 77.07 351.6 81.41 348.81 76.72 346.7 76.72 345.96"/><polygon class="cls-17" points="77.2 353.22 82.38 355.32 87.44 351.67 87.44 352.78 83.07 356.32 87.76 357.87 87.44 358.92 82.38 356.69 77.88 359.67 77.55 358.86 81.9 356.07 77.2 353.96 77.2 353.22"/><polygon class="cls-17" points="77.2 360.48 82.38 362.58 87.44 358.92 87.44 360.04 83.07 363.58 87.76 365.13 87.44 366.18 82.38 363.95 77.88 366.93 77.55 366.12 81.9 363.33 77.2 361.22 77.2 360.48"/><polygon class="cls-17" points="77.2 367.86 82.38 369.97 87.44 366.31 87.44 367.42 83.07 370.96 87.76 372.51 87.44 373.57 82.38 371.33 77.88 374.31 77.55 373.5 81.9 370.71 77.2 368.6 77.2 367.86"/><rect class="cls-16" x="81.82" y="389.2" width="1.89" height="0.67" rx="0.33" ry="0.33"/><path class="cls-11" d="M113,335.76l-4.61,21.14s3.62,16.16,1.15,21c0,0,5.72,7.51,4.18,9.16s-1.22,3.58-7.47,3.41a53.81,53.81,0,0,1-13.07-2.38s-1.84-7.81,0-12.31l-1-12.64,1.57-29.91A35.62,35.62,0,0,0,113,335.76Z"/><path class="cls-12" d="M108.82,376.8s8.45,9.25,5,12-3.47,5.48-21.75.45l.43-12s.4,9.78,1.62,10.67,10.87,3,14.58,1.69,7-1.8.1-12.84"/><path class="cls-13" d="M107.48,376.8s-5.56-5.94-12,0C95.5,376.8,102.12,367.63,107.48,376.8Z"/><path class="cls-14" d="M114.48,385.34s1,3.45.47,5.4l-1,1.05-.49-1.35-.74.49v1.37a6.07,6.07,0,0,1-3.77,1.24v-1l-1.48.07v1.24s-4.81.43-5.18-.62v-.69l-.81-.24-.37,1s-3.27.25-4.13-1v-1.06l-1.49-.43v1a3.39,3.39,0,0,1-3.14-1.35l-.08-2.18S110.82,397.94,114.48,385.34Z"/><path class="cls-15" d="M107.81,336.18a8.42,8.42,0,0,0-9.23-1.38h0l-1.06,38.34s4.53-3.62,8.48,0c0,0-.66-20.74,1.81-37"/><path class="cls-16" d="M110.53,382.66s3.21,5.62-6.59,5.46C103.94,388.12,111.2,386.82,110.53,382.66Z"/><polygon class="cls-17" points="108.16 336.83 102.99 338.94 97.93 335.28 97.93 336.39 102.3 339.93 97.6 341.48 97.93 342.54 102.99 340.3 107.48 343.28 107.81 342.47 103.47 339.68 108.16 337.57 108.16 336.83"/><polygon class="cls-17" points="107.81 344.21 102.64 346.32 97.58 342.66 97.58 343.78 101.95 347.31 97.25 348.86 97.58 349.92 102.64 347.69 107.13 350.66 107.46 349.86 103.12 347.06 107.81 344.96 107.81 344.21"/><polygon class="cls-17" points="107.32 351.47 102.15 353.58 97.09 349.92 97.09 351.04 101.46 354.57 96.77 356.12 97.09 357.18 102.15 354.94 106.64 357.92 106.98 357.12 102.63 354.32 107.32 352.21 107.32 351.47"/><polygon class="cls-17" points="107.32 358.73 102.15 360.84 97.09 357.18 97.09 358.3 101.46 361.83 96.77 363.38 97.09 364.44 102.15 362.2 106.64 365.18 106.98 364.38 102.63 361.58 107.32 359.47 107.32 358.73"/><polygon class="cls-17" points="107.32 366.11 102.15 368.22 97.09 364.56 97.09 365.68 101.46 369.21 96.77 370.77 97.09 371.82 102.15 369.59 106.64 372.57 106.98 371.76 102.63 368.97 107.32 366.86 107.32 366.11"/><rect class="cls-16" x="100.81" y="387.46" width="1.89" height="0.67" rx="0.33" ry="0.33" transform="translate(203.52 775.58) rotate(180)"/></g></g></g></g></svg>