<svg xmlns="http://www.w3.org/2000/svg" viewBox="0 0 270.3 818.68"><defs><style>.cls-1{fill:#605440;}.cls-2{fill:#473e31;}.cls-3{fill:#383229;}.cls-4{fill:#564b3b;}.cls-5{fill:#3b313f;}.cls-6{fill:#c9b0cc;}.cls-7{fill:#b19cb5;}.cls-8{fill:#ceb8d1;}.cls-9{fill:#999;}.cls-10{fill:#353535;}.cls-11{fill:#474747;}.cls-12{fill:#515151;}.cls-13{fill:#5b5b5b;}.cls-14{fill:#282828;}.cls-15{fill:#6b6b6b;}.cls-16{fill:#020202;}</style></defs><title>sncg</title><g id="Layer_2" data-name="Layer 2"><g id="sncg"><g id="sncg-2" data-name="sncg"><g id="sncgpants"><g id="ccgpants2"><path class="cls-1" d="M73.74,228.57s45.14,33.48,126.49,0c0,0,15.69,30.75,20,51.09s7.5,103-23.84,209.41c0,0-.23,16.51-3.49,27.92,0,0,14.61,57.68-18.77,157.88l-4.8,35.81s-22.31,4-29.33-1.49c0,0,2.65-23.75-3.37-87,0,0,1.89-47,4.87-65.78a262.87,262.87,0,0,0,3.15-37.69s-9.54-58.62-4.28-161.54c0,0-1,1.62-7.48.86,0,0,5.36,23.66-3.92,163,0,0,3.59,28.52,5.34,35.34,1.38,5.42,3.68,44.06-.83,68.61s0,84.91,0,84.91-20.63,5.71-30.41.26c0,0-7.39-31.59-18.11-75.83-10.55-43.57-6.89-96-6.89-96s5.51-47.86-.5-63.24S56,381.34,54.2,363.23,40.76,276.93,73.74,228.57Z"/><path class="cls-2" d="M171.71,264.41s8.26,24.09,43,23.43C214.69,287.84,177.66,296.53,171.71,264.41Z"/><path class="cls-2" d="M103.26,264.41s-8.17,24.09-42.49,23.43C60.77,287.84,97.37,296.53,103.26,264.41Z"/></g><circle class="cls-2" cx="136.1" cy="256.62" r="5.6"/><path class="cls-3" d="M136.1,251.78s-7.2,6.09,1.3,8.59C137.4,260.37,126.93,259.7,136.1,251.78Z"/><path class="cls-4" d="M128.4,266.37s-.25,43.87,0,52.18,18.08,8.94,17.91,0c0,0-9.94,10.19-15.8,0V267.37Z"/><rect class="cls-4" x="107.48" y="246.73" width="3" height="17.68" rx="1.5" ry="1.5"/><rect class="cls-4" x="158.99" y="246.73" width="2.77" height="17.68" rx="1.38" ry="1.38"/></g><g id="sncgshirt"><path class="cls-5" d="M115.81.12s20.68,9,40.68,0c0,0,7.78-2.67,6.39,17.33,0,0,10.6,16,52.93,22.33L188.22,233.62s-54.57,29.5-109.57,0L67.58,38.38s43.07-15.26,43.07-21.26S109,1.62,115.81.12Z"/><path class="cls-6" d="M111.48,3.76s-16,2.7-16.42,6.28,1.6,9.58,1.6,9.58-51,13-61,27.5-17,34.5-10.5,56c0,0-25.5,27.92-7,62,0,0-27.17,27.54-11.34,72,0,0-15.33,25.5,0,52v21s7,6,21.17,0l6.67-21.5s18-31,12-50c0,0,16-30.5,15-61,0,0,9.52-3.5,12-39,0,0-9,55.06,3.49,68.53l-5.5,21s20.5,17.28,44.5,23.66L124,12.62S124.4,8.12,111.48,3.76Z"/><path class="cls-6" d="M158.82,3.76s16,2.7,16.42,6.28-1.6,9.58-1.6,9.58,51,13,61,27.5,17,34.5,10.5,56c0,0,25.5,27.92,7,62,0,0,27.17,27.54,11.34,72,0,0,15.33,25.5,0,52v21s-7,6-21.17,0l-6.67-21.5s-18-31-12-50c0,0-16-30.5-15-61,0,0-9.52-3.5-12-39,0,0,9,55.06-3.49,68.53l5.5,21s-20.5,17.28-44.5,23.66L146.32,12.62S145.9,8.12,158.82,3.76Z"/><path class="cls-7" d="M75.65,89.12s4.16,13.66,36.16,13.66C111.81,102.78,79.15,109.78,75.65,89.12Z"/><path class="cls-7" d="M77,150.87s4.16,13.67,36.16,13.67C113.14,164.54,80.48,171.54,77,150.87Z"/><path class="cls-7" d="M78.57,204.49s4.17,13.67,36.17,13.67C114.74,218.16,82.07,225.16,78.57,204.49Z"/><path class="cls-7" d="M195.85,87.9s-4.17,13.67-36.17,13.67C159.68,101.57,192.35,108.57,195.85,87.9Z"/><path class="cls-7" d="M194.52,149.65s-4.17,13.67-36.17,13.67C158.35,163.32,191,170.32,194.52,149.65Z"/><path class="cls-7" d="M192.92,203.28s-4.16,13.66-36.16,13.66C156.76,216.94,189.42,223.94,192.92,203.28Z"/><path class="cls-7" d="M99.15,23.62a17.78,17.78,0,0,0,18,7.82h0S101.64,27.62,99.15,23.62Z"/><path class="cls-7" d="M151.15,31.44s17.66-1.66,19.33-10C170.48,21.45,169.81,34.09,151.15,31.44Z"/><path class="cls-7" d="M27.65,85.12s-2,21.5,20.5,29.5C48.15,114.62,30.21,101.13,27.65,85.12Z"/><path class="cls-7" d="M14.72,138.24s-2,21.5,20.5,29.5C35.22,167.74,17.28,154.26,14.72,138.24Z"/><path class="cls-7" d="M4.45,205.77s-2,21.5,20.5,29.5C25,235.27,7,221.79,4.45,205.77Z"/><path class="cls-7" d="M2.22,264.63s-1.76,18.94,18.06,26C20.28,290.62,4.47,278.74,2.22,264.63Z"/><path class="cls-7" d="M242.35,85.12s2,21.5-20.5,29.5C221.85,114.62,239.79,101.13,242.35,85.12Z"/><path class="cls-7" d="M255.28,138.24s2,21.5-20.5,29.5C234.78,167.74,252.72,154.26,255.28,138.24Z"/><path class="cls-7" d="M265.55,205.77s2,21.5-20.5,29.5C245.05,235.27,263,221.79,265.55,205.77Z"/><path class="cls-7" d="M267.77,264.63s1.77,18.94-18,26C249.72,290.62,265.52,278.74,267.77,264.63Z"/><path class="cls-8" d="M59.65,54.62s13,23,43.5,22.5c0,0-8.55-22.5,3.73-28C106.88,49.12,78.15,33.12,59.65,54.62Z"/><path class="cls-8" d="M208.64,54.62s-11.93,23-39.91,22.5c0,0,7.84-22.5-3.42-28C165.31,49.12,191.67,33.12,208.64,54.62Z"/><polygon class="cls-9" points="123.99 12.62 113.14 250.92 116.15 251.78 125.95 18.12 123.99 12.62"/></g><g id="snowShoes"><path class="cls-10" d="M94.73,701.48l9.33,42.59s-7.33,32.56-2.33,42.22c0,0-11.59,15.13-8.46,18.46s2.46,7.21,15.12,6.88,28.46-4.81,28.46-4.81,1.71-15.73-2-24.79l2.07-25.47-4.17-60.26S115.39,705,94.73,701.48Z"/><path class="cls-11" d="M103.18,784.16S86.08,802.79,93,808.29s8,11,45,.9l-1.89-24.06s-.79,19.69-3.28,21.5-22,6-29.5,3.39-14.2-3.62-.21-25.86"/><path class="cls-12" d="M105.89,784.16s11.25-12,24.25,0C130.14,784.16,116.75,765.69,105.89,784.16Z"/><path class="cls-13" d="M91.73,801.36s-2.08,7-1,10.89l2,2.12,1-2.73,1.5,1v2.75a12.29,12.29,0,0,0,7.62,2.5v-2l3,.12v2.5s9.75.88,10.5-1.25v-1.37l1.63-.5.75,2s6.62.5,8.37-2v-2.13l3-.87v2s6.38.54,8.38-2.73l-.85-4.39S99.14,826.75,91.73,801.36Z"/><path class="cls-14" d="M105.22,702.32s8.22-7.85,18.7-2.77h0l2.14,77.24s-9.17-7.3-17.17,0c0,0,1.33-41.79-3.67-74.47"/><path class="cls-15" d="M99.73,796s-6.5,11.33,13.33,11C113.06,807,98.36,804.34,99.73,796Z"/><polygon class="cls-16" points="104.52 703.63 114.99 707.88 125.23 700.5 125.23 702.75 116.39 709.88 125.89 713 125.23 715.13 114.99 710.63 105.89 716.63 105.22 715 114.02 709.38 104.52 705.13 104.52 703.63"/><polygon class="cls-16" points="105.22 718.5 115.69 722.75 125.94 715.38 125.94 717.63 117.1 724.75 126.6 727.88 125.94 730 115.69 725.5 106.6 731.5 105.93 729.88 114.72 724.25 105.22 720 105.22 718.5"/><polygon class="cls-16" points="106.21 733.13 116.68 737.38 126.92 730 126.92 732.25 118.08 739.38 127.58 742.5 126.92 744.63 116.68 740.13 107.58 746.13 106.92 744.5 115.71 738.88 106.21 734.63 106.21 733.13"/><polygon class="cls-16" points="106.21 747.75 116.68 752 126.92 744.63 126.92 746.88 118.08 754 127.58 757.13 126.92 759.25 116.68 754.75 107.58 760.75 106.92 759.13 115.71 753.5 106.21 749.25 106.21 747.75"/><polygon class="cls-16" points="106.21 762.63 116.68 766.88 126.92 759.5 126.92 761.75 118.08 768.88 127.58 772 126.92 774.13 116.68 769.63 107.58 775.63 106.92 774 115.71 768.38 106.21 764.13 106.21 762.63"/><rect class="cls-15" x="115.56" y="805.63" width="3.83" height="1.34" rx="0.67" ry="0.67"/><path class="cls-10" d="M178.67,698l-9.33,42.58s7.33,32.56,2.33,42.23c0,0,11.59,15.12,8.46,18.46s-2.46,7.2-15.12,6.87-26.46-4.8-26.46-4.8-3.72-15.73,0-24.8l-2.07-25.46,3.16-60.27S158,701.49,178.67,698Z"/><path class="cls-11" d="M170.21,780.64s17.1,18.63,10.17,24.13-7,11.05-44,.91l.88-24.07s.8,19.69,3.29,21.5,22,6,29.5,3.39,14.19-3.61.2-25.86"/><path class="cls-12" d="M167.51,780.64s-11.25-12-24.25,0C143.26,780.64,156.65,762.17,167.51,780.64Z"/><path class="cls-13" d="M181.67,797.84s2.08,7,1,10.89l-2,2.12-1-2.72-1.5,1v2.75a12.29,12.29,0,0,1-7.62,2.5v-2l-3,.13V815s-9.75.87-10.5-1.25v-1.38l-1.63-.5-.75,2s-6.62.5-8.37-2v-2.12l-3-.88v2s-4.38.54-6.38-2.72l-.15-4.39S174.26,823.24,181.67,797.84Z"/><path class="cls-14" d="M168.17,698.8S160,691,149.48,696h0l-2.14,77.25s9.16-7.3,17.17,0c0,0-1.33-41.79,3.66-74.48"/><path class="cls-15" d="M173.67,792.44s6.5,11.34-13.33,11C160.34,803.44,175,800.82,173.67,792.44Z"/><polygon class="cls-16" points="168.88 700.11 158.41 704.36 148.17 696.99 148.17 699.24 157.01 706.36 147.51 709.49 148.17 711.61 158.41 707.11 167.51 713.11 168.17 711.49 159.38 705.86 168.88 701.61 168.88 700.11"/><polygon class="cls-16" points="168.17 714.99 157.71 719.24 147.46 711.86 147.46 714.11 156.3 721.24 146.8 724.36 147.46 726.49 157.71 721.99 166.8 727.99 167.47 726.36 158.67 720.74 168.17 716.49 168.17 714.99"/><polygon class="cls-16" points="167.19 729.61 156.72 733.86 146.47 726.49 146.47 728.74 155.31 735.86 145.81 738.99 146.47 741.11 156.72 736.61 165.81 742.61 166.48 740.99 157.69 735.36 167.19 731.11 167.19 729.61"/><polygon class="cls-16" points="167.19 744.24 156.72 748.49 146.47 741.11 146.47 743.36 155.31 750.49 145.81 753.61 146.47 755.74 156.72 751.24 165.81 757.24 166.48 755.61 157.69 749.99 167.19 745.74 167.19 744.24"/><polygon class="cls-16" points="167.19 759.11 156.72 763.36 146.47 755.99 146.47 758.24 155.31 765.36 145.81 768.49 146.47 770.61 156.72 766.11 165.81 772.11 166.48 770.49 157.69 764.86 167.19 760.61 167.19 759.11"/><rect class="cls-15" x="154.01" y="802.11" width="3.83" height="1.34" rx="0.67" ry="0.67" transform="translate(311.84 1605.56) rotate(-180)"/></g></g></g></g></svg>