<svg xmlns="http://www.w3.org/2000/svg" viewBox="0 0 270.3 822.45"><defs><style>.cls-1{fill:#2b2d49;}.cls-2{fill:#363956;}.cls-3{fill:#4e526b;}.cls-4{fill:#e0ce69;}.cls-5{fill:#f9a47a;}.cls-6{fill:#ef885b;}.cls-7{fill:#f4af90;}.cls-8{fill:#999;}.cls-9{fill:#353535;}.cls-10{fill:#474747;}.cls-11{fill:#515151;}.cls-12{fill:#5b5b5b;}.cls-13{fill:#282828;}.cls-14{fill:#6b6b6b;}.cls-15{fill:#020202;}</style></defs><title>sncg2</title><g id="Layer_2" data-name="Layer 2"><g id="sncg2"><g id="sncg2-2" data-name="sncg2"><g id="sncgpants2"><g id="ccgpants2"><path class="cls-1" d="M75.18,228.27s43.13,33.48,124.48,0c0,0,17.69,30.75,22,51.08s7.5,103-23.84,209.41c0,0-.23,16.52-3.48,27.93,0,0,14.6,57.68-18.78,157.87l-4.79,35.82s-22.32,4-29.34-1.49c0,0,2.66-23.75-3.36-87,0,0,1.89-47,4.87-65.78A261.93,261.93,0,0,0,146,518.43s-9.54-58.62-4.27-161.54c0,0-1,1.62-7.48.85,0,0,5.36,23.67-3.92,163,0,0,3.59,28.52,5.33,35.34,1.38,5.42,3.69,44.06-.83,68.61s0,84.91,0,84.91-20.62,5.71-30.4.25c0,0-7.4-31.59-18.11-75.83-10.56-43.57-6.9-96-6.9-96S85,490.15,79,474.78,57.39,381,55.63,362.93,42.19,276.63,75.18,228.27Z"/><path class="cls-2" d="M173.14,264.11s8.27,24.09,43,23.43C216.13,287.54,179.09,296.23,173.14,264.11Z"/><path class="cls-2" d="M104.69,264.11S96.52,288.2,62.2,287.54C62.2,287.54,98.81,296.23,104.69,264.11Z"/></g><circle class="cls-2" cx="137.54" cy="256.32" r="5.6"/><path class="cls-3" d="M137.54,251.48s-7.21,6.09,1.29,8.59C138.83,260.07,128.37,259.4,137.54,251.48Z"/><path class="cls-2" d="M129.83,266.07s-.25,43.86,0,52.18,18.09,8.93,17.92,0c0,0-9.95,10.18-15.81,0V267.07Z"/><rect class="cls-2" x="108.92" y="246.43" width="3" height="17.68" rx="1.5" ry="1.5"/><rect class="cls-2" x="160.43" y="246.43" width="2.77" height="17.68" rx="1.38" ry="1.38"/></g><g id="sncgshirt2"><path class="cls-4" d="M115.81.12s20.68,9,40.68,0c0,0,7.78-2.67,6.39,17.33,0,0,10.6,16,52.93,22.33L188.22,233.62s-54.57,29.5-109.57,0L67.58,38.38s43.07-15.26,43.07-21.26S109,1.62,115.81.12Z"/><path class="cls-5" d="M111.48,3.76s-16,2.7-16.42,6.28,1.6,9.58,1.6,9.58-51,13-61,27.5-17,34.5-10.5,56c0,0-25.5,27.92-7,62,0,0-27.17,27.54-11.34,72,0,0-15.33,25.5,0,52v21s7,6,21.17,0l6.67-21.5s18-31,12-50c0,0,16-30.5,15-61,0,0,9.52-3.5,12-39,0,0-9,55.06,3.49,68.53l-5.5,21s20.5,17.28,44.5,23.66L124,12.62S124.4,8.12,111.48,3.76Z"/><path class="cls-5" d="M158.82,3.76s16,2.7,16.42,6.28-1.6,9.58-1.6,9.58,51,13,61,27.5,17,34.5,10.5,56c0,0,25.5,27.92,7,62,0,0,27.17,27.54,11.34,72,0,0,15.33,25.5,0,52v21s-7,6-21.17,0l-6.67-21.5s-18-31-12-50c0,0-16-30.5-15-61,0,0-9.52-3.5-12-39,0,0,9,55.06-3.49,68.53l5.5,21s-20.5,17.28-44.5,23.66L146.32,12.62S145.9,8.12,158.82,3.76Z"/><path class="cls-6" d="M75.65,89.12s4.16,13.66,36.16,13.66C111.81,102.78,79.15,109.78,75.65,89.12Z"/><path class="cls-6" d="M77,150.87s4.16,13.67,36.16,13.67C113.14,164.54,80.48,171.54,77,150.87Z"/><path class="cls-6" d="M78.57,204.49s4.17,13.67,36.17,13.67C114.74,218.16,82.07,225.16,78.57,204.49Z"/><path class="cls-6" d="M195.85,87.9s-4.17,13.67-36.17,13.67C159.68,101.57,192.35,108.57,195.85,87.9Z"/><path class="cls-6" d="M194.52,149.65s-4.17,13.67-36.17,13.67C158.35,163.32,191,170.32,194.52,149.65Z"/><path class="cls-6" d="M192.92,203.28s-4.16,13.66-36.16,13.66C156.76,216.94,189.42,223.94,192.92,203.28Z"/><path class="cls-6" d="M99.15,23.62a17.78,17.78,0,0,0,18,7.82h0S101.64,27.62,99.15,23.62Z"/><path class="cls-6" d="M151.15,31.44s17.66-1.66,19.33-10C170.48,21.45,169.81,34.09,151.15,31.44Z"/><path class="cls-6" d="M27.65,85.12s-2,21.5,20.5,29.5C48.15,114.62,30.21,101.13,27.65,85.12Z"/><path class="cls-6" d="M14.72,138.24s-2,21.5,20.5,29.5C35.22,167.74,17.28,154.26,14.72,138.24Z"/><path class="cls-6" d="M4.45,205.77s-2,21.5,20.5,29.5C25,235.27,7,221.79,4.45,205.77Z"/><path class="cls-6" d="M2.22,264.63s-1.76,18.94,18.06,26C20.28,290.62,4.47,278.74,2.22,264.63Z"/><path class="cls-6" d="M242.35,85.12s2,21.5-20.5,29.5C221.85,114.62,239.79,101.13,242.35,85.12Z"/><path class="cls-6" d="M255.28,138.24s2,21.5-20.5,29.5C234.78,167.74,252.72,154.26,255.28,138.24Z"/><path class="cls-6" d="M265.55,205.77s2,21.5-20.5,29.5C245.05,235.27,263,221.79,265.55,205.77Z"/><path class="cls-6" d="M267.77,264.63s1.77,18.94-18,26C249.72,290.62,265.52,278.74,267.77,264.63Z"/><path class="cls-7" d="M59.65,54.62s13,23,43.5,22.5c0,0-8.55-22.5,3.73-28C106.88,49.12,78.15,33.12,59.65,54.62Z"/><path class="cls-7" d="M208.64,54.62s-11.93,23-39.91,22.5c0,0,7.84-22.5-3.42-28C165.31,49.12,191.67,33.12,208.64,54.62Z"/><polygon class="cls-8" points="123.99 12.62 113.14 250.92 116.15 251.78 125.95 18.12 123.99 12.62"/></g><g id="snowShoes"><path class="cls-9" d="M96.56,705.25l9.34,42.59s-7.34,32.56-2.34,42.23c0,0-11.58,15.12-8.45,18.45s2.45,7.21,15.12,6.88,28.46-4.81,28.46-4.81,1.71-15.72-2-24.79l2.07-25.47-4.17-60.26S117.23,708.77,96.56,705.25Z"/><path class="cls-10" d="M105,787.93s-17.1,18.63-10.17,24.13,8,11.05,45.05.9L138,788.9s-.79,19.69-3.28,21.5-22,6-29.5,3.39S91,810.18,105,787.93"/><path class="cls-11" d="M107.73,787.93s11.25-12,24.25,0C132,787.93,118.59,769.46,107.73,787.93Z"/><path class="cls-12" d="M93.57,805.13s-2.09,7-1,10.89l2,2.12,1-2.73,1.5,1v2.75a12.29,12.29,0,0,0,7.62,2.5v-2l3,.12v2.5s9.75.88,10.5-1.25v-1.37l1.63-.5.75,2s6.62.5,8.37-2V817l3-.87v2s6.38.54,8.38-2.73l-.85-4.39S101,830.52,93.57,805.13Z"/><path class="cls-13" d="M107.06,706.09s8.22-7.85,18.7-2.77h0l2.14,77.25s-9.17-7.31-17.17,0c0,0,1.33-41.8-3.67-74.48"/><path class="cls-14" d="M101.56,799.73s-6.5,11.34,13.34,11C114.9,810.73,100.2,808.11,101.56,799.73Z"/><polygon class="cls-15" points="106.36 707.4 116.83 711.65 127.07 704.27 127.07 706.52 118.23 713.65 127.73 716.77 127.07 718.9 116.83 714.4 107.73 720.4 107.06 718.77 115.86 713.15 106.36 708.9 106.36 707.4"/><polygon class="cls-15" points="107.06 722.27 117.53 726.52 127.78 719.15 127.78 721.4 118.94 728.52 128.44 731.65 127.78 733.77 117.53 729.27 108.44 735.27 107.77 733.65 116.56 728.02 107.06 723.77 107.06 722.27"/><polygon class="cls-15" points="108.05 736.9 118.52 741.15 128.76 733.77 128.76 736.02 119.92 743.15 129.42 746.27 128.76 748.4 118.52 743.9 109.42 749.9 108.75 748.27 117.55 742.65 108.05 738.4 108.05 736.9"/><polygon class="cls-15" points="108.05 751.52 118.52 755.77 128.76 748.4 128.76 750.65 119.92 757.77 129.42 760.9 128.76 763.02 118.52 758.52 109.42 764.52 108.75 762.9 117.55 757.27 108.05 753.02 108.05 751.52"/><polygon class="cls-15" points="108.05 766.4 118.52 770.65 128.76 763.27 128.76 765.52 119.92 772.65 129.42 775.77 128.76 777.9 118.52 773.4 109.42 779.4 108.75 777.77 117.55 772.15 108.05 767.9 108.05 766.4"/><rect class="cls-14" x="117.4" y="809.4" width="3.83" height="1.34" rx="0.67" ry="0.67"/><path class="cls-9" d="M180.51,701.74l-9.33,42.58s7.33,32.56,2.33,42.23c0,0,11.59,15.12,8.46,18.46s-2.46,7.21-15.13,6.87-26.45-4.8-26.45-4.8-3.72-15.73,0-24.8l-2.07-25.46,3.17-60.27S159.84,705.26,180.51,701.74Z"/><path class="cls-10" d="M172.05,784.41s17.1,18.63,10.17,24.13-7,11.05-44,.91l.88-24.07s.8,19.69,3.28,21.5,22,6,29.5,3.39,14.2-3.61.21-25.86"/><path class="cls-11" d="M169.34,784.41s-11.25-12-24.25,0C145.09,784.41,158.48,765.94,169.34,784.41Z"/><path class="cls-12" d="M183.51,801.61s2.08,7,1,10.89l-2,2.12-1-2.72-1.5,1v2.75a12.34,12.34,0,0,1-7.63,2.5v-2l-3,.13v2.5s-9.75.87-10.5-1.25v-1.38l-1.62-.5-.75,2s-6.63.5-8.38-2v-2.12l-3-.88v2s-4.37.54-6.37-2.72l-.15-4.39S176.09,827,183.51,801.61Z"/><path class="cls-13" d="M170,702.57s-8.22-7.85-18.69-2.77h0l-2.14,77.25s9.16-7.3,17.16,0c0,0-1.33-41.79,3.67-74.48"/><path class="cls-14" d="M175.51,796.22s6.5,11.33-13.33,11C162.18,807.22,176.88,804.59,175.51,796.22Z"/><polygon class="cls-15" points="170.72 703.88 160.25 708.13 150.01 700.76 150.01 703.01 158.84 710.13 149.34 713.26 150.01 715.38 160.25 710.88 169.34 716.88 170.01 715.26 161.22 709.63 170.72 705.38 170.72 703.88"/><polygon class="cls-15" points="170.01 718.76 159.54 723.01 149.3 715.63 149.3 717.88 158.14 725.01 148.64 728.13 149.3 730.26 159.54 725.76 168.64 731.76 169.31 730.13 160.51 724.51 170.01 720.26 170.01 718.76"/><polygon class="cls-15" points="169.03 733.38 158.56 737.63 148.31 730.26 148.31 732.51 157.15 739.63 147.65 742.76 148.31 744.88 158.56 740.38 167.65 746.38 168.32 744.76 159.53 739.13 169.03 734.88 169.03 733.38"/><polygon class="cls-15" points="169.03 748.01 158.56 752.26 148.31 744.88 148.31 747.13 157.15 754.26 147.65 757.38 148.31 759.51 158.56 755.01 167.65 761.01 168.32 759.38 159.53 753.76 169.03 749.51 169.03 748.01"/><polygon class="cls-15" points="169.03 762.88 158.56 767.13 148.31 759.76 148.31 762.01 157.15 769.13 147.65 772.26 148.31 774.38 158.56 769.88 167.65 775.88 168.32 774.26 159.53 768.63 169.03 764.38 169.03 762.88"/><rect class="cls-14" x="155.84" y="805.88" width="3.83" height="1.34" rx="0.67" ry="0.67" transform="translate(315.52 1613.11) rotate(180)"/></g></g></g></g></svg>