<svg xmlns="http://www.w3.org/2000/svg" viewBox="0 0 257.67 782.87"><defs><style>.cls-1{fill:#262626;}.cls-2{fill:#777;}.cls-3{fill:#82376d;}.cls-4{fill:#772c65;}.cls-5{fill:#fcfafc;}</style></defs><title>snfg</title><g id="Layer_2" data-name="Layer 2"><g id="snfg"><g id="snfg-2" data-name="snfg"><g id="dressshoes_girl" data-name="dressshoes girl"><path class="cls-1" d="M96,727.91s1.86,34.46,12.11,35,20.2-36.22,20.2-36.22-1.55,18.13,0,22.72,1.72,22.31-.49,25.53-22.95,8-26.45,8-17.09-5.94-17.8-11,7.55-9.53,7.55-14.53S96,727.91,96,727.91Z"/><path class="cls-2" d="M89.65,765.62s-.93,11,12.25,12.75C101.9,778.37,87.42,780.37,89.65,765.62Z"/><path class="cls-1" d="M163.9,729.37s-2.79,33-13,33.5-21.52-36.22-21.52-36.22,2.88,18.13,1.33,22.72-3.85,22.72-1.65,25.94,25.09,7.56,28.59,7.56,17.1-5.94,17.8-11-6.54-9.53-6.54-14.53S163.9,729.37,163.9,729.37Z"/><path class="cls-2" d="M169.36,765.62s.93,11-12.25,12.75C157.11,778.37,171.6,780.37,169.36,765.62Z"/></g><g id="snfgskirt"><path class="cls-3" d="M71.42,216s56.75,27.45,116.75,3.88c0,0,20,42.41,21.51,56.93s10.5,50.33,0,114-22.18,103.67-22.18,109,.34,38,2.67,49-1.67,71.67-13,96.67c0,0-9.67,28.33-10,42.66,0,0-29.33,16-74.67,0,0,0-25-99.33-24.33-106,0,0,4.33-48.33,3.67-57.66s.33-41.34-16.67-99.34-13-124.66-7.72-147.4C51,262.64,70,225.08,71.42,216Z"/><path class="cls-4" d="M55.37,363.35S83.74,461.26,82.65,492s-6.72,81.55-5.89,92.87,20.83,94.78,20.83,94.78S85.52,595.93,85.3,585.93s7.86-81.59,7-94.9S69.4,377.63,55.37,363.35Z"/></g><g id="snfgshirt"><path class="cls-3" d="M109.82,0s17.11,14.51,41,0c0,0,2.45,20.44,8.88,23.46,0,0,17.67,9.7,24.72,11.86s26.68,1.67,38.73,9.17,16.54,56.5,17,65,.25,62.75,1.75,67.5,14.12,41.5,14.31,52.25,1.44,88.25,1.44,88.25-12.34,3.26-20.55-2c0,0-20-71-21.45-80.5s-.5-32.25-1.75-39.75-17.2-58.13-16.5-61.7c0,0-2.5,16-8.5,28s-2,56.55-.75,58.4S139.92,249.54,71.42,216c0,0,7.32-35.27-2.59-54,0,0-9.46-15.9-10.19-28.45,0,0,2.28,23.45-14.47,56.2,0,0,3.5,40.25-15.75,98,0,0-6.75,18.85-6,25.42,0,0-19.34,3.33-22.42-1.92,0,0,2.92-86,4.42-93.75s10-25.25,11-31,1-67.25,5.5-97.75S27.67,45.33,61.17,36,102.23,28.51,109.82,0Z"/><path class="cls-4" d="M70.18,126.82s3,31,20.66,39c0,0,4.67,27.89,0,45.44,0,0,9-33.85,8-46.81C98.84,164.45,79.84,158.82,70.18,126.82Z"/><path class="cls-5" d="M43.19,49.19,48,50.92l-4.77,2.67s7.43-1,10.1,3c0,0-8-1.67-8.67,0l4.1,2.56,1.24.77,3.33,6h-5l7.44,2.67-3.39,2.33,5.94,1.67-2.55,3.33s5.61,2.33,5.61,0A3.69,3.69,0,0,1,57,79.59l4.33,2.12-2.46.88s4.75,2.87,4.75,4.62c0,0-3.25-3.5-4.12-2.87l4.12,4.5H60.83l3.5,1.73-1.75,1.89,2.75,4.25-2.87-.87,3.87,4.5-2,1.87s3.13,3.5,4.75,2.5c0,0-3.5,1.25-4.12-.62l4.12,4.12H67l3.62,2.63H68.21s3.19,1.12,3.22,3.5c0,0-2.72-2.5-2.85-1.88l3.29,4.75H69.71l1.72,3.54-1.64-1s3.5,3,3.83,4.46c0,0-2.91-2.5-3.58-1.67l2.83,2.59-2.25-.42,3.75,1.58-2.5.77L76,128.64l-3.17.7s29.27,73.46,6.84,118.58-17.34,70-17.34,70-38.67-16.67-42-46.33l11.33-25.34L27,249.92l6.33-11h-3l4.67-7-4.34.33,1.67-3-.33-4h2.33l-1-4.33,2-1.67s-.67-2.41-2.25-.08c0,0,.92-2.33,2.33-1.25l-1.58-2.17,1.75.92-2.17-5,2,3.32L34,210.59l1.42.53-1.67-2.2,1.5.33-2-2.58,2.08-.58s-.75-2.42-2.33-1.42a2.83,2.83,0,0,1,2.83.25l-2.5-3.17,1.59.92-2.84-2.75,1.42.08L31,198.59h1.67l-3.42-1.5,2.33-.09s-2.75-2.33-3.58-1c0,0,1.92-1.75,3.42-.58l-3.92-1.58h1.75l-3.83-2.59,1.83.5L25,189.67h1.67s-5.09-.83-6.42-4.83a2.08,2.08,0,0,0,2.92.75s-25.5-23-13-63.75S14.71,54.79,19,49.19,36.41,38.46,43.19,49.19Z"/><path class="cls-5" d="M213.92,49.19l-4.78,1.73,4.78,2.67s-7.44-1-10.11,3c0,0,8-1.67,8.67,0l-4.1,2.56-1.24.77-3.33,6h5.05l-7.44,2.67,3.39,2.33-5.94,1.67,2.55,3.33s-5.61,2.33-5.61,0a3.69,3.69,0,0,0,4.33,3.67l-4.33,2.12,2.46.88s-4.75,2.87-4.75,4.62c0,0,3.25-3.5,4.12-2.87l-4.12,4.5h2.75l-3.5,1.73,1.75,1.89-2.75,4.25,2.87-.87-3.87,4.5,2,1.87s-3.13,3.5-4.75,2.5c0,0,3.5,1.25,4.12-.62L188,108.21h2.12l-3.62,2.63h2.37s-3.19,1.12-3.22,3.5c0,0,2.72-2.5,2.85-1.88l-3.29,4.75h2.16l-1.72,3.54,1.64-1s-3.5,3-3.83,4.46c0,0,2.91-2.5,3.58-1.67l-2.83,2.59,2.25-.42-3.75,1.58,2.5.77-4.09,1.62,3.17.7s-29.26,73.46-6.84,118.58,17.34,70,17.34,70,38.67-16.67,42-46.33l-11.33-25.34,4.66,3.67-6.33-11h3l-4.67-7,4.34.33-1.67-3,.33-4h-2.33l1-4.33-2-1.67s.67-2.41,2.25-.08c0,0-.92-2.33-2.33-1.25l1.58-2.17-1.75.92,2.17-5-2,3.32,1.33-4.4-1.42.53,1.67-2.2-1.5.33,2-2.58-2.08-.58s.75-2.42,2.33-1.42a2.83,2.83,0,0,0-2.83.25l2.5-3.17-1.59.92,2.84-2.75-1.42.08,2.5-1.41h-1.67l3.42-1.5-2.33-.09s2.75-2.33,3.58-1c0,0-1.92-1.75-3.42-.58l3.92-1.58h-1.75l3.83-2.59-1.83.5,2.25-2.08h-1.67s5.09-.83,6.42-4.83a2.08,2.08,0,0,1-2.92.75s25.5-23,13-63.75-4.5-67.05-8.75-72.65S220.69,38.46,213.92,49.19Z"/><path class="cls-4" d="M110,3.49l7.17,2.83s-6,21.17-16.83,27.17-30.5,7.83-30.5,7.83S98.84,39.49,110,3.49Z"/><circle class="cls-5" cx="83.22" cy="31.92" r="2.38"/><circle class="cls-5" cx="85.6" cy="35.46" r="2.38"/><circle class="cls-5" cx="87.85" cy="38.79" r="2.38"/><circle class="cls-5" cx="90.68" cy="41.91" r="2.38"/><circle class="cls-5" cx="93.67" cy="44.29" r="2.38"/><circle class="cls-5" cx="96.63" cy="46.47" r="2.38"/><circle class="cls-5" cx="100.19" cy="48.27" r="2.38"/><circle class="cls-5" cx="104.01" cy="50.2" r="2.38"/><circle class="cls-5" cx="107.83" cy="52.14" r="2.38"/><circle class="cls-5" cx="111.72" cy="53.74" r="2.38"/><circle class="cls-5" cx="116.09" cy="54.43" r="2.38"/><circle class="cls-5" cx="120.07" cy="55.66" r="2.38"/><circle class="cls-5" cx="123.8" cy="56.12" r="2.38"/><circle class="cls-5" cx="127.67" cy="56.71" r="2.38"/><circle class="cls-5" cx="131.61" cy="57.41" r="2.38"/><circle class="cls-5" cx="136.37" cy="57.41" r="2.38"/><circle class="cls-5" cx="140.42" cy="56.71" r="2.38"/><circle class="cls-5" cx="144.99" cy="56.12" r="2.38"/><circle class="cls-5" cx="149.23" cy="55.03" r="2.38"/><circle class="cls-5" cx="153.21" cy="53.28" r="2.38"/><circle class="cls-5" cx="156.85" cy="50.9" r="2.38"/><circle class="cls-5" cx="160.71" cy="48.52" r="2.38"/><circle class="cls-5" cx="164.08" cy="45.32" r="2.38"/><circle class="cls-5" cx="167.57" cy="42.26" r="2.38"/><circle class="cls-5" cx="170.56" cy="38.79" r="2.38"/><circle class="cls-5" cx="173.47" cy="35.46" r="2.38"/><circle class="cls-5" cx="175.88" cy="31.92" r="2.38"/></g></g></g></g></svg>