<svg xmlns="http://www.w3.org/2000/svg" viewBox="0 0 183 415"><defs><style>.cls-1{fill:none;}.cls-2{fill:#262626;}.cls-3{fill:#777;}.cls-4{fill:#5d7c59;}.cls-5{fill:#516d4d;}.cls-6{fill:#bfbfbf;}.cls-7{fill:#fcfafc;}</style></defs><title>snfg2</title><g id="Layer_2" data-name="Layer 2"><g id="snfg2"><g id="snfg2-2" data-name="snfg2"><rect class="cls-1" width="183" height="415"/><g id="dressshoes_girl" data-name="dressshoes girl"><path class="cls-2" d="M75.66,361.66s.92,17.1,6,17.35,10-18,10-18-.77,9,0,11.28.85,11.07-.24,12.67S80,388.93,78.3,388.93s-8.44-2.95-8.79-5.44,3.73-4.73,3.73-7.21S75.66,361.66,75.66,361.66Z"/><path class="cls-3" d="M72.5,380.37s-.46,5.47,6,6.33C78.55,386.7,71.4,387.69,72.5,380.37Z"/><path class="cls-2" d="M109.18,362.38s-1.38,16.38-6.44,16.63S92.1,361,92.1,361s1.43,9,.66,11.28-1.9,11.27-.81,12.87,12.39,3.75,14.12,3.75,8.45-2.95,8.79-5.44-3.23-4.73-3.23-7.21S109.18,362.38,109.18,362.38Z"/><path class="cls-3" d="M111.88,380.37s.45,5.47-6.06,6.33C105.82,386.7,113,387.69,111.88,380.37Z"/></g><g id="snfgskirt"><path class="cls-4" d="M63.16,105.21s28,13.62,57.67,1.92c0,0,9.88,21.06,10.62,28.26s5.19,25,0,56.59-10.95,51.45-10.95,54.1.16,18.86,1.32,24.32-.83,35.58-6.43,48c0,0-4.77,14.07-4.93,21.18,0,0-14.49,7.94-36.89,0,0,0-12.35-49.3-12-52.61,0,0,2.14-24,1.82-28.63s.16-20.51-8.24-49.3-6.42-61.88-3.81-73.17C53.05,128.36,62.45,109.71,63.16,105.21Z"/><path class="cls-5" d="M55.23,178.34s14,48.6,13.48,63.84-3.32,40.48-2.91,46.1,10.29,47.05,10.29,47.05-6-41.54-6.07-46.51,3.88-40.49,3.44-47.1S62.16,185.43,55.23,178.34Z"/></g><g id="snfgshirt"><path class="cls-4" d="M82.11.07s8.45,7.2,20.24,0c0,0,1.21,10.14,4.38,11.64,0,0,8.73,4.82,12.22,5.89s13.18.82,19.13,4.55,8.17,28,8.41,32.26.13,31.15.87,33.51,7,20.59,7.07,25.93.71,43.8.71,43.8-6.1,1.62-10.15-1c0,0-9.86-35.24-10.6-40s-.24-16-.86-19.73-8.5-28.85-8.15-30.62a56.15,56.15,0,0,1-4.2,13.87c-3,6-1,28.07-.37,29S97,123.93,63.14,107.29c0,0,3.62-17.51-1.28-26.82,0,0-4.67-7.89-5-14.12,0,0,1.12,11.64-7.15,27.89,0,0,1.73,20-7.78,48.65,0,0-3.33,9.36-3,12.62,0,0-9.56,1.65-11.08-1,0,0,1.44-42.69,2.19-46.53S35,95.48,35.48,92.63,36,59.25,38.2,44.11s3.33-21.54,19.88-26.18S78.36,14.22,82.11.07Z"/><path class="cls-5" d="M62.53,63S64,78.4,72.73,82.37c0,0,2.31,13.85,0,22.56,0,0,4.45-16.81,4-23.24C76.69,81.69,67.3,78.9,62.53,63Z"/><path class="cls-6" d="M49.19,24.48l2.36.86-2.36,1.32s3.68-.49,5,1.49c0,0-4-.82-4.28,0l2,1.27.61.39,1.64,3H51.69l3.68,1.32-1.68,1.16,2.93.83-1.25,1.65s2.77,1.16,2.77,0A1.83,1.83,0,0,1,56,39.57l2.14,1-1.22.44s2.35,1.43,2.35,2.29c0,0-1.61-1.73-2-1.42l2,2.23H57.91l1.73.86-.87.94,1.36,2.11-1.42-.43,1.92,2.23-1,.93S61.18,52.54,62,52c0,0-1.73.62-2-.31l2,2.05H60.94l1.79,1.3H61.55s1.58.56,1.59,1.74c0,0-1.34-1.24-1.4-.93l1.62,2.36H62.29L63.14,60l-.8-.51S64.06,61,64.23,61.7c0,0-1.44-1.24-1.77-.83l1.4,1.28L62.75,62l1.85.78-1.24.38,2,.81-1.56.34s14.45,36.47,3.38,58.86-8.57,34.75-8.57,34.75-19.1-8.27-20.75-23l5.6-12.57-2.3,1.82,3.13-5.46H42.82l2.31-3.48-2.14.17.82-1.49-.16-2H44.8l-.49-2.15,1-.82s-.33-1.2-1.11-.05c0,0,.46-1.15,1.15-.62l-.78-1.07.87.45-1.07-2.48,1,1.65-.65-2.19.7.27-.83-1.09.74.16-1-1.28,1-.29s-.37-1.2-1.15-.7a1.38,1.38,0,0,1,1.4.12l-1.23-1.57.78.45-1.4-1.36.7,0-1.24-.7H44l-1.69-.75,1.15,0s-1.36-1.16-1.77-.49c0,0,.95-.87,1.69-.29l-1.93-.79h.86L40.44,95l.9.25-1.11-1h.82s-2.51-.41-3.17-2.4a1,1,0,0,0,1.45.37S26.73,80.77,32.9,60.54s2.23-33.28,4.33-36.06S45.85,19.16,49.19,24.48Z"/><path class="cls-6" d="M133.53,24.48l-2.36.86,2.36,1.32s-3.68-.49-5,1.49c0,0,4-.82,4.28,0l-2,1.27-.61.39-1.65,3H131l-3.68,1.32L129,35.27l-2.94.83,1.26,1.65s-2.77,1.16-2.77,0a1.83,1.83,0,0,0,2.14,1.82l-2.14,1,1.22.44s-2.35,1.43-2.35,2.29c0,0,1.61-1.73,2-1.42l-2,2.23h1.36l-1.73.86.86.94-1.35,2.11,1.42-.43-1.92,2.23,1,.93s-1.54,1.74-2.35,1.24c0,0,1.73.62,2-.31l-2,2.05h1L120,55.08h1.18s-1.58.56-1.6,1.74c0,0,1.35-1.24,1.41-.93l-1.62,2.36h1.06L119.57,60l.81-.51s-1.73,1.47-1.89,2.21c0,0,1.44-1.24,1.77-.83l-1.4,1.28L120,62l-1.85.78,1.24.38-2,.81,1.56.34s-14.45,36.47-3.38,58.86,8.57,34.75,8.57,34.75,19.1-8.27,20.74-23l-5.59-12.57,2.3,1.82-3.13-5.46h1.48l-2.3-3.48,2.14.17-.82-1.49.16-2h-1.15l.49-2.15-1-.82s.33-1.2,1.12-.05c0,0-.46-1.15-1.16-.62l.79-1.07-.87.45,1.07-2.48-1,1.65.66-2.19-.7.27.83-1.09-.75.16,1-1.28-1-.29s.37-1.2,1.16-.7a1.38,1.38,0,0,0-1.4.12l1.23-1.57-.78.45L139,99.3l-.7,0,1.23-.7h-.82l1.69-.75-1.15,0s1.35-1.16,1.77-.49c0,0-.95-.87-1.69-.29l1.93-.79h-.86L142.28,95l-.9.25,1.11-1h-.83s2.52-.41,3.17-2.4a1,1,0,0,1-1.44.37s12.6-11.41,6.42-31.64-2.22-33.28-4.32-36.06S136.87,19.16,133.53,24.48Z"/><path class="cls-5" d="M82.2,1.8l3.54,1.4s-3,10.51-8.32,13.49-15.06,3.89-15.06,3.89S76.68,19.67,82.2,1.8Z"/><ellipse class="cls-7" cx="68.97" cy="15.91" rx="1.18" ry="1.18"/><ellipse class="cls-7" cx="70.14" cy="17.67" rx="1.18" ry="1.18"/><ellipse class="cls-7" cx="71.25" cy="19.32" rx="1.18" ry="1.18"/><ellipse class="cls-7" cx="72.65" cy="20.87" rx="1.18" ry="1.18"/><ellipse class="cls-7" cx="74.13" cy="22.05" rx="1.18" ry="1.18"/><ellipse class="cls-7" cx="75.59" cy="23.13" rx="1.18" ry="1.18"/><ellipse class="cls-7" cx="77.35" cy="24.03" rx="1.18" ry="1.18"/><ellipse class="cls-7" cx="79.24" cy="24.98" rx="1.18" ry="1.18"/><ellipse class="cls-7" cx="81.13" cy="25.94" rx="1.18" ry="1.18"/><ellipse class="cls-7" cx="83.05" cy="26.74" rx="1.18" ry="1.18"/><ellipse class="cls-7" cx="85.2" cy="27.08" rx="1.18" ry="1.18"/><ellipse class="cls-7" cx="87.17" cy="27.69" rx="1.18" ry="1.18"/><ellipse class="cls-7" cx="89.01" cy="27.92" rx="1.18" ry="1.18"/><ellipse class="cls-7" cx="90.92" cy="28.21" rx="1.18" ry="1.18"/><ellipse class="cls-7" cx="92.87" cy="28.56" rx="1.18" ry="1.18"/><ellipse class="cls-7" cx="95.22" cy="28.56" rx="1.18" ry="1.18"/><ellipse class="cls-7" cx="97.22" cy="28.21" rx="1.18" ry="1.18"/><ellipse class="cls-7" cx="99.48" cy="27.92" rx="1.18" ry="1.18"/><ellipse class="cls-7" cx="101.57" cy="27.38" rx="1.18" ry="1.18"/><ellipse class="cls-7" cx="103.54" cy="26.51" rx="1.18" ry="1.18"/><ellipse class="cls-7" cx="105.34" cy="25.33" rx="1.18" ry="1.18"/><ellipse class="cls-7" cx="107.25" cy="24.15" rx="1.18" ry="1.18"/><ellipse class="cls-7" cx="108.91" cy="22.56" rx="1.18" ry="1.18"/><ellipse class="cls-7" cx="110.63" cy="21.04" rx="1.18" ry="1.18"/><ellipse class="cls-7" cx="112.11" cy="19.32" rx="1.18" ry="1.18"/><ellipse class="cls-7" cx="113.54" cy="17.67" rx="1.18" ry="1.18"/><ellipse class="cls-7" cx="114.74" cy="15.91" rx="1.18" ry="1.18"/></g></g></g></g></svg>