<svg xmlns="http://www.w3.org/2000/svg" viewBox="0 0 183 415"><defs><style>.cls-1{fill:none;}.cls-2{fill:#2b2d49;}.cls-3{fill:#363956;}.cls-4{fill:#4e526b;}.cls-5{fill:#e0ce69;}.cls-6{fill:#f9a47a;}.cls-7{fill:#ef885b;}.cls-8{fill:#f4af90;}.cls-9{fill:#999;}.cls-10{fill:#353535;}.cls-11{fill:#474747;}.cls-12{fill:#515151;}.cls-13{fill:#5b5b5b;}.cls-14{fill:#282828;}.cls-15{fill:#6b6b6b;}.cls-16{fill:#020202;}</style></defs><title>try1</title><g id="Layer_2" data-name="Layer 2"><g id="sncg2"><g id="sncg2-2" data-name="sncg2"><rect class="cls-1" width="183" height="415"/><g id="sncgpants2"><g id="ccgpants2"><path class="cls-2" d="M61.88,116.68s21.3,16.62,61.48,0c0,0,8.74,15.27,10.85,25.36s3.7,51.14-11.78,104c0,0-.11,8.2-1.72,13.86,0,0,7.22,28.63-9.27,78.36L109.07,356s-11,2-14.49-.74c0,0,1.31-11.79-1.66-43.18,0,0,.93-23.31,2.4-32.65a131.59,131.59,0,0,0,1.56-18.71s-4.72-29.09-2.12-80.18c0,0-.51.8-3.69.42,0,0,2.65,11.75-1.94,80.93,0,0,1.78,14.15,2.64,17.54.68,2.69,1.82,21.87-.41,34.06s0,42.14,0,42.14-10.19,2.84-15,.13c0,0-3.65-15.68-9-37.64-5.21-21.63-3.4-47.68-3.4-47.68s2.72-23.75-.25-31.39-10.65-46.53-11.52-55.51S45.58,140.69,61.88,116.68Z"/><path class="cls-3" d="M110.26,134.48s4.09,12,21.24,11.63C131.5,146.11,113.2,150.42,110.26,134.48Z"/><path class="cls-3" d="M76.45,134.48s-4,12-21,11.63C55.47,146.11,73.55,150.42,76.45,134.48Z"/></g><ellipse class="cls-3" cx="92.68" cy="130.61" rx="2.76" ry="2.78"/><path class="cls-4" d="M92.68,128.21s-3.56,3,.64,4.26C93.32,132.47,88.15,132.14,92.68,128.21Z"/><path class="cls-3" d="M88.87,135.45s-.12,21.77,0,25.9,8.93,4.43,8.85,0c0,0-4.91,5.06-7.81,0V135.94Z"/><rect class="cls-3" x="78.54" y="125.7" width="1.48" height="8.78" rx="0.74" ry="0.74"/><rect class="cls-3" x="103.98" y="125.7" width="1.37" height="8.78" rx="0.68" ry="0.68"/></g><g id="sncgshirt2"><path class="cls-5" d="M82,3.44s10.21,4.47,20.09,0c0,0,3.84-1.32,3.15,8.6,0,0,5.24,8,26.15,11.09l-13.62,96.21s-27,14.64-54.13,0L58.12,22.43S79.4,14.86,79.4,11.88,78.57,4.19,82,3.44Z"/><path class="cls-6" d="M79.81,5.25S71.9,6.59,71.7,8.37a14.54,14.54,0,0,0,.79,4.75s-25.2,6.45-30.14,13.65S34,43.89,37.16,54.57c0,0-12.59,13.85-3.45,30.75,0,0-13.42,13.67-5.6,35.76,0,0-7.58,12.66,0,25.81v10.42s3.45,3,10.45,0l3.3-10.67s8.89-15.39,5.92-24.82c0,0,7.91-15.14,7.41-30.27,0,0,4.71-1.74,5.94-19.36,0,0-4.46,27.33,1.72,34l-2.72,10.41s10.13,8.58,22,11.75L86,9.65S86.19,7.41,79.81,5.25Z"/><path class="cls-6" d="M103.19,5.25s7.91,1.34,8.11,3.12a14.54,14.54,0,0,1-.79,4.75s25.2,6.45,30.14,13.65,8.4,17.12,5.19,27.8c0,0,12.59,13.85,3.45,30.75,0,0,13.42,13.67,5.6,35.76,0,0,7.58,12.66,0,25.81v10.42s-3.45,3-10.45,0l-3.3-10.67s-8.89-15.39-5.92-24.82c0,0-7.91-15.14-7.41-30.27,0,0-4.71-1.74-5.94-19.36,0,0,4.46,27.33-1.72,34l2.72,10.41s-10.13,8.58-22,11.75L97,9.65S96.81,7.41,103.19,5.25Z"/><path class="cls-7" d="M62.11,47.62S64.17,54.4,80,54.4C80,54.4,63.84,57.88,62.11,47.62Z"/><path class="cls-7" d="M62.76,78.27s2.06,6.78,17.87,6.78C80.63,85.05,64.49,88.53,62.76,78.27Z"/><path class="cls-7" d="M63.55,104.89s2.06,6.78,17.87,6.78C81.42,111.67,65.28,115.14,63.55,104.89Z"/><path class="cls-7" d="M121.48,47s-2.06,6.79-17.86,6.79C103.62,53.8,119.75,57.27,121.48,47Z"/><path class="cls-7" d="M120.83,77.66s-2.06,6.79-17.87,6.79C103,84.45,119.1,87.92,120.83,77.66Z"/><path class="cls-7" d="M120,104.28s-2.06,6.79-17.87,6.79C102.17,111.07,118.31,114.54,120,104.28Z"/><path class="cls-7" d="M73.72,15.11A8.76,8.76,0,0,0,82.61,19h0S75,17.09,73.72,15.11Z"/><path class="cls-7" d="M99.4,19s8.73-.82,9.55-5C109,14,108.62,20.3,99.4,19Z"/><path class="cls-7" d="M38.4,45.63A14.58,14.58,0,0,0,48.52,60.27S39.66,53.58,38.4,45.63Z"/><path class="cls-7" d="M32,72A14.58,14.58,0,0,0,42.14,86.64S33.28,80,32,72Z"/><path class="cls-7" d="M26.94,105.52a14.58,14.58,0,0,0,10.12,14.64S28.2,113.47,26.94,105.52Z"/><path class="cls-7" d="M25.84,134.74a12.84,12.84,0,0,0,8.92,12.89S27,141.74,25.84,134.74Z"/><path class="cls-7" d="M144.45,45.63a14.58,14.58,0,0,1-10.13,14.64S143.19,53.58,144.45,45.63Z"/><path class="cls-7" d="M150.84,72a14.6,14.6,0,0,1-10.13,14.64S149.57,80,150.84,72Z"/><path class="cls-7" d="M155.91,105.52a14.58,14.58,0,0,1-10.13,14.64S154.65,113.47,155.91,105.52Z"/><path class="cls-7" d="M157,134.74a12.84,12.84,0,0,1-8.92,12.89S155.9,141.74,157,134.74Z"/><path class="cls-8" d="M54.21,30.49A24.52,24.52,0,0,0,75.69,41.66s-4.22-11.17,1.84-13.9C77.53,27.76,63.34,19.82,54.21,30.49Z"/><path class="cls-8" d="M127.8,30.49a22.32,22.32,0,0,1-19.71,11.17s3.87-11.17-1.69-13.9C106.4,27.76,119.42,19.82,127.8,30.49Z"/><polygon class="cls-9" points="85.98 9.65 80.63 127.93 82.11 128.36 86.95 12.38 85.98 9.65"/></g><g id="snowShoes"><path class="cls-10" d="M71.44,334.44l4.61,21.14s-3.62,16.16-1.15,21c0,0-5.73,7.51-4.18,9.16s1.21,3.58,7.47,3.42a68.94,68.94,0,0,0,14.06-2.39s.84-7.81-1-12.31l1-12.64L90.2,331.87A33.24,33.24,0,0,1,71.44,334.44Z"/><path class="cls-11" d="M75.62,375.48s-8.45,9.25-5,12,4,5.48,22.24.45l-.93-12s-.39,9.78-1.62,10.67-10.86,3-14.57,1.69-7-1.8-.1-12.84"/><path class="cls-12" d="M77,375.48s5.55-5.94,12,0C88.93,375.48,82.32,366.31,77,375.48Z"/><path class="cls-13" d="M70,384s-1,3.45-.47,5.4l1,1.06.5-1.36.74.49V391a6.06,6.06,0,0,0,3.76,1.24v-1l1.49.06v1.24s4.81.43,5.18-.62v-.68l.8-.25.38,1s3.27.25,4.13-1v-1.06l1.48-.43v1s3.15.26,4.14-1.36l-.42-2.18S73.62,396.62,70,384Z"/><path class="cls-14" d="M76.63,334.86a8.41,8.41,0,0,1,9.23-1.38h0l1.06,38.35s-4.53-3.63-8.48,0c0,0,.65-20.75-1.81-37"/><path class="cls-15" d="M73.91,381.34S70.7,387,80.5,386.8C80.5,386.8,73.24,385.5,73.91,381.34Z"/><polygon class="cls-16" points="76.28 335.51 81.45 337.62 86.51 333.96 86.51 335.07 82.14 338.61 86.83 340.16 86.51 341.22 81.45 338.98 76.96 341.96 76.63 341.15 80.97 338.36 76.28 336.25 76.28 335.51"/><polygon class="cls-16" points="76.63 342.89 81.8 345 86.86 341.34 86.86 342.46 82.49 346 87.18 347.55 86.86 348.6 81.8 346.37 77.3 349.35 76.97 348.54 81.32 345.75 76.63 343.64 76.63 342.89"/><polygon class="cls-16" points="77.11 350.15 82.28 352.26 87.34 348.6 87.34 349.72 82.98 353.25 87.67 354.81 87.34 355.86 82.28 353.63 77.79 356.6 77.46 355.8 81.81 353.01 77.11 350.9 77.11 350.15"/><polygon class="cls-16" points="77.11 357.41 82.28 359.52 87.34 355.86 87.34 356.98 82.98 360.51 87.67 362.06 87.34 363.12 82.28 360.89 77.79 363.86 77.46 363.06 81.81 360.26 77.11 358.16 77.11 357.41"/><polygon class="cls-16" points="77.11 364.79 82.28 366.9 87.34 363.24 87.34 364.36 82.98 367.9 87.67 369.45 87.34 370.5 82.28 368.27 77.79 371.25 77.46 370.44 81.81 367.65 77.11 365.54 77.11 364.79"/><rect class="cls-15" x="81.73" y="386.14" width="1.89" height="0.67" rx="0.33" ry="0.33"/><path class="cls-10" d="M112.91,332.7l-4.61,21.14s3.62,16.16,1.15,21c0,0,5.72,7.5,4.18,9.16s-1.22,3.58-7.48,3.41A53.79,53.79,0,0,1,93.09,385s-1.84-7.81,0-12.31l-1-12.64,1.57-29.92A35.57,35.57,0,0,0,112.91,332.7Z"/><path class="cls-11" d="M108.73,373.74s8.44,9.24,5,12-3.47,5.49-21.75.45l.43-11.94s.39,9.77,1.62,10.67,10.87,3,14.57,1.68,7-1.79.11-12.83"/><path class="cls-12" d="M107.39,373.74s-5.56-5.95-12,0C95.41,373.74,102,364.57,107.39,373.74Z"/><path class="cls-13" d="M114.38,382.27s1,3.46.48,5.41l-1,1.05-.49-1.35-.74.49v1.36a6.07,6.07,0,0,1-3.77,1.24v-1l-1.48.06v1.24s-4.82.44-5.19-.62v-.68l-.8-.25-.37,1s-3.27.25-4.14-1v-1.05l-1.48-.44v1a3.41,3.41,0,0,1-3.15-1.35l-.07-2.18S110.72,394.88,114.38,382.27Z"/><path class="cls-14" d="M107.72,333.11a8.43,8.43,0,0,0-9.23-1.37h0l-1.06,38.34s4.53-3.62,8.48,0c0,0-.66-20.74,1.81-37"/><path class="cls-15" d="M110.44,379.59s3.21,5.63-6.59,5.46C103.85,385.05,111.11,383.75,110.44,379.59Z"/><polygon class="cls-16" points="108.07 333.76 102.9 335.87 97.84 332.21 97.84 333.33 102.2 336.87 97.51 338.42 97.84 339.47 102.9 337.24 107.39 340.22 107.72 339.41 103.38 336.62 108.07 334.51 108.07 333.76"/><polygon class="cls-16" points="107.72 341.15 102.55 343.26 97.49 339.6 97.49 340.71 101.85 344.25 97.16 345.8 97.49 346.86 102.55 344.62 107.04 347.6 107.37 346.79 103.03 344 107.72 341.89 107.72 341.15"/><polygon class="cls-16" points="107.23 348.41 102.06 350.52 97 346.86 97 347.97 101.37 351.51 96.67 353.06 97 354.11 102.06 351.88 106.55 354.86 106.88 354.05 102.54 351.26 107.23 349.15 107.23 348.41"/><polygon class="cls-16" points="107.23 355.67 102.06 357.77 97 354.11 97 355.23 101.37 358.77 96.67 360.32 97 361.37 102.06 359.14 106.55 362.12 106.88 361.31 102.54 358.52 107.23 356.41 107.23 355.67"/><polygon class="cls-16" points="107.23 363.05 102.06 365.16 97 361.5 97 362.62 101.37 366.15 96.67 367.7 97 368.76 102.06 366.52 106.55 369.5 106.88 368.69 102.54 365.9 107.23 363.79 107.23 363.05"/><rect class="cls-15" x="100.72" y="384.39" width="1.89" height="0.67" rx="0.33" ry="0.33" transform="translate(203.34 769.45) rotate(-180)"/></g></g></g></g></svg>